G04 #@! TF.GenerationSoftware,KiCad,Pcbnew,5.1.10-88a1d61d58~88~ubuntu20.04.1*
G04 #@! TF.CreationDate,2021-04-28T19:55:47-05:00*
G04 #@! TF.ProjectId,obi1,6f626931-2e6b-4696-9361-645f70636258,rev?*
G04 #@! TF.SameCoordinates,Original*
G04 #@! TF.FileFunction,Copper,L1,Top*
G04 #@! TF.FilePolarity,Positive*
%FSLAX46Y46*%
G04 Gerber Fmt 4.6, Leading zero omitted, Abs format (unit mm)*
G04 Created by KiCad (PCBNEW 5.1.10-88a1d61d58~88~ubuntu20.04.1) date 2021-04-28 19:55:47*
%MOMM*%
%LPD*%
G01*
G04 APERTURE LIST*
G04 #@! TA.AperFunction,SMDPad,CuDef*
%ADD10R,0.600000X0.350000*%
G04 #@! TD*
G04 #@! TA.AperFunction,SMDPad,CuDef*
%ADD11R,0.350000X0.600000*%
G04 #@! TD*
G04 #@! TA.AperFunction,SMDPad,CuDef*
%ADD12R,1.860000X3.190000*%
G04 #@! TD*
G04 #@! TA.AperFunction,SMDPad,CuDef*
%ADD13R,1.860000X0.900000*%
G04 #@! TD*
G04 #@! TA.AperFunction,SMDPad,CuDef*
%ADD14R,1.350000X0.400000*%
G04 #@! TD*
G04 #@! TA.AperFunction,ComponentPad*
%ADD15C,1.950000*%
G04 #@! TD*
G04 #@! TA.AperFunction,SMDPad,CuDef*
%ADD16R,1.400000X1.600000*%
G04 #@! TD*
G04 #@! TA.AperFunction,SMDPad,CuDef*
%ADD17R,1.600000X1.900000*%
G04 #@! TD*
G04 #@! TA.AperFunction,SMDPad,CuDef*
%ADD18R,0.600000X1.295000*%
G04 #@! TD*
G04 #@! TA.AperFunction,ComponentPad*
%ADD19O,1.700000X1.700000*%
G04 #@! TD*
G04 #@! TA.AperFunction,ComponentPad*
%ADD20R,1.700000X1.700000*%
G04 #@! TD*
G04 #@! TA.AperFunction,SMDPad,CuDef*
%ADD21R,1.473200X0.355600*%
G04 #@! TD*
G04 #@! TA.AperFunction,SMDPad,CuDef*
%ADD22R,1.475000X0.450000*%
G04 #@! TD*
G04 #@! TA.AperFunction,SMDPad,CuDef*
%ADD23C,0.400000*%
G04 #@! TD*
G04 #@! TA.AperFunction,SMDPad,CuDef*
%ADD24R,1.550000X0.650000*%
G04 #@! TD*
G04 #@! TA.AperFunction,SMDPad,CuDef*
%ADD25R,1.550000X1.300000*%
G04 #@! TD*
G04 #@! TA.AperFunction,ComponentPad*
%ADD26R,1.600000X1.600000*%
G04 #@! TD*
G04 #@! TA.AperFunction,ComponentPad*
%ADD27O,1.600000X1.600000*%
G04 #@! TD*
G04 #@! TA.AperFunction,SMDPad,CuDef*
%ADD28R,1.240000X1.290000*%
G04 #@! TD*
G04 #@! TA.AperFunction,SMDPad,CuDef*
%ADD29R,1.371600X0.457200*%
G04 #@! TD*
G04 #@! TA.AperFunction,ViaPad*
%ADD30C,0.400000*%
G04 #@! TD*
G04 #@! TA.AperFunction,Conductor*
%ADD31C,0.381000*%
G04 #@! TD*
G04 #@! TA.AperFunction,Conductor*
%ADD32C,0.400000*%
G04 #@! TD*
G04 #@! TA.AperFunction,Conductor*
%ADD33C,0.132121*%
G04 #@! TD*
G04 #@! TA.AperFunction,Conductor*
%ADD34C,0.150000*%
G04 #@! TD*
G04 #@! TA.AperFunction,Conductor*
%ADD35C,0.152400*%
G04 #@! TD*
G04 #@! TA.AperFunction,Conductor*
%ADD36C,0.254000*%
G04 #@! TD*
G04 #@! TA.AperFunction,Conductor*
%ADD37C,0.100000*%
G04 #@! TD*
G04 APERTURE END LIST*
D10*
X176430000Y-95330000D03*
X176430000Y-95830000D03*
X176430000Y-94830000D03*
X176430000Y-96330000D03*
X178750000Y-95330000D03*
X178750000Y-95830000D03*
X178750000Y-94830000D03*
X178750000Y-96330000D03*
D11*
X177090000Y-94670000D03*
X177590000Y-94670000D03*
X178090000Y-94670000D03*
X177090000Y-96490000D03*
X177590000Y-96490000D03*
X178090000Y-96490000D03*
D12*
X144965000Y-77470000D03*
D13*
X138815000Y-79770000D03*
X138815000Y-77470000D03*
X138815000Y-75170000D03*
D12*
X154635000Y-77673200D03*
D13*
X148485000Y-79973200D03*
X148485000Y-77673200D03*
X148485000Y-75373200D03*
D14*
X123758000Y-74900000D03*
X123758000Y-75550000D03*
X123758000Y-76200000D03*
X123758000Y-76850000D03*
X123758000Y-77500000D03*
D15*
X121083000Y-72900000D03*
X121083000Y-79500000D03*
D16*
X123533000Y-73000000D03*
D17*
X121083000Y-75000000D03*
X121083000Y-77400000D03*
D16*
X123533000Y-79400000D03*
G04 #@! TA.AperFunction,SMDPad,CuDef*
G36*
G01*
X181395000Y-98880000D02*
X182345000Y-98880000D01*
G75*
G02*
X182595000Y-99130000I0J-250000D01*
G01*
X182595000Y-99805000D01*
G75*
G02*
X182345000Y-100055000I-250000J0D01*
G01*
X181395000Y-100055000D01*
G75*
G02*
X181145000Y-99805000I0J250000D01*
G01*
X181145000Y-99130000D01*
G75*
G02*
X181395000Y-98880000I250000J0D01*
G01*
G37*
G04 #@! TD.AperFunction*
G04 #@! TA.AperFunction,SMDPad,CuDef*
G36*
G01*
X181395000Y-96805000D02*
X182345000Y-96805000D01*
G75*
G02*
X182595000Y-97055000I0J-250000D01*
G01*
X182595000Y-97730000D01*
G75*
G02*
X182345000Y-97980000I-250000J0D01*
G01*
X181395000Y-97980000D01*
G75*
G02*
X181145000Y-97730000I0J250000D01*
G01*
X181145000Y-97055000D01*
G75*
G02*
X181395000Y-96805000I250000J0D01*
G01*
G37*
G04 #@! TD.AperFunction*
G04 #@! TA.AperFunction,SMDPad,CuDef*
G36*
G01*
X178360000Y-99985000D02*
X178360000Y-99035000D01*
G75*
G02*
X178610000Y-98785000I250000J0D01*
G01*
X179285000Y-98785000D01*
G75*
G02*
X179535000Y-99035000I0J-250000D01*
G01*
X179535000Y-99985000D01*
G75*
G02*
X179285000Y-100235000I-250000J0D01*
G01*
X178610000Y-100235000D01*
G75*
G02*
X178360000Y-99985000I0J250000D01*
G01*
G37*
G04 #@! TD.AperFunction*
G04 #@! TA.AperFunction,SMDPad,CuDef*
G36*
G01*
X176285000Y-99985000D02*
X176285000Y-99035000D01*
G75*
G02*
X176535000Y-98785000I250000J0D01*
G01*
X177210000Y-98785000D01*
G75*
G02*
X177460000Y-99035000I0J-250000D01*
G01*
X177460000Y-99985000D01*
G75*
G02*
X177210000Y-100235000I-250000J0D01*
G01*
X176535000Y-100235000D01*
G75*
G02*
X176285000Y-99985000I0J250000D01*
G01*
G37*
G04 #@! TD.AperFunction*
D18*
X130360000Y-98488000D03*
X131160000Y-98488000D03*
X131960000Y-98488000D03*
X132760000Y-98488000D03*
X133560000Y-98488000D03*
X134360000Y-98488000D03*
X135160000Y-98488000D03*
X135960000Y-98488000D03*
X136760000Y-98488000D03*
X137560000Y-98488000D03*
X138360000Y-98488000D03*
X139160000Y-98488000D03*
X139960000Y-98488000D03*
X140760000Y-98488000D03*
X141560000Y-98488000D03*
X142360000Y-98488000D03*
X143160000Y-98488000D03*
X143960000Y-98488000D03*
X144760000Y-98488000D03*
X145560000Y-98488000D03*
X146360000Y-98488000D03*
X147160000Y-98488000D03*
X147160000Y-87032000D03*
X146360000Y-87032000D03*
X145560000Y-87032000D03*
X144760000Y-87032000D03*
X143960000Y-87032000D03*
X143160000Y-87032000D03*
X142360000Y-87032000D03*
X141560000Y-87032000D03*
X140760000Y-87032000D03*
X139960000Y-87032000D03*
X139160000Y-87032000D03*
X138360000Y-87032000D03*
X137560000Y-87032000D03*
X136760000Y-87032000D03*
X135960000Y-87032000D03*
X135160000Y-87032000D03*
X134360000Y-87032000D03*
X133560000Y-87032000D03*
X132760000Y-87032000D03*
X131960000Y-87032000D03*
X131160000Y-87032000D03*
X130360000Y-87032000D03*
G04 #@! TA.AperFunction,SMDPad,CuDef*
G36*
G01*
X148024000Y-73119000D02*
X148024000Y-72169000D01*
G75*
G02*
X148274000Y-71919000I250000J0D01*
G01*
X148949000Y-71919000D01*
G75*
G02*
X149199000Y-72169000I0J-250000D01*
G01*
X149199000Y-73119000D01*
G75*
G02*
X148949000Y-73369000I-250000J0D01*
G01*
X148274000Y-73369000D01*
G75*
G02*
X148024000Y-73119000I0J250000D01*
G01*
G37*
G04 #@! TD.AperFunction*
G04 #@! TA.AperFunction,SMDPad,CuDef*
G36*
G01*
X145949000Y-73119000D02*
X145949000Y-72169000D01*
G75*
G02*
X146199000Y-71919000I250000J0D01*
G01*
X146874000Y-71919000D01*
G75*
G02*
X147124000Y-72169000I0J-250000D01*
G01*
X147124000Y-73119000D01*
G75*
G02*
X146874000Y-73369000I-250000J0D01*
G01*
X146199000Y-73369000D01*
G75*
G02*
X145949000Y-73119000I0J250000D01*
G01*
G37*
G04 #@! TD.AperFunction*
G04 #@! TA.AperFunction,SMDPad,CuDef*
G36*
G01*
X145067000Y-80925000D02*
X146017000Y-80925000D01*
G75*
G02*
X146267000Y-81175000I0J-250000D01*
G01*
X146267000Y-81850000D01*
G75*
G02*
X146017000Y-82100000I-250000J0D01*
G01*
X145067000Y-82100000D01*
G75*
G02*
X144817000Y-81850000I0J250000D01*
G01*
X144817000Y-81175000D01*
G75*
G02*
X145067000Y-80925000I250000J0D01*
G01*
G37*
G04 #@! TD.AperFunction*
G04 #@! TA.AperFunction,SMDPad,CuDef*
G36*
G01*
X145067000Y-83000000D02*
X146017000Y-83000000D01*
G75*
G02*
X146267000Y-83250000I0J-250000D01*
G01*
X146267000Y-83925000D01*
G75*
G02*
X146017000Y-84175000I-250000J0D01*
G01*
X145067000Y-84175000D01*
G75*
G02*
X144817000Y-83925000I0J250000D01*
G01*
X144817000Y-83250000D01*
G75*
G02*
X145067000Y-83000000I250000J0D01*
G01*
G37*
G04 #@! TD.AperFunction*
G04 #@! TA.AperFunction,SMDPad,CuDef*
G36*
G01*
X130613999Y-79140000D02*
X131514001Y-79140000D01*
G75*
G02*
X131764000Y-79389999I0J-249999D01*
G01*
X131764000Y-80090001D01*
G75*
G02*
X131514001Y-80340000I-249999J0D01*
G01*
X130613999Y-80340000D01*
G75*
G02*
X130364000Y-80090001I0J249999D01*
G01*
X130364000Y-79389999D01*
G75*
G02*
X130613999Y-79140000I249999J0D01*
G01*
G37*
G04 #@! TD.AperFunction*
G04 #@! TA.AperFunction,SMDPad,CuDef*
G36*
G01*
X130613999Y-77140000D02*
X131514001Y-77140000D01*
G75*
G02*
X131764000Y-77389999I0J-249999D01*
G01*
X131764000Y-78090001D01*
G75*
G02*
X131514001Y-78340000I-249999J0D01*
G01*
X130613999Y-78340000D01*
G75*
G02*
X130364000Y-78090001I0J249999D01*
G01*
X130364000Y-77389999D01*
G75*
G02*
X130613999Y-77140000I249999J0D01*
G01*
G37*
G04 #@! TD.AperFunction*
D19*
X127000000Y-137160000D03*
X127000000Y-139700000D03*
X129540000Y-137160000D03*
X129540000Y-139700000D03*
X132080000Y-137160000D03*
X132080000Y-139700000D03*
X134620000Y-137160000D03*
X134620000Y-139700000D03*
X137160000Y-137160000D03*
X137160000Y-139700000D03*
X139700000Y-137160000D03*
X139700000Y-139700000D03*
X142240000Y-137160000D03*
X142240000Y-139700000D03*
X144780000Y-137160000D03*
X144780000Y-139700000D03*
X147320000Y-137160000D03*
X147320000Y-139700000D03*
X149860000Y-137160000D03*
X149860000Y-139700000D03*
X152400000Y-137160000D03*
D20*
X152400000Y-139700000D03*
D21*
X180213000Y-83972400D03*
X180213000Y-83312000D03*
X180213000Y-82677000D03*
X180213000Y-82016600D03*
X180213000Y-81356200D03*
X180213000Y-80721200D03*
X180213000Y-80060800D03*
X180213000Y-79425800D03*
X180213000Y-78765400D03*
X180213000Y-78105000D03*
X180213000Y-77470000D03*
X180213000Y-76809600D03*
X186055000Y-76809600D03*
X186055000Y-77470000D03*
X186055000Y-78105000D03*
X186055000Y-78765400D03*
X186055000Y-79425800D03*
X186055000Y-80060800D03*
X186055000Y-80721200D03*
X186055000Y-81356200D03*
X186055000Y-82016600D03*
X186055000Y-82677000D03*
X186055000Y-83312000D03*
X186055000Y-83972400D03*
D22*
X179942000Y-133522000D03*
X179942000Y-132872000D03*
X179942000Y-132222000D03*
X179942000Y-131572000D03*
X179942000Y-130922000D03*
X179942000Y-130272000D03*
X179942000Y-129622000D03*
X185818000Y-129622000D03*
X185818000Y-130272000D03*
X185818000Y-130922000D03*
X185818000Y-131572000D03*
X185818000Y-132222000D03*
X185818000Y-132872000D03*
X185818000Y-133522000D03*
D23*
X167908000Y-95110000D03*
X167908000Y-96110000D03*
X167908000Y-97110000D03*
X167908000Y-98110000D03*
X167908000Y-99110000D03*
X167908000Y-100110000D03*
X167908000Y-101110000D03*
X167908000Y-102110000D03*
X167908000Y-103110000D03*
X163908000Y-100110000D03*
X163908000Y-99110000D03*
X163908000Y-98110000D03*
X163908000Y-97110000D03*
X162908000Y-97110000D03*
X162908000Y-98110000D03*
X162908000Y-99110000D03*
X162908000Y-100110000D03*
X166908000Y-103110000D03*
X166908000Y-102110000D03*
X166908000Y-101110000D03*
X166908000Y-100110000D03*
X166908000Y-99110000D03*
X166908000Y-98110000D03*
X166908000Y-97110000D03*
X166908000Y-96110000D03*
X166908000Y-95110000D03*
X165908000Y-95110000D03*
X165908000Y-96110000D03*
X165908000Y-97110000D03*
X165908000Y-98110000D03*
X165908000Y-99110000D03*
X165908000Y-100110000D03*
X165908000Y-101110000D03*
X165908000Y-102110000D03*
X165908000Y-103110000D03*
X161908000Y-100110000D03*
X161908000Y-99110000D03*
X161908000Y-98110000D03*
X161908000Y-97110000D03*
X160908000Y-97110000D03*
X160908000Y-98110000D03*
X160908000Y-99110000D03*
X160908000Y-100110000D03*
X164908000Y-103110000D03*
X164908000Y-102110000D03*
X164908000Y-101110000D03*
X164908000Y-100110000D03*
X164908000Y-99110000D03*
X164908000Y-98110000D03*
X164908000Y-97110000D03*
X164908000Y-96110000D03*
X164908000Y-95110000D03*
X163908000Y-96110000D03*
X162908000Y-96110000D03*
X161908000Y-96110000D03*
X163908000Y-95110000D03*
X162908000Y-95110000D03*
X161908000Y-95110000D03*
X160908000Y-95110000D03*
X163908000Y-103110000D03*
X163908000Y-102110000D03*
X160908000Y-94110000D03*
X161908000Y-94110000D03*
X162908000Y-94110000D03*
X163908000Y-94110000D03*
X160908000Y-96110000D03*
X163908000Y-93110000D03*
X162908000Y-93110000D03*
X161908000Y-93110000D03*
X160908000Y-93110000D03*
X163908000Y-101110000D03*
X163908000Y-92110000D03*
X162908000Y-92110000D03*
X161908000Y-92110000D03*
X160908000Y-92110000D03*
X159908000Y-100110000D03*
X162908000Y-103110000D03*
X161908000Y-103110000D03*
X160908000Y-103110000D03*
X159908000Y-103110000D03*
X158908000Y-103110000D03*
X162908000Y-102110000D03*
X161908000Y-102110000D03*
X160908000Y-102110000D03*
X159908000Y-102110000D03*
X158908000Y-102110000D03*
X158908000Y-101110000D03*
X159908000Y-101110000D03*
X160908000Y-101110000D03*
X161908000Y-101110000D03*
X162908000Y-101110000D03*
X158908000Y-100110000D03*
X157908000Y-100110000D03*
X156908000Y-100110000D03*
X159908000Y-99110000D03*
X157908000Y-103110000D03*
X156908000Y-103110000D03*
X157908000Y-102110000D03*
X156908000Y-102110000D03*
X157908000Y-101110000D03*
X156908000Y-101110000D03*
X158908000Y-99110000D03*
X157908000Y-99110000D03*
X156908000Y-99110000D03*
X159908000Y-98110000D03*
X158908000Y-98110000D03*
X157908000Y-98110000D03*
X156908000Y-98110000D03*
X159908000Y-97110000D03*
X158908000Y-97110000D03*
X157908000Y-97110000D03*
X156908000Y-97110000D03*
X159908000Y-96110000D03*
X158908000Y-96110000D03*
X157908000Y-96110000D03*
X156908000Y-96110000D03*
X159908000Y-95110000D03*
X158908000Y-95110000D03*
X157908000Y-95110000D03*
X156908000Y-95110000D03*
X159908000Y-94110000D03*
X158908000Y-94110000D03*
X157908000Y-94110000D03*
X156908000Y-94110000D03*
X159908000Y-93110000D03*
X158908000Y-93110000D03*
X157908000Y-93110000D03*
X156908000Y-93110000D03*
X156908000Y-92110000D03*
X157908000Y-92110000D03*
X158908000Y-92110000D03*
X159908000Y-92110000D03*
X155908000Y-103110000D03*
X154908000Y-103110000D03*
X153908000Y-103110000D03*
X152908000Y-103110000D03*
X152908000Y-102110000D03*
X152908000Y-101110000D03*
X152908000Y-100110000D03*
X153908000Y-102110000D03*
X153908000Y-101110000D03*
X153908000Y-100110000D03*
X154908000Y-100110000D03*
X154908000Y-101110000D03*
X154908000Y-102110000D03*
X155908000Y-102110000D03*
X155908000Y-101110000D03*
X155908000Y-100110000D03*
X155908000Y-99110000D03*
X154908000Y-99110000D03*
X153908000Y-99110000D03*
X152908000Y-99110000D03*
X152908000Y-98110000D03*
X153908000Y-98110000D03*
X154908000Y-98110000D03*
X155908000Y-98110000D03*
X155908000Y-97110000D03*
X154908000Y-97110000D03*
X153908000Y-97110000D03*
X152908000Y-97110000D03*
X153908000Y-96110000D03*
X154908000Y-96110000D03*
X155908000Y-96110000D03*
X155908000Y-95110000D03*
X154908000Y-95110000D03*
X153908000Y-95110000D03*
X153908000Y-94110000D03*
X154908000Y-94110000D03*
X155908000Y-94110000D03*
X155908000Y-93110000D03*
X154908000Y-93110000D03*
X153908000Y-93110000D03*
X167908000Y-92110000D03*
X167908000Y-93110000D03*
X167908000Y-94110000D03*
X166908000Y-94110000D03*
X166908000Y-93110000D03*
X166908000Y-92110000D03*
X165908000Y-92110000D03*
X165908000Y-93110000D03*
X165908000Y-94110000D03*
X164908000Y-94110000D03*
X164908000Y-93110000D03*
X164908000Y-92110000D03*
X167908000Y-90110000D03*
X167908000Y-91110000D03*
X166908000Y-91110000D03*
X166908000Y-90110000D03*
X164908000Y-91110000D03*
X165908000Y-91110000D03*
X165908000Y-90110000D03*
X164908000Y-90110000D03*
X163908000Y-90110000D03*
X163908000Y-91110000D03*
X162908000Y-91110000D03*
X162908000Y-90110000D03*
X161908000Y-91110000D03*
X161908000Y-90110000D03*
X155908000Y-92110000D03*
X154908000Y-92110000D03*
X153908000Y-92110000D03*
X160908000Y-91110000D03*
X159908000Y-91110000D03*
X158908000Y-91110000D03*
X157908000Y-91110000D03*
X156908000Y-91110000D03*
X155908000Y-91110000D03*
X154908000Y-91110000D03*
X153908000Y-91110000D03*
X160908000Y-90110000D03*
X159908000Y-90110000D03*
X158908000Y-90110000D03*
X157908000Y-90110000D03*
X156908000Y-90110000D03*
X155908000Y-90110000D03*
X154908000Y-90110000D03*
X153908000Y-90110000D03*
X155908000Y-89110000D03*
X154908000Y-89110000D03*
X153908000Y-89110000D03*
X156908000Y-89110000D03*
X157908000Y-89110000D03*
X158908000Y-89110000D03*
X159908000Y-89110000D03*
X160908000Y-89110000D03*
X161908000Y-89110000D03*
X162908000Y-89110000D03*
X163908000Y-89110000D03*
X164908000Y-89110000D03*
X165908000Y-89110000D03*
X166908000Y-89110000D03*
X167908000Y-89110000D03*
X152908000Y-96110000D03*
X152908000Y-95110000D03*
X152908000Y-94110000D03*
X152908000Y-93110000D03*
X152908000Y-92110000D03*
X152908000Y-91110000D03*
X152908000Y-90110000D03*
X152908000Y-89110000D03*
X167908000Y-88110000D03*
X166908000Y-88110000D03*
X165908000Y-88110000D03*
X164908000Y-88110000D03*
X163908000Y-88110000D03*
X162908000Y-88110000D03*
X161908000Y-88110000D03*
X160908000Y-88110000D03*
X159908000Y-88110000D03*
X158908000Y-88110000D03*
X157908000Y-88110000D03*
X156908000Y-88110000D03*
X155908000Y-88110000D03*
X154908000Y-88110000D03*
X153908000Y-88110000D03*
X152908000Y-88110000D03*
D24*
X164965000Y-110617000D03*
X164965000Y-111887000D03*
X164965000Y-113157000D03*
X164965000Y-114427000D03*
X157615000Y-114427000D03*
X157615000Y-113157000D03*
X157615000Y-111887000D03*
X157615000Y-110617000D03*
D20*
X121920000Y-101600000D03*
D19*
X121920000Y-99060000D03*
X121920000Y-96520000D03*
X121920000Y-93980000D03*
X121920000Y-91440000D03*
X121920000Y-88900000D03*
D20*
X177800000Y-139700000D03*
D19*
X180340000Y-139700000D03*
X182880000Y-139700000D03*
X185420000Y-139700000D03*
X185039000Y-63119000D03*
X182499000Y-63119000D03*
X179959000Y-63119000D03*
D20*
X177419000Y-63119000D03*
D19*
X190500000Y-73660000D03*
X190500000Y-76200000D03*
X190500000Y-78740000D03*
X190500000Y-81280000D03*
X190500000Y-83820000D03*
X190500000Y-86360000D03*
X190500000Y-88900000D03*
X190500000Y-91440000D03*
X190500000Y-93980000D03*
D20*
X190500000Y-96520000D03*
X190500000Y-127000000D03*
D19*
X190500000Y-124460000D03*
X190500000Y-121920000D03*
X190500000Y-119380000D03*
X190500000Y-116840000D03*
X190500000Y-114300000D03*
X190500000Y-111760000D03*
X190500000Y-109220000D03*
X190500000Y-106680000D03*
X190500000Y-104140000D03*
X127000000Y-63500000D03*
X127000000Y-66040000D03*
X129540000Y-63500000D03*
X129540000Y-66040000D03*
X132080000Y-63500000D03*
X132080000Y-66040000D03*
X134620000Y-63500000D03*
X134620000Y-66040000D03*
X137160000Y-63500000D03*
X137160000Y-66040000D03*
X139700000Y-63500000D03*
X139700000Y-66040000D03*
X142240000Y-63500000D03*
X142240000Y-66040000D03*
X144780000Y-63500000D03*
X144780000Y-66040000D03*
X147320000Y-63500000D03*
X147320000Y-66040000D03*
X149860000Y-63500000D03*
X149860000Y-66040000D03*
X152400000Y-63500000D03*
X152400000Y-66040000D03*
X154940000Y-63500000D03*
X154940000Y-66040000D03*
X157480000Y-63500000D03*
X157480000Y-66040000D03*
X160020000Y-63500000D03*
X160020000Y-66040000D03*
X162560000Y-63500000D03*
X162560000Y-66040000D03*
X165100000Y-63500000D03*
X165100000Y-66040000D03*
X167640000Y-63500000D03*
D20*
X167640000Y-66040000D03*
D25*
X159347000Y-132806000D03*
X159347000Y-128306000D03*
X167297000Y-128306000D03*
X167297000Y-132806000D03*
X143285000Y-108820000D03*
X143285000Y-104320000D03*
X135335000Y-104320000D03*
X135335000Y-108820000D03*
D26*
X129540000Y-129540000D03*
D27*
X121920000Y-111760000D03*
X129540000Y-127000000D03*
X121920000Y-114300000D03*
X129540000Y-124460000D03*
X121920000Y-116840000D03*
X129540000Y-121920000D03*
X121920000Y-119380000D03*
X129540000Y-119380000D03*
X121920000Y-121920000D03*
X129540000Y-116840000D03*
X121920000Y-124460000D03*
X129540000Y-114300000D03*
X121920000Y-127000000D03*
X129540000Y-111760000D03*
X121920000Y-129540000D03*
D28*
X162255200Y-83464400D03*
X160005200Y-83464400D03*
X162255200Y-80924400D03*
X160005200Y-80924400D03*
D29*
X178739800Y-71399400D03*
X178739800Y-70764400D03*
X178739800Y-70104000D03*
X178739800Y-69469000D03*
X183159400Y-69469000D03*
X183159400Y-70104000D03*
X183159400Y-70764400D03*
X183159400Y-71399400D03*
D21*
X185674000Y-114071400D03*
X185674000Y-113411000D03*
X185674000Y-112776000D03*
X185674000Y-112115600D03*
X185674000Y-111455200D03*
X185674000Y-110820200D03*
X185674000Y-110159800D03*
X185674000Y-109524800D03*
X185674000Y-108864400D03*
X185674000Y-108204000D03*
X185674000Y-107569000D03*
X185674000Y-106908600D03*
X179832000Y-106908600D03*
X179832000Y-107569000D03*
X179832000Y-108204000D03*
X179832000Y-108864400D03*
X179832000Y-109524800D03*
X179832000Y-110159800D03*
X179832000Y-110820200D03*
X179832000Y-111455200D03*
X179832000Y-112115600D03*
X179832000Y-112776000D03*
X179832000Y-113411000D03*
X179832000Y-114071400D03*
G04 #@! TA.AperFunction,SMDPad,CuDef*
G36*
G01*
X131539000Y-75031000D02*
X130589000Y-75031000D01*
G75*
G02*
X130339000Y-74781000I0J250000D01*
G01*
X130339000Y-74106000D01*
G75*
G02*
X130589000Y-73856000I250000J0D01*
G01*
X131539000Y-73856000D01*
G75*
G02*
X131789000Y-74106000I0J-250000D01*
G01*
X131789000Y-74781000D01*
G75*
G02*
X131539000Y-75031000I-250000J0D01*
G01*
G37*
G04 #@! TD.AperFunction*
G04 #@! TA.AperFunction,SMDPad,CuDef*
G36*
G01*
X131539000Y-72956000D02*
X130589000Y-72956000D01*
G75*
G02*
X130339000Y-72706000I0J250000D01*
G01*
X130339000Y-72031000D01*
G75*
G02*
X130589000Y-71781000I250000J0D01*
G01*
X131539000Y-71781000D01*
G75*
G02*
X131789000Y-72031000I0J-250000D01*
G01*
X131789000Y-72706000D01*
G75*
G02*
X131539000Y-72956000I-250000J0D01*
G01*
G37*
G04 #@! TD.AperFunction*
G04 #@! TA.AperFunction,SMDPad,CuDef*
G36*
G01*
X136335000Y-80110000D02*
X135385000Y-80110000D01*
G75*
G02*
X135135000Y-79860000I0J250000D01*
G01*
X135135000Y-79185000D01*
G75*
G02*
X135385000Y-78935000I250000J0D01*
G01*
X136335000Y-78935000D01*
G75*
G02*
X136585000Y-79185000I0J-250000D01*
G01*
X136585000Y-79860000D01*
G75*
G02*
X136335000Y-80110000I-250000J0D01*
G01*
G37*
G04 #@! TD.AperFunction*
G04 #@! TA.AperFunction,SMDPad,CuDef*
G36*
G01*
X136335000Y-82185000D02*
X135385000Y-82185000D01*
G75*
G02*
X135135000Y-81935000I0J250000D01*
G01*
X135135000Y-81260000D01*
G75*
G02*
X135385000Y-81010000I250000J0D01*
G01*
X136335000Y-81010000D01*
G75*
G02*
X136585000Y-81260000I0J-250000D01*
G01*
X136585000Y-81935000D01*
G75*
G02*
X136335000Y-82185000I-250000J0D01*
G01*
G37*
G04 #@! TD.AperFunction*
G04 #@! TA.AperFunction,SMDPad,CuDef*
G36*
G01*
X138118000Y-73119000D02*
X138118000Y-72169000D01*
G75*
G02*
X138368000Y-71919000I250000J0D01*
G01*
X139043000Y-71919000D01*
G75*
G02*
X139293000Y-72169000I0J-250000D01*
G01*
X139293000Y-73119000D01*
G75*
G02*
X139043000Y-73369000I-250000J0D01*
G01*
X138368000Y-73369000D01*
G75*
G02*
X138118000Y-73119000I0J250000D01*
G01*
G37*
G04 #@! TD.AperFunction*
G04 #@! TA.AperFunction,SMDPad,CuDef*
G36*
G01*
X136043000Y-73119000D02*
X136043000Y-72169000D01*
G75*
G02*
X136293000Y-71919000I250000J0D01*
G01*
X136968000Y-71919000D01*
G75*
G02*
X137218000Y-72169000I0J-250000D01*
G01*
X137218000Y-73119000D01*
G75*
G02*
X136968000Y-73369000I-250000J0D01*
G01*
X136293000Y-73369000D01*
G75*
G02*
X136043000Y-73119000I0J250000D01*
G01*
G37*
G04 #@! TD.AperFunction*
G04 #@! TA.AperFunction,SMDPad,CuDef*
G36*
G01*
X162915000Y-76233000D02*
X162915000Y-77183000D01*
G75*
G02*
X162665000Y-77433000I-250000J0D01*
G01*
X161990000Y-77433000D01*
G75*
G02*
X161740000Y-77183000I0J250000D01*
G01*
X161740000Y-76233000D01*
G75*
G02*
X161990000Y-75983000I250000J0D01*
G01*
X162665000Y-75983000D01*
G75*
G02*
X162915000Y-76233000I0J-250000D01*
G01*
G37*
G04 #@! TD.AperFunction*
G04 #@! TA.AperFunction,SMDPad,CuDef*
G36*
G01*
X160840000Y-76233000D02*
X160840000Y-77183000D01*
G75*
G02*
X160590000Y-77433000I-250000J0D01*
G01*
X159915000Y-77433000D01*
G75*
G02*
X159665000Y-77183000I0J250000D01*
G01*
X159665000Y-76233000D01*
G75*
G02*
X159915000Y-75983000I250000J0D01*
G01*
X160590000Y-75983000D01*
G75*
G02*
X160840000Y-76233000I0J-250000D01*
G01*
G37*
G04 #@! TD.AperFunction*
G04 #@! TA.AperFunction,SMDPad,CuDef*
G36*
G01*
X155178100Y-127439400D02*
X155178100Y-128389400D01*
G75*
G02*
X154928100Y-128639400I-250000J0D01*
G01*
X154253100Y-128639400D01*
G75*
G02*
X154003100Y-128389400I0J250000D01*
G01*
X154003100Y-127439400D01*
G75*
G02*
X154253100Y-127189400I250000J0D01*
G01*
X154928100Y-127189400D01*
G75*
G02*
X155178100Y-127439400I0J-250000D01*
G01*
G37*
G04 #@! TD.AperFunction*
G04 #@! TA.AperFunction,SMDPad,CuDef*
G36*
G01*
X157253100Y-127439400D02*
X157253100Y-128389400D01*
G75*
G02*
X157003100Y-128639400I-250000J0D01*
G01*
X156328100Y-128639400D01*
G75*
G02*
X156078100Y-128389400I0J250000D01*
G01*
X156078100Y-127439400D01*
G75*
G02*
X156328100Y-127189400I250000J0D01*
G01*
X157003100Y-127189400D01*
G75*
G02*
X157253100Y-127439400I0J-250000D01*
G01*
G37*
G04 #@! TD.AperFunction*
G04 #@! TA.AperFunction,SMDPad,CuDef*
G36*
G01*
X154100003Y-107382500D02*
X151899997Y-107382500D01*
G75*
G02*
X151650000Y-107132503I0J249997D01*
G01*
X151650000Y-106307497D01*
G75*
G02*
X151899997Y-106057500I249997J0D01*
G01*
X154100003Y-106057500D01*
G75*
G02*
X154350000Y-106307497I0J-249997D01*
G01*
X154350000Y-107132503D01*
G75*
G02*
X154100003Y-107382500I-249997J0D01*
G01*
G37*
G04 #@! TD.AperFunction*
G04 #@! TA.AperFunction,SMDPad,CuDef*
G36*
G01*
X154100003Y-110507500D02*
X151899997Y-110507500D01*
G75*
G02*
X151650000Y-110257503I0J249997D01*
G01*
X151650000Y-109432497D01*
G75*
G02*
X151899997Y-109182500I249997J0D01*
G01*
X154100003Y-109182500D01*
G75*
G02*
X154350000Y-109432497I0J-249997D01*
G01*
X154350000Y-110257503D01*
G75*
G02*
X154100003Y-110507500I-249997J0D01*
G01*
G37*
G04 #@! TD.AperFunction*
G04 #@! TA.AperFunction,SMDPad,CuDef*
G36*
G01*
X149975000Y-109345000D02*
X149025000Y-109345000D01*
G75*
G02*
X148775000Y-109095000I0J250000D01*
G01*
X148775000Y-108420000D01*
G75*
G02*
X149025000Y-108170000I250000J0D01*
G01*
X149975000Y-108170000D01*
G75*
G02*
X150225000Y-108420000I0J-250000D01*
G01*
X150225000Y-109095000D01*
G75*
G02*
X149975000Y-109345000I-250000J0D01*
G01*
G37*
G04 #@! TD.AperFunction*
G04 #@! TA.AperFunction,SMDPad,CuDef*
G36*
G01*
X149975000Y-107270000D02*
X149025000Y-107270000D01*
G75*
G02*
X148775000Y-107020000I0J250000D01*
G01*
X148775000Y-106345000D01*
G75*
G02*
X149025000Y-106095000I250000J0D01*
G01*
X149975000Y-106095000D01*
G75*
G02*
X150225000Y-106345000I0J-250000D01*
G01*
X150225000Y-107020000D01*
G75*
G02*
X149975000Y-107270000I-250000J0D01*
G01*
G37*
G04 #@! TD.AperFunction*
G04 #@! TA.AperFunction,SMDPad,CuDef*
G36*
G01*
X148900000Y-104875000D02*
X148900000Y-104565000D01*
G75*
G02*
X149055000Y-104410000I155000J0D01*
G01*
X149480000Y-104410000D01*
G75*
G02*
X149635000Y-104565000I0J-155000D01*
G01*
X149635000Y-104875000D01*
G75*
G02*
X149480000Y-105030000I-155000J0D01*
G01*
X149055000Y-105030000D01*
G75*
G02*
X148900000Y-104875000I0J155000D01*
G01*
G37*
G04 #@! TD.AperFunction*
G04 #@! TA.AperFunction,SMDPad,CuDef*
G36*
G01*
X147765000Y-104875000D02*
X147765000Y-104565000D01*
G75*
G02*
X147920000Y-104410000I155000J0D01*
G01*
X148345000Y-104410000D01*
G75*
G02*
X148500000Y-104565000I0J-155000D01*
G01*
X148500000Y-104875000D01*
G75*
G02*
X148345000Y-105030000I-155000J0D01*
G01*
X147920000Y-105030000D01*
G75*
G02*
X147765000Y-104875000I0J155000D01*
G01*
G37*
G04 #@! TD.AperFunction*
G04 #@! TA.AperFunction,SMDPad,CuDef*
G36*
G01*
X147765000Y-103075000D02*
X147765000Y-102765000D01*
G75*
G02*
X147920000Y-102610000I155000J0D01*
G01*
X148345000Y-102610000D01*
G75*
G02*
X148500000Y-102765000I0J-155000D01*
G01*
X148500000Y-103075000D01*
G75*
G02*
X148345000Y-103230000I-155000J0D01*
G01*
X147920000Y-103230000D01*
G75*
G02*
X147765000Y-103075000I0J155000D01*
G01*
G37*
G04 #@! TD.AperFunction*
G04 #@! TA.AperFunction,SMDPad,CuDef*
G36*
G01*
X148900000Y-103075000D02*
X148900000Y-102765000D01*
G75*
G02*
X149055000Y-102610000I155000J0D01*
G01*
X149480000Y-102610000D01*
G75*
G02*
X149635000Y-102765000I0J-155000D01*
G01*
X149635000Y-103075000D01*
G75*
G02*
X149480000Y-103230000I-155000J0D01*
G01*
X149055000Y-103230000D01*
G75*
G02*
X148900000Y-103075000I0J155000D01*
G01*
G37*
G04 #@! TD.AperFunction*
G04 #@! TA.AperFunction,SMDPad,CuDef*
G36*
G01*
X125377000Y-91105000D02*
X125067000Y-91105000D01*
G75*
G02*
X124912000Y-90950000I0J155000D01*
G01*
X124912000Y-90525000D01*
G75*
G02*
X125067000Y-90370000I155000J0D01*
G01*
X125377000Y-90370000D01*
G75*
G02*
X125532000Y-90525000I0J-155000D01*
G01*
X125532000Y-90950000D01*
G75*
G02*
X125377000Y-91105000I-155000J0D01*
G01*
G37*
G04 #@! TD.AperFunction*
G04 #@! TA.AperFunction,SMDPad,CuDef*
G36*
G01*
X125377000Y-89970000D02*
X125067000Y-89970000D01*
G75*
G02*
X124912000Y-89815000I0J155000D01*
G01*
X124912000Y-89390000D01*
G75*
G02*
X125067000Y-89235000I155000J0D01*
G01*
X125377000Y-89235000D01*
G75*
G02*
X125532000Y-89390000I0J-155000D01*
G01*
X125532000Y-89815000D01*
G75*
G02*
X125377000Y-89970000I-155000J0D01*
G01*
G37*
G04 #@! TD.AperFunction*
G04 #@! TA.AperFunction,SMDPad,CuDef*
G36*
G01*
X141640000Y-83385000D02*
X141640000Y-84335000D01*
G75*
G02*
X141390000Y-84585000I-250000J0D01*
G01*
X140715000Y-84585000D01*
G75*
G02*
X140465000Y-84335000I0J250000D01*
G01*
X140465000Y-83385000D01*
G75*
G02*
X140715000Y-83135000I250000J0D01*
G01*
X141390000Y-83135000D01*
G75*
G02*
X141640000Y-83385000I0J-250000D01*
G01*
G37*
G04 #@! TD.AperFunction*
G04 #@! TA.AperFunction,SMDPad,CuDef*
G36*
G01*
X143715000Y-83385000D02*
X143715000Y-84335000D01*
G75*
G02*
X143465000Y-84585000I-250000J0D01*
G01*
X142790000Y-84585000D01*
G75*
G02*
X142540000Y-84335000I0J250000D01*
G01*
X142540000Y-83385000D01*
G75*
G02*
X142790000Y-83135000I250000J0D01*
G01*
X143465000Y-83135000D01*
G75*
G02*
X143715000Y-83385000I0J-250000D01*
G01*
G37*
G04 #@! TD.AperFunction*
G04 #@! TA.AperFunction,SMDPad,CuDef*
G36*
G01*
X139325000Y-84895000D02*
X139015000Y-84895000D01*
G75*
G02*
X138860000Y-84740000I0J155000D01*
G01*
X138860000Y-84315000D01*
G75*
G02*
X139015000Y-84160000I155000J0D01*
G01*
X139325000Y-84160000D01*
G75*
G02*
X139480000Y-84315000I0J-155000D01*
G01*
X139480000Y-84740000D01*
G75*
G02*
X139325000Y-84895000I-155000J0D01*
G01*
G37*
G04 #@! TD.AperFunction*
G04 #@! TA.AperFunction,SMDPad,CuDef*
G36*
G01*
X139325000Y-83760000D02*
X139015000Y-83760000D01*
G75*
G02*
X138860000Y-83605000I0J155000D01*
G01*
X138860000Y-83180000D01*
G75*
G02*
X139015000Y-83025000I155000J0D01*
G01*
X139325000Y-83025000D01*
G75*
G02*
X139480000Y-83180000I0J-155000D01*
G01*
X139480000Y-83605000D01*
G75*
G02*
X139325000Y-83760000I-155000J0D01*
G01*
G37*
G04 #@! TD.AperFunction*
G04 #@! TA.AperFunction,SMDPad,CuDef*
G36*
G01*
X138185000Y-100455000D02*
X138495000Y-100455000D01*
G75*
G02*
X138650000Y-100610000I0J-155000D01*
G01*
X138650000Y-101035000D01*
G75*
G02*
X138495000Y-101190000I-155000J0D01*
G01*
X138185000Y-101190000D01*
G75*
G02*
X138030000Y-101035000I0J155000D01*
G01*
X138030000Y-100610000D01*
G75*
G02*
X138185000Y-100455000I155000J0D01*
G01*
G37*
G04 #@! TD.AperFunction*
G04 #@! TA.AperFunction,SMDPad,CuDef*
G36*
G01*
X138185000Y-101590000D02*
X138495000Y-101590000D01*
G75*
G02*
X138650000Y-101745000I0J-155000D01*
G01*
X138650000Y-102170000D01*
G75*
G02*
X138495000Y-102325000I-155000J0D01*
G01*
X138185000Y-102325000D01*
G75*
G02*
X138030000Y-102170000I0J155000D01*
G01*
X138030000Y-101745000D01*
G75*
G02*
X138185000Y-101590000I155000J0D01*
G01*
G37*
G04 #@! TD.AperFunction*
G04 #@! TA.AperFunction,SMDPad,CuDef*
G36*
G01*
X134940000Y-100725000D02*
X134940000Y-101675000D01*
G75*
G02*
X134690000Y-101925000I-250000J0D01*
G01*
X134015000Y-101925000D01*
G75*
G02*
X133765000Y-101675000I0J250000D01*
G01*
X133765000Y-100725000D01*
G75*
G02*
X134015000Y-100475000I250000J0D01*
G01*
X134690000Y-100475000D01*
G75*
G02*
X134940000Y-100725000I0J-250000D01*
G01*
G37*
G04 #@! TD.AperFunction*
G04 #@! TA.AperFunction,SMDPad,CuDef*
G36*
G01*
X137015000Y-100725000D02*
X137015000Y-101675000D01*
G75*
G02*
X136765000Y-101925000I-250000J0D01*
G01*
X136090000Y-101925000D01*
G75*
G02*
X135840000Y-101675000I0J250000D01*
G01*
X135840000Y-100725000D01*
G75*
G02*
X136090000Y-100475000I250000J0D01*
G01*
X136765000Y-100475000D01*
G75*
G02*
X137015000Y-100725000I0J-250000D01*
G01*
G37*
G04 #@! TD.AperFunction*
G04 #@! TA.AperFunction,SMDPad,CuDef*
G36*
G01*
X188003200Y-69978700D02*
X187053200Y-69978700D01*
G75*
G02*
X186803200Y-69728700I0J250000D01*
G01*
X186803200Y-69053700D01*
G75*
G02*
X187053200Y-68803700I250000J0D01*
G01*
X188003200Y-68803700D01*
G75*
G02*
X188253200Y-69053700I0J-250000D01*
G01*
X188253200Y-69728700D01*
G75*
G02*
X188003200Y-69978700I-250000J0D01*
G01*
G37*
G04 #@! TD.AperFunction*
G04 #@! TA.AperFunction,SMDPad,CuDef*
G36*
G01*
X188003200Y-67903700D02*
X187053200Y-67903700D01*
G75*
G02*
X186803200Y-67653700I0J250000D01*
G01*
X186803200Y-66978700D01*
G75*
G02*
X187053200Y-66728700I250000J0D01*
G01*
X188003200Y-66728700D01*
G75*
G02*
X188253200Y-66978700I0J-250000D01*
G01*
X188253200Y-67653700D01*
G75*
G02*
X188003200Y-67903700I-250000J0D01*
G01*
G37*
G04 #@! TD.AperFunction*
G04 #@! TA.AperFunction,SMDPad,CuDef*
G36*
G01*
X190924200Y-67879900D02*
X189974200Y-67879900D01*
G75*
G02*
X189724200Y-67629900I0J250000D01*
G01*
X189724200Y-66954900D01*
G75*
G02*
X189974200Y-66704900I250000J0D01*
G01*
X190924200Y-66704900D01*
G75*
G02*
X191174200Y-66954900I0J-250000D01*
G01*
X191174200Y-67629900D01*
G75*
G02*
X190924200Y-67879900I-250000J0D01*
G01*
G37*
G04 #@! TD.AperFunction*
G04 #@! TA.AperFunction,SMDPad,CuDef*
G36*
G01*
X190924200Y-69954900D02*
X189974200Y-69954900D01*
G75*
G02*
X189724200Y-69704900I0J250000D01*
G01*
X189724200Y-69029900D01*
G75*
G02*
X189974200Y-68779900I250000J0D01*
G01*
X190924200Y-68779900D01*
G75*
G02*
X191174200Y-69029900I0J-250000D01*
G01*
X191174200Y-69704900D01*
G75*
G02*
X190924200Y-69954900I-250000J0D01*
G01*
G37*
G04 #@! TD.AperFunction*
G04 #@! TA.AperFunction,SMDPad,CuDef*
G36*
G01*
X175826000Y-80551000D02*
X175826000Y-81501000D01*
G75*
G02*
X175576000Y-81751000I-250000J0D01*
G01*
X174901000Y-81751000D01*
G75*
G02*
X174651000Y-81501000I0J250000D01*
G01*
X174651000Y-80551000D01*
G75*
G02*
X174901000Y-80301000I250000J0D01*
G01*
X175576000Y-80301000D01*
G75*
G02*
X175826000Y-80551000I0J-250000D01*
G01*
G37*
G04 #@! TD.AperFunction*
G04 #@! TA.AperFunction,SMDPad,CuDef*
G36*
G01*
X177901000Y-80551000D02*
X177901000Y-81501000D01*
G75*
G02*
X177651000Y-81751000I-250000J0D01*
G01*
X176976000Y-81751000D01*
G75*
G02*
X176726000Y-81501000I0J250000D01*
G01*
X176726000Y-80551000D01*
G75*
G02*
X176976000Y-80301000I250000J0D01*
G01*
X177651000Y-80301000D01*
G75*
G02*
X177901000Y-80551000I0J-250000D01*
G01*
G37*
G04 #@! TD.AperFunction*
G04 #@! TA.AperFunction,SMDPad,CuDef*
G36*
G01*
X175318000Y-111539000D02*
X175318000Y-112489000D01*
G75*
G02*
X175068000Y-112739000I-250000J0D01*
G01*
X174393000Y-112739000D01*
G75*
G02*
X174143000Y-112489000I0J250000D01*
G01*
X174143000Y-111539000D01*
G75*
G02*
X174393000Y-111289000I250000J0D01*
G01*
X175068000Y-111289000D01*
G75*
G02*
X175318000Y-111539000I0J-250000D01*
G01*
G37*
G04 #@! TD.AperFunction*
G04 #@! TA.AperFunction,SMDPad,CuDef*
G36*
G01*
X177393000Y-111539000D02*
X177393000Y-112489000D01*
G75*
G02*
X177143000Y-112739000I-250000J0D01*
G01*
X176468000Y-112739000D01*
G75*
G02*
X176218000Y-112489000I0J250000D01*
G01*
X176218000Y-111539000D01*
G75*
G02*
X176468000Y-111289000I250000J0D01*
G01*
X177143000Y-111289000D01*
G75*
G02*
X177393000Y-111539000I0J-250000D01*
G01*
G37*
G04 #@! TD.AperFunction*
G04 #@! TA.AperFunction,SMDPad,CuDef*
G36*
G01*
X177211000Y-83157000D02*
X177211000Y-83467000D01*
G75*
G02*
X177056000Y-83622000I-155000J0D01*
G01*
X176631000Y-83622000D01*
G75*
G02*
X176476000Y-83467000I0J155000D01*
G01*
X176476000Y-83157000D01*
G75*
G02*
X176631000Y-83002000I155000J0D01*
G01*
X177056000Y-83002000D01*
G75*
G02*
X177211000Y-83157000I0J-155000D01*
G01*
G37*
G04 #@! TD.AperFunction*
G04 #@! TA.AperFunction,SMDPad,CuDef*
G36*
G01*
X176076000Y-83157000D02*
X176076000Y-83467000D01*
G75*
G02*
X175921000Y-83622000I-155000J0D01*
G01*
X175496000Y-83622000D01*
G75*
G02*
X175341000Y-83467000I0J155000D01*
G01*
X175341000Y-83157000D01*
G75*
G02*
X175496000Y-83002000I155000J0D01*
G01*
X175921000Y-83002000D01*
G75*
G02*
X176076000Y-83157000I0J-155000D01*
G01*
G37*
G04 #@! TD.AperFunction*
G04 #@! TA.AperFunction,SMDPad,CuDef*
G36*
G01*
X175568000Y-114145000D02*
X175568000Y-114455000D01*
G75*
G02*
X175413000Y-114610000I-155000J0D01*
G01*
X174988000Y-114610000D01*
G75*
G02*
X174833000Y-114455000I0J155000D01*
G01*
X174833000Y-114145000D01*
G75*
G02*
X174988000Y-113990000I155000J0D01*
G01*
X175413000Y-113990000D01*
G75*
G02*
X175568000Y-114145000I0J-155000D01*
G01*
G37*
G04 #@! TD.AperFunction*
G04 #@! TA.AperFunction,SMDPad,CuDef*
G36*
G01*
X176703000Y-114145000D02*
X176703000Y-114455000D01*
G75*
G02*
X176548000Y-114610000I-155000J0D01*
G01*
X176123000Y-114610000D01*
G75*
G02*
X175968000Y-114455000I0J155000D01*
G01*
X175968000Y-114145000D01*
G75*
G02*
X176123000Y-113990000I155000J0D01*
G01*
X176548000Y-113990000D01*
G75*
G02*
X176703000Y-114145000I0J-155000D01*
G01*
G37*
G04 #@! TD.AperFunction*
G04 #@! TA.AperFunction,SMDPad,CuDef*
G36*
G01*
X185593000Y-115161000D02*
X185593000Y-115471000D01*
G75*
G02*
X185438000Y-115626000I-155000J0D01*
G01*
X185013000Y-115626000D01*
G75*
G02*
X184858000Y-115471000I0J155000D01*
G01*
X184858000Y-115161000D01*
G75*
G02*
X185013000Y-115006000I155000J0D01*
G01*
X185438000Y-115006000D01*
G75*
G02*
X185593000Y-115161000I0J-155000D01*
G01*
G37*
G04 #@! TD.AperFunction*
G04 #@! TA.AperFunction,SMDPad,CuDef*
G36*
G01*
X184458000Y-115161000D02*
X184458000Y-115471000D01*
G75*
G02*
X184303000Y-115626000I-155000J0D01*
G01*
X183878000Y-115626000D01*
G75*
G02*
X183723000Y-115471000I0J155000D01*
G01*
X183723000Y-115161000D01*
G75*
G02*
X183878000Y-115006000I155000J0D01*
G01*
X184303000Y-115006000D01*
G75*
G02*
X184458000Y-115161000I0J-155000D01*
G01*
G37*
G04 #@! TD.AperFunction*
G04 #@! TA.AperFunction,SMDPad,CuDef*
G36*
G01*
X179549500Y-117884000D02*
X179074500Y-117884000D01*
G75*
G02*
X178837000Y-117646500I0J237500D01*
G01*
X178837000Y-117071500D01*
G75*
G02*
X179074500Y-116834000I237500J0D01*
G01*
X179549500Y-116834000D01*
G75*
G02*
X179787000Y-117071500I0J-237500D01*
G01*
X179787000Y-117646500D01*
G75*
G02*
X179549500Y-117884000I-237500J0D01*
G01*
G37*
G04 #@! TD.AperFunction*
G04 #@! TA.AperFunction,SMDPad,CuDef*
G36*
G01*
X179549500Y-119634000D02*
X179074500Y-119634000D01*
G75*
G02*
X178837000Y-119396500I0J237500D01*
G01*
X178837000Y-118821500D01*
G75*
G02*
X179074500Y-118584000I237500J0D01*
G01*
X179549500Y-118584000D01*
G75*
G02*
X179787000Y-118821500I0J-237500D01*
G01*
X179787000Y-119396500D01*
G75*
G02*
X179549500Y-119634000I-237500J0D01*
G01*
G37*
G04 #@! TD.AperFunction*
G04 #@! TA.AperFunction,SMDPad,CuDef*
G36*
G01*
X133400000Y-129695500D02*
X133400000Y-129220500D01*
G75*
G02*
X133637500Y-128983000I237500J0D01*
G01*
X134212500Y-128983000D01*
G75*
G02*
X134450000Y-129220500I0J-237500D01*
G01*
X134450000Y-129695500D01*
G75*
G02*
X134212500Y-129933000I-237500J0D01*
G01*
X133637500Y-129933000D01*
G75*
G02*
X133400000Y-129695500I0J237500D01*
G01*
G37*
G04 #@! TD.AperFunction*
G04 #@! TA.AperFunction,SMDPad,CuDef*
G36*
G01*
X135150000Y-129695500D02*
X135150000Y-129220500D01*
G75*
G02*
X135387500Y-128983000I237500J0D01*
G01*
X135962500Y-128983000D01*
G75*
G02*
X136200000Y-129220500I0J-237500D01*
G01*
X136200000Y-129695500D01*
G75*
G02*
X135962500Y-129933000I-237500J0D01*
G01*
X135387500Y-129933000D01*
G75*
G02*
X135150000Y-129695500I0J237500D01*
G01*
G37*
G04 #@! TD.AperFunction*
G04 #@! TA.AperFunction,SMDPad,CuDef*
G36*
G01*
X133380000Y-127195500D02*
X133380000Y-126720500D01*
G75*
G02*
X133617500Y-126483000I237500J0D01*
G01*
X134192500Y-126483000D01*
G75*
G02*
X134430000Y-126720500I0J-237500D01*
G01*
X134430000Y-127195500D01*
G75*
G02*
X134192500Y-127433000I-237500J0D01*
G01*
X133617500Y-127433000D01*
G75*
G02*
X133380000Y-127195500I0J237500D01*
G01*
G37*
G04 #@! TD.AperFunction*
G04 #@! TA.AperFunction,SMDPad,CuDef*
G36*
G01*
X135130000Y-127195500D02*
X135130000Y-126720500D01*
G75*
G02*
X135367500Y-126483000I237500J0D01*
G01*
X135942500Y-126483000D01*
G75*
G02*
X136180000Y-126720500I0J-237500D01*
G01*
X136180000Y-127195500D01*
G75*
G02*
X135942500Y-127433000I-237500J0D01*
G01*
X135367500Y-127433000D01*
G75*
G02*
X135130000Y-127195500I0J237500D01*
G01*
G37*
G04 #@! TD.AperFunction*
G04 #@! TA.AperFunction,SMDPad,CuDef*
G36*
G01*
X135130000Y-124595500D02*
X135130000Y-124120500D01*
G75*
G02*
X135367500Y-123883000I237500J0D01*
G01*
X135942500Y-123883000D01*
G75*
G02*
X136180000Y-124120500I0J-237500D01*
G01*
X136180000Y-124595500D01*
G75*
G02*
X135942500Y-124833000I-237500J0D01*
G01*
X135367500Y-124833000D01*
G75*
G02*
X135130000Y-124595500I0J237500D01*
G01*
G37*
G04 #@! TD.AperFunction*
G04 #@! TA.AperFunction,SMDPad,CuDef*
G36*
G01*
X133380000Y-124595500D02*
X133380000Y-124120500D01*
G75*
G02*
X133617500Y-123883000I237500J0D01*
G01*
X134192500Y-123883000D01*
G75*
G02*
X134430000Y-124120500I0J-237500D01*
G01*
X134430000Y-124595500D01*
G75*
G02*
X134192500Y-124833000I-237500J0D01*
G01*
X133617500Y-124833000D01*
G75*
G02*
X133380000Y-124595500I0J237500D01*
G01*
G37*
G04 #@! TD.AperFunction*
G04 #@! TA.AperFunction,SMDPad,CuDef*
G36*
G01*
X135120000Y-122065500D02*
X135120000Y-121590500D01*
G75*
G02*
X135357500Y-121353000I237500J0D01*
G01*
X135932500Y-121353000D01*
G75*
G02*
X136170000Y-121590500I0J-237500D01*
G01*
X136170000Y-122065500D01*
G75*
G02*
X135932500Y-122303000I-237500J0D01*
G01*
X135357500Y-122303000D01*
G75*
G02*
X135120000Y-122065500I0J237500D01*
G01*
G37*
G04 #@! TD.AperFunction*
G04 #@! TA.AperFunction,SMDPad,CuDef*
G36*
G01*
X133370000Y-122065500D02*
X133370000Y-121590500D01*
G75*
G02*
X133607500Y-121353000I237500J0D01*
G01*
X134182500Y-121353000D01*
G75*
G02*
X134420000Y-121590500I0J-237500D01*
G01*
X134420000Y-122065500D01*
G75*
G02*
X134182500Y-122303000I-237500J0D01*
G01*
X133607500Y-122303000D01*
G75*
G02*
X133370000Y-122065500I0J237500D01*
G01*
G37*
G04 #@! TD.AperFunction*
G04 #@! TA.AperFunction,SMDPad,CuDef*
G36*
G01*
X133370000Y-119505500D02*
X133370000Y-119030500D01*
G75*
G02*
X133607500Y-118793000I237500J0D01*
G01*
X134182500Y-118793000D01*
G75*
G02*
X134420000Y-119030500I0J-237500D01*
G01*
X134420000Y-119505500D01*
G75*
G02*
X134182500Y-119743000I-237500J0D01*
G01*
X133607500Y-119743000D01*
G75*
G02*
X133370000Y-119505500I0J237500D01*
G01*
G37*
G04 #@! TD.AperFunction*
G04 #@! TA.AperFunction,SMDPad,CuDef*
G36*
G01*
X135120000Y-119505500D02*
X135120000Y-119030500D01*
G75*
G02*
X135357500Y-118793000I237500J0D01*
G01*
X135932500Y-118793000D01*
G75*
G02*
X136170000Y-119030500I0J-237500D01*
G01*
X136170000Y-119505500D01*
G75*
G02*
X135932500Y-119743000I-237500J0D01*
G01*
X135357500Y-119743000D01*
G75*
G02*
X135120000Y-119505500I0J237500D01*
G01*
G37*
G04 #@! TD.AperFunction*
G04 #@! TA.AperFunction,SMDPad,CuDef*
G36*
G01*
X133370000Y-117025500D02*
X133370000Y-116550500D01*
G75*
G02*
X133607500Y-116313000I237500J0D01*
G01*
X134182500Y-116313000D01*
G75*
G02*
X134420000Y-116550500I0J-237500D01*
G01*
X134420000Y-117025500D01*
G75*
G02*
X134182500Y-117263000I-237500J0D01*
G01*
X133607500Y-117263000D01*
G75*
G02*
X133370000Y-117025500I0J237500D01*
G01*
G37*
G04 #@! TD.AperFunction*
G04 #@! TA.AperFunction,SMDPad,CuDef*
G36*
G01*
X135120000Y-117025500D02*
X135120000Y-116550500D01*
G75*
G02*
X135357500Y-116313000I237500J0D01*
G01*
X135932500Y-116313000D01*
G75*
G02*
X136170000Y-116550500I0J-237500D01*
G01*
X136170000Y-117025500D01*
G75*
G02*
X135932500Y-117263000I-237500J0D01*
G01*
X135357500Y-117263000D01*
G75*
G02*
X135120000Y-117025500I0J237500D01*
G01*
G37*
G04 #@! TD.AperFunction*
G04 #@! TA.AperFunction,SMDPad,CuDef*
G36*
G01*
X133360000Y-114455500D02*
X133360000Y-113980500D01*
G75*
G02*
X133597500Y-113743000I237500J0D01*
G01*
X134172500Y-113743000D01*
G75*
G02*
X134410000Y-113980500I0J-237500D01*
G01*
X134410000Y-114455500D01*
G75*
G02*
X134172500Y-114693000I-237500J0D01*
G01*
X133597500Y-114693000D01*
G75*
G02*
X133360000Y-114455500I0J237500D01*
G01*
G37*
G04 #@! TD.AperFunction*
G04 #@! TA.AperFunction,SMDPad,CuDef*
G36*
G01*
X135110000Y-114455500D02*
X135110000Y-113980500D01*
G75*
G02*
X135347500Y-113743000I237500J0D01*
G01*
X135922500Y-113743000D01*
G75*
G02*
X136160000Y-113980500I0J-237500D01*
G01*
X136160000Y-114455500D01*
G75*
G02*
X135922500Y-114693000I-237500J0D01*
G01*
X135347500Y-114693000D01*
G75*
G02*
X135110000Y-114455500I0J237500D01*
G01*
G37*
G04 #@! TD.AperFunction*
G04 #@! TA.AperFunction,SMDPad,CuDef*
G36*
G01*
X135110000Y-111925500D02*
X135110000Y-111450500D01*
G75*
G02*
X135347500Y-111213000I237500J0D01*
G01*
X135922500Y-111213000D01*
G75*
G02*
X136160000Y-111450500I0J-237500D01*
G01*
X136160000Y-111925500D01*
G75*
G02*
X135922500Y-112163000I-237500J0D01*
G01*
X135347500Y-112163000D01*
G75*
G02*
X135110000Y-111925500I0J237500D01*
G01*
G37*
G04 #@! TD.AperFunction*
G04 #@! TA.AperFunction,SMDPad,CuDef*
G36*
G01*
X133360000Y-111925500D02*
X133360000Y-111450500D01*
G75*
G02*
X133597500Y-111213000I237500J0D01*
G01*
X134172500Y-111213000D01*
G75*
G02*
X134410000Y-111450500I0J-237500D01*
G01*
X134410000Y-111925500D01*
G75*
G02*
X134172500Y-112163000I-237500J0D01*
G01*
X133597500Y-112163000D01*
G75*
G02*
X133360000Y-111925500I0J237500D01*
G01*
G37*
G04 #@! TD.AperFunction*
G04 #@! TA.AperFunction,SMDPad,CuDef*
G36*
G01*
X153977300Y-133342801D02*
X153977300Y-132442799D01*
G75*
G02*
X154227299Y-132192800I249999J0D01*
G01*
X154927301Y-132192800D01*
G75*
G02*
X155177300Y-132442799I0J-249999D01*
G01*
X155177300Y-133342801D01*
G75*
G02*
X154927301Y-133592800I-249999J0D01*
G01*
X154227299Y-133592800D01*
G75*
G02*
X153977300Y-133342801I0J249999D01*
G01*
G37*
G04 #@! TD.AperFunction*
G04 #@! TA.AperFunction,SMDPad,CuDef*
G36*
G01*
X155977300Y-133342801D02*
X155977300Y-132442799D01*
G75*
G02*
X156227299Y-132192800I249999J0D01*
G01*
X156927301Y-132192800D01*
G75*
G02*
X157177300Y-132442799I0J-249999D01*
G01*
X157177300Y-133342801D01*
G75*
G02*
X156927301Y-133592800I-249999J0D01*
G01*
X156227299Y-133592800D01*
G75*
G02*
X155977300Y-133342801I0J249999D01*
G01*
G37*
G04 #@! TD.AperFunction*
G04 #@! TA.AperFunction,SMDPad,CuDef*
G36*
G01*
X155251200Y-129801199D02*
X155251200Y-130701201D01*
G75*
G02*
X155001201Y-130951200I-249999J0D01*
G01*
X154301199Y-130951200D01*
G75*
G02*
X154051200Y-130701201I0J249999D01*
G01*
X154051200Y-129801199D01*
G75*
G02*
X154301199Y-129551200I249999J0D01*
G01*
X155001201Y-129551200D01*
G75*
G02*
X155251200Y-129801199I0J-249999D01*
G01*
G37*
G04 #@! TD.AperFunction*
G04 #@! TA.AperFunction,SMDPad,CuDef*
G36*
G01*
X157251200Y-129801199D02*
X157251200Y-130701201D01*
G75*
G02*
X157001201Y-130951200I-249999J0D01*
G01*
X156301199Y-130951200D01*
G75*
G02*
X156051200Y-130701201I0J249999D01*
G01*
X156051200Y-129801199D01*
G75*
G02*
X156301199Y-129551200I249999J0D01*
G01*
X157001201Y-129551200D01*
G75*
G02*
X157251200Y-129801199I0J-249999D01*
G01*
G37*
G04 #@! TD.AperFunction*
G04 #@! TA.AperFunction,SMDPad,CuDef*
G36*
G01*
X128092000Y-104197999D02*
X128092000Y-105098001D01*
G75*
G02*
X127842001Y-105348000I-249999J0D01*
G01*
X127141999Y-105348000D01*
G75*
G02*
X126892000Y-105098001I0J249999D01*
G01*
X126892000Y-104197999D01*
G75*
G02*
X127141999Y-103948000I249999J0D01*
G01*
X127842001Y-103948000D01*
G75*
G02*
X128092000Y-104197999I0J-249999D01*
G01*
G37*
G04 #@! TD.AperFunction*
G04 #@! TA.AperFunction,SMDPad,CuDef*
G36*
G01*
X126092000Y-104197999D02*
X126092000Y-105098001D01*
G75*
G02*
X125842001Y-105348000I-249999J0D01*
G01*
X125141999Y-105348000D01*
G75*
G02*
X124892000Y-105098001I0J249999D01*
G01*
X124892000Y-104197999D01*
G75*
G02*
X125141999Y-103948000I249999J0D01*
G01*
X125842001Y-103948000D01*
G75*
G02*
X126092000Y-104197999I0J-249999D01*
G01*
G37*
G04 #@! TD.AperFunction*
G04 #@! TA.AperFunction,SMDPad,CuDef*
G36*
G01*
X125838000Y-98101999D02*
X125838000Y-99002001D01*
G75*
G02*
X125588001Y-99252000I-249999J0D01*
G01*
X124887999Y-99252000D01*
G75*
G02*
X124638000Y-99002001I0J249999D01*
G01*
X124638000Y-98101999D01*
G75*
G02*
X124887999Y-97852000I249999J0D01*
G01*
X125588001Y-97852000D01*
G75*
G02*
X125838000Y-98101999I0J-249999D01*
G01*
G37*
G04 #@! TD.AperFunction*
G04 #@! TA.AperFunction,SMDPad,CuDef*
G36*
G01*
X127838000Y-98101999D02*
X127838000Y-99002001D01*
G75*
G02*
X127588001Y-99252000I-249999J0D01*
G01*
X126887999Y-99252000D01*
G75*
G02*
X126638000Y-99002001I0J249999D01*
G01*
X126638000Y-98101999D01*
G75*
G02*
X126887999Y-97852000I249999J0D01*
G01*
X127588001Y-97852000D01*
G75*
G02*
X127838000Y-98101999I0J-249999D01*
G01*
G37*
G04 #@! TD.AperFunction*
G04 #@! TA.AperFunction,SMDPad,CuDef*
G36*
G01*
X127838000Y-93529999D02*
X127838000Y-94430001D01*
G75*
G02*
X127588001Y-94680000I-249999J0D01*
G01*
X126887999Y-94680000D01*
G75*
G02*
X126638000Y-94430001I0J249999D01*
G01*
X126638000Y-93529999D01*
G75*
G02*
X126887999Y-93280000I249999J0D01*
G01*
X127588001Y-93280000D01*
G75*
G02*
X127838000Y-93529999I0J-249999D01*
G01*
G37*
G04 #@! TD.AperFunction*
G04 #@! TA.AperFunction,SMDPad,CuDef*
G36*
G01*
X125838000Y-93529999D02*
X125838000Y-94430001D01*
G75*
G02*
X125588001Y-94680000I-249999J0D01*
G01*
X124887999Y-94680000D01*
G75*
G02*
X124638000Y-94430001I0J249999D01*
G01*
X124638000Y-93529999D01*
G75*
G02*
X124887999Y-93280000I249999J0D01*
G01*
X125588001Y-93280000D01*
G75*
G02*
X125838000Y-93529999I0J-249999D01*
G01*
G37*
G04 #@! TD.AperFunction*
G04 #@! TA.AperFunction,SMDPad,CuDef*
G36*
G01*
X148320000Y-101650001D02*
X148320000Y-100749999D01*
G75*
G02*
X148569999Y-100500000I249999J0D01*
G01*
X149270001Y-100500000D01*
G75*
G02*
X149520000Y-100749999I0J-249999D01*
G01*
X149520000Y-101650001D01*
G75*
G02*
X149270001Y-101900000I-249999J0D01*
G01*
X148569999Y-101900000D01*
G75*
G02*
X148320000Y-101650001I0J249999D01*
G01*
G37*
G04 #@! TD.AperFunction*
G04 #@! TA.AperFunction,SMDPad,CuDef*
G36*
G01*
X146320000Y-101650001D02*
X146320000Y-100749999D01*
G75*
G02*
X146569999Y-100500000I249999J0D01*
G01*
X147270001Y-100500000D01*
G75*
G02*
X147520000Y-100749999I0J-249999D01*
G01*
X147520000Y-101650001D01*
G75*
G02*
X147270001Y-101900000I-249999J0D01*
G01*
X146569999Y-101900000D01*
G75*
G02*
X146320000Y-101650001I0J249999D01*
G01*
G37*
G04 #@! TD.AperFunction*
G04 #@! TA.AperFunction,SMDPad,CuDef*
G36*
G01*
X177592000Y-119183999D02*
X177592000Y-120084001D01*
G75*
G02*
X177342001Y-120334000I-249999J0D01*
G01*
X176641999Y-120334000D01*
G75*
G02*
X176392000Y-120084001I0J249999D01*
G01*
X176392000Y-119183999D01*
G75*
G02*
X176641999Y-118934000I249999J0D01*
G01*
X177342001Y-118934000D01*
G75*
G02*
X177592000Y-119183999I0J-249999D01*
G01*
G37*
G04 #@! TD.AperFunction*
G04 #@! TA.AperFunction,SMDPad,CuDef*
G36*
G01*
X175592000Y-119183999D02*
X175592000Y-120084001D01*
G75*
G02*
X175342001Y-120334000I-249999J0D01*
G01*
X174641999Y-120334000D01*
G75*
G02*
X174392000Y-120084001I0J249999D01*
G01*
X174392000Y-119183999D01*
G75*
G02*
X174641999Y-118934000I249999J0D01*
G01*
X175342001Y-118934000D01*
G75*
G02*
X175592000Y-119183999I0J-249999D01*
G01*
G37*
G04 #@! TD.AperFunction*
G04 #@! TA.AperFunction,SMDPad,CuDef*
G36*
G01*
X175652000Y-116053999D02*
X175652000Y-116954001D01*
G75*
G02*
X175402001Y-117204000I-249999J0D01*
G01*
X174701999Y-117204000D01*
G75*
G02*
X174452000Y-116954001I0J249999D01*
G01*
X174452000Y-116053999D01*
G75*
G02*
X174701999Y-115804000I249999J0D01*
G01*
X175402001Y-115804000D01*
G75*
G02*
X175652000Y-116053999I0J-249999D01*
G01*
G37*
G04 #@! TD.AperFunction*
G04 #@! TA.AperFunction,SMDPad,CuDef*
G36*
G01*
X177652000Y-116053999D02*
X177652000Y-116954001D01*
G75*
G02*
X177402001Y-117204000I-249999J0D01*
G01*
X176701999Y-117204000D01*
G75*
G02*
X176452000Y-116954001I0J249999D01*
G01*
X176452000Y-116053999D01*
G75*
G02*
X176701999Y-115804000I249999J0D01*
G01*
X177402001Y-115804000D01*
G75*
G02*
X177652000Y-116053999I0J-249999D01*
G01*
G37*
G04 #@! TD.AperFunction*
G04 #@! TA.AperFunction,SMDPad,CuDef*
G36*
G01*
X177352000Y-72447999D02*
X177352000Y-73348001D01*
G75*
G02*
X177102001Y-73598000I-249999J0D01*
G01*
X176401999Y-73598000D01*
G75*
G02*
X176152000Y-73348001I0J249999D01*
G01*
X176152000Y-72447999D01*
G75*
G02*
X176401999Y-72198000I249999J0D01*
G01*
X177102001Y-72198000D01*
G75*
G02*
X177352000Y-72447999I0J-249999D01*
G01*
G37*
G04 #@! TD.AperFunction*
G04 #@! TA.AperFunction,SMDPad,CuDef*
G36*
G01*
X175352000Y-72447999D02*
X175352000Y-73348001D01*
G75*
G02*
X175102001Y-73598000I-249999J0D01*
G01*
X174401999Y-73598000D01*
G75*
G02*
X174152000Y-73348001I0J249999D01*
G01*
X174152000Y-72447999D01*
G75*
G02*
X174401999Y-72198000I249999J0D01*
G01*
X175102001Y-72198000D01*
G75*
G02*
X175352000Y-72447999I0J-249999D01*
G01*
G37*
G04 #@! TD.AperFunction*
G04 #@! TA.AperFunction,SMDPad,CuDef*
G36*
G01*
X174420000Y-135240001D02*
X174420000Y-134339999D01*
G75*
G02*
X174669999Y-134090000I249999J0D01*
G01*
X175370001Y-134090000D01*
G75*
G02*
X175620000Y-134339999I0J-249999D01*
G01*
X175620000Y-135240001D01*
G75*
G02*
X175370001Y-135490000I-249999J0D01*
G01*
X174669999Y-135490000D01*
G75*
G02*
X174420000Y-135240001I0J249999D01*
G01*
G37*
G04 #@! TD.AperFunction*
G04 #@! TA.AperFunction,SMDPad,CuDef*
G36*
G01*
X176420000Y-135240001D02*
X176420000Y-134339999D01*
G75*
G02*
X176669999Y-134090000I249999J0D01*
G01*
X177370001Y-134090000D01*
G75*
G02*
X177620000Y-134339999I0J-249999D01*
G01*
X177620000Y-135240001D01*
G75*
G02*
X177370001Y-135490000I-249999J0D01*
G01*
X176669999Y-135490000D01*
G75*
G02*
X176420000Y-135240001I0J249999D01*
G01*
G37*
G04 #@! TD.AperFunction*
G04 #@! TA.AperFunction,SMDPad,CuDef*
G36*
G01*
X176400000Y-132410001D02*
X176400000Y-131509999D01*
G75*
G02*
X176649999Y-131260000I249999J0D01*
G01*
X177350001Y-131260000D01*
G75*
G02*
X177600000Y-131509999I0J-249999D01*
G01*
X177600000Y-132410001D01*
G75*
G02*
X177350001Y-132660000I-249999J0D01*
G01*
X176649999Y-132660000D01*
G75*
G02*
X176400000Y-132410001I0J249999D01*
G01*
G37*
G04 #@! TD.AperFunction*
G04 #@! TA.AperFunction,SMDPad,CuDef*
G36*
G01*
X174400000Y-132410001D02*
X174400000Y-131509999D01*
G75*
G02*
X174649999Y-131260000I249999J0D01*
G01*
X175350001Y-131260000D01*
G75*
G02*
X175600000Y-131509999I0J-249999D01*
G01*
X175600000Y-132410001D01*
G75*
G02*
X175350001Y-132660000I-249999J0D01*
G01*
X174649999Y-132660000D01*
G75*
G02*
X174400000Y-132410001I0J249999D01*
G01*
G37*
G04 #@! TD.AperFunction*
G04 #@! TA.AperFunction,SMDPad,CuDef*
G36*
G01*
X138220200Y-129830601D02*
X138220200Y-128930599D01*
G75*
G02*
X138470199Y-128680600I249999J0D01*
G01*
X139170201Y-128680600D01*
G75*
G02*
X139420200Y-128930599I0J-249999D01*
G01*
X139420200Y-129830601D01*
G75*
G02*
X139170201Y-130080600I-249999J0D01*
G01*
X138470199Y-130080600D01*
G75*
G02*
X138220200Y-129830601I0J249999D01*
G01*
G37*
G04 #@! TD.AperFunction*
G04 #@! TA.AperFunction,SMDPad,CuDef*
G36*
G01*
X140220200Y-129830601D02*
X140220200Y-128930599D01*
G75*
G02*
X140470199Y-128680600I249999J0D01*
G01*
X141170201Y-128680600D01*
G75*
G02*
X141420200Y-128930599I0J-249999D01*
G01*
X141420200Y-129830601D01*
G75*
G02*
X141170201Y-130080600I-249999J0D01*
G01*
X140470199Y-130080600D01*
G75*
G02*
X140220200Y-129830601I0J249999D01*
G01*
G37*
G04 #@! TD.AperFunction*
G04 #@! TA.AperFunction,SMDPad,CuDef*
G36*
G01*
X140247900Y-127290601D02*
X140247900Y-126390599D01*
G75*
G02*
X140497899Y-126140600I249999J0D01*
G01*
X141197901Y-126140600D01*
G75*
G02*
X141447900Y-126390599I0J-249999D01*
G01*
X141447900Y-127290601D01*
G75*
G02*
X141197901Y-127540600I-249999J0D01*
G01*
X140497899Y-127540600D01*
G75*
G02*
X140247900Y-127290601I0J249999D01*
G01*
G37*
G04 #@! TD.AperFunction*
G04 #@! TA.AperFunction,SMDPad,CuDef*
G36*
G01*
X138247900Y-127290601D02*
X138247900Y-126390599D01*
G75*
G02*
X138497899Y-126140600I249999J0D01*
G01*
X139197901Y-126140600D01*
G75*
G02*
X139447900Y-126390599I0J-249999D01*
G01*
X139447900Y-127290601D01*
G75*
G02*
X139197901Y-127540600I-249999J0D01*
G01*
X138497899Y-127540600D01*
G75*
G02*
X138247900Y-127290601I0J249999D01*
G01*
G37*
G04 #@! TD.AperFunction*
G04 #@! TA.AperFunction,SMDPad,CuDef*
G36*
G01*
X138217900Y-124674401D02*
X138217900Y-123774399D01*
G75*
G02*
X138467899Y-123524400I249999J0D01*
G01*
X139167901Y-123524400D01*
G75*
G02*
X139417900Y-123774399I0J-249999D01*
G01*
X139417900Y-124674401D01*
G75*
G02*
X139167901Y-124924400I-249999J0D01*
G01*
X138467899Y-124924400D01*
G75*
G02*
X138217900Y-124674401I0J249999D01*
G01*
G37*
G04 #@! TD.AperFunction*
G04 #@! TA.AperFunction,SMDPad,CuDef*
G36*
G01*
X140217900Y-124674401D02*
X140217900Y-123774399D01*
G75*
G02*
X140467899Y-123524400I249999J0D01*
G01*
X141167901Y-123524400D01*
G75*
G02*
X141417900Y-123774399I0J-249999D01*
G01*
X141417900Y-124674401D01*
G75*
G02*
X141167901Y-124924400I-249999J0D01*
G01*
X140467899Y-124924400D01*
G75*
G02*
X140217900Y-124674401I0J249999D01*
G01*
G37*
G04 #@! TD.AperFunction*
G04 #@! TA.AperFunction,SMDPad,CuDef*
G36*
G01*
X140268700Y-122185201D02*
X140268700Y-121285199D01*
G75*
G02*
X140518699Y-121035200I249999J0D01*
G01*
X141218701Y-121035200D01*
G75*
G02*
X141468700Y-121285199I0J-249999D01*
G01*
X141468700Y-122185201D01*
G75*
G02*
X141218701Y-122435200I-249999J0D01*
G01*
X140518699Y-122435200D01*
G75*
G02*
X140268700Y-122185201I0J249999D01*
G01*
G37*
G04 #@! TD.AperFunction*
G04 #@! TA.AperFunction,SMDPad,CuDef*
G36*
G01*
X138268700Y-122185201D02*
X138268700Y-121285199D01*
G75*
G02*
X138518699Y-121035200I249999J0D01*
G01*
X139218701Y-121035200D01*
G75*
G02*
X139468700Y-121285199I0J-249999D01*
G01*
X139468700Y-122185201D01*
G75*
G02*
X139218701Y-122435200I-249999J0D01*
G01*
X138518699Y-122435200D01*
G75*
G02*
X138268700Y-122185201I0J249999D01*
G01*
G37*
G04 #@! TD.AperFunction*
G04 #@! TA.AperFunction,SMDPad,CuDef*
G36*
G01*
X138321800Y-119696001D02*
X138321800Y-118795999D01*
G75*
G02*
X138571799Y-118546000I249999J0D01*
G01*
X139271801Y-118546000D01*
G75*
G02*
X139521800Y-118795999I0J-249999D01*
G01*
X139521800Y-119696001D01*
G75*
G02*
X139271801Y-119946000I-249999J0D01*
G01*
X138571799Y-119946000D01*
G75*
G02*
X138321800Y-119696001I0J249999D01*
G01*
G37*
G04 #@! TD.AperFunction*
G04 #@! TA.AperFunction,SMDPad,CuDef*
G36*
G01*
X140321800Y-119696001D02*
X140321800Y-118795999D01*
G75*
G02*
X140571799Y-118546000I249999J0D01*
G01*
X141271801Y-118546000D01*
G75*
G02*
X141521800Y-118795999I0J-249999D01*
G01*
X141521800Y-119696001D01*
G75*
G02*
X141271801Y-119946000I-249999J0D01*
G01*
X140571799Y-119946000D01*
G75*
G02*
X140321800Y-119696001I0J249999D01*
G01*
G37*
G04 #@! TD.AperFunction*
G04 #@! TA.AperFunction,SMDPad,CuDef*
G36*
G01*
X140321800Y-117333801D02*
X140321800Y-116433799D01*
G75*
G02*
X140571799Y-116183800I249999J0D01*
G01*
X141271801Y-116183800D01*
G75*
G02*
X141521800Y-116433799I0J-249999D01*
G01*
X141521800Y-117333801D01*
G75*
G02*
X141271801Y-117583800I-249999J0D01*
G01*
X140571799Y-117583800D01*
G75*
G02*
X140321800Y-117333801I0J249999D01*
G01*
G37*
G04 #@! TD.AperFunction*
G04 #@! TA.AperFunction,SMDPad,CuDef*
G36*
G01*
X138321800Y-117333801D02*
X138321800Y-116433799D01*
G75*
G02*
X138571799Y-116183800I249999J0D01*
G01*
X139271801Y-116183800D01*
G75*
G02*
X139521800Y-116433799I0J-249999D01*
G01*
X139521800Y-117333801D01*
G75*
G02*
X139271801Y-117583800I-249999J0D01*
G01*
X138571799Y-117583800D01*
G75*
G02*
X138321800Y-117333801I0J249999D01*
G01*
G37*
G04 #@! TD.AperFunction*
G04 #@! TA.AperFunction,SMDPad,CuDef*
G36*
G01*
X138243300Y-114819201D02*
X138243300Y-113919199D01*
G75*
G02*
X138493299Y-113669200I249999J0D01*
G01*
X139193301Y-113669200D01*
G75*
G02*
X139443300Y-113919199I0J-249999D01*
G01*
X139443300Y-114819201D01*
G75*
G02*
X139193301Y-115069200I-249999J0D01*
G01*
X138493299Y-115069200D01*
G75*
G02*
X138243300Y-114819201I0J249999D01*
G01*
G37*
G04 #@! TD.AperFunction*
G04 #@! TA.AperFunction,SMDPad,CuDef*
G36*
G01*
X140243300Y-114819201D02*
X140243300Y-113919199D01*
G75*
G02*
X140493299Y-113669200I249999J0D01*
G01*
X141193301Y-113669200D01*
G75*
G02*
X141443300Y-113919199I0J-249999D01*
G01*
X141443300Y-114819201D01*
G75*
G02*
X141193301Y-115069200I-249999J0D01*
G01*
X140493299Y-115069200D01*
G75*
G02*
X140243300Y-114819201I0J249999D01*
G01*
G37*
G04 #@! TD.AperFunction*
G04 #@! TA.AperFunction,SMDPad,CuDef*
G36*
G01*
X140160000Y-112000001D02*
X140160000Y-111099999D01*
G75*
G02*
X140409999Y-110850000I249999J0D01*
G01*
X141110001Y-110850000D01*
G75*
G02*
X141360000Y-111099999I0J-249999D01*
G01*
X141360000Y-112000001D01*
G75*
G02*
X141110001Y-112250000I-249999J0D01*
G01*
X140409999Y-112250000D01*
G75*
G02*
X140160000Y-112000001I0J249999D01*
G01*
G37*
G04 #@! TD.AperFunction*
G04 #@! TA.AperFunction,SMDPad,CuDef*
G36*
G01*
X138160000Y-112000001D02*
X138160000Y-111099999D01*
G75*
G02*
X138409999Y-110850000I249999J0D01*
G01*
X139110001Y-110850000D01*
G75*
G02*
X139360000Y-111099999I0J-249999D01*
G01*
X139360000Y-112000001D01*
G75*
G02*
X139110001Y-112250000I-249999J0D01*
G01*
X138409999Y-112250000D01*
G75*
G02*
X138160000Y-112000001I0J249999D01*
G01*
G37*
G04 #@! TD.AperFunction*
G04 #@! TA.AperFunction,SMDPad,CuDef*
G36*
G01*
X154864000Y-117290001D02*
X154864000Y-116389999D01*
G75*
G02*
X155113999Y-116140000I249999J0D01*
G01*
X155814001Y-116140000D01*
G75*
G02*
X156064000Y-116389999I0J-249999D01*
G01*
X156064000Y-117290001D01*
G75*
G02*
X155814001Y-117540000I-249999J0D01*
G01*
X155113999Y-117540000D01*
G75*
G02*
X154864000Y-117290001I0J249999D01*
G01*
G37*
G04 #@! TD.AperFunction*
G04 #@! TA.AperFunction,SMDPad,CuDef*
G36*
G01*
X156864000Y-117290001D02*
X156864000Y-116389999D01*
G75*
G02*
X157113999Y-116140000I249999J0D01*
G01*
X157814001Y-116140000D01*
G75*
G02*
X158064000Y-116389999I0J-249999D01*
G01*
X158064000Y-117290001D01*
G75*
G02*
X157814001Y-117540000I-249999J0D01*
G01*
X157113999Y-117540000D01*
G75*
G02*
X156864000Y-117290001I0J249999D01*
G01*
G37*
G04 #@! TD.AperFunction*
G04 #@! TA.AperFunction,SMDPad,CuDef*
G36*
G01*
X152000000Y-114611999D02*
X152000000Y-115512001D01*
G75*
G02*
X151750001Y-115762000I-249999J0D01*
G01*
X151049999Y-115762000D01*
G75*
G02*
X150800000Y-115512001I0J249999D01*
G01*
X150800000Y-114611999D01*
G75*
G02*
X151049999Y-114362000I249999J0D01*
G01*
X151750001Y-114362000D01*
G75*
G02*
X152000000Y-114611999I0J-249999D01*
G01*
G37*
G04 #@! TD.AperFunction*
G04 #@! TA.AperFunction,SMDPad,CuDef*
G36*
G01*
X154000000Y-114611999D02*
X154000000Y-115512001D01*
G75*
G02*
X153750001Y-115762000I-249999J0D01*
G01*
X153049999Y-115762000D01*
G75*
G02*
X152800000Y-115512001I0J249999D01*
G01*
X152800000Y-114611999D01*
G75*
G02*
X153049999Y-114362000I249999J0D01*
G01*
X153750001Y-114362000D01*
G75*
G02*
X154000000Y-114611999I0J-249999D01*
G01*
G37*
G04 #@! TD.AperFunction*
G04 #@! TA.AperFunction,SMDPad,CuDef*
G36*
G01*
X151308000Y-112718001D02*
X151308000Y-111817999D01*
G75*
G02*
X151557999Y-111568000I249999J0D01*
G01*
X152258001Y-111568000D01*
G75*
G02*
X152508000Y-111817999I0J-249999D01*
G01*
X152508000Y-112718001D01*
G75*
G02*
X152258001Y-112968000I-249999J0D01*
G01*
X151557999Y-112968000D01*
G75*
G02*
X151308000Y-112718001I0J249999D01*
G01*
G37*
G04 #@! TD.AperFunction*
G04 #@! TA.AperFunction,SMDPad,CuDef*
G36*
G01*
X153308000Y-112718001D02*
X153308000Y-111817999D01*
G75*
G02*
X153557999Y-111568000I249999J0D01*
G01*
X154258001Y-111568000D01*
G75*
G02*
X154508000Y-111817999I0J-249999D01*
G01*
X154508000Y-112718001D01*
G75*
G02*
X154258001Y-112968000I-249999J0D01*
G01*
X153557999Y-112968000D01*
G75*
G02*
X153308000Y-112718001I0J249999D01*
G01*
G37*
G04 #@! TD.AperFunction*
G04 #@! TA.AperFunction,SMDPad,CuDef*
G36*
G01*
X168834000Y-115512001D02*
X168834000Y-114611999D01*
G75*
G02*
X169083999Y-114362000I249999J0D01*
G01*
X169784001Y-114362000D01*
G75*
G02*
X170034000Y-114611999I0J-249999D01*
G01*
X170034000Y-115512001D01*
G75*
G02*
X169784001Y-115762000I-249999J0D01*
G01*
X169083999Y-115762000D01*
G75*
G02*
X168834000Y-115512001I0J249999D01*
G01*
G37*
G04 #@! TD.AperFunction*
G04 #@! TA.AperFunction,SMDPad,CuDef*
G36*
G01*
X170834000Y-115512001D02*
X170834000Y-114611999D01*
G75*
G02*
X171083999Y-114362000I249999J0D01*
G01*
X171784001Y-114362000D01*
G75*
G02*
X172034000Y-114611999I0J-249999D01*
G01*
X172034000Y-115512001D01*
G75*
G02*
X171784001Y-115762000I-249999J0D01*
G01*
X171083999Y-115762000D01*
G75*
G02*
X170834000Y-115512001I0J249999D01*
G01*
G37*
G04 #@! TD.AperFunction*
G04 #@! TA.AperFunction,SMDPad,CuDef*
G36*
G01*
X184208000Y-117381000D02*
X184208000Y-118331000D01*
G75*
G02*
X183958000Y-118581000I-250000J0D01*
G01*
X183283000Y-118581000D01*
G75*
G02*
X183033000Y-118331000I0J250000D01*
G01*
X183033000Y-117381000D01*
G75*
G02*
X183283000Y-117131000I250000J0D01*
G01*
X183958000Y-117131000D01*
G75*
G02*
X184208000Y-117381000I0J-250000D01*
G01*
G37*
G04 #@! TD.AperFunction*
G04 #@! TA.AperFunction,SMDPad,CuDef*
G36*
G01*
X186283000Y-117381000D02*
X186283000Y-118331000D01*
G75*
G02*
X186033000Y-118581000I-250000J0D01*
G01*
X185358000Y-118581000D01*
G75*
G02*
X185108000Y-118331000I0J250000D01*
G01*
X185108000Y-117381000D01*
G75*
G02*
X185358000Y-117131000I250000J0D01*
G01*
X186033000Y-117131000D01*
G75*
G02*
X186283000Y-117381000I0J-250000D01*
G01*
G37*
G04 #@! TD.AperFunction*
G04 #@! TA.AperFunction,SMDPad,CuDef*
G36*
G01*
X166779000Y-109901000D02*
X166469000Y-109901000D01*
G75*
G02*
X166314000Y-109746000I0J155000D01*
G01*
X166314000Y-109321000D01*
G75*
G02*
X166469000Y-109166000I155000J0D01*
G01*
X166779000Y-109166000D01*
G75*
G02*
X166934000Y-109321000I0J-155000D01*
G01*
X166934000Y-109746000D01*
G75*
G02*
X166779000Y-109901000I-155000J0D01*
G01*
G37*
G04 #@! TD.AperFunction*
G04 #@! TA.AperFunction,SMDPad,CuDef*
G36*
G01*
X166779000Y-108766000D02*
X166469000Y-108766000D01*
G75*
G02*
X166314000Y-108611000I0J155000D01*
G01*
X166314000Y-108186000D01*
G75*
G02*
X166469000Y-108031000I155000J0D01*
G01*
X166779000Y-108031000D01*
G75*
G02*
X166934000Y-108186000I0J-155000D01*
G01*
X166934000Y-108611000D01*
G75*
G02*
X166779000Y-108766000I-155000J0D01*
G01*
G37*
G04 #@! TD.AperFunction*
G04 #@! TA.AperFunction,SMDPad,CuDef*
G36*
G01*
X169421000Y-108410000D02*
X168471000Y-108410000D01*
G75*
G02*
X168221000Y-108160000I0J250000D01*
G01*
X168221000Y-107485000D01*
G75*
G02*
X168471000Y-107235000I250000J0D01*
G01*
X169421000Y-107235000D01*
G75*
G02*
X169671000Y-107485000I0J-250000D01*
G01*
X169671000Y-108160000D01*
G75*
G02*
X169421000Y-108410000I-250000J0D01*
G01*
G37*
G04 #@! TD.AperFunction*
G04 #@! TA.AperFunction,SMDPad,CuDef*
G36*
G01*
X169421000Y-110485000D02*
X168471000Y-110485000D01*
G75*
G02*
X168221000Y-110235000I0J250000D01*
G01*
X168221000Y-109560000D01*
G75*
G02*
X168471000Y-109310000I250000J0D01*
G01*
X169421000Y-109310000D01*
G75*
G02*
X169671000Y-109560000I0J-250000D01*
G01*
X169671000Y-110235000D01*
G75*
G02*
X169421000Y-110485000I-250000J0D01*
G01*
G37*
G04 #@! TD.AperFunction*
G04 #@! TA.AperFunction,SMDPad,CuDef*
G36*
G01*
X164008000Y-117290001D02*
X164008000Y-116389999D01*
G75*
G02*
X164257999Y-116140000I249999J0D01*
G01*
X164958001Y-116140000D01*
G75*
G02*
X165208000Y-116389999I0J-249999D01*
G01*
X165208000Y-117290001D01*
G75*
G02*
X164958001Y-117540000I-249999J0D01*
G01*
X164257999Y-117540000D01*
G75*
G02*
X164008000Y-117290001I0J249999D01*
G01*
G37*
G04 #@! TD.AperFunction*
G04 #@! TA.AperFunction,SMDPad,CuDef*
G36*
G01*
X166008000Y-117290001D02*
X166008000Y-116389999D01*
G75*
G02*
X166257999Y-116140000I249999J0D01*
G01*
X166958001Y-116140000D01*
G75*
G02*
X167208000Y-116389999I0J-249999D01*
G01*
X167208000Y-117290001D01*
G75*
G02*
X166958001Y-117540000I-249999J0D01*
G01*
X166257999Y-117540000D01*
G75*
G02*
X166008000Y-117290001I0J249999D01*
G01*
G37*
G04 #@! TD.AperFunction*
D30*
X133604000Y-81788000D03*
X143764000Y-82296000D03*
X185420000Y-84582000D03*
X185674000Y-88900000D03*
X185740000Y-119410000D03*
X128016000Y-77724000D03*
X140590000Y-77393200D03*
X142080000Y-77393200D03*
X141150000Y-77393200D03*
X141620000Y-77393200D03*
X142580000Y-77393200D03*
X143080000Y-77393200D03*
X142100000Y-76893200D03*
X141170000Y-76893200D03*
X141640000Y-76893200D03*
X142600000Y-76893200D03*
X143100000Y-76893200D03*
X159363800Y-94615200D03*
X161408500Y-94602500D03*
X161395800Y-96621800D03*
X140600000Y-77903200D03*
X141160000Y-77903200D03*
X141630000Y-77903200D03*
X142090000Y-77903200D03*
X142590000Y-77903200D03*
X141630000Y-78893200D03*
X142090000Y-78383200D03*
X143090000Y-78383200D03*
X142090000Y-78893200D03*
X141630000Y-78383200D03*
X142590000Y-78383200D03*
X140600000Y-78893200D03*
X140600000Y-78383200D03*
X141160000Y-78383200D03*
X142590000Y-78893200D03*
X143090000Y-78893200D03*
X141160000Y-78893200D03*
X140610000Y-76893200D03*
X159331000Y-96589000D03*
X143090000Y-77903200D03*
X167920000Y-114050000D03*
X166370000Y-113538000D03*
X147320000Y-97282000D03*
X155477600Y-95580400D03*
X154460000Y-89680000D03*
X139960000Y-88392000D03*
X147269200Y-100025200D03*
X154410800Y-97570000D03*
X154410800Y-95554800D03*
X137790000Y-96560000D03*
X155426800Y-94615200D03*
X136753600Y-96926400D03*
X154410800Y-94589600D03*
X136010000Y-95800000D03*
X156410000Y-94420000D03*
X135180000Y-95170000D03*
X154410800Y-93624400D03*
X134380000Y-94530000D03*
X156442800Y-92634000D03*
X130302000Y-91440000D03*
X155426800Y-91618000D03*
X131170000Y-91870000D03*
X155426800Y-92634000D03*
X132020000Y-92570000D03*
X154650000Y-92608400D03*
X132740000Y-93290000D03*
X157390000Y-93670000D03*
X133600000Y-93900000D03*
X154432000Y-86614000D03*
X125984000Y-76200000D03*
X154178000Y-87376000D03*
X126096000Y-75550000D03*
X164460000Y-92570000D03*
X165420000Y-89530000D03*
X128778000Y-93980000D03*
X163380000Y-90560000D03*
X128778000Y-98552000D03*
X166903400Y-86410800D03*
X130556000Y-101346000D03*
X188468000Y-128524000D03*
X179070000Y-68326000D03*
X183388000Y-68326000D03*
X169875200Y-88493600D03*
X164418400Y-91567200D03*
X166450400Y-90602000D03*
X169468800Y-88087200D03*
X156464000Y-99568000D03*
X155150000Y-100600000D03*
X156534389Y-98622389D03*
X155376000Y-99593600D03*
X182298181Y-86320000D03*
X171300000Y-92518321D03*
X181900000Y-85720000D03*
X172400000Y-92720000D03*
X181400000Y-85220000D03*
X165530000Y-92660000D03*
X178308000Y-111506000D03*
X166399600Y-99593600D03*
X166878000Y-104394000D03*
X166638621Y-102616000D03*
X170434000Y-100076000D03*
X177038000Y-109220000D03*
X163351600Y-96609100D03*
X178308000Y-112268000D03*
X166434258Y-101605742D03*
X173482000Y-116332000D03*
X165354000Y-106934000D03*
X142309400Y-129380600D03*
X160274000Y-100584000D03*
X142319400Y-126840600D03*
X159512000Y-99568000D03*
X142344400Y-124224400D03*
X158474800Y-101574800D03*
X142475200Y-121735200D03*
X157458800Y-101574800D03*
X142416000Y-119246000D03*
X156442800Y-101574800D03*
X157480000Y-99568000D03*
X142196200Y-116883800D03*
X154410800Y-98628400D03*
X141986000Y-105918000D03*
X155426800Y-98577600D03*
X141986000Y-104902000D03*
X157408000Y-90602000D03*
X150190000Y-84700000D03*
X158424000Y-89586000D03*
X157450000Y-91710000D03*
X153860000Y-84220000D03*
X160274000Y-99568000D03*
X166366750Y-100604844D03*
X164420000Y-95590000D03*
X161290000Y-100584000D03*
X162386400Y-101574800D03*
X159440000Y-90602000D03*
X165354000Y-99568000D03*
X162306000Y-99568000D03*
X163322000Y-99568000D03*
X152080000Y-75973200D03*
X150400000Y-75973200D03*
X150930000Y-75973200D03*
X151500000Y-75973200D03*
X152120000Y-78203200D03*
X150440000Y-78203200D03*
X152660000Y-78203200D03*
X150970000Y-78203200D03*
X151540000Y-78203200D03*
X152120000Y-78723200D03*
X150440000Y-78723200D03*
X152660000Y-78723200D03*
X151540000Y-78723200D03*
X152110000Y-77133200D03*
X150430000Y-77133200D03*
X152650000Y-77133200D03*
X150960000Y-77133200D03*
X151530000Y-77133200D03*
X152100000Y-76543200D03*
X150420000Y-76543200D03*
X152640000Y-76543200D03*
X150950000Y-76543200D03*
X151520000Y-76543200D03*
X150980000Y-77663200D03*
X151550000Y-77663200D03*
X152130000Y-77663200D03*
X167415600Y-90652800D03*
X158411300Y-90627400D03*
X156379300Y-89598700D03*
X165396300Y-88582700D03*
X162373700Y-90563900D03*
X153445600Y-100609600D03*
X155477600Y-102590800D03*
X158411300Y-100622300D03*
X165383600Y-97625100D03*
X166437700Y-95631200D03*
X165434400Y-93650000D03*
X162373700Y-100647700D03*
X155490000Y-97620000D03*
X164418400Y-102641600D03*
X154410800Y-91618000D03*
X157408000Y-98628400D03*
X161370400Y-98577600D03*
X162510000Y-93550000D03*
X162660000Y-96590000D03*
X157408000Y-94615200D03*
X159440000Y-92583200D03*
X150450000Y-77663200D03*
X152670000Y-77663200D03*
X160528000Y-88646000D03*
X181127400Y-114071400D03*
X188950600Y-69392800D03*
X148900000Y-87620000D03*
X152300000Y-88313657D03*
X172200000Y-87320000D03*
X155439500Y-93611900D03*
X153440000Y-95550000D03*
X150700000Y-102920000D03*
X159440000Y-102641600D03*
X166116000Y-83312000D03*
X150970000Y-78723200D03*
X152620000Y-75973200D03*
X161036000Y-81026000D03*
X163286000Y-128306000D03*
X176962000Y-120874000D03*
X135350000Y-101180000D03*
X144270000Y-83880000D03*
X182880000Y-136144000D03*
X151892000Y-113538000D03*
X172650000Y-114992000D03*
X170688000Y-107442000D03*
X177038000Y-79756000D03*
X175768000Y-112014000D03*
X153000000Y-105420000D03*
X148020000Y-110730000D03*
X157390000Y-92620000D03*
X156442800Y-91618000D03*
X167510000Y-100609599D03*
X162740000Y-103980000D03*
X177580000Y-101400000D03*
X181860000Y-95900000D03*
X167415600Y-98577600D03*
X158424000Y-88620800D03*
X168495100Y-87541300D03*
X152280000Y-87680000D03*
X155401400Y-90563900D03*
X162373700Y-89649500D03*
X165396300Y-90627400D03*
X166390000Y-93570000D03*
X165434400Y-100571500D03*
X161408500Y-101651000D03*
X157458800Y-102590800D03*
X153445600Y-98577600D03*
X153445600Y-93650000D03*
X158474800Y-97612400D03*
X161421200Y-91618000D03*
X160405200Y-94589800D03*
X159414600Y-95618500D03*
X159440000Y-98552000D03*
X156442800Y-96596400D03*
X164418400Y-94627900D03*
X160020000Y-78994000D03*
X160500000Y-97530000D03*
X187680600Y-76809600D03*
X187071000Y-106934000D03*
X178816000Y-82677000D03*
X179832000Y-106349800D03*
X187779660Y-136144000D03*
X156588460Y-134302500D03*
X153164540Y-127909320D03*
X133895000Y-123262220D03*
X133895000Y-118098400D03*
X133885000Y-112903940D03*
X133903720Y-128249680D03*
X124547580Y-113072420D03*
X124547580Y-118072420D03*
X124547580Y-123072420D03*
X124547580Y-128222420D03*
X189001400Y-67310000D03*
X178170000Y-132190000D03*
X140600000Y-88320000D03*
X179200000Y-87320000D03*
X166116000Y-80772000D03*
X168656000Y-111760000D03*
X147066000Y-83566000D03*
X148485000Y-74019000D03*
X131064000Y-81280000D03*
X131064000Y-71120000D03*
X138815000Y-74037000D03*
X178222000Y-119134000D03*
X175146243Y-104013757D03*
X152150000Y-103130000D03*
X139330000Y-108820000D03*
X135880000Y-78450000D03*
X140130000Y-82710000D03*
X136570000Y-102810000D03*
X184912000Y-69596000D03*
X155956000Y-115080228D03*
X169402000Y-118856000D03*
X155362788Y-101514788D03*
X187452000Y-88646000D03*
X178816000Y-78232000D03*
X175260000Y-82161000D03*
X175006000Y-113284000D03*
X182626000Y-112776000D03*
X153480000Y-107990000D03*
X146870000Y-112380000D03*
X168280000Y-103620000D03*
X179324000Y-134729819D03*
X125984000Y-77724000D03*
X183754000Y-116474000D03*
X163540000Y-100580000D03*
X180430000Y-99490000D03*
X177980000Y-97640000D03*
X175140000Y-95000000D03*
X158496000Y-99568000D03*
X157480000Y-100584000D03*
X159490000Y-89470000D03*
X175006000Y-136398000D03*
X173736000Y-132588000D03*
X187198000Y-131572000D03*
X154630000Y-102570000D03*
X154461600Y-99593600D03*
X164430000Y-89630000D03*
X161036000Y-107696000D03*
X161290000Y-99568000D03*
X161380000Y-97460000D03*
X163490000Y-101600000D03*
X164418400Y-101574800D03*
X164308757Y-99568000D03*
X156392000Y-90602000D03*
X154240000Y-83670000D03*
X157408000Y-89586000D03*
X160456000Y-90602000D03*
X162460000Y-91460000D03*
D31*
X148255000Y-80203200D02*
X148485000Y-79973200D01*
D32*
X139018200Y-79973200D02*
X138815000Y-79770000D01*
D31*
X148485000Y-79973200D02*
X148485000Y-81131000D01*
X148103500Y-81512500D02*
X145542000Y-81512500D01*
X148485000Y-81131000D02*
X148103500Y-81512500D01*
X138815000Y-80895000D02*
X138815000Y-79770000D01*
X135868500Y-81788000D02*
X135890000Y-81766500D01*
X144547500Y-81512500D02*
X143764000Y-82296000D01*
X145542000Y-81512500D02*
X144547500Y-81512500D01*
X133794500Y-81597500D02*
X133604000Y-81788000D01*
X135860000Y-81597500D02*
X133794500Y-81597500D01*
X138112500Y-81597500D02*
X138815000Y-80895000D01*
X135860000Y-81597500D02*
X138112500Y-81597500D01*
X185928000Y-84582000D02*
X185420000Y-84582000D01*
X186055000Y-84455000D02*
X185928000Y-84582000D01*
X186055000Y-83972400D02*
X186055000Y-84455000D01*
X185695500Y-117856000D02*
X185695500Y-116607500D01*
X185225500Y-116137500D02*
X185225500Y-115316000D01*
X185695500Y-116607500D02*
X185225500Y-116137500D01*
X185674000Y-114867500D02*
X185225500Y-115316000D01*
X185674000Y-114071400D02*
X185674000Y-114867500D01*
X185695500Y-119365500D02*
X185740000Y-119410000D01*
X185695500Y-117856000D02*
X185695500Y-119365500D01*
X123758000Y-74900000D02*
X122712000Y-74900000D01*
X123758000Y-76850000D02*
X122824000Y-76850000D01*
X122824000Y-76850000D02*
X122428000Y-76454000D01*
X122428000Y-75184000D02*
X122712000Y-74900000D01*
X122428000Y-76454000D02*
X122428000Y-75184000D01*
X123758000Y-76850000D02*
X124930678Y-76850000D01*
X127142000Y-76850000D02*
X128016000Y-77724000D01*
X124930678Y-76850000D02*
X127142000Y-76850000D01*
D33*
X158908000Y-94159400D02*
X159363800Y-94615200D01*
X158908000Y-94110000D02*
X158908000Y-94159400D01*
X159858600Y-95110000D02*
X159363800Y-94615200D01*
X159908000Y-95110000D02*
X159858600Y-95110000D01*
X160916000Y-94110000D02*
X161408500Y-94602500D01*
X160908000Y-94110000D02*
X160916000Y-94110000D01*
X161908000Y-95102000D02*
X161408500Y-94602500D01*
X161908000Y-95110000D02*
X161908000Y-95102000D01*
X161395800Y-96597800D02*
X160908000Y-96110000D01*
X161395800Y-96621800D02*
X161395800Y-96597800D01*
X161884000Y-97110000D02*
X161395800Y-96621800D01*
X161908000Y-97110000D02*
X161884000Y-97110000D01*
X159852000Y-97110000D02*
X159376500Y-96634500D01*
X159908000Y-97110000D02*
X159852000Y-97110000D01*
X158908000Y-96166000D02*
X159331000Y-96589000D01*
X158908000Y-96110000D02*
X158908000Y-96166000D01*
X161908000Y-97110000D02*
X161908000Y-97120000D01*
X159331000Y-96589000D02*
X159376500Y-96634500D01*
D31*
X138815000Y-77470000D02*
X137414000Y-77470000D01*
X136630500Y-76686500D02*
X136630500Y-72644000D01*
X137414000Y-77470000D02*
X136630500Y-76686500D01*
X138891800Y-77393200D02*
X138815000Y-77470000D01*
X140590000Y-77393200D02*
X138891800Y-77393200D01*
X144888200Y-77393200D02*
X144965000Y-77470000D01*
X143080000Y-77393200D02*
X144888200Y-77393200D01*
D33*
X177052000Y-116504000D02*
X177812000Y-116504000D01*
X177812000Y-116504000D02*
X178022000Y-116714000D01*
X178022000Y-116714000D02*
X178022000Y-117134000D01*
X178247000Y-117359000D02*
X179312000Y-117359000D01*
X178022000Y-117134000D02*
X178247000Y-117359000D01*
X164965000Y-113157000D02*
X164057879Y-113157000D01*
X165989000Y-113157000D02*
X166370000Y-113538000D01*
X164965000Y-113157000D02*
X165989000Y-113157000D01*
X164908000Y-103110000D02*
X164908000Y-106872000D01*
X164908000Y-106872000D02*
X164846000Y-106934000D01*
X164908000Y-106872000D02*
X163626439Y-108153561D01*
X163626439Y-108153561D02*
X163626439Y-112725561D01*
X164057879Y-113157000D02*
X163626439Y-112725561D01*
X153908000Y-112268000D02*
X154686000Y-112268000D01*
X154801818Y-103216182D02*
X154908000Y-103110000D01*
X157615000Y-110617000D02*
X156337000Y-110617000D01*
X156337000Y-110617000D02*
X156083000Y-110617000D01*
X156210000Y-110744000D02*
X156083000Y-110617000D01*
X156210000Y-110744000D02*
X156337000Y-110617000D01*
X156083000Y-110617000D02*
X156083000Y-110871000D01*
X156083000Y-110871000D02*
X156210000Y-110744000D01*
X154686000Y-112268000D02*
X156083000Y-110871000D01*
X155458251Y-103660251D02*
X154908000Y-103110000D01*
X155458251Y-109992251D02*
X155458251Y-103660251D01*
X156083000Y-110617000D02*
X155458251Y-109992251D01*
X152708001Y-101910001D02*
X152908000Y-102110000D01*
X144760000Y-98488000D02*
X144760000Y-97708379D01*
X151627770Y-99950798D02*
X151627770Y-100829770D01*
X151627770Y-100829770D02*
X152708001Y-101910001D01*
X144760000Y-98488000D02*
X144760000Y-97110000D01*
X144760000Y-97110000D02*
X145390000Y-96480000D01*
X148156973Y-96480000D02*
X151627770Y-99950797D01*
X145670000Y-96480000D02*
X148156973Y-96480000D01*
X145390000Y-96480000D02*
X145670000Y-96480000D01*
X146448378Y-96820000D02*
X145560000Y-97708379D01*
X147930000Y-96820000D02*
X146448378Y-96820000D01*
X151363519Y-100253519D02*
X147930000Y-96820000D01*
X151363519Y-101633519D02*
X151363519Y-100253519D01*
X152300000Y-102570000D02*
X151363519Y-101633519D01*
X153448000Y-102570000D02*
X152300000Y-102570000D01*
X145560000Y-97708379D02*
X145560000Y-98488000D01*
X153908000Y-102110000D02*
X153448000Y-102570000D01*
X146354800Y-98482800D02*
X146360000Y-98488000D01*
X146360000Y-97480000D02*
X146558000Y-97282000D01*
X146558000Y-97282000D02*
X147320000Y-97282000D01*
X146360000Y-98488000D02*
X146360000Y-97480000D01*
D34*
X155908000Y-96110000D02*
X155908000Y-96010800D01*
D33*
X155908000Y-96010800D02*
X155477600Y-95580400D01*
X132760000Y-87880000D02*
X135487069Y-90607069D01*
X152908000Y-96110000D02*
X152050000Y-95252000D01*
X132760000Y-87032000D02*
X132760000Y-87880000D01*
X135487069Y-90607069D02*
X140932396Y-90607069D01*
X150320336Y-93522336D02*
X151044000Y-94246000D01*
X143847664Y-93522336D02*
X150320336Y-93522336D01*
X151044000Y-94246000D02*
X152908000Y-96110000D01*
X140932396Y-90607069D02*
X143847664Y-93522336D01*
X152172230Y-93374230D02*
X152908000Y-94110000D01*
X135160000Y-88160000D02*
X135160000Y-87032000D01*
X136582935Y-89582935D02*
X135160000Y-88160000D01*
X141036496Y-89582935D02*
X136582935Y-89582935D01*
X144128565Y-92675004D02*
X141036496Y-89582935D01*
X150781298Y-92675004D02*
X144128565Y-92675004D01*
X151280545Y-93174252D02*
X150781298Y-92675004D01*
X151972252Y-93174252D02*
X151280545Y-93174252D01*
X152908000Y-94110000D02*
X151972252Y-93174252D01*
X135960000Y-87811621D02*
X135960000Y-87032000D01*
X151390001Y-92910001D02*
X150890753Y-92410753D01*
X152708001Y-92910001D02*
X151390001Y-92910001D01*
X152908000Y-93110000D02*
X152708001Y-92910001D01*
X141145965Y-89318684D02*
X137228684Y-89318684D01*
X144238034Y-92410753D02*
X141145965Y-89318684D01*
X150890753Y-92410753D02*
X144238034Y-92410753D01*
X135960000Y-88050000D02*
X135960000Y-87032000D01*
X137228684Y-89318684D02*
X135960000Y-88050000D01*
X153306141Y-92508183D02*
X153306162Y-92508162D01*
X152041681Y-92508183D02*
X153306141Y-92508183D01*
X144347490Y-92146502D02*
X151680000Y-92146502D01*
X138002811Y-89054433D02*
X141255421Y-89054433D01*
X151680000Y-92146502D02*
X152041681Y-92508183D01*
X136760000Y-87811621D02*
X138002811Y-89054433D01*
X153306162Y-92508162D02*
X153908000Y-93110000D01*
X136760000Y-87032000D02*
X136760000Y-87811621D01*
X141255421Y-89054433D02*
X144347490Y-92146502D01*
X141576294Y-89001600D02*
X141957347Y-89382653D01*
X152680251Y-91882251D02*
X152908000Y-92110000D01*
X141957347Y-89382653D02*
X144456944Y-91882251D01*
X144456944Y-91882251D02*
X152680251Y-91882251D01*
X137560000Y-87940000D02*
X137560000Y-87032000D01*
X138410182Y-88790182D02*
X137560000Y-87940000D01*
X141364875Y-88790182D02*
X138410182Y-88790182D01*
X144456944Y-91882251D02*
X141364875Y-88790182D01*
X154890000Y-90110000D02*
X154460000Y-89680000D01*
X139960000Y-87032000D02*
X139960000Y-88392000D01*
X153908000Y-92110000D02*
X153416000Y-91618000D01*
X153416000Y-91618000D02*
X149330800Y-91618000D01*
X140760000Y-87811600D02*
X140760000Y-87032000D01*
X144566400Y-91618000D02*
X140760000Y-87811600D01*
X149330800Y-91618000D02*
X144566400Y-91618000D01*
X141560000Y-87811600D02*
X141560000Y-87032000D01*
X144858400Y-91110000D02*
X141560000Y-87811600D01*
X152908000Y-91110000D02*
X144858400Y-91110000D01*
X154908000Y-91110000D02*
X154400000Y-90602000D01*
X154400000Y-90602000D02*
X149432400Y-90602000D01*
X142360000Y-87811600D02*
X142360000Y-87032000D01*
X145150400Y-90602000D02*
X142360000Y-87811600D01*
X149432400Y-90602000D02*
X145150400Y-90602000D01*
X147218400Y-98429600D02*
X147160000Y-98488000D01*
X154862400Y-97110000D02*
X154410800Y-97561600D01*
D34*
X154908000Y-97110000D02*
X154862400Y-97110000D01*
D33*
X147160000Y-99916000D02*
X147269200Y-100025200D01*
X147160000Y-98488000D02*
X147160000Y-99916000D01*
X147160000Y-87811600D02*
X147588000Y-88239600D01*
X147160000Y-87032000D02*
X147160000Y-87811600D01*
D35*
X147588000Y-88239600D02*
X151028400Y-88239600D01*
D33*
X153708001Y-87910001D02*
X153908000Y-88110000D01*
X152979249Y-87181249D02*
X153708001Y-87910001D01*
X152086751Y-87181249D02*
X152979249Y-87181249D01*
X151028400Y-88239600D02*
X152086751Y-87181249D01*
X153908000Y-89110000D02*
X153509838Y-88711838D01*
X153509817Y-88711817D02*
X153908000Y-89110000D01*
X152431859Y-88711817D02*
X153509817Y-88711817D01*
X152431838Y-88711838D02*
X152431859Y-88711817D01*
X147260238Y-88711838D02*
X152431838Y-88711838D01*
X146360000Y-87811600D02*
X147260238Y-88711838D01*
X146360000Y-87032000D02*
X146360000Y-87811600D01*
X153908000Y-90110000D02*
X153396700Y-89598700D01*
X153396700Y-89598700D02*
X149419700Y-89598700D01*
X144760000Y-87811600D02*
X144760000Y-87032000D01*
X146547100Y-89598700D02*
X144760000Y-87811600D01*
X149419700Y-89598700D02*
X146547100Y-89598700D01*
X143960000Y-87811600D02*
X143960000Y-87032000D01*
X146258400Y-90110000D02*
X143960000Y-87811600D01*
X152908000Y-90110000D02*
X146258400Y-90110000D01*
X155306183Y-86898873D02*
X153751310Y-85344000D01*
X155306183Y-88097495D02*
X155306183Y-86898873D01*
X155716871Y-88508183D02*
X155306183Y-88097495D01*
X156306183Y-88508183D02*
X155716871Y-88508183D01*
X156908000Y-89110000D02*
X156306183Y-88508183D01*
X153751310Y-85344000D02*
X143510000Y-85344000D01*
X143160000Y-85694000D02*
X143160000Y-87032000D01*
X143510000Y-85344000D02*
X143160000Y-85694000D01*
X154708001Y-96309999D02*
X154908000Y-96110000D01*
X154509817Y-96508183D02*
X154708001Y-96309999D01*
X152716871Y-96508183D02*
X154509817Y-96508183D01*
X149995275Y-93786587D02*
X152716871Y-96508183D01*
X143738208Y-93786587D02*
X149995275Y-93786587D01*
X140822942Y-90871320D02*
X143738208Y-93786587D01*
X135019699Y-90871320D02*
X140822942Y-90871320D01*
X131960000Y-87811621D02*
X135019699Y-90871320D01*
X131960000Y-87032000D02*
X131960000Y-87811621D01*
X152708001Y-96910001D02*
X152677807Y-96910001D01*
X152908000Y-97110000D02*
X152708001Y-96910001D01*
X149818644Y-94050838D02*
X150543903Y-94776097D01*
X143628752Y-94050838D02*
X149818644Y-94050838D01*
X140713487Y-91135571D02*
X143628752Y-94050838D01*
X134483950Y-91135571D02*
X140713487Y-91135571D01*
X131160000Y-87811621D02*
X134483950Y-91135571D01*
X131160000Y-87032000D02*
X131160000Y-87811621D01*
X152677807Y-96910001D02*
X150543903Y-94776097D01*
X130360000Y-87811621D02*
X130360000Y-87032000D01*
X133948159Y-91399780D02*
X130360000Y-87811621D01*
X134374494Y-91399822D02*
X140604032Y-91399822D01*
X134374452Y-91399780D02*
X134374494Y-91399822D01*
X133948159Y-91399780D02*
X134374452Y-91399780D01*
X140604032Y-91399822D02*
X143150000Y-93945790D01*
X143150000Y-93945790D02*
X143519296Y-94315089D01*
X143519296Y-94315089D02*
X149485089Y-94315089D01*
X153509817Y-97508183D02*
X153908000Y-97110000D01*
X152678183Y-97508183D02*
X153509817Y-97508183D01*
X149485089Y-94315089D02*
X152678183Y-97508183D01*
X152908000Y-101110000D02*
X152349200Y-100551200D01*
X152349200Y-100551200D02*
X152349200Y-99924876D01*
X143825749Y-95654251D02*
X143160000Y-96320000D01*
X148674615Y-95654251D02*
X143825749Y-95654251D01*
X143160000Y-96320000D02*
X143160000Y-98488000D01*
X151620000Y-98599636D02*
X148674615Y-95654251D01*
X151620000Y-99179813D02*
X151620000Y-98599636D01*
X152349200Y-99909013D02*
X151620000Y-99179813D01*
X152349200Y-99924876D02*
X152349200Y-99909013D01*
X142360000Y-98488000D02*
X142360000Y-96722876D01*
X152908000Y-100094107D02*
X152908000Y-100110000D01*
X151975749Y-99161856D02*
X152908000Y-100094107D01*
X148784070Y-95390000D02*
X151975749Y-98581679D01*
X151975749Y-98581679D02*
X151975749Y-99161856D01*
X143160000Y-95390000D02*
X148784070Y-95390000D01*
X142360000Y-96190000D02*
X143160000Y-95390000D01*
X142360000Y-98488000D02*
X142360000Y-96190000D01*
X148875618Y-95107842D02*
X152240000Y-98472224D01*
X148192158Y-95107842D02*
X148875618Y-95107842D01*
X148191498Y-95108502D02*
X148192158Y-95107842D01*
X142381498Y-95108502D02*
X148191498Y-95108502D01*
X141560000Y-95930000D02*
X142381498Y-95108502D01*
X152240000Y-98472224D02*
X152240000Y-99052400D01*
X141560000Y-98488000D02*
X141560000Y-95930000D01*
X153509817Y-99508183D02*
X152695783Y-99508183D01*
X152695783Y-99508183D02*
X152240000Y-99052400D01*
X153908000Y-99110000D02*
X153509817Y-99508183D01*
X148985073Y-94843591D02*
X152908000Y-98766518D01*
X143519296Y-94843591D02*
X148985073Y-94843591D01*
X152908000Y-98766518D02*
X152908000Y-99110000D01*
X143518636Y-94844251D02*
X143519296Y-94843591D01*
X141985749Y-94844251D02*
X143518636Y-94844251D01*
X140760000Y-96070000D02*
X141985749Y-94844251D01*
X140760000Y-98488000D02*
X140760000Y-96070000D01*
X139960000Y-96110000D02*
X139960000Y-98488000D01*
X143409180Y-94580000D02*
X141490000Y-94580000D01*
X141490000Y-94580000D02*
X139960000Y-96110000D01*
X143409840Y-94579340D02*
X143409180Y-94580000D01*
X149375634Y-94579340D02*
X143409840Y-94579340D01*
X152906294Y-98110000D02*
X149375634Y-94579340D01*
X152908000Y-98110000D02*
X152906294Y-98110000D01*
X137560000Y-98488000D02*
X137560000Y-97136000D01*
X137560000Y-97136000D02*
X137566400Y-97129600D01*
D34*
X154908000Y-95110000D02*
X154854800Y-95110000D01*
D33*
X154463200Y-95554800D02*
X154908000Y-95110000D01*
X154410800Y-95554800D02*
X154463200Y-95554800D01*
X137560000Y-96790000D02*
X137790000Y-96560000D01*
X137560000Y-97136000D02*
X137560000Y-96790000D01*
X136753600Y-98481600D02*
X136760000Y-98488000D01*
X136753600Y-96926400D02*
X136753600Y-96926400D01*
X155426800Y-94628800D02*
X155908000Y-95110000D01*
D34*
X155426800Y-94615200D02*
X155426800Y-94628800D01*
D33*
X136753600Y-96926400D02*
X136753600Y-98481600D01*
D34*
X154908000Y-94110000D02*
X154908000Y-94096400D01*
D33*
X135991600Y-98456400D02*
X135960000Y-98488000D01*
X135991600Y-96469200D02*
X135991600Y-98456400D01*
X154428400Y-94589600D02*
X154908000Y-94110000D01*
X154410800Y-94589600D02*
X154428400Y-94589600D01*
X135991600Y-95818400D02*
X136010000Y-95800000D01*
X135991600Y-96469200D02*
X135991600Y-95818400D01*
D34*
X156908000Y-94110000D02*
X156902800Y-94110000D01*
D33*
X135178800Y-96062800D02*
X135178800Y-98469200D01*
X135178800Y-98469200D02*
X135160000Y-98488000D01*
X156720000Y-94110000D02*
X156410000Y-94420000D01*
X156908000Y-94110000D02*
X156720000Y-94110000D01*
X135178800Y-95171200D02*
X135180000Y-95170000D01*
X135178800Y-96062800D02*
X135178800Y-95171200D01*
X134366000Y-98482000D02*
X134360000Y-98488000D01*
X134366000Y-95605600D02*
X134366000Y-98482000D01*
D34*
X154908000Y-93110000D02*
X154886800Y-93110000D01*
D33*
X154410800Y-93607200D02*
X154908000Y-93110000D01*
X154410800Y-93624400D02*
X154410800Y-93607200D01*
X134366000Y-94544000D02*
X134380000Y-94530000D01*
X134366000Y-95605600D02*
X134366000Y-94544000D01*
D34*
X156908000Y-93110000D02*
X156908000Y-93099200D01*
D33*
X156908000Y-93099200D02*
X156442800Y-92634000D01*
X130360000Y-94120000D02*
X130360000Y-98488000D01*
X130360000Y-91498000D02*
X130302000Y-91440000D01*
X130360000Y-94120000D02*
X130360000Y-91498000D01*
X131165600Y-98482400D02*
X131160000Y-98488000D01*
X155426800Y-91628800D02*
X155908000Y-92110000D01*
D34*
X155426800Y-91618000D02*
X155426800Y-91628800D01*
D33*
X131160000Y-94400000D02*
X131180000Y-94380000D01*
X131160000Y-98488000D02*
X131160000Y-94400000D01*
X131160000Y-91880000D02*
X131170000Y-91870000D01*
X131160000Y-94400000D02*
X131160000Y-91880000D01*
X131978400Y-94386400D02*
X131978400Y-98469600D01*
X155902800Y-93110000D02*
X155426800Y-92634000D01*
D34*
X155908000Y-93110000D02*
X155902800Y-93110000D01*
D33*
X131978400Y-98469600D02*
X131960000Y-98488000D01*
X131978400Y-92611600D02*
X132020000Y-92570000D01*
X131978400Y-94386400D02*
X131978400Y-92611600D01*
X132740400Y-98468400D02*
X132760000Y-98488000D01*
X132740400Y-94742000D02*
X132740400Y-98468400D01*
X154908000Y-92350400D02*
X154650000Y-92608400D01*
X154908000Y-92110000D02*
X154908000Y-92350400D01*
X132740400Y-93290400D02*
X132740000Y-93290000D01*
X132740400Y-94742000D02*
X132740400Y-93290400D01*
X133604000Y-98444000D02*
X133560000Y-98488000D01*
X133604000Y-95199200D02*
X133604000Y-98444000D01*
X157908000Y-93152000D02*
X157390000Y-93670000D01*
X133604000Y-93904000D02*
X133600000Y-93900000D01*
X133604000Y-95199200D02*
X133604000Y-93904000D01*
X154908000Y-87090000D02*
X154432000Y-86614000D01*
X154908000Y-88110000D02*
X154908000Y-87090000D01*
X123758000Y-76200000D02*
X125984000Y-76200000D01*
X154509817Y-87707817D02*
X154178000Y-87376000D01*
X154509817Y-88711817D02*
X154509817Y-87707817D01*
X154908000Y-89110000D02*
X154509817Y-88711817D01*
X123758000Y-75550000D02*
X126096000Y-75550000D01*
X125790000Y-75550000D02*
X126096000Y-75550000D01*
X164460000Y-92570000D02*
X165037264Y-92570000D01*
X165030690Y-92570000D02*
X164460000Y-92570000D01*
X165490690Y-92110000D02*
X165030690Y-92570000D01*
X165908000Y-92110000D02*
X165490690Y-92110000D01*
X165908000Y-90110000D02*
X165922000Y-90110000D01*
X165908000Y-90018000D02*
X165420000Y-89530000D01*
X165908000Y-90110000D02*
X165908000Y-90018000D01*
X127238000Y-93980000D02*
X128778000Y-93980000D01*
X163908000Y-90110000D02*
X163908000Y-90096400D01*
X163830000Y-90110000D02*
X163380000Y-90560000D01*
X163908000Y-90110000D02*
X163830000Y-90110000D01*
X127238000Y-98552000D02*
X128778000Y-98552000D01*
X166908000Y-87827158D02*
X166903400Y-87822558D01*
X166908000Y-88110000D02*
X166908000Y-87827158D01*
X166903400Y-87822558D02*
X166903400Y-86410800D01*
X129921000Y-101981000D02*
X130556000Y-101346000D01*
X127492000Y-104648000D02*
X128778000Y-104648000D01*
X129794000Y-103632000D02*
X129794000Y-102108000D01*
X128778000Y-104648000D02*
X129794000Y-103632000D01*
X129794000Y-102108000D02*
X129921000Y-101981000D01*
X157464000Y-116840000D02*
X158242000Y-116840000D01*
X158242000Y-116840000D02*
X159004000Y-116078000D01*
X159004000Y-109982000D02*
X159004000Y-110744000D01*
X158242000Y-109220000D02*
X159004000Y-109982000D01*
X156622000Y-109220000D02*
X158242000Y-109220000D01*
X155908000Y-103110000D02*
X155908000Y-108506000D01*
X155908000Y-108506000D02*
X156622000Y-109220000D01*
X159004000Y-116078000D02*
X159004000Y-110744000D01*
X151400000Y-115062000D02*
X151400000Y-115586000D01*
X149860000Y-115062000D02*
X151400000Y-115062000D01*
X154231818Y-102844506D02*
X154432000Y-103044688D01*
X154432000Y-103044688D02*
X154432000Y-105410000D01*
X154432000Y-105410000D02*
X155194000Y-106172000D01*
X155194000Y-106172000D02*
X155194000Y-110490000D01*
X155194000Y-110490000D02*
X154686000Y-110998000D01*
X154686000Y-110998000D02*
X150622000Y-110998000D01*
X149606000Y-112014000D02*
X149606000Y-114808000D01*
X150622000Y-110998000D02*
X149606000Y-112014000D01*
X149606000Y-114808000D02*
X149860000Y-115062000D01*
X154429000Y-102181690D02*
X154429000Y-100589000D01*
X154231818Y-102378872D02*
X154429000Y-102181690D01*
X154231818Y-102844506D02*
X154231818Y-102378872D01*
X154908000Y-100110000D02*
X154429000Y-100589000D01*
X163509817Y-102508183D02*
X163509817Y-103301129D01*
X168148000Y-118364000D02*
X163576000Y-118364000D01*
X169418000Y-117094000D02*
X168148000Y-118364000D01*
X169418000Y-115778000D02*
X169418000Y-117094000D01*
X169434000Y-115762000D02*
X169418000Y-115778000D01*
X169434000Y-115062000D02*
X169434000Y-115762000D01*
X163097937Y-117885937D02*
X163322000Y-118110000D01*
X163576000Y-118364000D02*
X163322000Y-118110000D01*
X163509817Y-102508183D02*
X163908000Y-102110000D01*
X163509817Y-105730183D02*
X163509817Y-102508183D01*
X163097937Y-106142063D02*
X163509817Y-105730183D01*
X163097937Y-106142063D02*
X163097937Y-108052063D01*
X163097937Y-108052063D02*
X163097937Y-117885937D01*
X163097937Y-107934649D02*
X163097937Y-108052063D01*
X163362188Y-116372188D02*
X163830000Y-116840000D01*
X163362188Y-108044105D02*
X163362188Y-116372188D01*
X163908000Y-107498294D02*
X163362188Y-108044105D01*
X163908000Y-103110000D02*
X163908000Y-107498294D01*
X164608000Y-116840000D02*
X163830000Y-116840000D01*
X178288000Y-133522000D02*
X177020000Y-134790000D01*
X179942000Y-133522000D02*
X178288000Y-133522000D01*
X160908000Y-101110000D02*
X160625158Y-101110000D01*
X180811621Y-132872000D02*
X179942000Y-132872000D01*
X182382251Y-126502251D02*
X182382251Y-131301370D01*
X178592753Y-122712753D02*
X182382251Y-126502251D01*
X160306151Y-108668203D02*
X160853757Y-109215808D01*
X166325355Y-122712753D02*
X178592753Y-122712753D01*
X160306151Y-103191849D02*
X160306151Y-108668203D01*
X160451000Y-101269000D02*
X160451000Y-103047000D01*
X160853757Y-117241155D02*
X166325355Y-122712753D01*
X160610000Y-101110000D02*
X160451000Y-101269000D01*
X182382251Y-131301370D02*
X180811621Y-132872000D01*
X160853757Y-109215808D02*
X160853757Y-117241155D01*
X160451000Y-103047000D02*
X160306151Y-103191849D01*
X160908000Y-101110000D02*
X160610000Y-101110000D01*
X159908000Y-108643759D02*
X159908000Y-106670874D01*
X160589506Y-109325264D02*
X159908000Y-108643759D01*
X159908000Y-106670874D02*
X159908000Y-103110000D01*
X160589506Y-117286494D02*
X160589506Y-109325264D01*
X160589507Y-117350611D02*
X160589506Y-117286494D01*
X166215899Y-122977004D02*
X160589507Y-117350611D01*
X178095004Y-122977004D02*
X166215899Y-122977004D01*
X182118000Y-127000000D02*
X178095004Y-122977004D01*
X180811621Y-131572000D02*
X182118000Y-130265621D01*
X182118000Y-130265621D02*
X182118000Y-127000000D01*
X179942000Y-131572000D02*
X180811621Y-131572000D01*
X178038000Y-130922000D02*
X177000000Y-131960000D01*
X179942000Y-130922000D02*
X178038000Y-130922000D01*
X158908000Y-105710000D02*
X158908000Y-103110000D01*
X160325255Y-116637255D02*
X160325255Y-116788745D01*
X160325255Y-117460067D02*
X160325255Y-116637255D01*
X166563188Y-123698000D02*
X160325255Y-117460067D01*
X181102000Y-127254000D02*
X177546000Y-123698000D01*
X181102000Y-129981621D02*
X181102000Y-127254000D01*
X180811621Y-130272000D02*
X181102000Y-129981621D01*
X177546000Y-123698000D02*
X166563188Y-123698000D01*
X179942000Y-130272000D02*
X180811621Y-130272000D01*
X160325255Y-109434720D02*
X160325255Y-116637255D01*
X158908000Y-108017464D02*
X160325255Y-109434720D01*
X158908000Y-103110000D02*
X158908000Y-108017464D01*
X158436700Y-102581300D02*
X158436700Y-102675300D01*
X158908000Y-102110000D02*
X158436700Y-102581300D01*
X158436700Y-105702300D02*
X158436700Y-102675300D01*
X158436700Y-102581300D02*
X158436700Y-107394878D01*
X158436700Y-107919873D02*
X160061004Y-109544176D01*
X158436700Y-107394878D02*
X158436700Y-107919873D01*
X160061004Y-109544176D02*
X160061004Y-116290996D01*
X160061004Y-116290996D02*
X160061004Y-116586000D01*
X179942000Y-129622000D02*
X179942000Y-127872000D01*
X160061004Y-117569523D02*
X160061004Y-116290996D01*
X166697481Y-124206000D02*
X160061004Y-117569523D01*
X177292000Y-124206000D02*
X166697481Y-124206000D01*
X179942000Y-126856000D02*
X177292000Y-124206000D01*
X179942000Y-127872000D02*
X179942000Y-126856000D01*
X161908000Y-117443413D02*
X166648838Y-122184251D01*
X161908000Y-116222000D02*
X161908000Y-117443413D01*
X161908000Y-103110000D02*
X161908000Y-116222000D01*
X161908000Y-116222000D02*
X161908000Y-116476000D01*
X166648838Y-122184251D02*
X180604251Y-122184251D01*
X184150000Y-125730000D02*
X183388000Y-124968000D01*
X184150000Y-130123621D02*
X184150000Y-125730000D01*
X184948379Y-130922000D02*
X184150000Y-130123621D01*
X185818000Y-130922000D02*
X184948379Y-130922000D01*
X183388000Y-124968000D02*
X183896000Y-125476000D01*
X180604251Y-122184251D02*
X183388000Y-124968000D01*
X166758294Y-121920000D02*
X181102000Y-121920000D01*
X181102000Y-121920000D02*
X185420000Y-126238000D01*
X185420000Y-126238000D02*
X187706000Y-128524000D01*
X188468000Y-128524000D02*
X187706000Y-128524000D01*
X162908000Y-102110000D02*
X162358000Y-102660000D01*
X162306183Y-117467889D02*
X162934147Y-118095853D01*
X162306183Y-102711817D02*
X162306183Y-117467889D01*
X162908000Y-102110000D02*
X162306183Y-102711817D01*
X162934147Y-118095853D02*
X166758294Y-121920000D01*
X184948379Y-132222000D02*
X183134000Y-130407621D01*
X185818000Y-132222000D02*
X184948379Y-132222000D01*
X183134000Y-130407621D02*
X183134000Y-127254000D01*
X183134000Y-127254000D02*
X183134000Y-127000000D01*
X166434811Y-122448502D02*
X161118008Y-117131699D01*
X179852502Y-122448502D02*
X166434811Y-122448502D01*
X183134000Y-125730000D02*
X179852502Y-122448502D01*
X183134000Y-127254000D02*
X183134000Y-125730000D01*
X160908000Y-103110000D02*
X160570402Y-103447598D01*
X160570402Y-107992402D02*
X161118008Y-108540008D01*
X160570402Y-103447598D02*
X160570402Y-107992402D01*
X161118008Y-117131699D02*
X161118008Y-108540008D01*
X178739800Y-68656200D02*
X179070000Y-68326000D01*
X178739800Y-69469000D02*
X178739800Y-68656200D01*
X183159400Y-68554600D02*
X183388000Y-68326000D01*
X183159400Y-69469000D02*
X183159400Y-68554600D01*
X174548800Y-70104000D02*
X178739800Y-70104000D01*
X171196000Y-73456800D02*
X174548800Y-70104000D01*
X171196000Y-85547200D02*
X171196000Y-73456800D01*
X168104200Y-88639000D02*
X171196000Y-85547200D01*
X167379000Y-88639000D02*
X168104200Y-88639000D01*
X166908000Y-89110000D02*
X167379000Y-88639000D01*
X167908000Y-89110000D02*
X171646400Y-89110000D01*
X183159400Y-71399400D02*
X183159400Y-72872600D01*
X183159400Y-72872600D02*
X181356000Y-74676000D01*
X176276000Y-74676000D02*
X181356000Y-74676000D01*
X173228000Y-77724000D02*
X176276000Y-74676000D01*
X173228000Y-87528400D02*
X173228000Y-84582000D01*
X173228000Y-84582000D02*
X173228000Y-77724000D01*
X173228000Y-85293200D02*
X173228000Y-84582000D01*
X173228000Y-87528400D02*
X171646400Y-89110000D01*
X163908000Y-92110000D02*
X163875600Y-92110000D01*
X163908000Y-92077600D02*
X164418400Y-91567200D01*
X163908000Y-92110000D02*
X163908000Y-92077600D01*
X173228000Y-72898000D02*
X174752000Y-72898000D01*
X171856430Y-74269570D02*
X173228000Y-72898000D01*
X171856430Y-86512370D02*
X171856430Y-74269570D01*
X169875200Y-88493600D02*
X171856430Y-86512370D01*
X165908000Y-91110000D02*
X165942400Y-91110000D01*
X165942400Y-91110000D02*
X166450400Y-90602000D01*
X171592179Y-85963821D02*
X169468800Y-88087200D01*
X171592179Y-73517821D02*
X171592179Y-73802179D01*
X178739800Y-70764400D02*
X174345600Y-70764400D01*
X174345600Y-70764400D02*
X171592179Y-73517821D01*
X171592179Y-85963821D02*
X171592179Y-73802179D01*
X188315570Y-84246688D02*
X188315570Y-91795570D01*
X188315570Y-91795570D02*
X190500000Y-93980000D01*
X186745882Y-82677000D02*
X188315570Y-84246688D01*
X186055000Y-82677000D02*
X186745882Y-82677000D01*
X188620380Y-89560380D02*
X190500000Y-91440000D01*
X188620380Y-83916498D02*
X188620380Y-89560380D01*
X186720482Y-82016600D02*
X188620380Y-83916498D01*
X186055000Y-82016600D02*
X186720482Y-82016600D01*
X188925190Y-83560908D02*
X188925190Y-87325190D01*
X186720482Y-81356200D02*
X188925190Y-83560908D01*
X188925190Y-87325190D02*
X190500000Y-88900000D01*
X186055000Y-81356200D02*
X186720482Y-81356200D01*
X186745882Y-80721200D02*
X189230000Y-83205318D01*
X186055000Y-80721200D02*
X186745882Y-80721200D01*
X189230000Y-85090000D02*
X190500000Y-86360000D01*
X189230000Y-83205318D02*
X189230000Y-85090000D01*
X186055000Y-80060800D02*
X187375800Y-80060800D01*
X190500000Y-83185000D02*
X190500000Y-83820000D01*
X187375800Y-80060800D02*
X190500000Y-83185000D01*
X186055000Y-79425800D02*
X189026800Y-79425800D01*
X190500000Y-80899000D02*
X190500000Y-81280000D01*
X189026800Y-79425800D02*
X190500000Y-80899000D01*
X190474600Y-78765400D02*
X190500000Y-78740000D01*
X186055000Y-78765400D02*
X190474600Y-78765400D01*
X188595000Y-78105000D02*
X186055000Y-78105000D01*
X190500000Y-76200000D02*
X188595000Y-78105000D01*
X188976000Y-108204000D02*
X190500000Y-106680000D01*
X185674000Y-108204000D02*
X188976000Y-108204000D01*
X190144400Y-108864400D02*
X190500000Y-109220000D01*
X185674000Y-108864400D02*
X190144400Y-108864400D01*
X188264800Y-109524800D02*
X190500000Y-111760000D01*
X185674000Y-109524800D02*
X188264800Y-109524800D01*
X185674000Y-110159800D02*
X187756800Y-110159800D01*
X187756800Y-110159800D02*
X189230000Y-111633000D01*
X189230000Y-113030000D02*
X190500000Y-114300000D01*
X189230000Y-111633000D02*
X189230000Y-113030000D01*
X186563000Y-110820200D02*
X188849000Y-113106200D01*
X185674000Y-110820200D02*
X186563000Y-110820200D01*
X188849000Y-115189000D02*
X190500000Y-116840000D01*
X188849000Y-113106200D02*
X188849000Y-115189000D01*
X188544190Y-117424190D02*
X190500000Y-119380000D01*
X188544190Y-113659908D02*
X188544190Y-117424190D01*
X186339482Y-111455200D02*
X188544190Y-113659908D01*
X185674000Y-111455200D02*
X186339482Y-111455200D01*
X188239380Y-119659380D02*
X190500000Y-121920000D01*
X188239380Y-113791980D02*
X188239380Y-119659380D01*
X186563000Y-112115600D02*
X188239380Y-113791980D01*
X185674000Y-112115600D02*
X186563000Y-112115600D01*
X187934570Y-121894570D02*
X190500000Y-124460000D01*
X187934570Y-114345688D02*
X187934570Y-121894570D01*
X186364882Y-112776000D02*
X187934570Y-114345688D01*
X185674000Y-112776000D02*
X186364882Y-112776000D01*
D35*
X129540000Y-127000000D02*
X128930400Y-127000000D01*
D33*
X156908000Y-100012000D02*
X156464000Y-99568000D01*
X156908000Y-100110000D02*
X156908000Y-100012000D01*
X155640000Y-100110000D02*
X155150000Y-100600000D01*
X155908000Y-100110000D02*
X155640000Y-100110000D01*
X156908000Y-98996000D02*
X156534389Y-98622389D01*
X156908000Y-99110000D02*
X156908000Y-98996000D01*
X155424400Y-99593600D02*
X155908000Y-99110000D01*
D34*
X155376000Y-99593600D02*
X155424400Y-99593600D01*
D33*
X167306183Y-101508183D02*
X168774377Y-101508183D01*
X166908000Y-101110000D02*
X167306183Y-101508183D01*
X183800000Y-87932447D02*
X185579603Y-89712049D01*
X170443097Y-103176903D02*
X170443097Y-103176906D01*
X170761320Y-103495129D02*
X181324871Y-103495129D01*
X168774377Y-101508183D02*
X170443097Y-103176903D01*
X185579603Y-101194780D02*
X183279254Y-103495129D01*
X170443097Y-103176906D02*
X170761320Y-103495129D01*
X183279254Y-103495129D02*
X181324871Y-103495129D01*
X180855047Y-77470000D02*
X183800000Y-80414953D01*
X185579603Y-89712049D02*
X185579603Y-101194780D01*
X183800000Y-80414953D02*
X183800000Y-87932447D01*
X180213000Y-77470000D02*
X180855047Y-77470000D01*
X180213000Y-78105000D02*
X181081721Y-78105000D01*
X183500000Y-88006154D02*
X185315352Y-89821505D01*
X180213000Y-78105000D02*
X181116341Y-78105000D01*
X183492025Y-80480684D02*
X183492025Y-80927975D01*
X181116341Y-78105000D02*
X183492025Y-80480684D01*
X183492025Y-80927975D02*
X183492025Y-80773295D01*
X183492025Y-87998179D02*
X183500000Y-88006154D01*
X183492025Y-80927975D02*
X183492025Y-87998179D01*
X185315352Y-101085324D02*
X185315348Y-101085328D01*
X184400000Y-102000676D02*
X184399990Y-102000676D01*
X183169798Y-103230878D02*
X185315352Y-101085324D01*
X185315348Y-101085328D02*
X184400000Y-102000676D01*
X184399990Y-102000676D02*
X183169788Y-103230878D01*
X170870776Y-103230878D02*
X183169798Y-103230878D01*
X167908000Y-101110000D02*
X168749900Y-101110000D01*
X168749900Y-101110000D02*
X170870776Y-103230878D01*
X185315352Y-89821505D02*
X185315352Y-101085324D01*
X181081721Y-78765400D02*
X180213000Y-78765400D01*
X183227774Y-80911453D02*
X181081721Y-78765400D01*
X183227774Y-87492226D02*
X183227774Y-80911453D01*
X185051101Y-89930961D02*
X183224865Y-88104726D01*
X183224865Y-88104726D02*
X183224865Y-87495135D01*
X185051101Y-100975868D02*
X185051101Y-89930961D01*
X183060320Y-102966627D02*
X185051101Y-100975868D01*
X170980232Y-102966627D02*
X183060320Y-102966627D01*
X168123606Y-100110000D02*
X170980232Y-102966627D01*
X183224865Y-87495135D02*
X183227774Y-87492226D01*
X167908000Y-100110000D02*
X168123606Y-100110000D01*
X180281000Y-79529800D02*
X180839800Y-79529800D01*
X167336601Y-99538601D02*
X166908000Y-99110000D01*
X182963523Y-81307602D02*
X182963523Y-85256477D01*
X180213000Y-79425800D02*
X181081721Y-79425800D01*
X181081721Y-79425800D02*
X182963523Y-81307602D01*
X182963523Y-85256477D02*
X182960614Y-85259386D01*
X182960614Y-85259386D02*
X182960614Y-88214182D01*
X182960614Y-88214182D02*
X184786850Y-90040417D01*
X167336601Y-99538601D02*
X167925913Y-99538601D01*
X167925913Y-99538601D02*
X171089688Y-102702376D01*
X171907567Y-102702376D02*
X172117624Y-102702376D01*
X171089688Y-102702376D02*
X172117624Y-102702376D01*
X172117624Y-102702376D02*
X182882376Y-102702376D01*
X184786850Y-100866412D02*
X182950864Y-102702376D01*
X182950864Y-102702376D02*
X182800000Y-102702376D01*
X182800000Y-102702376D02*
X182882376Y-102702376D01*
X184786850Y-90040417D02*
X184786850Y-100866412D01*
X180213000Y-80060800D02*
X180795027Y-80060800D01*
X182696363Y-81933433D02*
X182696363Y-83723637D01*
X180823730Y-80060800D02*
X182696363Y-81933433D01*
X180213000Y-80060800D02*
X180823730Y-80060800D01*
X182696363Y-81962136D02*
X182696363Y-83723637D01*
X184522599Y-93142599D02*
X184522599Y-100742599D01*
X182827073Y-102438125D02*
X183072599Y-102192599D01*
X171236125Y-102438125D02*
X182827073Y-102438125D01*
X184522599Y-90149873D02*
X184522599Y-93142599D01*
X167908000Y-99110000D02*
X171236125Y-102438125D01*
X184522599Y-100742599D02*
X183072599Y-102192599D01*
X182696363Y-83723637D02*
X182696363Y-88323637D01*
X182696363Y-88323637D02*
X184522599Y-90149873D01*
X182298181Y-81937660D02*
X182298181Y-86320000D01*
X181081721Y-80721200D02*
X182298181Y-81937660D01*
X180213000Y-80721200D02*
X181081721Y-80721200D01*
X171289862Y-92508183D02*
X171300000Y-92518321D01*
X167306183Y-92508183D02*
X171289862Y-92508183D01*
X166908000Y-92110000D02*
X167306183Y-92508183D01*
X181900000Y-82174479D02*
X181900000Y-85720000D01*
X181081721Y-81356200D02*
X181900000Y-82174479D01*
X180213000Y-81356200D02*
X181081721Y-81356200D01*
X172010000Y-93110000D02*
X172400000Y-92720000D01*
X168890000Y-93110000D02*
X172010000Y-93110000D01*
X168890000Y-93110000D02*
X167908000Y-93110000D01*
D35*
X180213000Y-82016600D02*
X180878482Y-82016600D01*
D33*
X181400000Y-82334879D02*
X181400000Y-85220000D01*
X181081721Y-82016600D02*
X181400000Y-82334879D01*
X180213000Y-82016600D02*
X181081721Y-82016600D01*
X165358000Y-92660000D02*
X164908000Y-93110000D01*
X165530000Y-92660000D02*
X165358000Y-92660000D01*
D35*
X167973396Y-102110000D02*
X167908000Y-102110000D01*
D33*
X170028178Y-104164782D02*
X167973396Y-102110000D01*
X174734154Y-104164782D02*
X170028178Y-104164782D01*
X178138372Y-107569000D02*
X174734154Y-104164782D01*
X179832000Y-107569000D02*
X178138372Y-107569000D01*
X178629000Y-108864400D02*
X174539000Y-104774400D01*
X179832000Y-108864400D02*
X178629000Y-108864400D01*
X168572400Y-104774400D02*
X168960200Y-104774400D01*
X166908000Y-103110000D02*
X168572400Y-104774400D01*
X174539000Y-104774400D02*
X168960200Y-104774400D01*
D34*
X165916000Y-99110000D02*
X166399600Y-99593600D01*
X165908000Y-99110000D02*
X165916000Y-99110000D01*
D33*
X179832000Y-111455200D02*
X179120800Y-111455200D01*
X179120800Y-111455200D02*
X178816000Y-111760000D01*
X178562000Y-111760000D02*
X178308000Y-111506000D01*
X178816000Y-111760000D02*
X178562000Y-111760000D01*
X168353488Y-105302902D02*
X167444588Y-104394000D01*
X174097098Y-105302902D02*
X168353488Y-105302902D01*
X178953996Y-110159800D02*
X174097098Y-105302902D01*
X179832000Y-110159800D02*
X178953996Y-110159800D01*
X167444588Y-104394000D02*
X166878000Y-104394000D01*
X166132621Y-102110000D02*
X166638621Y-102616000D01*
X165908000Y-102110000D02*
X166132621Y-102110000D01*
X166908000Y-102110000D02*
X167479399Y-102681399D01*
X168068711Y-102681399D02*
X167479399Y-102681399D01*
X174567339Y-104429033D02*
X169816345Y-104429033D01*
X169816345Y-104429033D02*
X168068711Y-102681399D01*
X178342306Y-108204000D02*
X174567339Y-104429033D01*
X179832000Y-108204000D02*
X178342306Y-108204000D01*
X178915694Y-109524800D02*
X179832000Y-109524800D01*
X174429545Y-105038651D02*
X178915694Y-109524800D01*
X168462944Y-105038651D02*
X174429545Y-105038651D01*
X165908000Y-103110000D02*
X166467853Y-103669853D01*
X167094147Y-103669853D02*
X168462944Y-105038651D01*
X166467853Y-103669853D02*
X167094147Y-103669853D01*
X179221270Y-110820200D02*
X179832000Y-110820200D01*
X167908000Y-98110000D02*
X168468000Y-98110000D01*
X168468000Y-98110000D02*
X170434000Y-100076000D01*
X177038000Y-109220000D02*
X178562000Y-110744000D01*
X178638200Y-110820200D02*
X178562000Y-110744000D01*
X179832000Y-110820200D02*
X178638200Y-110820200D01*
X163351600Y-96553600D02*
X162908000Y-96110000D01*
D34*
X163351600Y-96609100D02*
X163351600Y-96553600D01*
D33*
X178765200Y-112268000D02*
X178917600Y-112115600D01*
X178308000Y-112268000D02*
X178765200Y-112268000D01*
X179832000Y-112115600D02*
X178917600Y-112115600D01*
D32*
X130593500Y-77702500D02*
X130556000Y-77740000D01*
D31*
X131064000Y-74443500D02*
X131064000Y-77740000D01*
X121183000Y-73000000D02*
X121083000Y-72900000D01*
X123533000Y-73000000D02*
X121183000Y-73000000D01*
X121083000Y-75000000D02*
X121083000Y-72900000D01*
X121083000Y-75000000D02*
X121083000Y-77400000D01*
X121083000Y-77400000D02*
X121083000Y-79500000D01*
X123433000Y-79500000D02*
X123533000Y-79400000D01*
X121083000Y-79500000D02*
X123433000Y-79500000D01*
X123533000Y-79400000D02*
X127864000Y-79400000D01*
X129524000Y-77740000D02*
X131064000Y-77740000D01*
X127864000Y-79400000D02*
X129524000Y-77740000D01*
D33*
X156665600Y-130236800D02*
X156651200Y-130251200D01*
X156665600Y-127914400D02*
X156665600Y-130236800D01*
X157327600Y-127914400D02*
X159004000Y-126238000D01*
X156665600Y-127914400D02*
X157327600Y-127914400D01*
X159004000Y-126238000D02*
X157988000Y-127254000D01*
X158172450Y-103374450D02*
X157908000Y-103110000D01*
X158172450Y-108029329D02*
X158172450Y-103374450D01*
X159796753Y-109653632D02*
X158172450Y-108029329D01*
X159796753Y-125445247D02*
X159796753Y-109653632D01*
X159004000Y-126238000D02*
X159796753Y-125445247D01*
X138742800Y-129458000D02*
X138820200Y-129380600D01*
X135675000Y-129458000D02*
X138742800Y-129458000D01*
X138730500Y-126958000D02*
X138847900Y-126840600D01*
X135655000Y-126958000D02*
X138730500Y-126958000D01*
X138684300Y-124358000D02*
X138817900Y-124224400D01*
X135655000Y-124358000D02*
X138684300Y-124358000D01*
X138775900Y-121828000D02*
X138868700Y-121735200D01*
X135645000Y-121828000D02*
X138775900Y-121828000D01*
X138899800Y-119268000D02*
X138921800Y-119246000D01*
X135645000Y-119268000D02*
X138899800Y-119268000D01*
X138826000Y-116788000D02*
X138921800Y-116883800D01*
X135645000Y-116788000D02*
X138826000Y-116788000D01*
X138692100Y-114218000D02*
X138843300Y-114369200D01*
X135635000Y-114218000D02*
X138692100Y-114218000D01*
X138622000Y-111688000D02*
X138760000Y-111550000D01*
X135635000Y-111688000D02*
X138622000Y-111688000D01*
D35*
X122682000Y-102362000D02*
X121920000Y-101600000D01*
D33*
X121920000Y-101600000D02*
X123440000Y-101600000D01*
X125492000Y-103652000D02*
X123950000Y-102110000D01*
X125492000Y-104648000D02*
X125492000Y-103652000D01*
X123440000Y-101600000D02*
X123950000Y-102110000D01*
X121920000Y-99060000D02*
X123170000Y-99060000D01*
X123678000Y-98552000D02*
X125238000Y-98552000D01*
X123170000Y-99060000D02*
X123678000Y-98552000D01*
X121920000Y-93980000D02*
X125238000Y-93980000D01*
D35*
X167297000Y-132806000D02*
X167297000Y-132102760D01*
X167297000Y-132102760D02*
X166677340Y-131483100D01*
X166677340Y-131483100D02*
X159799020Y-131483100D01*
X159347000Y-131935120D02*
X159347000Y-132806000D01*
X159799020Y-131483100D02*
X159347000Y-131935120D01*
D33*
X154577300Y-132892800D02*
X154577300Y-134097300D01*
X155180682Y-134700682D02*
X158819318Y-134700682D01*
X154577300Y-134097300D02*
X155180682Y-134700682D01*
X159347000Y-134173000D02*
X159347000Y-132806000D01*
X158819318Y-134700682D02*
X159347000Y-134173000D01*
X154651200Y-130251200D02*
X153768800Y-130251200D01*
X153768800Y-130251200D02*
X153200000Y-130820000D01*
X153200000Y-130820000D02*
X153200000Y-132320000D01*
X153772800Y-132892800D02*
X154577300Y-132892800D01*
X153200000Y-132320000D02*
X153772800Y-132892800D01*
X153489818Y-103528182D02*
X153908000Y-103110000D01*
X151958872Y-103528182D02*
X153489818Y-103528182D01*
X149630690Y-101200000D02*
X151958872Y-103528182D01*
X148920000Y-101200000D02*
X149630690Y-101200000D01*
X146920000Y-101200000D02*
X146920000Y-102530000D01*
X143285000Y-104320000D02*
X135335000Y-104320000D01*
D35*
X146920000Y-101200000D02*
X146920000Y-102820000D01*
X143285000Y-104320000D02*
X145420000Y-104320000D01*
X146710000Y-103030000D02*
X146590000Y-103150000D01*
X145420000Y-104320000D02*
X146710000Y-103030000D01*
X146920000Y-102820000D02*
X146710000Y-103030000D01*
D33*
X165938516Y-101110000D02*
X166434258Y-101605742D01*
X165908000Y-101110000D02*
X165938516Y-101110000D01*
X174992000Y-116564000D02*
X175052000Y-116504000D01*
X174992000Y-119634000D02*
X174992000Y-116564000D01*
X174880000Y-116332000D02*
X175052000Y-116504000D01*
X173482000Y-116332000D02*
X174880000Y-116332000D01*
X165354000Y-101556000D02*
X165354000Y-106934000D01*
X164908000Y-101110000D02*
X165354000Y-101556000D01*
X140820200Y-129380600D02*
X142309400Y-129380600D01*
X159908000Y-100950000D02*
X160274000Y-100584000D01*
X159908000Y-101110000D02*
X159908000Y-100950000D01*
X140847900Y-126840600D02*
X142319400Y-126840600D01*
X142319400Y-126840600D02*
X142409400Y-126840600D01*
X159054000Y-99110000D02*
X159512000Y-99568000D01*
X158908000Y-99110000D02*
X159054000Y-99110000D01*
X140817900Y-124224400D02*
X142344400Y-124224400D01*
X158474800Y-101543200D02*
X158908000Y-101110000D01*
D34*
X158474800Y-101574800D02*
X158474800Y-101543200D01*
D33*
X140868700Y-121735200D02*
X142475200Y-121735200D01*
X157908000Y-101125600D02*
X157458800Y-101574800D01*
D34*
X157908000Y-101110000D02*
X157908000Y-101125600D01*
D33*
X140921800Y-119246000D02*
X142416000Y-119246000D01*
X156907600Y-101110000D02*
X156442800Y-101574800D01*
D34*
X156908000Y-101110000D02*
X156907600Y-101110000D01*
D33*
X157908000Y-99140000D02*
X157480000Y-99568000D01*
X157908000Y-99110000D02*
X157908000Y-99140000D01*
X142196200Y-116883800D02*
X142256200Y-116883800D01*
X140921800Y-116883800D02*
X142196200Y-116883800D01*
X154908000Y-98131200D02*
X154410800Y-98628400D01*
D34*
X154908000Y-98110000D02*
X154908000Y-98131200D01*
D33*
X140843300Y-114369200D02*
X142100800Y-114369200D01*
X141986000Y-105918000D02*
X143256000Y-105918000D01*
X143256000Y-105918000D02*
X144526000Y-107188000D01*
X144526000Y-107188000D02*
X144526000Y-112776000D01*
X142932800Y-114369200D02*
X142100800Y-114369200D01*
X144526000Y-112776000D02*
X142932800Y-114369200D01*
D34*
X155426800Y-98577600D02*
X155440400Y-98577600D01*
D33*
X155440400Y-98577600D02*
X155908000Y-98110000D01*
X138938000Y-106680000D02*
X140716000Y-104902000D01*
X135128000Y-106680000D02*
X138938000Y-106680000D01*
X133858000Y-107950000D02*
X135128000Y-106680000D01*
X133858000Y-109124730D02*
X133858000Y-107950000D01*
X134715270Y-109982000D02*
X133858000Y-109124730D01*
X140716000Y-104902000D02*
X141986000Y-104902000D01*
X140208000Y-109982000D02*
X134715270Y-109982000D01*
X140760000Y-110534000D02*
X140208000Y-109982000D01*
X140760000Y-111550000D02*
X140760000Y-110534000D01*
D34*
X157908000Y-91110000D02*
X157908000Y-91102000D01*
D33*
X157908000Y-91102000D02*
X157408000Y-90602000D01*
X155908000Y-88110000D02*
X155908000Y-86258000D01*
X155908000Y-86258000D02*
X154350000Y-84700000D01*
X154350000Y-84700000D02*
X150190000Y-84700000D01*
D34*
X157908000Y-90110000D02*
X157908000Y-90102000D01*
D33*
X157908000Y-90102000D02*
X158424000Y-89586000D01*
X160908000Y-90110000D02*
X161096000Y-90110000D01*
X162255200Y-84444800D02*
X162255200Y-83464400D01*
X161410000Y-85290000D02*
X162255200Y-84444800D01*
X161410000Y-89608000D02*
X161410000Y-85290000D01*
X160908000Y-90110000D02*
X161410000Y-89608000D01*
X157850000Y-92110000D02*
X157450000Y-91710000D01*
X157908000Y-92110000D02*
X157850000Y-92110000D01*
X156908000Y-86884293D02*
X154243707Y-84220000D01*
X154243707Y-84220000D02*
X153860000Y-84220000D01*
X156908000Y-88110000D02*
X156908000Y-86884293D01*
X157480000Y-66040000D02*
X157480000Y-69876294D01*
X157480000Y-69876294D02*
X159395204Y-71791498D01*
X159395204Y-71791498D02*
X161648912Y-71791498D01*
X161648912Y-71791498D02*
X164613707Y-74756293D01*
X164907247Y-75049833D02*
X164613707Y-74756293D01*
X162908000Y-88110000D02*
X162908000Y-85552000D01*
X162908000Y-85552000D02*
X164907247Y-83552753D01*
X164907247Y-83552753D02*
X164907247Y-75049833D01*
X159908000Y-99934000D02*
X160274000Y-99568000D01*
X159908000Y-100110000D02*
X159908000Y-99934000D01*
X165908000Y-100146094D02*
X166366750Y-100604844D01*
X165908000Y-100110000D02*
X165908000Y-100146094D01*
X164908000Y-96078000D02*
X164420000Y-95590000D01*
X164908000Y-96110000D02*
X164908000Y-96078000D01*
X160908000Y-100110000D02*
X160908000Y-100202000D01*
X160908000Y-100202000D02*
X161290000Y-100584000D01*
D34*
X161908000Y-101110000D02*
X161921600Y-101110000D01*
D33*
X161921600Y-101110000D02*
X162386400Y-101574800D01*
X158908000Y-88110000D02*
X158908000Y-87590587D01*
X156544251Y-85226838D02*
X156544251Y-75050544D01*
X158908000Y-87590587D02*
X156544251Y-85226838D01*
X142240000Y-66040000D02*
X142240000Y-68400000D01*
X156544251Y-75050544D02*
X156544251Y-71435369D01*
X143304251Y-69464251D02*
X142240000Y-68400000D01*
X154573133Y-69464251D02*
X143304251Y-69464251D01*
X156544251Y-71435369D02*
X154573133Y-69464251D01*
D34*
X159440000Y-90642000D02*
X159908000Y-91110000D01*
X159440000Y-90602000D02*
X159440000Y-90642000D01*
D33*
X164908000Y-99122000D02*
X165354000Y-99568000D01*
X164908000Y-99110000D02*
X164908000Y-99122000D01*
X161908000Y-99170000D02*
X162306000Y-99568000D01*
X161908000Y-99110000D02*
X161908000Y-99170000D01*
X162908000Y-99154000D02*
X163322000Y-99568000D01*
X162908000Y-99110000D02*
X162908000Y-99154000D01*
X156625158Y-102110000D02*
X156430100Y-102305058D01*
X156908000Y-102110000D02*
X156625158Y-102110000D01*
X156430100Y-106129700D02*
X156430100Y-106248400D01*
X156430100Y-102305058D02*
X156430100Y-106129700D01*
X156430100Y-108424100D02*
X156961749Y-108955749D01*
X156430100Y-106248400D02*
X156430100Y-108424100D01*
X156961749Y-108955749D02*
X157988000Y-108955749D01*
X159268251Y-109872544D02*
X159268251Y-116829749D01*
X158351456Y-108955749D02*
X159268251Y-109872544D01*
X157988000Y-108955749D02*
X158351456Y-108955749D01*
X159268251Y-116829749D02*
X159258000Y-116840000D01*
X159268251Y-122806043D02*
X159268251Y-116829749D01*
X156608545Y-125465749D02*
X159268251Y-122806043D01*
X152156251Y-125465749D02*
X156608545Y-125465749D01*
X150114000Y-127508000D02*
X152156251Y-125465749D01*
X152400000Y-135230000D02*
X150114000Y-132944000D01*
X150114000Y-132944000D02*
X150114000Y-127508000D01*
X152400000Y-137160000D02*
X152400000Y-135230000D01*
X156908000Y-92110000D02*
X156908000Y-92146700D01*
X161951800Y-94110000D02*
X162424500Y-93637300D01*
X161908000Y-94110000D02*
X161951800Y-94110000D01*
X162908000Y-93153800D02*
X162424500Y-93637300D01*
X162908000Y-93110000D02*
X162908000Y-93153800D01*
X157908000Y-95110000D02*
X157908000Y-95140600D01*
X154410800Y-91612800D02*
X153908000Y-91110000D01*
X154410800Y-91618000D02*
X154410800Y-91612800D01*
X164908000Y-102110000D02*
X164908000Y-102050400D01*
X166908000Y-100110000D02*
X166908000Y-100140100D01*
X164908000Y-97149500D02*
X165383600Y-97625100D01*
X164908000Y-97110000D02*
X164908000Y-97149500D01*
X166437700Y-95639700D02*
X166908000Y-96110000D01*
X166437700Y-95631200D02*
X166437700Y-95639700D01*
X164908000Y-94110000D02*
X164929200Y-94110000D01*
X162373700Y-100575700D02*
X161908000Y-100110000D01*
X162373700Y-100647700D02*
X162373700Y-100575700D01*
X155908000Y-97110000D02*
X155876900Y-97110000D01*
X158411300Y-100606700D02*
X158908000Y-100110000D01*
D34*
X158411300Y-100622300D02*
X158411300Y-100606700D01*
X153908000Y-100110000D02*
X153908000Y-100096400D01*
D33*
X165396300Y-88621700D02*
X164908000Y-89110000D01*
X165396300Y-88582700D02*
X165396300Y-88621700D01*
X155908000Y-89127400D02*
X156379300Y-89598700D01*
D34*
X155908000Y-89110000D02*
X155908000Y-89127400D01*
D33*
X158425400Y-90627400D02*
X158908000Y-91110000D01*
D34*
X158411300Y-90627400D02*
X158425400Y-90627400D01*
D33*
X166958400Y-91110000D02*
X167415600Y-90652800D01*
X166908000Y-91110000D02*
X166958400Y-91110000D01*
X164974400Y-94110000D02*
X165434400Y-93650000D01*
D34*
X164908000Y-94110000D02*
X164974400Y-94110000D01*
D33*
X153445600Y-100572400D02*
X153908000Y-100110000D01*
D34*
X153445600Y-100609600D02*
X153445600Y-100572400D01*
D33*
X155908000Y-102160400D02*
X155477600Y-102590800D01*
D34*
X155908000Y-102110000D02*
X155908000Y-102160400D01*
D33*
X164908000Y-102152000D02*
X164418400Y-102641600D01*
D34*
X164908000Y-102110000D02*
X164908000Y-102152000D01*
X159908000Y-93051200D02*
X159440000Y-92583200D01*
X159908000Y-93110000D02*
X159908000Y-93051200D01*
D33*
X157408000Y-98610000D02*
X157908000Y-98110000D01*
D34*
X157408000Y-98628400D02*
X157408000Y-98610000D01*
X161370400Y-98572400D02*
X160908000Y-98110000D01*
X161370400Y-98577600D02*
X161370400Y-98572400D01*
D33*
X157902800Y-95110000D02*
X157408000Y-94615200D01*
D34*
X157908000Y-95110000D02*
X157902800Y-95110000D01*
D31*
X154625000Y-77663200D02*
X154635000Y-77673200D01*
D33*
X138379200Y-98468800D02*
X138360000Y-98488000D01*
X155860000Y-97230000D02*
X155422000Y-97668000D01*
D35*
X162179000Y-76856500D02*
X162327500Y-76708000D01*
D33*
X160908000Y-89026000D02*
X160528000Y-88646000D01*
X160908000Y-89110000D02*
X160908000Y-89026000D01*
D32*
X180213000Y-83312000D02*
X180213000Y-83972400D01*
D35*
X179832000Y-114071400D02*
X181127400Y-114071400D01*
X163352920Y-128313620D02*
X163400740Y-128361440D01*
X163352920Y-128306000D02*
X163352920Y-128313620D01*
X163345300Y-128306000D02*
X163400740Y-128361440D01*
X167241560Y-128361440D02*
X167297000Y-128306000D01*
D33*
X162388000Y-96590000D02*
X161908000Y-96110000D01*
X162660000Y-96590000D02*
X162388000Y-96590000D01*
D31*
X190425400Y-69391200D02*
X190449200Y-69367400D01*
X188949000Y-69391200D02*
X188950600Y-69392800D01*
X187528200Y-69391200D02*
X188949000Y-69391200D01*
X188949000Y-69391200D02*
X190425400Y-69391200D01*
D33*
X155908000Y-94080400D02*
X155439500Y-93611900D01*
X153908000Y-96110000D02*
X153908000Y-96018000D01*
X153908000Y-96018000D02*
X153440000Y-95550000D01*
D31*
X153000000Y-106720000D02*
X151300000Y-106720000D01*
X151300000Y-106720000D02*
X151000000Y-107020000D01*
X149837500Y-107020000D02*
X149500000Y-106682500D01*
X151000000Y-107020000D02*
X149837500Y-107020000D01*
X149500000Y-106682500D02*
X149500000Y-105720000D01*
X149267500Y-105487500D02*
X149267500Y-104720000D01*
X149500000Y-105720000D02*
X149267500Y-105487500D01*
X149267500Y-104720000D02*
X149267500Y-102920000D01*
X149267500Y-102920000D02*
X150700000Y-102920000D01*
D34*
X159908000Y-102110000D02*
X159908000Y-102173600D01*
D33*
X159908000Y-102173600D02*
X159440000Y-102641600D01*
D31*
X152680000Y-77673200D02*
X152670000Y-77663200D01*
X154635000Y-77673200D02*
X152680000Y-77673200D01*
X150440000Y-77673200D02*
X150450000Y-77663200D01*
X148485000Y-77673200D02*
X150440000Y-77673200D01*
X148485000Y-77673200D02*
X148485000Y-76857000D01*
X148485000Y-76857000D02*
X148082000Y-76454000D01*
X148082000Y-76454000D02*
X147066000Y-76454000D01*
X146536500Y-75924500D02*
X147066000Y-76454000D01*
X146536500Y-72644000D02*
X146536500Y-75924500D01*
X162327500Y-80852100D02*
X162255200Y-80924400D01*
X162327500Y-76708000D02*
X162327500Y-80852100D01*
X161137600Y-80924400D02*
X161036000Y-81026000D01*
X162255200Y-80924400D02*
X161137600Y-80924400D01*
X159347000Y-128306000D02*
X163286000Y-128306000D01*
X163286000Y-128306000D02*
X167297000Y-128306000D01*
X124519500Y-88900000D02*
X125222000Y-89602500D01*
X121920000Y-88900000D02*
X124519500Y-88900000D01*
X176992000Y-120844000D02*
X176962000Y-120874000D01*
X176992000Y-119634000D02*
X176992000Y-120844000D01*
X136427500Y-101200000D02*
X137140000Y-101200000D01*
X137517500Y-100822500D02*
X138340000Y-100822500D01*
X137140000Y-101200000D02*
X137517500Y-100822500D01*
X138340000Y-98508000D02*
X138360000Y-98488000D01*
X138340000Y-100822500D02*
X138340000Y-98508000D01*
X135370000Y-101200000D02*
X135350000Y-101180000D01*
X136427500Y-101200000D02*
X135370000Y-101200000D01*
X139170000Y-87022000D02*
X139160000Y-87032000D01*
X139170000Y-84527500D02*
X139170000Y-87022000D01*
X143127500Y-83860000D02*
X143127500Y-84782500D01*
X143127500Y-84782500D02*
X142680000Y-85230000D01*
X142680000Y-85230000D02*
X140620000Y-85230000D01*
X139917500Y-84527500D02*
X139170000Y-84527500D01*
X140620000Y-85230000D02*
X139917500Y-84527500D01*
X144250000Y-83860000D02*
X144270000Y-83880000D01*
X143127500Y-83860000D02*
X144250000Y-83860000D01*
X184232000Y-133522000D02*
X185818000Y-133522000D01*
X182880000Y-134874000D02*
X184232000Y-133522000D01*
X182880000Y-135890000D02*
X182880000Y-134874000D01*
X182880000Y-136144000D02*
X182880000Y-135890000D01*
X183159400Y-70764400D02*
X187045600Y-70764400D01*
X187528200Y-70281800D02*
X187528200Y-69391200D01*
X187045600Y-70764400D02*
X187528200Y-70281800D01*
D33*
X151908000Y-113522000D02*
X151892000Y-113538000D01*
X151908000Y-112268000D02*
X151908000Y-113522000D01*
D31*
X164965000Y-110617000D02*
X164965000Y-109355000D01*
X165921500Y-108398500D02*
X166624000Y-108398500D01*
X164965000Y-109355000D02*
X165921500Y-108398500D01*
X167445500Y-108398500D02*
X166624000Y-108398500D01*
X168946000Y-107822500D02*
X168021500Y-107822500D01*
X168021500Y-107822500D02*
X167445500Y-108398500D01*
D33*
X170307500Y-107822500D02*
X170688000Y-107442000D01*
X168946000Y-107822500D02*
X170307500Y-107822500D01*
D31*
X177313500Y-81026000D02*
X177313500Y-82020500D01*
X176843500Y-82490500D02*
X176843500Y-83312000D01*
X177313500Y-82020500D02*
X176843500Y-82490500D01*
X178714400Y-83972400D02*
X180213000Y-83972400D01*
X179218302Y-76309178D02*
X178816000Y-76711480D01*
X181207698Y-76309178D02*
X179218302Y-76309178D01*
X178816000Y-76711480D02*
X178812520Y-76711480D01*
X178293378Y-83551378D02*
X178308000Y-83566000D01*
X178812520Y-76711480D02*
X178293378Y-77230622D01*
X178308000Y-83566000D02*
X178714400Y-83972400D01*
X178054000Y-83312000D02*
X178308000Y-83566000D01*
X177800000Y-83312000D02*
X178024756Y-83312000D01*
X178293378Y-83043378D02*
X178293378Y-83551378D01*
X178293378Y-77230622D02*
X178293378Y-83043378D01*
X178024756Y-83312000D02*
X178293378Y-83043378D01*
X176843500Y-83312000D02*
X177800000Y-83312000D01*
X177800000Y-83312000D02*
X178054000Y-83312000D01*
X177313500Y-80031500D02*
X177038000Y-79756000D01*
X177313500Y-81026000D02*
X177313500Y-80031500D01*
X184937400Y-83312000D02*
X184404000Y-82778600D01*
X186055000Y-83312000D02*
X184937400Y-83312000D01*
X184402260Y-81786260D02*
X184402260Y-79503740D01*
X184404000Y-81788000D02*
X184402260Y-81786260D01*
X184404000Y-82778600D02*
X184404000Y-81788000D01*
X184402260Y-79503740D02*
X181207698Y-76309178D01*
X179832000Y-114071400D02*
X178028600Y-114071400D01*
X177800000Y-114300000D02*
X176335500Y-114300000D01*
X178028600Y-114071400D02*
X177800000Y-114300000D01*
X176805500Y-113262500D02*
X176805500Y-112014000D01*
X176335500Y-113732500D02*
X176805500Y-113262500D01*
X176335500Y-114300000D02*
X176335500Y-113732500D01*
X176805500Y-112014000D02*
X175768000Y-112014000D01*
X179832000Y-113411000D02*
X179832000Y-114071400D01*
D33*
X161036000Y-82433600D02*
X161036000Y-81026000D01*
X160005200Y-83464400D02*
X161036000Y-82433600D01*
X161908000Y-91029600D02*
X162373700Y-90563900D01*
X161908000Y-91110000D02*
X161908000Y-91029600D01*
D31*
X153000000Y-106720000D02*
X153000000Y-105420000D01*
D34*
X156908000Y-92110000D02*
X156908000Y-92083200D01*
D33*
X156908000Y-92083200D02*
X156442800Y-91618000D01*
X167010401Y-100110000D02*
X167510000Y-100609599D01*
X166908000Y-100110000D02*
X167010401Y-100110000D01*
X162740000Y-103278000D02*
X162908000Y-103110000D01*
X162740000Y-103980000D02*
X162740000Y-103278000D01*
D31*
X176872500Y-100692500D02*
X177580000Y-101400000D01*
X176872500Y-99510000D02*
X176872500Y-100692500D01*
X181870000Y-97392500D02*
X179292500Y-97392500D01*
X178750000Y-96850000D02*
X178750000Y-96330000D01*
X179292500Y-97392500D02*
X178750000Y-96850000D01*
X177090000Y-99292500D02*
X177090000Y-96490000D01*
X176872500Y-99510000D02*
X177090000Y-99292500D01*
X181870000Y-95910000D02*
X181860000Y-95900000D01*
X181870000Y-97392500D02*
X181870000Y-95910000D01*
X167445500Y-109533500D02*
X166624000Y-109533500D01*
X168946000Y-109897500D02*
X167809500Y-109897500D01*
X167809500Y-109897500D02*
X167445500Y-109533500D01*
D32*
X130593500Y-79777500D02*
X130556000Y-79740000D01*
D33*
X159906100Y-96110000D02*
X159414600Y-95618500D01*
X159908000Y-96110000D02*
X159906100Y-96110000D01*
X158908000Y-95111900D02*
X159414600Y-95618500D01*
X158908000Y-95110000D02*
X158908000Y-95111900D01*
X160405200Y-94607200D02*
X160908000Y-95110000D01*
X160405200Y-94589800D02*
X160405200Y-94607200D01*
X159925400Y-94110000D02*
X160405200Y-94589800D01*
X159908000Y-94110000D02*
X159925400Y-94110000D01*
X158908000Y-97110000D02*
X158937600Y-97110000D01*
X161867500Y-102110000D02*
X161408500Y-101651000D01*
X161908000Y-102110000D02*
X161867500Y-102110000D01*
X153908000Y-98110000D02*
X153908000Y-98102500D01*
X153908000Y-94110000D02*
X153908000Y-94150500D01*
X162908000Y-89115200D02*
X162373700Y-89649500D01*
X162908000Y-89110000D02*
X162908000Y-89115200D01*
X166908000Y-94110000D02*
X166908000Y-94094900D01*
X165369500Y-100571500D02*
X164908000Y-100110000D01*
X165434400Y-100571500D02*
X165369500Y-100571500D01*
D34*
X167908000Y-103110000D02*
X167908000Y-103210200D01*
D33*
X167926400Y-88110000D02*
X168495100Y-87541300D01*
X167908000Y-88110000D02*
X167926400Y-88110000D01*
D34*
X152908000Y-103110000D02*
X152862900Y-103110000D01*
D33*
X158424000Y-88626000D02*
X158908000Y-89110000D01*
D34*
X158424000Y-88620800D02*
X158424000Y-88626000D01*
X166948000Y-98110000D02*
X167415600Y-98577600D01*
X166908000Y-98110000D02*
X166948000Y-98110000D01*
X153905600Y-94110000D02*
X153445600Y-93650000D01*
X153908000Y-94110000D02*
X153905600Y-94110000D01*
D33*
X153908000Y-98115200D02*
X153445600Y-98577600D01*
D34*
X153908000Y-98110000D02*
X153908000Y-98115200D01*
D33*
X157908000Y-102141600D02*
X157458800Y-102590800D01*
D34*
X157908000Y-102110000D02*
X157908000Y-102141600D01*
D33*
X160929200Y-92110000D02*
X161421200Y-91618000D01*
X160908000Y-92110000D02*
X160929200Y-92110000D01*
X156442800Y-96575200D02*
X156908000Y-96110000D01*
D34*
X156442800Y-96596400D02*
X156442800Y-96575200D01*
D33*
X164390100Y-94627900D02*
X163908000Y-95110000D01*
D34*
X164418400Y-94627900D02*
X164390100Y-94627900D01*
D33*
X158474800Y-97543200D02*
X158908000Y-97110000D01*
D34*
X158474800Y-97612400D02*
X158474800Y-97543200D01*
D31*
X138815000Y-74938200D02*
X138840000Y-74913200D01*
D33*
X138379200Y-87051200D02*
X138360000Y-87032000D01*
D31*
X160020000Y-80909600D02*
X160005200Y-80924400D01*
X160908000Y-97110000D02*
X160908000Y-97122000D01*
D33*
X160908000Y-97122000D02*
X160500000Y-97530000D01*
X166908000Y-94110000D02*
X166908000Y-94088000D01*
X165396300Y-90627400D02*
X165390600Y-90627400D01*
X165390600Y-90627400D02*
X164908000Y-91110000D01*
X155908000Y-91110000D02*
X155908000Y-91070500D01*
X155908000Y-91070500D02*
X155401400Y-90563900D01*
X155908000Y-90110000D02*
X155855300Y-90110000D01*
X155855300Y-90110000D02*
X155401400Y-90563900D01*
D35*
X160005200Y-79008800D02*
X160020000Y-78994000D01*
X160005200Y-80924400D02*
X160005200Y-79008800D01*
X160020000Y-76940500D02*
X160252500Y-76708000D01*
X160020000Y-78994000D02*
X160020000Y-76940500D01*
D33*
X186055000Y-76809600D02*
X187350400Y-76809600D01*
X187350400Y-76809600D02*
X187680600Y-76809600D01*
X185674000Y-106908600D02*
X185674000Y-107569000D01*
X185674000Y-106908600D02*
X187045600Y-106908600D01*
X187045600Y-106908600D02*
X187071000Y-106934000D01*
X166908000Y-94088000D02*
X166390000Y-93570000D01*
X179832000Y-106908600D02*
X179832000Y-106349800D01*
D35*
X180213000Y-82677000D02*
X178816000Y-82677000D01*
D32*
X156577300Y-132892800D02*
X156577300Y-134199900D01*
D35*
X156588460Y-134211060D02*
X156588460Y-134302500D01*
X156577300Y-134199900D02*
X156588460Y-134211060D01*
X153169620Y-127914400D02*
X153164540Y-127909320D01*
D32*
X154590600Y-127914400D02*
X153169620Y-127914400D01*
X133885000Y-111688000D02*
X133885000Y-112903940D01*
X133895000Y-116788000D02*
X133895000Y-118098400D01*
X133895000Y-124348000D02*
X133905000Y-124358000D01*
X133895000Y-121828000D02*
X133895000Y-123262220D01*
X133895000Y-123262220D02*
X133895000Y-124348000D01*
X133895000Y-118098400D02*
X133895000Y-119268000D01*
X133885000Y-112903940D02*
X133885000Y-114218000D01*
X133905000Y-129438000D02*
X133925000Y-129458000D01*
X133905000Y-128250960D02*
X133903720Y-128249680D01*
X133905000Y-126958000D02*
X133905000Y-128250960D01*
X133905000Y-128250960D02*
X133905000Y-129438000D01*
D33*
X152478000Y-87680000D02*
X152908000Y-88110000D01*
X152280000Y-87680000D02*
X152478000Y-87680000D01*
D31*
X190425400Y-67316200D02*
X190449200Y-67292400D01*
X188995200Y-67316200D02*
X189001400Y-67310000D01*
X187528200Y-67316200D02*
X188995200Y-67316200D01*
X188995200Y-67316200D02*
X190425400Y-67316200D01*
X178202000Y-132222000D02*
X178170000Y-132190000D01*
X179942000Y-132222000D02*
X178202000Y-132222000D01*
X153000000Y-109845000D02*
X153000000Y-109020000D01*
X152737500Y-108757500D02*
X149500000Y-108757500D01*
X153000000Y-109020000D02*
X152737500Y-108757500D01*
X148132500Y-104720000D02*
X148132500Y-102920000D01*
X149500000Y-108757500D02*
X147737500Y-108757500D01*
X147737500Y-108757500D02*
X147000000Y-108020000D01*
X147000000Y-108020000D02*
X147000000Y-104920000D01*
X147200000Y-104720000D02*
X148132500Y-104720000D01*
X147000000Y-104920000D02*
X147200000Y-104720000D01*
X147044500Y-83587500D02*
X147066000Y-83566000D01*
X145542000Y-83587500D02*
X147044500Y-83587500D01*
X148485000Y-72770500D02*
X148611500Y-72644000D01*
X148485000Y-75373200D02*
X148485000Y-74019000D01*
X148485000Y-74019000D02*
X148485000Y-72770500D01*
X138815000Y-72753500D02*
X138705500Y-72644000D01*
X138815000Y-75170000D02*
X138815000Y-74037000D01*
X131064000Y-79740000D02*
X131064000Y-81280000D01*
X131064000Y-72368500D02*
X131064000Y-71120000D01*
X138815000Y-74037000D02*
X138815000Y-72753500D01*
X125222000Y-90737500D02*
X125222000Y-91694000D01*
X125222000Y-91694000D02*
X124714000Y-92202000D01*
X122682000Y-92202000D02*
X121920000Y-91440000D01*
X124714000Y-92202000D02*
X122682000Y-92202000D01*
D33*
X178247000Y-119109000D02*
X178222000Y-119134000D01*
X179312000Y-119109000D02*
X178247000Y-119109000D01*
X152170000Y-103110000D02*
X152150000Y-103130000D01*
X152908000Y-103110000D02*
X152170000Y-103110000D01*
D31*
X135335000Y-108820000D02*
X139330000Y-108820000D01*
X139330000Y-108820000D02*
X143285000Y-108820000D01*
X139160000Y-101137500D02*
X139160000Y-98488000D01*
X138340000Y-101957500D02*
X139160000Y-101137500D01*
X135860000Y-78470000D02*
X135880000Y-78450000D01*
X135860000Y-79522500D02*
X135860000Y-78470000D01*
X138360000Y-84202500D02*
X138360000Y-87032000D01*
X139170000Y-83392500D02*
X138360000Y-84202500D01*
X141052500Y-83860000D02*
X141052500Y-83272500D01*
X141052500Y-83272500D02*
X140480000Y-82700000D01*
X139862500Y-82700000D02*
X139170000Y-83392500D01*
X140120000Y-82700000D02*
X140130000Y-82710000D01*
X140480000Y-82700000D02*
X140120000Y-82700000D01*
X140120000Y-82700000D02*
X139862500Y-82700000D01*
X134352500Y-101200000D02*
X134352500Y-102032500D01*
X134352500Y-102032500D02*
X135130000Y-102810000D01*
X135130000Y-102810000D02*
X136570000Y-102810000D01*
X138340000Y-102510000D02*
X138340000Y-101957500D01*
X138040000Y-102810000D02*
X138340000Y-102510000D01*
X136570000Y-102810000D02*
X138040000Y-102810000D01*
X184404000Y-70104000D02*
X184912000Y-69596000D01*
X183159400Y-70104000D02*
X184404000Y-70104000D01*
X168946000Y-111470000D02*
X168656000Y-111760000D01*
X168946000Y-109897500D02*
X168946000Y-111470000D01*
X156609228Y-114427000D02*
X155956000Y-115080228D01*
X157615000Y-114427000D02*
X156609228Y-114427000D01*
D33*
X154958000Y-101110000D02*
X155362788Y-101514788D01*
X154908000Y-101110000D02*
X154958000Y-101110000D01*
X159908000Y-99020000D02*
X159440000Y-98552000D01*
X159908000Y-99110000D02*
X159908000Y-99020000D01*
D31*
X175708500Y-83312000D02*
X175708500Y-82609500D01*
X175260000Y-81047500D02*
X175238500Y-81026000D01*
X175260000Y-82161000D02*
X175260000Y-81047500D01*
D33*
X178816000Y-77337879D02*
X178816000Y-78232000D01*
X179344279Y-76809600D02*
X178816000Y-77337879D01*
X180213000Y-76809600D02*
X179344279Y-76809600D01*
D31*
X175708500Y-82609500D02*
X175260000Y-82161000D01*
X186055000Y-76809600D02*
X186055000Y-77470000D01*
X183620500Y-117856000D02*
X183620500Y-116607500D01*
X184090500Y-116137500D02*
X184090500Y-115316000D01*
X183620500Y-116607500D02*
X183754000Y-116474000D01*
X184023000Y-116205000D02*
X184090500Y-116137500D01*
X175200500Y-113478500D02*
X175200500Y-114300000D01*
X174730500Y-112014000D02*
X174730500Y-113008500D01*
X174730500Y-113008500D02*
X175006000Y-113284000D01*
X175006000Y-113284000D02*
X175200500Y-113478500D01*
X184813880Y-113411000D02*
X185674000Y-113411000D01*
X184178880Y-112776000D02*
X184813880Y-113411000D01*
X179832000Y-112776000D02*
X182626000Y-112776000D01*
X182626000Y-112776000D02*
X184178880Y-112776000D01*
X153000000Y-108470000D02*
X153480000Y-107990000D01*
X153000000Y-109845000D02*
X153000000Y-108470000D01*
D33*
X167908000Y-103248000D02*
X168280000Y-103620000D01*
X167908000Y-103110000D02*
X167908000Y-103248000D01*
D31*
X125760000Y-77500000D02*
X125984000Y-77724000D01*
X123758000Y-77500000D02*
X125760000Y-77500000D01*
X183754000Y-116474000D02*
X184023000Y-116205000D01*
D33*
X162908000Y-100110000D02*
X162960000Y-100110000D01*
X163070000Y-100110000D02*
X163540000Y-100580000D01*
X162908000Y-100110000D02*
X163070000Y-100110000D01*
D31*
X181827500Y-99510000D02*
X181870000Y-99467500D01*
X180450000Y-99510000D02*
X180430000Y-99490000D01*
X178947500Y-99510000D02*
X180450000Y-99510000D01*
X180450000Y-99510000D02*
X181827500Y-99510000D01*
D33*
X177590000Y-96490000D02*
X178090000Y-96490000D01*
X176430000Y-95330000D02*
X176430000Y-95830000D01*
X177590000Y-97250000D02*
X177980000Y-97640000D01*
X177590000Y-96490000D02*
X177590000Y-97250000D01*
X175470000Y-95330000D02*
X175140000Y-95000000D01*
X176430000Y-95330000D02*
X175470000Y-95330000D01*
X145560000Y-87811600D02*
X145560000Y-87032000D01*
X146858400Y-89110000D02*
X145560000Y-87811600D01*
X152908000Y-89110000D02*
X146858400Y-89110000D01*
X157954000Y-100110000D02*
X158496000Y-99568000D01*
X157908000Y-100110000D02*
X157954000Y-100110000D01*
X156434000Y-100584000D02*
X157480000Y-100584000D01*
X155908000Y-101110000D02*
X156434000Y-100584000D01*
D35*
X129540000Y-124460000D02*
X128803400Y-124460000D01*
X128938020Y-121920000D02*
X129540000Y-121920000D01*
X128866900Y-116840000D02*
X129540000Y-116840000D01*
D33*
X159908000Y-89888000D02*
X159490000Y-89470000D01*
X159908000Y-90110000D02*
X159908000Y-89888000D01*
X175020000Y-136384000D02*
X175006000Y-136398000D01*
X175020000Y-134790000D02*
X175020000Y-136384000D01*
X175000000Y-131960000D02*
X174872000Y-131960000D01*
X174364000Y-131960000D02*
X173736000Y-132588000D01*
X175000000Y-131960000D02*
X174364000Y-131960000D01*
X185818000Y-131572000D02*
X187198000Y-131572000D01*
X164965000Y-111887000D02*
X167692842Y-111887000D01*
X171434000Y-115062000D02*
X171434000Y-114030000D01*
X170725079Y-113321079D02*
X169126921Y-113321079D01*
X171434000Y-114030000D02*
X170725079Y-113321079D01*
X167692842Y-111887000D02*
X169126921Y-113321079D01*
X164965000Y-114427000D02*
X165989000Y-114427000D01*
X166608000Y-115046000D02*
X166608000Y-116840000D01*
X165989000Y-114427000D02*
X166608000Y-115046000D01*
X155464000Y-114400879D02*
X155464000Y-116840000D01*
X156707879Y-113157000D02*
X155464000Y-114400879D01*
X157615000Y-113157000D02*
X156707879Y-113157000D01*
X157615000Y-111887000D02*
X156337000Y-111887000D01*
X156337000Y-111887000D02*
X154686000Y-113538000D01*
X154686000Y-113538000D02*
X153670000Y-113538000D01*
X153400000Y-113808000D02*
X153400000Y-115062000D01*
X153670000Y-113538000D02*
X153400000Y-113808000D01*
X176752000Y-72898000D02*
X178308000Y-72898000D01*
X178739800Y-72466200D02*
X178739800Y-71399400D01*
X178308000Y-72898000D02*
X178739800Y-72466200D01*
X154908000Y-102292000D02*
X154630000Y-102570000D01*
X154461600Y-99556400D02*
X154908000Y-99110000D01*
D34*
X154461600Y-99593600D02*
X154461600Y-99556400D01*
D33*
X165908000Y-89110000D02*
X166412300Y-88605700D01*
X166412300Y-88605700D02*
X166412300Y-85007700D01*
X166412300Y-84897700D02*
X167121749Y-84188251D01*
X166412300Y-85007700D02*
X166412300Y-84897700D01*
X165100000Y-72726502D02*
X167121749Y-74748251D01*
X165100000Y-66040000D02*
X165100000Y-72726502D01*
X167121749Y-84188251D02*
X167121749Y-74748251D01*
X165908000Y-85010000D02*
X165908000Y-88110000D01*
X165910000Y-85010000D02*
X165908000Y-85010000D01*
X166840000Y-84080000D02*
X165910000Y-85010000D01*
X166840000Y-80906690D02*
X166840000Y-84080000D01*
X166857498Y-75012502D02*
X166857498Y-80889192D01*
X163830000Y-64290000D02*
X163830000Y-71985004D01*
X163040000Y-63500000D02*
X163830000Y-64290000D01*
X166857498Y-80889192D02*
X166840000Y-80906690D01*
X163830000Y-71985004D02*
X166857498Y-75012502D01*
X162560000Y-63500000D02*
X163040000Y-63500000D01*
X166370000Y-89572000D02*
X166908000Y-90110000D01*
X167099129Y-88508183D02*
X166883523Y-88508183D01*
X167386000Y-88221312D02*
X167099129Y-88508183D01*
X167386000Y-74484000D02*
X167386000Y-88221312D01*
X166320000Y-73418000D02*
X167386000Y-74484000D01*
X166883523Y-88508183D02*
X166370000Y-89021706D01*
X166320000Y-63940000D02*
X166320000Y-73418000D01*
X165880000Y-63500000D02*
X166320000Y-63940000D01*
X166370000Y-89021706D02*
X166370000Y-89572000D01*
X165100000Y-63500000D02*
X165880000Y-63500000D01*
X164908000Y-90110000D02*
X164910400Y-90110000D01*
X164908000Y-90108000D02*
X164430000Y-89630000D01*
X164908000Y-90110000D02*
X164908000Y-90108000D01*
X160908000Y-102110000D02*
X161509817Y-102711817D01*
X161509817Y-107222183D02*
X161036000Y-107696000D01*
X161509817Y-102711817D02*
X161509817Y-107222183D01*
X160908000Y-99186000D02*
X161290000Y-99568000D01*
X160908000Y-99110000D02*
X160908000Y-99186000D01*
X161908000Y-97988000D02*
X161380000Y-97460000D01*
X161908000Y-98110000D02*
X161908000Y-97988000D01*
X163000000Y-101110000D02*
X163490000Y-101600000D01*
X162908000Y-101110000D02*
X163000000Y-101110000D01*
D34*
X163908000Y-101110000D02*
X163953600Y-101110000D01*
D33*
X163953600Y-101110000D02*
X164418400Y-101574800D01*
D34*
X163908000Y-100110000D02*
X163908000Y-100200800D01*
D33*
X163908000Y-99968757D02*
X164308757Y-99568000D01*
X163908000Y-100110000D02*
X163908000Y-99968757D01*
X157074000Y-103276000D02*
X156908000Y-103110000D01*
X157908200Y-104110200D02*
X157074000Y-103276000D01*
X157908200Y-108138785D02*
X157908200Y-104110200D01*
X159532502Y-109763088D02*
X157908200Y-108138785D01*
X159532502Y-116840000D02*
X159532502Y-109763088D01*
X159532502Y-116840000D02*
X159532502Y-122915498D01*
X159532502Y-122915498D02*
X156718000Y-125730000D01*
X156718000Y-125730000D02*
X154754550Y-125730000D01*
X154754550Y-125730000D02*
X152908000Y-125730000D01*
X152908000Y-125730000D02*
X151130000Y-127508000D01*
X152400000Y-139700000D02*
X153890000Y-138210000D01*
X153890000Y-135600000D02*
X151130000Y-132840000D01*
X153890000Y-138210000D02*
X153890000Y-135600000D01*
X151130000Y-127508000D02*
X151130000Y-132840000D01*
X156900000Y-91110000D02*
X156392000Y-90602000D01*
D34*
X156908000Y-91110000D02*
X156900000Y-91110000D01*
D33*
X163908000Y-88110000D02*
X163908000Y-87795749D01*
X163908000Y-85772000D02*
X163908000Y-85515896D01*
X163908000Y-88110000D02*
X163908000Y-85772000D01*
X165435749Y-83988147D02*
X165435749Y-80474251D01*
X163908000Y-85515896D02*
X165435749Y-83988147D01*
X165435749Y-74830922D02*
X161674827Y-71070000D01*
X165435749Y-80474251D02*
X165435749Y-74830922D01*
X161674827Y-71070000D02*
X160800000Y-71070000D01*
X160020000Y-70290000D02*
X160020000Y-66040000D01*
X160800000Y-71070000D02*
X160020000Y-70290000D01*
X157908000Y-89110000D02*
X157600000Y-89110000D01*
X157306183Y-86736183D02*
X154240000Y-83670000D01*
X157306183Y-88816183D02*
X157306183Y-86736183D01*
X157600000Y-89110000D02*
X157306183Y-88816183D01*
D34*
X157408000Y-89586000D02*
X157408000Y-89610000D01*
D33*
X157408000Y-89610000D02*
X156908000Y-90110000D01*
X152400000Y-67720000D02*
X152400000Y-66040000D01*
X153000000Y-68320000D02*
X152400000Y-67720000D01*
X157072753Y-71216459D02*
X154176294Y-68320000D01*
X157072753Y-84991911D02*
X157072753Y-71216459D01*
X154176294Y-68320000D02*
X153000000Y-68320000D01*
X159908000Y-87827158D02*
X157072753Y-84991911D01*
X159908000Y-88110000D02*
X159908000Y-87827158D01*
X157337004Y-84882456D02*
X157337004Y-74722176D01*
X160564548Y-88110000D02*
X157337004Y-84882456D01*
X160908000Y-88110000D02*
X160564548Y-88110000D01*
X152400000Y-63500000D02*
X153330000Y-63500000D01*
X153330000Y-63500000D02*
X153670000Y-63840000D01*
X157337004Y-74722176D02*
X157337004Y-71107004D01*
X153670000Y-67440000D02*
X153670000Y-67200000D01*
X157337004Y-71107004D02*
X153670000Y-67440000D01*
X153670000Y-63840000D02*
X153670000Y-67200000D01*
D34*
X160456000Y-90658000D02*
X160908000Y-91110000D01*
D33*
X160456000Y-90602000D02*
X160456000Y-90658000D01*
X157908000Y-88110000D02*
X157570434Y-87772434D01*
X157570434Y-86626727D02*
X156280000Y-85336293D01*
X157570434Y-87772434D02*
X157570434Y-86626727D01*
X156280000Y-85336293D02*
X156280000Y-76436470D01*
X156280000Y-76436470D02*
X156280000Y-75160000D01*
X139700000Y-63500000D02*
X140960000Y-64760000D01*
X156280000Y-71550000D02*
X154458502Y-69728502D01*
X156280000Y-75160000D02*
X156280000Y-71550000D01*
X140960000Y-67493707D02*
X140960000Y-67230000D01*
X143194795Y-69728502D02*
X140960000Y-67493707D01*
X154458502Y-69728502D02*
X143194795Y-69728502D01*
X140960000Y-64760000D02*
X140960000Y-67230000D01*
X159306183Y-87615064D02*
X156808502Y-85117383D01*
X159306183Y-88508183D02*
X159306183Y-87615064D01*
X159908000Y-89110000D02*
X159306183Y-88508183D01*
X156808502Y-85117383D02*
X156808502Y-74941088D01*
X142240000Y-63500000D02*
X143270000Y-63500000D01*
X143270000Y-63500000D02*
X143540000Y-63770000D01*
X143540000Y-63770000D02*
X143540000Y-68170000D01*
X143540000Y-68170000D02*
X144570000Y-69200000D01*
X156808502Y-74941088D02*
X156808502Y-71325914D01*
X154682588Y-69200000D02*
X152180000Y-69200000D01*
X156808502Y-71325914D02*
X154682588Y-69200000D01*
X144570000Y-69200000D02*
X152180000Y-69200000D01*
X164642996Y-83443298D02*
X162306183Y-85780110D01*
X164642996Y-75159289D02*
X164642996Y-83443298D01*
X162306183Y-85780110D02*
X162306183Y-88711817D01*
X161539456Y-72055749D02*
X164642996Y-75159289D01*
X159285749Y-72055749D02*
X161539456Y-72055749D01*
X155988183Y-68758183D02*
X159285749Y-72055749D01*
X155988183Y-64548183D02*
X155988183Y-68758183D01*
X162306183Y-88711817D02*
X161908000Y-89110000D01*
X154940000Y-63500000D02*
X155988183Y-64548183D01*
X161708001Y-87910001D02*
X161908000Y-88110000D01*
X161708001Y-86004587D02*
X161708001Y-87910001D01*
X163910000Y-74800000D02*
X163910000Y-83802587D01*
X161430000Y-72320000D02*
X163910000Y-74800000D01*
X159050000Y-72320000D02*
X161430000Y-72320000D01*
X163910000Y-83802587D02*
X161708001Y-86004587D01*
X154940000Y-68210000D02*
X159050000Y-72320000D01*
X154940000Y-66040000D02*
X154940000Y-68210000D01*
X157480000Y-63500000D02*
X158800000Y-64820000D01*
X158800000Y-64820000D02*
X158800000Y-70570000D01*
X159757247Y-71527247D02*
X158800000Y-70570000D01*
X161758368Y-71527247D02*
X159757247Y-71527247D01*
X162908000Y-90110000D02*
X163322000Y-89696000D01*
X163322000Y-89696000D02*
X163322000Y-89408000D01*
X163322000Y-89408000D02*
X163509817Y-89220183D01*
X163509817Y-89220183D02*
X163509817Y-85540373D01*
X163509817Y-85540373D02*
X165171498Y-83878692D01*
X165171498Y-74940378D02*
X165050560Y-74819440D01*
X165171498Y-80441498D02*
X165171498Y-74940378D01*
X165050560Y-74819440D02*
X161758368Y-71527247D01*
X165171498Y-83878692D02*
X165171498Y-80441498D01*
X165171498Y-80441498D02*
X165171498Y-80349645D01*
X160020000Y-63500000D02*
X160880000Y-63500000D01*
X160880000Y-63500000D02*
X161310000Y-63930000D01*
X161310000Y-63930000D02*
X161310000Y-68080000D01*
X161310000Y-70330000D02*
X161310000Y-68080000D01*
X165700000Y-74720000D02*
X161310000Y-70330000D01*
X165700000Y-84140000D02*
X165700000Y-74720000D01*
X164509817Y-88508183D02*
X164509817Y-85330183D01*
X164509817Y-85330183D02*
X165700000Y-84140000D01*
X163908000Y-89110000D02*
X164509817Y-88508183D01*
X164908000Y-88110000D02*
X165107999Y-87910001D01*
X164908000Y-88110000D02*
X165100000Y-87918000D01*
X164908000Y-88110000D02*
X165354000Y-87664000D01*
X165354000Y-84956000D02*
X166575749Y-83734251D01*
X165354000Y-87664000D02*
X165354000Y-84956000D01*
X166575749Y-75222043D02*
X166575749Y-77294251D01*
X162560000Y-71206294D02*
X166575749Y-75222043D01*
X162560000Y-66040000D02*
X162560000Y-71206294D01*
X166575749Y-83734251D02*
X166575749Y-77294251D01*
X162810000Y-91110000D02*
X162460000Y-91460000D01*
X162908000Y-91110000D02*
X162810000Y-91110000D01*
X143960000Y-98488000D02*
X143960000Y-96850000D01*
X143960000Y-96850000D02*
X144850000Y-95960000D01*
X144850000Y-95960000D02*
X148606658Y-95960000D01*
X148606658Y-95960000D02*
X151130000Y-98483342D01*
X153509817Y-101508183D02*
X153579000Y-101439000D01*
X152716871Y-101508183D02*
X153509817Y-101508183D01*
X151892021Y-100683333D02*
X152716871Y-101508183D01*
X151892021Y-99841342D02*
X151892021Y-100683333D01*
X151130000Y-99079322D02*
X151892021Y-99841342D01*
X151130000Y-98483342D02*
X151130000Y-99079322D01*
X153908000Y-101110000D02*
X153579000Y-101439000D01*
X153908000Y-95110000D02*
X153438600Y-94640600D01*
X153438600Y-94640600D02*
X152849319Y-94640600D01*
X151171089Y-93438503D02*
X150671841Y-92939255D01*
X151647221Y-93438503D02*
X151171089Y-93438503D01*
X151924359Y-93715641D02*
X151647221Y-93438503D01*
X152849319Y-94640600D02*
X151924359Y-93715641D01*
X150671841Y-92939255D02*
X144011997Y-92939255D01*
X140919928Y-89847186D02*
X136217186Y-89847186D01*
X144011997Y-92939255D02*
X140919928Y-89847186D01*
X134360000Y-87990000D02*
X134360000Y-87032000D01*
X136217186Y-89847186D02*
X134360000Y-87990000D01*
X152908000Y-95110000D02*
X151550653Y-93752653D01*
X151964899Y-94164899D02*
X151502754Y-93702754D01*
X151964899Y-94166899D02*
X151964899Y-94164899D01*
X152908000Y-95110000D02*
X151964899Y-94166899D01*
X151061633Y-93702754D02*
X150562386Y-93203506D01*
X151502754Y-93702754D02*
X151061633Y-93702754D01*
X143902541Y-93203506D02*
X143747746Y-93048710D01*
X150562386Y-93203506D02*
X143902541Y-93203506D01*
X140810473Y-90111437D02*
X135541437Y-90111437D01*
X143747746Y-93048710D02*
X140810473Y-90111437D01*
X133560000Y-88130000D02*
X133560000Y-87032000D01*
X135541437Y-90111437D02*
X133560000Y-88130000D01*
X176430000Y-94830000D02*
X176430000Y-94520000D01*
X176020000Y-94110000D02*
X167908000Y-94110000D01*
X176430000Y-94520000D02*
X176020000Y-94110000D01*
X167160400Y-94589600D02*
X166880400Y-94589600D01*
X165908000Y-94110000D02*
X166318688Y-94110000D01*
X166318688Y-94110000D02*
X166798288Y-94589600D01*
X166798288Y-94589600D02*
X167160400Y-94589600D01*
X174182349Y-95002349D02*
X175510000Y-96330000D01*
X168456897Y-95002349D02*
X174182349Y-95002349D01*
X168044148Y-94589600D02*
X168456897Y-95002349D01*
X167160400Y-94589600D02*
X168044148Y-94589600D01*
X176430000Y-96330000D02*
X175510000Y-96330000D01*
X178540000Y-91500000D02*
X169298000Y-91500000D01*
X180390000Y-95290000D02*
X180390000Y-93350000D01*
X169298000Y-91500000D02*
X167908000Y-90110000D01*
X180390000Y-93350000D02*
X178540000Y-91500000D01*
X179850000Y-95830000D02*
X180390000Y-95290000D01*
X178750000Y-95830000D02*
X179850000Y-95830000D01*
X177090000Y-94670000D02*
X177090000Y-93970000D01*
X176628183Y-93508183D02*
X177090000Y-93970000D01*
X167306183Y-93508183D02*
X176628183Y-93508183D01*
X166908000Y-93110000D02*
X167306183Y-93508183D01*
X167918139Y-92120139D02*
X167908000Y-92110000D01*
X177590000Y-94670000D02*
X177590000Y-93170139D01*
X176540000Y-92120139D02*
X173709861Y-92120139D01*
X177590000Y-93170139D02*
X176540000Y-92120139D01*
X173709861Y-92120139D02*
X167918139Y-92120139D01*
X167908000Y-91110000D02*
X167918179Y-91120179D01*
X168653888Y-91855888D02*
X167908000Y-91110000D01*
X174536789Y-91855888D02*
X168653888Y-91855888D01*
X174536789Y-91855888D02*
X176735888Y-91855888D01*
X178090000Y-93210000D02*
X178090000Y-93960000D01*
X176735888Y-91855888D02*
X178090000Y-93210000D01*
X178090000Y-94670000D02*
X178090000Y-93960000D01*
D36*
X153115498Y-75834020D02*
X153079188Y-75953718D01*
X153066928Y-76078200D01*
X153070000Y-77387450D01*
X153228750Y-77546200D01*
X153273000Y-77546200D01*
X153273000Y-77800200D01*
X153228750Y-77800200D01*
X153070000Y-77958950D01*
X153066928Y-79268200D01*
X153067401Y-79273000D01*
X149827000Y-79273000D01*
X149827000Y-78606543D01*
X149866185Y-78574385D01*
X149945537Y-78477694D01*
X150004502Y-78367380D01*
X150040812Y-78247682D01*
X150053072Y-78123200D01*
X150050000Y-77958950D01*
X149891250Y-77800200D01*
X149827000Y-77800200D01*
X149827000Y-77546200D01*
X149891250Y-77546200D01*
X150050000Y-77387450D01*
X150053072Y-77223200D01*
X150040812Y-77098718D01*
X150004502Y-76979020D01*
X149945537Y-76868706D01*
X149866185Y-76772015D01*
X149827000Y-76739857D01*
X149827000Y-75727000D01*
X153172702Y-75727000D01*
X153115498Y-75834020D01*
G04 #@! TA.AperFunction,Conductor*
D37*
G36*
X153115498Y-75834020D02*
G01*
X153079188Y-75953718D01*
X153066928Y-76078200D01*
X153070000Y-77387450D01*
X153228750Y-77546200D01*
X153273000Y-77546200D01*
X153273000Y-77800200D01*
X153228750Y-77800200D01*
X153070000Y-77958950D01*
X153066928Y-79268200D01*
X153067401Y-79273000D01*
X149827000Y-79273000D01*
X149827000Y-78606543D01*
X149866185Y-78574385D01*
X149945537Y-78477694D01*
X150004502Y-78367380D01*
X150040812Y-78247682D01*
X150053072Y-78123200D01*
X150050000Y-77958950D01*
X149891250Y-77800200D01*
X149827000Y-77800200D01*
X149827000Y-77546200D01*
X149891250Y-77546200D01*
X150050000Y-77387450D01*
X150053072Y-77223200D01*
X150040812Y-77098718D01*
X150004502Y-76979020D01*
X149945537Y-76868706D01*
X149866185Y-76772015D01*
X149827000Y-76739857D01*
X149827000Y-75727000D01*
X153172702Y-75727000D01*
X153115498Y-75834020D01*
G37*
G04 #@! TD.AperFunction*
D36*
X143400000Y-77184250D02*
X143558750Y-77343000D01*
X143637000Y-77343000D01*
X143637000Y-77597000D01*
X143558750Y-77597000D01*
X143400000Y-77755750D01*
X143396928Y-79065000D01*
X143409188Y-79189482D01*
X143426939Y-79248000D01*
X140208000Y-79248000D01*
X140208000Y-78356788D01*
X140275537Y-78274494D01*
X140334502Y-78164180D01*
X140370812Y-78044482D01*
X140383072Y-77920000D01*
X140380000Y-77755750D01*
X140221250Y-77597000D01*
X140208000Y-77597000D01*
X140208000Y-77343000D01*
X140221250Y-77343000D01*
X140380000Y-77184250D01*
X140383072Y-77020000D01*
X140370812Y-76895518D01*
X140334502Y-76775820D01*
X140275537Y-76665506D01*
X140208000Y-76583212D01*
X140208000Y-76327000D01*
X143397989Y-76327000D01*
X143400000Y-77184250D01*
G04 #@! TA.AperFunction,Conductor*
D37*
G36*
X143400000Y-77184250D02*
G01*
X143558750Y-77343000D01*
X143637000Y-77343000D01*
X143637000Y-77597000D01*
X143558750Y-77597000D01*
X143400000Y-77755750D01*
X143396928Y-79065000D01*
X143409188Y-79189482D01*
X143426939Y-79248000D01*
X140208000Y-79248000D01*
X140208000Y-78356788D01*
X140275537Y-78274494D01*
X140334502Y-78164180D01*
X140370812Y-78044482D01*
X140383072Y-77920000D01*
X140380000Y-77755750D01*
X140221250Y-77597000D01*
X140208000Y-77597000D01*
X140208000Y-77343000D01*
X140221250Y-77343000D01*
X140380000Y-77184250D01*
X140383072Y-77020000D01*
X140370812Y-76895518D01*
X140334502Y-76775820D01*
X140275537Y-76665506D01*
X140208000Y-76583212D01*
X140208000Y-76327000D01*
X143397989Y-76327000D01*
X143400000Y-77184250D01*
G37*
G04 #@! TD.AperFunction*
M02*
