G04 #@! TF.GenerationSoftware,KiCad,Pcbnew,5.1.10-88a1d61d58~88~ubuntu20.04.1*
G04 #@! TF.CreationDate,2021-04-28T19:55:47-05:00*
G04 #@! TF.ProjectId,obi1,6f626931-2e6b-4696-9361-645f70636258,rev?*
G04 #@! TF.SameCoordinates,Original*
G04 #@! TF.FileFunction,Legend,Bot*
G04 #@! TF.FilePolarity,Positive*
%FSLAX46Y46*%
G04 Gerber Fmt 4.6, Leading zero omitted, Abs format (unit mm)*
G04 Created by KiCad (PCBNEW 5.1.10-88a1d61d58~88~ubuntu20.04.1) date 2021-04-28 19:55:47*
%MOMM*%
%LPD*%
G01*
G04 APERTURE LIST*
%ADD10C,0.120000*%
%ADD11C,0.300000*%
%ADD12C,0.200000*%
%ADD13C,0.150000*%
%ADD14C,0.010000*%
G04 APERTURE END LIST*
D10*
X184658000Y-124714000D02*
X163322000Y-124714000D01*
D11*
X184085238Y-127904761D02*
X184085238Y-125904761D01*
X182751904Y-127333333D01*
X181418571Y-125904761D01*
X181418571Y-127904761D01*
X179513809Y-126857142D02*
X178180476Y-126857142D01*
X177609047Y-127904761D02*
X179513809Y-127904761D01*
X179513809Y-125904761D01*
X177609047Y-125904761D01*
X178180476Y-125142857D02*
X178751904Y-125428571D01*
X176275714Y-125904761D02*
X173609047Y-127904761D01*
X173609047Y-125904761D02*
X176275714Y-127904761D01*
X172085238Y-127904761D02*
X172085238Y-125904761D01*
X167894761Y-127714285D02*
X168085238Y-127809523D01*
X168656666Y-127904761D01*
X169037619Y-127904761D01*
X169609047Y-127809523D01*
X169990000Y-127619047D01*
X170180476Y-127428571D01*
X170370952Y-127047619D01*
X170370952Y-126761904D01*
X170180476Y-126380952D01*
X169990000Y-126190476D01*
X169609047Y-126000000D01*
X169037619Y-125904761D01*
X168656666Y-125904761D01*
X168085238Y-126000000D01*
X167894761Y-126095238D01*
X165418571Y-125904761D02*
X164656666Y-125904761D01*
X164275714Y-126000000D01*
X163894761Y-126190476D01*
X163704285Y-126571428D01*
X163704285Y-127238095D01*
X163894761Y-127619047D01*
X164275714Y-127809523D01*
X164656666Y-127904761D01*
X165418571Y-127904761D01*
X165799523Y-127809523D01*
X166180476Y-127619047D01*
X166370952Y-127238095D01*
X166370952Y-126571428D01*
X166180476Y-126190476D01*
X165799523Y-126000000D01*
X165418571Y-125904761D01*
D12*
X183085238Y-124094761D02*
X183085238Y-122094761D01*
X182609047Y-122094761D01*
X182323333Y-122190000D01*
X182132857Y-122380476D01*
X182037619Y-122570952D01*
X181942380Y-122951904D01*
X181942380Y-123237619D01*
X182037619Y-123618571D01*
X182132857Y-123809047D01*
X182323333Y-123999523D01*
X182609047Y-124094761D01*
X183085238Y-124094761D01*
X181085238Y-123047142D02*
X180418571Y-123047142D01*
X180132857Y-124094761D02*
X181085238Y-124094761D01*
X181085238Y-122094761D01*
X180132857Y-122094761D01*
X179370952Y-123999523D02*
X179085238Y-124094761D01*
X178609047Y-124094761D01*
X178418571Y-123999523D01*
X178323333Y-123904285D01*
X178228095Y-123713809D01*
X178228095Y-123523333D01*
X178323333Y-123332857D01*
X178418571Y-123237619D01*
X178609047Y-123142380D01*
X178990000Y-123047142D01*
X179180476Y-122951904D01*
X179275714Y-122856666D01*
X179370952Y-122666190D01*
X179370952Y-122475714D01*
X179275714Y-122285238D01*
X179180476Y-122190000D01*
X178990000Y-122094761D01*
X178513809Y-122094761D01*
X178228095Y-122190000D01*
X177370952Y-124094761D02*
X177370952Y-122094761D01*
X175370952Y-122190000D02*
X175561428Y-122094761D01*
X175847142Y-122094761D01*
X176132857Y-122190000D01*
X176323333Y-122380476D01*
X176418571Y-122570952D01*
X176513809Y-122951904D01*
X176513809Y-123237619D01*
X176418571Y-123618571D01*
X176323333Y-123809047D01*
X176132857Y-123999523D01*
X175847142Y-124094761D01*
X175656666Y-124094761D01*
X175370952Y-123999523D01*
X175275714Y-123904285D01*
X175275714Y-123237619D01*
X175656666Y-123237619D01*
X174418571Y-124094761D02*
X174418571Y-122094761D01*
X173275714Y-124094761D01*
X173275714Y-122094761D01*
X172323333Y-123047142D02*
X171656666Y-123047142D01*
X171370952Y-124094761D02*
X172323333Y-124094761D01*
X172323333Y-122094761D01*
X171370952Y-122094761D01*
X170513809Y-124094761D02*
X170513809Y-122094761D01*
X170037619Y-122094761D01*
X169751904Y-122190000D01*
X169561428Y-122380476D01*
X169466190Y-122570952D01*
X169370952Y-122951904D01*
X169370952Y-123237619D01*
X169466190Y-123618571D01*
X169561428Y-123809047D01*
X169751904Y-123999523D01*
X170037619Y-124094761D01*
X170513809Y-124094761D01*
X166990000Y-124094761D02*
X166990000Y-122094761D01*
X166037619Y-124094761D02*
X166037619Y-122094761D01*
X164894761Y-124094761D01*
X164894761Y-122094761D01*
D13*
X159940380Y-123817571D02*
X160273714Y-123817571D01*
X160273714Y-124341380D02*
X160273714Y-123341380D01*
X159797523Y-123341380D01*
X159416571Y-124341380D02*
X159416571Y-123341380D01*
X158178476Y-123341380D02*
X158178476Y-124150904D01*
X158130857Y-124246142D01*
X158083238Y-124293761D01*
X157988000Y-124341380D01*
X157797523Y-124341380D01*
X157702285Y-124293761D01*
X157654666Y-124246142D01*
X157607047Y-124150904D01*
X157607047Y-123341380D01*
X157178476Y-124055666D02*
X156702285Y-124055666D01*
X157273714Y-124341380D02*
X156940380Y-123341380D01*
X156607047Y-124341380D01*
X155607047Y-124436619D02*
X155702285Y-124389000D01*
X155797523Y-124293761D01*
X155940380Y-124150904D01*
X156035619Y-124103285D01*
X156130857Y-124103285D01*
X156083238Y-124341380D02*
X156178476Y-124293761D01*
X156273714Y-124198523D01*
X156321333Y-124008047D01*
X156321333Y-123674714D01*
X156273714Y-123484238D01*
X156178476Y-123389000D01*
X156083238Y-123341380D01*
X155892761Y-123341380D01*
X155797523Y-123389000D01*
X155702285Y-123484238D01*
X155654666Y-123674714D01*
X155654666Y-124008047D01*
X155702285Y-124198523D01*
X155797523Y-124293761D01*
X155892761Y-124341380D01*
X156083238Y-124341380D01*
X162511809Y-125943761D02*
X162368952Y-125991380D01*
X162130857Y-125991380D01*
X162035619Y-125943761D01*
X161988000Y-125896142D01*
X161940380Y-125800904D01*
X161940380Y-125705666D01*
X161988000Y-125610428D01*
X162035619Y-125562809D01*
X162130857Y-125515190D01*
X162321333Y-125467571D01*
X162416571Y-125419952D01*
X162464190Y-125372333D01*
X162511809Y-125277095D01*
X162511809Y-125181857D01*
X162464190Y-125086619D01*
X162416571Y-125039000D01*
X162321333Y-124991380D01*
X162083238Y-124991380D01*
X161940380Y-125039000D01*
X161226095Y-124991380D02*
X161226095Y-125705666D01*
X161273714Y-125848523D01*
X161368952Y-125943761D01*
X161511809Y-125991380D01*
X161607047Y-125991380D01*
X160178476Y-125991380D02*
X160511809Y-125515190D01*
X160749904Y-125991380D02*
X160749904Y-124991380D01*
X160368952Y-124991380D01*
X160273714Y-125039000D01*
X160226095Y-125086619D01*
X160178476Y-125181857D01*
X160178476Y-125324714D01*
X160226095Y-125419952D01*
X160273714Y-125467571D01*
X160368952Y-125515190D01*
X160749904Y-125515190D01*
X159988000Y-126086619D02*
X159226095Y-126086619D01*
X158321333Y-126086619D02*
X158416571Y-126039000D01*
X158511809Y-125943761D01*
X158654666Y-125800904D01*
X158749904Y-125753285D01*
X158845142Y-125753285D01*
X158797523Y-125991380D02*
X158892761Y-125943761D01*
X158988000Y-125848523D01*
X159035619Y-125658047D01*
X159035619Y-125324714D01*
X158988000Y-125134238D01*
X158892761Y-125039000D01*
X158797523Y-124991380D01*
X158607047Y-124991380D01*
X158511809Y-125039000D01*
X158416571Y-125134238D01*
X158368952Y-125324714D01*
X158368952Y-125658047D01*
X158416571Y-125848523D01*
X158511809Y-125943761D01*
X158607047Y-125991380D01*
X158797523Y-125991380D01*
X157368952Y-125991380D02*
X157702285Y-125515190D01*
X157940380Y-125991380D02*
X157940380Y-124991380D01*
X157559428Y-124991380D01*
X157464190Y-125039000D01*
X157416571Y-125086619D01*
X157368952Y-125181857D01*
X157368952Y-125324714D01*
X157416571Y-125419952D01*
X157464190Y-125467571D01*
X157559428Y-125515190D01*
X157940380Y-125515190D01*
X156749904Y-124991380D02*
X156559428Y-124991380D01*
X156464190Y-125039000D01*
X156368952Y-125134238D01*
X156321333Y-125324714D01*
X156321333Y-125658047D01*
X156368952Y-125848523D01*
X156464190Y-125943761D01*
X156559428Y-125991380D01*
X156749904Y-125991380D01*
X156845142Y-125943761D01*
X156940380Y-125848523D01*
X156988000Y-125658047D01*
X156988000Y-125324714D01*
X156940380Y-125134238D01*
X156845142Y-125039000D01*
X156749904Y-124991380D01*
X156130857Y-126086619D02*
X155368952Y-126086619D01*
X155130857Y-125991380D02*
X155130857Y-124991380D01*
X154797523Y-125705666D01*
X154464190Y-124991380D01*
X154464190Y-125991380D01*
X154083238Y-124991380D02*
X153416571Y-125991380D01*
X153416571Y-124991380D02*
X154083238Y-125991380D01*
D10*
X147484000Y-111201252D02*
X147484000Y-109778748D01*
X150204000Y-111201252D02*
X150204000Y-109778748D01*
X137427064Y-126285000D02*
X136972936Y-126285000D01*
X137427064Y-127755000D02*
X136972936Y-127755000D01*
X151165000Y-108218752D02*
X151165000Y-107696248D01*
X152635000Y-108218752D02*
X152635000Y-107696248D01*
D14*
G36*
X162864800Y-90340459D02*
G01*
X162208923Y-90400429D01*
X161621860Y-90524727D01*
X161106307Y-90711176D01*
X160664958Y-90957600D01*
X160300509Y-91261822D01*
X160015655Y-91621664D01*
X159813093Y-92034950D01*
X159695516Y-92499503D01*
X159664400Y-92925287D01*
X159664400Y-93271629D01*
X159321500Y-93233410D01*
X159197656Y-93225285D01*
X158984768Y-93217783D01*
X158695392Y-93211087D01*
X158342084Y-93205383D01*
X157937399Y-93200855D01*
X157493894Y-93197687D01*
X157024123Y-93196065D01*
X156768800Y-93195895D01*
X156160411Y-93196995D01*
X155643417Y-93200532D01*
X155207625Y-93207488D01*
X154842842Y-93218845D01*
X154538873Y-93235584D01*
X154285526Y-93258689D01*
X154072607Y-93289140D01*
X153889922Y-93327920D01*
X153727276Y-93376011D01*
X153574478Y-93434394D01*
X153421332Y-93504053D01*
X153384739Y-93521895D01*
X153117604Y-93687626D01*
X152945915Y-93877228D01*
X152865125Y-94096558D01*
X152857200Y-94201896D01*
X152849983Y-94324049D01*
X152809318Y-94375326D01*
X152706692Y-94386330D01*
X152685283Y-94386400D01*
X152524195Y-94415706D01*
X152312350Y-94493722D01*
X152078248Y-94605594D01*
X151850393Y-94736467D01*
X151657286Y-94871487D01*
X151535717Y-94985517D01*
X151423789Y-95152524D01*
X151336466Y-95338751D01*
X151320110Y-95389700D01*
X151263895Y-95539010D01*
X151195923Y-95601503D01*
X151167812Y-95605600D01*
X151076203Y-95650877D01*
X151006061Y-95765437D01*
X150969766Y-95917368D01*
X150979698Y-96074760D01*
X150982165Y-96084156D01*
X151045623Y-96208179D01*
X151159267Y-96350466D01*
X151233267Y-96422481D01*
X151355480Y-96539329D01*
X151410172Y-96626537D01*
X151413188Y-96712539D01*
X151408010Y-96736055D01*
X151397703Y-96878011D01*
X151412953Y-97083963D01*
X151448457Y-97321109D01*
X151498910Y-97556645D01*
X151559009Y-97757768D01*
X151582846Y-97817388D01*
X151750199Y-98088285D01*
X151975121Y-98277507D01*
X152065347Y-98323103D01*
X152131299Y-98352555D01*
X152165159Y-98378146D01*
X152156199Y-98407652D01*
X152093692Y-98448850D01*
X151966909Y-98509517D01*
X151765124Y-98597429D01*
X151574500Y-98678916D01*
X151360420Y-98771726D01*
X151224915Y-98846416D01*
X151155314Y-98927586D01*
X151138949Y-99039840D01*
X151163151Y-99207779D01*
X151203381Y-99399578D01*
X151312491Y-99827833D01*
X151444475Y-100167351D01*
X151609374Y-100430182D01*
X151817231Y-100628375D01*
X152078090Y-100773981D01*
X152401992Y-100879050D01*
X152445027Y-100889379D01*
X152732425Y-100926979D01*
X153075361Y-100926459D01*
X153436260Y-100890351D01*
X153777548Y-100821189D01*
X153874932Y-100792978D01*
X154328089Y-100683136D01*
X154865511Y-100613291D01*
X155489608Y-100583317D01*
X156202790Y-100593088D01*
X156901123Y-100634089D01*
X157256267Y-100661555D01*
X157523614Y-100684498D01*
X157716658Y-100706306D01*
X157848895Y-100730363D01*
X157933820Y-100760058D01*
X157984928Y-100798776D01*
X158015712Y-100849904D01*
X158039669Y-100916829D01*
X158040741Y-100920080D01*
X158096291Y-101032318D01*
X158201107Y-101198089D01*
X158339068Y-101393163D01*
X158462905Y-101554586D01*
X158826200Y-102010717D01*
X158852245Y-101589458D01*
X158877458Y-101328697D01*
X158919592Y-101140255D01*
X158985234Y-100995382D01*
X158990305Y-100987057D01*
X159074654Y-100865567D01*
X159164333Y-100758164D01*
X159242782Y-100680946D01*
X159293443Y-100650011D01*
X159299758Y-100681456D01*
X159297346Y-100688562D01*
X159274392Y-100772862D01*
X159238382Y-100928019D01*
X159195909Y-101125209D01*
X159181741Y-101193890D01*
X159128203Y-101552329D01*
X159107785Y-101919862D01*
X159119384Y-102271307D01*
X159161892Y-102581481D01*
X159234204Y-102825202D01*
X159255345Y-102870000D01*
X159524235Y-103277401D01*
X159885459Y-103643108D01*
X160031781Y-103759765D01*
X160226421Y-103899136D01*
X160351042Y-103970904D01*
X160409977Y-103976704D01*
X160407562Y-103918173D01*
X160400018Y-103898700D01*
X160251858Y-103508080D01*
X160157750Y-103160763D01*
X160109484Y-102819763D01*
X160098400Y-102539800D01*
X160103336Y-102258692D01*
X160122437Y-102060149D01*
X160157875Y-101925848D01*
X160175596Y-101888711D01*
X160254991Y-101745622D01*
X160519328Y-102101102D01*
X160860681Y-102504347D01*
X161257208Y-102878753D01*
X161686163Y-103206588D01*
X162124798Y-103470121D01*
X162474852Y-103625471D01*
X162632367Y-103679561D01*
X162773464Y-103716752D01*
X162923424Y-103740154D01*
X163107526Y-103752873D01*
X163351052Y-103758018D01*
X163559087Y-103758776D01*
X163820412Y-103756218D01*
X164045089Y-103749040D01*
X164213712Y-103738240D01*
X164306878Y-103724817D01*
X164318022Y-103719731D01*
X164309488Y-103668145D01*
X164234013Y-103598966D01*
X164233336Y-103598517D01*
X164101780Y-103492801D01*
X163928960Y-103327996D01*
X163735055Y-103125933D01*
X163540240Y-102908440D01*
X163364692Y-102697347D01*
X163228589Y-102514484D01*
X163221136Y-102503418D01*
X163095183Y-102286296D01*
X162978313Y-102037486D01*
X162912793Y-101861616D01*
X162855336Y-101617455D01*
X162809550Y-101308673D01*
X162778226Y-100970901D01*
X162764156Y-100639768D01*
X162770130Y-100350905D01*
X162783920Y-100216503D01*
X162818902Y-99983228D01*
X163235551Y-100175637D01*
X163846929Y-100425004D01*
X164504251Y-100634274D01*
X165172753Y-100794319D01*
X165817671Y-100896010D01*
X166065200Y-100918579D01*
X166295741Y-100926085D01*
X166571202Y-100922090D01*
X166866610Y-100908402D01*
X167156989Y-100886830D01*
X167417363Y-100859181D01*
X167622759Y-100827263D01*
X167736983Y-100797550D01*
X167764896Y-100775640D01*
X167767010Y-100731902D01*
X167737381Y-100654603D01*
X167670064Y-100532010D01*
X167559116Y-100352390D01*
X167398593Y-100104009D01*
X167341355Y-100016583D01*
X167161065Y-99740689D01*
X166981127Y-99463569D01*
X166816982Y-99209126D01*
X166684070Y-99001261D01*
X166625751Y-98908862D01*
X166259353Y-98416560D01*
X165824116Y-97996808D01*
X165327185Y-97655250D01*
X164775704Y-97397527D01*
X164660718Y-97356950D01*
X164180115Y-97196009D01*
X164576558Y-97053105D01*
X165341455Y-96739935D01*
X166028589Y-96378026D01*
X166653440Y-95958995D01*
X166787184Y-95855863D01*
X167213643Y-95571051D01*
X167652082Y-95385062D01*
X168113064Y-95295128D01*
X168607154Y-95298482D01*
X168814000Y-95324938D01*
X169037000Y-95360405D01*
X168676657Y-95135276D01*
X168474612Y-95002834D01*
X168231659Y-94834382D01*
X168021140Y-94682115D01*
X166954200Y-94682115D01*
X166495668Y-94686657D01*
X165851466Y-94717815D01*
X165281403Y-94800254D01*
X164769769Y-94937824D01*
X164300854Y-95134377D01*
X164011749Y-95295452D01*
X163758160Y-95442233D01*
X163493856Y-95580336D01*
X163239674Y-95700301D01*
X163016453Y-95792669D01*
X162845031Y-95847981D01*
X162768983Y-95859600D01*
X162680933Y-95872317D01*
X162650419Y-95920379D01*
X162678072Y-96018647D01*
X162764520Y-96181985D01*
X162784061Y-96215509D01*
X162899963Y-96413027D01*
X163020471Y-96618715D01*
X163084776Y-96728643D01*
X163221550Y-96962686D01*
X162898149Y-97121896D01*
X162694585Y-97234769D01*
X162515582Y-97356888D01*
X162381183Y-97472417D01*
X162311431Y-97565516D01*
X162306000Y-97589787D01*
X162331798Y-97621713D01*
X162416113Y-97659329D01*
X162569329Y-97705788D01*
X162801830Y-97764244D01*
X163120157Y-97836996D01*
X163379919Y-97902257D01*
X163622484Y-97982057D01*
X163864582Y-98084921D01*
X164122943Y-98219376D01*
X164414299Y-98393948D01*
X164755379Y-98617164D01*
X165058528Y-98824849D01*
X165404010Y-99065400D01*
X165668495Y-99252071D01*
X165854933Y-99388214D01*
X165966274Y-99477179D01*
X166005470Y-99522317D01*
X165975470Y-99526980D01*
X165879224Y-99494520D01*
X165719683Y-99428286D01*
X165507853Y-99335211D01*
X164888586Y-99075075D01*
X164295119Y-98859621D01*
X163696330Y-98679576D01*
X163061101Y-98525666D01*
X162358311Y-98388616D01*
X162293300Y-98377246D01*
X162102800Y-98344196D01*
X162102800Y-98573592D01*
X162132015Y-98779461D01*
X162210601Y-99029528D01*
X162324969Y-99288250D01*
X162461532Y-99520083D01*
X162468395Y-99529900D01*
X162566919Y-99669600D01*
X162401698Y-99669600D01*
X162184371Y-99708090D01*
X161966490Y-99809102D01*
X161788172Y-99950946D01*
X161722491Y-100036820D01*
X161651929Y-100233480D01*
X161623945Y-100496995D01*
X161638287Y-100802089D01*
X161694705Y-101123486D01*
X161734786Y-101270072D01*
X161801733Y-101457447D01*
X161902476Y-101702420D01*
X162023209Y-101972829D01*
X162146537Y-102229357D01*
X162448898Y-102832769D01*
X162042329Y-102432284D01*
X161852488Y-102239001D01*
X161668020Y-102040366D01*
X161514792Y-101864746D01*
X161444393Y-101776627D01*
X161149242Y-101302977D01*
X160942102Y-100783805D01*
X160858861Y-100449400D01*
X160849719Y-100385504D01*
X160858674Y-100329287D01*
X160897363Y-100268558D01*
X160977425Y-100191125D01*
X161110497Y-100084800D01*
X161308217Y-99937390D01*
X161439579Y-99841086D01*
X161642950Y-99692256D01*
X161087006Y-99692256D01*
X161080321Y-99703469D01*
X160936382Y-99844166D01*
X160766942Y-99960809D01*
X160603338Y-100035124D01*
X160485301Y-100050462D01*
X160413760Y-100045590D01*
X160248839Y-100038089D01*
X159998718Y-100028236D01*
X159671577Y-100016309D01*
X159275594Y-100002586D01*
X158818948Y-99987343D01*
X158309820Y-99970858D01*
X157756388Y-99953410D01*
X157166832Y-99935275D01*
X156549330Y-99916730D01*
X156502100Y-99915330D01*
X155784687Y-99893977D01*
X155162139Y-99875118D01*
X154627761Y-99858397D01*
X154174858Y-99843455D01*
X153796736Y-99829937D01*
X153486700Y-99817486D01*
X153238055Y-99805743D01*
X153044106Y-99794352D01*
X152898158Y-99782956D01*
X152793517Y-99771197D01*
X152723487Y-99758720D01*
X152681374Y-99745165D01*
X152660484Y-99730178D01*
X152654120Y-99713399D01*
X152654000Y-99710078D01*
X152657619Y-99693838D01*
X152672734Y-99679643D01*
X152705738Y-99667358D01*
X152763020Y-99656843D01*
X152850974Y-99647962D01*
X152975988Y-99640578D01*
X153144456Y-99634552D01*
X153362767Y-99629749D01*
X153637312Y-99626030D01*
X153974484Y-99623258D01*
X154380673Y-99621296D01*
X154862269Y-99620007D01*
X155425665Y-99619252D01*
X156077251Y-99618896D01*
X156823419Y-99618800D01*
X156902021Y-99618800D01*
X157658504Y-99618900D01*
X158319629Y-99619287D01*
X158891637Y-99620086D01*
X159380769Y-99621423D01*
X159793267Y-99623426D01*
X160135371Y-99626221D01*
X160413323Y-99629933D01*
X160633365Y-99634691D01*
X160801737Y-99640619D01*
X160924681Y-99647845D01*
X161008439Y-99656496D01*
X161059252Y-99666697D01*
X161083360Y-99678574D01*
X161087006Y-99692256D01*
X161642950Y-99692256D01*
X162052189Y-99392770D01*
X162034768Y-98481122D01*
X160629600Y-98481122D01*
X160581949Y-98671443D01*
X160451088Y-98847680D01*
X160255159Y-98988627D01*
X160158256Y-99032041D01*
X160072404Y-99063116D01*
X159985288Y-99090503D01*
X159890639Y-99114305D01*
X159782188Y-99134625D01*
X159653667Y-99151564D01*
X159498806Y-99165226D01*
X159311336Y-99175713D01*
X159084989Y-99183127D01*
X158813496Y-99187571D01*
X158490588Y-99189148D01*
X158109995Y-99187960D01*
X157665450Y-99184109D01*
X157150683Y-99177699D01*
X156559425Y-99168831D01*
X155885407Y-99157608D01*
X155122361Y-99144133D01*
X154264017Y-99128509D01*
X154262125Y-99128474D01*
X152441249Y-99095056D01*
X152471954Y-98941532D01*
X152496975Y-98830795D01*
X152514620Y-98777218D01*
X152514830Y-98777010D01*
X152566893Y-98769403D01*
X152703249Y-98755335D01*
X152906908Y-98736404D01*
X153160881Y-98714204D01*
X153365200Y-98697106D01*
X153732009Y-98672780D01*
X154163461Y-98653807D01*
X154641650Y-98640172D01*
X155148669Y-98631863D01*
X155666609Y-98628866D01*
X156177563Y-98631169D01*
X156663624Y-98638756D01*
X157106883Y-98651616D01*
X157489433Y-98669735D01*
X157793367Y-98693098D01*
X157861000Y-98700467D01*
X158299453Y-98743999D01*
X158713553Y-98769020D01*
X159088202Y-98775645D01*
X159408300Y-98763986D01*
X159658747Y-98734158D01*
X159824445Y-98686274D01*
X159825646Y-98685693D01*
X159967231Y-98582414D01*
X157939334Y-98582414D01*
X157910557Y-98591882D01*
X157856509Y-98580812D01*
X157747925Y-98561587D01*
X157567604Y-98537912D01*
X157345085Y-98513452D01*
X157206177Y-98500155D01*
X156982904Y-98480417D01*
X156794350Y-98464498D01*
X156665605Y-98454477D01*
X156625930Y-98452110D01*
X156624637Y-98450400D01*
X156219124Y-98450400D01*
X155274762Y-98450400D01*
X154928621Y-98448900D01*
X154672959Y-98443890D01*
X154645228Y-98442428D01*
X153973725Y-98442428D01*
X153656763Y-98471997D01*
X153453593Y-98491033D01*
X153262839Y-98509041D01*
X153162000Y-98518653D01*
X153014151Y-98532746D01*
X152899315Y-98543502D01*
X152895300Y-98543870D01*
X152828514Y-98521282D01*
X152806609Y-98423516D01*
X152806400Y-98406533D01*
X152829074Y-98154379D01*
X152889749Y-97862010D01*
X152977408Y-97578203D01*
X153014618Y-97484795D01*
X153096157Y-97320062D01*
X153159543Y-97241956D01*
X153199982Y-97253827D01*
X153212800Y-97346285D01*
X153250749Y-97511402D01*
X153356534Y-97719219D01*
X153518068Y-97949708D01*
X153708872Y-98168045D01*
X153973725Y-98442428D01*
X154645228Y-98442428D01*
X154496689Y-98434597D01*
X154388727Y-98420252D01*
X154337988Y-98400085D01*
X154330400Y-98384776D01*
X154358727Y-98300158D01*
X154434144Y-98156744D01*
X154542311Y-97976662D01*
X154668886Y-97782037D01*
X154799527Y-97594997D01*
X154919891Y-97437670D01*
X155007989Y-97339373D01*
X155186080Y-97168146D01*
X155324247Y-97440973D01*
X155507392Y-97760161D01*
X155707843Y-98014756D01*
X155954539Y-98241100D01*
X155973262Y-98256015D01*
X156219124Y-98450400D01*
X156624637Y-98450400D01*
X156598633Y-98416036D01*
X156626650Y-98323008D01*
X156696951Y-98191253D01*
X156796509Y-98038997D01*
X156912297Y-97884466D01*
X156981483Y-97803888D01*
X156600160Y-97803888D01*
X156596577Y-97918382D01*
X156587633Y-97947849D01*
X156511346Y-97982132D01*
X156369871Y-97972813D01*
X156187455Y-97924499D01*
X155988346Y-97841793D01*
X155963706Y-97829376D01*
X155792127Y-97718319D01*
X155634090Y-97580004D01*
X155593140Y-97534076D01*
X155515755Y-97416801D01*
X155432868Y-97258018D01*
X155355426Y-97084180D01*
X155294376Y-96921738D01*
X155260665Y-96797147D01*
X155263738Y-96738129D01*
X155315722Y-96750275D01*
X155432232Y-96803936D01*
X155590635Y-96888417D01*
X155634570Y-96913352D01*
X155913844Y-97066078D01*
X156132845Y-97166655D01*
X156312557Y-97223927D01*
X156413200Y-97241537D01*
X156510691Y-97279412D01*
X156543180Y-97332800D01*
X156552599Y-97426574D01*
X156572975Y-97575675D01*
X156584370Y-97650150D01*
X156600160Y-97803888D01*
X156981483Y-97803888D01*
X157031286Y-97745886D01*
X157140448Y-97641485D01*
X157226756Y-97589489D01*
X157244437Y-97586800D01*
X157306678Y-97628495D01*
X157376999Y-97731152D01*
X157388703Y-97754393D01*
X157457413Y-97874361D01*
X157567949Y-98042200D01*
X157699124Y-98226080D01*
X157730944Y-98268561D01*
X157855163Y-98434769D01*
X157922748Y-98534715D01*
X157939334Y-98582414D01*
X159967231Y-98582414D01*
X159980056Y-98573059D01*
X160086997Y-98422936D01*
X160094120Y-98398088D01*
X159799932Y-98398088D01*
X159788522Y-98442212D01*
X159742566Y-98480644D01*
X159625615Y-98524587D01*
X159436330Y-98548796D01*
X159324491Y-98552000D01*
X159004000Y-98552000D01*
X159004000Y-98383055D01*
X159037870Y-98229202D01*
X159123509Y-98099715D01*
X159236967Y-98020439D01*
X159345807Y-98014222D01*
X159437682Y-98065181D01*
X159565504Y-98161388D01*
X159641203Y-98227061D01*
X159753983Y-98334269D01*
X159799932Y-98398088D01*
X160094120Y-98398088D01*
X160132651Y-98263689D01*
X160103204Y-98123681D01*
X160101094Y-98120200D01*
X159970933Y-97994387D01*
X159749208Y-97881155D01*
X159646144Y-97848336D01*
X158676669Y-97848336D01*
X158669909Y-97885921D01*
X158645306Y-97981943D01*
X158621009Y-98136342D01*
X158610078Y-98234500D01*
X158589876Y-98391714D01*
X158559484Y-98471610D01*
X158506732Y-98498449D01*
X158477010Y-98499768D01*
X158369096Y-98476383D01*
X158218043Y-98418675D01*
X158140400Y-98381864D01*
X157938597Y-98240643D01*
X157741850Y-98020001D01*
X157690202Y-97948727D01*
X157587963Y-97794890D01*
X157518173Y-97674677D01*
X157493358Y-97610081D01*
X157494885Y-97605782D01*
X157553611Y-97606106D01*
X157675258Y-97635604D01*
X157767284Y-97665153D01*
X157954457Y-97715468D01*
X158185424Y-97757469D01*
X158359041Y-97777425D01*
X158542065Y-97795021D01*
X158641836Y-97816527D01*
X158676669Y-97848336D01*
X159646144Y-97848336D01*
X159445591Y-97784474D01*
X159116353Y-97715904D01*
X158686409Y-97642873D01*
X158338243Y-97581120D01*
X158053205Y-97526508D01*
X157812649Y-97474899D01*
X157597928Y-97422156D01*
X157390394Y-97364140D01*
X157171400Y-97296714D01*
X157048067Y-97256971D01*
X156583500Y-97094993D01*
X156179731Y-96927387D01*
X155800128Y-96736308D01*
X155408058Y-96503912D01*
X155129193Y-96322259D01*
X155106846Y-96307829D01*
X154701828Y-96307829D01*
X154668451Y-96406745D01*
X154617871Y-96487540D01*
X154554239Y-96602479D01*
X154499168Y-96754175D01*
X154448331Y-96959556D01*
X154397397Y-97235552D01*
X154352980Y-97523300D01*
X154318954Y-97663731D01*
X154259109Y-97729371D01*
X154158585Y-97722592D01*
X154002525Y-97645765D01*
X153916497Y-97592961D01*
X153758728Y-97472049D01*
X153622293Y-97332662D01*
X153577490Y-97271306D01*
X153469754Y-97041095D01*
X153384861Y-96754218D01*
X153367319Y-96652404D01*
X153062833Y-96652404D01*
X152935066Y-96772435D01*
X152770694Y-96985814D01*
X152648124Y-97260540D01*
X152577027Y-97561572D01*
X152567077Y-97853870D01*
X152593910Y-98008430D01*
X152618410Y-98128761D01*
X152598819Y-98187421D01*
X152521822Y-98188395D01*
X152374103Y-98135670D01*
X152289912Y-98099416D01*
X151995872Y-97921241D01*
X151776628Y-97677344D01*
X151630151Y-97364670D01*
X151555865Y-96994631D01*
X151548704Y-96756703D01*
X151573419Y-96539449D01*
X151624566Y-96366582D01*
X151696697Y-96261813D01*
X151728034Y-96244924D01*
X151821193Y-96220973D01*
X151978772Y-96184996D01*
X152154583Y-96147327D01*
X152493366Y-96076932D01*
X152778099Y-96364668D01*
X153062833Y-96652404D01*
X153367319Y-96652404D01*
X153333280Y-96454856D01*
X153324412Y-96203471D01*
X153339800Y-95935800D01*
X153720800Y-95939548D01*
X154006661Y-95957532D01*
X154240688Y-96010763D01*
X154366901Y-96059415D01*
X154561236Y-96151535D01*
X154669484Y-96228550D01*
X154701828Y-96307829D01*
X155106846Y-96307829D01*
X154903713Y-96176662D01*
X154684639Y-96044412D01*
X154498491Y-95940994D01*
X154381200Y-95885437D01*
X154162974Y-95826712D01*
X153874831Y-95786840D01*
X153546968Y-95767350D01*
X153209582Y-95769776D01*
X152892869Y-95795648D01*
X152818877Y-95806208D01*
X152611898Y-95842534D01*
X152360969Y-95892064D01*
X152090748Y-95949291D01*
X151825892Y-96008712D01*
X151591059Y-96064819D01*
X151410905Y-96112109D01*
X151320500Y-96140746D01*
X151256719Y-96146839D01*
X151233314Y-96081973D01*
X151231600Y-96028738D01*
X151253240Y-95876583D01*
X151327667Y-95757280D01*
X151469139Y-95658473D01*
X151691918Y-95567803D01*
X151805309Y-95531556D01*
X152487980Y-95356573D01*
X153113295Y-95264133D01*
X153680741Y-95254266D01*
X154189802Y-95327004D01*
X154365878Y-95375690D01*
X154569702Y-95452389D01*
X154826246Y-95566522D01*
X155101711Y-95702265D01*
X155346400Y-95834691D01*
X156070344Y-96230658D01*
X156734682Y-96557750D01*
X157349750Y-96820787D01*
X157835600Y-96995668D01*
X158074258Y-97072380D01*
X158291027Y-97138438D01*
X158504935Y-97198656D01*
X158735012Y-97257849D01*
X159000290Y-97320832D01*
X159319796Y-97392418D01*
X159712560Y-97477424D01*
X159886859Y-97514647D01*
X160089632Y-97566679D01*
X160260700Y-97626545D01*
X160368734Y-97682954D01*
X160379360Y-97692159D01*
X160455267Y-97809538D01*
X160529302Y-97991235D01*
X160589791Y-98200442D01*
X160625058Y-98400349D01*
X160629600Y-98481122D01*
X162034768Y-98481122D01*
X162019644Y-97689685D01*
X162011576Y-97284479D01*
X162003553Y-96912906D01*
X161995881Y-96586841D01*
X161992234Y-96447180D01*
X160812830Y-96447180D01*
X160774128Y-96515927D01*
X160694753Y-96637710D01*
X160590166Y-96790674D01*
X160475826Y-96952965D01*
X160367191Y-97102728D01*
X160279722Y-97218107D01*
X160228876Y-97277248D01*
X160223200Y-97280759D01*
X160165918Y-97272859D01*
X160029602Y-97250982D01*
X159835313Y-97218578D01*
X159628297Y-97183268D01*
X159058794Y-97085210D01*
X158680520Y-96762449D01*
X158341227Y-96493982D01*
X158034570Y-96299732D01*
X157739136Y-96167886D01*
X157467732Y-96093342D01*
X157150780Y-96028690D01*
X157353490Y-95900499D01*
X157666246Y-95656771D01*
X157882275Y-95383770D01*
X158001431Y-95083766D01*
X158023568Y-94759029D01*
X158003289Y-94665186D01*
X156968761Y-94665186D01*
X156900029Y-94827237D01*
X156838150Y-94890712D01*
X156659557Y-94982340D01*
X156487754Y-94973119D01*
X156334691Y-94871309D01*
X156229950Y-94709642D01*
X156225910Y-94537393D01*
X156315288Y-94367850D01*
X156456907Y-94261510D01*
X156630677Y-94232018D01*
X156799895Y-94281504D01*
X156870400Y-94335600D01*
X156959596Y-94489074D01*
X156968761Y-94665186D01*
X158003289Y-94665186D01*
X157948539Y-94411831D01*
X157776196Y-94044441D01*
X157681642Y-93909406D01*
X155651200Y-93909406D01*
X155630864Y-93957190D01*
X155576821Y-94073985D01*
X155499526Y-94237297D01*
X155474621Y-94289380D01*
X155370642Y-94531376D01*
X155326206Y-94701337D01*
X155329139Y-94781738D01*
X155341259Y-94869236D01*
X155296741Y-94883186D01*
X155242066Y-94868132D01*
X155154276Y-94842452D01*
X154987863Y-94795671D01*
X154762286Y-94733189D01*
X154497003Y-94660407D01*
X154314428Y-94610659D01*
X154043508Y-94536352D01*
X153809107Y-94470756D01*
X153627837Y-94418624D01*
X153516308Y-94384712D01*
X153488574Y-94374307D01*
X153531031Y-94359575D01*
X153659030Y-94327444D01*
X153858625Y-94281114D01*
X154115869Y-94223788D01*
X154416816Y-94158669D01*
X154561695Y-94127906D01*
X154878676Y-94061486D01*
X155159375Y-94003625D01*
X155389586Y-93957173D01*
X155555108Y-93924978D01*
X155641737Y-93909888D01*
X155651200Y-93909406D01*
X157681642Y-93909406D01*
X157506394Y-93659130D01*
X157498959Y-93649975D01*
X157393384Y-93514051D01*
X157326085Y-93414766D01*
X157309974Y-93371406D01*
X157312109Y-93370876D01*
X157375144Y-93394674D01*
X157496264Y-93455803D01*
X157612838Y-93520384D01*
X157920636Y-93749362D01*
X158215287Y-94073787D01*
X158491529Y-94487813D01*
X158506273Y-94513400D01*
X158749122Y-94932419D01*
X158954534Y-95271916D01*
X159131234Y-95542872D01*
X159287948Y-95756274D01*
X159433402Y-95923104D01*
X159576320Y-96054346D01*
X159725428Y-96160984D01*
X159888651Y-96253589D01*
X160085349Y-96337960D01*
X160284858Y-96379458D01*
X160490160Y-96389914D01*
X160687472Y-96399139D01*
X160795031Y-96421745D01*
X160812830Y-96447180D01*
X161992234Y-96447180D01*
X161988863Y-96318161D01*
X161982806Y-96118742D01*
X161978015Y-96000460D01*
X161975516Y-95972199D01*
X161924894Y-95978181D01*
X161800353Y-96006729D01*
X161625596Y-96052253D01*
X161563466Y-96069347D01*
X161140299Y-96157565D01*
X160735646Y-96185335D01*
X160371010Y-96152691D01*
X160083925Y-96066938D01*
X159823815Y-95907250D01*
X159543623Y-95650438D01*
X159245216Y-95298577D01*
X158930463Y-94853743D01*
X158781651Y-94620007D01*
X158589781Y-94312871D01*
X158436568Y-94078180D01*
X158309575Y-93900560D01*
X158196362Y-93764639D01*
X158084492Y-93655044D01*
X157961526Y-93556401D01*
X157865900Y-93488203D01*
X157607000Y-93309014D01*
X157799584Y-93336851D01*
X157951258Y-93370460D01*
X158089314Y-93431865D01*
X158226091Y-93532442D01*
X158373930Y-93683564D01*
X158545171Y-93896606D01*
X158752153Y-94182944D01*
X158814341Y-94272239D01*
X159092604Y-94666486D01*
X159329869Y-94983110D01*
X159536595Y-95232094D01*
X159723241Y-95423419D01*
X159900267Y-95567070D01*
X160078132Y-95673027D01*
X160267295Y-95751274D01*
X160408870Y-95794056D01*
X160636186Y-95837131D01*
X160917649Y-95864346D01*
X161220240Y-95875132D01*
X161510945Y-95868924D01*
X161756746Y-95845154D01*
X161879228Y-95819311D01*
X162196336Y-95684550D01*
X162431120Y-95490274D01*
X162583917Y-95236037D01*
X162655069Y-94921393D01*
X162660765Y-94792047D01*
X162617815Y-94435213D01*
X162487218Y-94129732D01*
X162269246Y-93876042D01*
X161964173Y-93674578D01*
X161961418Y-93673197D01*
X161640667Y-93557547D01*
X161332358Y-93529378D01*
X161049524Y-93582420D01*
X160805193Y-93710403D01*
X160612398Y-93907056D01*
X160484167Y-94166108D01*
X160437425Y-94406548D01*
X160456514Y-94699584D01*
X160563176Y-94943089D01*
X160752990Y-95130431D01*
X160998076Y-95247740D01*
X161221840Y-95281793D01*
X161446519Y-95252571D01*
X161653803Y-95171648D01*
X161825381Y-95050597D01*
X161942944Y-94900993D01*
X161988180Y-94734408D01*
X161973090Y-94631444D01*
X161893164Y-94456665D01*
X161790925Y-94336592D01*
X161683487Y-94279420D01*
X161587966Y-94293345D01*
X161521477Y-94386559D01*
X161514090Y-94411686D01*
X161499747Y-94532585D01*
X161535607Y-94644014D01*
X161606035Y-94753301D01*
X161637518Y-94849550D01*
X161574231Y-94921751D01*
X161413872Y-94972157D01*
X161375500Y-94978931D01*
X161166478Y-94970664D01*
X161004287Y-94873141D01*
X160893816Y-94689647D01*
X160879147Y-94645567D01*
X160857647Y-94419461D01*
X160924918Y-94216930D01*
X161068684Y-94050961D01*
X161276671Y-93934543D01*
X161536603Y-93880662D01*
X161604193Y-93878478D01*
X161910081Y-93912047D01*
X162145619Y-94016314D01*
X162317957Y-94196281D01*
X162434246Y-94456951D01*
X162435042Y-94459617D01*
X162488693Y-94773245D01*
X162457491Y-95043471D01*
X162350746Y-95265052D01*
X162177766Y-95432746D01*
X161947861Y-95541311D01*
X161670340Y-95585503D01*
X161354511Y-95560080D01*
X161009684Y-95459799D01*
X160814194Y-95372424D01*
X160515318Y-95201759D01*
X160193961Y-94976624D01*
X159838096Y-94687852D01*
X159435695Y-94326276D01*
X159410086Y-94302326D01*
X159197372Y-94105346D01*
X158990603Y-93918016D01*
X158810784Y-93759100D01*
X158678922Y-93647357D01*
X158658443Y-93630975D01*
X158542586Y-93533213D01*
X158473152Y-93461298D01*
X158463335Y-93436932D01*
X158521622Y-93443032D01*
X158639829Y-93493287D01*
X158793813Y-93574790D01*
X158959432Y-93674633D01*
X159112542Y-93779909D01*
X159131000Y-93793882D01*
X159245163Y-93889129D01*
X159410222Y-94036632D01*
X159604991Y-94217046D01*
X159808282Y-94411029D01*
X159829500Y-94431631D01*
X160324800Y-94913417D01*
X160324800Y-94607182D01*
X160360844Y-94221758D01*
X160466417Y-93892989D01*
X160624780Y-93647528D01*
X160697109Y-93560464D01*
X160742969Y-93481483D01*
X160768383Y-93384694D01*
X160779373Y-93244205D01*
X160781961Y-93034124D01*
X160782000Y-92971562D01*
X160801835Y-92515901D01*
X160859244Y-92112067D01*
X160951085Y-91771844D01*
X161074219Y-91507014D01*
X161218264Y-91335209D01*
X161276918Y-91294139D01*
X161288839Y-91321725D01*
X161268509Y-91414600D01*
X161198496Y-91733154D01*
X161163417Y-92015336D01*
X161162799Y-92295863D01*
X161196169Y-92609454D01*
X161248103Y-92913200D01*
X161296839Y-93122100D01*
X161353714Y-93247410D01*
X161430547Y-93307074D01*
X161515771Y-93319599D01*
X161730939Y-93355696D01*
X161975788Y-93453073D01*
X162214477Y-93595365D01*
X162340734Y-93696313D01*
X162577513Y-93910684D01*
X162727230Y-93627842D01*
X163061716Y-93084186D01*
X163452325Y-92617749D01*
X163910108Y-92217772D01*
X164446118Y-91873496D01*
X164628412Y-91777148D01*
X164819119Y-91686648D01*
X164925038Y-91650658D01*
X164945872Y-91669132D01*
X164881323Y-91742023D01*
X164809668Y-91805000D01*
X164389500Y-92180184D01*
X164046509Y-92537710D01*
X163763688Y-92898026D01*
X163524031Y-93281580D01*
X163423324Y-93472000D01*
X163306958Y-93709310D01*
X163190913Y-93956436D01*
X163082852Y-94195756D01*
X162990437Y-94409647D01*
X162921331Y-94580487D01*
X162883195Y-94690652D01*
X162879466Y-94722799D01*
X162932252Y-94717444D01*
X163063844Y-94690436D01*
X163254823Y-94646089D01*
X163485771Y-94588715D01*
X163502955Y-94584317D01*
X164240726Y-94444933D01*
X165002629Y-94395025D01*
X165766182Y-94434398D01*
X166508904Y-94562858D01*
X166700200Y-94612031D01*
X166954200Y-94682115D01*
X168021140Y-94682115D01*
X167986488Y-94657052D01*
X167870021Y-94569617D01*
X167656935Y-94413225D01*
X167442520Y-94266311D01*
X167257313Y-94149326D01*
X167168083Y-94099542D01*
X166839292Y-93964260D01*
X166436989Y-93849239D01*
X165988258Y-93760488D01*
X165520182Y-93704012D01*
X165328600Y-93691564D01*
X164719000Y-93662479D01*
X165135702Y-93241649D01*
X165327606Y-93041471D01*
X165472855Y-92869427D01*
X165593270Y-92694124D01*
X165710671Y-92484172D01*
X165830874Y-92241548D01*
X166020094Y-91880859D01*
X166206863Y-91601916D01*
X166407659Y-91386643D01*
X166638958Y-91216965D01*
X166878759Y-91091942D01*
X167175397Y-90957400D01*
X166810799Y-90955152D01*
X166651559Y-90953581D01*
X166411455Y-90950452D01*
X166111208Y-90946072D01*
X165771535Y-90940748D01*
X165413157Y-90934786D01*
X165277800Y-90932443D01*
X164899864Y-90926337D01*
X164607218Y-90923626D01*
X164383584Y-90925338D01*
X164212680Y-90932500D01*
X164078225Y-90946138D01*
X163963939Y-90967281D01*
X163853541Y-90996954D01*
X163753800Y-91028602D01*
X163204529Y-91251468D01*
X162717564Y-91536887D01*
X162405542Y-91784159D01*
X162090558Y-92069203D01*
X162126871Y-91843501D01*
X162234310Y-91481000D01*
X162430218Y-91135997D01*
X162701468Y-90825326D01*
X163034933Y-90565822D01*
X163195000Y-90473734D01*
X163499800Y-90315516D01*
X162864800Y-90340459D01*
G37*
X162864800Y-90340459D02*
X162208923Y-90400429D01*
X161621860Y-90524727D01*
X161106307Y-90711176D01*
X160664958Y-90957600D01*
X160300509Y-91261822D01*
X160015655Y-91621664D01*
X159813093Y-92034950D01*
X159695516Y-92499503D01*
X159664400Y-92925287D01*
X159664400Y-93271629D01*
X159321500Y-93233410D01*
X159197656Y-93225285D01*
X158984768Y-93217783D01*
X158695392Y-93211087D01*
X158342084Y-93205383D01*
X157937399Y-93200855D01*
X157493894Y-93197687D01*
X157024123Y-93196065D01*
X156768800Y-93195895D01*
X156160411Y-93196995D01*
X155643417Y-93200532D01*
X155207625Y-93207488D01*
X154842842Y-93218845D01*
X154538873Y-93235584D01*
X154285526Y-93258689D01*
X154072607Y-93289140D01*
X153889922Y-93327920D01*
X153727276Y-93376011D01*
X153574478Y-93434394D01*
X153421332Y-93504053D01*
X153384739Y-93521895D01*
X153117604Y-93687626D01*
X152945915Y-93877228D01*
X152865125Y-94096558D01*
X152857200Y-94201896D01*
X152849983Y-94324049D01*
X152809318Y-94375326D01*
X152706692Y-94386330D01*
X152685283Y-94386400D01*
X152524195Y-94415706D01*
X152312350Y-94493722D01*
X152078248Y-94605594D01*
X151850393Y-94736467D01*
X151657286Y-94871487D01*
X151535717Y-94985517D01*
X151423789Y-95152524D01*
X151336466Y-95338751D01*
X151320110Y-95389700D01*
X151263895Y-95539010D01*
X151195923Y-95601503D01*
X151167812Y-95605600D01*
X151076203Y-95650877D01*
X151006061Y-95765437D01*
X150969766Y-95917368D01*
X150979698Y-96074760D01*
X150982165Y-96084156D01*
X151045623Y-96208179D01*
X151159267Y-96350466D01*
X151233267Y-96422481D01*
X151355480Y-96539329D01*
X151410172Y-96626537D01*
X151413188Y-96712539D01*
X151408010Y-96736055D01*
X151397703Y-96878011D01*
X151412953Y-97083963D01*
X151448457Y-97321109D01*
X151498910Y-97556645D01*
X151559009Y-97757768D01*
X151582846Y-97817388D01*
X151750199Y-98088285D01*
X151975121Y-98277507D01*
X152065347Y-98323103D01*
X152131299Y-98352555D01*
X152165159Y-98378146D01*
X152156199Y-98407652D01*
X152093692Y-98448850D01*
X151966909Y-98509517D01*
X151765124Y-98597429D01*
X151574500Y-98678916D01*
X151360420Y-98771726D01*
X151224915Y-98846416D01*
X151155314Y-98927586D01*
X151138949Y-99039840D01*
X151163151Y-99207779D01*
X151203381Y-99399578D01*
X151312491Y-99827833D01*
X151444475Y-100167351D01*
X151609374Y-100430182D01*
X151817231Y-100628375D01*
X152078090Y-100773981D01*
X152401992Y-100879050D01*
X152445027Y-100889379D01*
X152732425Y-100926979D01*
X153075361Y-100926459D01*
X153436260Y-100890351D01*
X153777548Y-100821189D01*
X153874932Y-100792978D01*
X154328089Y-100683136D01*
X154865511Y-100613291D01*
X155489608Y-100583317D01*
X156202790Y-100593088D01*
X156901123Y-100634089D01*
X157256267Y-100661555D01*
X157523614Y-100684498D01*
X157716658Y-100706306D01*
X157848895Y-100730363D01*
X157933820Y-100760058D01*
X157984928Y-100798776D01*
X158015712Y-100849904D01*
X158039669Y-100916829D01*
X158040741Y-100920080D01*
X158096291Y-101032318D01*
X158201107Y-101198089D01*
X158339068Y-101393163D01*
X158462905Y-101554586D01*
X158826200Y-102010717D01*
X158852245Y-101589458D01*
X158877458Y-101328697D01*
X158919592Y-101140255D01*
X158985234Y-100995382D01*
X158990305Y-100987057D01*
X159074654Y-100865567D01*
X159164333Y-100758164D01*
X159242782Y-100680946D01*
X159293443Y-100650011D01*
X159299758Y-100681456D01*
X159297346Y-100688562D01*
X159274392Y-100772862D01*
X159238382Y-100928019D01*
X159195909Y-101125209D01*
X159181741Y-101193890D01*
X159128203Y-101552329D01*
X159107785Y-101919862D01*
X159119384Y-102271307D01*
X159161892Y-102581481D01*
X159234204Y-102825202D01*
X159255345Y-102870000D01*
X159524235Y-103277401D01*
X159885459Y-103643108D01*
X160031781Y-103759765D01*
X160226421Y-103899136D01*
X160351042Y-103970904D01*
X160409977Y-103976704D01*
X160407562Y-103918173D01*
X160400018Y-103898700D01*
X160251858Y-103508080D01*
X160157750Y-103160763D01*
X160109484Y-102819763D01*
X160098400Y-102539800D01*
X160103336Y-102258692D01*
X160122437Y-102060149D01*
X160157875Y-101925848D01*
X160175596Y-101888711D01*
X160254991Y-101745622D01*
X160519328Y-102101102D01*
X160860681Y-102504347D01*
X161257208Y-102878753D01*
X161686163Y-103206588D01*
X162124798Y-103470121D01*
X162474852Y-103625471D01*
X162632367Y-103679561D01*
X162773464Y-103716752D01*
X162923424Y-103740154D01*
X163107526Y-103752873D01*
X163351052Y-103758018D01*
X163559087Y-103758776D01*
X163820412Y-103756218D01*
X164045089Y-103749040D01*
X164213712Y-103738240D01*
X164306878Y-103724817D01*
X164318022Y-103719731D01*
X164309488Y-103668145D01*
X164234013Y-103598966D01*
X164233336Y-103598517D01*
X164101780Y-103492801D01*
X163928960Y-103327996D01*
X163735055Y-103125933D01*
X163540240Y-102908440D01*
X163364692Y-102697347D01*
X163228589Y-102514484D01*
X163221136Y-102503418D01*
X163095183Y-102286296D01*
X162978313Y-102037486D01*
X162912793Y-101861616D01*
X162855336Y-101617455D01*
X162809550Y-101308673D01*
X162778226Y-100970901D01*
X162764156Y-100639768D01*
X162770130Y-100350905D01*
X162783920Y-100216503D01*
X162818902Y-99983228D01*
X163235551Y-100175637D01*
X163846929Y-100425004D01*
X164504251Y-100634274D01*
X165172753Y-100794319D01*
X165817671Y-100896010D01*
X166065200Y-100918579D01*
X166295741Y-100926085D01*
X166571202Y-100922090D01*
X166866610Y-100908402D01*
X167156989Y-100886830D01*
X167417363Y-100859181D01*
X167622759Y-100827263D01*
X167736983Y-100797550D01*
X167764896Y-100775640D01*
X167767010Y-100731902D01*
X167737381Y-100654603D01*
X167670064Y-100532010D01*
X167559116Y-100352390D01*
X167398593Y-100104009D01*
X167341355Y-100016583D01*
X167161065Y-99740689D01*
X166981127Y-99463569D01*
X166816982Y-99209126D01*
X166684070Y-99001261D01*
X166625751Y-98908862D01*
X166259353Y-98416560D01*
X165824116Y-97996808D01*
X165327185Y-97655250D01*
X164775704Y-97397527D01*
X164660718Y-97356950D01*
X164180115Y-97196009D01*
X164576558Y-97053105D01*
X165341455Y-96739935D01*
X166028589Y-96378026D01*
X166653440Y-95958995D01*
X166787184Y-95855863D01*
X167213643Y-95571051D01*
X167652082Y-95385062D01*
X168113064Y-95295128D01*
X168607154Y-95298482D01*
X168814000Y-95324938D01*
X169037000Y-95360405D01*
X168676657Y-95135276D01*
X168474612Y-95002834D01*
X168231659Y-94834382D01*
X168021140Y-94682115D01*
X166954200Y-94682115D01*
X166495668Y-94686657D01*
X165851466Y-94717815D01*
X165281403Y-94800254D01*
X164769769Y-94937824D01*
X164300854Y-95134377D01*
X164011749Y-95295452D01*
X163758160Y-95442233D01*
X163493856Y-95580336D01*
X163239674Y-95700301D01*
X163016453Y-95792669D01*
X162845031Y-95847981D01*
X162768983Y-95859600D01*
X162680933Y-95872317D01*
X162650419Y-95920379D01*
X162678072Y-96018647D01*
X162764520Y-96181985D01*
X162784061Y-96215509D01*
X162899963Y-96413027D01*
X163020471Y-96618715D01*
X163084776Y-96728643D01*
X163221550Y-96962686D01*
X162898149Y-97121896D01*
X162694585Y-97234769D01*
X162515582Y-97356888D01*
X162381183Y-97472417D01*
X162311431Y-97565516D01*
X162306000Y-97589787D01*
X162331798Y-97621713D01*
X162416113Y-97659329D01*
X162569329Y-97705788D01*
X162801830Y-97764244D01*
X163120157Y-97836996D01*
X163379919Y-97902257D01*
X163622484Y-97982057D01*
X163864582Y-98084921D01*
X164122943Y-98219376D01*
X164414299Y-98393948D01*
X164755379Y-98617164D01*
X165058528Y-98824849D01*
X165404010Y-99065400D01*
X165668495Y-99252071D01*
X165854933Y-99388214D01*
X165966274Y-99477179D01*
X166005470Y-99522317D01*
X165975470Y-99526980D01*
X165879224Y-99494520D01*
X165719683Y-99428286D01*
X165507853Y-99335211D01*
X164888586Y-99075075D01*
X164295119Y-98859621D01*
X163696330Y-98679576D01*
X163061101Y-98525666D01*
X162358311Y-98388616D01*
X162293300Y-98377246D01*
X162102800Y-98344196D01*
X162102800Y-98573592D01*
X162132015Y-98779461D01*
X162210601Y-99029528D01*
X162324969Y-99288250D01*
X162461532Y-99520083D01*
X162468395Y-99529900D01*
X162566919Y-99669600D01*
X162401698Y-99669600D01*
X162184371Y-99708090D01*
X161966490Y-99809102D01*
X161788172Y-99950946D01*
X161722491Y-100036820D01*
X161651929Y-100233480D01*
X161623945Y-100496995D01*
X161638287Y-100802089D01*
X161694705Y-101123486D01*
X161734786Y-101270072D01*
X161801733Y-101457447D01*
X161902476Y-101702420D01*
X162023209Y-101972829D01*
X162146537Y-102229357D01*
X162448898Y-102832769D01*
X162042329Y-102432284D01*
X161852488Y-102239001D01*
X161668020Y-102040366D01*
X161514792Y-101864746D01*
X161444393Y-101776627D01*
X161149242Y-101302977D01*
X160942102Y-100783805D01*
X160858861Y-100449400D01*
X160849719Y-100385504D01*
X160858674Y-100329287D01*
X160897363Y-100268558D01*
X160977425Y-100191125D01*
X161110497Y-100084800D01*
X161308217Y-99937390D01*
X161439579Y-99841086D01*
X161642950Y-99692256D01*
X161087006Y-99692256D01*
X161080321Y-99703469D01*
X160936382Y-99844166D01*
X160766942Y-99960809D01*
X160603338Y-100035124D01*
X160485301Y-100050462D01*
X160413760Y-100045590D01*
X160248839Y-100038089D01*
X159998718Y-100028236D01*
X159671577Y-100016309D01*
X159275594Y-100002586D01*
X158818948Y-99987343D01*
X158309820Y-99970858D01*
X157756388Y-99953410D01*
X157166832Y-99935275D01*
X156549330Y-99916730D01*
X156502100Y-99915330D01*
X155784687Y-99893977D01*
X155162139Y-99875118D01*
X154627761Y-99858397D01*
X154174858Y-99843455D01*
X153796736Y-99829937D01*
X153486700Y-99817486D01*
X153238055Y-99805743D01*
X153044106Y-99794352D01*
X152898158Y-99782956D01*
X152793517Y-99771197D01*
X152723487Y-99758720D01*
X152681374Y-99745165D01*
X152660484Y-99730178D01*
X152654120Y-99713399D01*
X152654000Y-99710078D01*
X152657619Y-99693838D01*
X152672734Y-99679643D01*
X152705738Y-99667358D01*
X152763020Y-99656843D01*
X152850974Y-99647962D01*
X152975988Y-99640578D01*
X153144456Y-99634552D01*
X153362767Y-99629749D01*
X153637312Y-99626030D01*
X153974484Y-99623258D01*
X154380673Y-99621296D01*
X154862269Y-99620007D01*
X155425665Y-99619252D01*
X156077251Y-99618896D01*
X156823419Y-99618800D01*
X156902021Y-99618800D01*
X157658504Y-99618900D01*
X158319629Y-99619287D01*
X158891637Y-99620086D01*
X159380769Y-99621423D01*
X159793267Y-99623426D01*
X160135371Y-99626221D01*
X160413323Y-99629933D01*
X160633365Y-99634691D01*
X160801737Y-99640619D01*
X160924681Y-99647845D01*
X161008439Y-99656496D01*
X161059252Y-99666697D01*
X161083360Y-99678574D01*
X161087006Y-99692256D01*
X161642950Y-99692256D01*
X162052189Y-99392770D01*
X162034768Y-98481122D01*
X160629600Y-98481122D01*
X160581949Y-98671443D01*
X160451088Y-98847680D01*
X160255159Y-98988627D01*
X160158256Y-99032041D01*
X160072404Y-99063116D01*
X159985288Y-99090503D01*
X159890639Y-99114305D01*
X159782188Y-99134625D01*
X159653667Y-99151564D01*
X159498806Y-99165226D01*
X159311336Y-99175713D01*
X159084989Y-99183127D01*
X158813496Y-99187571D01*
X158490588Y-99189148D01*
X158109995Y-99187960D01*
X157665450Y-99184109D01*
X157150683Y-99177699D01*
X156559425Y-99168831D01*
X155885407Y-99157608D01*
X155122361Y-99144133D01*
X154264017Y-99128509D01*
X154262125Y-99128474D01*
X152441249Y-99095056D01*
X152471954Y-98941532D01*
X152496975Y-98830795D01*
X152514620Y-98777218D01*
X152514830Y-98777010D01*
X152566893Y-98769403D01*
X152703249Y-98755335D01*
X152906908Y-98736404D01*
X153160881Y-98714204D01*
X153365200Y-98697106D01*
X153732009Y-98672780D01*
X154163461Y-98653807D01*
X154641650Y-98640172D01*
X155148669Y-98631863D01*
X155666609Y-98628866D01*
X156177563Y-98631169D01*
X156663624Y-98638756D01*
X157106883Y-98651616D01*
X157489433Y-98669735D01*
X157793367Y-98693098D01*
X157861000Y-98700467D01*
X158299453Y-98743999D01*
X158713553Y-98769020D01*
X159088202Y-98775645D01*
X159408300Y-98763986D01*
X159658747Y-98734158D01*
X159824445Y-98686274D01*
X159825646Y-98685693D01*
X159967231Y-98582414D01*
X157939334Y-98582414D01*
X157910557Y-98591882D01*
X157856509Y-98580812D01*
X157747925Y-98561587D01*
X157567604Y-98537912D01*
X157345085Y-98513452D01*
X157206177Y-98500155D01*
X156982904Y-98480417D01*
X156794350Y-98464498D01*
X156665605Y-98454477D01*
X156625930Y-98452110D01*
X156624637Y-98450400D01*
X156219124Y-98450400D01*
X155274762Y-98450400D01*
X154928621Y-98448900D01*
X154672959Y-98443890D01*
X154645228Y-98442428D01*
X153973725Y-98442428D01*
X153656763Y-98471997D01*
X153453593Y-98491033D01*
X153262839Y-98509041D01*
X153162000Y-98518653D01*
X153014151Y-98532746D01*
X152899315Y-98543502D01*
X152895300Y-98543870D01*
X152828514Y-98521282D01*
X152806609Y-98423516D01*
X152806400Y-98406533D01*
X152829074Y-98154379D01*
X152889749Y-97862010D01*
X152977408Y-97578203D01*
X153014618Y-97484795D01*
X153096157Y-97320062D01*
X153159543Y-97241956D01*
X153199982Y-97253827D01*
X153212800Y-97346285D01*
X153250749Y-97511402D01*
X153356534Y-97719219D01*
X153518068Y-97949708D01*
X153708872Y-98168045D01*
X153973725Y-98442428D01*
X154645228Y-98442428D01*
X154496689Y-98434597D01*
X154388727Y-98420252D01*
X154337988Y-98400085D01*
X154330400Y-98384776D01*
X154358727Y-98300158D01*
X154434144Y-98156744D01*
X154542311Y-97976662D01*
X154668886Y-97782037D01*
X154799527Y-97594997D01*
X154919891Y-97437670D01*
X155007989Y-97339373D01*
X155186080Y-97168146D01*
X155324247Y-97440973D01*
X155507392Y-97760161D01*
X155707843Y-98014756D01*
X155954539Y-98241100D01*
X155973262Y-98256015D01*
X156219124Y-98450400D01*
X156624637Y-98450400D01*
X156598633Y-98416036D01*
X156626650Y-98323008D01*
X156696951Y-98191253D01*
X156796509Y-98038997D01*
X156912297Y-97884466D01*
X156981483Y-97803888D01*
X156600160Y-97803888D01*
X156596577Y-97918382D01*
X156587633Y-97947849D01*
X156511346Y-97982132D01*
X156369871Y-97972813D01*
X156187455Y-97924499D01*
X155988346Y-97841793D01*
X155963706Y-97829376D01*
X155792127Y-97718319D01*
X155634090Y-97580004D01*
X155593140Y-97534076D01*
X155515755Y-97416801D01*
X155432868Y-97258018D01*
X155355426Y-97084180D01*
X155294376Y-96921738D01*
X155260665Y-96797147D01*
X155263738Y-96738129D01*
X155315722Y-96750275D01*
X155432232Y-96803936D01*
X155590635Y-96888417D01*
X155634570Y-96913352D01*
X155913844Y-97066078D01*
X156132845Y-97166655D01*
X156312557Y-97223927D01*
X156413200Y-97241537D01*
X156510691Y-97279412D01*
X156543180Y-97332800D01*
X156552599Y-97426574D01*
X156572975Y-97575675D01*
X156584370Y-97650150D01*
X156600160Y-97803888D01*
X156981483Y-97803888D01*
X157031286Y-97745886D01*
X157140448Y-97641485D01*
X157226756Y-97589489D01*
X157244437Y-97586800D01*
X157306678Y-97628495D01*
X157376999Y-97731152D01*
X157388703Y-97754393D01*
X157457413Y-97874361D01*
X157567949Y-98042200D01*
X157699124Y-98226080D01*
X157730944Y-98268561D01*
X157855163Y-98434769D01*
X157922748Y-98534715D01*
X157939334Y-98582414D01*
X159967231Y-98582414D01*
X159980056Y-98573059D01*
X160086997Y-98422936D01*
X160094120Y-98398088D01*
X159799932Y-98398088D01*
X159788522Y-98442212D01*
X159742566Y-98480644D01*
X159625615Y-98524587D01*
X159436330Y-98548796D01*
X159324491Y-98552000D01*
X159004000Y-98552000D01*
X159004000Y-98383055D01*
X159037870Y-98229202D01*
X159123509Y-98099715D01*
X159236967Y-98020439D01*
X159345807Y-98014222D01*
X159437682Y-98065181D01*
X159565504Y-98161388D01*
X159641203Y-98227061D01*
X159753983Y-98334269D01*
X159799932Y-98398088D01*
X160094120Y-98398088D01*
X160132651Y-98263689D01*
X160103204Y-98123681D01*
X160101094Y-98120200D01*
X159970933Y-97994387D01*
X159749208Y-97881155D01*
X159646144Y-97848336D01*
X158676669Y-97848336D01*
X158669909Y-97885921D01*
X158645306Y-97981943D01*
X158621009Y-98136342D01*
X158610078Y-98234500D01*
X158589876Y-98391714D01*
X158559484Y-98471610D01*
X158506732Y-98498449D01*
X158477010Y-98499768D01*
X158369096Y-98476383D01*
X158218043Y-98418675D01*
X158140400Y-98381864D01*
X157938597Y-98240643D01*
X157741850Y-98020001D01*
X157690202Y-97948727D01*
X157587963Y-97794890D01*
X157518173Y-97674677D01*
X157493358Y-97610081D01*
X157494885Y-97605782D01*
X157553611Y-97606106D01*
X157675258Y-97635604D01*
X157767284Y-97665153D01*
X157954457Y-97715468D01*
X158185424Y-97757469D01*
X158359041Y-97777425D01*
X158542065Y-97795021D01*
X158641836Y-97816527D01*
X158676669Y-97848336D01*
X159646144Y-97848336D01*
X159445591Y-97784474D01*
X159116353Y-97715904D01*
X158686409Y-97642873D01*
X158338243Y-97581120D01*
X158053205Y-97526508D01*
X157812649Y-97474899D01*
X157597928Y-97422156D01*
X157390394Y-97364140D01*
X157171400Y-97296714D01*
X157048067Y-97256971D01*
X156583500Y-97094993D01*
X156179731Y-96927387D01*
X155800128Y-96736308D01*
X155408058Y-96503912D01*
X155129193Y-96322259D01*
X155106846Y-96307829D01*
X154701828Y-96307829D01*
X154668451Y-96406745D01*
X154617871Y-96487540D01*
X154554239Y-96602479D01*
X154499168Y-96754175D01*
X154448331Y-96959556D01*
X154397397Y-97235552D01*
X154352980Y-97523300D01*
X154318954Y-97663731D01*
X154259109Y-97729371D01*
X154158585Y-97722592D01*
X154002525Y-97645765D01*
X153916497Y-97592961D01*
X153758728Y-97472049D01*
X153622293Y-97332662D01*
X153577490Y-97271306D01*
X153469754Y-97041095D01*
X153384861Y-96754218D01*
X153367319Y-96652404D01*
X153062833Y-96652404D01*
X152935066Y-96772435D01*
X152770694Y-96985814D01*
X152648124Y-97260540D01*
X152577027Y-97561572D01*
X152567077Y-97853870D01*
X152593910Y-98008430D01*
X152618410Y-98128761D01*
X152598819Y-98187421D01*
X152521822Y-98188395D01*
X152374103Y-98135670D01*
X152289912Y-98099416D01*
X151995872Y-97921241D01*
X151776628Y-97677344D01*
X151630151Y-97364670D01*
X151555865Y-96994631D01*
X151548704Y-96756703D01*
X151573419Y-96539449D01*
X151624566Y-96366582D01*
X151696697Y-96261813D01*
X151728034Y-96244924D01*
X151821193Y-96220973D01*
X151978772Y-96184996D01*
X152154583Y-96147327D01*
X152493366Y-96076932D01*
X152778099Y-96364668D01*
X153062833Y-96652404D01*
X153367319Y-96652404D01*
X153333280Y-96454856D01*
X153324412Y-96203471D01*
X153339800Y-95935800D01*
X153720800Y-95939548D01*
X154006661Y-95957532D01*
X154240688Y-96010763D01*
X154366901Y-96059415D01*
X154561236Y-96151535D01*
X154669484Y-96228550D01*
X154701828Y-96307829D01*
X155106846Y-96307829D01*
X154903713Y-96176662D01*
X154684639Y-96044412D01*
X154498491Y-95940994D01*
X154381200Y-95885437D01*
X154162974Y-95826712D01*
X153874831Y-95786840D01*
X153546968Y-95767350D01*
X153209582Y-95769776D01*
X152892869Y-95795648D01*
X152818877Y-95806208D01*
X152611898Y-95842534D01*
X152360969Y-95892064D01*
X152090748Y-95949291D01*
X151825892Y-96008712D01*
X151591059Y-96064819D01*
X151410905Y-96112109D01*
X151320500Y-96140746D01*
X151256719Y-96146839D01*
X151233314Y-96081973D01*
X151231600Y-96028738D01*
X151253240Y-95876583D01*
X151327667Y-95757280D01*
X151469139Y-95658473D01*
X151691918Y-95567803D01*
X151805309Y-95531556D01*
X152487980Y-95356573D01*
X153113295Y-95264133D01*
X153680741Y-95254266D01*
X154189802Y-95327004D01*
X154365878Y-95375690D01*
X154569702Y-95452389D01*
X154826246Y-95566522D01*
X155101711Y-95702265D01*
X155346400Y-95834691D01*
X156070344Y-96230658D01*
X156734682Y-96557750D01*
X157349750Y-96820787D01*
X157835600Y-96995668D01*
X158074258Y-97072380D01*
X158291027Y-97138438D01*
X158504935Y-97198656D01*
X158735012Y-97257849D01*
X159000290Y-97320832D01*
X159319796Y-97392418D01*
X159712560Y-97477424D01*
X159886859Y-97514647D01*
X160089632Y-97566679D01*
X160260700Y-97626545D01*
X160368734Y-97682954D01*
X160379360Y-97692159D01*
X160455267Y-97809538D01*
X160529302Y-97991235D01*
X160589791Y-98200442D01*
X160625058Y-98400349D01*
X160629600Y-98481122D01*
X162034768Y-98481122D01*
X162019644Y-97689685D01*
X162011576Y-97284479D01*
X162003553Y-96912906D01*
X161995881Y-96586841D01*
X161992234Y-96447180D01*
X160812830Y-96447180D01*
X160774128Y-96515927D01*
X160694753Y-96637710D01*
X160590166Y-96790674D01*
X160475826Y-96952965D01*
X160367191Y-97102728D01*
X160279722Y-97218107D01*
X160228876Y-97277248D01*
X160223200Y-97280759D01*
X160165918Y-97272859D01*
X160029602Y-97250982D01*
X159835313Y-97218578D01*
X159628297Y-97183268D01*
X159058794Y-97085210D01*
X158680520Y-96762449D01*
X158341227Y-96493982D01*
X158034570Y-96299732D01*
X157739136Y-96167886D01*
X157467732Y-96093342D01*
X157150780Y-96028690D01*
X157353490Y-95900499D01*
X157666246Y-95656771D01*
X157882275Y-95383770D01*
X158001431Y-95083766D01*
X158023568Y-94759029D01*
X158003289Y-94665186D01*
X156968761Y-94665186D01*
X156900029Y-94827237D01*
X156838150Y-94890712D01*
X156659557Y-94982340D01*
X156487754Y-94973119D01*
X156334691Y-94871309D01*
X156229950Y-94709642D01*
X156225910Y-94537393D01*
X156315288Y-94367850D01*
X156456907Y-94261510D01*
X156630677Y-94232018D01*
X156799895Y-94281504D01*
X156870400Y-94335600D01*
X156959596Y-94489074D01*
X156968761Y-94665186D01*
X158003289Y-94665186D01*
X157948539Y-94411831D01*
X157776196Y-94044441D01*
X157681642Y-93909406D01*
X155651200Y-93909406D01*
X155630864Y-93957190D01*
X155576821Y-94073985D01*
X155499526Y-94237297D01*
X155474621Y-94289380D01*
X155370642Y-94531376D01*
X155326206Y-94701337D01*
X155329139Y-94781738D01*
X155341259Y-94869236D01*
X155296741Y-94883186D01*
X155242066Y-94868132D01*
X155154276Y-94842452D01*
X154987863Y-94795671D01*
X154762286Y-94733189D01*
X154497003Y-94660407D01*
X154314428Y-94610659D01*
X154043508Y-94536352D01*
X153809107Y-94470756D01*
X153627837Y-94418624D01*
X153516308Y-94384712D01*
X153488574Y-94374307D01*
X153531031Y-94359575D01*
X153659030Y-94327444D01*
X153858625Y-94281114D01*
X154115869Y-94223788D01*
X154416816Y-94158669D01*
X154561695Y-94127906D01*
X154878676Y-94061486D01*
X155159375Y-94003625D01*
X155389586Y-93957173D01*
X155555108Y-93924978D01*
X155641737Y-93909888D01*
X155651200Y-93909406D01*
X157681642Y-93909406D01*
X157506394Y-93659130D01*
X157498959Y-93649975D01*
X157393384Y-93514051D01*
X157326085Y-93414766D01*
X157309974Y-93371406D01*
X157312109Y-93370876D01*
X157375144Y-93394674D01*
X157496264Y-93455803D01*
X157612838Y-93520384D01*
X157920636Y-93749362D01*
X158215287Y-94073787D01*
X158491529Y-94487813D01*
X158506273Y-94513400D01*
X158749122Y-94932419D01*
X158954534Y-95271916D01*
X159131234Y-95542872D01*
X159287948Y-95756274D01*
X159433402Y-95923104D01*
X159576320Y-96054346D01*
X159725428Y-96160984D01*
X159888651Y-96253589D01*
X160085349Y-96337960D01*
X160284858Y-96379458D01*
X160490160Y-96389914D01*
X160687472Y-96399139D01*
X160795031Y-96421745D01*
X160812830Y-96447180D01*
X161992234Y-96447180D01*
X161988863Y-96318161D01*
X161982806Y-96118742D01*
X161978015Y-96000460D01*
X161975516Y-95972199D01*
X161924894Y-95978181D01*
X161800353Y-96006729D01*
X161625596Y-96052253D01*
X161563466Y-96069347D01*
X161140299Y-96157565D01*
X160735646Y-96185335D01*
X160371010Y-96152691D01*
X160083925Y-96066938D01*
X159823815Y-95907250D01*
X159543623Y-95650438D01*
X159245216Y-95298577D01*
X158930463Y-94853743D01*
X158781651Y-94620007D01*
X158589781Y-94312871D01*
X158436568Y-94078180D01*
X158309575Y-93900560D01*
X158196362Y-93764639D01*
X158084492Y-93655044D01*
X157961526Y-93556401D01*
X157865900Y-93488203D01*
X157607000Y-93309014D01*
X157799584Y-93336851D01*
X157951258Y-93370460D01*
X158089314Y-93431865D01*
X158226091Y-93532442D01*
X158373930Y-93683564D01*
X158545171Y-93896606D01*
X158752153Y-94182944D01*
X158814341Y-94272239D01*
X159092604Y-94666486D01*
X159329869Y-94983110D01*
X159536595Y-95232094D01*
X159723241Y-95423419D01*
X159900267Y-95567070D01*
X160078132Y-95673027D01*
X160267295Y-95751274D01*
X160408870Y-95794056D01*
X160636186Y-95837131D01*
X160917649Y-95864346D01*
X161220240Y-95875132D01*
X161510945Y-95868924D01*
X161756746Y-95845154D01*
X161879228Y-95819311D01*
X162196336Y-95684550D01*
X162431120Y-95490274D01*
X162583917Y-95236037D01*
X162655069Y-94921393D01*
X162660765Y-94792047D01*
X162617815Y-94435213D01*
X162487218Y-94129732D01*
X162269246Y-93876042D01*
X161964173Y-93674578D01*
X161961418Y-93673197D01*
X161640667Y-93557547D01*
X161332358Y-93529378D01*
X161049524Y-93582420D01*
X160805193Y-93710403D01*
X160612398Y-93907056D01*
X160484167Y-94166108D01*
X160437425Y-94406548D01*
X160456514Y-94699584D01*
X160563176Y-94943089D01*
X160752990Y-95130431D01*
X160998076Y-95247740D01*
X161221840Y-95281793D01*
X161446519Y-95252571D01*
X161653803Y-95171648D01*
X161825381Y-95050597D01*
X161942944Y-94900993D01*
X161988180Y-94734408D01*
X161973090Y-94631444D01*
X161893164Y-94456665D01*
X161790925Y-94336592D01*
X161683487Y-94279420D01*
X161587966Y-94293345D01*
X161521477Y-94386559D01*
X161514090Y-94411686D01*
X161499747Y-94532585D01*
X161535607Y-94644014D01*
X161606035Y-94753301D01*
X161637518Y-94849550D01*
X161574231Y-94921751D01*
X161413872Y-94972157D01*
X161375500Y-94978931D01*
X161166478Y-94970664D01*
X161004287Y-94873141D01*
X160893816Y-94689647D01*
X160879147Y-94645567D01*
X160857647Y-94419461D01*
X160924918Y-94216930D01*
X161068684Y-94050961D01*
X161276671Y-93934543D01*
X161536603Y-93880662D01*
X161604193Y-93878478D01*
X161910081Y-93912047D01*
X162145619Y-94016314D01*
X162317957Y-94196281D01*
X162434246Y-94456951D01*
X162435042Y-94459617D01*
X162488693Y-94773245D01*
X162457491Y-95043471D01*
X162350746Y-95265052D01*
X162177766Y-95432746D01*
X161947861Y-95541311D01*
X161670340Y-95585503D01*
X161354511Y-95560080D01*
X161009684Y-95459799D01*
X160814194Y-95372424D01*
X160515318Y-95201759D01*
X160193961Y-94976624D01*
X159838096Y-94687852D01*
X159435695Y-94326276D01*
X159410086Y-94302326D01*
X159197372Y-94105346D01*
X158990603Y-93918016D01*
X158810784Y-93759100D01*
X158678922Y-93647357D01*
X158658443Y-93630975D01*
X158542586Y-93533213D01*
X158473152Y-93461298D01*
X158463335Y-93436932D01*
X158521622Y-93443032D01*
X158639829Y-93493287D01*
X158793813Y-93574790D01*
X158959432Y-93674633D01*
X159112542Y-93779909D01*
X159131000Y-93793882D01*
X159245163Y-93889129D01*
X159410222Y-94036632D01*
X159604991Y-94217046D01*
X159808282Y-94411029D01*
X159829500Y-94431631D01*
X160324800Y-94913417D01*
X160324800Y-94607182D01*
X160360844Y-94221758D01*
X160466417Y-93892989D01*
X160624780Y-93647528D01*
X160697109Y-93560464D01*
X160742969Y-93481483D01*
X160768383Y-93384694D01*
X160779373Y-93244205D01*
X160781961Y-93034124D01*
X160782000Y-92971562D01*
X160801835Y-92515901D01*
X160859244Y-92112067D01*
X160951085Y-91771844D01*
X161074219Y-91507014D01*
X161218264Y-91335209D01*
X161276918Y-91294139D01*
X161288839Y-91321725D01*
X161268509Y-91414600D01*
X161198496Y-91733154D01*
X161163417Y-92015336D01*
X161162799Y-92295863D01*
X161196169Y-92609454D01*
X161248103Y-92913200D01*
X161296839Y-93122100D01*
X161353714Y-93247410D01*
X161430547Y-93307074D01*
X161515771Y-93319599D01*
X161730939Y-93355696D01*
X161975788Y-93453073D01*
X162214477Y-93595365D01*
X162340734Y-93696313D01*
X162577513Y-93910684D01*
X162727230Y-93627842D01*
X163061716Y-93084186D01*
X163452325Y-92617749D01*
X163910108Y-92217772D01*
X164446118Y-91873496D01*
X164628412Y-91777148D01*
X164819119Y-91686648D01*
X164925038Y-91650658D01*
X164945872Y-91669132D01*
X164881323Y-91742023D01*
X164809668Y-91805000D01*
X164389500Y-92180184D01*
X164046509Y-92537710D01*
X163763688Y-92898026D01*
X163524031Y-93281580D01*
X163423324Y-93472000D01*
X163306958Y-93709310D01*
X163190913Y-93956436D01*
X163082852Y-94195756D01*
X162990437Y-94409647D01*
X162921331Y-94580487D01*
X162883195Y-94690652D01*
X162879466Y-94722799D01*
X162932252Y-94717444D01*
X163063844Y-94690436D01*
X163254823Y-94646089D01*
X163485771Y-94588715D01*
X163502955Y-94584317D01*
X164240726Y-94444933D01*
X165002629Y-94395025D01*
X165766182Y-94434398D01*
X166508904Y-94562858D01*
X166700200Y-94612031D01*
X166954200Y-94682115D01*
X168021140Y-94682115D01*
X167986488Y-94657052D01*
X167870021Y-94569617D01*
X167656935Y-94413225D01*
X167442520Y-94266311D01*
X167257313Y-94149326D01*
X167168083Y-94099542D01*
X166839292Y-93964260D01*
X166436989Y-93849239D01*
X165988258Y-93760488D01*
X165520182Y-93704012D01*
X165328600Y-93691564D01*
X164719000Y-93662479D01*
X165135702Y-93241649D01*
X165327606Y-93041471D01*
X165472855Y-92869427D01*
X165593270Y-92694124D01*
X165710671Y-92484172D01*
X165830874Y-92241548D01*
X166020094Y-91880859D01*
X166206863Y-91601916D01*
X166407659Y-91386643D01*
X166638958Y-91216965D01*
X166878759Y-91091942D01*
X167175397Y-90957400D01*
X166810799Y-90955152D01*
X166651559Y-90953581D01*
X166411455Y-90950452D01*
X166111208Y-90946072D01*
X165771535Y-90940748D01*
X165413157Y-90934786D01*
X165277800Y-90932443D01*
X164899864Y-90926337D01*
X164607218Y-90923626D01*
X164383584Y-90925338D01*
X164212680Y-90932500D01*
X164078225Y-90946138D01*
X163963939Y-90967281D01*
X163853541Y-90996954D01*
X163753800Y-91028602D01*
X163204529Y-91251468D01*
X162717564Y-91536887D01*
X162405542Y-91784159D01*
X162090558Y-92069203D01*
X162126871Y-91843501D01*
X162234310Y-91481000D01*
X162430218Y-91135997D01*
X162701468Y-90825326D01*
X163034933Y-90565822D01*
X163195000Y-90473734D01*
X163499800Y-90315516D01*
X162864800Y-90340459D01*
G36*
X163017200Y-100603398D02*
G01*
X163058032Y-101020054D01*
X163172174Y-101454933D01*
X163347103Y-101873998D01*
X163570293Y-102243212D01*
X163664656Y-102362782D01*
X163898242Y-102567810D01*
X164231586Y-102753660D01*
X164664670Y-102920326D01*
X165197477Y-103067805D01*
X165829989Y-103196091D01*
X166562189Y-103305179D01*
X166979600Y-103354023D01*
X167282759Y-103386535D01*
X167499375Y-103408568D01*
X167643967Y-103420103D01*
X167731054Y-103421120D01*
X167775153Y-103411597D01*
X167790783Y-103391514D01*
X167792462Y-103360851D01*
X167792400Y-103352876D01*
X167772965Y-103257888D01*
X167719947Y-103090269D01*
X167641285Y-102870116D01*
X167544914Y-102617527D01*
X167438770Y-102352601D01*
X167330789Y-102095437D01*
X167228907Y-101866131D01*
X167141061Y-101684784D01*
X167113423Y-101633361D01*
X167015079Y-101468071D01*
X166920487Y-101345647D01*
X166811718Y-101257985D01*
X166670844Y-101196981D01*
X166479937Y-101154533D01*
X166221067Y-101122535D01*
X165926559Y-101096887D01*
X165142218Y-101004933D01*
X164428549Y-100858657D01*
X163767840Y-100653839D01*
X163346757Y-100482111D01*
X163017200Y-100334249D01*
X163017200Y-100603398D01*
G37*
X163017200Y-100603398D02*
X163058032Y-101020054D01*
X163172174Y-101454933D01*
X163347103Y-101873998D01*
X163570293Y-102243212D01*
X163664656Y-102362782D01*
X163898242Y-102567810D01*
X164231586Y-102753660D01*
X164664670Y-102920326D01*
X165197477Y-103067805D01*
X165829989Y-103196091D01*
X166562189Y-103305179D01*
X166979600Y-103354023D01*
X167282759Y-103386535D01*
X167499375Y-103408568D01*
X167643967Y-103420103D01*
X167731054Y-103421120D01*
X167775153Y-103411597D01*
X167790783Y-103391514D01*
X167792462Y-103360851D01*
X167792400Y-103352876D01*
X167772965Y-103257888D01*
X167719947Y-103090269D01*
X167641285Y-102870116D01*
X167544914Y-102617527D01*
X167438770Y-102352601D01*
X167330789Y-102095437D01*
X167228907Y-101866131D01*
X167141061Y-101684784D01*
X167113423Y-101633361D01*
X167015079Y-101468071D01*
X166920487Y-101345647D01*
X166811718Y-101257985D01*
X166670844Y-101196981D01*
X166479937Y-101154533D01*
X166221067Y-101122535D01*
X165926559Y-101096887D01*
X165142218Y-101004933D01*
X164428549Y-100858657D01*
X163767840Y-100653839D01*
X163346757Y-100482111D01*
X163017200Y-100334249D01*
X163017200Y-100603398D01*
G36*
X167035826Y-96135366D02*
G01*
X166882261Y-96198638D01*
X166822013Y-96238037D01*
X166324893Y-96582011D01*
X165886199Y-96854521D01*
X165508573Y-97055489D01*
X165327344Y-97146159D01*
X165187356Y-97223017D01*
X165109354Y-97274354D01*
X165100000Y-97286146D01*
X165141843Y-97326748D01*
X165243897Y-97379958D01*
X165257022Y-97385514D01*
X165582007Y-97554073D01*
X165935328Y-97797428D01*
X166297999Y-98100469D01*
X166651037Y-98448083D01*
X166801800Y-98615139D01*
X166932483Y-98760177D01*
X167038713Y-98850098D01*
X167147549Y-98891906D01*
X167286051Y-98892604D01*
X167481278Y-98859193D01*
X167625262Y-98828239D01*
X168321060Y-98628558D01*
X168974768Y-98346337D01*
X169151904Y-98250998D01*
X169370335Y-98123084D01*
X169597513Y-97982191D01*
X169817848Y-97838983D01*
X170015752Y-97704121D01*
X170175637Y-97588266D01*
X170281912Y-97502082D01*
X170318989Y-97456230D01*
X170317754Y-97453620D01*
X170261684Y-97431304D01*
X170130143Y-97390388D01*
X169946004Y-97337783D01*
X169830746Y-97306415D01*
X169626770Y-97249599D01*
X169451702Y-97193519D01*
X169286320Y-97129211D01*
X169111401Y-97047713D01*
X168907726Y-96940064D01*
X168656072Y-96797300D01*
X168337219Y-96610459D01*
X168333791Y-96608435D01*
X167963481Y-96398756D01*
X167660538Y-96249552D01*
X167412955Y-96157880D01*
X167208720Y-96120799D01*
X167035826Y-96135366D01*
G37*
X167035826Y-96135366D02*
X166882261Y-96198638D01*
X166822013Y-96238037D01*
X166324893Y-96582011D01*
X165886199Y-96854521D01*
X165508573Y-97055489D01*
X165327344Y-97146159D01*
X165187356Y-97223017D01*
X165109354Y-97274354D01*
X165100000Y-97286146D01*
X165141843Y-97326748D01*
X165243897Y-97379958D01*
X165257022Y-97385514D01*
X165582007Y-97554073D01*
X165935328Y-97797428D01*
X166297999Y-98100469D01*
X166651037Y-98448083D01*
X166801800Y-98615139D01*
X166932483Y-98760177D01*
X167038713Y-98850098D01*
X167147549Y-98891906D01*
X167286051Y-98892604D01*
X167481278Y-98859193D01*
X167625262Y-98828239D01*
X168321060Y-98628558D01*
X168974768Y-98346337D01*
X169151904Y-98250998D01*
X169370335Y-98123084D01*
X169597513Y-97982191D01*
X169817848Y-97838983D01*
X170015752Y-97704121D01*
X170175637Y-97588266D01*
X170281912Y-97502082D01*
X170318989Y-97456230D01*
X170317754Y-97453620D01*
X170261684Y-97431304D01*
X170130143Y-97390388D01*
X169946004Y-97337783D01*
X169830746Y-97306415D01*
X169626770Y-97249599D01*
X169451702Y-97193519D01*
X169286320Y-97129211D01*
X169111401Y-97047713D01*
X168907726Y-96940064D01*
X168656072Y-96797300D01*
X168337219Y-96610459D01*
X168333791Y-96608435D01*
X167963481Y-96398756D01*
X167660538Y-96249552D01*
X167412955Y-96157880D01*
X167208720Y-96120799D01*
X167035826Y-96135366D01*
G36*
X166443000Y-91864542D02*
G01*
X166363527Y-91910670D01*
X166295119Y-91999428D01*
X166228846Y-92113100D01*
X166137359Y-92257823D01*
X165999671Y-92454906D01*
X165834411Y-92678480D01*
X165660210Y-92902680D01*
X165659633Y-92903402D01*
X165506363Y-93097893D01*
X165381133Y-93261921D01*
X165295118Y-93380452D01*
X165259498Y-93438451D01*
X165259537Y-93441596D01*
X165315172Y-93454908D01*
X165453486Y-93479741D01*
X165656556Y-93513385D01*
X165906463Y-93553131D01*
X166185285Y-93596269D01*
X166475102Y-93640090D01*
X166757993Y-93681884D01*
X167016037Y-93718943D01*
X167231313Y-93748557D01*
X167385901Y-93768017D01*
X167461879Y-93774613D01*
X167462200Y-93774604D01*
X167561886Y-93755762D01*
X167719109Y-93709865D01*
X167872060Y-93656894D01*
X168468955Y-93384381D01*
X169050084Y-93018635D01*
X169377063Y-92764821D01*
X169352049Y-92748510D01*
X169250198Y-92737826D01*
X169148463Y-92735400D01*
X169033510Y-92729030D01*
X168912312Y-92705661D01*
X168766906Y-92658905D01*
X168579331Y-92582372D01*
X168331621Y-92469674D01*
X168122600Y-92370527D01*
X167679234Y-92168644D01*
X167312656Y-92024688D01*
X167017625Y-91936640D01*
X166969042Y-91926027D01*
X166723634Y-91877812D01*
X166555661Y-91855453D01*
X166443000Y-91864542D01*
G37*
X166443000Y-91864542D02*
X166363527Y-91910670D01*
X166295119Y-91999428D01*
X166228846Y-92113100D01*
X166137359Y-92257823D01*
X165999671Y-92454906D01*
X165834411Y-92678480D01*
X165660210Y-92902680D01*
X165659633Y-92903402D01*
X165506363Y-93097893D01*
X165381133Y-93261921D01*
X165295118Y-93380452D01*
X165259498Y-93438451D01*
X165259537Y-93441596D01*
X165315172Y-93454908D01*
X165453486Y-93479741D01*
X165656556Y-93513385D01*
X165906463Y-93553131D01*
X166185285Y-93596269D01*
X166475102Y-93640090D01*
X166757993Y-93681884D01*
X167016037Y-93718943D01*
X167231313Y-93748557D01*
X167385901Y-93768017D01*
X167461879Y-93774613D01*
X167462200Y-93774604D01*
X167561886Y-93755762D01*
X167719109Y-93709865D01*
X167872060Y-93656894D01*
X168468955Y-93384381D01*
X169050084Y-93018635D01*
X169377063Y-92764821D01*
X169352049Y-92748510D01*
X169250198Y-92737826D01*
X169148463Y-92735400D01*
X169033510Y-92729030D01*
X168912312Y-92705661D01*
X168766906Y-92658905D01*
X168579331Y-92582372D01*
X168331621Y-92469674D01*
X168122600Y-92370527D01*
X167679234Y-92168644D01*
X167312656Y-92024688D01*
X167017625Y-91936640D01*
X166969042Y-91926027D01*
X166723634Y-91877812D01*
X166555661Y-91855453D01*
X166443000Y-91864542D01*
D10*
X147560000Y-89331252D02*
X147560000Y-87908748D01*
X144840000Y-89331252D02*
X144840000Y-87908748D01*
X148765000Y-90118752D02*
X148765000Y-89596248D01*
X150235000Y-90118752D02*
X150235000Y-89596248D01*
X151040000Y-89303335D02*
X151040000Y-89071665D01*
X151760000Y-89303335D02*
X151760000Y-89071665D01*
X176211252Y-85960000D02*
X174788748Y-85960000D01*
X176211252Y-88680000D02*
X174788748Y-88680000D01*
X175723752Y-91355000D02*
X175201248Y-91355000D01*
X175723752Y-89885000D02*
X175201248Y-89885000D01*
X172760000Y-90735835D02*
X172760000Y-90504165D01*
X172040000Y-90735835D02*
X172040000Y-90504165D01*
X170540000Y-90735835D02*
X170540000Y-90504165D01*
X171260000Y-90735835D02*
X171260000Y-90504165D01*
X154040000Y-107303335D02*
X154040000Y-107071665D01*
X154760000Y-107303335D02*
X154760000Y-107071665D01*
X165190000Y-81076748D02*
X165190000Y-82499252D01*
X162470000Y-81076748D02*
X162470000Y-82499252D01*
X161009000Y-84828748D02*
X161009000Y-85351252D01*
X159539000Y-84828748D02*
X159539000Y-85351252D01*
X162440000Y-86304165D02*
X162440000Y-86535835D01*
X163160000Y-86304165D02*
X163160000Y-86535835D01*
X164560000Y-86304165D02*
X164560000Y-86535835D01*
X163840000Y-86304165D02*
X163840000Y-86535835D01*
X166476000Y-106795835D02*
X166476000Y-106564165D01*
X165756000Y-106795835D02*
X165756000Y-106564165D01*
X169391000Y-107703252D02*
X169391000Y-107180748D01*
X167921000Y-107703252D02*
X167921000Y-107180748D01*
X170461000Y-107703252D02*
X170461000Y-107180748D01*
X171931000Y-107703252D02*
X171931000Y-107180748D01*
X174471000Y-109227252D02*
X174471000Y-108704748D01*
X173001000Y-109227252D02*
X173001000Y-108704748D01*
X172185000Y-111498748D02*
X172185000Y-112021252D01*
X170715000Y-111498748D02*
X170715000Y-112021252D01*
X167921000Y-111498748D02*
X167921000Y-112021252D01*
X169391000Y-111498748D02*
X169391000Y-112021252D01*
X180601252Y-136879000D02*
X180078748Y-136879000D01*
X180601252Y-135409000D02*
X180078748Y-135409000D01*
X185158748Y-136879000D02*
X185681252Y-136879000D01*
X185158748Y-135409000D02*
X185681252Y-135409000D01*
X185666748Y-88111000D02*
X186189252Y-88111000D01*
X185666748Y-86641000D02*
X186189252Y-86641000D01*
X185812165Y-84984000D02*
X186043835Y-84984000D01*
X185812165Y-85704000D02*
X186043835Y-85704000D01*
X170152436Y-114257000D02*
X170606564Y-114257000D01*
X170152436Y-115727000D02*
X170606564Y-115727000D01*
X170174936Y-116867000D02*
X170629064Y-116867000D01*
X170174936Y-118337000D02*
X170629064Y-118337000D01*
X172627064Y-103245000D02*
X172172936Y-103245000D01*
X172627064Y-104715000D02*
X172172936Y-104715000D01*
X187733000Y-130783064D02*
X187733000Y-130328936D01*
X189203000Y-130783064D02*
X189203000Y-130328936D01*
X176811000Y-66828936D02*
X176811000Y-67283064D01*
X178281000Y-66828936D02*
X178281000Y-67283064D01*
X184177000Y-66828936D02*
X184177000Y-67283064D01*
X185647000Y-66828936D02*
X185647000Y-67283064D01*
X125774644Y-128697600D02*
X125320516Y-128697600D01*
X125774644Y-130167600D02*
X125320516Y-130167600D01*
X125774644Y-127767600D02*
X125320516Y-127767600D01*
X125774644Y-126297600D02*
X125320516Y-126297600D01*
X125774644Y-123697600D02*
X125320516Y-123697600D01*
X125774644Y-125167600D02*
X125320516Y-125167600D01*
X125774644Y-122467600D02*
X125320516Y-122467600D01*
X125774644Y-120997600D02*
X125320516Y-120997600D01*
X125774644Y-118497600D02*
X125320516Y-118497600D01*
X125774644Y-119967600D02*
X125320516Y-119967600D01*
X125774644Y-117667600D02*
X125320516Y-117667600D01*
X125774644Y-116197600D02*
X125320516Y-116197600D01*
X125774644Y-113547600D02*
X125320516Y-113547600D01*
X125774644Y-115017600D02*
X125320516Y-115017600D01*
X125777064Y-111085000D02*
X125322936Y-111085000D01*
X125777064Y-112555000D02*
X125322936Y-112555000D01*
X137427064Y-130155000D02*
X136972936Y-130155000D01*
X137427064Y-128685000D02*
X136972936Y-128685000D01*
X137427064Y-125155000D02*
X136972936Y-125155000D01*
X137427064Y-123685000D02*
X136972936Y-123685000D01*
X137427064Y-120985000D02*
X136972936Y-120985000D01*
X137427064Y-122455000D02*
X136972936Y-122455000D01*
X137313704Y-119885120D02*
X136859576Y-119885120D01*
X137313704Y-118415120D02*
X136859576Y-118415120D01*
X137303704Y-116145120D02*
X136849576Y-116145120D01*
X137303704Y-117615120D02*
X136849576Y-117615120D01*
X137293704Y-115205120D02*
X136839576Y-115205120D01*
X137293704Y-113735120D02*
X136839576Y-113735120D01*
X137277064Y-112555000D02*
X136822936Y-112555000D01*
X137277064Y-111085000D02*
X136822936Y-111085000D01*
D13*
X146915142Y-109085142D02*
X146962761Y-109037523D01*
X147010380Y-108894666D01*
X147010380Y-108799428D01*
X146962761Y-108656571D01*
X146867523Y-108561333D01*
X146772285Y-108513714D01*
X146581809Y-108466095D01*
X146438952Y-108466095D01*
X146248476Y-108513714D01*
X146153238Y-108561333D01*
X146058000Y-108656571D01*
X146010380Y-108799428D01*
X146010380Y-108894666D01*
X146058000Y-109037523D01*
X146105619Y-109085142D01*
X147010380Y-110037523D02*
X147010380Y-109466095D01*
X147010380Y-109751809D02*
X146010380Y-109751809D01*
X146153238Y-109656571D01*
X146248476Y-109561333D01*
X146296095Y-109466095D01*
X146010380Y-110942285D02*
X146010380Y-110466095D01*
X146486571Y-110418476D01*
X146438952Y-110466095D01*
X146391333Y-110561333D01*
X146391333Y-110799428D01*
X146438952Y-110894666D01*
X146486571Y-110942285D01*
X146581809Y-110989904D01*
X146819904Y-110989904D01*
X146915142Y-110942285D01*
X146962761Y-110894666D01*
X147010380Y-110799428D01*
X147010380Y-110561333D01*
X146962761Y-110466095D01*
X146915142Y-110418476D01*
X134246857Y-127706380D02*
X134580190Y-127230190D01*
X134818285Y-127706380D02*
X134818285Y-126706380D01*
X134437333Y-126706380D01*
X134342095Y-126754000D01*
X134294476Y-126801619D01*
X134246857Y-126896857D01*
X134246857Y-127039714D01*
X134294476Y-127134952D01*
X134342095Y-127182571D01*
X134437333Y-127230190D01*
X134818285Y-127230190D01*
X133913523Y-126706380D02*
X133294476Y-126706380D01*
X133627809Y-127087333D01*
X133484952Y-127087333D01*
X133389714Y-127134952D01*
X133342095Y-127182571D01*
X133294476Y-127277809D01*
X133294476Y-127515904D01*
X133342095Y-127611142D01*
X133389714Y-127658761D01*
X133484952Y-127706380D01*
X133770666Y-127706380D01*
X133865904Y-127658761D01*
X133913523Y-127611142D01*
X132675428Y-126706380D02*
X132580190Y-126706380D01*
X132484952Y-126754000D01*
X132437333Y-126801619D01*
X132389714Y-126896857D01*
X132342095Y-127087333D01*
X132342095Y-127325428D01*
X132389714Y-127515904D01*
X132437333Y-127611142D01*
X132484952Y-127658761D01*
X132580190Y-127706380D01*
X132675428Y-127706380D01*
X132770666Y-127658761D01*
X132818285Y-127611142D01*
X132865904Y-127515904D01*
X132913523Y-127325428D01*
X132913523Y-127087333D01*
X132865904Y-126896857D01*
X132818285Y-126801619D01*
X132770666Y-126754000D01*
X132675428Y-126706380D01*
X154027142Y-109085142D02*
X154074761Y-109037523D01*
X154122380Y-108894666D01*
X154122380Y-108799428D01*
X154074761Y-108656571D01*
X153979523Y-108561333D01*
X153884285Y-108513714D01*
X153693809Y-108466095D01*
X153550952Y-108466095D01*
X153360476Y-108513714D01*
X153265238Y-108561333D01*
X153170000Y-108656571D01*
X153122380Y-108799428D01*
X153122380Y-108894666D01*
X153170000Y-109037523D01*
X153217619Y-109085142D01*
X154122380Y-110037523D02*
X154122380Y-109466095D01*
X154122380Y-109751809D02*
X153122380Y-109751809D01*
X153265238Y-109656571D01*
X153360476Y-109561333D01*
X153408095Y-109466095D01*
X153122380Y-110894666D02*
X153122380Y-110704190D01*
X153170000Y-110608952D01*
X153217619Y-110561333D01*
X153360476Y-110466095D01*
X153550952Y-110418476D01*
X153931904Y-110418476D01*
X154027142Y-110466095D01*
X154074761Y-110513714D01*
X154122380Y-110608952D01*
X154122380Y-110799428D01*
X154074761Y-110894666D01*
X154027142Y-110942285D01*
X153931904Y-110989904D01*
X153693809Y-110989904D01*
X153598571Y-110942285D01*
X153550952Y-110894666D01*
X153503333Y-110799428D01*
X153503333Y-110608952D01*
X153550952Y-110513714D01*
X153598571Y-110466095D01*
X153693809Y-110418476D01*
X144375142Y-88453333D02*
X144422761Y-88405714D01*
X144470380Y-88262857D01*
X144470380Y-88167619D01*
X144422761Y-88024761D01*
X144327523Y-87929523D01*
X144232285Y-87881904D01*
X144041809Y-87834285D01*
X143898952Y-87834285D01*
X143708476Y-87881904D01*
X143613238Y-87929523D01*
X143518000Y-88024761D01*
X143470380Y-88167619D01*
X143470380Y-88262857D01*
X143518000Y-88405714D01*
X143565619Y-88453333D01*
X143470380Y-89310476D02*
X143470380Y-89120000D01*
X143518000Y-89024761D01*
X143565619Y-88977142D01*
X143708476Y-88881904D01*
X143898952Y-88834285D01*
X144279904Y-88834285D01*
X144375142Y-88881904D01*
X144422761Y-88929523D01*
X144470380Y-89024761D01*
X144470380Y-89215238D01*
X144422761Y-89310476D01*
X144375142Y-89358095D01*
X144279904Y-89405714D01*
X144041809Y-89405714D01*
X143946571Y-89358095D01*
X143898952Y-89310476D01*
X143851333Y-89215238D01*
X143851333Y-89024761D01*
X143898952Y-88929523D01*
X143946571Y-88881904D01*
X144041809Y-88834285D01*
X149455142Y-92543333D02*
X149502761Y-92495714D01*
X149550380Y-92352857D01*
X149550380Y-92257619D01*
X149502761Y-92114761D01*
X149407523Y-92019523D01*
X149312285Y-91971904D01*
X149121809Y-91924285D01*
X148978952Y-91924285D01*
X148788476Y-91971904D01*
X148693238Y-92019523D01*
X148598000Y-92114761D01*
X148550380Y-92257619D01*
X148550380Y-92352857D01*
X148598000Y-92495714D01*
X148645619Y-92543333D01*
X148550380Y-92876666D02*
X148550380Y-93543333D01*
X149550380Y-93114761D01*
X151741142Y-86701333D02*
X151788761Y-86653714D01*
X151836380Y-86510857D01*
X151836380Y-86415619D01*
X151788761Y-86272761D01*
X151693523Y-86177523D01*
X151598285Y-86129904D01*
X151407809Y-86082285D01*
X151264952Y-86082285D01*
X151074476Y-86129904D01*
X150979238Y-86177523D01*
X150884000Y-86272761D01*
X150836380Y-86415619D01*
X150836380Y-86510857D01*
X150884000Y-86653714D01*
X150931619Y-86701333D01*
X151264952Y-87272761D02*
X151217333Y-87177523D01*
X151169714Y-87129904D01*
X151074476Y-87082285D01*
X151026857Y-87082285D01*
X150931619Y-87129904D01*
X150884000Y-87177523D01*
X150836380Y-87272761D01*
X150836380Y-87463238D01*
X150884000Y-87558476D01*
X150931619Y-87606095D01*
X151026857Y-87653714D01*
X151074476Y-87653714D01*
X151169714Y-87606095D01*
X151217333Y-87558476D01*
X151264952Y-87463238D01*
X151264952Y-87272761D01*
X151312571Y-87177523D01*
X151360190Y-87129904D01*
X151455428Y-87082285D01*
X151645904Y-87082285D01*
X151741142Y-87129904D01*
X151788761Y-87177523D01*
X151836380Y-87272761D01*
X151836380Y-87463238D01*
X151788761Y-87558476D01*
X151741142Y-87606095D01*
X151645904Y-87653714D01*
X151455428Y-87653714D01*
X151360190Y-87606095D01*
X151312571Y-87558476D01*
X151264952Y-87463238D01*
X175666666Y-85377142D02*
X175714285Y-85424761D01*
X175857142Y-85472380D01*
X175952380Y-85472380D01*
X176095238Y-85424761D01*
X176190476Y-85329523D01*
X176238095Y-85234285D01*
X176285714Y-85043809D01*
X176285714Y-84900952D01*
X176238095Y-84710476D01*
X176190476Y-84615238D01*
X176095238Y-84520000D01*
X175952380Y-84472380D01*
X175857142Y-84472380D01*
X175714285Y-84520000D01*
X175666666Y-84567619D01*
X175190476Y-85472380D02*
X175000000Y-85472380D01*
X174904761Y-85424761D01*
X174857142Y-85377142D01*
X174761904Y-85234285D01*
X174714285Y-85043809D01*
X174714285Y-84662857D01*
X174761904Y-84567619D01*
X174809523Y-84520000D01*
X174904761Y-84472380D01*
X175095238Y-84472380D01*
X175190476Y-84520000D01*
X175238095Y-84567619D01*
X175285714Y-84662857D01*
X175285714Y-84900952D01*
X175238095Y-84996190D01*
X175190476Y-85043809D01*
X175095238Y-85091428D01*
X174904761Y-85091428D01*
X174809523Y-85043809D01*
X174761904Y-84996190D01*
X174714285Y-84900952D01*
X179712857Y-90019142D02*
X179760476Y-90066761D01*
X179903333Y-90114380D01*
X179998571Y-90114380D01*
X180141428Y-90066761D01*
X180236666Y-89971523D01*
X180284285Y-89876285D01*
X180331904Y-89685809D01*
X180331904Y-89542952D01*
X180284285Y-89352476D01*
X180236666Y-89257238D01*
X180141428Y-89162000D01*
X179998571Y-89114380D01*
X179903333Y-89114380D01*
X179760476Y-89162000D01*
X179712857Y-89209619D01*
X178760476Y-90114380D02*
X179331904Y-90114380D01*
X179046190Y-90114380D02*
X179046190Y-89114380D01*
X179141428Y-89257238D01*
X179236666Y-89352476D01*
X179331904Y-89400095D01*
X178141428Y-89114380D02*
X178046190Y-89114380D01*
X177950952Y-89162000D01*
X177903333Y-89209619D01*
X177855714Y-89304857D01*
X177808095Y-89495333D01*
X177808095Y-89733428D01*
X177855714Y-89923904D01*
X177903333Y-90019142D01*
X177950952Y-90066761D01*
X178046190Y-90114380D01*
X178141428Y-90114380D01*
X178236666Y-90066761D01*
X178284285Y-90019142D01*
X178331904Y-89923904D01*
X178379523Y-89733428D01*
X178379523Y-89495333D01*
X178331904Y-89304857D01*
X178284285Y-89209619D01*
X178236666Y-89162000D01*
X178141428Y-89114380D01*
X172823142Y-92829142D02*
X172870761Y-92781523D01*
X172918380Y-92638666D01*
X172918380Y-92543428D01*
X172870761Y-92400571D01*
X172775523Y-92305333D01*
X172680285Y-92257714D01*
X172489809Y-92210095D01*
X172346952Y-92210095D01*
X172156476Y-92257714D01*
X172061238Y-92305333D01*
X171966000Y-92400571D01*
X171918380Y-92543428D01*
X171918380Y-92638666D01*
X171966000Y-92781523D01*
X172013619Y-92829142D01*
X172918380Y-93781523D02*
X172918380Y-93210095D01*
X172918380Y-93495809D02*
X171918380Y-93495809D01*
X172061238Y-93400571D01*
X172156476Y-93305333D01*
X172204095Y-93210095D01*
X172918380Y-94733904D02*
X172918380Y-94162476D01*
X172918380Y-94448190D02*
X171918380Y-94448190D01*
X172061238Y-94352952D01*
X172156476Y-94257714D01*
X172204095Y-94162476D01*
X171553142Y-92575142D02*
X171600761Y-92527523D01*
X171648380Y-92384666D01*
X171648380Y-92289428D01*
X171600761Y-92146571D01*
X171505523Y-92051333D01*
X171410285Y-92003714D01*
X171219809Y-91956095D01*
X171076952Y-91956095D01*
X170886476Y-92003714D01*
X170791238Y-92051333D01*
X170696000Y-92146571D01*
X170648380Y-92289428D01*
X170648380Y-92384666D01*
X170696000Y-92527523D01*
X170743619Y-92575142D01*
X171648380Y-93527523D02*
X171648380Y-92956095D01*
X171648380Y-93241809D02*
X170648380Y-93241809D01*
X170791238Y-93146571D01*
X170886476Y-93051333D01*
X170934095Y-92956095D01*
X170743619Y-93908476D02*
X170696000Y-93956095D01*
X170648380Y-94051333D01*
X170648380Y-94289428D01*
X170696000Y-94384666D01*
X170743619Y-94432285D01*
X170838857Y-94479904D01*
X170934095Y-94479904D01*
X171076952Y-94432285D01*
X171648380Y-93860857D01*
X171648380Y-94479904D01*
X155917142Y-106544642D02*
X155964761Y-106497023D01*
X156012380Y-106354166D01*
X156012380Y-106258928D01*
X155964761Y-106116071D01*
X155869523Y-106020833D01*
X155774285Y-105973214D01*
X155583809Y-105925595D01*
X155440952Y-105925595D01*
X155250476Y-105973214D01*
X155155238Y-106020833D01*
X155060000Y-106116071D01*
X155012380Y-106258928D01*
X155012380Y-106354166D01*
X155060000Y-106497023D01*
X155107619Y-106544642D01*
X156012380Y-107497023D02*
X156012380Y-106925595D01*
X156012380Y-107211309D02*
X155012380Y-107211309D01*
X155155238Y-107116071D01*
X155250476Y-107020833D01*
X155298095Y-106925595D01*
X155012380Y-107830357D02*
X155012380Y-108497023D01*
X156012380Y-108068452D01*
X164726857Y-79097142D02*
X164774476Y-79144761D01*
X164917333Y-79192380D01*
X165012571Y-79192380D01*
X165155428Y-79144761D01*
X165250666Y-79049523D01*
X165298285Y-78954285D01*
X165345904Y-78763809D01*
X165345904Y-78620952D01*
X165298285Y-78430476D01*
X165250666Y-78335238D01*
X165155428Y-78240000D01*
X165012571Y-78192380D01*
X164917333Y-78192380D01*
X164774476Y-78240000D01*
X164726857Y-78287619D01*
X164345904Y-78287619D02*
X164298285Y-78240000D01*
X164203047Y-78192380D01*
X163964952Y-78192380D01*
X163869714Y-78240000D01*
X163822095Y-78287619D01*
X163774476Y-78382857D01*
X163774476Y-78478095D01*
X163822095Y-78620952D01*
X164393523Y-79192380D01*
X163774476Y-79192380D01*
X163441142Y-78192380D02*
X162822095Y-78192380D01*
X163155428Y-78573333D01*
X163012571Y-78573333D01*
X162917333Y-78620952D01*
X162869714Y-78668571D01*
X162822095Y-78763809D01*
X162822095Y-79001904D01*
X162869714Y-79097142D01*
X162917333Y-79144761D01*
X163012571Y-79192380D01*
X163298285Y-79192380D01*
X163393523Y-79144761D01*
X163441142Y-79097142D01*
X160916857Y-82907142D02*
X160964476Y-82954761D01*
X161107333Y-83002380D01*
X161202571Y-83002380D01*
X161345428Y-82954761D01*
X161440666Y-82859523D01*
X161488285Y-82764285D01*
X161535904Y-82573809D01*
X161535904Y-82430952D01*
X161488285Y-82240476D01*
X161440666Y-82145238D01*
X161345428Y-82050000D01*
X161202571Y-82002380D01*
X161107333Y-82002380D01*
X160964476Y-82050000D01*
X160916857Y-82097619D01*
X160535904Y-82097619D02*
X160488285Y-82050000D01*
X160393047Y-82002380D01*
X160154952Y-82002380D01*
X160059714Y-82050000D01*
X160012095Y-82097619D01*
X159964476Y-82192857D01*
X159964476Y-82288095D01*
X160012095Y-82430952D01*
X160583523Y-83002380D01*
X159964476Y-83002380D01*
X159107333Y-82335714D02*
X159107333Y-83002380D01*
X159345428Y-81954761D02*
X159583523Y-82669047D01*
X158964476Y-82669047D01*
X163171142Y-88257142D02*
X163218761Y-88209523D01*
X163266380Y-88066666D01*
X163266380Y-87971428D01*
X163218761Y-87828571D01*
X163123523Y-87733333D01*
X163028285Y-87685714D01*
X162837809Y-87638095D01*
X162694952Y-87638095D01*
X162504476Y-87685714D01*
X162409238Y-87733333D01*
X162314000Y-87828571D01*
X162266380Y-87971428D01*
X162266380Y-88066666D01*
X162314000Y-88209523D01*
X162361619Y-88257142D01*
X162361619Y-88638095D02*
X162314000Y-88685714D01*
X162266380Y-88780952D01*
X162266380Y-89019047D01*
X162314000Y-89114285D01*
X162361619Y-89161904D01*
X162456857Y-89209523D01*
X162552095Y-89209523D01*
X162694952Y-89161904D01*
X163266380Y-88590476D01*
X163266380Y-89209523D01*
X162266380Y-90114285D02*
X162266380Y-89638095D01*
X162742571Y-89590476D01*
X162694952Y-89638095D01*
X162647333Y-89733333D01*
X162647333Y-89971428D01*
X162694952Y-90066666D01*
X162742571Y-90114285D01*
X162837809Y-90161904D01*
X163075904Y-90161904D01*
X163171142Y-90114285D01*
X163218761Y-90066666D01*
X163266380Y-89971428D01*
X163266380Y-89733333D01*
X163218761Y-89638095D01*
X163171142Y-89590476D01*
X164695142Y-88257142D02*
X164742761Y-88209523D01*
X164790380Y-88066666D01*
X164790380Y-87971428D01*
X164742761Y-87828571D01*
X164647523Y-87733333D01*
X164552285Y-87685714D01*
X164361809Y-87638095D01*
X164218952Y-87638095D01*
X164028476Y-87685714D01*
X163933238Y-87733333D01*
X163838000Y-87828571D01*
X163790380Y-87971428D01*
X163790380Y-88066666D01*
X163838000Y-88209523D01*
X163885619Y-88257142D01*
X163885619Y-88638095D02*
X163838000Y-88685714D01*
X163790380Y-88780952D01*
X163790380Y-89019047D01*
X163838000Y-89114285D01*
X163885619Y-89161904D01*
X163980857Y-89209523D01*
X164076095Y-89209523D01*
X164218952Y-89161904D01*
X164790380Y-88590476D01*
X164790380Y-89209523D01*
X163790380Y-90066666D02*
X163790380Y-89876190D01*
X163838000Y-89780952D01*
X163885619Y-89733333D01*
X164028476Y-89638095D01*
X164218952Y-89590476D01*
X164599904Y-89590476D01*
X164695142Y-89638095D01*
X164742761Y-89685714D01*
X164790380Y-89780952D01*
X164790380Y-89971428D01*
X164742761Y-90066666D01*
X164695142Y-90114285D01*
X164599904Y-90161904D01*
X164361809Y-90161904D01*
X164266571Y-90114285D01*
X164218952Y-90066666D01*
X164171333Y-89971428D01*
X164171333Y-89780952D01*
X164218952Y-89685714D01*
X164266571Y-89638095D01*
X164361809Y-89590476D01*
X165457142Y-105783142D02*
X165504761Y-105735523D01*
X165552380Y-105592666D01*
X165552380Y-105497428D01*
X165504761Y-105354571D01*
X165409523Y-105259333D01*
X165314285Y-105211714D01*
X165123809Y-105164095D01*
X164980952Y-105164095D01*
X164790476Y-105211714D01*
X164695238Y-105259333D01*
X164600000Y-105354571D01*
X164552380Y-105497428D01*
X164552380Y-105592666D01*
X164600000Y-105735523D01*
X164647619Y-105783142D01*
X164647619Y-106164095D02*
X164600000Y-106211714D01*
X164552380Y-106306952D01*
X164552380Y-106545047D01*
X164600000Y-106640285D01*
X164647619Y-106687904D01*
X164742857Y-106735523D01*
X164838095Y-106735523D01*
X164980952Y-106687904D01*
X165552380Y-106116476D01*
X165552380Y-106735523D01*
X164552380Y-107068857D02*
X164552380Y-107735523D01*
X165552380Y-107306952D01*
X168759142Y-103243142D02*
X168806761Y-103195523D01*
X168854380Y-103052666D01*
X168854380Y-102957428D01*
X168806761Y-102814571D01*
X168711523Y-102719333D01*
X168616285Y-102671714D01*
X168425809Y-102624095D01*
X168282952Y-102624095D01*
X168092476Y-102671714D01*
X167997238Y-102719333D01*
X167902000Y-102814571D01*
X167854380Y-102957428D01*
X167854380Y-103052666D01*
X167902000Y-103195523D01*
X167949619Y-103243142D01*
X167949619Y-103624095D02*
X167902000Y-103671714D01*
X167854380Y-103766952D01*
X167854380Y-104005047D01*
X167902000Y-104100285D01*
X167949619Y-104147904D01*
X168044857Y-104195523D01*
X168140095Y-104195523D01*
X168282952Y-104147904D01*
X168854380Y-103576476D01*
X168854380Y-104195523D01*
X168282952Y-104766952D02*
X168235333Y-104671714D01*
X168187714Y-104624095D01*
X168092476Y-104576476D01*
X168044857Y-104576476D01*
X167949619Y-104624095D01*
X167902000Y-104671714D01*
X167854380Y-104766952D01*
X167854380Y-104957428D01*
X167902000Y-105052666D01*
X167949619Y-105100285D01*
X168044857Y-105147904D01*
X168092476Y-105147904D01*
X168187714Y-105100285D01*
X168235333Y-105052666D01*
X168282952Y-104957428D01*
X168282952Y-104766952D01*
X168330571Y-104671714D01*
X168378190Y-104624095D01*
X168473428Y-104576476D01*
X168663904Y-104576476D01*
X168759142Y-104624095D01*
X168806761Y-104671714D01*
X168854380Y-104766952D01*
X168854380Y-104957428D01*
X168806761Y-105052666D01*
X168759142Y-105100285D01*
X168663904Y-105147904D01*
X168473428Y-105147904D01*
X168378190Y-105100285D01*
X168330571Y-105052666D01*
X168282952Y-104957428D01*
X170029142Y-103243142D02*
X170076761Y-103195523D01*
X170124380Y-103052666D01*
X170124380Y-102957428D01*
X170076761Y-102814571D01*
X169981523Y-102719333D01*
X169886285Y-102671714D01*
X169695809Y-102624095D01*
X169552952Y-102624095D01*
X169362476Y-102671714D01*
X169267238Y-102719333D01*
X169172000Y-102814571D01*
X169124380Y-102957428D01*
X169124380Y-103052666D01*
X169172000Y-103195523D01*
X169219619Y-103243142D01*
X169219619Y-103624095D02*
X169172000Y-103671714D01*
X169124380Y-103766952D01*
X169124380Y-104005047D01*
X169172000Y-104100285D01*
X169219619Y-104147904D01*
X169314857Y-104195523D01*
X169410095Y-104195523D01*
X169552952Y-104147904D01*
X170124380Y-103576476D01*
X170124380Y-104195523D01*
X170124380Y-104671714D02*
X170124380Y-104862190D01*
X170076761Y-104957428D01*
X170029142Y-105005047D01*
X169886285Y-105100285D01*
X169695809Y-105147904D01*
X169314857Y-105147904D01*
X169219619Y-105100285D01*
X169172000Y-105052666D01*
X169124380Y-104957428D01*
X169124380Y-104766952D01*
X169172000Y-104671714D01*
X169219619Y-104624095D01*
X169314857Y-104576476D01*
X169552952Y-104576476D01*
X169648190Y-104624095D01*
X169695809Y-104671714D01*
X169743428Y-104766952D01*
X169743428Y-104957428D01*
X169695809Y-105052666D01*
X169648190Y-105100285D01*
X169552952Y-105147904D01*
X175773142Y-108323142D02*
X175820761Y-108275523D01*
X175868380Y-108132666D01*
X175868380Y-108037428D01*
X175820761Y-107894571D01*
X175725523Y-107799333D01*
X175630285Y-107751714D01*
X175439809Y-107704095D01*
X175296952Y-107704095D01*
X175106476Y-107751714D01*
X175011238Y-107799333D01*
X174916000Y-107894571D01*
X174868380Y-108037428D01*
X174868380Y-108132666D01*
X174916000Y-108275523D01*
X174963619Y-108323142D01*
X174868380Y-108656476D02*
X174868380Y-109275523D01*
X175249333Y-108942190D01*
X175249333Y-109085047D01*
X175296952Y-109180285D01*
X175344571Y-109227904D01*
X175439809Y-109275523D01*
X175677904Y-109275523D01*
X175773142Y-109227904D01*
X175820761Y-109180285D01*
X175868380Y-109085047D01*
X175868380Y-108799333D01*
X175820761Y-108704095D01*
X175773142Y-108656476D01*
X174868380Y-109894571D02*
X174868380Y-109989809D01*
X174916000Y-110085047D01*
X174963619Y-110132666D01*
X175058857Y-110180285D01*
X175249333Y-110227904D01*
X175487428Y-110227904D01*
X175677904Y-110180285D01*
X175773142Y-110132666D01*
X175820761Y-110085047D01*
X175868380Y-109989809D01*
X175868380Y-109894571D01*
X175820761Y-109799333D01*
X175773142Y-109751714D01*
X175677904Y-109704095D01*
X175487428Y-109656476D01*
X175249333Y-109656476D01*
X175058857Y-109704095D01*
X174963619Y-109751714D01*
X174916000Y-109799333D01*
X174868380Y-109894571D01*
X173585142Y-111625142D02*
X173632761Y-111577523D01*
X173680380Y-111434666D01*
X173680380Y-111339428D01*
X173632761Y-111196571D01*
X173537523Y-111101333D01*
X173442285Y-111053714D01*
X173251809Y-111006095D01*
X173108952Y-111006095D01*
X172918476Y-111053714D01*
X172823238Y-111101333D01*
X172728000Y-111196571D01*
X172680380Y-111339428D01*
X172680380Y-111434666D01*
X172728000Y-111577523D01*
X172775619Y-111625142D01*
X172680380Y-111958476D02*
X172680380Y-112577523D01*
X173061333Y-112244190D01*
X173061333Y-112387047D01*
X173108952Y-112482285D01*
X173156571Y-112529904D01*
X173251809Y-112577523D01*
X173489904Y-112577523D01*
X173585142Y-112529904D01*
X173632761Y-112482285D01*
X173680380Y-112387047D01*
X173680380Y-112101333D01*
X173632761Y-112006095D01*
X173585142Y-111958476D01*
X173680380Y-113529904D02*
X173680380Y-112958476D01*
X173680380Y-113244190D02*
X172680380Y-113244190D01*
X172823238Y-113148952D01*
X172918476Y-113053714D01*
X172966095Y-112958476D01*
X166758857Y-111609142D02*
X166806476Y-111656761D01*
X166949333Y-111704380D01*
X167044571Y-111704380D01*
X167187428Y-111656761D01*
X167282666Y-111561523D01*
X167330285Y-111466285D01*
X167377904Y-111275809D01*
X167377904Y-111132952D01*
X167330285Y-110942476D01*
X167282666Y-110847238D01*
X167187428Y-110752000D01*
X167044571Y-110704380D01*
X166949333Y-110704380D01*
X166806476Y-110752000D01*
X166758857Y-110799619D01*
X166425523Y-110704380D02*
X165806476Y-110704380D01*
X166139809Y-111085333D01*
X165996952Y-111085333D01*
X165901714Y-111132952D01*
X165854095Y-111180571D01*
X165806476Y-111275809D01*
X165806476Y-111513904D01*
X165854095Y-111609142D01*
X165901714Y-111656761D01*
X165996952Y-111704380D01*
X166282666Y-111704380D01*
X166377904Y-111656761D01*
X166425523Y-111609142D01*
X165425523Y-110799619D02*
X165377904Y-110752000D01*
X165282666Y-110704380D01*
X165044571Y-110704380D01*
X164949333Y-110752000D01*
X164901714Y-110799619D01*
X164854095Y-110894857D01*
X164854095Y-110990095D01*
X164901714Y-111132952D01*
X165473142Y-111704380D01*
X164854095Y-111704380D01*
X177680857Y-137009142D02*
X177728476Y-137056761D01*
X177871333Y-137104380D01*
X177966571Y-137104380D01*
X178109428Y-137056761D01*
X178204666Y-136961523D01*
X178252285Y-136866285D01*
X178299904Y-136675809D01*
X178299904Y-136532952D01*
X178252285Y-136342476D01*
X178204666Y-136247238D01*
X178109428Y-136152000D01*
X177966571Y-136104380D01*
X177871333Y-136104380D01*
X177728476Y-136152000D01*
X177680857Y-136199619D01*
X177347523Y-136104380D02*
X176728476Y-136104380D01*
X177061809Y-136485333D01*
X176918952Y-136485333D01*
X176823714Y-136532952D01*
X176776095Y-136580571D01*
X176728476Y-136675809D01*
X176728476Y-136913904D01*
X176776095Y-137009142D01*
X176823714Y-137056761D01*
X176918952Y-137104380D01*
X177204666Y-137104380D01*
X177299904Y-137056761D01*
X177347523Y-137009142D01*
X176395142Y-136104380D02*
X175728476Y-136104380D01*
X176157047Y-137104380D01*
X190126857Y-136755142D02*
X190174476Y-136802761D01*
X190317333Y-136850380D01*
X190412571Y-136850380D01*
X190555428Y-136802761D01*
X190650666Y-136707523D01*
X190698285Y-136612285D01*
X190745904Y-136421809D01*
X190745904Y-136278952D01*
X190698285Y-136088476D01*
X190650666Y-135993238D01*
X190555428Y-135898000D01*
X190412571Y-135850380D01*
X190317333Y-135850380D01*
X190174476Y-135898000D01*
X190126857Y-135945619D01*
X189793523Y-135850380D02*
X189174476Y-135850380D01*
X189507809Y-136231333D01*
X189364952Y-136231333D01*
X189269714Y-136278952D01*
X189222095Y-136326571D01*
X189174476Y-136421809D01*
X189174476Y-136659904D01*
X189222095Y-136755142D01*
X189269714Y-136802761D01*
X189364952Y-136850380D01*
X189650666Y-136850380D01*
X189745904Y-136802761D01*
X189793523Y-136755142D01*
X188698285Y-136850380D02*
X188507809Y-136850380D01*
X188412571Y-136802761D01*
X188364952Y-136755142D01*
X188269714Y-136612285D01*
X188222095Y-136421809D01*
X188222095Y-136040857D01*
X188269714Y-135945619D01*
X188317333Y-135898000D01*
X188412571Y-135850380D01*
X188603047Y-135850380D01*
X188698285Y-135898000D01*
X188745904Y-135945619D01*
X188793523Y-136040857D01*
X188793523Y-136278952D01*
X188745904Y-136374190D01*
X188698285Y-136421809D01*
X188603047Y-136469428D01*
X188412571Y-136469428D01*
X188317333Y-136421809D01*
X188269714Y-136374190D01*
X188222095Y-136278952D01*
X186570857Y-89765142D02*
X186618476Y-89812761D01*
X186761333Y-89860380D01*
X186856571Y-89860380D01*
X186999428Y-89812761D01*
X187094666Y-89717523D01*
X187142285Y-89622285D01*
X187189904Y-89431809D01*
X187189904Y-89288952D01*
X187142285Y-89098476D01*
X187094666Y-89003238D01*
X186999428Y-88908000D01*
X186856571Y-88860380D01*
X186761333Y-88860380D01*
X186618476Y-88908000D01*
X186570857Y-88955619D01*
X185713714Y-89193714D02*
X185713714Y-89860380D01*
X185951809Y-88812761D02*
X186189904Y-89527047D01*
X185570857Y-89527047D01*
X185047047Y-89288952D02*
X185142285Y-89241333D01*
X185189904Y-89193714D01*
X185237523Y-89098476D01*
X185237523Y-89050857D01*
X185189904Y-88955619D01*
X185142285Y-88908000D01*
X185047047Y-88860380D01*
X184856571Y-88860380D01*
X184761333Y-88908000D01*
X184713714Y-88955619D01*
X184666095Y-89050857D01*
X184666095Y-89098476D01*
X184713714Y-89193714D01*
X184761333Y-89241333D01*
X184856571Y-89288952D01*
X185047047Y-89288952D01*
X185142285Y-89336571D01*
X185189904Y-89384190D01*
X185237523Y-89479428D01*
X185237523Y-89669904D01*
X185189904Y-89765142D01*
X185142285Y-89812761D01*
X185047047Y-89860380D01*
X184856571Y-89860380D01*
X184761333Y-89812761D01*
X184713714Y-89765142D01*
X184666095Y-89669904D01*
X184666095Y-89479428D01*
X184713714Y-89384190D01*
X184761333Y-89336571D01*
X184856571Y-89288952D01*
X184030857Y-85701142D02*
X184078476Y-85748761D01*
X184221333Y-85796380D01*
X184316571Y-85796380D01*
X184459428Y-85748761D01*
X184554666Y-85653523D01*
X184602285Y-85558285D01*
X184649904Y-85367809D01*
X184649904Y-85224952D01*
X184602285Y-85034476D01*
X184554666Y-84939238D01*
X184459428Y-84844000D01*
X184316571Y-84796380D01*
X184221333Y-84796380D01*
X184078476Y-84844000D01*
X184030857Y-84891619D01*
X183126095Y-84796380D02*
X183602285Y-84796380D01*
X183649904Y-85272571D01*
X183602285Y-85224952D01*
X183507047Y-85177333D01*
X183268952Y-85177333D01*
X183173714Y-85224952D01*
X183126095Y-85272571D01*
X183078476Y-85367809D01*
X183078476Y-85605904D01*
X183126095Y-85701142D01*
X183173714Y-85748761D01*
X183268952Y-85796380D01*
X183507047Y-85796380D01*
X183602285Y-85748761D01*
X183649904Y-85701142D01*
X182697523Y-84891619D02*
X182649904Y-84844000D01*
X182554666Y-84796380D01*
X182316571Y-84796380D01*
X182221333Y-84844000D01*
X182173714Y-84891619D01*
X182126095Y-84986857D01*
X182126095Y-85082095D01*
X182173714Y-85224952D01*
X182745142Y-85796380D01*
X182126095Y-85796380D01*
X167806666Y-115260380D02*
X168140000Y-114784190D01*
X168378095Y-115260380D02*
X168378095Y-114260380D01*
X167997142Y-114260380D01*
X167901904Y-114308000D01*
X167854285Y-114355619D01*
X167806666Y-114450857D01*
X167806666Y-114593714D01*
X167854285Y-114688952D01*
X167901904Y-114736571D01*
X167997142Y-114784190D01*
X168378095Y-114784190D01*
X166949523Y-114593714D02*
X166949523Y-115260380D01*
X167187619Y-114212761D02*
X167425714Y-114927047D01*
X166806666Y-114927047D01*
X170854666Y-119832380D02*
X171188000Y-119356190D01*
X171426095Y-119832380D02*
X171426095Y-118832380D01*
X171045142Y-118832380D01*
X170949904Y-118880000D01*
X170902285Y-118927619D01*
X170854666Y-119022857D01*
X170854666Y-119165714D01*
X170902285Y-119260952D01*
X170949904Y-119308571D01*
X171045142Y-119356190D01*
X171426095Y-119356190D01*
X169949904Y-118832380D02*
X170426095Y-118832380D01*
X170473714Y-119308571D01*
X170426095Y-119260952D01*
X170330857Y-119213333D01*
X170092761Y-119213333D01*
X169997523Y-119260952D01*
X169949904Y-119308571D01*
X169902285Y-119403809D01*
X169902285Y-119641904D01*
X169949904Y-119737142D01*
X169997523Y-119784761D01*
X170092761Y-119832380D01*
X170330857Y-119832380D01*
X170426095Y-119784761D01*
X170473714Y-119737142D01*
X173042857Y-102782380D02*
X173376190Y-102306190D01*
X173614285Y-102782380D02*
X173614285Y-101782380D01*
X173233333Y-101782380D01*
X173138095Y-101830000D01*
X173090476Y-101877619D01*
X173042857Y-101972857D01*
X173042857Y-102115714D01*
X173090476Y-102210952D01*
X173138095Y-102258571D01*
X173233333Y-102306190D01*
X173614285Y-102306190D01*
X172090476Y-102782380D02*
X172661904Y-102782380D01*
X172376190Y-102782380D02*
X172376190Y-101782380D01*
X172471428Y-101925238D01*
X172566666Y-102020476D01*
X172661904Y-102068095D01*
X171471428Y-101782380D02*
X171376190Y-101782380D01*
X171280952Y-101830000D01*
X171233333Y-101877619D01*
X171185714Y-101972857D01*
X171138095Y-102163333D01*
X171138095Y-102401428D01*
X171185714Y-102591904D01*
X171233333Y-102687142D01*
X171280952Y-102734761D01*
X171376190Y-102782380D01*
X171471428Y-102782380D01*
X171566666Y-102734761D01*
X171614285Y-102687142D01*
X171661904Y-102591904D01*
X171709523Y-102401428D01*
X171709523Y-102163333D01*
X171661904Y-101972857D01*
X171614285Y-101877619D01*
X171566666Y-101830000D01*
X171471428Y-101782380D01*
X188920380Y-133215142D02*
X188444190Y-132881809D01*
X188920380Y-132643714D02*
X187920380Y-132643714D01*
X187920380Y-133024666D01*
X187968000Y-133119904D01*
X188015619Y-133167523D01*
X188110857Y-133215142D01*
X188253714Y-133215142D01*
X188348952Y-133167523D01*
X188396571Y-133119904D01*
X188444190Y-133024666D01*
X188444190Y-132643714D01*
X188920380Y-134167523D02*
X188920380Y-133596095D01*
X188920380Y-133881809D02*
X187920380Y-133881809D01*
X188063238Y-133786571D01*
X188158476Y-133691333D01*
X188206095Y-133596095D01*
X187920380Y-134500857D02*
X187920380Y-135119904D01*
X188301333Y-134786571D01*
X188301333Y-134929428D01*
X188348952Y-135024666D01*
X188396571Y-135072285D01*
X188491809Y-135119904D01*
X188729904Y-135119904D01*
X188825142Y-135072285D01*
X188872761Y-135024666D01*
X188920380Y-134929428D01*
X188920380Y-134643714D01*
X188872761Y-134548476D01*
X188825142Y-134500857D01*
X176348380Y-66413142D02*
X175872190Y-66079809D01*
X176348380Y-65841714D02*
X175348380Y-65841714D01*
X175348380Y-66222666D01*
X175396000Y-66317904D01*
X175443619Y-66365523D01*
X175538857Y-66413142D01*
X175681714Y-66413142D01*
X175776952Y-66365523D01*
X175824571Y-66317904D01*
X175872190Y-66222666D01*
X175872190Y-65841714D01*
X176348380Y-67365523D02*
X176348380Y-66794095D01*
X176348380Y-67079809D02*
X175348380Y-67079809D01*
X175491238Y-66984571D01*
X175586476Y-66889333D01*
X175634095Y-66794095D01*
X175348380Y-67698857D02*
X175348380Y-68365523D01*
X176348380Y-67936952D01*
X183714380Y-65651142D02*
X183238190Y-65317809D01*
X183714380Y-65079714D02*
X182714380Y-65079714D01*
X182714380Y-65460666D01*
X182762000Y-65555904D01*
X182809619Y-65603523D01*
X182904857Y-65651142D01*
X183047714Y-65651142D01*
X183142952Y-65603523D01*
X183190571Y-65555904D01*
X183238190Y-65460666D01*
X183238190Y-65079714D01*
X183714380Y-66603523D02*
X183714380Y-66032095D01*
X183714380Y-66317809D02*
X182714380Y-66317809D01*
X182857238Y-66222571D01*
X182952476Y-66127333D01*
X183000095Y-66032095D01*
X183142952Y-67174952D02*
X183095333Y-67079714D01*
X183047714Y-67032095D01*
X182952476Y-66984476D01*
X182904857Y-66984476D01*
X182809619Y-67032095D01*
X182762000Y-67079714D01*
X182714380Y-67174952D01*
X182714380Y-67365428D01*
X182762000Y-67460666D01*
X182809619Y-67508285D01*
X182904857Y-67555904D01*
X182952476Y-67555904D01*
X183047714Y-67508285D01*
X183095333Y-67460666D01*
X183142952Y-67365428D01*
X183142952Y-67174952D01*
X183190571Y-67079714D01*
X183238190Y-67032095D01*
X183333428Y-66984476D01*
X183523904Y-66984476D01*
X183619142Y-67032095D01*
X183666761Y-67079714D01*
X183714380Y-67174952D01*
X183714380Y-67365428D01*
X183666761Y-67460666D01*
X183619142Y-67508285D01*
X183523904Y-67555904D01*
X183333428Y-67555904D01*
X183238190Y-67508285D01*
X183190571Y-67460666D01*
X183142952Y-67365428D01*
X126372857Y-131516380D02*
X126706190Y-131040190D01*
X126944285Y-131516380D02*
X126944285Y-130516380D01*
X126563333Y-130516380D01*
X126468095Y-130564000D01*
X126420476Y-130611619D01*
X126372857Y-130706857D01*
X126372857Y-130849714D01*
X126420476Y-130944952D01*
X126468095Y-130992571D01*
X126563333Y-131040190D01*
X126944285Y-131040190D01*
X125991904Y-130611619D02*
X125944285Y-130564000D01*
X125849047Y-130516380D01*
X125610952Y-130516380D01*
X125515714Y-130564000D01*
X125468095Y-130611619D01*
X125420476Y-130706857D01*
X125420476Y-130802095D01*
X125468095Y-130944952D01*
X126039523Y-131516380D01*
X125420476Y-131516380D01*
X124468095Y-131516380D02*
X125039523Y-131516380D01*
X124753809Y-131516380D02*
X124753809Y-130516380D01*
X124849047Y-130659238D01*
X124944285Y-130754476D01*
X125039523Y-130802095D01*
X128468380Y-126550000D02*
X127992190Y-126316666D01*
X128468380Y-126150000D02*
X127468380Y-126150000D01*
X127468380Y-126416666D01*
X127516000Y-126483333D01*
X127563619Y-126516666D01*
X127658857Y-126550000D01*
X127801714Y-126550000D01*
X127896952Y-126516666D01*
X127944571Y-126483333D01*
X127992190Y-126416666D01*
X127992190Y-126150000D01*
X127563619Y-126816666D02*
X127516000Y-126850000D01*
X127468380Y-126916666D01*
X127468380Y-127083333D01*
X127516000Y-127150000D01*
X127563619Y-127183333D01*
X127658857Y-127216666D01*
X127754095Y-127216666D01*
X127896952Y-127183333D01*
X128468380Y-126783333D01*
X128468380Y-127216666D01*
X127563619Y-127483333D02*
X127516000Y-127516666D01*
X127468380Y-127583333D01*
X127468380Y-127750000D01*
X127516000Y-127816666D01*
X127563619Y-127850000D01*
X127658857Y-127883333D01*
X127754095Y-127883333D01*
X127896952Y-127850000D01*
X128468380Y-127450000D01*
X128468380Y-127883333D01*
X128468380Y-124010000D02*
X127992190Y-123776666D01*
X128468380Y-123610000D02*
X127468380Y-123610000D01*
X127468380Y-123876666D01*
X127516000Y-123943333D01*
X127563619Y-123976666D01*
X127658857Y-124010000D01*
X127801714Y-124010000D01*
X127896952Y-123976666D01*
X127944571Y-123943333D01*
X127992190Y-123876666D01*
X127992190Y-123610000D01*
X127563619Y-124276666D02*
X127516000Y-124310000D01*
X127468380Y-124376666D01*
X127468380Y-124543333D01*
X127516000Y-124610000D01*
X127563619Y-124643333D01*
X127658857Y-124676666D01*
X127754095Y-124676666D01*
X127896952Y-124643333D01*
X128468380Y-124243333D01*
X128468380Y-124676666D01*
X127468380Y-124910000D02*
X127468380Y-125343333D01*
X127849333Y-125110000D01*
X127849333Y-125210000D01*
X127896952Y-125276666D01*
X127944571Y-125310000D01*
X128039809Y-125343333D01*
X128277904Y-125343333D01*
X128373142Y-125310000D01*
X128420761Y-125276666D01*
X128468380Y-125210000D01*
X128468380Y-125010000D01*
X128420761Y-124943333D01*
X128373142Y-124910000D01*
X128468380Y-121216000D02*
X127992190Y-120982666D01*
X128468380Y-120816000D02*
X127468380Y-120816000D01*
X127468380Y-121082666D01*
X127516000Y-121149333D01*
X127563619Y-121182666D01*
X127658857Y-121216000D01*
X127801714Y-121216000D01*
X127896952Y-121182666D01*
X127944571Y-121149333D01*
X127992190Y-121082666D01*
X127992190Y-120816000D01*
X127563619Y-121482666D02*
X127516000Y-121516000D01*
X127468380Y-121582666D01*
X127468380Y-121749333D01*
X127516000Y-121816000D01*
X127563619Y-121849333D01*
X127658857Y-121882666D01*
X127754095Y-121882666D01*
X127896952Y-121849333D01*
X128468380Y-121449333D01*
X128468380Y-121882666D01*
X127801714Y-122482666D02*
X128468380Y-122482666D01*
X127420761Y-122316000D02*
X128135047Y-122149333D01*
X128135047Y-122582666D01*
X128468380Y-118676000D02*
X127992190Y-118442666D01*
X128468380Y-118276000D02*
X127468380Y-118276000D01*
X127468380Y-118542666D01*
X127516000Y-118609333D01*
X127563619Y-118642666D01*
X127658857Y-118676000D01*
X127801714Y-118676000D01*
X127896952Y-118642666D01*
X127944571Y-118609333D01*
X127992190Y-118542666D01*
X127992190Y-118276000D01*
X127563619Y-118942666D02*
X127516000Y-118976000D01*
X127468380Y-119042666D01*
X127468380Y-119209333D01*
X127516000Y-119276000D01*
X127563619Y-119309333D01*
X127658857Y-119342666D01*
X127754095Y-119342666D01*
X127896952Y-119309333D01*
X128468380Y-118909333D01*
X128468380Y-119342666D01*
X127468380Y-119976000D02*
X127468380Y-119642666D01*
X127944571Y-119609333D01*
X127896952Y-119642666D01*
X127849333Y-119709333D01*
X127849333Y-119876000D01*
X127896952Y-119942666D01*
X127944571Y-119976000D01*
X128039809Y-120009333D01*
X128277904Y-120009333D01*
X128373142Y-119976000D01*
X128420761Y-119942666D01*
X128468380Y-119876000D01*
X128468380Y-119709333D01*
X128420761Y-119642666D01*
X128373142Y-119609333D01*
X128468380Y-116390000D02*
X127992190Y-116156666D01*
X128468380Y-115990000D02*
X127468380Y-115990000D01*
X127468380Y-116256666D01*
X127516000Y-116323333D01*
X127563619Y-116356666D01*
X127658857Y-116390000D01*
X127801714Y-116390000D01*
X127896952Y-116356666D01*
X127944571Y-116323333D01*
X127992190Y-116256666D01*
X127992190Y-115990000D01*
X127563619Y-116656666D02*
X127516000Y-116690000D01*
X127468380Y-116756666D01*
X127468380Y-116923333D01*
X127516000Y-116990000D01*
X127563619Y-117023333D01*
X127658857Y-117056666D01*
X127754095Y-117056666D01*
X127896952Y-117023333D01*
X128468380Y-116623333D01*
X128468380Y-117056666D01*
X127468380Y-117656666D02*
X127468380Y-117523333D01*
X127516000Y-117456666D01*
X127563619Y-117423333D01*
X127706476Y-117356666D01*
X127896952Y-117323333D01*
X128277904Y-117323333D01*
X128373142Y-117356666D01*
X128420761Y-117390000D01*
X128468380Y-117456666D01*
X128468380Y-117590000D01*
X128420761Y-117656666D01*
X128373142Y-117690000D01*
X128277904Y-117723333D01*
X128039809Y-117723333D01*
X127944571Y-117690000D01*
X127896952Y-117656666D01*
X127849333Y-117590000D01*
X127849333Y-117456666D01*
X127896952Y-117390000D01*
X127944571Y-117356666D01*
X128039809Y-117323333D01*
X128468380Y-113850000D02*
X127992190Y-113616666D01*
X128468380Y-113450000D02*
X127468380Y-113450000D01*
X127468380Y-113716666D01*
X127516000Y-113783333D01*
X127563619Y-113816666D01*
X127658857Y-113850000D01*
X127801714Y-113850000D01*
X127896952Y-113816666D01*
X127944571Y-113783333D01*
X127992190Y-113716666D01*
X127992190Y-113450000D01*
X127563619Y-114116666D02*
X127516000Y-114150000D01*
X127468380Y-114216666D01*
X127468380Y-114383333D01*
X127516000Y-114450000D01*
X127563619Y-114483333D01*
X127658857Y-114516666D01*
X127754095Y-114516666D01*
X127896952Y-114483333D01*
X128468380Y-114083333D01*
X128468380Y-114516666D01*
X127468380Y-114750000D02*
X127468380Y-115216666D01*
X128468380Y-114916666D01*
X126192857Y-110688380D02*
X126526190Y-110212190D01*
X126764285Y-110688380D02*
X126764285Y-109688380D01*
X126383333Y-109688380D01*
X126288095Y-109736000D01*
X126240476Y-109783619D01*
X126192857Y-109878857D01*
X126192857Y-110021714D01*
X126240476Y-110116952D01*
X126288095Y-110164571D01*
X126383333Y-110212190D01*
X126764285Y-110212190D01*
X125811904Y-109783619D02*
X125764285Y-109736000D01*
X125669047Y-109688380D01*
X125430952Y-109688380D01*
X125335714Y-109736000D01*
X125288095Y-109783619D01*
X125240476Y-109878857D01*
X125240476Y-109974095D01*
X125288095Y-110116952D01*
X125859523Y-110688380D01*
X125240476Y-110688380D01*
X124669047Y-110116952D02*
X124764285Y-110069333D01*
X124811904Y-110021714D01*
X124859523Y-109926476D01*
X124859523Y-109878857D01*
X124811904Y-109783619D01*
X124764285Y-109736000D01*
X124669047Y-109688380D01*
X124478571Y-109688380D01*
X124383333Y-109736000D01*
X124335714Y-109783619D01*
X124288095Y-109878857D01*
X124288095Y-109926476D01*
X124335714Y-110021714D01*
X124383333Y-110069333D01*
X124478571Y-110116952D01*
X124669047Y-110116952D01*
X124764285Y-110164571D01*
X124811904Y-110212190D01*
X124859523Y-110307428D01*
X124859523Y-110497904D01*
X124811904Y-110593142D01*
X124764285Y-110640761D01*
X124669047Y-110688380D01*
X124478571Y-110688380D01*
X124383333Y-110640761D01*
X124335714Y-110593142D01*
X124288095Y-110497904D01*
X124288095Y-110307428D01*
X124335714Y-110212190D01*
X124383333Y-110164571D01*
X124478571Y-110116952D01*
X134246857Y-129738380D02*
X134580190Y-129262190D01*
X134818285Y-129738380D02*
X134818285Y-128738380D01*
X134437333Y-128738380D01*
X134342095Y-128786000D01*
X134294476Y-128833619D01*
X134246857Y-128928857D01*
X134246857Y-129071714D01*
X134294476Y-129166952D01*
X134342095Y-129214571D01*
X134437333Y-129262190D01*
X134818285Y-129262190D01*
X133865904Y-128833619D02*
X133818285Y-128786000D01*
X133723047Y-128738380D01*
X133484952Y-128738380D01*
X133389714Y-128786000D01*
X133342095Y-128833619D01*
X133294476Y-128928857D01*
X133294476Y-129024095D01*
X133342095Y-129166952D01*
X133913523Y-129738380D01*
X133294476Y-129738380D01*
X132818285Y-129738380D02*
X132627809Y-129738380D01*
X132532571Y-129690761D01*
X132484952Y-129643142D01*
X132389714Y-129500285D01*
X132342095Y-129309809D01*
X132342095Y-128928857D01*
X132389714Y-128833619D01*
X132437333Y-128786000D01*
X132532571Y-128738380D01*
X132723047Y-128738380D01*
X132818285Y-128786000D01*
X132865904Y-128833619D01*
X132913523Y-128928857D01*
X132913523Y-129166952D01*
X132865904Y-129262190D01*
X132818285Y-129309809D01*
X132723047Y-129357428D01*
X132532571Y-129357428D01*
X132437333Y-129309809D01*
X132389714Y-129262190D01*
X132342095Y-129166952D01*
X134246857Y-124912380D02*
X134580190Y-124436190D01*
X134818285Y-124912380D02*
X134818285Y-123912380D01*
X134437333Y-123912380D01*
X134342095Y-123960000D01*
X134294476Y-124007619D01*
X134246857Y-124102857D01*
X134246857Y-124245714D01*
X134294476Y-124340952D01*
X134342095Y-124388571D01*
X134437333Y-124436190D01*
X134818285Y-124436190D01*
X133913523Y-123912380D02*
X133294476Y-123912380D01*
X133627809Y-124293333D01*
X133484952Y-124293333D01*
X133389714Y-124340952D01*
X133342095Y-124388571D01*
X133294476Y-124483809D01*
X133294476Y-124721904D01*
X133342095Y-124817142D01*
X133389714Y-124864761D01*
X133484952Y-124912380D01*
X133770666Y-124912380D01*
X133865904Y-124864761D01*
X133913523Y-124817142D01*
X132342095Y-124912380D02*
X132913523Y-124912380D01*
X132627809Y-124912380D02*
X132627809Y-123912380D01*
X132723047Y-124055238D01*
X132818285Y-124150476D01*
X132913523Y-124198095D01*
X134246857Y-122118380D02*
X134580190Y-121642190D01*
X134818285Y-122118380D02*
X134818285Y-121118380D01*
X134437333Y-121118380D01*
X134342095Y-121166000D01*
X134294476Y-121213619D01*
X134246857Y-121308857D01*
X134246857Y-121451714D01*
X134294476Y-121546952D01*
X134342095Y-121594571D01*
X134437333Y-121642190D01*
X134818285Y-121642190D01*
X133913523Y-121118380D02*
X133294476Y-121118380D01*
X133627809Y-121499333D01*
X133484952Y-121499333D01*
X133389714Y-121546952D01*
X133342095Y-121594571D01*
X133294476Y-121689809D01*
X133294476Y-121927904D01*
X133342095Y-122023142D01*
X133389714Y-122070761D01*
X133484952Y-122118380D01*
X133770666Y-122118380D01*
X133865904Y-122070761D01*
X133913523Y-122023142D01*
X132913523Y-121213619D02*
X132865904Y-121166000D01*
X132770666Y-121118380D01*
X132532571Y-121118380D01*
X132437333Y-121166000D01*
X132389714Y-121213619D01*
X132342095Y-121308857D01*
X132342095Y-121404095D01*
X132389714Y-121546952D01*
X132961142Y-122118380D01*
X132342095Y-122118380D01*
X134246857Y-119832380D02*
X134580190Y-119356190D01*
X134818285Y-119832380D02*
X134818285Y-118832380D01*
X134437333Y-118832380D01*
X134342095Y-118880000D01*
X134294476Y-118927619D01*
X134246857Y-119022857D01*
X134246857Y-119165714D01*
X134294476Y-119260952D01*
X134342095Y-119308571D01*
X134437333Y-119356190D01*
X134818285Y-119356190D01*
X133913523Y-118832380D02*
X133294476Y-118832380D01*
X133627809Y-119213333D01*
X133484952Y-119213333D01*
X133389714Y-119260952D01*
X133342095Y-119308571D01*
X133294476Y-119403809D01*
X133294476Y-119641904D01*
X133342095Y-119737142D01*
X133389714Y-119784761D01*
X133484952Y-119832380D01*
X133770666Y-119832380D01*
X133865904Y-119784761D01*
X133913523Y-119737142D01*
X132961142Y-118832380D02*
X132342095Y-118832380D01*
X132675428Y-119213333D01*
X132532571Y-119213333D01*
X132437333Y-119260952D01*
X132389714Y-119308571D01*
X132342095Y-119403809D01*
X132342095Y-119641904D01*
X132389714Y-119737142D01*
X132437333Y-119784761D01*
X132532571Y-119832380D01*
X132818285Y-119832380D01*
X132913523Y-119784761D01*
X132961142Y-119737142D01*
X134246857Y-117292380D02*
X134580190Y-116816190D01*
X134818285Y-117292380D02*
X134818285Y-116292380D01*
X134437333Y-116292380D01*
X134342095Y-116340000D01*
X134294476Y-116387619D01*
X134246857Y-116482857D01*
X134246857Y-116625714D01*
X134294476Y-116720952D01*
X134342095Y-116768571D01*
X134437333Y-116816190D01*
X134818285Y-116816190D01*
X133913523Y-116292380D02*
X133294476Y-116292380D01*
X133627809Y-116673333D01*
X133484952Y-116673333D01*
X133389714Y-116720952D01*
X133342095Y-116768571D01*
X133294476Y-116863809D01*
X133294476Y-117101904D01*
X133342095Y-117197142D01*
X133389714Y-117244761D01*
X133484952Y-117292380D01*
X133770666Y-117292380D01*
X133865904Y-117244761D01*
X133913523Y-117197142D01*
X132437333Y-116625714D02*
X132437333Y-117292380D01*
X132675428Y-116244761D02*
X132913523Y-116959047D01*
X132294476Y-116959047D01*
X134246857Y-115006380D02*
X134580190Y-114530190D01*
X134818285Y-115006380D02*
X134818285Y-114006380D01*
X134437333Y-114006380D01*
X134342095Y-114054000D01*
X134294476Y-114101619D01*
X134246857Y-114196857D01*
X134246857Y-114339714D01*
X134294476Y-114434952D01*
X134342095Y-114482571D01*
X134437333Y-114530190D01*
X134818285Y-114530190D01*
X133913523Y-114006380D02*
X133294476Y-114006380D01*
X133627809Y-114387333D01*
X133484952Y-114387333D01*
X133389714Y-114434952D01*
X133342095Y-114482571D01*
X133294476Y-114577809D01*
X133294476Y-114815904D01*
X133342095Y-114911142D01*
X133389714Y-114958761D01*
X133484952Y-115006380D01*
X133770666Y-115006380D01*
X133865904Y-114958761D01*
X133913523Y-114911142D01*
X132389714Y-114006380D02*
X132865904Y-114006380D01*
X132913523Y-114482571D01*
X132865904Y-114434952D01*
X132770666Y-114387333D01*
X132532571Y-114387333D01*
X132437333Y-114434952D01*
X132389714Y-114482571D01*
X132342095Y-114577809D01*
X132342095Y-114815904D01*
X132389714Y-114911142D01*
X132437333Y-114958761D01*
X132532571Y-115006380D01*
X132770666Y-115006380D01*
X132865904Y-114958761D01*
X132913523Y-114911142D01*
X134246857Y-112212380D02*
X134580190Y-111736190D01*
X134818285Y-112212380D02*
X134818285Y-111212380D01*
X134437333Y-111212380D01*
X134342095Y-111260000D01*
X134294476Y-111307619D01*
X134246857Y-111402857D01*
X134246857Y-111545714D01*
X134294476Y-111640952D01*
X134342095Y-111688571D01*
X134437333Y-111736190D01*
X134818285Y-111736190D01*
X133913523Y-111212380D02*
X133294476Y-111212380D01*
X133627809Y-111593333D01*
X133484952Y-111593333D01*
X133389714Y-111640952D01*
X133342095Y-111688571D01*
X133294476Y-111783809D01*
X133294476Y-112021904D01*
X133342095Y-112117142D01*
X133389714Y-112164761D01*
X133484952Y-112212380D01*
X133770666Y-112212380D01*
X133865904Y-112164761D01*
X133913523Y-112117142D01*
X132437333Y-111212380D02*
X132627809Y-111212380D01*
X132723047Y-111260000D01*
X132770666Y-111307619D01*
X132865904Y-111450476D01*
X132913523Y-111640952D01*
X132913523Y-112021904D01*
X132865904Y-112117142D01*
X132818285Y-112164761D01*
X132723047Y-112212380D01*
X132532571Y-112212380D01*
X132437333Y-112164761D01*
X132389714Y-112117142D01*
X132342095Y-112021904D01*
X132342095Y-111783809D01*
X132389714Y-111688571D01*
X132437333Y-111640952D01*
X132532571Y-111593333D01*
X132723047Y-111593333D01*
X132818285Y-111640952D01*
X132865904Y-111688571D01*
X132913523Y-111783809D01*
M02*
