G04 #@! TF.GenerationSoftware,KiCad,Pcbnew,5.1.9-73d0e3b20d~88~ubuntu20.04.1*
G04 #@! TF.CreationDate,2021-04-15T17:59:40-05:00*
G04 #@! TF.ProjectId,obi1,6f626931-2e6b-4696-9361-645f70636258,rev?*
G04 #@! TF.SameCoordinates,Original*
G04 #@! TF.FileFunction,Paste,Bot*
G04 #@! TF.FilePolarity,Positive*
%FSLAX46Y46*%
G04 Gerber Fmt 4.6, Leading zero omitted, Abs format (unit mm)*
G04 Created by KiCad (PCBNEW 5.1.9-73d0e3b20d~88~ubuntu20.04.1) date 2021-04-15 17:59:40*
%MOMM*%
%LPD*%
G01*
G04 APERTURE LIST*
G04 APERTURE END LIST*
G36*
G01*
X149944002Y-112715000D02*
X147743998Y-112715000D01*
G75*
G02*
X147494000Y-112465002I0J249998D01*
G01*
X147494000Y-111639998D01*
G75*
G02*
X147743998Y-111390000I249998J0D01*
G01*
X149944002Y-111390000D01*
G75*
G02*
X150194000Y-111639998I0J-249998D01*
G01*
X150194000Y-112465002D01*
G75*
G02*
X149944002Y-112715000I-249998J0D01*
G01*
G37*
G36*
G01*
X149944002Y-109590000D02*
X147743998Y-109590000D01*
G75*
G02*
X147494000Y-109340002I0J249998D01*
G01*
X147494000Y-108514998D01*
G75*
G02*
X147743998Y-108265000I249998J0D01*
G01*
X149944002Y-108265000D01*
G75*
G02*
X150194000Y-108514998I0J-249998D01*
G01*
X150194000Y-109340002D01*
G75*
G02*
X149944002Y-109590000I-249998J0D01*
G01*
G37*
G36*
G01*
X136800000Y-126569999D02*
X136800000Y-127470001D01*
G75*
G02*
X136550001Y-127720000I-249999J0D01*
G01*
X135849999Y-127720000D01*
G75*
G02*
X135600000Y-127470001I0J249999D01*
G01*
X135600000Y-126569999D01*
G75*
G02*
X135849999Y-126320000I249999J0D01*
G01*
X136550001Y-126320000D01*
G75*
G02*
X136800000Y-126569999I0J-249999D01*
G01*
G37*
G36*
G01*
X138800000Y-126569999D02*
X138800000Y-127470001D01*
G75*
G02*
X138550001Y-127720000I-249999J0D01*
G01*
X137849999Y-127720000D01*
G75*
G02*
X137600000Y-127470001I0J249999D01*
G01*
X137600000Y-126569999D01*
G75*
G02*
X137849999Y-126320000I249999J0D01*
G01*
X138550001Y-126320000D01*
G75*
G02*
X138800000Y-126569999I0J-249999D01*
G01*
G37*
G36*
G01*
X152375000Y-109582500D02*
X151425000Y-109582500D01*
G75*
G02*
X151175000Y-109332500I0J250000D01*
G01*
X151175000Y-108657500D01*
G75*
G02*
X151425000Y-108407500I250000J0D01*
G01*
X152375000Y-108407500D01*
G75*
G02*
X152625000Y-108657500I0J-250000D01*
G01*
X152625000Y-109332500D01*
G75*
G02*
X152375000Y-109582500I-250000J0D01*
G01*
G37*
G36*
G01*
X152375000Y-107507500D02*
X151425000Y-107507500D01*
G75*
G02*
X151175000Y-107257500I0J250000D01*
G01*
X151175000Y-106582500D01*
G75*
G02*
X151425000Y-106332500I250000J0D01*
G01*
X152375000Y-106332500D01*
G75*
G02*
X152625000Y-106582500I0J-250000D01*
G01*
X152625000Y-107257500D01*
G75*
G02*
X152375000Y-107507500I-250000J0D01*
G01*
G37*
G36*
G01*
X181552001Y-98660000D02*
X180651999Y-98660000D01*
G75*
G02*
X180402000Y-98410001I0J249999D01*
G01*
X180402000Y-97709999D01*
G75*
G02*
X180651999Y-97460000I249999J0D01*
G01*
X181552001Y-97460000D01*
G75*
G02*
X181802000Y-97709999I0J-249999D01*
G01*
X181802000Y-98410001D01*
G75*
G02*
X181552001Y-98660000I-249999J0D01*
G01*
G37*
G36*
G01*
X181552001Y-100660000D02*
X180651999Y-100660000D01*
G75*
G02*
X180402000Y-100410001I0J249999D01*
G01*
X180402000Y-99709999D01*
G75*
G02*
X180651999Y-99460000I249999J0D01*
G01*
X181552001Y-99460000D01*
G75*
G02*
X181802000Y-99709999I0J-249999D01*
G01*
X181802000Y-100410001D01*
G75*
G02*
X181552001Y-100660000I-249999J0D01*
G01*
G37*
G36*
G01*
X185108000Y-100805000D02*
X185108000Y-99855000D01*
G75*
G02*
X185358000Y-99605000I250000J0D01*
G01*
X186033000Y-99605000D01*
G75*
G02*
X186283000Y-99855000I0J-250000D01*
G01*
X186283000Y-100805000D01*
G75*
G02*
X186033000Y-101055000I-250000J0D01*
G01*
X185358000Y-101055000D01*
G75*
G02*
X185108000Y-100805000I0J250000D01*
G01*
G37*
G36*
G01*
X183033000Y-100805000D02*
X183033000Y-99855000D01*
G75*
G02*
X183283000Y-99605000I250000J0D01*
G01*
X183958000Y-99605000D01*
G75*
G02*
X184208000Y-99855000I0J-250000D01*
G01*
X184208000Y-100805000D01*
G75*
G02*
X183958000Y-101055000I-250000J0D01*
G01*
X183283000Y-101055000D01*
G75*
G02*
X183033000Y-100805000I0J250000D01*
G01*
G37*
G36*
G01*
X147300002Y-87720000D02*
X145099998Y-87720000D01*
G75*
G02*
X144850000Y-87470002I0J249998D01*
G01*
X144850000Y-86644998D01*
G75*
G02*
X145099998Y-86395000I249998J0D01*
G01*
X147300002Y-86395000D01*
G75*
G02*
X147550000Y-86644998I0J-249998D01*
G01*
X147550000Y-87470002D01*
G75*
G02*
X147300002Y-87720000I-249998J0D01*
G01*
G37*
G36*
G01*
X147300002Y-90845000D02*
X145099998Y-90845000D01*
G75*
G02*
X144850000Y-90595002I0J249998D01*
G01*
X144850000Y-89769998D01*
G75*
G02*
X145099998Y-89520000I249998J0D01*
G01*
X147300002Y-89520000D01*
G75*
G02*
X147550000Y-89769998I0J-249998D01*
G01*
X147550000Y-90595002D01*
G75*
G02*
X147300002Y-90845000I-249998J0D01*
G01*
G37*
G36*
G01*
X149975000Y-91482500D02*
X149025000Y-91482500D01*
G75*
G02*
X148775000Y-91232500I0J250000D01*
G01*
X148775000Y-90557500D01*
G75*
G02*
X149025000Y-90307500I250000J0D01*
G01*
X149975000Y-90307500D01*
G75*
G02*
X150225000Y-90557500I0J-250000D01*
G01*
X150225000Y-91232500D01*
G75*
G02*
X149975000Y-91482500I-250000J0D01*
G01*
G37*
G36*
G01*
X149975000Y-89407500D02*
X149025000Y-89407500D01*
G75*
G02*
X148775000Y-89157500I0J250000D01*
G01*
X148775000Y-88482500D01*
G75*
G02*
X149025000Y-88232500I250000J0D01*
G01*
X149975000Y-88232500D01*
G75*
G02*
X150225000Y-88482500I0J-250000D01*
G01*
X150225000Y-89157500D01*
G75*
G02*
X149975000Y-89407500I-250000J0D01*
G01*
G37*
G36*
G01*
X151555000Y-90122500D02*
X151245000Y-90122500D01*
G75*
G02*
X151090000Y-89967500I0J155000D01*
G01*
X151090000Y-89542500D01*
G75*
G02*
X151245000Y-89387500I155000J0D01*
G01*
X151555000Y-89387500D01*
G75*
G02*
X151710000Y-89542500I0J-155000D01*
G01*
X151710000Y-89967500D01*
G75*
G02*
X151555000Y-90122500I-155000J0D01*
G01*
G37*
G36*
G01*
X151555000Y-88987500D02*
X151245000Y-88987500D01*
G75*
G02*
X151090000Y-88832500I0J155000D01*
G01*
X151090000Y-88407500D01*
G75*
G02*
X151245000Y-88252500I155000J0D01*
G01*
X151555000Y-88252500D01*
G75*
G02*
X151710000Y-88407500I0J-155000D01*
G01*
X151710000Y-88832500D01*
G75*
G02*
X151555000Y-88987500I-155000J0D01*
G01*
G37*
G36*
G01*
X174600000Y-86219998D02*
X174600000Y-88420002D01*
G75*
G02*
X174350002Y-88670000I-249998J0D01*
G01*
X173524998Y-88670000D01*
G75*
G02*
X173275000Y-88420002I0J249998D01*
G01*
X173275000Y-86219998D01*
G75*
G02*
X173524998Y-85970000I249998J0D01*
G01*
X174350002Y-85970000D01*
G75*
G02*
X174600000Y-86219998I0J-249998D01*
G01*
G37*
G36*
G01*
X177725000Y-86219998D02*
X177725000Y-88420002D01*
G75*
G02*
X177475002Y-88670000I-249998J0D01*
G01*
X176649998Y-88670000D01*
G75*
G02*
X176400000Y-88420002I0J249998D01*
G01*
X176400000Y-86219998D01*
G75*
G02*
X176649998Y-85970000I249998J0D01*
G01*
X177475002Y-85970000D01*
G75*
G02*
X177725000Y-86219998I0J-249998D01*
G01*
G37*
G36*
G01*
X177087500Y-90145000D02*
X177087500Y-91095000D01*
G75*
G02*
X176837500Y-91345000I-250000J0D01*
G01*
X176162500Y-91345000D01*
G75*
G02*
X175912500Y-91095000I0J250000D01*
G01*
X175912500Y-90145000D01*
G75*
G02*
X176162500Y-89895000I250000J0D01*
G01*
X176837500Y-89895000D01*
G75*
G02*
X177087500Y-90145000I0J-250000D01*
G01*
G37*
G36*
G01*
X175012500Y-90145000D02*
X175012500Y-91095000D01*
G75*
G02*
X174762500Y-91345000I-250000J0D01*
G01*
X174087500Y-91345000D01*
G75*
G02*
X173837500Y-91095000I0J250000D01*
G01*
X173837500Y-90145000D01*
G75*
G02*
X174087500Y-89895000I250000J0D01*
G01*
X174762500Y-89895000D01*
G75*
G02*
X175012500Y-90145000I0J-250000D01*
G01*
G37*
G36*
G01*
X172555000Y-90420000D02*
X172245000Y-90420000D01*
G75*
G02*
X172090000Y-90265000I0J155000D01*
G01*
X172090000Y-89840000D01*
G75*
G02*
X172245000Y-89685000I155000J0D01*
G01*
X172555000Y-89685000D01*
G75*
G02*
X172710000Y-89840000I0J-155000D01*
G01*
X172710000Y-90265000D01*
G75*
G02*
X172555000Y-90420000I-155000J0D01*
G01*
G37*
G36*
G01*
X172555000Y-91555000D02*
X172245000Y-91555000D01*
G75*
G02*
X172090000Y-91400000I0J155000D01*
G01*
X172090000Y-90975000D01*
G75*
G02*
X172245000Y-90820000I155000J0D01*
G01*
X172555000Y-90820000D01*
G75*
G02*
X172710000Y-90975000I0J-155000D01*
G01*
X172710000Y-91400000D01*
G75*
G02*
X172555000Y-91555000I-155000J0D01*
G01*
G37*
G36*
G01*
X171055000Y-91555000D02*
X170745000Y-91555000D01*
G75*
G02*
X170590000Y-91400000I0J155000D01*
G01*
X170590000Y-90975000D01*
G75*
G02*
X170745000Y-90820000I155000J0D01*
G01*
X171055000Y-90820000D01*
G75*
G02*
X171210000Y-90975000I0J-155000D01*
G01*
X171210000Y-91400000D01*
G75*
G02*
X171055000Y-91555000I-155000J0D01*
G01*
G37*
G36*
G01*
X171055000Y-90420000D02*
X170745000Y-90420000D01*
G75*
G02*
X170590000Y-90265000I0J155000D01*
G01*
X170590000Y-89840000D01*
G75*
G02*
X170745000Y-89685000I155000J0D01*
G01*
X171055000Y-89685000D01*
G75*
G02*
X171210000Y-89840000I0J-155000D01*
G01*
X171210000Y-90265000D01*
G75*
G02*
X171055000Y-90420000I-155000J0D01*
G01*
G37*
G36*
G01*
X154555000Y-108122500D02*
X154245000Y-108122500D01*
G75*
G02*
X154090000Y-107967500I0J155000D01*
G01*
X154090000Y-107542500D01*
G75*
G02*
X154245000Y-107387500I155000J0D01*
G01*
X154555000Y-107387500D01*
G75*
G02*
X154710000Y-107542500I0J-155000D01*
G01*
X154710000Y-107967500D01*
G75*
G02*
X154555000Y-108122500I-155000J0D01*
G01*
G37*
G36*
G01*
X154555000Y-106987500D02*
X154245000Y-106987500D01*
G75*
G02*
X154090000Y-106832500I0J155000D01*
G01*
X154090000Y-106407500D01*
G75*
G02*
X154245000Y-106252500I155000J0D01*
G01*
X154555000Y-106252500D01*
G75*
G02*
X154710000Y-106407500I0J-155000D01*
G01*
X154710000Y-106832500D01*
G75*
G02*
X154555000Y-106987500I-155000J0D01*
G01*
G37*
G36*
G01*
X162729998Y-79563000D02*
X164930002Y-79563000D01*
G75*
G02*
X165180000Y-79812998I0J-249998D01*
G01*
X165180000Y-80638002D01*
G75*
G02*
X164930002Y-80888000I-249998J0D01*
G01*
X162729998Y-80888000D01*
G75*
G02*
X162480000Y-80638002I0J249998D01*
G01*
X162480000Y-79812998D01*
G75*
G02*
X162729998Y-79563000I249998J0D01*
G01*
G37*
G36*
G01*
X162729998Y-82688000D02*
X164930002Y-82688000D01*
G75*
G02*
X165180000Y-82937998I0J-249998D01*
G01*
X165180000Y-83763002D01*
G75*
G02*
X164930002Y-84013000I-249998J0D01*
G01*
X162729998Y-84013000D01*
G75*
G02*
X162480000Y-83763002I0J249998D01*
G01*
X162480000Y-82937998D01*
G75*
G02*
X162729998Y-82688000I249998J0D01*
G01*
G37*
G36*
G01*
X159799000Y-83465000D02*
X160749000Y-83465000D01*
G75*
G02*
X160999000Y-83715000I0J-250000D01*
G01*
X160999000Y-84390000D01*
G75*
G02*
X160749000Y-84640000I-250000J0D01*
G01*
X159799000Y-84640000D01*
G75*
G02*
X159549000Y-84390000I0J250000D01*
G01*
X159549000Y-83715000D01*
G75*
G02*
X159799000Y-83465000I250000J0D01*
G01*
G37*
G36*
G01*
X159799000Y-85540000D02*
X160749000Y-85540000D01*
G75*
G02*
X160999000Y-85790000I0J-250000D01*
G01*
X160999000Y-86465000D01*
G75*
G02*
X160749000Y-86715000I-250000J0D01*
G01*
X159799000Y-86715000D01*
G75*
G02*
X159549000Y-86465000I0J250000D01*
G01*
X159549000Y-85790000D01*
G75*
G02*
X159799000Y-85540000I250000J0D01*
G01*
G37*
G36*
G01*
X162645000Y-86620000D02*
X162955000Y-86620000D01*
G75*
G02*
X163110000Y-86775000I0J-155000D01*
G01*
X163110000Y-87200000D01*
G75*
G02*
X162955000Y-87355000I-155000J0D01*
G01*
X162645000Y-87355000D01*
G75*
G02*
X162490000Y-87200000I0J155000D01*
G01*
X162490000Y-86775000D01*
G75*
G02*
X162645000Y-86620000I155000J0D01*
G01*
G37*
G36*
G01*
X162645000Y-85485000D02*
X162955000Y-85485000D01*
G75*
G02*
X163110000Y-85640000I0J-155000D01*
G01*
X163110000Y-86065000D01*
G75*
G02*
X162955000Y-86220000I-155000J0D01*
G01*
X162645000Y-86220000D01*
G75*
G02*
X162490000Y-86065000I0J155000D01*
G01*
X162490000Y-85640000D01*
G75*
G02*
X162645000Y-85485000I155000J0D01*
G01*
G37*
G36*
G01*
X164045000Y-85485000D02*
X164355000Y-85485000D01*
G75*
G02*
X164510000Y-85640000I0J-155000D01*
G01*
X164510000Y-86065000D01*
G75*
G02*
X164355000Y-86220000I-155000J0D01*
G01*
X164045000Y-86220000D01*
G75*
G02*
X163890000Y-86065000I0J155000D01*
G01*
X163890000Y-85640000D01*
G75*
G02*
X164045000Y-85485000I155000J0D01*
G01*
G37*
G36*
G01*
X164045000Y-86620000D02*
X164355000Y-86620000D01*
G75*
G02*
X164510000Y-86775000I0J-155000D01*
G01*
X164510000Y-87200000D01*
G75*
G02*
X164355000Y-87355000I-155000J0D01*
G01*
X164045000Y-87355000D01*
G75*
G02*
X163890000Y-87200000I0J155000D01*
G01*
X163890000Y-86775000D01*
G75*
G02*
X164045000Y-86620000I155000J0D01*
G01*
G37*
G36*
G01*
X166271000Y-106480000D02*
X165961000Y-106480000D01*
G75*
G02*
X165806000Y-106325000I0J155000D01*
G01*
X165806000Y-105900000D01*
G75*
G02*
X165961000Y-105745000I155000J0D01*
G01*
X166271000Y-105745000D01*
G75*
G02*
X166426000Y-105900000I0J-155000D01*
G01*
X166426000Y-106325000D01*
G75*
G02*
X166271000Y-106480000I-155000J0D01*
G01*
G37*
G36*
G01*
X166271000Y-107615000D02*
X165961000Y-107615000D01*
G75*
G02*
X165806000Y-107460000I0J155000D01*
G01*
X165806000Y-107035000D01*
G75*
G02*
X165961000Y-106880000I155000J0D01*
G01*
X166271000Y-106880000D01*
G75*
G02*
X166426000Y-107035000I0J-155000D01*
G01*
X166426000Y-107460000D01*
G75*
G02*
X166271000Y-107615000I-155000J0D01*
G01*
G37*
G36*
G01*
X169131000Y-106992000D02*
X168181000Y-106992000D01*
G75*
G02*
X167931000Y-106742000I0J250000D01*
G01*
X167931000Y-106067000D01*
G75*
G02*
X168181000Y-105817000I250000J0D01*
G01*
X169131000Y-105817000D01*
G75*
G02*
X169381000Y-106067000I0J-250000D01*
G01*
X169381000Y-106742000D01*
G75*
G02*
X169131000Y-106992000I-250000J0D01*
G01*
G37*
G36*
G01*
X169131000Y-109067000D02*
X168181000Y-109067000D01*
G75*
G02*
X167931000Y-108817000I0J250000D01*
G01*
X167931000Y-108142000D01*
G75*
G02*
X168181000Y-107892000I250000J0D01*
G01*
X169131000Y-107892000D01*
G75*
G02*
X169381000Y-108142000I0J-250000D01*
G01*
X169381000Y-108817000D01*
G75*
G02*
X169131000Y-109067000I-250000J0D01*
G01*
G37*
G36*
G01*
X171671000Y-109067000D02*
X170721000Y-109067000D01*
G75*
G02*
X170471000Y-108817000I0J250000D01*
G01*
X170471000Y-108142000D01*
G75*
G02*
X170721000Y-107892000I250000J0D01*
G01*
X171671000Y-107892000D01*
G75*
G02*
X171921000Y-108142000I0J-250000D01*
G01*
X171921000Y-108817000D01*
G75*
G02*
X171671000Y-109067000I-250000J0D01*
G01*
G37*
G36*
G01*
X171671000Y-106992000D02*
X170721000Y-106992000D01*
G75*
G02*
X170471000Y-106742000I0J250000D01*
G01*
X170471000Y-106067000D01*
G75*
G02*
X170721000Y-105817000I250000J0D01*
G01*
X171671000Y-105817000D01*
G75*
G02*
X171921000Y-106067000I0J-250000D01*
G01*
X171921000Y-106742000D01*
G75*
G02*
X171671000Y-106992000I-250000J0D01*
G01*
G37*
G36*
G01*
X174211000Y-108516000D02*
X173261000Y-108516000D01*
G75*
G02*
X173011000Y-108266000I0J250000D01*
G01*
X173011000Y-107591000D01*
G75*
G02*
X173261000Y-107341000I250000J0D01*
G01*
X174211000Y-107341000D01*
G75*
G02*
X174461000Y-107591000I0J-250000D01*
G01*
X174461000Y-108266000D01*
G75*
G02*
X174211000Y-108516000I-250000J0D01*
G01*
G37*
G36*
G01*
X174211000Y-110591000D02*
X173261000Y-110591000D01*
G75*
G02*
X173011000Y-110341000I0J250000D01*
G01*
X173011000Y-109666000D01*
G75*
G02*
X173261000Y-109416000I250000J0D01*
G01*
X174211000Y-109416000D01*
G75*
G02*
X174461000Y-109666000I0J-250000D01*
G01*
X174461000Y-110341000D01*
G75*
G02*
X174211000Y-110591000I-250000J0D01*
G01*
G37*
G36*
G01*
X170975000Y-110135000D02*
X171925000Y-110135000D01*
G75*
G02*
X172175000Y-110385000I0J-250000D01*
G01*
X172175000Y-111060000D01*
G75*
G02*
X171925000Y-111310000I-250000J0D01*
G01*
X170975000Y-111310000D01*
G75*
G02*
X170725000Y-111060000I0J250000D01*
G01*
X170725000Y-110385000D01*
G75*
G02*
X170975000Y-110135000I250000J0D01*
G01*
G37*
G36*
G01*
X170975000Y-112210000D02*
X171925000Y-112210000D01*
G75*
G02*
X172175000Y-112460000I0J-250000D01*
G01*
X172175000Y-113135000D01*
G75*
G02*
X171925000Y-113385000I-250000J0D01*
G01*
X170975000Y-113385000D01*
G75*
G02*
X170725000Y-113135000I0J250000D01*
G01*
X170725000Y-112460000D01*
G75*
G02*
X170975000Y-112210000I250000J0D01*
G01*
G37*
G36*
G01*
X168181000Y-112210000D02*
X169131000Y-112210000D01*
G75*
G02*
X169381000Y-112460000I0J-250000D01*
G01*
X169381000Y-113135000D01*
G75*
G02*
X169131000Y-113385000I-250000J0D01*
G01*
X168181000Y-113385000D01*
G75*
G02*
X167931000Y-113135000I0J250000D01*
G01*
X167931000Y-112460000D01*
G75*
G02*
X168181000Y-112210000I250000J0D01*
G01*
G37*
G36*
G01*
X168181000Y-110135000D02*
X169131000Y-110135000D01*
G75*
G02*
X169381000Y-110385000I0J-250000D01*
G01*
X169381000Y-111060000D01*
G75*
G02*
X169131000Y-111310000I-250000J0D01*
G01*
X168181000Y-111310000D01*
G75*
G02*
X167931000Y-111060000I0J250000D01*
G01*
X167931000Y-110385000D01*
G75*
G02*
X168181000Y-110135000I250000J0D01*
G01*
G37*
G36*
G01*
X181965000Y-135669000D02*
X181965000Y-136619000D01*
G75*
G02*
X181715000Y-136869000I-250000J0D01*
G01*
X181040000Y-136869000D01*
G75*
G02*
X180790000Y-136619000I0J250000D01*
G01*
X180790000Y-135669000D01*
G75*
G02*
X181040000Y-135419000I250000J0D01*
G01*
X181715000Y-135419000D01*
G75*
G02*
X181965000Y-135669000I0J-250000D01*
G01*
G37*
G36*
G01*
X179890000Y-135669000D02*
X179890000Y-136619000D01*
G75*
G02*
X179640000Y-136869000I-250000J0D01*
G01*
X178965000Y-136869000D01*
G75*
G02*
X178715000Y-136619000I0J250000D01*
G01*
X178715000Y-135669000D01*
G75*
G02*
X178965000Y-135419000I250000J0D01*
G01*
X179640000Y-135419000D01*
G75*
G02*
X179890000Y-135669000I0J-250000D01*
G01*
G37*
G36*
G01*
X185870000Y-136619000D02*
X185870000Y-135669000D01*
G75*
G02*
X186120000Y-135419000I250000J0D01*
G01*
X186795000Y-135419000D01*
G75*
G02*
X187045000Y-135669000I0J-250000D01*
G01*
X187045000Y-136619000D01*
G75*
G02*
X186795000Y-136869000I-250000J0D01*
G01*
X186120000Y-136869000D01*
G75*
G02*
X185870000Y-136619000I0J250000D01*
G01*
G37*
G36*
G01*
X183795000Y-136619000D02*
X183795000Y-135669000D01*
G75*
G02*
X184045000Y-135419000I250000J0D01*
G01*
X184720000Y-135419000D01*
G75*
G02*
X184970000Y-135669000I0J-250000D01*
G01*
X184970000Y-136619000D01*
G75*
G02*
X184720000Y-136869000I-250000J0D01*
G01*
X184045000Y-136869000D01*
G75*
G02*
X183795000Y-136619000I0J250000D01*
G01*
G37*
G36*
G01*
X186378000Y-87851000D02*
X186378000Y-86901000D01*
G75*
G02*
X186628000Y-86651000I250000J0D01*
G01*
X187303000Y-86651000D01*
G75*
G02*
X187553000Y-86901000I0J-250000D01*
G01*
X187553000Y-87851000D01*
G75*
G02*
X187303000Y-88101000I-250000J0D01*
G01*
X186628000Y-88101000D01*
G75*
G02*
X186378000Y-87851000I0J250000D01*
G01*
G37*
G36*
G01*
X184303000Y-87851000D02*
X184303000Y-86901000D01*
G75*
G02*
X184553000Y-86651000I250000J0D01*
G01*
X185228000Y-86651000D01*
G75*
G02*
X185478000Y-86901000I0J-250000D01*
G01*
X185478000Y-87851000D01*
G75*
G02*
X185228000Y-88101000I-250000J0D01*
G01*
X184553000Y-88101000D01*
G75*
G02*
X184303000Y-87851000I0J250000D01*
G01*
G37*
G36*
G01*
X184993000Y-85499000D02*
X184993000Y-85189000D01*
G75*
G02*
X185148000Y-85034000I155000J0D01*
G01*
X185573000Y-85034000D01*
G75*
G02*
X185728000Y-85189000I0J-155000D01*
G01*
X185728000Y-85499000D01*
G75*
G02*
X185573000Y-85654000I-155000J0D01*
G01*
X185148000Y-85654000D01*
G75*
G02*
X184993000Y-85499000I0J155000D01*
G01*
G37*
G36*
G01*
X186128000Y-85499000D02*
X186128000Y-85189000D01*
G75*
G02*
X186283000Y-85034000I155000J0D01*
G01*
X186708000Y-85034000D01*
G75*
G02*
X186863000Y-85189000I0J-155000D01*
G01*
X186863000Y-85499000D01*
G75*
G02*
X186708000Y-85654000I-155000J0D01*
G01*
X186283000Y-85654000D01*
G75*
G02*
X186128000Y-85499000I0J155000D01*
G01*
G37*
G36*
G01*
X168779500Y-115442001D02*
X168779500Y-114541999D01*
G75*
G02*
X169029499Y-114292000I249999J0D01*
G01*
X169729501Y-114292000D01*
G75*
G02*
X169979500Y-114541999I0J-249999D01*
G01*
X169979500Y-115442001D01*
G75*
G02*
X169729501Y-115692000I-249999J0D01*
G01*
X169029499Y-115692000D01*
G75*
G02*
X168779500Y-115442001I0J249999D01*
G01*
G37*
G36*
G01*
X170779500Y-115442001D02*
X170779500Y-114541999D01*
G75*
G02*
X171029499Y-114292000I249999J0D01*
G01*
X171729501Y-114292000D01*
G75*
G02*
X171979500Y-114541999I0J-249999D01*
G01*
X171979500Y-115442001D01*
G75*
G02*
X171729501Y-115692000I-249999J0D01*
G01*
X171029499Y-115692000D01*
G75*
G02*
X170779500Y-115442001I0J249999D01*
G01*
G37*
G36*
G01*
X168802000Y-118052001D02*
X168802000Y-117151999D01*
G75*
G02*
X169051999Y-116902000I249999J0D01*
G01*
X169752001Y-116902000D01*
G75*
G02*
X170002000Y-117151999I0J-249999D01*
G01*
X170002000Y-118052001D01*
G75*
G02*
X169752001Y-118302000I-249999J0D01*
G01*
X169051999Y-118302000D01*
G75*
G02*
X168802000Y-118052001I0J249999D01*
G01*
G37*
G36*
G01*
X170802000Y-118052001D02*
X170802000Y-117151999D01*
G75*
G02*
X171051999Y-116902000I249999J0D01*
G01*
X171752001Y-116902000D01*
G75*
G02*
X172002000Y-117151999I0J-249999D01*
G01*
X172002000Y-118052001D01*
G75*
G02*
X171752001Y-118302000I-249999J0D01*
G01*
X171051999Y-118302000D01*
G75*
G02*
X170802000Y-118052001I0J249999D01*
G01*
G37*
G36*
G01*
X172000000Y-103529999D02*
X172000000Y-104430001D01*
G75*
G02*
X171750001Y-104680000I-249999J0D01*
G01*
X171049999Y-104680000D01*
G75*
G02*
X170800000Y-104430001I0J249999D01*
G01*
X170800000Y-103529999D01*
G75*
G02*
X171049999Y-103280000I249999J0D01*
G01*
X171750001Y-103280000D01*
G75*
G02*
X172000000Y-103529999I0J-249999D01*
G01*
G37*
G36*
G01*
X174000000Y-103529999D02*
X174000000Y-104430001D01*
G75*
G02*
X173750001Y-104680000I-249999J0D01*
G01*
X173049999Y-104680000D01*
G75*
G02*
X172800000Y-104430001I0J249999D01*
G01*
X172800000Y-103529999D01*
G75*
G02*
X173049999Y-103280000I249999J0D01*
G01*
X173750001Y-103280000D01*
G75*
G02*
X174000000Y-103529999I0J-249999D01*
G01*
G37*
G36*
G01*
X188918001Y-132156000D02*
X188017999Y-132156000D01*
G75*
G02*
X187768000Y-131906001I0J249999D01*
G01*
X187768000Y-131205999D01*
G75*
G02*
X188017999Y-130956000I249999J0D01*
G01*
X188918001Y-130956000D01*
G75*
G02*
X189168000Y-131205999I0J-249999D01*
G01*
X189168000Y-131906001D01*
G75*
G02*
X188918001Y-132156000I-249999J0D01*
G01*
G37*
G36*
G01*
X188918001Y-130156000D02*
X188017999Y-130156000D01*
G75*
G02*
X187768000Y-129906001I0J249999D01*
G01*
X187768000Y-129205999D01*
G75*
G02*
X188017999Y-128956000I249999J0D01*
G01*
X188918001Y-128956000D01*
G75*
G02*
X189168000Y-129205999I0J-249999D01*
G01*
X189168000Y-129906001D01*
G75*
G02*
X188918001Y-130156000I-249999J0D01*
G01*
G37*
G36*
G01*
X177095999Y-67456000D02*
X177996001Y-67456000D01*
G75*
G02*
X178246000Y-67705999I0J-249999D01*
G01*
X178246000Y-68406001D01*
G75*
G02*
X177996001Y-68656000I-249999J0D01*
G01*
X177095999Y-68656000D01*
G75*
G02*
X176846000Y-68406001I0J249999D01*
G01*
X176846000Y-67705999D01*
G75*
G02*
X177095999Y-67456000I249999J0D01*
G01*
G37*
G36*
G01*
X177095999Y-65456000D02*
X177996001Y-65456000D01*
G75*
G02*
X178246000Y-65705999I0J-249999D01*
G01*
X178246000Y-66406001D01*
G75*
G02*
X177996001Y-66656000I-249999J0D01*
G01*
X177095999Y-66656000D01*
G75*
G02*
X176846000Y-66406001I0J249999D01*
G01*
X176846000Y-65705999D01*
G75*
G02*
X177095999Y-65456000I249999J0D01*
G01*
G37*
G36*
G01*
X184461999Y-67456000D02*
X185362001Y-67456000D01*
G75*
G02*
X185612000Y-67705999I0J-249999D01*
G01*
X185612000Y-68406001D01*
G75*
G02*
X185362001Y-68656000I-249999J0D01*
G01*
X184461999Y-68656000D01*
G75*
G02*
X184212000Y-68406001I0J249999D01*
G01*
X184212000Y-67705999D01*
G75*
G02*
X184461999Y-67456000I249999J0D01*
G01*
G37*
G36*
G01*
X184461999Y-65456000D02*
X185362001Y-65456000D01*
G75*
G02*
X185612000Y-65705999I0J-249999D01*
G01*
X185612000Y-66406001D01*
G75*
G02*
X185362001Y-66656000I-249999J0D01*
G01*
X184461999Y-66656000D01*
G75*
G02*
X184212000Y-66406001I0J249999D01*
G01*
X184212000Y-65705999D01*
G75*
G02*
X184461999Y-65456000I249999J0D01*
G01*
G37*
G36*
G01*
X178994000Y-103066001D02*
X178994000Y-102165999D01*
G75*
G02*
X179243999Y-101916000I249999J0D01*
G01*
X179944001Y-101916000D01*
G75*
G02*
X180194000Y-102165999I0J-249999D01*
G01*
X180194000Y-103066001D01*
G75*
G02*
X179944001Y-103316000I-249999J0D01*
G01*
X179243999Y-103316000D01*
G75*
G02*
X178994000Y-103066001I0J249999D01*
G01*
G37*
G36*
G01*
X180994000Y-103066001D02*
X180994000Y-102165999D01*
G75*
G02*
X181243999Y-101916000I249999J0D01*
G01*
X181944001Y-101916000D01*
G75*
G02*
X182194000Y-102165999I0J-249999D01*
G01*
X182194000Y-103066001D01*
G75*
G02*
X181944001Y-103316000I-249999J0D01*
G01*
X181243999Y-103316000D01*
G75*
G02*
X180994000Y-103066001I0J249999D01*
G01*
G37*
G36*
G01*
X125147580Y-128982599D02*
X125147580Y-129882601D01*
G75*
G02*
X124897581Y-130132600I-249999J0D01*
G01*
X124197579Y-130132600D01*
G75*
G02*
X123947580Y-129882601I0J249999D01*
G01*
X123947580Y-128982599D01*
G75*
G02*
X124197579Y-128732600I249999J0D01*
G01*
X124897581Y-128732600D01*
G75*
G02*
X125147580Y-128982599I0J-249999D01*
G01*
G37*
G36*
G01*
X127147580Y-128982599D02*
X127147580Y-129882601D01*
G75*
G02*
X126897581Y-130132600I-249999J0D01*
G01*
X126197579Y-130132600D01*
G75*
G02*
X125947580Y-129882601I0J249999D01*
G01*
X125947580Y-128982599D01*
G75*
G02*
X126197579Y-128732600I249999J0D01*
G01*
X126897581Y-128732600D01*
G75*
G02*
X127147580Y-128982599I0J-249999D01*
G01*
G37*
G36*
G01*
X127147580Y-126582599D02*
X127147580Y-127482601D01*
G75*
G02*
X126897581Y-127732600I-249999J0D01*
G01*
X126197579Y-127732600D01*
G75*
G02*
X125947580Y-127482601I0J249999D01*
G01*
X125947580Y-126582599D01*
G75*
G02*
X126197579Y-126332600I249999J0D01*
G01*
X126897581Y-126332600D01*
G75*
G02*
X127147580Y-126582599I0J-249999D01*
G01*
G37*
G36*
G01*
X125147580Y-126582599D02*
X125147580Y-127482601D01*
G75*
G02*
X124897581Y-127732600I-249999J0D01*
G01*
X124197579Y-127732600D01*
G75*
G02*
X123947580Y-127482601I0J249999D01*
G01*
X123947580Y-126582599D01*
G75*
G02*
X124197579Y-126332600I249999J0D01*
G01*
X124897581Y-126332600D01*
G75*
G02*
X125147580Y-126582599I0J-249999D01*
G01*
G37*
G36*
G01*
X125147580Y-123982599D02*
X125147580Y-124882601D01*
G75*
G02*
X124897581Y-125132600I-249999J0D01*
G01*
X124197579Y-125132600D01*
G75*
G02*
X123947580Y-124882601I0J249999D01*
G01*
X123947580Y-123982599D01*
G75*
G02*
X124197579Y-123732600I249999J0D01*
G01*
X124897581Y-123732600D01*
G75*
G02*
X125147580Y-123982599I0J-249999D01*
G01*
G37*
G36*
G01*
X127147580Y-123982599D02*
X127147580Y-124882601D01*
G75*
G02*
X126897581Y-125132600I-249999J0D01*
G01*
X126197579Y-125132600D01*
G75*
G02*
X125947580Y-124882601I0J249999D01*
G01*
X125947580Y-123982599D01*
G75*
G02*
X126197579Y-123732600I249999J0D01*
G01*
X126897581Y-123732600D01*
G75*
G02*
X127147580Y-123982599I0J-249999D01*
G01*
G37*
G36*
G01*
X127147580Y-121282599D02*
X127147580Y-122182601D01*
G75*
G02*
X126897581Y-122432600I-249999J0D01*
G01*
X126197579Y-122432600D01*
G75*
G02*
X125947580Y-122182601I0J249999D01*
G01*
X125947580Y-121282599D01*
G75*
G02*
X126197579Y-121032600I249999J0D01*
G01*
X126897581Y-121032600D01*
G75*
G02*
X127147580Y-121282599I0J-249999D01*
G01*
G37*
G36*
G01*
X125147580Y-121282599D02*
X125147580Y-122182601D01*
G75*
G02*
X124897581Y-122432600I-249999J0D01*
G01*
X124197579Y-122432600D01*
G75*
G02*
X123947580Y-122182601I0J249999D01*
G01*
X123947580Y-121282599D01*
G75*
G02*
X124197579Y-121032600I249999J0D01*
G01*
X124897581Y-121032600D01*
G75*
G02*
X125147580Y-121282599I0J-249999D01*
G01*
G37*
G36*
G01*
X125147580Y-118782599D02*
X125147580Y-119682601D01*
G75*
G02*
X124897581Y-119932600I-249999J0D01*
G01*
X124197579Y-119932600D01*
G75*
G02*
X123947580Y-119682601I0J249999D01*
G01*
X123947580Y-118782599D01*
G75*
G02*
X124197579Y-118532600I249999J0D01*
G01*
X124897581Y-118532600D01*
G75*
G02*
X125147580Y-118782599I0J-249999D01*
G01*
G37*
G36*
G01*
X127147580Y-118782599D02*
X127147580Y-119682601D01*
G75*
G02*
X126897581Y-119932600I-249999J0D01*
G01*
X126197579Y-119932600D01*
G75*
G02*
X125947580Y-119682601I0J249999D01*
G01*
X125947580Y-118782599D01*
G75*
G02*
X126197579Y-118532600I249999J0D01*
G01*
X126897581Y-118532600D01*
G75*
G02*
X127147580Y-118782599I0J-249999D01*
G01*
G37*
G36*
G01*
X127147580Y-116482599D02*
X127147580Y-117382601D01*
G75*
G02*
X126897581Y-117632600I-249999J0D01*
G01*
X126197579Y-117632600D01*
G75*
G02*
X125947580Y-117382601I0J249999D01*
G01*
X125947580Y-116482599D01*
G75*
G02*
X126197579Y-116232600I249999J0D01*
G01*
X126897581Y-116232600D01*
G75*
G02*
X127147580Y-116482599I0J-249999D01*
G01*
G37*
G36*
G01*
X125147580Y-116482599D02*
X125147580Y-117382601D01*
G75*
G02*
X124897581Y-117632600I-249999J0D01*
G01*
X124197579Y-117632600D01*
G75*
G02*
X123947580Y-117382601I0J249999D01*
G01*
X123947580Y-116482599D01*
G75*
G02*
X124197579Y-116232600I249999J0D01*
G01*
X124897581Y-116232600D01*
G75*
G02*
X125147580Y-116482599I0J-249999D01*
G01*
G37*
G36*
G01*
X125147580Y-113832599D02*
X125147580Y-114732601D01*
G75*
G02*
X124897581Y-114982600I-249999J0D01*
G01*
X124197579Y-114982600D01*
G75*
G02*
X123947580Y-114732601I0J249999D01*
G01*
X123947580Y-113832599D01*
G75*
G02*
X124197579Y-113582600I249999J0D01*
G01*
X124897581Y-113582600D01*
G75*
G02*
X125147580Y-113832599I0J-249999D01*
G01*
G37*
G36*
G01*
X127147580Y-113832599D02*
X127147580Y-114732601D01*
G75*
G02*
X126897581Y-114982600I-249999J0D01*
G01*
X126197579Y-114982600D01*
G75*
G02*
X125947580Y-114732601I0J249999D01*
G01*
X125947580Y-113832599D01*
G75*
G02*
X126197579Y-113582600I249999J0D01*
G01*
X126897581Y-113582600D01*
G75*
G02*
X127147580Y-113832599I0J-249999D01*
G01*
G37*
G36*
G01*
X125150000Y-111369999D02*
X125150000Y-112270001D01*
G75*
G02*
X124900001Y-112520000I-249999J0D01*
G01*
X124199999Y-112520000D01*
G75*
G02*
X123950000Y-112270001I0J249999D01*
G01*
X123950000Y-111369999D01*
G75*
G02*
X124199999Y-111120000I249999J0D01*
G01*
X124900001Y-111120000D01*
G75*
G02*
X125150000Y-111369999I0J-249999D01*
G01*
G37*
G36*
G01*
X127150000Y-111369999D02*
X127150000Y-112270001D01*
G75*
G02*
X126900001Y-112520000I-249999J0D01*
G01*
X126199999Y-112520000D01*
G75*
G02*
X125950000Y-112270001I0J249999D01*
G01*
X125950000Y-111369999D01*
G75*
G02*
X126199999Y-111120000I249999J0D01*
G01*
X126900001Y-111120000D01*
G75*
G02*
X127150000Y-111369999I0J-249999D01*
G01*
G37*
G36*
G01*
X138800000Y-128969999D02*
X138800000Y-129870001D01*
G75*
G02*
X138550001Y-130120000I-249999J0D01*
G01*
X137849999Y-130120000D01*
G75*
G02*
X137600000Y-129870001I0J249999D01*
G01*
X137600000Y-128969999D01*
G75*
G02*
X137849999Y-128720000I249999J0D01*
G01*
X138550001Y-128720000D01*
G75*
G02*
X138800000Y-128969999I0J-249999D01*
G01*
G37*
G36*
G01*
X136800000Y-128969999D02*
X136800000Y-129870001D01*
G75*
G02*
X136550001Y-130120000I-249999J0D01*
G01*
X135849999Y-130120000D01*
G75*
G02*
X135600000Y-129870001I0J249999D01*
G01*
X135600000Y-128969999D01*
G75*
G02*
X135849999Y-128720000I249999J0D01*
G01*
X136550001Y-128720000D01*
G75*
G02*
X136800000Y-128969999I0J-249999D01*
G01*
G37*
G36*
G01*
X138800000Y-123969999D02*
X138800000Y-124870001D01*
G75*
G02*
X138550001Y-125120000I-249999J0D01*
G01*
X137849999Y-125120000D01*
G75*
G02*
X137600000Y-124870001I0J249999D01*
G01*
X137600000Y-123969999D01*
G75*
G02*
X137849999Y-123720000I249999J0D01*
G01*
X138550001Y-123720000D01*
G75*
G02*
X138800000Y-123969999I0J-249999D01*
G01*
G37*
G36*
G01*
X136800000Y-123969999D02*
X136800000Y-124870001D01*
G75*
G02*
X136550001Y-125120000I-249999J0D01*
G01*
X135849999Y-125120000D01*
G75*
G02*
X135600000Y-124870001I0J249999D01*
G01*
X135600000Y-123969999D01*
G75*
G02*
X135849999Y-123720000I249999J0D01*
G01*
X136550001Y-123720000D01*
G75*
G02*
X136800000Y-123969999I0J-249999D01*
G01*
G37*
G36*
G01*
X136800000Y-121269999D02*
X136800000Y-122170001D01*
G75*
G02*
X136550001Y-122420000I-249999J0D01*
G01*
X135849999Y-122420000D01*
G75*
G02*
X135600000Y-122170001I0J249999D01*
G01*
X135600000Y-121269999D01*
G75*
G02*
X135849999Y-121020000I249999J0D01*
G01*
X136550001Y-121020000D01*
G75*
G02*
X136800000Y-121269999I0J-249999D01*
G01*
G37*
G36*
G01*
X138800000Y-121269999D02*
X138800000Y-122170001D01*
G75*
G02*
X138550001Y-122420000I-249999J0D01*
G01*
X137849999Y-122420000D01*
G75*
G02*
X137600000Y-122170001I0J249999D01*
G01*
X137600000Y-121269999D01*
G75*
G02*
X137849999Y-121020000I249999J0D01*
G01*
X138550001Y-121020000D01*
G75*
G02*
X138800000Y-121269999I0J-249999D01*
G01*
G37*
G36*
G01*
X138686640Y-118700119D02*
X138686640Y-119600121D01*
G75*
G02*
X138436641Y-119850120I-249999J0D01*
G01*
X137736639Y-119850120D01*
G75*
G02*
X137486640Y-119600121I0J249999D01*
G01*
X137486640Y-118700119D01*
G75*
G02*
X137736639Y-118450120I249999J0D01*
G01*
X138436641Y-118450120D01*
G75*
G02*
X138686640Y-118700119I0J-249999D01*
G01*
G37*
G36*
G01*
X136686640Y-118700119D02*
X136686640Y-119600121D01*
G75*
G02*
X136436641Y-119850120I-249999J0D01*
G01*
X135736639Y-119850120D01*
G75*
G02*
X135486640Y-119600121I0J249999D01*
G01*
X135486640Y-118700119D01*
G75*
G02*
X135736639Y-118450120I249999J0D01*
G01*
X136436641Y-118450120D01*
G75*
G02*
X136686640Y-118700119I0J-249999D01*
G01*
G37*
G36*
G01*
X136676640Y-116430119D02*
X136676640Y-117330121D01*
G75*
G02*
X136426641Y-117580120I-249999J0D01*
G01*
X135726639Y-117580120D01*
G75*
G02*
X135476640Y-117330121I0J249999D01*
G01*
X135476640Y-116430119D01*
G75*
G02*
X135726639Y-116180120I249999J0D01*
G01*
X136426641Y-116180120D01*
G75*
G02*
X136676640Y-116430119I0J-249999D01*
G01*
G37*
G36*
G01*
X138676640Y-116430119D02*
X138676640Y-117330121D01*
G75*
G02*
X138426641Y-117580120I-249999J0D01*
G01*
X137726639Y-117580120D01*
G75*
G02*
X137476640Y-117330121I0J249999D01*
G01*
X137476640Y-116430119D01*
G75*
G02*
X137726639Y-116180120I249999J0D01*
G01*
X138426641Y-116180120D01*
G75*
G02*
X138676640Y-116430119I0J-249999D01*
G01*
G37*
G36*
G01*
X138666640Y-114020119D02*
X138666640Y-114920121D01*
G75*
G02*
X138416641Y-115170120I-249999J0D01*
G01*
X137716639Y-115170120D01*
G75*
G02*
X137466640Y-114920121I0J249999D01*
G01*
X137466640Y-114020119D01*
G75*
G02*
X137716639Y-113770120I249999J0D01*
G01*
X138416641Y-113770120D01*
G75*
G02*
X138666640Y-114020119I0J-249999D01*
G01*
G37*
G36*
G01*
X136666640Y-114020119D02*
X136666640Y-114920121D01*
G75*
G02*
X136416641Y-115170120I-249999J0D01*
G01*
X135716639Y-115170120D01*
G75*
G02*
X135466640Y-114920121I0J249999D01*
G01*
X135466640Y-114020119D01*
G75*
G02*
X135716639Y-113770120I249999J0D01*
G01*
X136416641Y-113770120D01*
G75*
G02*
X136666640Y-114020119I0J-249999D01*
G01*
G37*
G36*
G01*
X138650000Y-111369999D02*
X138650000Y-112270001D01*
G75*
G02*
X138400001Y-112520000I-249999J0D01*
G01*
X137699999Y-112520000D01*
G75*
G02*
X137450000Y-112270001I0J249999D01*
G01*
X137450000Y-111369999D01*
G75*
G02*
X137699999Y-111120000I249999J0D01*
G01*
X138400001Y-111120000D01*
G75*
G02*
X138650000Y-111369999I0J-249999D01*
G01*
G37*
G36*
G01*
X136650000Y-111369999D02*
X136650000Y-112270001D01*
G75*
G02*
X136400001Y-112520000I-249999J0D01*
G01*
X135699999Y-112520000D01*
G75*
G02*
X135450000Y-112270001I0J249999D01*
G01*
X135450000Y-111369999D01*
G75*
G02*
X135699999Y-111120000I249999J0D01*
G01*
X136400001Y-111120000D01*
G75*
G02*
X136650000Y-111369999I0J-249999D01*
G01*
G37*
M02*
