G04 #@! TF.GenerationSoftware,KiCad,Pcbnew,5.1.10-88a1d61d58~88~ubuntu20.04.1*
G04 #@! TF.CreationDate,2021-04-28T19:55:47-05:00*
G04 #@! TF.ProjectId,obi1,6f626931-2e6b-4696-9361-645f70636258,rev?*
G04 #@! TF.SameCoordinates,Original*
G04 #@! TF.FileFunction,Soldermask,Top*
G04 #@! TF.FilePolarity,Negative*
%FSLAX46Y46*%
G04 Gerber Fmt 4.6, Leading zero omitted, Abs format (unit mm)*
G04 Created by KiCad (PCBNEW 5.1.10-88a1d61d58~88~ubuntu20.04.1) date 2021-04-28 19:55:47*
%MOMM*%
%LPD*%
G01*
G04 APERTURE LIST*
%ADD10C,2.052000*%
%ADD11O,1.802000X1.802000*%
%ADD12C,0.502000*%
%ADD13O,1.702000X1.702000*%
%ADD14C,0.100000*%
G04 APERTURE END LIST*
G36*
G01*
X176079000Y-95505000D02*
X176079000Y-95155000D01*
G75*
G02*
X176130000Y-95104000I51000J0D01*
G01*
X176730000Y-95104000D01*
G75*
G02*
X176781000Y-95155000I0J-51000D01*
G01*
X176781000Y-95505000D01*
G75*
G02*
X176730000Y-95556000I-51000J0D01*
G01*
X176130000Y-95556000D01*
G75*
G02*
X176079000Y-95505000I0J51000D01*
G01*
G37*
G36*
G01*
X176079000Y-96005000D02*
X176079000Y-95655000D01*
G75*
G02*
X176130000Y-95604000I51000J0D01*
G01*
X176730000Y-95604000D01*
G75*
G02*
X176781000Y-95655000I0J-51000D01*
G01*
X176781000Y-96005000D01*
G75*
G02*
X176730000Y-96056000I-51000J0D01*
G01*
X176130000Y-96056000D01*
G75*
G02*
X176079000Y-96005000I0J51000D01*
G01*
G37*
G36*
G01*
X176079000Y-95005000D02*
X176079000Y-94655000D01*
G75*
G02*
X176130000Y-94604000I51000J0D01*
G01*
X176730000Y-94604000D01*
G75*
G02*
X176781000Y-94655000I0J-51000D01*
G01*
X176781000Y-95005000D01*
G75*
G02*
X176730000Y-95056000I-51000J0D01*
G01*
X176130000Y-95056000D01*
G75*
G02*
X176079000Y-95005000I0J51000D01*
G01*
G37*
G36*
G01*
X176079000Y-96505000D02*
X176079000Y-96155000D01*
G75*
G02*
X176130000Y-96104000I51000J0D01*
G01*
X176730000Y-96104000D01*
G75*
G02*
X176781000Y-96155000I0J-51000D01*
G01*
X176781000Y-96505000D01*
G75*
G02*
X176730000Y-96556000I-51000J0D01*
G01*
X176130000Y-96556000D01*
G75*
G02*
X176079000Y-96505000I0J51000D01*
G01*
G37*
G36*
G01*
X178399000Y-95505000D02*
X178399000Y-95155000D01*
G75*
G02*
X178450000Y-95104000I51000J0D01*
G01*
X179050000Y-95104000D01*
G75*
G02*
X179101000Y-95155000I0J-51000D01*
G01*
X179101000Y-95505000D01*
G75*
G02*
X179050000Y-95556000I-51000J0D01*
G01*
X178450000Y-95556000D01*
G75*
G02*
X178399000Y-95505000I0J51000D01*
G01*
G37*
G36*
G01*
X178399000Y-96005000D02*
X178399000Y-95655000D01*
G75*
G02*
X178450000Y-95604000I51000J0D01*
G01*
X179050000Y-95604000D01*
G75*
G02*
X179101000Y-95655000I0J-51000D01*
G01*
X179101000Y-96005000D01*
G75*
G02*
X179050000Y-96056000I-51000J0D01*
G01*
X178450000Y-96056000D01*
G75*
G02*
X178399000Y-96005000I0J51000D01*
G01*
G37*
G36*
G01*
X178399000Y-95005000D02*
X178399000Y-94655000D01*
G75*
G02*
X178450000Y-94604000I51000J0D01*
G01*
X179050000Y-94604000D01*
G75*
G02*
X179101000Y-94655000I0J-51000D01*
G01*
X179101000Y-95005000D01*
G75*
G02*
X179050000Y-95056000I-51000J0D01*
G01*
X178450000Y-95056000D01*
G75*
G02*
X178399000Y-95005000I0J51000D01*
G01*
G37*
G36*
G01*
X178399000Y-96505000D02*
X178399000Y-96155000D01*
G75*
G02*
X178450000Y-96104000I51000J0D01*
G01*
X179050000Y-96104000D01*
G75*
G02*
X179101000Y-96155000I0J-51000D01*
G01*
X179101000Y-96505000D01*
G75*
G02*
X179050000Y-96556000I-51000J0D01*
G01*
X178450000Y-96556000D01*
G75*
G02*
X178399000Y-96505000I0J51000D01*
G01*
G37*
G36*
G01*
X176864000Y-94970000D02*
X176864000Y-94370000D01*
G75*
G02*
X176915000Y-94319000I51000J0D01*
G01*
X177265000Y-94319000D01*
G75*
G02*
X177316000Y-94370000I0J-51000D01*
G01*
X177316000Y-94970000D01*
G75*
G02*
X177265000Y-95021000I-51000J0D01*
G01*
X176915000Y-95021000D01*
G75*
G02*
X176864000Y-94970000I0J51000D01*
G01*
G37*
G36*
G01*
X177364000Y-94970000D02*
X177364000Y-94370000D01*
G75*
G02*
X177415000Y-94319000I51000J0D01*
G01*
X177765000Y-94319000D01*
G75*
G02*
X177816000Y-94370000I0J-51000D01*
G01*
X177816000Y-94970000D01*
G75*
G02*
X177765000Y-95021000I-51000J0D01*
G01*
X177415000Y-95021000D01*
G75*
G02*
X177364000Y-94970000I0J51000D01*
G01*
G37*
G36*
G01*
X177864000Y-94970000D02*
X177864000Y-94370000D01*
G75*
G02*
X177915000Y-94319000I51000J0D01*
G01*
X178265000Y-94319000D01*
G75*
G02*
X178316000Y-94370000I0J-51000D01*
G01*
X178316000Y-94970000D01*
G75*
G02*
X178265000Y-95021000I-51000J0D01*
G01*
X177915000Y-95021000D01*
G75*
G02*
X177864000Y-94970000I0J51000D01*
G01*
G37*
G36*
G01*
X176864000Y-96790000D02*
X176864000Y-96190000D01*
G75*
G02*
X176915000Y-96139000I51000J0D01*
G01*
X177265000Y-96139000D01*
G75*
G02*
X177316000Y-96190000I0J-51000D01*
G01*
X177316000Y-96790000D01*
G75*
G02*
X177265000Y-96841000I-51000J0D01*
G01*
X176915000Y-96841000D01*
G75*
G02*
X176864000Y-96790000I0J51000D01*
G01*
G37*
G36*
G01*
X177364000Y-96790000D02*
X177364000Y-96190000D01*
G75*
G02*
X177415000Y-96139000I51000J0D01*
G01*
X177765000Y-96139000D01*
G75*
G02*
X177816000Y-96190000I0J-51000D01*
G01*
X177816000Y-96790000D01*
G75*
G02*
X177765000Y-96841000I-51000J0D01*
G01*
X177415000Y-96841000D01*
G75*
G02*
X177364000Y-96790000I0J51000D01*
G01*
G37*
G36*
G01*
X177864000Y-96790000D02*
X177864000Y-96190000D01*
G75*
G02*
X177915000Y-96139000I51000J0D01*
G01*
X178265000Y-96139000D01*
G75*
G02*
X178316000Y-96190000I0J-51000D01*
G01*
X178316000Y-96790000D01*
G75*
G02*
X178265000Y-96841000I-51000J0D01*
G01*
X177915000Y-96841000D01*
G75*
G02*
X177864000Y-96790000I0J51000D01*
G01*
G37*
G36*
G01*
X143984000Y-79065000D02*
X143984000Y-75875000D01*
G75*
G02*
X144035000Y-75824000I51000J0D01*
G01*
X145895000Y-75824000D01*
G75*
G02*
X145946000Y-75875000I0J-51000D01*
G01*
X145946000Y-79065000D01*
G75*
G02*
X145895000Y-79116000I-51000J0D01*
G01*
X144035000Y-79116000D01*
G75*
G02*
X143984000Y-79065000I0J51000D01*
G01*
G37*
G36*
G01*
X139796000Y-79320000D02*
X139796000Y-80220000D01*
G75*
G02*
X139745000Y-80271000I-51000J0D01*
G01*
X137885000Y-80271000D01*
G75*
G02*
X137834000Y-80220000I0J51000D01*
G01*
X137834000Y-79320000D01*
G75*
G02*
X137885000Y-79269000I51000J0D01*
G01*
X139745000Y-79269000D01*
G75*
G02*
X139796000Y-79320000I0J-51000D01*
G01*
G37*
G36*
G01*
X139796000Y-77020000D02*
X139796000Y-77920000D01*
G75*
G02*
X139745000Y-77971000I-51000J0D01*
G01*
X137885000Y-77971000D01*
G75*
G02*
X137834000Y-77920000I0J51000D01*
G01*
X137834000Y-77020000D01*
G75*
G02*
X137885000Y-76969000I51000J0D01*
G01*
X139745000Y-76969000D01*
G75*
G02*
X139796000Y-77020000I0J-51000D01*
G01*
G37*
G36*
G01*
X139796000Y-74720000D02*
X139796000Y-75620000D01*
G75*
G02*
X139745000Y-75671000I-51000J0D01*
G01*
X137885000Y-75671000D01*
G75*
G02*
X137834000Y-75620000I0J51000D01*
G01*
X137834000Y-74720000D01*
G75*
G02*
X137885000Y-74669000I51000J0D01*
G01*
X139745000Y-74669000D01*
G75*
G02*
X139796000Y-74720000I0J-51000D01*
G01*
G37*
G36*
G01*
X153654000Y-79268200D02*
X153654000Y-76078200D01*
G75*
G02*
X153705000Y-76027200I51000J0D01*
G01*
X155565000Y-76027200D01*
G75*
G02*
X155616000Y-76078200I0J-51000D01*
G01*
X155616000Y-79268200D01*
G75*
G02*
X155565000Y-79319200I-51000J0D01*
G01*
X153705000Y-79319200D01*
G75*
G02*
X153654000Y-79268200I0J51000D01*
G01*
G37*
G36*
G01*
X149466000Y-79523200D02*
X149466000Y-80423200D01*
G75*
G02*
X149415000Y-80474200I-51000J0D01*
G01*
X147555000Y-80474200D01*
G75*
G02*
X147504000Y-80423200I0J51000D01*
G01*
X147504000Y-79523200D01*
G75*
G02*
X147555000Y-79472200I51000J0D01*
G01*
X149415000Y-79472200D01*
G75*
G02*
X149466000Y-79523200I0J-51000D01*
G01*
G37*
G36*
G01*
X149466000Y-77223200D02*
X149466000Y-78123200D01*
G75*
G02*
X149415000Y-78174200I-51000J0D01*
G01*
X147555000Y-78174200D01*
G75*
G02*
X147504000Y-78123200I0J51000D01*
G01*
X147504000Y-77223200D01*
G75*
G02*
X147555000Y-77172200I51000J0D01*
G01*
X149415000Y-77172200D01*
G75*
G02*
X149466000Y-77223200I0J-51000D01*
G01*
G37*
G36*
G01*
X149466000Y-74923200D02*
X149466000Y-75823200D01*
G75*
G02*
X149415000Y-75874200I-51000J0D01*
G01*
X147555000Y-75874200D01*
G75*
G02*
X147504000Y-75823200I0J51000D01*
G01*
X147504000Y-74923200D01*
G75*
G02*
X147555000Y-74872200I51000J0D01*
G01*
X149415000Y-74872200D01*
G75*
G02*
X149466000Y-74923200I0J-51000D01*
G01*
G37*
G36*
G01*
X123083000Y-74649000D02*
X124433000Y-74649000D01*
G75*
G02*
X124484000Y-74700000I0J-51000D01*
G01*
X124484000Y-75100000D01*
G75*
G02*
X124433000Y-75151000I-51000J0D01*
G01*
X123083000Y-75151000D01*
G75*
G02*
X123032000Y-75100000I0J51000D01*
G01*
X123032000Y-74700000D01*
G75*
G02*
X123083000Y-74649000I51000J0D01*
G01*
G37*
G36*
G01*
X123083000Y-75299000D02*
X124433000Y-75299000D01*
G75*
G02*
X124484000Y-75350000I0J-51000D01*
G01*
X124484000Y-75750000D01*
G75*
G02*
X124433000Y-75801000I-51000J0D01*
G01*
X123083000Y-75801000D01*
G75*
G02*
X123032000Y-75750000I0J51000D01*
G01*
X123032000Y-75350000D01*
G75*
G02*
X123083000Y-75299000I51000J0D01*
G01*
G37*
G36*
G01*
X123083000Y-75949000D02*
X124433000Y-75949000D01*
G75*
G02*
X124484000Y-76000000I0J-51000D01*
G01*
X124484000Y-76400000D01*
G75*
G02*
X124433000Y-76451000I-51000J0D01*
G01*
X123083000Y-76451000D01*
G75*
G02*
X123032000Y-76400000I0J51000D01*
G01*
X123032000Y-76000000D01*
G75*
G02*
X123083000Y-75949000I51000J0D01*
G01*
G37*
G36*
G01*
X123083000Y-76599000D02*
X124433000Y-76599000D01*
G75*
G02*
X124484000Y-76650000I0J-51000D01*
G01*
X124484000Y-77050000D01*
G75*
G02*
X124433000Y-77101000I-51000J0D01*
G01*
X123083000Y-77101000D01*
G75*
G02*
X123032000Y-77050000I0J51000D01*
G01*
X123032000Y-76650000D01*
G75*
G02*
X123083000Y-76599000I51000J0D01*
G01*
G37*
G36*
G01*
X123083000Y-77249000D02*
X124433000Y-77249000D01*
G75*
G02*
X124484000Y-77300000I0J-51000D01*
G01*
X124484000Y-77700000D01*
G75*
G02*
X124433000Y-77751000I-51000J0D01*
G01*
X123083000Y-77751000D01*
G75*
G02*
X123032000Y-77700000I0J51000D01*
G01*
X123032000Y-77300000D01*
G75*
G02*
X123083000Y-77249000I51000J0D01*
G01*
G37*
D10*
X121083000Y-72900000D03*
X121083000Y-79500000D03*
G36*
G01*
X122782000Y-73800000D02*
X122782000Y-72200000D01*
G75*
G02*
X122833000Y-72149000I51000J0D01*
G01*
X124233000Y-72149000D01*
G75*
G02*
X124284000Y-72200000I0J-51000D01*
G01*
X124284000Y-73800000D01*
G75*
G02*
X124233000Y-73851000I-51000J0D01*
G01*
X122833000Y-73851000D01*
G75*
G02*
X122782000Y-73800000I0J51000D01*
G01*
G37*
G36*
G01*
X120232000Y-75950000D02*
X120232000Y-74050000D01*
G75*
G02*
X120283000Y-73999000I51000J0D01*
G01*
X121883000Y-73999000D01*
G75*
G02*
X121934000Y-74050000I0J-51000D01*
G01*
X121934000Y-75950000D01*
G75*
G02*
X121883000Y-76001000I-51000J0D01*
G01*
X120283000Y-76001000D01*
G75*
G02*
X120232000Y-75950000I0J51000D01*
G01*
G37*
G36*
G01*
X120232000Y-78350000D02*
X120232000Y-76450000D01*
G75*
G02*
X120283000Y-76399000I51000J0D01*
G01*
X121883000Y-76399000D01*
G75*
G02*
X121934000Y-76450000I0J-51000D01*
G01*
X121934000Y-78350000D01*
G75*
G02*
X121883000Y-78401000I-51000J0D01*
G01*
X120283000Y-78401000D01*
G75*
G02*
X120232000Y-78350000I0J51000D01*
G01*
G37*
G36*
G01*
X122782000Y-80200000D02*
X122782000Y-78600000D01*
G75*
G02*
X122833000Y-78549000I51000J0D01*
G01*
X124233000Y-78549000D01*
G75*
G02*
X124284000Y-78600000I0J-51000D01*
G01*
X124284000Y-80200000D01*
G75*
G02*
X124233000Y-80251000I-51000J0D01*
G01*
X122833000Y-80251000D01*
G75*
G02*
X122782000Y-80200000I0J51000D01*
G01*
G37*
G36*
G01*
X181365702Y-98829000D02*
X182374298Y-98829000D01*
G75*
G02*
X182646000Y-99100702I0J-271702D01*
G01*
X182646000Y-99834298D01*
G75*
G02*
X182374298Y-100106000I-271702J0D01*
G01*
X181365702Y-100106000D01*
G75*
G02*
X181094000Y-99834298I0J271702D01*
G01*
X181094000Y-99100702D01*
G75*
G02*
X181365702Y-98829000I271702J0D01*
G01*
G37*
G36*
G01*
X181365702Y-96754000D02*
X182374298Y-96754000D01*
G75*
G02*
X182646000Y-97025702I0J-271702D01*
G01*
X182646000Y-97759298D01*
G75*
G02*
X182374298Y-98031000I-271702J0D01*
G01*
X181365702Y-98031000D01*
G75*
G02*
X181094000Y-97759298I0J271702D01*
G01*
X181094000Y-97025702D01*
G75*
G02*
X181365702Y-96754000I271702J0D01*
G01*
G37*
G36*
G01*
X178309000Y-100014298D02*
X178309000Y-99005702D01*
G75*
G02*
X178580702Y-98734000I271702J0D01*
G01*
X179314298Y-98734000D01*
G75*
G02*
X179586000Y-99005702I0J-271702D01*
G01*
X179586000Y-100014298D01*
G75*
G02*
X179314298Y-100286000I-271702J0D01*
G01*
X178580702Y-100286000D01*
G75*
G02*
X178309000Y-100014298I0J271702D01*
G01*
G37*
G36*
G01*
X176234000Y-100014298D02*
X176234000Y-99005702D01*
G75*
G02*
X176505702Y-98734000I271702J0D01*
G01*
X177239298Y-98734000D01*
G75*
G02*
X177511000Y-99005702I0J-271702D01*
G01*
X177511000Y-100014298D01*
G75*
G02*
X177239298Y-100286000I-271702J0D01*
G01*
X176505702Y-100286000D01*
G75*
G02*
X176234000Y-100014298I0J271702D01*
G01*
G37*
G36*
G01*
X130711000Y-97840500D02*
X130711000Y-99135500D01*
G75*
G02*
X130660000Y-99186500I-51000J0D01*
G01*
X130060000Y-99186500D01*
G75*
G02*
X130009000Y-99135500I0J51000D01*
G01*
X130009000Y-97840500D01*
G75*
G02*
X130060000Y-97789500I51000J0D01*
G01*
X130660000Y-97789500D01*
G75*
G02*
X130711000Y-97840500I0J-51000D01*
G01*
G37*
G36*
G01*
X131511000Y-97840500D02*
X131511000Y-99135500D01*
G75*
G02*
X131460000Y-99186500I-51000J0D01*
G01*
X130860000Y-99186500D01*
G75*
G02*
X130809000Y-99135500I0J51000D01*
G01*
X130809000Y-97840500D01*
G75*
G02*
X130860000Y-97789500I51000J0D01*
G01*
X131460000Y-97789500D01*
G75*
G02*
X131511000Y-97840500I0J-51000D01*
G01*
G37*
G36*
G01*
X132311000Y-97840500D02*
X132311000Y-99135500D01*
G75*
G02*
X132260000Y-99186500I-51000J0D01*
G01*
X131660000Y-99186500D01*
G75*
G02*
X131609000Y-99135500I0J51000D01*
G01*
X131609000Y-97840500D01*
G75*
G02*
X131660000Y-97789500I51000J0D01*
G01*
X132260000Y-97789500D01*
G75*
G02*
X132311000Y-97840500I0J-51000D01*
G01*
G37*
G36*
G01*
X133111000Y-97840500D02*
X133111000Y-99135500D01*
G75*
G02*
X133060000Y-99186500I-51000J0D01*
G01*
X132460000Y-99186500D01*
G75*
G02*
X132409000Y-99135500I0J51000D01*
G01*
X132409000Y-97840500D01*
G75*
G02*
X132460000Y-97789500I51000J0D01*
G01*
X133060000Y-97789500D01*
G75*
G02*
X133111000Y-97840500I0J-51000D01*
G01*
G37*
G36*
G01*
X133911000Y-97840500D02*
X133911000Y-99135500D01*
G75*
G02*
X133860000Y-99186500I-51000J0D01*
G01*
X133260000Y-99186500D01*
G75*
G02*
X133209000Y-99135500I0J51000D01*
G01*
X133209000Y-97840500D01*
G75*
G02*
X133260000Y-97789500I51000J0D01*
G01*
X133860000Y-97789500D01*
G75*
G02*
X133911000Y-97840500I0J-51000D01*
G01*
G37*
G36*
G01*
X134711000Y-97840500D02*
X134711000Y-99135500D01*
G75*
G02*
X134660000Y-99186500I-51000J0D01*
G01*
X134060000Y-99186500D01*
G75*
G02*
X134009000Y-99135500I0J51000D01*
G01*
X134009000Y-97840500D01*
G75*
G02*
X134060000Y-97789500I51000J0D01*
G01*
X134660000Y-97789500D01*
G75*
G02*
X134711000Y-97840500I0J-51000D01*
G01*
G37*
G36*
G01*
X135511000Y-97840500D02*
X135511000Y-99135500D01*
G75*
G02*
X135460000Y-99186500I-51000J0D01*
G01*
X134860000Y-99186500D01*
G75*
G02*
X134809000Y-99135500I0J51000D01*
G01*
X134809000Y-97840500D01*
G75*
G02*
X134860000Y-97789500I51000J0D01*
G01*
X135460000Y-97789500D01*
G75*
G02*
X135511000Y-97840500I0J-51000D01*
G01*
G37*
G36*
G01*
X136311000Y-97840500D02*
X136311000Y-99135500D01*
G75*
G02*
X136260000Y-99186500I-51000J0D01*
G01*
X135660000Y-99186500D01*
G75*
G02*
X135609000Y-99135500I0J51000D01*
G01*
X135609000Y-97840500D01*
G75*
G02*
X135660000Y-97789500I51000J0D01*
G01*
X136260000Y-97789500D01*
G75*
G02*
X136311000Y-97840500I0J-51000D01*
G01*
G37*
G36*
G01*
X137111000Y-97840500D02*
X137111000Y-99135500D01*
G75*
G02*
X137060000Y-99186500I-51000J0D01*
G01*
X136460000Y-99186500D01*
G75*
G02*
X136409000Y-99135500I0J51000D01*
G01*
X136409000Y-97840500D01*
G75*
G02*
X136460000Y-97789500I51000J0D01*
G01*
X137060000Y-97789500D01*
G75*
G02*
X137111000Y-97840500I0J-51000D01*
G01*
G37*
G36*
G01*
X137911000Y-97840500D02*
X137911000Y-99135500D01*
G75*
G02*
X137860000Y-99186500I-51000J0D01*
G01*
X137260000Y-99186500D01*
G75*
G02*
X137209000Y-99135500I0J51000D01*
G01*
X137209000Y-97840500D01*
G75*
G02*
X137260000Y-97789500I51000J0D01*
G01*
X137860000Y-97789500D01*
G75*
G02*
X137911000Y-97840500I0J-51000D01*
G01*
G37*
G36*
G01*
X138711000Y-97840500D02*
X138711000Y-99135500D01*
G75*
G02*
X138660000Y-99186500I-51000J0D01*
G01*
X138060000Y-99186500D01*
G75*
G02*
X138009000Y-99135500I0J51000D01*
G01*
X138009000Y-97840500D01*
G75*
G02*
X138060000Y-97789500I51000J0D01*
G01*
X138660000Y-97789500D01*
G75*
G02*
X138711000Y-97840500I0J-51000D01*
G01*
G37*
G36*
G01*
X139511000Y-97840500D02*
X139511000Y-99135500D01*
G75*
G02*
X139460000Y-99186500I-51000J0D01*
G01*
X138860000Y-99186500D01*
G75*
G02*
X138809000Y-99135500I0J51000D01*
G01*
X138809000Y-97840500D01*
G75*
G02*
X138860000Y-97789500I51000J0D01*
G01*
X139460000Y-97789500D01*
G75*
G02*
X139511000Y-97840500I0J-51000D01*
G01*
G37*
G36*
G01*
X140311000Y-97840500D02*
X140311000Y-99135500D01*
G75*
G02*
X140260000Y-99186500I-51000J0D01*
G01*
X139660000Y-99186500D01*
G75*
G02*
X139609000Y-99135500I0J51000D01*
G01*
X139609000Y-97840500D01*
G75*
G02*
X139660000Y-97789500I51000J0D01*
G01*
X140260000Y-97789500D01*
G75*
G02*
X140311000Y-97840500I0J-51000D01*
G01*
G37*
G36*
G01*
X141111000Y-97840500D02*
X141111000Y-99135500D01*
G75*
G02*
X141060000Y-99186500I-51000J0D01*
G01*
X140460000Y-99186500D01*
G75*
G02*
X140409000Y-99135500I0J51000D01*
G01*
X140409000Y-97840500D01*
G75*
G02*
X140460000Y-97789500I51000J0D01*
G01*
X141060000Y-97789500D01*
G75*
G02*
X141111000Y-97840500I0J-51000D01*
G01*
G37*
G36*
G01*
X141911000Y-97840500D02*
X141911000Y-99135500D01*
G75*
G02*
X141860000Y-99186500I-51000J0D01*
G01*
X141260000Y-99186500D01*
G75*
G02*
X141209000Y-99135500I0J51000D01*
G01*
X141209000Y-97840500D01*
G75*
G02*
X141260000Y-97789500I51000J0D01*
G01*
X141860000Y-97789500D01*
G75*
G02*
X141911000Y-97840500I0J-51000D01*
G01*
G37*
G36*
G01*
X142711000Y-97840500D02*
X142711000Y-99135500D01*
G75*
G02*
X142660000Y-99186500I-51000J0D01*
G01*
X142060000Y-99186500D01*
G75*
G02*
X142009000Y-99135500I0J51000D01*
G01*
X142009000Y-97840500D01*
G75*
G02*
X142060000Y-97789500I51000J0D01*
G01*
X142660000Y-97789500D01*
G75*
G02*
X142711000Y-97840500I0J-51000D01*
G01*
G37*
G36*
G01*
X143511000Y-97840500D02*
X143511000Y-99135500D01*
G75*
G02*
X143460000Y-99186500I-51000J0D01*
G01*
X142860000Y-99186500D01*
G75*
G02*
X142809000Y-99135500I0J51000D01*
G01*
X142809000Y-97840500D01*
G75*
G02*
X142860000Y-97789500I51000J0D01*
G01*
X143460000Y-97789500D01*
G75*
G02*
X143511000Y-97840500I0J-51000D01*
G01*
G37*
G36*
G01*
X144311000Y-97840500D02*
X144311000Y-99135500D01*
G75*
G02*
X144260000Y-99186500I-51000J0D01*
G01*
X143660000Y-99186500D01*
G75*
G02*
X143609000Y-99135500I0J51000D01*
G01*
X143609000Y-97840500D01*
G75*
G02*
X143660000Y-97789500I51000J0D01*
G01*
X144260000Y-97789500D01*
G75*
G02*
X144311000Y-97840500I0J-51000D01*
G01*
G37*
G36*
G01*
X145111000Y-97840500D02*
X145111000Y-99135500D01*
G75*
G02*
X145060000Y-99186500I-51000J0D01*
G01*
X144460000Y-99186500D01*
G75*
G02*
X144409000Y-99135500I0J51000D01*
G01*
X144409000Y-97840500D01*
G75*
G02*
X144460000Y-97789500I51000J0D01*
G01*
X145060000Y-97789500D01*
G75*
G02*
X145111000Y-97840500I0J-51000D01*
G01*
G37*
G36*
G01*
X145911000Y-97840500D02*
X145911000Y-99135500D01*
G75*
G02*
X145860000Y-99186500I-51000J0D01*
G01*
X145260000Y-99186500D01*
G75*
G02*
X145209000Y-99135500I0J51000D01*
G01*
X145209000Y-97840500D01*
G75*
G02*
X145260000Y-97789500I51000J0D01*
G01*
X145860000Y-97789500D01*
G75*
G02*
X145911000Y-97840500I0J-51000D01*
G01*
G37*
G36*
G01*
X146711000Y-97840500D02*
X146711000Y-99135500D01*
G75*
G02*
X146660000Y-99186500I-51000J0D01*
G01*
X146060000Y-99186500D01*
G75*
G02*
X146009000Y-99135500I0J51000D01*
G01*
X146009000Y-97840500D01*
G75*
G02*
X146060000Y-97789500I51000J0D01*
G01*
X146660000Y-97789500D01*
G75*
G02*
X146711000Y-97840500I0J-51000D01*
G01*
G37*
G36*
G01*
X147511000Y-97840500D02*
X147511000Y-99135500D01*
G75*
G02*
X147460000Y-99186500I-51000J0D01*
G01*
X146860000Y-99186500D01*
G75*
G02*
X146809000Y-99135500I0J51000D01*
G01*
X146809000Y-97840500D01*
G75*
G02*
X146860000Y-97789500I51000J0D01*
G01*
X147460000Y-97789500D01*
G75*
G02*
X147511000Y-97840500I0J-51000D01*
G01*
G37*
G36*
G01*
X147511000Y-86384500D02*
X147511000Y-87679500D01*
G75*
G02*
X147460000Y-87730500I-51000J0D01*
G01*
X146860000Y-87730500D01*
G75*
G02*
X146809000Y-87679500I0J51000D01*
G01*
X146809000Y-86384500D01*
G75*
G02*
X146860000Y-86333500I51000J0D01*
G01*
X147460000Y-86333500D01*
G75*
G02*
X147511000Y-86384500I0J-51000D01*
G01*
G37*
G36*
G01*
X146711000Y-86384500D02*
X146711000Y-87679500D01*
G75*
G02*
X146660000Y-87730500I-51000J0D01*
G01*
X146060000Y-87730500D01*
G75*
G02*
X146009000Y-87679500I0J51000D01*
G01*
X146009000Y-86384500D01*
G75*
G02*
X146060000Y-86333500I51000J0D01*
G01*
X146660000Y-86333500D01*
G75*
G02*
X146711000Y-86384500I0J-51000D01*
G01*
G37*
G36*
G01*
X145911000Y-86384500D02*
X145911000Y-87679500D01*
G75*
G02*
X145860000Y-87730500I-51000J0D01*
G01*
X145260000Y-87730500D01*
G75*
G02*
X145209000Y-87679500I0J51000D01*
G01*
X145209000Y-86384500D01*
G75*
G02*
X145260000Y-86333500I51000J0D01*
G01*
X145860000Y-86333500D01*
G75*
G02*
X145911000Y-86384500I0J-51000D01*
G01*
G37*
G36*
G01*
X145111000Y-86384500D02*
X145111000Y-87679500D01*
G75*
G02*
X145060000Y-87730500I-51000J0D01*
G01*
X144460000Y-87730500D01*
G75*
G02*
X144409000Y-87679500I0J51000D01*
G01*
X144409000Y-86384500D01*
G75*
G02*
X144460000Y-86333500I51000J0D01*
G01*
X145060000Y-86333500D01*
G75*
G02*
X145111000Y-86384500I0J-51000D01*
G01*
G37*
G36*
G01*
X144311000Y-86384500D02*
X144311000Y-87679500D01*
G75*
G02*
X144260000Y-87730500I-51000J0D01*
G01*
X143660000Y-87730500D01*
G75*
G02*
X143609000Y-87679500I0J51000D01*
G01*
X143609000Y-86384500D01*
G75*
G02*
X143660000Y-86333500I51000J0D01*
G01*
X144260000Y-86333500D01*
G75*
G02*
X144311000Y-86384500I0J-51000D01*
G01*
G37*
G36*
G01*
X143511000Y-86384500D02*
X143511000Y-87679500D01*
G75*
G02*
X143460000Y-87730500I-51000J0D01*
G01*
X142860000Y-87730500D01*
G75*
G02*
X142809000Y-87679500I0J51000D01*
G01*
X142809000Y-86384500D01*
G75*
G02*
X142860000Y-86333500I51000J0D01*
G01*
X143460000Y-86333500D01*
G75*
G02*
X143511000Y-86384500I0J-51000D01*
G01*
G37*
G36*
G01*
X142711000Y-86384500D02*
X142711000Y-87679500D01*
G75*
G02*
X142660000Y-87730500I-51000J0D01*
G01*
X142060000Y-87730500D01*
G75*
G02*
X142009000Y-87679500I0J51000D01*
G01*
X142009000Y-86384500D01*
G75*
G02*
X142060000Y-86333500I51000J0D01*
G01*
X142660000Y-86333500D01*
G75*
G02*
X142711000Y-86384500I0J-51000D01*
G01*
G37*
G36*
G01*
X141911000Y-86384500D02*
X141911000Y-87679500D01*
G75*
G02*
X141860000Y-87730500I-51000J0D01*
G01*
X141260000Y-87730500D01*
G75*
G02*
X141209000Y-87679500I0J51000D01*
G01*
X141209000Y-86384500D01*
G75*
G02*
X141260000Y-86333500I51000J0D01*
G01*
X141860000Y-86333500D01*
G75*
G02*
X141911000Y-86384500I0J-51000D01*
G01*
G37*
G36*
G01*
X141111000Y-86384500D02*
X141111000Y-87679500D01*
G75*
G02*
X141060000Y-87730500I-51000J0D01*
G01*
X140460000Y-87730500D01*
G75*
G02*
X140409000Y-87679500I0J51000D01*
G01*
X140409000Y-86384500D01*
G75*
G02*
X140460000Y-86333500I51000J0D01*
G01*
X141060000Y-86333500D01*
G75*
G02*
X141111000Y-86384500I0J-51000D01*
G01*
G37*
G36*
G01*
X140311000Y-86384500D02*
X140311000Y-87679500D01*
G75*
G02*
X140260000Y-87730500I-51000J0D01*
G01*
X139660000Y-87730500D01*
G75*
G02*
X139609000Y-87679500I0J51000D01*
G01*
X139609000Y-86384500D01*
G75*
G02*
X139660000Y-86333500I51000J0D01*
G01*
X140260000Y-86333500D01*
G75*
G02*
X140311000Y-86384500I0J-51000D01*
G01*
G37*
G36*
G01*
X139511000Y-86384500D02*
X139511000Y-87679500D01*
G75*
G02*
X139460000Y-87730500I-51000J0D01*
G01*
X138860000Y-87730500D01*
G75*
G02*
X138809000Y-87679500I0J51000D01*
G01*
X138809000Y-86384500D01*
G75*
G02*
X138860000Y-86333500I51000J0D01*
G01*
X139460000Y-86333500D01*
G75*
G02*
X139511000Y-86384500I0J-51000D01*
G01*
G37*
G36*
G01*
X138711000Y-86384500D02*
X138711000Y-87679500D01*
G75*
G02*
X138660000Y-87730500I-51000J0D01*
G01*
X138060000Y-87730500D01*
G75*
G02*
X138009000Y-87679500I0J51000D01*
G01*
X138009000Y-86384500D01*
G75*
G02*
X138060000Y-86333500I51000J0D01*
G01*
X138660000Y-86333500D01*
G75*
G02*
X138711000Y-86384500I0J-51000D01*
G01*
G37*
G36*
G01*
X137911000Y-86384500D02*
X137911000Y-87679500D01*
G75*
G02*
X137860000Y-87730500I-51000J0D01*
G01*
X137260000Y-87730500D01*
G75*
G02*
X137209000Y-87679500I0J51000D01*
G01*
X137209000Y-86384500D01*
G75*
G02*
X137260000Y-86333500I51000J0D01*
G01*
X137860000Y-86333500D01*
G75*
G02*
X137911000Y-86384500I0J-51000D01*
G01*
G37*
G36*
G01*
X137111000Y-86384500D02*
X137111000Y-87679500D01*
G75*
G02*
X137060000Y-87730500I-51000J0D01*
G01*
X136460000Y-87730500D01*
G75*
G02*
X136409000Y-87679500I0J51000D01*
G01*
X136409000Y-86384500D01*
G75*
G02*
X136460000Y-86333500I51000J0D01*
G01*
X137060000Y-86333500D01*
G75*
G02*
X137111000Y-86384500I0J-51000D01*
G01*
G37*
G36*
G01*
X136311000Y-86384500D02*
X136311000Y-87679500D01*
G75*
G02*
X136260000Y-87730500I-51000J0D01*
G01*
X135660000Y-87730500D01*
G75*
G02*
X135609000Y-87679500I0J51000D01*
G01*
X135609000Y-86384500D01*
G75*
G02*
X135660000Y-86333500I51000J0D01*
G01*
X136260000Y-86333500D01*
G75*
G02*
X136311000Y-86384500I0J-51000D01*
G01*
G37*
G36*
G01*
X135511000Y-86384500D02*
X135511000Y-87679500D01*
G75*
G02*
X135460000Y-87730500I-51000J0D01*
G01*
X134860000Y-87730500D01*
G75*
G02*
X134809000Y-87679500I0J51000D01*
G01*
X134809000Y-86384500D01*
G75*
G02*
X134860000Y-86333500I51000J0D01*
G01*
X135460000Y-86333500D01*
G75*
G02*
X135511000Y-86384500I0J-51000D01*
G01*
G37*
G36*
G01*
X134711000Y-86384500D02*
X134711000Y-87679500D01*
G75*
G02*
X134660000Y-87730500I-51000J0D01*
G01*
X134060000Y-87730500D01*
G75*
G02*
X134009000Y-87679500I0J51000D01*
G01*
X134009000Y-86384500D01*
G75*
G02*
X134060000Y-86333500I51000J0D01*
G01*
X134660000Y-86333500D01*
G75*
G02*
X134711000Y-86384500I0J-51000D01*
G01*
G37*
G36*
G01*
X133911000Y-86384500D02*
X133911000Y-87679500D01*
G75*
G02*
X133860000Y-87730500I-51000J0D01*
G01*
X133260000Y-87730500D01*
G75*
G02*
X133209000Y-87679500I0J51000D01*
G01*
X133209000Y-86384500D01*
G75*
G02*
X133260000Y-86333500I51000J0D01*
G01*
X133860000Y-86333500D01*
G75*
G02*
X133911000Y-86384500I0J-51000D01*
G01*
G37*
G36*
G01*
X133111000Y-86384500D02*
X133111000Y-87679500D01*
G75*
G02*
X133060000Y-87730500I-51000J0D01*
G01*
X132460000Y-87730500D01*
G75*
G02*
X132409000Y-87679500I0J51000D01*
G01*
X132409000Y-86384500D01*
G75*
G02*
X132460000Y-86333500I51000J0D01*
G01*
X133060000Y-86333500D01*
G75*
G02*
X133111000Y-86384500I0J-51000D01*
G01*
G37*
G36*
G01*
X132311000Y-86384500D02*
X132311000Y-87679500D01*
G75*
G02*
X132260000Y-87730500I-51000J0D01*
G01*
X131660000Y-87730500D01*
G75*
G02*
X131609000Y-87679500I0J51000D01*
G01*
X131609000Y-86384500D01*
G75*
G02*
X131660000Y-86333500I51000J0D01*
G01*
X132260000Y-86333500D01*
G75*
G02*
X132311000Y-86384500I0J-51000D01*
G01*
G37*
G36*
G01*
X131511000Y-86384500D02*
X131511000Y-87679500D01*
G75*
G02*
X131460000Y-87730500I-51000J0D01*
G01*
X130860000Y-87730500D01*
G75*
G02*
X130809000Y-87679500I0J51000D01*
G01*
X130809000Y-86384500D01*
G75*
G02*
X130860000Y-86333500I51000J0D01*
G01*
X131460000Y-86333500D01*
G75*
G02*
X131511000Y-86384500I0J-51000D01*
G01*
G37*
G36*
G01*
X130711000Y-86384500D02*
X130711000Y-87679500D01*
G75*
G02*
X130660000Y-87730500I-51000J0D01*
G01*
X130060000Y-87730500D01*
G75*
G02*
X130009000Y-87679500I0J51000D01*
G01*
X130009000Y-86384500D01*
G75*
G02*
X130060000Y-86333500I51000J0D01*
G01*
X130660000Y-86333500D01*
G75*
G02*
X130711000Y-86384500I0J-51000D01*
G01*
G37*
G36*
G01*
X147973000Y-73148298D02*
X147973000Y-72139702D01*
G75*
G02*
X148244702Y-71868000I271702J0D01*
G01*
X148978298Y-71868000D01*
G75*
G02*
X149250000Y-72139702I0J-271702D01*
G01*
X149250000Y-73148298D01*
G75*
G02*
X148978298Y-73420000I-271702J0D01*
G01*
X148244702Y-73420000D01*
G75*
G02*
X147973000Y-73148298I0J271702D01*
G01*
G37*
G36*
G01*
X145898000Y-73148298D02*
X145898000Y-72139702D01*
G75*
G02*
X146169702Y-71868000I271702J0D01*
G01*
X146903298Y-71868000D01*
G75*
G02*
X147175000Y-72139702I0J-271702D01*
G01*
X147175000Y-73148298D01*
G75*
G02*
X146903298Y-73420000I-271702J0D01*
G01*
X146169702Y-73420000D01*
G75*
G02*
X145898000Y-73148298I0J271702D01*
G01*
G37*
G36*
G01*
X145037702Y-80874000D02*
X146046298Y-80874000D01*
G75*
G02*
X146318000Y-81145702I0J-271702D01*
G01*
X146318000Y-81879298D01*
G75*
G02*
X146046298Y-82151000I-271702J0D01*
G01*
X145037702Y-82151000D01*
G75*
G02*
X144766000Y-81879298I0J271702D01*
G01*
X144766000Y-81145702D01*
G75*
G02*
X145037702Y-80874000I271702J0D01*
G01*
G37*
G36*
G01*
X145037702Y-82949000D02*
X146046298Y-82949000D01*
G75*
G02*
X146318000Y-83220702I0J-271702D01*
G01*
X146318000Y-83954298D01*
G75*
G02*
X146046298Y-84226000I-271702J0D01*
G01*
X145037702Y-84226000D01*
G75*
G02*
X144766000Y-83954298I0J271702D01*
G01*
X144766000Y-83220702D01*
G75*
G02*
X145037702Y-82949000I271702J0D01*
G01*
G37*
G36*
G01*
X130584248Y-79089000D02*
X131543752Y-79089000D01*
G75*
G02*
X131815000Y-79360248I0J-271248D01*
G01*
X131815000Y-80119752D01*
G75*
G02*
X131543752Y-80391000I-271248J0D01*
G01*
X130584248Y-80391000D01*
G75*
G02*
X130313000Y-80119752I0J271248D01*
G01*
X130313000Y-79360248D01*
G75*
G02*
X130584248Y-79089000I271248J0D01*
G01*
G37*
G36*
G01*
X130584248Y-77089000D02*
X131543752Y-77089000D01*
G75*
G02*
X131815000Y-77360248I0J-271248D01*
G01*
X131815000Y-78119752D01*
G75*
G02*
X131543752Y-78391000I-271248J0D01*
G01*
X130584248Y-78391000D01*
G75*
G02*
X130313000Y-78119752I0J271248D01*
G01*
X130313000Y-77360248D01*
G75*
G02*
X130584248Y-77089000I271248J0D01*
G01*
G37*
D11*
X127000000Y-137160000D03*
X127000000Y-139700000D03*
X129540000Y-137160000D03*
X129540000Y-139700000D03*
X132080000Y-137160000D03*
X132080000Y-139700000D03*
X134620000Y-137160000D03*
X134620000Y-139700000D03*
X137160000Y-137160000D03*
X137160000Y-139700000D03*
X139700000Y-137160000D03*
X139700000Y-139700000D03*
X142240000Y-137160000D03*
X142240000Y-139700000D03*
X144780000Y-137160000D03*
X144780000Y-139700000D03*
X147320000Y-137160000D03*
X147320000Y-139700000D03*
X149860000Y-137160000D03*
X149860000Y-139700000D03*
X152400000Y-137160000D03*
G36*
G01*
X151550000Y-138799000D02*
X153250000Y-138799000D01*
G75*
G02*
X153301000Y-138850000I0J-51000D01*
G01*
X153301000Y-140550000D01*
G75*
G02*
X153250000Y-140601000I-51000J0D01*
G01*
X151550000Y-140601000D01*
G75*
G02*
X151499000Y-140550000I0J51000D01*
G01*
X151499000Y-138850000D01*
G75*
G02*
X151550000Y-138799000I51000J0D01*
G01*
G37*
G36*
G01*
X181000600Y-83794600D02*
X181000600Y-84150200D01*
G75*
G02*
X180949600Y-84201200I-51000J0D01*
G01*
X179476400Y-84201200D01*
G75*
G02*
X179425400Y-84150200I0J51000D01*
G01*
X179425400Y-83794600D01*
G75*
G02*
X179476400Y-83743600I51000J0D01*
G01*
X180949600Y-83743600D01*
G75*
G02*
X181000600Y-83794600I0J-51000D01*
G01*
G37*
G36*
G01*
X181000600Y-83134200D02*
X181000600Y-83489800D01*
G75*
G02*
X180949600Y-83540800I-51000J0D01*
G01*
X179476400Y-83540800D01*
G75*
G02*
X179425400Y-83489800I0J51000D01*
G01*
X179425400Y-83134200D01*
G75*
G02*
X179476400Y-83083200I51000J0D01*
G01*
X180949600Y-83083200D01*
G75*
G02*
X181000600Y-83134200I0J-51000D01*
G01*
G37*
G36*
G01*
X181000600Y-82499200D02*
X181000600Y-82854800D01*
G75*
G02*
X180949600Y-82905800I-51000J0D01*
G01*
X179476400Y-82905800D01*
G75*
G02*
X179425400Y-82854800I0J51000D01*
G01*
X179425400Y-82499200D01*
G75*
G02*
X179476400Y-82448200I51000J0D01*
G01*
X180949600Y-82448200D01*
G75*
G02*
X181000600Y-82499200I0J-51000D01*
G01*
G37*
G36*
G01*
X181000600Y-81838800D02*
X181000600Y-82194400D01*
G75*
G02*
X180949600Y-82245400I-51000J0D01*
G01*
X179476400Y-82245400D01*
G75*
G02*
X179425400Y-82194400I0J51000D01*
G01*
X179425400Y-81838800D01*
G75*
G02*
X179476400Y-81787800I51000J0D01*
G01*
X180949600Y-81787800D01*
G75*
G02*
X181000600Y-81838800I0J-51000D01*
G01*
G37*
G36*
G01*
X181000600Y-81178400D02*
X181000600Y-81534000D01*
G75*
G02*
X180949600Y-81585000I-51000J0D01*
G01*
X179476400Y-81585000D01*
G75*
G02*
X179425400Y-81534000I0J51000D01*
G01*
X179425400Y-81178400D01*
G75*
G02*
X179476400Y-81127400I51000J0D01*
G01*
X180949600Y-81127400D01*
G75*
G02*
X181000600Y-81178400I0J-51000D01*
G01*
G37*
G36*
G01*
X181000600Y-80543400D02*
X181000600Y-80899000D01*
G75*
G02*
X180949600Y-80950000I-51000J0D01*
G01*
X179476400Y-80950000D01*
G75*
G02*
X179425400Y-80899000I0J51000D01*
G01*
X179425400Y-80543400D01*
G75*
G02*
X179476400Y-80492400I51000J0D01*
G01*
X180949600Y-80492400D01*
G75*
G02*
X181000600Y-80543400I0J-51000D01*
G01*
G37*
G36*
G01*
X181000600Y-79883000D02*
X181000600Y-80238600D01*
G75*
G02*
X180949600Y-80289600I-51000J0D01*
G01*
X179476400Y-80289600D01*
G75*
G02*
X179425400Y-80238600I0J51000D01*
G01*
X179425400Y-79883000D01*
G75*
G02*
X179476400Y-79832000I51000J0D01*
G01*
X180949600Y-79832000D01*
G75*
G02*
X181000600Y-79883000I0J-51000D01*
G01*
G37*
G36*
G01*
X181000600Y-79248000D02*
X181000600Y-79603600D01*
G75*
G02*
X180949600Y-79654600I-51000J0D01*
G01*
X179476400Y-79654600D01*
G75*
G02*
X179425400Y-79603600I0J51000D01*
G01*
X179425400Y-79248000D01*
G75*
G02*
X179476400Y-79197000I51000J0D01*
G01*
X180949600Y-79197000D01*
G75*
G02*
X181000600Y-79248000I0J-51000D01*
G01*
G37*
G36*
G01*
X181000600Y-78587600D02*
X181000600Y-78943200D01*
G75*
G02*
X180949600Y-78994200I-51000J0D01*
G01*
X179476400Y-78994200D01*
G75*
G02*
X179425400Y-78943200I0J51000D01*
G01*
X179425400Y-78587600D01*
G75*
G02*
X179476400Y-78536600I51000J0D01*
G01*
X180949600Y-78536600D01*
G75*
G02*
X181000600Y-78587600I0J-51000D01*
G01*
G37*
G36*
G01*
X181000600Y-77927200D02*
X181000600Y-78282800D01*
G75*
G02*
X180949600Y-78333800I-51000J0D01*
G01*
X179476400Y-78333800D01*
G75*
G02*
X179425400Y-78282800I0J51000D01*
G01*
X179425400Y-77927200D01*
G75*
G02*
X179476400Y-77876200I51000J0D01*
G01*
X180949600Y-77876200D01*
G75*
G02*
X181000600Y-77927200I0J-51000D01*
G01*
G37*
G36*
G01*
X181000600Y-77292200D02*
X181000600Y-77647800D01*
G75*
G02*
X180949600Y-77698800I-51000J0D01*
G01*
X179476400Y-77698800D01*
G75*
G02*
X179425400Y-77647800I0J51000D01*
G01*
X179425400Y-77292200D01*
G75*
G02*
X179476400Y-77241200I51000J0D01*
G01*
X180949600Y-77241200D01*
G75*
G02*
X181000600Y-77292200I0J-51000D01*
G01*
G37*
G36*
G01*
X181000600Y-76631800D02*
X181000600Y-76987400D01*
G75*
G02*
X180949600Y-77038400I-51000J0D01*
G01*
X179476400Y-77038400D01*
G75*
G02*
X179425400Y-76987400I0J51000D01*
G01*
X179425400Y-76631800D01*
G75*
G02*
X179476400Y-76580800I51000J0D01*
G01*
X180949600Y-76580800D01*
G75*
G02*
X181000600Y-76631800I0J-51000D01*
G01*
G37*
G36*
G01*
X186842600Y-76631800D02*
X186842600Y-76987400D01*
G75*
G02*
X186791600Y-77038400I-51000J0D01*
G01*
X185318400Y-77038400D01*
G75*
G02*
X185267400Y-76987400I0J51000D01*
G01*
X185267400Y-76631800D01*
G75*
G02*
X185318400Y-76580800I51000J0D01*
G01*
X186791600Y-76580800D01*
G75*
G02*
X186842600Y-76631800I0J-51000D01*
G01*
G37*
G36*
G01*
X186842600Y-77292200D02*
X186842600Y-77647800D01*
G75*
G02*
X186791600Y-77698800I-51000J0D01*
G01*
X185318400Y-77698800D01*
G75*
G02*
X185267400Y-77647800I0J51000D01*
G01*
X185267400Y-77292200D01*
G75*
G02*
X185318400Y-77241200I51000J0D01*
G01*
X186791600Y-77241200D01*
G75*
G02*
X186842600Y-77292200I0J-51000D01*
G01*
G37*
G36*
G01*
X186842600Y-77927200D02*
X186842600Y-78282800D01*
G75*
G02*
X186791600Y-78333800I-51000J0D01*
G01*
X185318400Y-78333800D01*
G75*
G02*
X185267400Y-78282800I0J51000D01*
G01*
X185267400Y-77927200D01*
G75*
G02*
X185318400Y-77876200I51000J0D01*
G01*
X186791600Y-77876200D01*
G75*
G02*
X186842600Y-77927200I0J-51000D01*
G01*
G37*
G36*
G01*
X186842600Y-78587600D02*
X186842600Y-78943200D01*
G75*
G02*
X186791600Y-78994200I-51000J0D01*
G01*
X185318400Y-78994200D01*
G75*
G02*
X185267400Y-78943200I0J51000D01*
G01*
X185267400Y-78587600D01*
G75*
G02*
X185318400Y-78536600I51000J0D01*
G01*
X186791600Y-78536600D01*
G75*
G02*
X186842600Y-78587600I0J-51000D01*
G01*
G37*
G36*
G01*
X186842600Y-79248000D02*
X186842600Y-79603600D01*
G75*
G02*
X186791600Y-79654600I-51000J0D01*
G01*
X185318400Y-79654600D01*
G75*
G02*
X185267400Y-79603600I0J51000D01*
G01*
X185267400Y-79248000D01*
G75*
G02*
X185318400Y-79197000I51000J0D01*
G01*
X186791600Y-79197000D01*
G75*
G02*
X186842600Y-79248000I0J-51000D01*
G01*
G37*
G36*
G01*
X186842600Y-79883000D02*
X186842600Y-80238600D01*
G75*
G02*
X186791600Y-80289600I-51000J0D01*
G01*
X185318400Y-80289600D01*
G75*
G02*
X185267400Y-80238600I0J51000D01*
G01*
X185267400Y-79883000D01*
G75*
G02*
X185318400Y-79832000I51000J0D01*
G01*
X186791600Y-79832000D01*
G75*
G02*
X186842600Y-79883000I0J-51000D01*
G01*
G37*
G36*
G01*
X186842600Y-80543400D02*
X186842600Y-80899000D01*
G75*
G02*
X186791600Y-80950000I-51000J0D01*
G01*
X185318400Y-80950000D01*
G75*
G02*
X185267400Y-80899000I0J51000D01*
G01*
X185267400Y-80543400D01*
G75*
G02*
X185318400Y-80492400I51000J0D01*
G01*
X186791600Y-80492400D01*
G75*
G02*
X186842600Y-80543400I0J-51000D01*
G01*
G37*
G36*
G01*
X186842600Y-81178400D02*
X186842600Y-81534000D01*
G75*
G02*
X186791600Y-81585000I-51000J0D01*
G01*
X185318400Y-81585000D01*
G75*
G02*
X185267400Y-81534000I0J51000D01*
G01*
X185267400Y-81178400D01*
G75*
G02*
X185318400Y-81127400I51000J0D01*
G01*
X186791600Y-81127400D01*
G75*
G02*
X186842600Y-81178400I0J-51000D01*
G01*
G37*
G36*
G01*
X186842600Y-81838800D02*
X186842600Y-82194400D01*
G75*
G02*
X186791600Y-82245400I-51000J0D01*
G01*
X185318400Y-82245400D01*
G75*
G02*
X185267400Y-82194400I0J51000D01*
G01*
X185267400Y-81838800D01*
G75*
G02*
X185318400Y-81787800I51000J0D01*
G01*
X186791600Y-81787800D01*
G75*
G02*
X186842600Y-81838800I0J-51000D01*
G01*
G37*
G36*
G01*
X186842600Y-82499200D02*
X186842600Y-82854800D01*
G75*
G02*
X186791600Y-82905800I-51000J0D01*
G01*
X185318400Y-82905800D01*
G75*
G02*
X185267400Y-82854800I0J51000D01*
G01*
X185267400Y-82499200D01*
G75*
G02*
X185318400Y-82448200I51000J0D01*
G01*
X186791600Y-82448200D01*
G75*
G02*
X186842600Y-82499200I0J-51000D01*
G01*
G37*
G36*
G01*
X186842600Y-83134200D02*
X186842600Y-83489800D01*
G75*
G02*
X186791600Y-83540800I-51000J0D01*
G01*
X185318400Y-83540800D01*
G75*
G02*
X185267400Y-83489800I0J51000D01*
G01*
X185267400Y-83134200D01*
G75*
G02*
X185318400Y-83083200I51000J0D01*
G01*
X186791600Y-83083200D01*
G75*
G02*
X186842600Y-83134200I0J-51000D01*
G01*
G37*
G36*
G01*
X186842600Y-83794600D02*
X186842600Y-84150200D01*
G75*
G02*
X186791600Y-84201200I-51000J0D01*
G01*
X185318400Y-84201200D01*
G75*
G02*
X185267400Y-84150200I0J51000D01*
G01*
X185267400Y-83794600D01*
G75*
G02*
X185318400Y-83743600I51000J0D01*
G01*
X186791600Y-83743600D01*
G75*
G02*
X186842600Y-83794600I0J-51000D01*
G01*
G37*
G36*
G01*
X179204500Y-133246000D02*
X180679500Y-133246000D01*
G75*
G02*
X180730500Y-133297000I0J-51000D01*
G01*
X180730500Y-133747000D01*
G75*
G02*
X180679500Y-133798000I-51000J0D01*
G01*
X179204500Y-133798000D01*
G75*
G02*
X179153500Y-133747000I0J51000D01*
G01*
X179153500Y-133297000D01*
G75*
G02*
X179204500Y-133246000I51000J0D01*
G01*
G37*
G36*
G01*
X179204500Y-132596000D02*
X180679500Y-132596000D01*
G75*
G02*
X180730500Y-132647000I0J-51000D01*
G01*
X180730500Y-133097000D01*
G75*
G02*
X180679500Y-133148000I-51000J0D01*
G01*
X179204500Y-133148000D01*
G75*
G02*
X179153500Y-133097000I0J51000D01*
G01*
X179153500Y-132647000D01*
G75*
G02*
X179204500Y-132596000I51000J0D01*
G01*
G37*
G36*
G01*
X179204500Y-131946000D02*
X180679500Y-131946000D01*
G75*
G02*
X180730500Y-131997000I0J-51000D01*
G01*
X180730500Y-132447000D01*
G75*
G02*
X180679500Y-132498000I-51000J0D01*
G01*
X179204500Y-132498000D01*
G75*
G02*
X179153500Y-132447000I0J51000D01*
G01*
X179153500Y-131997000D01*
G75*
G02*
X179204500Y-131946000I51000J0D01*
G01*
G37*
G36*
G01*
X179204500Y-131296000D02*
X180679500Y-131296000D01*
G75*
G02*
X180730500Y-131347000I0J-51000D01*
G01*
X180730500Y-131797000D01*
G75*
G02*
X180679500Y-131848000I-51000J0D01*
G01*
X179204500Y-131848000D01*
G75*
G02*
X179153500Y-131797000I0J51000D01*
G01*
X179153500Y-131347000D01*
G75*
G02*
X179204500Y-131296000I51000J0D01*
G01*
G37*
G36*
G01*
X179204500Y-130646000D02*
X180679500Y-130646000D01*
G75*
G02*
X180730500Y-130697000I0J-51000D01*
G01*
X180730500Y-131147000D01*
G75*
G02*
X180679500Y-131198000I-51000J0D01*
G01*
X179204500Y-131198000D01*
G75*
G02*
X179153500Y-131147000I0J51000D01*
G01*
X179153500Y-130697000D01*
G75*
G02*
X179204500Y-130646000I51000J0D01*
G01*
G37*
G36*
G01*
X179204500Y-129996000D02*
X180679500Y-129996000D01*
G75*
G02*
X180730500Y-130047000I0J-51000D01*
G01*
X180730500Y-130497000D01*
G75*
G02*
X180679500Y-130548000I-51000J0D01*
G01*
X179204500Y-130548000D01*
G75*
G02*
X179153500Y-130497000I0J51000D01*
G01*
X179153500Y-130047000D01*
G75*
G02*
X179204500Y-129996000I51000J0D01*
G01*
G37*
G36*
G01*
X179204500Y-129346000D02*
X180679500Y-129346000D01*
G75*
G02*
X180730500Y-129397000I0J-51000D01*
G01*
X180730500Y-129847000D01*
G75*
G02*
X180679500Y-129898000I-51000J0D01*
G01*
X179204500Y-129898000D01*
G75*
G02*
X179153500Y-129847000I0J51000D01*
G01*
X179153500Y-129397000D01*
G75*
G02*
X179204500Y-129346000I51000J0D01*
G01*
G37*
G36*
G01*
X185080500Y-129346000D02*
X186555500Y-129346000D01*
G75*
G02*
X186606500Y-129397000I0J-51000D01*
G01*
X186606500Y-129847000D01*
G75*
G02*
X186555500Y-129898000I-51000J0D01*
G01*
X185080500Y-129898000D01*
G75*
G02*
X185029500Y-129847000I0J51000D01*
G01*
X185029500Y-129397000D01*
G75*
G02*
X185080500Y-129346000I51000J0D01*
G01*
G37*
G36*
G01*
X185080500Y-129996000D02*
X186555500Y-129996000D01*
G75*
G02*
X186606500Y-130047000I0J-51000D01*
G01*
X186606500Y-130497000D01*
G75*
G02*
X186555500Y-130548000I-51000J0D01*
G01*
X185080500Y-130548000D01*
G75*
G02*
X185029500Y-130497000I0J51000D01*
G01*
X185029500Y-130047000D01*
G75*
G02*
X185080500Y-129996000I51000J0D01*
G01*
G37*
G36*
G01*
X185080500Y-130646000D02*
X186555500Y-130646000D01*
G75*
G02*
X186606500Y-130697000I0J-51000D01*
G01*
X186606500Y-131147000D01*
G75*
G02*
X186555500Y-131198000I-51000J0D01*
G01*
X185080500Y-131198000D01*
G75*
G02*
X185029500Y-131147000I0J51000D01*
G01*
X185029500Y-130697000D01*
G75*
G02*
X185080500Y-130646000I51000J0D01*
G01*
G37*
G36*
G01*
X185080500Y-131296000D02*
X186555500Y-131296000D01*
G75*
G02*
X186606500Y-131347000I0J-51000D01*
G01*
X186606500Y-131797000D01*
G75*
G02*
X186555500Y-131848000I-51000J0D01*
G01*
X185080500Y-131848000D01*
G75*
G02*
X185029500Y-131797000I0J51000D01*
G01*
X185029500Y-131347000D01*
G75*
G02*
X185080500Y-131296000I51000J0D01*
G01*
G37*
G36*
G01*
X185080500Y-131946000D02*
X186555500Y-131946000D01*
G75*
G02*
X186606500Y-131997000I0J-51000D01*
G01*
X186606500Y-132447000D01*
G75*
G02*
X186555500Y-132498000I-51000J0D01*
G01*
X185080500Y-132498000D01*
G75*
G02*
X185029500Y-132447000I0J51000D01*
G01*
X185029500Y-131997000D01*
G75*
G02*
X185080500Y-131946000I51000J0D01*
G01*
G37*
G36*
G01*
X185080500Y-132596000D02*
X186555500Y-132596000D01*
G75*
G02*
X186606500Y-132647000I0J-51000D01*
G01*
X186606500Y-133097000D01*
G75*
G02*
X186555500Y-133148000I-51000J0D01*
G01*
X185080500Y-133148000D01*
G75*
G02*
X185029500Y-133097000I0J51000D01*
G01*
X185029500Y-132647000D01*
G75*
G02*
X185080500Y-132596000I51000J0D01*
G01*
G37*
G36*
G01*
X185080500Y-133246000D02*
X186555500Y-133246000D01*
G75*
G02*
X186606500Y-133297000I0J-51000D01*
G01*
X186606500Y-133747000D01*
G75*
G02*
X186555500Y-133798000I-51000J0D01*
G01*
X185080500Y-133798000D01*
G75*
G02*
X185029500Y-133747000I0J51000D01*
G01*
X185029500Y-133297000D01*
G75*
G02*
X185080500Y-133246000I51000J0D01*
G01*
G37*
D12*
X167908000Y-95110000D03*
X167908000Y-96110000D03*
X167908000Y-97110000D03*
X167908000Y-98110000D03*
X167908000Y-99110000D03*
X167908000Y-100110000D03*
X167908000Y-101110000D03*
X167908000Y-102110000D03*
X167908000Y-103110000D03*
X163908000Y-100110000D03*
X163908000Y-99110000D03*
X163908000Y-98110000D03*
X163908000Y-97110000D03*
X162908000Y-97110000D03*
X162908000Y-98110000D03*
X162908000Y-99110000D03*
X162908000Y-100110000D03*
X166908000Y-103110000D03*
X166908000Y-102110000D03*
X166908000Y-101110000D03*
X166908000Y-100110000D03*
X166908000Y-99110000D03*
X166908000Y-98110000D03*
X166908000Y-97110000D03*
X166908000Y-96110000D03*
X166908000Y-95110000D03*
X165908000Y-95110000D03*
X165908000Y-96110000D03*
X165908000Y-97110000D03*
X165908000Y-98110000D03*
X165908000Y-99110000D03*
X165908000Y-100110000D03*
X165908000Y-101110000D03*
X165908000Y-102110000D03*
X165908000Y-103110000D03*
X161908000Y-100110000D03*
X161908000Y-99110000D03*
X161908000Y-98110000D03*
X161908000Y-97110000D03*
X160908000Y-97110000D03*
X160908000Y-98110000D03*
X160908000Y-99110000D03*
X160908000Y-100110000D03*
X164908000Y-103110000D03*
X164908000Y-102110000D03*
X164908000Y-101110000D03*
X164908000Y-100110000D03*
X164908000Y-99110000D03*
X164908000Y-98110000D03*
X164908000Y-97110000D03*
X164908000Y-96110000D03*
X164908000Y-95110000D03*
X163908000Y-96110000D03*
X162908000Y-96110000D03*
X161908000Y-96110000D03*
X163908000Y-95110000D03*
X162908000Y-95110000D03*
X161908000Y-95110000D03*
X160908000Y-95110000D03*
X163908000Y-103110000D03*
X163908000Y-102110000D03*
X160908000Y-94110000D03*
X161908000Y-94110000D03*
X162908000Y-94110000D03*
X163908000Y-94110000D03*
X160908000Y-96110000D03*
X163908000Y-93110000D03*
X162908000Y-93110000D03*
X161908000Y-93110000D03*
X160908000Y-93110000D03*
X163908000Y-101110000D03*
X163908000Y-92110000D03*
X162908000Y-92110000D03*
X161908000Y-92110000D03*
X160908000Y-92110000D03*
X159908000Y-100110000D03*
X162908000Y-103110000D03*
X161908000Y-103110000D03*
X160908000Y-103110000D03*
X159908000Y-103110000D03*
X158908000Y-103110000D03*
X162908000Y-102110000D03*
X161908000Y-102110000D03*
X160908000Y-102110000D03*
X159908000Y-102110000D03*
X158908000Y-102110000D03*
X158908000Y-101110000D03*
X159908000Y-101110000D03*
X160908000Y-101110000D03*
X161908000Y-101110000D03*
X162908000Y-101110000D03*
X158908000Y-100110000D03*
X157908000Y-100110000D03*
X156908000Y-100110000D03*
X159908000Y-99110000D03*
X157908000Y-103110000D03*
X156908000Y-103110000D03*
X157908000Y-102110000D03*
X156908000Y-102110000D03*
X157908000Y-101110000D03*
X156908000Y-101110000D03*
X158908000Y-99110000D03*
X157908000Y-99110000D03*
X156908000Y-99110000D03*
X159908000Y-98110000D03*
X158908000Y-98110000D03*
X157908000Y-98110000D03*
X156908000Y-98110000D03*
X159908000Y-97110000D03*
X158908000Y-97110000D03*
X157908000Y-97110000D03*
X156908000Y-97110000D03*
X159908000Y-96110000D03*
X158908000Y-96110000D03*
X157908000Y-96110000D03*
X156908000Y-96110000D03*
X159908000Y-95110000D03*
X158908000Y-95110000D03*
X157908000Y-95110000D03*
X156908000Y-95110000D03*
X159908000Y-94110000D03*
X158908000Y-94110000D03*
X157908000Y-94110000D03*
X156908000Y-94110000D03*
X159908000Y-93110000D03*
X158908000Y-93110000D03*
X157908000Y-93110000D03*
X156908000Y-93110000D03*
X156908000Y-92110000D03*
X157908000Y-92110000D03*
X158908000Y-92110000D03*
X159908000Y-92110000D03*
X155908000Y-103110000D03*
X154908000Y-103110000D03*
X153908000Y-103110000D03*
X152908000Y-103110000D03*
X152908000Y-102110000D03*
X152908000Y-101110000D03*
X152908000Y-100110000D03*
X153908000Y-102110000D03*
X153908000Y-101110000D03*
X153908000Y-100110000D03*
X154908000Y-100110000D03*
X154908000Y-101110000D03*
X154908000Y-102110000D03*
X155908000Y-102110000D03*
X155908000Y-101110000D03*
X155908000Y-100110000D03*
X155908000Y-99110000D03*
X154908000Y-99110000D03*
X153908000Y-99110000D03*
X152908000Y-99110000D03*
X152908000Y-98110000D03*
X153908000Y-98110000D03*
X154908000Y-98110000D03*
X155908000Y-98110000D03*
X155908000Y-97110000D03*
X154908000Y-97110000D03*
X153908000Y-97110000D03*
X152908000Y-97110000D03*
X153908000Y-96110000D03*
X154908000Y-96110000D03*
X155908000Y-96110000D03*
X155908000Y-95110000D03*
X154908000Y-95110000D03*
X153908000Y-95110000D03*
X153908000Y-94110000D03*
X154908000Y-94110000D03*
X155908000Y-94110000D03*
X155908000Y-93110000D03*
X154908000Y-93110000D03*
X153908000Y-93110000D03*
X167908000Y-92110000D03*
X167908000Y-93110000D03*
X167908000Y-94110000D03*
X166908000Y-94110000D03*
X166908000Y-93110000D03*
X166908000Y-92110000D03*
X165908000Y-92110000D03*
X165908000Y-93110000D03*
X165908000Y-94110000D03*
X164908000Y-94110000D03*
X164908000Y-93110000D03*
X164908000Y-92110000D03*
X167908000Y-90110000D03*
X167908000Y-91110000D03*
X166908000Y-91110000D03*
X166908000Y-90110000D03*
X164908000Y-91110000D03*
X165908000Y-91110000D03*
X165908000Y-90110000D03*
X164908000Y-90110000D03*
X163908000Y-90110000D03*
X163908000Y-91110000D03*
X162908000Y-91110000D03*
X162908000Y-90110000D03*
X161908000Y-91110000D03*
X161908000Y-90110000D03*
X155908000Y-92110000D03*
X154908000Y-92110000D03*
X153908000Y-92110000D03*
X160908000Y-91110000D03*
X159908000Y-91110000D03*
X158908000Y-91110000D03*
X157908000Y-91110000D03*
X156908000Y-91110000D03*
X155908000Y-91110000D03*
X154908000Y-91110000D03*
X153908000Y-91110000D03*
X160908000Y-90110000D03*
X159908000Y-90110000D03*
X158908000Y-90110000D03*
X157908000Y-90110000D03*
X156908000Y-90110000D03*
X155908000Y-90110000D03*
X154908000Y-90110000D03*
X153908000Y-90110000D03*
X155908000Y-89110000D03*
X154908000Y-89110000D03*
X153908000Y-89110000D03*
X156908000Y-89110000D03*
X157908000Y-89110000D03*
X158908000Y-89110000D03*
X159908000Y-89110000D03*
X160908000Y-89110000D03*
X161908000Y-89110000D03*
X162908000Y-89110000D03*
X163908000Y-89110000D03*
X164908000Y-89110000D03*
X165908000Y-89110000D03*
X166908000Y-89110000D03*
X167908000Y-89110000D03*
X152908000Y-96110000D03*
X152908000Y-95110000D03*
X152908000Y-94110000D03*
X152908000Y-93110000D03*
X152908000Y-92110000D03*
X152908000Y-91110000D03*
X152908000Y-90110000D03*
X152908000Y-89110000D03*
X167908000Y-88110000D03*
X166908000Y-88110000D03*
X165908000Y-88110000D03*
X164908000Y-88110000D03*
X163908000Y-88110000D03*
X162908000Y-88110000D03*
X161908000Y-88110000D03*
X160908000Y-88110000D03*
X159908000Y-88110000D03*
X158908000Y-88110000D03*
X157908000Y-88110000D03*
X156908000Y-88110000D03*
X155908000Y-88110000D03*
X154908000Y-88110000D03*
X153908000Y-88110000D03*
X152908000Y-88110000D03*
G36*
G01*
X165740001Y-110993000D02*
X164189999Y-110993000D01*
G75*
G02*
X164139000Y-110942001I0J50999D01*
G01*
X164139000Y-110291999D01*
G75*
G02*
X164189999Y-110241000I50999J0D01*
G01*
X165740001Y-110241000D01*
G75*
G02*
X165791000Y-110291999I0J-50999D01*
G01*
X165791000Y-110942001D01*
G75*
G02*
X165740001Y-110993000I-50999J0D01*
G01*
G37*
G36*
G01*
X165740001Y-112263000D02*
X164189999Y-112263000D01*
G75*
G02*
X164139000Y-112212001I0J50999D01*
G01*
X164139000Y-111561999D01*
G75*
G02*
X164189999Y-111511000I50999J0D01*
G01*
X165740001Y-111511000D01*
G75*
G02*
X165791000Y-111561999I0J-50999D01*
G01*
X165791000Y-112212001D01*
G75*
G02*
X165740001Y-112263000I-50999J0D01*
G01*
G37*
G36*
G01*
X165740001Y-113533000D02*
X164189999Y-113533000D01*
G75*
G02*
X164139000Y-113482001I0J50999D01*
G01*
X164139000Y-112831999D01*
G75*
G02*
X164189999Y-112781000I50999J0D01*
G01*
X165740001Y-112781000D01*
G75*
G02*
X165791000Y-112831999I0J-50999D01*
G01*
X165791000Y-113482001D01*
G75*
G02*
X165740001Y-113533000I-50999J0D01*
G01*
G37*
G36*
G01*
X165740001Y-114803000D02*
X164189999Y-114803000D01*
G75*
G02*
X164139000Y-114752001I0J50999D01*
G01*
X164139000Y-114101999D01*
G75*
G02*
X164189999Y-114051000I50999J0D01*
G01*
X165740001Y-114051000D01*
G75*
G02*
X165791000Y-114101999I0J-50999D01*
G01*
X165791000Y-114752001D01*
G75*
G02*
X165740001Y-114803000I-50999J0D01*
G01*
G37*
G36*
G01*
X158390001Y-114803000D02*
X156839999Y-114803000D01*
G75*
G02*
X156789000Y-114752001I0J50999D01*
G01*
X156789000Y-114101999D01*
G75*
G02*
X156839999Y-114051000I50999J0D01*
G01*
X158390001Y-114051000D01*
G75*
G02*
X158441000Y-114101999I0J-50999D01*
G01*
X158441000Y-114752001D01*
G75*
G02*
X158390001Y-114803000I-50999J0D01*
G01*
G37*
G36*
G01*
X158390001Y-113533000D02*
X156839999Y-113533000D01*
G75*
G02*
X156789000Y-113482001I0J50999D01*
G01*
X156789000Y-112831999D01*
G75*
G02*
X156839999Y-112781000I50999J0D01*
G01*
X158390001Y-112781000D01*
G75*
G02*
X158441000Y-112831999I0J-50999D01*
G01*
X158441000Y-113482001D01*
G75*
G02*
X158390001Y-113533000I-50999J0D01*
G01*
G37*
G36*
G01*
X158390001Y-112263000D02*
X156839999Y-112263000D01*
G75*
G02*
X156789000Y-112212001I0J50999D01*
G01*
X156789000Y-111561999D01*
G75*
G02*
X156839999Y-111511000I50999J0D01*
G01*
X158390001Y-111511000D01*
G75*
G02*
X158441000Y-111561999I0J-50999D01*
G01*
X158441000Y-112212001D01*
G75*
G02*
X158390001Y-112263000I-50999J0D01*
G01*
G37*
G36*
G01*
X158390001Y-110993000D02*
X156839999Y-110993000D01*
G75*
G02*
X156789000Y-110942001I0J50999D01*
G01*
X156789000Y-110291999D01*
G75*
G02*
X156839999Y-110241000I50999J0D01*
G01*
X158390001Y-110241000D01*
G75*
G02*
X158441000Y-110291999I0J-50999D01*
G01*
X158441000Y-110942001D01*
G75*
G02*
X158390001Y-110993000I-50999J0D01*
G01*
G37*
G36*
G01*
X122821000Y-100750000D02*
X122821000Y-102450000D01*
G75*
G02*
X122770000Y-102501000I-51000J0D01*
G01*
X121070000Y-102501000D01*
G75*
G02*
X121019000Y-102450000I0J51000D01*
G01*
X121019000Y-100750000D01*
G75*
G02*
X121070000Y-100699000I51000J0D01*
G01*
X122770000Y-100699000D01*
G75*
G02*
X122821000Y-100750000I0J-51000D01*
G01*
G37*
D11*
X121920000Y-99060000D03*
X121920000Y-96520000D03*
X121920000Y-93980000D03*
X121920000Y-91440000D03*
X121920000Y-88900000D03*
G36*
G01*
X178650000Y-140601000D02*
X176950000Y-140601000D01*
G75*
G02*
X176899000Y-140550000I0J51000D01*
G01*
X176899000Y-138850000D01*
G75*
G02*
X176950000Y-138799000I51000J0D01*
G01*
X178650000Y-138799000D01*
G75*
G02*
X178701000Y-138850000I0J-51000D01*
G01*
X178701000Y-140550000D01*
G75*
G02*
X178650000Y-140601000I-51000J0D01*
G01*
G37*
X180340000Y-139700000D03*
X182880000Y-139700000D03*
X185420000Y-139700000D03*
X185039000Y-63119000D03*
X182499000Y-63119000D03*
X179959000Y-63119000D03*
G36*
G01*
X178269000Y-64020000D02*
X176569000Y-64020000D01*
G75*
G02*
X176518000Y-63969000I0J51000D01*
G01*
X176518000Y-62269000D01*
G75*
G02*
X176569000Y-62218000I51000J0D01*
G01*
X178269000Y-62218000D01*
G75*
G02*
X178320000Y-62269000I0J-51000D01*
G01*
X178320000Y-63969000D01*
G75*
G02*
X178269000Y-64020000I-51000J0D01*
G01*
G37*
X190500000Y-73660000D03*
X190500000Y-76200000D03*
X190500000Y-78740000D03*
X190500000Y-81280000D03*
X190500000Y-83820000D03*
X190500000Y-86360000D03*
X190500000Y-88900000D03*
X190500000Y-91440000D03*
X190500000Y-93980000D03*
G36*
G01*
X191401000Y-95670000D02*
X191401000Y-97370000D01*
G75*
G02*
X191350000Y-97421000I-51000J0D01*
G01*
X189650000Y-97421000D01*
G75*
G02*
X189599000Y-97370000I0J51000D01*
G01*
X189599000Y-95670000D01*
G75*
G02*
X189650000Y-95619000I51000J0D01*
G01*
X191350000Y-95619000D01*
G75*
G02*
X191401000Y-95670000I0J-51000D01*
G01*
G37*
G36*
G01*
X191401000Y-126150000D02*
X191401000Y-127850000D01*
G75*
G02*
X191350000Y-127901000I-51000J0D01*
G01*
X189650000Y-127901000D01*
G75*
G02*
X189599000Y-127850000I0J51000D01*
G01*
X189599000Y-126150000D01*
G75*
G02*
X189650000Y-126099000I51000J0D01*
G01*
X191350000Y-126099000D01*
G75*
G02*
X191401000Y-126150000I0J-51000D01*
G01*
G37*
X190500000Y-124460000D03*
X190500000Y-121920000D03*
X190500000Y-119380000D03*
X190500000Y-116840000D03*
X190500000Y-114300000D03*
X190500000Y-111760000D03*
X190500000Y-109220000D03*
X190500000Y-106680000D03*
X190500000Y-104140000D03*
X127000000Y-63500000D03*
X127000000Y-66040000D03*
X129540000Y-63500000D03*
X129540000Y-66040000D03*
X132080000Y-63500000D03*
X132080000Y-66040000D03*
X134620000Y-63500000D03*
X134620000Y-66040000D03*
X137160000Y-63500000D03*
X137160000Y-66040000D03*
X139700000Y-63500000D03*
X139700000Y-66040000D03*
X142240000Y-63500000D03*
X142240000Y-66040000D03*
X144780000Y-63500000D03*
X144780000Y-66040000D03*
X147320000Y-63500000D03*
X147320000Y-66040000D03*
X149860000Y-63500000D03*
X149860000Y-66040000D03*
X152400000Y-63500000D03*
X152400000Y-66040000D03*
X154940000Y-63500000D03*
X154940000Y-66040000D03*
X157480000Y-63500000D03*
X157480000Y-66040000D03*
X160020000Y-63500000D03*
X160020000Y-66040000D03*
X162560000Y-63500000D03*
X162560000Y-66040000D03*
X165100000Y-63500000D03*
X165100000Y-66040000D03*
X167640000Y-63500000D03*
G36*
G01*
X166790000Y-65139000D02*
X168490000Y-65139000D01*
G75*
G02*
X168541000Y-65190000I0J-51000D01*
G01*
X168541000Y-66890000D01*
G75*
G02*
X168490000Y-66941000I-51000J0D01*
G01*
X166790000Y-66941000D01*
G75*
G02*
X166739000Y-66890000I0J51000D01*
G01*
X166739000Y-65190000D01*
G75*
G02*
X166790000Y-65139000I51000J0D01*
G01*
G37*
G36*
G01*
X158521000Y-133456000D02*
X158521000Y-132156000D01*
G75*
G02*
X158572000Y-132105000I51000J0D01*
G01*
X160122000Y-132105000D01*
G75*
G02*
X160173000Y-132156000I0J-51000D01*
G01*
X160173000Y-133456000D01*
G75*
G02*
X160122000Y-133507000I-51000J0D01*
G01*
X158572000Y-133507000D01*
G75*
G02*
X158521000Y-133456000I0J51000D01*
G01*
G37*
G36*
G01*
X158521000Y-128956000D02*
X158521000Y-127656000D01*
G75*
G02*
X158572000Y-127605000I51000J0D01*
G01*
X160122000Y-127605000D01*
G75*
G02*
X160173000Y-127656000I0J-51000D01*
G01*
X160173000Y-128956000D01*
G75*
G02*
X160122000Y-129007000I-51000J0D01*
G01*
X158572000Y-129007000D01*
G75*
G02*
X158521000Y-128956000I0J51000D01*
G01*
G37*
G36*
G01*
X166471000Y-128956000D02*
X166471000Y-127656000D01*
G75*
G02*
X166522000Y-127605000I51000J0D01*
G01*
X168072000Y-127605000D01*
G75*
G02*
X168123000Y-127656000I0J-51000D01*
G01*
X168123000Y-128956000D01*
G75*
G02*
X168072000Y-129007000I-51000J0D01*
G01*
X166522000Y-129007000D01*
G75*
G02*
X166471000Y-128956000I0J51000D01*
G01*
G37*
G36*
G01*
X166471000Y-133456000D02*
X166471000Y-132156000D01*
G75*
G02*
X166522000Y-132105000I51000J0D01*
G01*
X168072000Y-132105000D01*
G75*
G02*
X168123000Y-132156000I0J-51000D01*
G01*
X168123000Y-133456000D01*
G75*
G02*
X168072000Y-133507000I-51000J0D01*
G01*
X166522000Y-133507000D01*
G75*
G02*
X166471000Y-133456000I0J51000D01*
G01*
G37*
G36*
G01*
X142459000Y-109470000D02*
X142459000Y-108170000D01*
G75*
G02*
X142510000Y-108119000I51000J0D01*
G01*
X144060000Y-108119000D01*
G75*
G02*
X144111000Y-108170000I0J-51000D01*
G01*
X144111000Y-109470000D01*
G75*
G02*
X144060000Y-109521000I-51000J0D01*
G01*
X142510000Y-109521000D01*
G75*
G02*
X142459000Y-109470000I0J51000D01*
G01*
G37*
G36*
G01*
X142459000Y-104970000D02*
X142459000Y-103670000D01*
G75*
G02*
X142510000Y-103619000I51000J0D01*
G01*
X144060000Y-103619000D01*
G75*
G02*
X144111000Y-103670000I0J-51000D01*
G01*
X144111000Y-104970000D01*
G75*
G02*
X144060000Y-105021000I-51000J0D01*
G01*
X142510000Y-105021000D01*
G75*
G02*
X142459000Y-104970000I0J51000D01*
G01*
G37*
G36*
G01*
X134509000Y-104970000D02*
X134509000Y-103670000D01*
G75*
G02*
X134560000Y-103619000I51000J0D01*
G01*
X136110000Y-103619000D01*
G75*
G02*
X136161000Y-103670000I0J-51000D01*
G01*
X136161000Y-104970000D01*
G75*
G02*
X136110000Y-105021000I-51000J0D01*
G01*
X134560000Y-105021000D01*
G75*
G02*
X134509000Y-104970000I0J51000D01*
G01*
G37*
G36*
G01*
X134509000Y-109470000D02*
X134509000Y-108170000D01*
G75*
G02*
X134560000Y-108119000I51000J0D01*
G01*
X136110000Y-108119000D01*
G75*
G02*
X136161000Y-108170000I0J-51000D01*
G01*
X136161000Y-109470000D01*
G75*
G02*
X136110000Y-109521000I-51000J0D01*
G01*
X134560000Y-109521000D01*
G75*
G02*
X134509000Y-109470000I0J51000D01*
G01*
G37*
G36*
G01*
X130391000Y-128740000D02*
X130391000Y-130340000D01*
G75*
G02*
X130340000Y-130391000I-51000J0D01*
G01*
X128740000Y-130391000D01*
G75*
G02*
X128689000Y-130340000I0J51000D01*
G01*
X128689000Y-128740000D01*
G75*
G02*
X128740000Y-128689000I51000J0D01*
G01*
X130340000Y-128689000D01*
G75*
G02*
X130391000Y-128740000I0J-51000D01*
G01*
G37*
D13*
X121920000Y-111760000D03*
X129540000Y-127000000D03*
X121920000Y-114300000D03*
X129540000Y-124460000D03*
X121920000Y-116840000D03*
X129540000Y-121920000D03*
X121920000Y-119380000D03*
X129540000Y-119380000D03*
X121920000Y-121920000D03*
X129540000Y-116840000D03*
X121920000Y-124460000D03*
X129540000Y-114300000D03*
X121920000Y-127000000D03*
X129540000Y-111760000D03*
X121920000Y-129540000D03*
G36*
G01*
X162875200Y-84160400D02*
X161635200Y-84160400D01*
G75*
G02*
X161584200Y-84109400I0J51000D01*
G01*
X161584200Y-82819400D01*
G75*
G02*
X161635200Y-82768400I51000J0D01*
G01*
X162875200Y-82768400D01*
G75*
G02*
X162926200Y-82819400I0J-51000D01*
G01*
X162926200Y-84109400D01*
G75*
G02*
X162875200Y-84160400I-51000J0D01*
G01*
G37*
G36*
G01*
X160625200Y-84160400D02*
X159385200Y-84160400D01*
G75*
G02*
X159334200Y-84109400I0J51000D01*
G01*
X159334200Y-82819400D01*
G75*
G02*
X159385200Y-82768400I51000J0D01*
G01*
X160625200Y-82768400D01*
G75*
G02*
X160676200Y-82819400I0J-51000D01*
G01*
X160676200Y-84109400D01*
G75*
G02*
X160625200Y-84160400I-51000J0D01*
G01*
G37*
G36*
G01*
X162875200Y-81620400D02*
X161635200Y-81620400D01*
G75*
G02*
X161584200Y-81569400I0J51000D01*
G01*
X161584200Y-80279400D01*
G75*
G02*
X161635200Y-80228400I51000J0D01*
G01*
X162875200Y-80228400D01*
G75*
G02*
X162926200Y-80279400I0J-51000D01*
G01*
X162926200Y-81569400D01*
G75*
G02*
X162875200Y-81620400I-51000J0D01*
G01*
G37*
G36*
G01*
X160625200Y-81620400D02*
X159385200Y-81620400D01*
G75*
G02*
X159334200Y-81569400I0J51000D01*
G01*
X159334200Y-80279400D01*
G75*
G02*
X159385200Y-80228400I51000J0D01*
G01*
X160625200Y-80228400D01*
G75*
G02*
X160676200Y-80279400I0J-51000D01*
G01*
X160676200Y-81569400D01*
G75*
G02*
X160625200Y-81620400I-51000J0D01*
G01*
G37*
G36*
G01*
X179476600Y-71170800D02*
X179476600Y-71628000D01*
G75*
G02*
X179425600Y-71679000I-51000J0D01*
G01*
X178054000Y-71679000D01*
G75*
G02*
X178003000Y-71628000I0J51000D01*
G01*
X178003000Y-71170800D01*
G75*
G02*
X178054000Y-71119800I51000J0D01*
G01*
X179425600Y-71119800D01*
G75*
G02*
X179476600Y-71170800I0J-51000D01*
G01*
G37*
G36*
G01*
X179476600Y-70535800D02*
X179476600Y-70993000D01*
G75*
G02*
X179425600Y-71044000I-51000J0D01*
G01*
X178054000Y-71044000D01*
G75*
G02*
X178003000Y-70993000I0J51000D01*
G01*
X178003000Y-70535800D01*
G75*
G02*
X178054000Y-70484800I51000J0D01*
G01*
X179425600Y-70484800D01*
G75*
G02*
X179476600Y-70535800I0J-51000D01*
G01*
G37*
G36*
G01*
X179476600Y-69875400D02*
X179476600Y-70332600D01*
G75*
G02*
X179425600Y-70383600I-51000J0D01*
G01*
X178054000Y-70383600D01*
G75*
G02*
X178003000Y-70332600I0J51000D01*
G01*
X178003000Y-69875400D01*
G75*
G02*
X178054000Y-69824400I51000J0D01*
G01*
X179425600Y-69824400D01*
G75*
G02*
X179476600Y-69875400I0J-51000D01*
G01*
G37*
G36*
G01*
X179476600Y-69240400D02*
X179476600Y-69697600D01*
G75*
G02*
X179425600Y-69748600I-51000J0D01*
G01*
X178054000Y-69748600D01*
G75*
G02*
X178003000Y-69697600I0J51000D01*
G01*
X178003000Y-69240400D01*
G75*
G02*
X178054000Y-69189400I51000J0D01*
G01*
X179425600Y-69189400D01*
G75*
G02*
X179476600Y-69240400I0J-51000D01*
G01*
G37*
G36*
G01*
X183896200Y-69240400D02*
X183896200Y-69697600D01*
G75*
G02*
X183845200Y-69748600I-51000J0D01*
G01*
X182473600Y-69748600D01*
G75*
G02*
X182422600Y-69697600I0J51000D01*
G01*
X182422600Y-69240400D01*
G75*
G02*
X182473600Y-69189400I51000J0D01*
G01*
X183845200Y-69189400D01*
G75*
G02*
X183896200Y-69240400I0J-51000D01*
G01*
G37*
G36*
G01*
X183896200Y-69875400D02*
X183896200Y-70332600D01*
G75*
G02*
X183845200Y-70383600I-51000J0D01*
G01*
X182473600Y-70383600D01*
G75*
G02*
X182422600Y-70332600I0J51000D01*
G01*
X182422600Y-69875400D01*
G75*
G02*
X182473600Y-69824400I51000J0D01*
G01*
X183845200Y-69824400D01*
G75*
G02*
X183896200Y-69875400I0J-51000D01*
G01*
G37*
G36*
G01*
X183896200Y-70535800D02*
X183896200Y-70993000D01*
G75*
G02*
X183845200Y-71044000I-51000J0D01*
G01*
X182473600Y-71044000D01*
G75*
G02*
X182422600Y-70993000I0J51000D01*
G01*
X182422600Y-70535800D01*
G75*
G02*
X182473600Y-70484800I51000J0D01*
G01*
X183845200Y-70484800D01*
G75*
G02*
X183896200Y-70535800I0J-51000D01*
G01*
G37*
G36*
G01*
X183896200Y-71170800D02*
X183896200Y-71628000D01*
G75*
G02*
X183845200Y-71679000I-51000J0D01*
G01*
X182473600Y-71679000D01*
G75*
G02*
X182422600Y-71628000I0J51000D01*
G01*
X182422600Y-71170800D01*
G75*
G02*
X182473600Y-71119800I51000J0D01*
G01*
X183845200Y-71119800D01*
G75*
G02*
X183896200Y-71170800I0J-51000D01*
G01*
G37*
G36*
G01*
X186461600Y-113893600D02*
X186461600Y-114249200D01*
G75*
G02*
X186410600Y-114300200I-51000J0D01*
G01*
X184937400Y-114300200D01*
G75*
G02*
X184886400Y-114249200I0J51000D01*
G01*
X184886400Y-113893600D01*
G75*
G02*
X184937400Y-113842600I51000J0D01*
G01*
X186410600Y-113842600D01*
G75*
G02*
X186461600Y-113893600I0J-51000D01*
G01*
G37*
G36*
G01*
X186461600Y-113233200D02*
X186461600Y-113588800D01*
G75*
G02*
X186410600Y-113639800I-51000J0D01*
G01*
X184937400Y-113639800D01*
G75*
G02*
X184886400Y-113588800I0J51000D01*
G01*
X184886400Y-113233200D01*
G75*
G02*
X184937400Y-113182200I51000J0D01*
G01*
X186410600Y-113182200D01*
G75*
G02*
X186461600Y-113233200I0J-51000D01*
G01*
G37*
G36*
G01*
X186461600Y-112598200D02*
X186461600Y-112953800D01*
G75*
G02*
X186410600Y-113004800I-51000J0D01*
G01*
X184937400Y-113004800D01*
G75*
G02*
X184886400Y-112953800I0J51000D01*
G01*
X184886400Y-112598200D01*
G75*
G02*
X184937400Y-112547200I51000J0D01*
G01*
X186410600Y-112547200D01*
G75*
G02*
X186461600Y-112598200I0J-51000D01*
G01*
G37*
G36*
G01*
X186461600Y-111937800D02*
X186461600Y-112293400D01*
G75*
G02*
X186410600Y-112344400I-51000J0D01*
G01*
X184937400Y-112344400D01*
G75*
G02*
X184886400Y-112293400I0J51000D01*
G01*
X184886400Y-111937800D01*
G75*
G02*
X184937400Y-111886800I51000J0D01*
G01*
X186410600Y-111886800D01*
G75*
G02*
X186461600Y-111937800I0J-51000D01*
G01*
G37*
G36*
G01*
X186461600Y-111277400D02*
X186461600Y-111633000D01*
G75*
G02*
X186410600Y-111684000I-51000J0D01*
G01*
X184937400Y-111684000D01*
G75*
G02*
X184886400Y-111633000I0J51000D01*
G01*
X184886400Y-111277400D01*
G75*
G02*
X184937400Y-111226400I51000J0D01*
G01*
X186410600Y-111226400D01*
G75*
G02*
X186461600Y-111277400I0J-51000D01*
G01*
G37*
G36*
G01*
X186461600Y-110642400D02*
X186461600Y-110998000D01*
G75*
G02*
X186410600Y-111049000I-51000J0D01*
G01*
X184937400Y-111049000D01*
G75*
G02*
X184886400Y-110998000I0J51000D01*
G01*
X184886400Y-110642400D01*
G75*
G02*
X184937400Y-110591400I51000J0D01*
G01*
X186410600Y-110591400D01*
G75*
G02*
X186461600Y-110642400I0J-51000D01*
G01*
G37*
G36*
G01*
X186461600Y-109982000D02*
X186461600Y-110337600D01*
G75*
G02*
X186410600Y-110388600I-51000J0D01*
G01*
X184937400Y-110388600D01*
G75*
G02*
X184886400Y-110337600I0J51000D01*
G01*
X184886400Y-109982000D01*
G75*
G02*
X184937400Y-109931000I51000J0D01*
G01*
X186410600Y-109931000D01*
G75*
G02*
X186461600Y-109982000I0J-51000D01*
G01*
G37*
G36*
G01*
X186461600Y-109347000D02*
X186461600Y-109702600D01*
G75*
G02*
X186410600Y-109753600I-51000J0D01*
G01*
X184937400Y-109753600D01*
G75*
G02*
X184886400Y-109702600I0J51000D01*
G01*
X184886400Y-109347000D01*
G75*
G02*
X184937400Y-109296000I51000J0D01*
G01*
X186410600Y-109296000D01*
G75*
G02*
X186461600Y-109347000I0J-51000D01*
G01*
G37*
G36*
G01*
X186461600Y-108686600D02*
X186461600Y-109042200D01*
G75*
G02*
X186410600Y-109093200I-51000J0D01*
G01*
X184937400Y-109093200D01*
G75*
G02*
X184886400Y-109042200I0J51000D01*
G01*
X184886400Y-108686600D01*
G75*
G02*
X184937400Y-108635600I51000J0D01*
G01*
X186410600Y-108635600D01*
G75*
G02*
X186461600Y-108686600I0J-51000D01*
G01*
G37*
G36*
G01*
X186461600Y-108026200D02*
X186461600Y-108381800D01*
G75*
G02*
X186410600Y-108432800I-51000J0D01*
G01*
X184937400Y-108432800D01*
G75*
G02*
X184886400Y-108381800I0J51000D01*
G01*
X184886400Y-108026200D01*
G75*
G02*
X184937400Y-107975200I51000J0D01*
G01*
X186410600Y-107975200D01*
G75*
G02*
X186461600Y-108026200I0J-51000D01*
G01*
G37*
G36*
G01*
X186461600Y-107391200D02*
X186461600Y-107746800D01*
G75*
G02*
X186410600Y-107797800I-51000J0D01*
G01*
X184937400Y-107797800D01*
G75*
G02*
X184886400Y-107746800I0J51000D01*
G01*
X184886400Y-107391200D01*
G75*
G02*
X184937400Y-107340200I51000J0D01*
G01*
X186410600Y-107340200D01*
G75*
G02*
X186461600Y-107391200I0J-51000D01*
G01*
G37*
G36*
G01*
X186461600Y-106730800D02*
X186461600Y-107086400D01*
G75*
G02*
X186410600Y-107137400I-51000J0D01*
G01*
X184937400Y-107137400D01*
G75*
G02*
X184886400Y-107086400I0J51000D01*
G01*
X184886400Y-106730800D01*
G75*
G02*
X184937400Y-106679800I51000J0D01*
G01*
X186410600Y-106679800D01*
G75*
G02*
X186461600Y-106730800I0J-51000D01*
G01*
G37*
G36*
G01*
X180619600Y-106730800D02*
X180619600Y-107086400D01*
G75*
G02*
X180568600Y-107137400I-51000J0D01*
G01*
X179095400Y-107137400D01*
G75*
G02*
X179044400Y-107086400I0J51000D01*
G01*
X179044400Y-106730800D01*
G75*
G02*
X179095400Y-106679800I51000J0D01*
G01*
X180568600Y-106679800D01*
G75*
G02*
X180619600Y-106730800I0J-51000D01*
G01*
G37*
G36*
G01*
X180619600Y-107391200D02*
X180619600Y-107746800D01*
G75*
G02*
X180568600Y-107797800I-51000J0D01*
G01*
X179095400Y-107797800D01*
G75*
G02*
X179044400Y-107746800I0J51000D01*
G01*
X179044400Y-107391200D01*
G75*
G02*
X179095400Y-107340200I51000J0D01*
G01*
X180568600Y-107340200D01*
G75*
G02*
X180619600Y-107391200I0J-51000D01*
G01*
G37*
G36*
G01*
X180619600Y-108026200D02*
X180619600Y-108381800D01*
G75*
G02*
X180568600Y-108432800I-51000J0D01*
G01*
X179095400Y-108432800D01*
G75*
G02*
X179044400Y-108381800I0J51000D01*
G01*
X179044400Y-108026200D01*
G75*
G02*
X179095400Y-107975200I51000J0D01*
G01*
X180568600Y-107975200D01*
G75*
G02*
X180619600Y-108026200I0J-51000D01*
G01*
G37*
G36*
G01*
X180619600Y-108686600D02*
X180619600Y-109042200D01*
G75*
G02*
X180568600Y-109093200I-51000J0D01*
G01*
X179095400Y-109093200D01*
G75*
G02*
X179044400Y-109042200I0J51000D01*
G01*
X179044400Y-108686600D01*
G75*
G02*
X179095400Y-108635600I51000J0D01*
G01*
X180568600Y-108635600D01*
G75*
G02*
X180619600Y-108686600I0J-51000D01*
G01*
G37*
G36*
G01*
X180619600Y-109347000D02*
X180619600Y-109702600D01*
G75*
G02*
X180568600Y-109753600I-51000J0D01*
G01*
X179095400Y-109753600D01*
G75*
G02*
X179044400Y-109702600I0J51000D01*
G01*
X179044400Y-109347000D01*
G75*
G02*
X179095400Y-109296000I51000J0D01*
G01*
X180568600Y-109296000D01*
G75*
G02*
X180619600Y-109347000I0J-51000D01*
G01*
G37*
G36*
G01*
X180619600Y-109982000D02*
X180619600Y-110337600D01*
G75*
G02*
X180568600Y-110388600I-51000J0D01*
G01*
X179095400Y-110388600D01*
G75*
G02*
X179044400Y-110337600I0J51000D01*
G01*
X179044400Y-109982000D01*
G75*
G02*
X179095400Y-109931000I51000J0D01*
G01*
X180568600Y-109931000D01*
G75*
G02*
X180619600Y-109982000I0J-51000D01*
G01*
G37*
G36*
G01*
X180619600Y-110642400D02*
X180619600Y-110998000D01*
G75*
G02*
X180568600Y-111049000I-51000J0D01*
G01*
X179095400Y-111049000D01*
G75*
G02*
X179044400Y-110998000I0J51000D01*
G01*
X179044400Y-110642400D01*
G75*
G02*
X179095400Y-110591400I51000J0D01*
G01*
X180568600Y-110591400D01*
G75*
G02*
X180619600Y-110642400I0J-51000D01*
G01*
G37*
G36*
G01*
X180619600Y-111277400D02*
X180619600Y-111633000D01*
G75*
G02*
X180568600Y-111684000I-51000J0D01*
G01*
X179095400Y-111684000D01*
G75*
G02*
X179044400Y-111633000I0J51000D01*
G01*
X179044400Y-111277400D01*
G75*
G02*
X179095400Y-111226400I51000J0D01*
G01*
X180568600Y-111226400D01*
G75*
G02*
X180619600Y-111277400I0J-51000D01*
G01*
G37*
G36*
G01*
X180619600Y-111937800D02*
X180619600Y-112293400D01*
G75*
G02*
X180568600Y-112344400I-51000J0D01*
G01*
X179095400Y-112344400D01*
G75*
G02*
X179044400Y-112293400I0J51000D01*
G01*
X179044400Y-111937800D01*
G75*
G02*
X179095400Y-111886800I51000J0D01*
G01*
X180568600Y-111886800D01*
G75*
G02*
X180619600Y-111937800I0J-51000D01*
G01*
G37*
G36*
G01*
X180619600Y-112598200D02*
X180619600Y-112953800D01*
G75*
G02*
X180568600Y-113004800I-51000J0D01*
G01*
X179095400Y-113004800D01*
G75*
G02*
X179044400Y-112953800I0J51000D01*
G01*
X179044400Y-112598200D01*
G75*
G02*
X179095400Y-112547200I51000J0D01*
G01*
X180568600Y-112547200D01*
G75*
G02*
X180619600Y-112598200I0J-51000D01*
G01*
G37*
G36*
G01*
X180619600Y-113233200D02*
X180619600Y-113588800D01*
G75*
G02*
X180568600Y-113639800I-51000J0D01*
G01*
X179095400Y-113639800D01*
G75*
G02*
X179044400Y-113588800I0J51000D01*
G01*
X179044400Y-113233200D01*
G75*
G02*
X179095400Y-113182200I51000J0D01*
G01*
X180568600Y-113182200D01*
G75*
G02*
X180619600Y-113233200I0J-51000D01*
G01*
G37*
G36*
G01*
X180619600Y-113893600D02*
X180619600Y-114249200D01*
G75*
G02*
X180568600Y-114300200I-51000J0D01*
G01*
X179095400Y-114300200D01*
G75*
G02*
X179044400Y-114249200I0J51000D01*
G01*
X179044400Y-113893600D01*
G75*
G02*
X179095400Y-113842600I51000J0D01*
G01*
X180568600Y-113842600D01*
G75*
G02*
X180619600Y-113893600I0J-51000D01*
G01*
G37*
G36*
G01*
X131568298Y-75082000D02*
X130559702Y-75082000D01*
G75*
G02*
X130288000Y-74810298I0J271702D01*
G01*
X130288000Y-74076702D01*
G75*
G02*
X130559702Y-73805000I271702J0D01*
G01*
X131568298Y-73805000D01*
G75*
G02*
X131840000Y-74076702I0J-271702D01*
G01*
X131840000Y-74810298D01*
G75*
G02*
X131568298Y-75082000I-271702J0D01*
G01*
G37*
G36*
G01*
X131568298Y-73007000D02*
X130559702Y-73007000D01*
G75*
G02*
X130288000Y-72735298I0J271702D01*
G01*
X130288000Y-72001702D01*
G75*
G02*
X130559702Y-71730000I271702J0D01*
G01*
X131568298Y-71730000D01*
G75*
G02*
X131840000Y-72001702I0J-271702D01*
G01*
X131840000Y-72735298D01*
G75*
G02*
X131568298Y-73007000I-271702J0D01*
G01*
G37*
G36*
G01*
X136364298Y-80161000D02*
X135355702Y-80161000D01*
G75*
G02*
X135084000Y-79889298I0J271702D01*
G01*
X135084000Y-79155702D01*
G75*
G02*
X135355702Y-78884000I271702J0D01*
G01*
X136364298Y-78884000D01*
G75*
G02*
X136636000Y-79155702I0J-271702D01*
G01*
X136636000Y-79889298D01*
G75*
G02*
X136364298Y-80161000I-271702J0D01*
G01*
G37*
G36*
G01*
X136364298Y-82236000D02*
X135355702Y-82236000D01*
G75*
G02*
X135084000Y-81964298I0J271702D01*
G01*
X135084000Y-81230702D01*
G75*
G02*
X135355702Y-80959000I271702J0D01*
G01*
X136364298Y-80959000D01*
G75*
G02*
X136636000Y-81230702I0J-271702D01*
G01*
X136636000Y-81964298D01*
G75*
G02*
X136364298Y-82236000I-271702J0D01*
G01*
G37*
G36*
G01*
X138067000Y-73148298D02*
X138067000Y-72139702D01*
G75*
G02*
X138338702Y-71868000I271702J0D01*
G01*
X139072298Y-71868000D01*
G75*
G02*
X139344000Y-72139702I0J-271702D01*
G01*
X139344000Y-73148298D01*
G75*
G02*
X139072298Y-73420000I-271702J0D01*
G01*
X138338702Y-73420000D01*
G75*
G02*
X138067000Y-73148298I0J271702D01*
G01*
G37*
G36*
G01*
X135992000Y-73148298D02*
X135992000Y-72139702D01*
G75*
G02*
X136263702Y-71868000I271702J0D01*
G01*
X136997298Y-71868000D01*
G75*
G02*
X137269000Y-72139702I0J-271702D01*
G01*
X137269000Y-73148298D01*
G75*
G02*
X136997298Y-73420000I-271702J0D01*
G01*
X136263702Y-73420000D01*
G75*
G02*
X135992000Y-73148298I0J271702D01*
G01*
G37*
G36*
G01*
X162966000Y-76203702D02*
X162966000Y-77212298D01*
G75*
G02*
X162694298Y-77484000I-271702J0D01*
G01*
X161960702Y-77484000D01*
G75*
G02*
X161689000Y-77212298I0J271702D01*
G01*
X161689000Y-76203702D01*
G75*
G02*
X161960702Y-75932000I271702J0D01*
G01*
X162694298Y-75932000D01*
G75*
G02*
X162966000Y-76203702I0J-271702D01*
G01*
G37*
G36*
G01*
X160891000Y-76203702D02*
X160891000Y-77212298D01*
G75*
G02*
X160619298Y-77484000I-271702J0D01*
G01*
X159885702Y-77484000D01*
G75*
G02*
X159614000Y-77212298I0J271702D01*
G01*
X159614000Y-76203702D01*
G75*
G02*
X159885702Y-75932000I271702J0D01*
G01*
X160619298Y-75932000D01*
G75*
G02*
X160891000Y-76203702I0J-271702D01*
G01*
G37*
G36*
G01*
X155229100Y-127410102D02*
X155229100Y-128418698D01*
G75*
G02*
X154957398Y-128690400I-271702J0D01*
G01*
X154223802Y-128690400D01*
G75*
G02*
X153952100Y-128418698I0J271702D01*
G01*
X153952100Y-127410102D01*
G75*
G02*
X154223802Y-127138400I271702J0D01*
G01*
X154957398Y-127138400D01*
G75*
G02*
X155229100Y-127410102I0J-271702D01*
G01*
G37*
G36*
G01*
X157304100Y-127410102D02*
X157304100Y-128418698D01*
G75*
G02*
X157032398Y-128690400I-271702J0D01*
G01*
X156298802Y-128690400D01*
G75*
G02*
X156027100Y-128418698I0J271702D01*
G01*
X156027100Y-127410102D01*
G75*
G02*
X156298802Y-127138400I271702J0D01*
G01*
X157032398Y-127138400D01*
G75*
G02*
X157304100Y-127410102I0J-271702D01*
G01*
G37*
G36*
G01*
X154131758Y-107433500D02*
X151868242Y-107433500D01*
G75*
G02*
X151599000Y-107164258I0J269242D01*
G01*
X151599000Y-106275742D01*
G75*
G02*
X151868242Y-106006500I269242J0D01*
G01*
X154131758Y-106006500D01*
G75*
G02*
X154401000Y-106275742I0J-269242D01*
G01*
X154401000Y-107164258D01*
G75*
G02*
X154131758Y-107433500I-269242J0D01*
G01*
G37*
G36*
G01*
X154131758Y-110558500D02*
X151868242Y-110558500D01*
G75*
G02*
X151599000Y-110289258I0J269242D01*
G01*
X151599000Y-109400742D01*
G75*
G02*
X151868242Y-109131500I269242J0D01*
G01*
X154131758Y-109131500D01*
G75*
G02*
X154401000Y-109400742I0J-269242D01*
G01*
X154401000Y-110289258D01*
G75*
G02*
X154131758Y-110558500I-269242J0D01*
G01*
G37*
G36*
G01*
X150004298Y-109396000D02*
X148995702Y-109396000D01*
G75*
G02*
X148724000Y-109124298I0J271702D01*
G01*
X148724000Y-108390702D01*
G75*
G02*
X148995702Y-108119000I271702J0D01*
G01*
X150004298Y-108119000D01*
G75*
G02*
X150276000Y-108390702I0J-271702D01*
G01*
X150276000Y-109124298D01*
G75*
G02*
X150004298Y-109396000I-271702J0D01*
G01*
G37*
G36*
G01*
X150004298Y-107321000D02*
X148995702Y-107321000D01*
G75*
G02*
X148724000Y-107049298I0J271702D01*
G01*
X148724000Y-106315702D01*
G75*
G02*
X148995702Y-106044000I271702J0D01*
G01*
X150004298Y-106044000D01*
G75*
G02*
X150276000Y-106315702I0J-271702D01*
G01*
X150276000Y-107049298D01*
G75*
G02*
X150004298Y-107321000I-271702J0D01*
G01*
G37*
G36*
G01*
X148849000Y-104900500D02*
X148849000Y-104539500D01*
G75*
G02*
X149029500Y-104359000I180500J0D01*
G01*
X149505500Y-104359000D01*
G75*
G02*
X149686000Y-104539500I0J-180500D01*
G01*
X149686000Y-104900500D01*
G75*
G02*
X149505500Y-105081000I-180500J0D01*
G01*
X149029500Y-105081000D01*
G75*
G02*
X148849000Y-104900500I0J180500D01*
G01*
G37*
G36*
G01*
X147714000Y-104900500D02*
X147714000Y-104539500D01*
G75*
G02*
X147894500Y-104359000I180500J0D01*
G01*
X148370500Y-104359000D01*
G75*
G02*
X148551000Y-104539500I0J-180500D01*
G01*
X148551000Y-104900500D01*
G75*
G02*
X148370500Y-105081000I-180500J0D01*
G01*
X147894500Y-105081000D01*
G75*
G02*
X147714000Y-104900500I0J180500D01*
G01*
G37*
G36*
G01*
X147714000Y-103100500D02*
X147714000Y-102739500D01*
G75*
G02*
X147894500Y-102559000I180500J0D01*
G01*
X148370500Y-102559000D01*
G75*
G02*
X148551000Y-102739500I0J-180500D01*
G01*
X148551000Y-103100500D01*
G75*
G02*
X148370500Y-103281000I-180500J0D01*
G01*
X147894500Y-103281000D01*
G75*
G02*
X147714000Y-103100500I0J180500D01*
G01*
G37*
G36*
G01*
X148849000Y-103100500D02*
X148849000Y-102739500D01*
G75*
G02*
X149029500Y-102559000I180500J0D01*
G01*
X149505500Y-102559000D01*
G75*
G02*
X149686000Y-102739500I0J-180500D01*
G01*
X149686000Y-103100500D01*
G75*
G02*
X149505500Y-103281000I-180500J0D01*
G01*
X149029500Y-103281000D01*
G75*
G02*
X148849000Y-103100500I0J180500D01*
G01*
G37*
G36*
G01*
X125402500Y-91156000D02*
X125041500Y-91156000D01*
G75*
G02*
X124861000Y-90975500I0J180500D01*
G01*
X124861000Y-90499500D01*
G75*
G02*
X125041500Y-90319000I180500J0D01*
G01*
X125402500Y-90319000D01*
G75*
G02*
X125583000Y-90499500I0J-180500D01*
G01*
X125583000Y-90975500D01*
G75*
G02*
X125402500Y-91156000I-180500J0D01*
G01*
G37*
G36*
G01*
X125402500Y-90021000D02*
X125041500Y-90021000D01*
G75*
G02*
X124861000Y-89840500I0J180500D01*
G01*
X124861000Y-89364500D01*
G75*
G02*
X125041500Y-89184000I180500J0D01*
G01*
X125402500Y-89184000D01*
G75*
G02*
X125583000Y-89364500I0J-180500D01*
G01*
X125583000Y-89840500D01*
G75*
G02*
X125402500Y-90021000I-180500J0D01*
G01*
G37*
G36*
G01*
X141691000Y-83355702D02*
X141691000Y-84364298D01*
G75*
G02*
X141419298Y-84636000I-271702J0D01*
G01*
X140685702Y-84636000D01*
G75*
G02*
X140414000Y-84364298I0J271702D01*
G01*
X140414000Y-83355702D01*
G75*
G02*
X140685702Y-83084000I271702J0D01*
G01*
X141419298Y-83084000D01*
G75*
G02*
X141691000Y-83355702I0J-271702D01*
G01*
G37*
G36*
G01*
X143766000Y-83355702D02*
X143766000Y-84364298D01*
G75*
G02*
X143494298Y-84636000I-271702J0D01*
G01*
X142760702Y-84636000D01*
G75*
G02*
X142489000Y-84364298I0J271702D01*
G01*
X142489000Y-83355702D01*
G75*
G02*
X142760702Y-83084000I271702J0D01*
G01*
X143494298Y-83084000D01*
G75*
G02*
X143766000Y-83355702I0J-271702D01*
G01*
G37*
G36*
G01*
X139350500Y-84946000D02*
X138989500Y-84946000D01*
G75*
G02*
X138809000Y-84765500I0J180500D01*
G01*
X138809000Y-84289500D01*
G75*
G02*
X138989500Y-84109000I180500J0D01*
G01*
X139350500Y-84109000D01*
G75*
G02*
X139531000Y-84289500I0J-180500D01*
G01*
X139531000Y-84765500D01*
G75*
G02*
X139350500Y-84946000I-180500J0D01*
G01*
G37*
G36*
G01*
X139350500Y-83811000D02*
X138989500Y-83811000D01*
G75*
G02*
X138809000Y-83630500I0J180500D01*
G01*
X138809000Y-83154500D01*
G75*
G02*
X138989500Y-82974000I180500J0D01*
G01*
X139350500Y-82974000D01*
G75*
G02*
X139531000Y-83154500I0J-180500D01*
G01*
X139531000Y-83630500D01*
G75*
G02*
X139350500Y-83811000I-180500J0D01*
G01*
G37*
G36*
G01*
X138159500Y-100404000D02*
X138520500Y-100404000D01*
G75*
G02*
X138701000Y-100584500I0J-180500D01*
G01*
X138701000Y-101060500D01*
G75*
G02*
X138520500Y-101241000I-180500J0D01*
G01*
X138159500Y-101241000D01*
G75*
G02*
X137979000Y-101060500I0J180500D01*
G01*
X137979000Y-100584500D01*
G75*
G02*
X138159500Y-100404000I180500J0D01*
G01*
G37*
G36*
G01*
X138159500Y-101539000D02*
X138520500Y-101539000D01*
G75*
G02*
X138701000Y-101719500I0J-180500D01*
G01*
X138701000Y-102195500D01*
G75*
G02*
X138520500Y-102376000I-180500J0D01*
G01*
X138159500Y-102376000D01*
G75*
G02*
X137979000Y-102195500I0J180500D01*
G01*
X137979000Y-101719500D01*
G75*
G02*
X138159500Y-101539000I180500J0D01*
G01*
G37*
G36*
G01*
X134991000Y-100695702D02*
X134991000Y-101704298D01*
G75*
G02*
X134719298Y-101976000I-271702J0D01*
G01*
X133985702Y-101976000D01*
G75*
G02*
X133714000Y-101704298I0J271702D01*
G01*
X133714000Y-100695702D01*
G75*
G02*
X133985702Y-100424000I271702J0D01*
G01*
X134719298Y-100424000D01*
G75*
G02*
X134991000Y-100695702I0J-271702D01*
G01*
G37*
G36*
G01*
X137066000Y-100695702D02*
X137066000Y-101704298D01*
G75*
G02*
X136794298Y-101976000I-271702J0D01*
G01*
X136060702Y-101976000D01*
G75*
G02*
X135789000Y-101704298I0J271702D01*
G01*
X135789000Y-100695702D01*
G75*
G02*
X136060702Y-100424000I271702J0D01*
G01*
X136794298Y-100424000D01*
G75*
G02*
X137066000Y-100695702I0J-271702D01*
G01*
G37*
G36*
G01*
X188032498Y-70029700D02*
X187023902Y-70029700D01*
G75*
G02*
X186752200Y-69757998I0J271702D01*
G01*
X186752200Y-69024402D01*
G75*
G02*
X187023902Y-68752700I271702J0D01*
G01*
X188032498Y-68752700D01*
G75*
G02*
X188304200Y-69024402I0J-271702D01*
G01*
X188304200Y-69757998D01*
G75*
G02*
X188032498Y-70029700I-271702J0D01*
G01*
G37*
G36*
G01*
X188032498Y-67954700D02*
X187023902Y-67954700D01*
G75*
G02*
X186752200Y-67682998I0J271702D01*
G01*
X186752200Y-66949402D01*
G75*
G02*
X187023902Y-66677700I271702J0D01*
G01*
X188032498Y-66677700D01*
G75*
G02*
X188304200Y-66949402I0J-271702D01*
G01*
X188304200Y-67682998D01*
G75*
G02*
X188032498Y-67954700I-271702J0D01*
G01*
G37*
G36*
G01*
X190953498Y-67930900D02*
X189944902Y-67930900D01*
G75*
G02*
X189673200Y-67659198I0J271702D01*
G01*
X189673200Y-66925602D01*
G75*
G02*
X189944902Y-66653900I271702J0D01*
G01*
X190953498Y-66653900D01*
G75*
G02*
X191225200Y-66925602I0J-271702D01*
G01*
X191225200Y-67659198D01*
G75*
G02*
X190953498Y-67930900I-271702J0D01*
G01*
G37*
G36*
G01*
X190953498Y-70005900D02*
X189944902Y-70005900D01*
G75*
G02*
X189673200Y-69734198I0J271702D01*
G01*
X189673200Y-69000602D01*
G75*
G02*
X189944902Y-68728900I271702J0D01*
G01*
X190953498Y-68728900D01*
G75*
G02*
X191225200Y-69000602I0J-271702D01*
G01*
X191225200Y-69734198D01*
G75*
G02*
X190953498Y-70005900I-271702J0D01*
G01*
G37*
G36*
G01*
X175877000Y-80521702D02*
X175877000Y-81530298D01*
G75*
G02*
X175605298Y-81802000I-271702J0D01*
G01*
X174871702Y-81802000D01*
G75*
G02*
X174600000Y-81530298I0J271702D01*
G01*
X174600000Y-80521702D01*
G75*
G02*
X174871702Y-80250000I271702J0D01*
G01*
X175605298Y-80250000D01*
G75*
G02*
X175877000Y-80521702I0J-271702D01*
G01*
G37*
G36*
G01*
X177952000Y-80521702D02*
X177952000Y-81530298D01*
G75*
G02*
X177680298Y-81802000I-271702J0D01*
G01*
X176946702Y-81802000D01*
G75*
G02*
X176675000Y-81530298I0J271702D01*
G01*
X176675000Y-80521702D01*
G75*
G02*
X176946702Y-80250000I271702J0D01*
G01*
X177680298Y-80250000D01*
G75*
G02*
X177952000Y-80521702I0J-271702D01*
G01*
G37*
G36*
G01*
X175369000Y-111509702D02*
X175369000Y-112518298D01*
G75*
G02*
X175097298Y-112790000I-271702J0D01*
G01*
X174363702Y-112790000D01*
G75*
G02*
X174092000Y-112518298I0J271702D01*
G01*
X174092000Y-111509702D01*
G75*
G02*
X174363702Y-111238000I271702J0D01*
G01*
X175097298Y-111238000D01*
G75*
G02*
X175369000Y-111509702I0J-271702D01*
G01*
G37*
G36*
G01*
X177444000Y-111509702D02*
X177444000Y-112518298D01*
G75*
G02*
X177172298Y-112790000I-271702J0D01*
G01*
X176438702Y-112790000D01*
G75*
G02*
X176167000Y-112518298I0J271702D01*
G01*
X176167000Y-111509702D01*
G75*
G02*
X176438702Y-111238000I271702J0D01*
G01*
X177172298Y-111238000D01*
G75*
G02*
X177444000Y-111509702I0J-271702D01*
G01*
G37*
G36*
G01*
X177262000Y-83131500D02*
X177262000Y-83492500D01*
G75*
G02*
X177081500Y-83673000I-180500J0D01*
G01*
X176605500Y-83673000D01*
G75*
G02*
X176425000Y-83492500I0J180500D01*
G01*
X176425000Y-83131500D01*
G75*
G02*
X176605500Y-82951000I180500J0D01*
G01*
X177081500Y-82951000D01*
G75*
G02*
X177262000Y-83131500I0J-180500D01*
G01*
G37*
G36*
G01*
X176127000Y-83131500D02*
X176127000Y-83492500D01*
G75*
G02*
X175946500Y-83673000I-180500J0D01*
G01*
X175470500Y-83673000D01*
G75*
G02*
X175290000Y-83492500I0J180500D01*
G01*
X175290000Y-83131500D01*
G75*
G02*
X175470500Y-82951000I180500J0D01*
G01*
X175946500Y-82951000D01*
G75*
G02*
X176127000Y-83131500I0J-180500D01*
G01*
G37*
G36*
G01*
X175619000Y-114119500D02*
X175619000Y-114480500D01*
G75*
G02*
X175438500Y-114661000I-180500J0D01*
G01*
X174962500Y-114661000D01*
G75*
G02*
X174782000Y-114480500I0J180500D01*
G01*
X174782000Y-114119500D01*
G75*
G02*
X174962500Y-113939000I180500J0D01*
G01*
X175438500Y-113939000D01*
G75*
G02*
X175619000Y-114119500I0J-180500D01*
G01*
G37*
G36*
G01*
X176754000Y-114119500D02*
X176754000Y-114480500D01*
G75*
G02*
X176573500Y-114661000I-180500J0D01*
G01*
X176097500Y-114661000D01*
G75*
G02*
X175917000Y-114480500I0J180500D01*
G01*
X175917000Y-114119500D01*
G75*
G02*
X176097500Y-113939000I180500J0D01*
G01*
X176573500Y-113939000D01*
G75*
G02*
X176754000Y-114119500I0J-180500D01*
G01*
G37*
G36*
G01*
X185644000Y-115135500D02*
X185644000Y-115496500D01*
G75*
G02*
X185463500Y-115677000I-180500J0D01*
G01*
X184987500Y-115677000D01*
G75*
G02*
X184807000Y-115496500I0J180500D01*
G01*
X184807000Y-115135500D01*
G75*
G02*
X184987500Y-114955000I180500J0D01*
G01*
X185463500Y-114955000D01*
G75*
G02*
X185644000Y-115135500I0J-180500D01*
G01*
G37*
G36*
G01*
X184509000Y-115135500D02*
X184509000Y-115496500D01*
G75*
G02*
X184328500Y-115677000I-180500J0D01*
G01*
X183852500Y-115677000D01*
G75*
G02*
X183672000Y-115496500I0J180500D01*
G01*
X183672000Y-115135500D01*
G75*
G02*
X183852500Y-114955000I180500J0D01*
G01*
X184328500Y-114955000D01*
G75*
G02*
X184509000Y-115135500I0J-180500D01*
G01*
G37*
G36*
G01*
X179575000Y-117935000D02*
X179049000Y-117935000D01*
G75*
G02*
X178786000Y-117672000I0J263000D01*
G01*
X178786000Y-117046000D01*
G75*
G02*
X179049000Y-116783000I263000J0D01*
G01*
X179575000Y-116783000D01*
G75*
G02*
X179838000Y-117046000I0J-263000D01*
G01*
X179838000Y-117672000D01*
G75*
G02*
X179575000Y-117935000I-263000J0D01*
G01*
G37*
G36*
G01*
X179575000Y-119685000D02*
X179049000Y-119685000D01*
G75*
G02*
X178786000Y-119422000I0J263000D01*
G01*
X178786000Y-118796000D01*
G75*
G02*
X179049000Y-118533000I263000J0D01*
G01*
X179575000Y-118533000D01*
G75*
G02*
X179838000Y-118796000I0J-263000D01*
G01*
X179838000Y-119422000D01*
G75*
G02*
X179575000Y-119685000I-263000J0D01*
G01*
G37*
G36*
G01*
X133349000Y-129721000D02*
X133349000Y-129195000D01*
G75*
G02*
X133612000Y-128932000I263000J0D01*
G01*
X134238000Y-128932000D01*
G75*
G02*
X134501000Y-129195000I0J-263000D01*
G01*
X134501000Y-129721000D01*
G75*
G02*
X134238000Y-129984000I-263000J0D01*
G01*
X133612000Y-129984000D01*
G75*
G02*
X133349000Y-129721000I0J263000D01*
G01*
G37*
G36*
G01*
X135099000Y-129721000D02*
X135099000Y-129195000D01*
G75*
G02*
X135362000Y-128932000I263000J0D01*
G01*
X135988000Y-128932000D01*
G75*
G02*
X136251000Y-129195000I0J-263000D01*
G01*
X136251000Y-129721000D01*
G75*
G02*
X135988000Y-129984000I-263000J0D01*
G01*
X135362000Y-129984000D01*
G75*
G02*
X135099000Y-129721000I0J263000D01*
G01*
G37*
G36*
G01*
X133329000Y-127221000D02*
X133329000Y-126695000D01*
G75*
G02*
X133592000Y-126432000I263000J0D01*
G01*
X134218000Y-126432000D01*
G75*
G02*
X134481000Y-126695000I0J-263000D01*
G01*
X134481000Y-127221000D01*
G75*
G02*
X134218000Y-127484000I-263000J0D01*
G01*
X133592000Y-127484000D01*
G75*
G02*
X133329000Y-127221000I0J263000D01*
G01*
G37*
G36*
G01*
X135079000Y-127221000D02*
X135079000Y-126695000D01*
G75*
G02*
X135342000Y-126432000I263000J0D01*
G01*
X135968000Y-126432000D01*
G75*
G02*
X136231000Y-126695000I0J-263000D01*
G01*
X136231000Y-127221000D01*
G75*
G02*
X135968000Y-127484000I-263000J0D01*
G01*
X135342000Y-127484000D01*
G75*
G02*
X135079000Y-127221000I0J263000D01*
G01*
G37*
G36*
G01*
X135079000Y-124621000D02*
X135079000Y-124095000D01*
G75*
G02*
X135342000Y-123832000I263000J0D01*
G01*
X135968000Y-123832000D01*
G75*
G02*
X136231000Y-124095000I0J-263000D01*
G01*
X136231000Y-124621000D01*
G75*
G02*
X135968000Y-124884000I-263000J0D01*
G01*
X135342000Y-124884000D01*
G75*
G02*
X135079000Y-124621000I0J263000D01*
G01*
G37*
G36*
G01*
X133329000Y-124621000D02*
X133329000Y-124095000D01*
G75*
G02*
X133592000Y-123832000I263000J0D01*
G01*
X134218000Y-123832000D01*
G75*
G02*
X134481000Y-124095000I0J-263000D01*
G01*
X134481000Y-124621000D01*
G75*
G02*
X134218000Y-124884000I-263000J0D01*
G01*
X133592000Y-124884000D01*
G75*
G02*
X133329000Y-124621000I0J263000D01*
G01*
G37*
G36*
G01*
X135069000Y-122091000D02*
X135069000Y-121565000D01*
G75*
G02*
X135332000Y-121302000I263000J0D01*
G01*
X135958000Y-121302000D01*
G75*
G02*
X136221000Y-121565000I0J-263000D01*
G01*
X136221000Y-122091000D01*
G75*
G02*
X135958000Y-122354000I-263000J0D01*
G01*
X135332000Y-122354000D01*
G75*
G02*
X135069000Y-122091000I0J263000D01*
G01*
G37*
G36*
G01*
X133319000Y-122091000D02*
X133319000Y-121565000D01*
G75*
G02*
X133582000Y-121302000I263000J0D01*
G01*
X134208000Y-121302000D01*
G75*
G02*
X134471000Y-121565000I0J-263000D01*
G01*
X134471000Y-122091000D01*
G75*
G02*
X134208000Y-122354000I-263000J0D01*
G01*
X133582000Y-122354000D01*
G75*
G02*
X133319000Y-122091000I0J263000D01*
G01*
G37*
G36*
G01*
X133319000Y-119531000D02*
X133319000Y-119005000D01*
G75*
G02*
X133582000Y-118742000I263000J0D01*
G01*
X134208000Y-118742000D01*
G75*
G02*
X134471000Y-119005000I0J-263000D01*
G01*
X134471000Y-119531000D01*
G75*
G02*
X134208000Y-119794000I-263000J0D01*
G01*
X133582000Y-119794000D01*
G75*
G02*
X133319000Y-119531000I0J263000D01*
G01*
G37*
G36*
G01*
X135069000Y-119531000D02*
X135069000Y-119005000D01*
G75*
G02*
X135332000Y-118742000I263000J0D01*
G01*
X135958000Y-118742000D01*
G75*
G02*
X136221000Y-119005000I0J-263000D01*
G01*
X136221000Y-119531000D01*
G75*
G02*
X135958000Y-119794000I-263000J0D01*
G01*
X135332000Y-119794000D01*
G75*
G02*
X135069000Y-119531000I0J263000D01*
G01*
G37*
G36*
G01*
X133319000Y-117051000D02*
X133319000Y-116525000D01*
G75*
G02*
X133582000Y-116262000I263000J0D01*
G01*
X134208000Y-116262000D01*
G75*
G02*
X134471000Y-116525000I0J-263000D01*
G01*
X134471000Y-117051000D01*
G75*
G02*
X134208000Y-117314000I-263000J0D01*
G01*
X133582000Y-117314000D01*
G75*
G02*
X133319000Y-117051000I0J263000D01*
G01*
G37*
G36*
G01*
X135069000Y-117051000D02*
X135069000Y-116525000D01*
G75*
G02*
X135332000Y-116262000I263000J0D01*
G01*
X135958000Y-116262000D01*
G75*
G02*
X136221000Y-116525000I0J-263000D01*
G01*
X136221000Y-117051000D01*
G75*
G02*
X135958000Y-117314000I-263000J0D01*
G01*
X135332000Y-117314000D01*
G75*
G02*
X135069000Y-117051000I0J263000D01*
G01*
G37*
G36*
G01*
X133309000Y-114481000D02*
X133309000Y-113955000D01*
G75*
G02*
X133572000Y-113692000I263000J0D01*
G01*
X134198000Y-113692000D01*
G75*
G02*
X134461000Y-113955000I0J-263000D01*
G01*
X134461000Y-114481000D01*
G75*
G02*
X134198000Y-114744000I-263000J0D01*
G01*
X133572000Y-114744000D01*
G75*
G02*
X133309000Y-114481000I0J263000D01*
G01*
G37*
G36*
G01*
X135059000Y-114481000D02*
X135059000Y-113955000D01*
G75*
G02*
X135322000Y-113692000I263000J0D01*
G01*
X135948000Y-113692000D01*
G75*
G02*
X136211000Y-113955000I0J-263000D01*
G01*
X136211000Y-114481000D01*
G75*
G02*
X135948000Y-114744000I-263000J0D01*
G01*
X135322000Y-114744000D01*
G75*
G02*
X135059000Y-114481000I0J263000D01*
G01*
G37*
G36*
G01*
X135059000Y-111951000D02*
X135059000Y-111425000D01*
G75*
G02*
X135322000Y-111162000I263000J0D01*
G01*
X135948000Y-111162000D01*
G75*
G02*
X136211000Y-111425000I0J-263000D01*
G01*
X136211000Y-111951000D01*
G75*
G02*
X135948000Y-112214000I-263000J0D01*
G01*
X135322000Y-112214000D01*
G75*
G02*
X135059000Y-111951000I0J263000D01*
G01*
G37*
G36*
G01*
X133309000Y-111951000D02*
X133309000Y-111425000D01*
G75*
G02*
X133572000Y-111162000I263000J0D01*
G01*
X134198000Y-111162000D01*
G75*
G02*
X134461000Y-111425000I0J-263000D01*
G01*
X134461000Y-111951000D01*
G75*
G02*
X134198000Y-112214000I-263000J0D01*
G01*
X133572000Y-112214000D01*
G75*
G02*
X133309000Y-111951000I0J263000D01*
G01*
G37*
G36*
G01*
X153926300Y-133372552D02*
X153926300Y-132413048D01*
G75*
G02*
X154197548Y-132141800I271248J0D01*
G01*
X154957052Y-132141800D01*
G75*
G02*
X155228300Y-132413048I0J-271248D01*
G01*
X155228300Y-133372552D01*
G75*
G02*
X154957052Y-133643800I-271248J0D01*
G01*
X154197548Y-133643800D01*
G75*
G02*
X153926300Y-133372552I0J271248D01*
G01*
G37*
G36*
G01*
X155926300Y-133372552D02*
X155926300Y-132413048D01*
G75*
G02*
X156197548Y-132141800I271248J0D01*
G01*
X156957052Y-132141800D01*
G75*
G02*
X157228300Y-132413048I0J-271248D01*
G01*
X157228300Y-133372552D01*
G75*
G02*
X156957052Y-133643800I-271248J0D01*
G01*
X156197548Y-133643800D01*
G75*
G02*
X155926300Y-133372552I0J271248D01*
G01*
G37*
G36*
G01*
X155302200Y-129771448D02*
X155302200Y-130730952D01*
G75*
G02*
X155030952Y-131002200I-271248J0D01*
G01*
X154271448Y-131002200D01*
G75*
G02*
X154000200Y-130730952I0J271248D01*
G01*
X154000200Y-129771448D01*
G75*
G02*
X154271448Y-129500200I271248J0D01*
G01*
X155030952Y-129500200D01*
G75*
G02*
X155302200Y-129771448I0J-271248D01*
G01*
G37*
G36*
G01*
X157302200Y-129771448D02*
X157302200Y-130730952D01*
G75*
G02*
X157030952Y-131002200I-271248J0D01*
G01*
X156271448Y-131002200D01*
G75*
G02*
X156000200Y-130730952I0J271248D01*
G01*
X156000200Y-129771448D01*
G75*
G02*
X156271448Y-129500200I271248J0D01*
G01*
X157030952Y-129500200D01*
G75*
G02*
X157302200Y-129771448I0J-271248D01*
G01*
G37*
G36*
G01*
X128143000Y-104168248D02*
X128143000Y-105127752D01*
G75*
G02*
X127871752Y-105399000I-271248J0D01*
G01*
X127112248Y-105399000D01*
G75*
G02*
X126841000Y-105127752I0J271248D01*
G01*
X126841000Y-104168248D01*
G75*
G02*
X127112248Y-103897000I271248J0D01*
G01*
X127871752Y-103897000D01*
G75*
G02*
X128143000Y-104168248I0J-271248D01*
G01*
G37*
G36*
G01*
X126143000Y-104168248D02*
X126143000Y-105127752D01*
G75*
G02*
X125871752Y-105399000I-271248J0D01*
G01*
X125112248Y-105399000D01*
G75*
G02*
X124841000Y-105127752I0J271248D01*
G01*
X124841000Y-104168248D01*
G75*
G02*
X125112248Y-103897000I271248J0D01*
G01*
X125871752Y-103897000D01*
G75*
G02*
X126143000Y-104168248I0J-271248D01*
G01*
G37*
G36*
G01*
X125889000Y-98072248D02*
X125889000Y-99031752D01*
G75*
G02*
X125617752Y-99303000I-271248J0D01*
G01*
X124858248Y-99303000D01*
G75*
G02*
X124587000Y-99031752I0J271248D01*
G01*
X124587000Y-98072248D01*
G75*
G02*
X124858248Y-97801000I271248J0D01*
G01*
X125617752Y-97801000D01*
G75*
G02*
X125889000Y-98072248I0J-271248D01*
G01*
G37*
G36*
G01*
X127889000Y-98072248D02*
X127889000Y-99031752D01*
G75*
G02*
X127617752Y-99303000I-271248J0D01*
G01*
X126858248Y-99303000D01*
G75*
G02*
X126587000Y-99031752I0J271248D01*
G01*
X126587000Y-98072248D01*
G75*
G02*
X126858248Y-97801000I271248J0D01*
G01*
X127617752Y-97801000D01*
G75*
G02*
X127889000Y-98072248I0J-271248D01*
G01*
G37*
G36*
G01*
X127889000Y-93500248D02*
X127889000Y-94459752D01*
G75*
G02*
X127617752Y-94731000I-271248J0D01*
G01*
X126858248Y-94731000D01*
G75*
G02*
X126587000Y-94459752I0J271248D01*
G01*
X126587000Y-93500248D01*
G75*
G02*
X126858248Y-93229000I271248J0D01*
G01*
X127617752Y-93229000D01*
G75*
G02*
X127889000Y-93500248I0J-271248D01*
G01*
G37*
G36*
G01*
X125889000Y-93500248D02*
X125889000Y-94459752D01*
G75*
G02*
X125617752Y-94731000I-271248J0D01*
G01*
X124858248Y-94731000D01*
G75*
G02*
X124587000Y-94459752I0J271248D01*
G01*
X124587000Y-93500248D01*
G75*
G02*
X124858248Y-93229000I271248J0D01*
G01*
X125617752Y-93229000D01*
G75*
G02*
X125889000Y-93500248I0J-271248D01*
G01*
G37*
G36*
G01*
X148269000Y-101679752D02*
X148269000Y-100720248D01*
G75*
G02*
X148540248Y-100449000I271248J0D01*
G01*
X149299752Y-100449000D01*
G75*
G02*
X149571000Y-100720248I0J-271248D01*
G01*
X149571000Y-101679752D01*
G75*
G02*
X149299752Y-101951000I-271248J0D01*
G01*
X148540248Y-101951000D01*
G75*
G02*
X148269000Y-101679752I0J271248D01*
G01*
G37*
G36*
G01*
X146269000Y-101679752D02*
X146269000Y-100720248D01*
G75*
G02*
X146540248Y-100449000I271248J0D01*
G01*
X147299752Y-100449000D01*
G75*
G02*
X147571000Y-100720248I0J-271248D01*
G01*
X147571000Y-101679752D01*
G75*
G02*
X147299752Y-101951000I-271248J0D01*
G01*
X146540248Y-101951000D01*
G75*
G02*
X146269000Y-101679752I0J271248D01*
G01*
G37*
G36*
G01*
X177643000Y-119154248D02*
X177643000Y-120113752D01*
G75*
G02*
X177371752Y-120385000I-271248J0D01*
G01*
X176612248Y-120385000D01*
G75*
G02*
X176341000Y-120113752I0J271248D01*
G01*
X176341000Y-119154248D01*
G75*
G02*
X176612248Y-118883000I271248J0D01*
G01*
X177371752Y-118883000D01*
G75*
G02*
X177643000Y-119154248I0J-271248D01*
G01*
G37*
G36*
G01*
X175643000Y-119154248D02*
X175643000Y-120113752D01*
G75*
G02*
X175371752Y-120385000I-271248J0D01*
G01*
X174612248Y-120385000D01*
G75*
G02*
X174341000Y-120113752I0J271248D01*
G01*
X174341000Y-119154248D01*
G75*
G02*
X174612248Y-118883000I271248J0D01*
G01*
X175371752Y-118883000D01*
G75*
G02*
X175643000Y-119154248I0J-271248D01*
G01*
G37*
G36*
G01*
X175703000Y-116024248D02*
X175703000Y-116983752D01*
G75*
G02*
X175431752Y-117255000I-271248J0D01*
G01*
X174672248Y-117255000D01*
G75*
G02*
X174401000Y-116983752I0J271248D01*
G01*
X174401000Y-116024248D01*
G75*
G02*
X174672248Y-115753000I271248J0D01*
G01*
X175431752Y-115753000D01*
G75*
G02*
X175703000Y-116024248I0J-271248D01*
G01*
G37*
G36*
G01*
X177703000Y-116024248D02*
X177703000Y-116983752D01*
G75*
G02*
X177431752Y-117255000I-271248J0D01*
G01*
X176672248Y-117255000D01*
G75*
G02*
X176401000Y-116983752I0J271248D01*
G01*
X176401000Y-116024248D01*
G75*
G02*
X176672248Y-115753000I271248J0D01*
G01*
X177431752Y-115753000D01*
G75*
G02*
X177703000Y-116024248I0J-271248D01*
G01*
G37*
G36*
G01*
X177403000Y-72418248D02*
X177403000Y-73377752D01*
G75*
G02*
X177131752Y-73649000I-271248J0D01*
G01*
X176372248Y-73649000D01*
G75*
G02*
X176101000Y-73377752I0J271248D01*
G01*
X176101000Y-72418248D01*
G75*
G02*
X176372248Y-72147000I271248J0D01*
G01*
X177131752Y-72147000D01*
G75*
G02*
X177403000Y-72418248I0J-271248D01*
G01*
G37*
G36*
G01*
X175403000Y-72418248D02*
X175403000Y-73377752D01*
G75*
G02*
X175131752Y-73649000I-271248J0D01*
G01*
X174372248Y-73649000D01*
G75*
G02*
X174101000Y-73377752I0J271248D01*
G01*
X174101000Y-72418248D01*
G75*
G02*
X174372248Y-72147000I271248J0D01*
G01*
X175131752Y-72147000D01*
G75*
G02*
X175403000Y-72418248I0J-271248D01*
G01*
G37*
G36*
G01*
X174369000Y-135269752D02*
X174369000Y-134310248D01*
G75*
G02*
X174640248Y-134039000I271248J0D01*
G01*
X175399752Y-134039000D01*
G75*
G02*
X175671000Y-134310248I0J-271248D01*
G01*
X175671000Y-135269752D01*
G75*
G02*
X175399752Y-135541000I-271248J0D01*
G01*
X174640248Y-135541000D01*
G75*
G02*
X174369000Y-135269752I0J271248D01*
G01*
G37*
G36*
G01*
X176369000Y-135269752D02*
X176369000Y-134310248D01*
G75*
G02*
X176640248Y-134039000I271248J0D01*
G01*
X177399752Y-134039000D01*
G75*
G02*
X177671000Y-134310248I0J-271248D01*
G01*
X177671000Y-135269752D01*
G75*
G02*
X177399752Y-135541000I-271248J0D01*
G01*
X176640248Y-135541000D01*
G75*
G02*
X176369000Y-135269752I0J271248D01*
G01*
G37*
G36*
G01*
X176349000Y-132439752D02*
X176349000Y-131480248D01*
G75*
G02*
X176620248Y-131209000I271248J0D01*
G01*
X177379752Y-131209000D01*
G75*
G02*
X177651000Y-131480248I0J-271248D01*
G01*
X177651000Y-132439752D01*
G75*
G02*
X177379752Y-132711000I-271248J0D01*
G01*
X176620248Y-132711000D01*
G75*
G02*
X176349000Y-132439752I0J271248D01*
G01*
G37*
G36*
G01*
X174349000Y-132439752D02*
X174349000Y-131480248D01*
G75*
G02*
X174620248Y-131209000I271248J0D01*
G01*
X175379752Y-131209000D01*
G75*
G02*
X175651000Y-131480248I0J-271248D01*
G01*
X175651000Y-132439752D01*
G75*
G02*
X175379752Y-132711000I-271248J0D01*
G01*
X174620248Y-132711000D01*
G75*
G02*
X174349000Y-132439752I0J271248D01*
G01*
G37*
G36*
G01*
X138169200Y-129860352D02*
X138169200Y-128900848D01*
G75*
G02*
X138440448Y-128629600I271248J0D01*
G01*
X139199952Y-128629600D01*
G75*
G02*
X139471200Y-128900848I0J-271248D01*
G01*
X139471200Y-129860352D01*
G75*
G02*
X139199952Y-130131600I-271248J0D01*
G01*
X138440448Y-130131600D01*
G75*
G02*
X138169200Y-129860352I0J271248D01*
G01*
G37*
G36*
G01*
X140169200Y-129860352D02*
X140169200Y-128900848D01*
G75*
G02*
X140440448Y-128629600I271248J0D01*
G01*
X141199952Y-128629600D01*
G75*
G02*
X141471200Y-128900848I0J-271248D01*
G01*
X141471200Y-129860352D01*
G75*
G02*
X141199952Y-130131600I-271248J0D01*
G01*
X140440448Y-130131600D01*
G75*
G02*
X140169200Y-129860352I0J271248D01*
G01*
G37*
G36*
G01*
X140196900Y-127320352D02*
X140196900Y-126360848D01*
G75*
G02*
X140468148Y-126089600I271248J0D01*
G01*
X141227652Y-126089600D01*
G75*
G02*
X141498900Y-126360848I0J-271248D01*
G01*
X141498900Y-127320352D01*
G75*
G02*
X141227652Y-127591600I-271248J0D01*
G01*
X140468148Y-127591600D01*
G75*
G02*
X140196900Y-127320352I0J271248D01*
G01*
G37*
G36*
G01*
X138196900Y-127320352D02*
X138196900Y-126360848D01*
G75*
G02*
X138468148Y-126089600I271248J0D01*
G01*
X139227652Y-126089600D01*
G75*
G02*
X139498900Y-126360848I0J-271248D01*
G01*
X139498900Y-127320352D01*
G75*
G02*
X139227652Y-127591600I-271248J0D01*
G01*
X138468148Y-127591600D01*
G75*
G02*
X138196900Y-127320352I0J271248D01*
G01*
G37*
G36*
G01*
X138166900Y-124704152D02*
X138166900Y-123744648D01*
G75*
G02*
X138438148Y-123473400I271248J0D01*
G01*
X139197652Y-123473400D01*
G75*
G02*
X139468900Y-123744648I0J-271248D01*
G01*
X139468900Y-124704152D01*
G75*
G02*
X139197652Y-124975400I-271248J0D01*
G01*
X138438148Y-124975400D01*
G75*
G02*
X138166900Y-124704152I0J271248D01*
G01*
G37*
G36*
G01*
X140166900Y-124704152D02*
X140166900Y-123744648D01*
G75*
G02*
X140438148Y-123473400I271248J0D01*
G01*
X141197652Y-123473400D01*
G75*
G02*
X141468900Y-123744648I0J-271248D01*
G01*
X141468900Y-124704152D01*
G75*
G02*
X141197652Y-124975400I-271248J0D01*
G01*
X140438148Y-124975400D01*
G75*
G02*
X140166900Y-124704152I0J271248D01*
G01*
G37*
G36*
G01*
X140217700Y-122214952D02*
X140217700Y-121255448D01*
G75*
G02*
X140488948Y-120984200I271248J0D01*
G01*
X141248452Y-120984200D01*
G75*
G02*
X141519700Y-121255448I0J-271248D01*
G01*
X141519700Y-122214952D01*
G75*
G02*
X141248452Y-122486200I-271248J0D01*
G01*
X140488948Y-122486200D01*
G75*
G02*
X140217700Y-122214952I0J271248D01*
G01*
G37*
G36*
G01*
X138217700Y-122214952D02*
X138217700Y-121255448D01*
G75*
G02*
X138488948Y-120984200I271248J0D01*
G01*
X139248452Y-120984200D01*
G75*
G02*
X139519700Y-121255448I0J-271248D01*
G01*
X139519700Y-122214952D01*
G75*
G02*
X139248452Y-122486200I-271248J0D01*
G01*
X138488948Y-122486200D01*
G75*
G02*
X138217700Y-122214952I0J271248D01*
G01*
G37*
G36*
G01*
X138270800Y-119725752D02*
X138270800Y-118766248D01*
G75*
G02*
X138542048Y-118495000I271248J0D01*
G01*
X139301552Y-118495000D01*
G75*
G02*
X139572800Y-118766248I0J-271248D01*
G01*
X139572800Y-119725752D01*
G75*
G02*
X139301552Y-119997000I-271248J0D01*
G01*
X138542048Y-119997000D01*
G75*
G02*
X138270800Y-119725752I0J271248D01*
G01*
G37*
G36*
G01*
X140270800Y-119725752D02*
X140270800Y-118766248D01*
G75*
G02*
X140542048Y-118495000I271248J0D01*
G01*
X141301552Y-118495000D01*
G75*
G02*
X141572800Y-118766248I0J-271248D01*
G01*
X141572800Y-119725752D01*
G75*
G02*
X141301552Y-119997000I-271248J0D01*
G01*
X140542048Y-119997000D01*
G75*
G02*
X140270800Y-119725752I0J271248D01*
G01*
G37*
G36*
G01*
X140270800Y-117363552D02*
X140270800Y-116404048D01*
G75*
G02*
X140542048Y-116132800I271248J0D01*
G01*
X141301552Y-116132800D01*
G75*
G02*
X141572800Y-116404048I0J-271248D01*
G01*
X141572800Y-117363552D01*
G75*
G02*
X141301552Y-117634800I-271248J0D01*
G01*
X140542048Y-117634800D01*
G75*
G02*
X140270800Y-117363552I0J271248D01*
G01*
G37*
G36*
G01*
X138270800Y-117363552D02*
X138270800Y-116404048D01*
G75*
G02*
X138542048Y-116132800I271248J0D01*
G01*
X139301552Y-116132800D01*
G75*
G02*
X139572800Y-116404048I0J-271248D01*
G01*
X139572800Y-117363552D01*
G75*
G02*
X139301552Y-117634800I-271248J0D01*
G01*
X138542048Y-117634800D01*
G75*
G02*
X138270800Y-117363552I0J271248D01*
G01*
G37*
G36*
G01*
X138192300Y-114848952D02*
X138192300Y-113889448D01*
G75*
G02*
X138463548Y-113618200I271248J0D01*
G01*
X139223052Y-113618200D01*
G75*
G02*
X139494300Y-113889448I0J-271248D01*
G01*
X139494300Y-114848952D01*
G75*
G02*
X139223052Y-115120200I-271248J0D01*
G01*
X138463548Y-115120200D01*
G75*
G02*
X138192300Y-114848952I0J271248D01*
G01*
G37*
G36*
G01*
X140192300Y-114848952D02*
X140192300Y-113889448D01*
G75*
G02*
X140463548Y-113618200I271248J0D01*
G01*
X141223052Y-113618200D01*
G75*
G02*
X141494300Y-113889448I0J-271248D01*
G01*
X141494300Y-114848952D01*
G75*
G02*
X141223052Y-115120200I-271248J0D01*
G01*
X140463548Y-115120200D01*
G75*
G02*
X140192300Y-114848952I0J271248D01*
G01*
G37*
G36*
G01*
X140109000Y-112029752D02*
X140109000Y-111070248D01*
G75*
G02*
X140380248Y-110799000I271248J0D01*
G01*
X141139752Y-110799000D01*
G75*
G02*
X141411000Y-111070248I0J-271248D01*
G01*
X141411000Y-112029752D01*
G75*
G02*
X141139752Y-112301000I-271248J0D01*
G01*
X140380248Y-112301000D01*
G75*
G02*
X140109000Y-112029752I0J271248D01*
G01*
G37*
G36*
G01*
X138109000Y-112029752D02*
X138109000Y-111070248D01*
G75*
G02*
X138380248Y-110799000I271248J0D01*
G01*
X139139752Y-110799000D01*
G75*
G02*
X139411000Y-111070248I0J-271248D01*
G01*
X139411000Y-112029752D01*
G75*
G02*
X139139752Y-112301000I-271248J0D01*
G01*
X138380248Y-112301000D01*
G75*
G02*
X138109000Y-112029752I0J271248D01*
G01*
G37*
G36*
G01*
X154813000Y-117319752D02*
X154813000Y-116360248D01*
G75*
G02*
X155084248Y-116089000I271248J0D01*
G01*
X155843752Y-116089000D01*
G75*
G02*
X156115000Y-116360248I0J-271248D01*
G01*
X156115000Y-117319752D01*
G75*
G02*
X155843752Y-117591000I-271248J0D01*
G01*
X155084248Y-117591000D01*
G75*
G02*
X154813000Y-117319752I0J271248D01*
G01*
G37*
G36*
G01*
X156813000Y-117319752D02*
X156813000Y-116360248D01*
G75*
G02*
X157084248Y-116089000I271248J0D01*
G01*
X157843752Y-116089000D01*
G75*
G02*
X158115000Y-116360248I0J-271248D01*
G01*
X158115000Y-117319752D01*
G75*
G02*
X157843752Y-117591000I-271248J0D01*
G01*
X157084248Y-117591000D01*
G75*
G02*
X156813000Y-117319752I0J271248D01*
G01*
G37*
G36*
G01*
X152051000Y-114582248D02*
X152051000Y-115541752D01*
G75*
G02*
X151779752Y-115813000I-271248J0D01*
G01*
X151020248Y-115813000D01*
G75*
G02*
X150749000Y-115541752I0J271248D01*
G01*
X150749000Y-114582248D01*
G75*
G02*
X151020248Y-114311000I271248J0D01*
G01*
X151779752Y-114311000D01*
G75*
G02*
X152051000Y-114582248I0J-271248D01*
G01*
G37*
G36*
G01*
X154051000Y-114582248D02*
X154051000Y-115541752D01*
G75*
G02*
X153779752Y-115813000I-271248J0D01*
G01*
X153020248Y-115813000D01*
G75*
G02*
X152749000Y-115541752I0J271248D01*
G01*
X152749000Y-114582248D01*
G75*
G02*
X153020248Y-114311000I271248J0D01*
G01*
X153779752Y-114311000D01*
G75*
G02*
X154051000Y-114582248I0J-271248D01*
G01*
G37*
G36*
G01*
X151257000Y-112747752D02*
X151257000Y-111788248D01*
G75*
G02*
X151528248Y-111517000I271248J0D01*
G01*
X152287752Y-111517000D01*
G75*
G02*
X152559000Y-111788248I0J-271248D01*
G01*
X152559000Y-112747752D01*
G75*
G02*
X152287752Y-113019000I-271248J0D01*
G01*
X151528248Y-113019000D01*
G75*
G02*
X151257000Y-112747752I0J271248D01*
G01*
G37*
G36*
G01*
X153257000Y-112747752D02*
X153257000Y-111788248D01*
G75*
G02*
X153528248Y-111517000I271248J0D01*
G01*
X154287752Y-111517000D01*
G75*
G02*
X154559000Y-111788248I0J-271248D01*
G01*
X154559000Y-112747752D01*
G75*
G02*
X154287752Y-113019000I-271248J0D01*
G01*
X153528248Y-113019000D01*
G75*
G02*
X153257000Y-112747752I0J271248D01*
G01*
G37*
G36*
G01*
X168783000Y-115541752D02*
X168783000Y-114582248D01*
G75*
G02*
X169054248Y-114311000I271248J0D01*
G01*
X169813752Y-114311000D01*
G75*
G02*
X170085000Y-114582248I0J-271248D01*
G01*
X170085000Y-115541752D01*
G75*
G02*
X169813752Y-115813000I-271248J0D01*
G01*
X169054248Y-115813000D01*
G75*
G02*
X168783000Y-115541752I0J271248D01*
G01*
G37*
G36*
G01*
X170783000Y-115541752D02*
X170783000Y-114582248D01*
G75*
G02*
X171054248Y-114311000I271248J0D01*
G01*
X171813752Y-114311000D01*
G75*
G02*
X172085000Y-114582248I0J-271248D01*
G01*
X172085000Y-115541752D01*
G75*
G02*
X171813752Y-115813000I-271248J0D01*
G01*
X171054248Y-115813000D01*
G75*
G02*
X170783000Y-115541752I0J271248D01*
G01*
G37*
G36*
G01*
X184259000Y-117351702D02*
X184259000Y-118360298D01*
G75*
G02*
X183987298Y-118632000I-271702J0D01*
G01*
X183253702Y-118632000D01*
G75*
G02*
X182982000Y-118360298I0J271702D01*
G01*
X182982000Y-117351702D01*
G75*
G02*
X183253702Y-117080000I271702J0D01*
G01*
X183987298Y-117080000D01*
G75*
G02*
X184259000Y-117351702I0J-271702D01*
G01*
G37*
G36*
G01*
X186334000Y-117351702D02*
X186334000Y-118360298D01*
G75*
G02*
X186062298Y-118632000I-271702J0D01*
G01*
X185328702Y-118632000D01*
G75*
G02*
X185057000Y-118360298I0J271702D01*
G01*
X185057000Y-117351702D01*
G75*
G02*
X185328702Y-117080000I271702J0D01*
G01*
X186062298Y-117080000D01*
G75*
G02*
X186334000Y-117351702I0J-271702D01*
G01*
G37*
G36*
G01*
X166804500Y-109952000D02*
X166443500Y-109952000D01*
G75*
G02*
X166263000Y-109771500I0J180500D01*
G01*
X166263000Y-109295500D01*
G75*
G02*
X166443500Y-109115000I180500J0D01*
G01*
X166804500Y-109115000D01*
G75*
G02*
X166985000Y-109295500I0J-180500D01*
G01*
X166985000Y-109771500D01*
G75*
G02*
X166804500Y-109952000I-180500J0D01*
G01*
G37*
G36*
G01*
X166804500Y-108817000D02*
X166443500Y-108817000D01*
G75*
G02*
X166263000Y-108636500I0J180500D01*
G01*
X166263000Y-108160500D01*
G75*
G02*
X166443500Y-107980000I180500J0D01*
G01*
X166804500Y-107980000D01*
G75*
G02*
X166985000Y-108160500I0J-180500D01*
G01*
X166985000Y-108636500D01*
G75*
G02*
X166804500Y-108817000I-180500J0D01*
G01*
G37*
G36*
G01*
X169450298Y-108461000D02*
X168441702Y-108461000D01*
G75*
G02*
X168170000Y-108189298I0J271702D01*
G01*
X168170000Y-107455702D01*
G75*
G02*
X168441702Y-107184000I271702J0D01*
G01*
X169450298Y-107184000D01*
G75*
G02*
X169722000Y-107455702I0J-271702D01*
G01*
X169722000Y-108189298D01*
G75*
G02*
X169450298Y-108461000I-271702J0D01*
G01*
G37*
G36*
G01*
X169450298Y-110536000D02*
X168441702Y-110536000D01*
G75*
G02*
X168170000Y-110264298I0J271702D01*
G01*
X168170000Y-109530702D01*
G75*
G02*
X168441702Y-109259000I271702J0D01*
G01*
X169450298Y-109259000D01*
G75*
G02*
X169722000Y-109530702I0J-271702D01*
G01*
X169722000Y-110264298D01*
G75*
G02*
X169450298Y-110536000I-271702J0D01*
G01*
G37*
G36*
G01*
X163957000Y-117319752D02*
X163957000Y-116360248D01*
G75*
G02*
X164228248Y-116089000I271248J0D01*
G01*
X164987752Y-116089000D01*
G75*
G02*
X165259000Y-116360248I0J-271248D01*
G01*
X165259000Y-117319752D01*
G75*
G02*
X164987752Y-117591000I-271248J0D01*
G01*
X164228248Y-117591000D01*
G75*
G02*
X163957000Y-117319752I0J271248D01*
G01*
G37*
G36*
G01*
X165957000Y-117319752D02*
X165957000Y-116360248D01*
G75*
G02*
X166228248Y-116089000I271248J0D01*
G01*
X166987752Y-116089000D01*
G75*
G02*
X167259000Y-116360248I0J-271248D01*
G01*
X167259000Y-117319752D01*
G75*
G02*
X166987752Y-117591000I-271248J0D01*
G01*
X166228248Y-117591000D01*
G75*
G02*
X165957000Y-117319752I0J271248D01*
G01*
G37*
D14*
G36*
X186608232Y-133147000D02*
G01*
X186608500Y-133148000D01*
X186608500Y-133246000D01*
X186607500Y-133247732D01*
X186606500Y-133248000D01*
X185029500Y-133248000D01*
X185027768Y-133247000D01*
X185027500Y-133246000D01*
X185027500Y-133148000D01*
X185028500Y-133146268D01*
X185029500Y-133146000D01*
X186606500Y-133146000D01*
X186608232Y-133147000D01*
G37*
G36*
X180732232Y-133147000D02*
G01*
X180732500Y-133148000D01*
X180732500Y-133246000D01*
X180731500Y-133247732D01*
X180730500Y-133248000D01*
X179153500Y-133248000D01*
X179151768Y-133247000D01*
X179151500Y-133246000D01*
X179151500Y-133148000D01*
X179152500Y-133146268D01*
X179153500Y-133146000D01*
X180730500Y-133146000D01*
X180732232Y-133147000D01*
G37*
G36*
X180732232Y-132497000D02*
G01*
X180732500Y-132498000D01*
X180732500Y-132596000D01*
X180731500Y-132597732D01*
X180730500Y-132598000D01*
X179153500Y-132598000D01*
X179151768Y-132597000D01*
X179151500Y-132596000D01*
X179151500Y-132498000D01*
X179152500Y-132496268D01*
X179153500Y-132496000D01*
X180730500Y-132496000D01*
X180732232Y-132497000D01*
G37*
G36*
X186608232Y-132497000D02*
G01*
X186608500Y-132498000D01*
X186608500Y-132596000D01*
X186607500Y-132597732D01*
X186606500Y-132598000D01*
X185029500Y-132598000D01*
X185027768Y-132597000D01*
X185027500Y-132596000D01*
X185027500Y-132498000D01*
X185028500Y-132496268D01*
X185029500Y-132496000D01*
X186606500Y-132496000D01*
X186608232Y-132497000D01*
G37*
G36*
X180732232Y-131847000D02*
G01*
X180732500Y-131848000D01*
X180732500Y-131946000D01*
X180731500Y-131947732D01*
X180730500Y-131948000D01*
X179153500Y-131948000D01*
X179151768Y-131947000D01*
X179151500Y-131946000D01*
X179151500Y-131848000D01*
X179152500Y-131846268D01*
X179153500Y-131846000D01*
X180730500Y-131846000D01*
X180732232Y-131847000D01*
G37*
G36*
X186608232Y-131847000D02*
G01*
X186608500Y-131848000D01*
X186608500Y-131946000D01*
X186607500Y-131947732D01*
X186606500Y-131948000D01*
X185029500Y-131948000D01*
X185027768Y-131947000D01*
X185027500Y-131946000D01*
X185027500Y-131848000D01*
X185028500Y-131846268D01*
X185029500Y-131846000D01*
X186606500Y-131846000D01*
X186608232Y-131847000D01*
G37*
G36*
X186608232Y-131197000D02*
G01*
X186608500Y-131198000D01*
X186608500Y-131296000D01*
X186607500Y-131297732D01*
X186606500Y-131298000D01*
X185029500Y-131298000D01*
X185027768Y-131297000D01*
X185027500Y-131296000D01*
X185027500Y-131198000D01*
X185028500Y-131196268D01*
X185029500Y-131196000D01*
X186606500Y-131196000D01*
X186608232Y-131197000D01*
G37*
G36*
X180732232Y-131197000D02*
G01*
X180732500Y-131198000D01*
X180732500Y-131296000D01*
X180731500Y-131297732D01*
X180730500Y-131298000D01*
X179153500Y-131298000D01*
X179151768Y-131297000D01*
X179151500Y-131296000D01*
X179151500Y-131198000D01*
X179152500Y-131196268D01*
X179153500Y-131196000D01*
X180730500Y-131196000D01*
X180732232Y-131197000D01*
G37*
G36*
X186608232Y-130547000D02*
G01*
X186608500Y-130548000D01*
X186608500Y-130646000D01*
X186607500Y-130647732D01*
X186606500Y-130648000D01*
X185029500Y-130648000D01*
X185027768Y-130647000D01*
X185027500Y-130646000D01*
X185027500Y-130548000D01*
X185028500Y-130546268D01*
X185029500Y-130546000D01*
X186606500Y-130546000D01*
X186608232Y-130547000D01*
G37*
G36*
X180732232Y-130547000D02*
G01*
X180732500Y-130548000D01*
X180732500Y-130646000D01*
X180731500Y-130647732D01*
X180730500Y-130648000D01*
X179153500Y-130648000D01*
X179151768Y-130647000D01*
X179151500Y-130646000D01*
X179151500Y-130548000D01*
X179152500Y-130546268D01*
X179153500Y-130546000D01*
X180730500Y-130546000D01*
X180732232Y-130547000D01*
G37*
G36*
X186608232Y-129897000D02*
G01*
X186608500Y-129898000D01*
X186608500Y-129996000D01*
X186607500Y-129997732D01*
X186606500Y-129998000D01*
X185029500Y-129998000D01*
X185027768Y-129997000D01*
X185027500Y-129996000D01*
X185027500Y-129898000D01*
X185028500Y-129896268D01*
X185029500Y-129896000D01*
X186606500Y-129896000D01*
X186608232Y-129897000D01*
G37*
G36*
X180732232Y-129897000D02*
G01*
X180732500Y-129898000D01*
X180732500Y-129996000D01*
X180731500Y-129997732D01*
X180730500Y-129998000D01*
X179153500Y-129998000D01*
X179151768Y-129997000D01*
X179151500Y-129996000D01*
X179151500Y-129898000D01*
X179152500Y-129896268D01*
X179153500Y-129896000D01*
X180730500Y-129896000D01*
X180732232Y-129897000D01*
G37*
G36*
X146810732Y-97788500D02*
G01*
X146811000Y-97789500D01*
X146811000Y-99186500D01*
X146810000Y-99188232D01*
X146809000Y-99188500D01*
X146711000Y-99188500D01*
X146709268Y-99187500D01*
X146709000Y-99186500D01*
X146709000Y-97789500D01*
X146710000Y-97787768D01*
X146711000Y-97787500D01*
X146809000Y-97787500D01*
X146810732Y-97788500D01*
G37*
G36*
X146010732Y-97788500D02*
G01*
X146011000Y-97789500D01*
X146011000Y-99186500D01*
X146010000Y-99188232D01*
X146009000Y-99188500D01*
X145911000Y-99188500D01*
X145909268Y-99187500D01*
X145909000Y-99186500D01*
X145909000Y-97789500D01*
X145910000Y-97787768D01*
X145911000Y-97787500D01*
X146009000Y-97787500D01*
X146010732Y-97788500D01*
G37*
G36*
X145210732Y-97788500D02*
G01*
X145211000Y-97789500D01*
X145211000Y-99186500D01*
X145210000Y-99188232D01*
X145209000Y-99188500D01*
X145111000Y-99188500D01*
X145109268Y-99187500D01*
X145109000Y-99186500D01*
X145109000Y-97789500D01*
X145110000Y-97787768D01*
X145111000Y-97787500D01*
X145209000Y-97787500D01*
X145210732Y-97788500D01*
G37*
G36*
X144410732Y-97788500D02*
G01*
X144411000Y-97789500D01*
X144411000Y-99186500D01*
X144410000Y-99188232D01*
X144409000Y-99188500D01*
X144311000Y-99188500D01*
X144309268Y-99187500D01*
X144309000Y-99186500D01*
X144309000Y-97789500D01*
X144310000Y-97787768D01*
X144311000Y-97787500D01*
X144409000Y-97787500D01*
X144410732Y-97788500D01*
G37*
G36*
X143610732Y-97788500D02*
G01*
X143611000Y-97789500D01*
X143611000Y-99186500D01*
X143610000Y-99188232D01*
X143609000Y-99188500D01*
X143511000Y-99188500D01*
X143509268Y-99187500D01*
X143509000Y-99186500D01*
X143509000Y-97789500D01*
X143510000Y-97787768D01*
X143511000Y-97787500D01*
X143609000Y-97787500D01*
X143610732Y-97788500D01*
G37*
G36*
X142810732Y-97788500D02*
G01*
X142811000Y-97789500D01*
X142811000Y-99186500D01*
X142810000Y-99188232D01*
X142809000Y-99188500D01*
X142711000Y-99188500D01*
X142709268Y-99187500D01*
X142709000Y-99186500D01*
X142709000Y-97789500D01*
X142710000Y-97787768D01*
X142711000Y-97787500D01*
X142809000Y-97787500D01*
X142810732Y-97788500D01*
G37*
G36*
X142010732Y-97788500D02*
G01*
X142011000Y-97789500D01*
X142011000Y-99186500D01*
X142010000Y-99188232D01*
X142009000Y-99188500D01*
X141911000Y-99188500D01*
X141909268Y-99187500D01*
X141909000Y-99186500D01*
X141909000Y-97789500D01*
X141910000Y-97787768D01*
X141911000Y-97787500D01*
X142009000Y-97787500D01*
X142010732Y-97788500D01*
G37*
G36*
X141210732Y-97788500D02*
G01*
X141211000Y-97789500D01*
X141211000Y-99186500D01*
X141210000Y-99188232D01*
X141209000Y-99188500D01*
X141111000Y-99188500D01*
X141109268Y-99187500D01*
X141109000Y-99186500D01*
X141109000Y-97789500D01*
X141110000Y-97787768D01*
X141111000Y-97787500D01*
X141209000Y-97787500D01*
X141210732Y-97788500D01*
G37*
G36*
X140410732Y-97788500D02*
G01*
X140411000Y-97789500D01*
X140411000Y-99186500D01*
X140410000Y-99188232D01*
X140409000Y-99188500D01*
X140311000Y-99188500D01*
X140309268Y-99187500D01*
X140309000Y-99186500D01*
X140309000Y-97789500D01*
X140310000Y-97787768D01*
X140311000Y-97787500D01*
X140409000Y-97787500D01*
X140410732Y-97788500D01*
G37*
G36*
X139610732Y-97788500D02*
G01*
X139611000Y-97789500D01*
X139611000Y-99186500D01*
X139610000Y-99188232D01*
X139609000Y-99188500D01*
X139511000Y-99188500D01*
X139509268Y-99187500D01*
X139509000Y-99186500D01*
X139509000Y-97789500D01*
X139510000Y-97787768D01*
X139511000Y-97787500D01*
X139609000Y-97787500D01*
X139610732Y-97788500D01*
G37*
G36*
X138810732Y-97788500D02*
G01*
X138811000Y-97789500D01*
X138811000Y-99186500D01*
X138810000Y-99188232D01*
X138809000Y-99188500D01*
X138711000Y-99188500D01*
X138709268Y-99187500D01*
X138709000Y-99186500D01*
X138709000Y-97789500D01*
X138710000Y-97787768D01*
X138711000Y-97787500D01*
X138809000Y-97787500D01*
X138810732Y-97788500D01*
G37*
G36*
X138010732Y-97788500D02*
G01*
X138011000Y-97789500D01*
X138011000Y-99186500D01*
X138010000Y-99188232D01*
X138009000Y-99188500D01*
X137911000Y-99188500D01*
X137909268Y-99187500D01*
X137909000Y-99186500D01*
X137909000Y-97789500D01*
X137910000Y-97787768D01*
X137911000Y-97787500D01*
X138009000Y-97787500D01*
X138010732Y-97788500D01*
G37*
G36*
X130810732Y-97788500D02*
G01*
X130811000Y-97789500D01*
X130811000Y-99186500D01*
X130810000Y-99188232D01*
X130809000Y-99188500D01*
X130711000Y-99188500D01*
X130709268Y-99187500D01*
X130709000Y-99186500D01*
X130709000Y-97789500D01*
X130710000Y-97787768D01*
X130711000Y-97787500D01*
X130809000Y-97787500D01*
X130810732Y-97788500D01*
G37*
G36*
X131610732Y-97788500D02*
G01*
X131611000Y-97789500D01*
X131611000Y-99186500D01*
X131610000Y-99188232D01*
X131609000Y-99188500D01*
X131511000Y-99188500D01*
X131509268Y-99187500D01*
X131509000Y-99186500D01*
X131509000Y-97789500D01*
X131510000Y-97787768D01*
X131511000Y-97787500D01*
X131609000Y-97787500D01*
X131610732Y-97788500D01*
G37*
G36*
X132410732Y-97788500D02*
G01*
X132411000Y-97789500D01*
X132411000Y-99186500D01*
X132410000Y-99188232D01*
X132409000Y-99188500D01*
X132311000Y-99188500D01*
X132309268Y-99187500D01*
X132309000Y-99186500D01*
X132309000Y-97789500D01*
X132310000Y-97787768D01*
X132311000Y-97787500D01*
X132409000Y-97787500D01*
X132410732Y-97788500D01*
G37*
G36*
X133210732Y-97788500D02*
G01*
X133211000Y-97789500D01*
X133211000Y-99186500D01*
X133210000Y-99188232D01*
X133209000Y-99188500D01*
X133111000Y-99188500D01*
X133109268Y-99187500D01*
X133109000Y-99186500D01*
X133109000Y-97789500D01*
X133110000Y-97787768D01*
X133111000Y-97787500D01*
X133209000Y-97787500D01*
X133210732Y-97788500D01*
G37*
G36*
X134010732Y-97788500D02*
G01*
X134011000Y-97789500D01*
X134011000Y-99186500D01*
X134010000Y-99188232D01*
X134009000Y-99188500D01*
X133911000Y-99188500D01*
X133909268Y-99187500D01*
X133909000Y-99186500D01*
X133909000Y-97789500D01*
X133910000Y-97787768D01*
X133911000Y-97787500D01*
X134009000Y-97787500D01*
X134010732Y-97788500D01*
G37*
G36*
X134810732Y-97788500D02*
G01*
X134811000Y-97789500D01*
X134811000Y-99186500D01*
X134810000Y-99188232D01*
X134809000Y-99188500D01*
X134711000Y-99188500D01*
X134709268Y-99187500D01*
X134709000Y-99186500D01*
X134709000Y-97789500D01*
X134710000Y-97787768D01*
X134711000Y-97787500D01*
X134809000Y-97787500D01*
X134810732Y-97788500D01*
G37*
G36*
X135610732Y-97788500D02*
G01*
X135611000Y-97789500D01*
X135611000Y-99186500D01*
X135610000Y-99188232D01*
X135609000Y-99188500D01*
X135511000Y-99188500D01*
X135509268Y-99187500D01*
X135509000Y-99186500D01*
X135509000Y-97789500D01*
X135510000Y-97787768D01*
X135511000Y-97787500D01*
X135609000Y-97787500D01*
X135610732Y-97788500D01*
G37*
G36*
X136410732Y-97788500D02*
G01*
X136411000Y-97789500D01*
X136411000Y-99186500D01*
X136410000Y-99188232D01*
X136409000Y-99188500D01*
X136311000Y-99188500D01*
X136309268Y-99187500D01*
X136309000Y-99186500D01*
X136309000Y-97789500D01*
X136310000Y-97787768D01*
X136311000Y-97787500D01*
X136409000Y-97787500D01*
X136410732Y-97788500D01*
G37*
G36*
X137210732Y-97788500D02*
G01*
X137211000Y-97789500D01*
X137211000Y-99186500D01*
X137210000Y-99188232D01*
X137209000Y-99188500D01*
X137111000Y-99188500D01*
X137109268Y-99187500D01*
X137109000Y-99186500D01*
X137109000Y-97789500D01*
X137110000Y-97787768D01*
X137111000Y-97787500D01*
X137209000Y-97787500D01*
X137210732Y-97788500D01*
G37*
G36*
X177865732Y-96138000D02*
G01*
X177866000Y-96139000D01*
X177866000Y-96841000D01*
X177865000Y-96842732D01*
X177864000Y-96843000D01*
X177816000Y-96843000D01*
X177814268Y-96842000D01*
X177814000Y-96841000D01*
X177814000Y-96139000D01*
X177815000Y-96137268D01*
X177816000Y-96137000D01*
X177864000Y-96137000D01*
X177865732Y-96138000D01*
G37*
G36*
X177365732Y-96138000D02*
G01*
X177366000Y-96139000D01*
X177366000Y-96841000D01*
X177365000Y-96842732D01*
X177364000Y-96843000D01*
X177316000Y-96843000D01*
X177314268Y-96842000D01*
X177314000Y-96841000D01*
X177314000Y-96139000D01*
X177315000Y-96137268D01*
X177316000Y-96137000D01*
X177364000Y-96137000D01*
X177365732Y-96138000D01*
G37*
G36*
X179102732Y-96055000D02*
G01*
X179103000Y-96056000D01*
X179103000Y-96104000D01*
X179102000Y-96105732D01*
X179101000Y-96106000D01*
X178401000Y-96106000D01*
X178401000Y-96556000D01*
X178400000Y-96557732D01*
X178399000Y-96558000D01*
X178366094Y-96558000D01*
X178356639Y-96558932D01*
X178347635Y-96561662D01*
X178339337Y-96566097D01*
X178332065Y-96572065D01*
X178326097Y-96579337D01*
X178321662Y-96587635D01*
X178318932Y-96596639D01*
X178317990Y-96606195D01*
X178316825Y-96607821D01*
X178314835Y-96607625D01*
X178314000Y-96605999D01*
X178314000Y-96139000D01*
X178315000Y-96137268D01*
X178316000Y-96137000D01*
X178348906Y-96137000D01*
X178358361Y-96136068D01*
X178367365Y-96133338D01*
X178375663Y-96128903D01*
X178382935Y-96122935D01*
X178388903Y-96115663D01*
X178393338Y-96107365D01*
X178396068Y-96098361D01*
X178397000Y-96088906D01*
X178397000Y-96056000D01*
X178398000Y-96054268D01*
X178399000Y-96054000D01*
X179101000Y-96054000D01*
X179102732Y-96055000D01*
G37*
G36*
X176782732Y-96055000D02*
G01*
X176783000Y-96056000D01*
X176783000Y-96088906D01*
X176783932Y-96098361D01*
X176786662Y-96107365D01*
X176791097Y-96115663D01*
X176797065Y-96122935D01*
X176804337Y-96128903D01*
X176812635Y-96133338D01*
X176821639Y-96136068D01*
X176831094Y-96137000D01*
X176864000Y-96137000D01*
X176865732Y-96138000D01*
X176866000Y-96139000D01*
X176866000Y-96605999D01*
X176865000Y-96607731D01*
X176863000Y-96607731D01*
X176862010Y-96606195D01*
X176861068Y-96596639D01*
X176858338Y-96587635D01*
X176853903Y-96579337D01*
X176847935Y-96572065D01*
X176840663Y-96566097D01*
X176832365Y-96561662D01*
X176823361Y-96558932D01*
X176813906Y-96558000D01*
X176781000Y-96558000D01*
X176779268Y-96557000D01*
X176779000Y-96556000D01*
X176779000Y-96106000D01*
X176079000Y-96106000D01*
X176077268Y-96105000D01*
X176077000Y-96104000D01*
X176077000Y-96056000D01*
X176078000Y-96054268D01*
X176079000Y-96054000D01*
X176781000Y-96054000D01*
X176782732Y-96055000D01*
G37*
G36*
X176782732Y-95555000D02*
G01*
X176783000Y-95556000D01*
X176783000Y-95604000D01*
X176782000Y-95605732D01*
X176781000Y-95606000D01*
X176079000Y-95606000D01*
X176077268Y-95605000D01*
X176077000Y-95604000D01*
X176077000Y-95556000D01*
X176078000Y-95554268D01*
X176079000Y-95554000D01*
X176781000Y-95554000D01*
X176782732Y-95555000D01*
G37*
G36*
X179102732Y-95555000D02*
G01*
X179103000Y-95556000D01*
X179103000Y-95604000D01*
X179102000Y-95605732D01*
X179101000Y-95606000D01*
X178399000Y-95606000D01*
X178397268Y-95605000D01*
X178397000Y-95604000D01*
X178397000Y-95556000D01*
X178398000Y-95554268D01*
X178399000Y-95554000D01*
X179101000Y-95554000D01*
X179102732Y-95555000D01*
G37*
G36*
X178317990Y-94553805D02*
G01*
X178318932Y-94563361D01*
X178321662Y-94572365D01*
X178326097Y-94580663D01*
X178332065Y-94587935D01*
X178339337Y-94593903D01*
X178347635Y-94598338D01*
X178356639Y-94601068D01*
X178366094Y-94602000D01*
X178399000Y-94602000D01*
X178400732Y-94603000D01*
X178401000Y-94604000D01*
X178401000Y-95054000D01*
X179101000Y-95054000D01*
X179102732Y-95055000D01*
X179103000Y-95056000D01*
X179103000Y-95104000D01*
X179102000Y-95105732D01*
X179101000Y-95106000D01*
X178399000Y-95106000D01*
X178397268Y-95105000D01*
X178397000Y-95104000D01*
X178397000Y-95071094D01*
X178396068Y-95061639D01*
X178393338Y-95052635D01*
X178388903Y-95044337D01*
X178382935Y-95037065D01*
X178375663Y-95031097D01*
X178367365Y-95026662D01*
X178358361Y-95023932D01*
X178348906Y-95023000D01*
X178316000Y-95023000D01*
X178314268Y-95022000D01*
X178314000Y-95021000D01*
X178314000Y-94554001D01*
X178315000Y-94552269D01*
X178317000Y-94552269D01*
X178317990Y-94553805D01*
G37*
G36*
X176865165Y-94552375D02*
G01*
X176866000Y-94554001D01*
X176866000Y-95021000D01*
X176865000Y-95022732D01*
X176864000Y-95023000D01*
X176831094Y-95023000D01*
X176821639Y-95023932D01*
X176812635Y-95026662D01*
X176804337Y-95031097D01*
X176797065Y-95037065D01*
X176791097Y-95044337D01*
X176786662Y-95052635D01*
X176783932Y-95061639D01*
X176783000Y-95071094D01*
X176783000Y-95104000D01*
X176782000Y-95105732D01*
X176781000Y-95106000D01*
X176079000Y-95106000D01*
X176077268Y-95105000D01*
X176077000Y-95104000D01*
X176077000Y-95056000D01*
X176078000Y-95054268D01*
X176079000Y-95054000D01*
X176779000Y-95054000D01*
X176779000Y-94604000D01*
X176780000Y-94602268D01*
X176781000Y-94602000D01*
X176813906Y-94602000D01*
X176823361Y-94601068D01*
X176832365Y-94598338D01*
X176840663Y-94593903D01*
X176847935Y-94587935D01*
X176853903Y-94580663D01*
X176858338Y-94572365D01*
X176861068Y-94563361D01*
X176862010Y-94553805D01*
X176863175Y-94552179D01*
X176865165Y-94552375D01*
G37*
G36*
X177865732Y-94318000D02*
G01*
X177866000Y-94319000D01*
X177866000Y-95021000D01*
X177865000Y-95022732D01*
X177864000Y-95023000D01*
X177816000Y-95023000D01*
X177814268Y-95022000D01*
X177814000Y-95021000D01*
X177814000Y-94319000D01*
X177815000Y-94317268D01*
X177816000Y-94317000D01*
X177864000Y-94317000D01*
X177865732Y-94318000D01*
G37*
G36*
X177365732Y-94318000D02*
G01*
X177366000Y-94319000D01*
X177366000Y-95021000D01*
X177365000Y-95022732D01*
X177364000Y-95023000D01*
X177316000Y-95023000D01*
X177314268Y-95022000D01*
X177314000Y-95021000D01*
X177314000Y-94319000D01*
X177315000Y-94317268D01*
X177316000Y-94317000D01*
X177364000Y-94317000D01*
X177365732Y-94318000D01*
G37*
G36*
X146810732Y-86332500D02*
G01*
X146811000Y-86333500D01*
X146811000Y-87730500D01*
X146810000Y-87732232D01*
X146809000Y-87732500D01*
X146711000Y-87732500D01*
X146709268Y-87731500D01*
X146709000Y-87730500D01*
X146709000Y-86333500D01*
X146710000Y-86331768D01*
X146711000Y-86331500D01*
X146809000Y-86331500D01*
X146810732Y-86332500D01*
G37*
G36*
X133210732Y-86332500D02*
G01*
X133211000Y-86333500D01*
X133211000Y-87730500D01*
X133210000Y-87732232D01*
X133209000Y-87732500D01*
X133111000Y-87732500D01*
X133109268Y-87731500D01*
X133109000Y-87730500D01*
X133109000Y-86333500D01*
X133110000Y-86331768D01*
X133111000Y-86331500D01*
X133209000Y-86331500D01*
X133210732Y-86332500D01*
G37*
G36*
X132410732Y-86332500D02*
G01*
X132411000Y-86333500D01*
X132411000Y-87730500D01*
X132410000Y-87732232D01*
X132409000Y-87732500D01*
X132311000Y-87732500D01*
X132309268Y-87731500D01*
X132309000Y-87730500D01*
X132309000Y-86333500D01*
X132310000Y-86331768D01*
X132311000Y-86331500D01*
X132409000Y-86331500D01*
X132410732Y-86332500D01*
G37*
G36*
X130810732Y-86332500D02*
G01*
X130811000Y-86333500D01*
X130811000Y-87730500D01*
X130810000Y-87732232D01*
X130809000Y-87732500D01*
X130711000Y-87732500D01*
X130709268Y-87731500D01*
X130709000Y-87730500D01*
X130709000Y-86333500D01*
X130710000Y-86331768D01*
X130711000Y-86331500D01*
X130809000Y-86331500D01*
X130810732Y-86332500D01*
G37*
G36*
X142810732Y-86332500D02*
G01*
X142811000Y-86333500D01*
X142811000Y-87730500D01*
X142810000Y-87732232D01*
X142809000Y-87732500D01*
X142711000Y-87732500D01*
X142709268Y-87731500D01*
X142709000Y-87730500D01*
X142709000Y-86333500D01*
X142710000Y-86331768D01*
X142711000Y-86331500D01*
X142809000Y-86331500D01*
X142810732Y-86332500D01*
G37*
G36*
X131610732Y-86332500D02*
G01*
X131611000Y-86333500D01*
X131611000Y-87730500D01*
X131610000Y-87732232D01*
X131609000Y-87732500D01*
X131511000Y-87732500D01*
X131509268Y-87731500D01*
X131509000Y-87730500D01*
X131509000Y-86333500D01*
X131510000Y-86331768D01*
X131511000Y-86331500D01*
X131609000Y-86331500D01*
X131610732Y-86332500D01*
G37*
G36*
X146010732Y-86332500D02*
G01*
X146011000Y-86333500D01*
X146011000Y-87730500D01*
X146010000Y-87732232D01*
X146009000Y-87732500D01*
X145911000Y-87732500D01*
X145909268Y-87731500D01*
X145909000Y-87730500D01*
X145909000Y-86333500D01*
X145910000Y-86331768D01*
X145911000Y-86331500D01*
X146009000Y-86331500D01*
X146010732Y-86332500D01*
G37*
G36*
X145210732Y-86332500D02*
G01*
X145211000Y-86333500D01*
X145211000Y-87730500D01*
X145210000Y-87732232D01*
X145209000Y-87732500D01*
X145111000Y-87732500D01*
X145109268Y-87731500D01*
X145109000Y-87730500D01*
X145109000Y-86333500D01*
X145110000Y-86331768D01*
X145111000Y-86331500D01*
X145209000Y-86331500D01*
X145210732Y-86332500D01*
G37*
G36*
X144410732Y-86332500D02*
G01*
X144411000Y-86333500D01*
X144411000Y-87730500D01*
X144410000Y-87732232D01*
X144409000Y-87732500D01*
X144311000Y-87732500D01*
X144309268Y-87731500D01*
X144309000Y-87730500D01*
X144309000Y-86333500D01*
X144310000Y-86331768D01*
X144311000Y-86331500D01*
X144409000Y-86331500D01*
X144410732Y-86332500D01*
G37*
G36*
X143610732Y-86332500D02*
G01*
X143611000Y-86333500D01*
X143611000Y-87730500D01*
X143610000Y-87732232D01*
X143609000Y-87732500D01*
X143511000Y-87732500D01*
X143509268Y-87731500D01*
X143509000Y-87730500D01*
X143509000Y-86333500D01*
X143510000Y-86331768D01*
X143511000Y-86331500D01*
X143609000Y-86331500D01*
X143610732Y-86332500D01*
G37*
G36*
X142010732Y-86332500D02*
G01*
X142011000Y-86333500D01*
X142011000Y-87730500D01*
X142010000Y-87732232D01*
X142009000Y-87732500D01*
X141911000Y-87732500D01*
X141909268Y-87731500D01*
X141909000Y-87730500D01*
X141909000Y-86333500D01*
X141910000Y-86331768D01*
X141911000Y-86331500D01*
X142009000Y-86331500D01*
X142010732Y-86332500D01*
G37*
G36*
X140410732Y-86332500D02*
G01*
X140411000Y-86333500D01*
X140411000Y-87730500D01*
X140410000Y-87732232D01*
X140409000Y-87732500D01*
X140311000Y-87732500D01*
X140309268Y-87731500D01*
X140309000Y-87730500D01*
X140309000Y-86333500D01*
X140310000Y-86331768D01*
X140311000Y-86331500D01*
X140409000Y-86331500D01*
X140410732Y-86332500D01*
G37*
G36*
X141210732Y-86332500D02*
G01*
X141211000Y-86333500D01*
X141211000Y-87730500D01*
X141210000Y-87732232D01*
X141209000Y-87732500D01*
X141111000Y-87732500D01*
X141109268Y-87731500D01*
X141109000Y-87730500D01*
X141109000Y-86333500D01*
X141110000Y-86331768D01*
X141111000Y-86331500D01*
X141209000Y-86331500D01*
X141210732Y-86332500D01*
G37*
G36*
X134010732Y-86332500D02*
G01*
X134011000Y-86333500D01*
X134011000Y-87730500D01*
X134010000Y-87732232D01*
X134009000Y-87732500D01*
X133911000Y-87732500D01*
X133909268Y-87731500D01*
X133909000Y-87730500D01*
X133909000Y-86333500D01*
X133910000Y-86331768D01*
X133911000Y-86331500D01*
X134009000Y-86331500D01*
X134010732Y-86332500D01*
G37*
G36*
X134810732Y-86332500D02*
G01*
X134811000Y-86333500D01*
X134811000Y-87730500D01*
X134810000Y-87732232D01*
X134809000Y-87732500D01*
X134711000Y-87732500D01*
X134709268Y-87731500D01*
X134709000Y-87730500D01*
X134709000Y-86333500D01*
X134710000Y-86331768D01*
X134711000Y-86331500D01*
X134809000Y-86331500D01*
X134810732Y-86332500D01*
G37*
G36*
X135610732Y-86332500D02*
G01*
X135611000Y-86333500D01*
X135611000Y-87730500D01*
X135610000Y-87732232D01*
X135609000Y-87732500D01*
X135511000Y-87732500D01*
X135509268Y-87731500D01*
X135509000Y-87730500D01*
X135509000Y-86333500D01*
X135510000Y-86331768D01*
X135511000Y-86331500D01*
X135609000Y-86331500D01*
X135610732Y-86332500D01*
G37*
G36*
X136410732Y-86332500D02*
G01*
X136411000Y-86333500D01*
X136411000Y-87730500D01*
X136410000Y-87732232D01*
X136409000Y-87732500D01*
X136311000Y-87732500D01*
X136309268Y-87731500D01*
X136309000Y-87730500D01*
X136309000Y-86333500D01*
X136310000Y-86331768D01*
X136311000Y-86331500D01*
X136409000Y-86331500D01*
X136410732Y-86332500D01*
G37*
G36*
X138010732Y-86332500D02*
G01*
X138011000Y-86333500D01*
X138011000Y-87730500D01*
X138010000Y-87732232D01*
X138009000Y-87732500D01*
X137911000Y-87732500D01*
X137909268Y-87731500D01*
X137909000Y-87730500D01*
X137909000Y-86333500D01*
X137910000Y-86331768D01*
X137911000Y-86331500D01*
X138009000Y-86331500D01*
X138010732Y-86332500D01*
G37*
G36*
X138810732Y-86332500D02*
G01*
X138811000Y-86333500D01*
X138811000Y-87730500D01*
X138810000Y-87732232D01*
X138809000Y-87732500D01*
X138711000Y-87732500D01*
X138709268Y-87731500D01*
X138709000Y-87730500D01*
X138709000Y-86333500D01*
X138710000Y-86331768D01*
X138711000Y-86331500D01*
X138809000Y-86331500D01*
X138810732Y-86332500D01*
G37*
G36*
X139610732Y-86332500D02*
G01*
X139611000Y-86333500D01*
X139611000Y-87730500D01*
X139610000Y-87732232D01*
X139609000Y-87732500D01*
X139511000Y-87732500D01*
X139509268Y-87731500D01*
X139509000Y-87730500D01*
X139509000Y-86333500D01*
X139510000Y-86331768D01*
X139511000Y-86331500D01*
X139609000Y-86331500D01*
X139610732Y-86332500D01*
G37*
G36*
X137210732Y-86332500D02*
G01*
X137211000Y-86333500D01*
X137211000Y-87730500D01*
X137210000Y-87732232D01*
X137209000Y-87732500D01*
X137111000Y-87732500D01*
X137109268Y-87731500D01*
X137109000Y-87730500D01*
X137109000Y-86333500D01*
X137110000Y-86331768D01*
X137111000Y-86331500D01*
X137209000Y-86331500D01*
X137210732Y-86332500D01*
G37*
G36*
X121299879Y-78400000D02*
G01*
X121299879Y-78402000D01*
X121298343Y-78402990D01*
X121288787Y-78403932D01*
X121279783Y-78406662D01*
X121271485Y-78411097D01*
X121264213Y-78417065D01*
X121258245Y-78424337D01*
X121253810Y-78432635D01*
X121251080Y-78441639D01*
X121250157Y-78450999D01*
X121251080Y-78460359D01*
X121253810Y-78469363D01*
X121258245Y-78477661D01*
X121264213Y-78484933D01*
X121271485Y-78490901D01*
X121279782Y-78495335D01*
X121286623Y-78497410D01*
X121287990Y-78498870D01*
X121287409Y-78500784D01*
X121285652Y-78501286D01*
X121183367Y-78480940D01*
X120982633Y-78480940D01*
X120880348Y-78501286D01*
X120878454Y-78500643D01*
X120878064Y-78498681D01*
X120879377Y-78497410D01*
X120886218Y-78495335D01*
X120894515Y-78490901D01*
X120901787Y-78484933D01*
X120907755Y-78477661D01*
X120912190Y-78469363D01*
X120914920Y-78460359D01*
X120915843Y-78450999D01*
X120914920Y-78441639D01*
X120912190Y-78432635D01*
X120907755Y-78424337D01*
X120901787Y-78417065D01*
X120894515Y-78411097D01*
X120886217Y-78406662D01*
X120877213Y-78403932D01*
X120867657Y-78402990D01*
X120866031Y-78401825D01*
X120866227Y-78399835D01*
X120867853Y-78399000D01*
X121298147Y-78399000D01*
X121299879Y-78400000D01*
G37*
G36*
X121287546Y-73899357D02*
G01*
X121287936Y-73901319D01*
X121286623Y-73902590D01*
X121279782Y-73904665D01*
X121271485Y-73909099D01*
X121264213Y-73915067D01*
X121258245Y-73922339D01*
X121253810Y-73930637D01*
X121251080Y-73939641D01*
X121250157Y-73949001D01*
X121251080Y-73958361D01*
X121253810Y-73967365D01*
X121258245Y-73975663D01*
X121264213Y-73982935D01*
X121271485Y-73988903D01*
X121279783Y-73993338D01*
X121288787Y-73996068D01*
X121298343Y-73997010D01*
X121299969Y-73998175D01*
X121299773Y-74000165D01*
X121298147Y-74001000D01*
X120867853Y-74001000D01*
X120866121Y-74000000D01*
X120866121Y-73998000D01*
X120867657Y-73997010D01*
X120877213Y-73996068D01*
X120886217Y-73993338D01*
X120894515Y-73988903D01*
X120901787Y-73982935D01*
X120907755Y-73975663D01*
X120912190Y-73967365D01*
X120914920Y-73958361D01*
X120915843Y-73949001D01*
X120914920Y-73939641D01*
X120912190Y-73930637D01*
X120907755Y-73922339D01*
X120901787Y-73915067D01*
X120894515Y-73909099D01*
X120886218Y-73904665D01*
X120879377Y-73902590D01*
X120878010Y-73901130D01*
X120878591Y-73899216D01*
X120880348Y-73898714D01*
X120982633Y-73919060D01*
X121183367Y-73919060D01*
X121285652Y-73898714D01*
X121287546Y-73899357D01*
G37*
G36*
X179478332Y-71043000D02*
G01*
X179478600Y-71044000D01*
X179478600Y-71119800D01*
X179477600Y-71121532D01*
X179476600Y-71121800D01*
X178003000Y-71121800D01*
X178001268Y-71120800D01*
X178001000Y-71119800D01*
X178001000Y-71044000D01*
X178002000Y-71042268D01*
X178003000Y-71042000D01*
X179476600Y-71042000D01*
X179478332Y-71043000D01*
G37*
G36*
X183897932Y-71043000D02*
G01*
X183898200Y-71044000D01*
X183898200Y-71119800D01*
X183897200Y-71121532D01*
X183896200Y-71121800D01*
X182422600Y-71121800D01*
X182420868Y-71120800D01*
X182420600Y-71119800D01*
X182420600Y-71044000D01*
X182421600Y-71042268D01*
X182422600Y-71042000D01*
X183896200Y-71042000D01*
X183897932Y-71043000D01*
G37*
G36*
X183897932Y-69747600D02*
G01*
X183898200Y-69748600D01*
X183898200Y-69824400D01*
X183897200Y-69826132D01*
X183896200Y-69826400D01*
X182422600Y-69826400D01*
X182420868Y-69825400D01*
X182420600Y-69824400D01*
X182420600Y-69748600D01*
X182421600Y-69746868D01*
X182422600Y-69746600D01*
X183896200Y-69746600D01*
X183897932Y-69747600D01*
G37*
G36*
X179478332Y-69747600D02*
G01*
X179478600Y-69748600D01*
X179478600Y-69824400D01*
X179477600Y-69826132D01*
X179476600Y-69826400D01*
X178003000Y-69826400D01*
X178001268Y-69825400D01*
X178001000Y-69824400D01*
X178001000Y-69748600D01*
X178002000Y-69746868D01*
X178003000Y-69746600D01*
X179476600Y-69746600D01*
X179478332Y-69747600D01*
G37*
M02*
