G04 #@! TF.GenerationSoftware,KiCad,Pcbnew,5.1.10-88a1d61d58~88~ubuntu20.04.1*
G04 #@! TF.CreationDate,2021-04-28T19:55:47-05:00*
G04 #@! TF.ProjectId,obi1,6f626931-2e6b-4696-9361-645f70636258,rev?*
G04 #@! TF.SameCoordinates,Original*
G04 #@! TF.FileFunction,Paste,Top*
G04 #@! TF.FilePolarity,Positive*
%FSLAX46Y46*%
G04 Gerber Fmt 4.6, Leading zero omitted, Abs format (unit mm)*
G04 Created by KiCad (PCBNEW 5.1.10-88a1d61d58~88~ubuntu20.04.1) date 2021-04-28 19:55:47*
%MOMM*%
%LPD*%
G01*
G04 APERTURE LIST*
%ADD10R,0.600000X0.350000*%
%ADD11R,0.350000X0.600000*%
%ADD12R,1.860000X3.190000*%
%ADD13R,1.860000X0.900000*%
%ADD14R,1.350000X0.400000*%
%ADD15R,1.400000X1.600000*%
%ADD16R,1.600000X1.900000*%
%ADD17R,0.600000X1.295000*%
%ADD18R,1.473200X0.355600*%
%ADD19R,1.475000X0.450000*%
%ADD20C,0.400000*%
%ADD21R,1.550000X0.650000*%
%ADD22R,1.550000X1.300000*%
%ADD23R,1.240000X1.290000*%
%ADD24R,1.371600X0.457200*%
G04 APERTURE END LIST*
D10*
X176430000Y-95330000D03*
X176430000Y-95830000D03*
X176430000Y-94830000D03*
X176430000Y-96330000D03*
X178750000Y-95330000D03*
X178750000Y-95830000D03*
X178750000Y-94830000D03*
X178750000Y-96330000D03*
D11*
X177090000Y-94670000D03*
X177590000Y-94670000D03*
X178090000Y-94670000D03*
X177090000Y-96490000D03*
X177590000Y-96490000D03*
X178090000Y-96490000D03*
D12*
X144965000Y-77470000D03*
D13*
X138815000Y-79770000D03*
X138815000Y-77470000D03*
X138815000Y-75170000D03*
D12*
X154635000Y-77673200D03*
D13*
X148485000Y-79973200D03*
X148485000Y-77673200D03*
X148485000Y-75373200D03*
D14*
X123758000Y-74900000D03*
X123758000Y-75550000D03*
X123758000Y-76200000D03*
X123758000Y-76850000D03*
X123758000Y-77500000D03*
D15*
X123533000Y-73000000D03*
D16*
X121083000Y-75000000D03*
X121083000Y-77400000D03*
D15*
X123533000Y-79400000D03*
G36*
G01*
X181395000Y-98880000D02*
X182345000Y-98880000D01*
G75*
G02*
X182595000Y-99130000I0J-250000D01*
G01*
X182595000Y-99805000D01*
G75*
G02*
X182345000Y-100055000I-250000J0D01*
G01*
X181395000Y-100055000D01*
G75*
G02*
X181145000Y-99805000I0J250000D01*
G01*
X181145000Y-99130000D01*
G75*
G02*
X181395000Y-98880000I250000J0D01*
G01*
G37*
G36*
G01*
X181395000Y-96805000D02*
X182345000Y-96805000D01*
G75*
G02*
X182595000Y-97055000I0J-250000D01*
G01*
X182595000Y-97730000D01*
G75*
G02*
X182345000Y-97980000I-250000J0D01*
G01*
X181395000Y-97980000D01*
G75*
G02*
X181145000Y-97730000I0J250000D01*
G01*
X181145000Y-97055000D01*
G75*
G02*
X181395000Y-96805000I250000J0D01*
G01*
G37*
G36*
G01*
X178360000Y-99985000D02*
X178360000Y-99035000D01*
G75*
G02*
X178610000Y-98785000I250000J0D01*
G01*
X179285000Y-98785000D01*
G75*
G02*
X179535000Y-99035000I0J-250000D01*
G01*
X179535000Y-99985000D01*
G75*
G02*
X179285000Y-100235000I-250000J0D01*
G01*
X178610000Y-100235000D01*
G75*
G02*
X178360000Y-99985000I0J250000D01*
G01*
G37*
G36*
G01*
X176285000Y-99985000D02*
X176285000Y-99035000D01*
G75*
G02*
X176535000Y-98785000I250000J0D01*
G01*
X177210000Y-98785000D01*
G75*
G02*
X177460000Y-99035000I0J-250000D01*
G01*
X177460000Y-99985000D01*
G75*
G02*
X177210000Y-100235000I-250000J0D01*
G01*
X176535000Y-100235000D01*
G75*
G02*
X176285000Y-99985000I0J250000D01*
G01*
G37*
D17*
X130360000Y-98488000D03*
X131160000Y-98488000D03*
X131960000Y-98488000D03*
X132760000Y-98488000D03*
X133560000Y-98488000D03*
X134360000Y-98488000D03*
X135160000Y-98488000D03*
X135960000Y-98488000D03*
X136760000Y-98488000D03*
X137560000Y-98488000D03*
X138360000Y-98488000D03*
X139160000Y-98488000D03*
X139960000Y-98488000D03*
X140760000Y-98488000D03*
X141560000Y-98488000D03*
X142360000Y-98488000D03*
X143160000Y-98488000D03*
X143960000Y-98488000D03*
X144760000Y-98488000D03*
X145560000Y-98488000D03*
X146360000Y-98488000D03*
X147160000Y-98488000D03*
X147160000Y-87032000D03*
X146360000Y-87032000D03*
X145560000Y-87032000D03*
X144760000Y-87032000D03*
X143960000Y-87032000D03*
X143160000Y-87032000D03*
X142360000Y-87032000D03*
X141560000Y-87032000D03*
X140760000Y-87032000D03*
X139960000Y-87032000D03*
X139160000Y-87032000D03*
X138360000Y-87032000D03*
X137560000Y-87032000D03*
X136760000Y-87032000D03*
X135960000Y-87032000D03*
X135160000Y-87032000D03*
X134360000Y-87032000D03*
X133560000Y-87032000D03*
X132760000Y-87032000D03*
X131960000Y-87032000D03*
X131160000Y-87032000D03*
X130360000Y-87032000D03*
G36*
G01*
X148024000Y-73119000D02*
X148024000Y-72169000D01*
G75*
G02*
X148274000Y-71919000I250000J0D01*
G01*
X148949000Y-71919000D01*
G75*
G02*
X149199000Y-72169000I0J-250000D01*
G01*
X149199000Y-73119000D01*
G75*
G02*
X148949000Y-73369000I-250000J0D01*
G01*
X148274000Y-73369000D01*
G75*
G02*
X148024000Y-73119000I0J250000D01*
G01*
G37*
G36*
G01*
X145949000Y-73119000D02*
X145949000Y-72169000D01*
G75*
G02*
X146199000Y-71919000I250000J0D01*
G01*
X146874000Y-71919000D01*
G75*
G02*
X147124000Y-72169000I0J-250000D01*
G01*
X147124000Y-73119000D01*
G75*
G02*
X146874000Y-73369000I-250000J0D01*
G01*
X146199000Y-73369000D01*
G75*
G02*
X145949000Y-73119000I0J250000D01*
G01*
G37*
G36*
G01*
X145067000Y-80925000D02*
X146017000Y-80925000D01*
G75*
G02*
X146267000Y-81175000I0J-250000D01*
G01*
X146267000Y-81850000D01*
G75*
G02*
X146017000Y-82100000I-250000J0D01*
G01*
X145067000Y-82100000D01*
G75*
G02*
X144817000Y-81850000I0J250000D01*
G01*
X144817000Y-81175000D01*
G75*
G02*
X145067000Y-80925000I250000J0D01*
G01*
G37*
G36*
G01*
X145067000Y-83000000D02*
X146017000Y-83000000D01*
G75*
G02*
X146267000Y-83250000I0J-250000D01*
G01*
X146267000Y-83925000D01*
G75*
G02*
X146017000Y-84175000I-250000J0D01*
G01*
X145067000Y-84175000D01*
G75*
G02*
X144817000Y-83925000I0J250000D01*
G01*
X144817000Y-83250000D01*
G75*
G02*
X145067000Y-83000000I250000J0D01*
G01*
G37*
G36*
G01*
X130613999Y-79140000D02*
X131514001Y-79140000D01*
G75*
G02*
X131764000Y-79389999I0J-249999D01*
G01*
X131764000Y-80090001D01*
G75*
G02*
X131514001Y-80340000I-249999J0D01*
G01*
X130613999Y-80340000D01*
G75*
G02*
X130364000Y-80090001I0J249999D01*
G01*
X130364000Y-79389999D01*
G75*
G02*
X130613999Y-79140000I249999J0D01*
G01*
G37*
G36*
G01*
X130613999Y-77140000D02*
X131514001Y-77140000D01*
G75*
G02*
X131764000Y-77389999I0J-249999D01*
G01*
X131764000Y-78090001D01*
G75*
G02*
X131514001Y-78340000I-249999J0D01*
G01*
X130613999Y-78340000D01*
G75*
G02*
X130364000Y-78090001I0J249999D01*
G01*
X130364000Y-77389999D01*
G75*
G02*
X130613999Y-77140000I249999J0D01*
G01*
G37*
D18*
X180213000Y-83972400D03*
X180213000Y-83312000D03*
X180213000Y-82677000D03*
X180213000Y-82016600D03*
X180213000Y-81356200D03*
X180213000Y-80721200D03*
X180213000Y-80060800D03*
X180213000Y-79425800D03*
X180213000Y-78765400D03*
X180213000Y-78105000D03*
X180213000Y-77470000D03*
X180213000Y-76809600D03*
X186055000Y-76809600D03*
X186055000Y-77470000D03*
X186055000Y-78105000D03*
X186055000Y-78765400D03*
X186055000Y-79425800D03*
X186055000Y-80060800D03*
X186055000Y-80721200D03*
X186055000Y-81356200D03*
X186055000Y-82016600D03*
X186055000Y-82677000D03*
X186055000Y-83312000D03*
X186055000Y-83972400D03*
D19*
X179942000Y-133522000D03*
X179942000Y-132872000D03*
X179942000Y-132222000D03*
X179942000Y-131572000D03*
X179942000Y-130922000D03*
X179942000Y-130272000D03*
X179942000Y-129622000D03*
X185818000Y-129622000D03*
X185818000Y-130272000D03*
X185818000Y-130922000D03*
X185818000Y-131572000D03*
X185818000Y-132222000D03*
X185818000Y-132872000D03*
X185818000Y-133522000D03*
D20*
X167908000Y-95110000D03*
X167908000Y-96110000D03*
X167908000Y-97110000D03*
X167908000Y-98110000D03*
X167908000Y-99110000D03*
X167908000Y-100110000D03*
X167908000Y-101110000D03*
X167908000Y-102110000D03*
X167908000Y-103110000D03*
X163908000Y-100110000D03*
X163908000Y-99110000D03*
X163908000Y-98110000D03*
X163908000Y-97110000D03*
X162908000Y-97110000D03*
X162908000Y-98110000D03*
X162908000Y-99110000D03*
X162908000Y-100110000D03*
X166908000Y-103110000D03*
X166908000Y-102110000D03*
X166908000Y-101110000D03*
X166908000Y-100110000D03*
X166908000Y-99110000D03*
X166908000Y-98110000D03*
X166908000Y-97110000D03*
X166908000Y-96110000D03*
X166908000Y-95110000D03*
X165908000Y-95110000D03*
X165908000Y-96110000D03*
X165908000Y-97110000D03*
X165908000Y-98110000D03*
X165908000Y-99110000D03*
X165908000Y-100110000D03*
X165908000Y-101110000D03*
X165908000Y-102110000D03*
X165908000Y-103110000D03*
X161908000Y-100110000D03*
X161908000Y-99110000D03*
X161908000Y-98110000D03*
X161908000Y-97110000D03*
X160908000Y-97110000D03*
X160908000Y-98110000D03*
X160908000Y-99110000D03*
X160908000Y-100110000D03*
X164908000Y-103110000D03*
X164908000Y-102110000D03*
X164908000Y-101110000D03*
X164908000Y-100110000D03*
X164908000Y-99110000D03*
X164908000Y-98110000D03*
X164908000Y-97110000D03*
X164908000Y-96110000D03*
X164908000Y-95110000D03*
X163908000Y-96110000D03*
X162908000Y-96110000D03*
X161908000Y-96110000D03*
X163908000Y-95110000D03*
X162908000Y-95110000D03*
X161908000Y-95110000D03*
X160908000Y-95110000D03*
X163908000Y-103110000D03*
X163908000Y-102110000D03*
X160908000Y-94110000D03*
X161908000Y-94110000D03*
X162908000Y-94110000D03*
X163908000Y-94110000D03*
X160908000Y-96110000D03*
X163908000Y-93110000D03*
X162908000Y-93110000D03*
X161908000Y-93110000D03*
X160908000Y-93110000D03*
X163908000Y-101110000D03*
X163908000Y-92110000D03*
X162908000Y-92110000D03*
X161908000Y-92110000D03*
X160908000Y-92110000D03*
X159908000Y-100110000D03*
X162908000Y-103110000D03*
X161908000Y-103110000D03*
X160908000Y-103110000D03*
X159908000Y-103110000D03*
X158908000Y-103110000D03*
X162908000Y-102110000D03*
X161908000Y-102110000D03*
X160908000Y-102110000D03*
X159908000Y-102110000D03*
X158908000Y-102110000D03*
X158908000Y-101110000D03*
X159908000Y-101110000D03*
X160908000Y-101110000D03*
X161908000Y-101110000D03*
X162908000Y-101110000D03*
X158908000Y-100110000D03*
X157908000Y-100110000D03*
X156908000Y-100110000D03*
X159908000Y-99110000D03*
X157908000Y-103110000D03*
X156908000Y-103110000D03*
X157908000Y-102110000D03*
X156908000Y-102110000D03*
X157908000Y-101110000D03*
X156908000Y-101110000D03*
X158908000Y-99110000D03*
X157908000Y-99110000D03*
X156908000Y-99110000D03*
X159908000Y-98110000D03*
X158908000Y-98110000D03*
X157908000Y-98110000D03*
X156908000Y-98110000D03*
X159908000Y-97110000D03*
X158908000Y-97110000D03*
X157908000Y-97110000D03*
X156908000Y-97110000D03*
X159908000Y-96110000D03*
X158908000Y-96110000D03*
X157908000Y-96110000D03*
X156908000Y-96110000D03*
X159908000Y-95110000D03*
X158908000Y-95110000D03*
X157908000Y-95110000D03*
X156908000Y-95110000D03*
X159908000Y-94110000D03*
X158908000Y-94110000D03*
X157908000Y-94110000D03*
X156908000Y-94110000D03*
X159908000Y-93110000D03*
X158908000Y-93110000D03*
X157908000Y-93110000D03*
X156908000Y-93110000D03*
X156908000Y-92110000D03*
X157908000Y-92110000D03*
X158908000Y-92110000D03*
X159908000Y-92110000D03*
X155908000Y-103110000D03*
X154908000Y-103110000D03*
X153908000Y-103110000D03*
X152908000Y-103110000D03*
X152908000Y-102110000D03*
X152908000Y-101110000D03*
X152908000Y-100110000D03*
X153908000Y-102110000D03*
X153908000Y-101110000D03*
X153908000Y-100110000D03*
X154908000Y-100110000D03*
X154908000Y-101110000D03*
X154908000Y-102110000D03*
X155908000Y-102110000D03*
X155908000Y-101110000D03*
X155908000Y-100110000D03*
X155908000Y-99110000D03*
X154908000Y-99110000D03*
X153908000Y-99110000D03*
X152908000Y-99110000D03*
X152908000Y-98110000D03*
X153908000Y-98110000D03*
X154908000Y-98110000D03*
X155908000Y-98110000D03*
X155908000Y-97110000D03*
X154908000Y-97110000D03*
X153908000Y-97110000D03*
X152908000Y-97110000D03*
X153908000Y-96110000D03*
X154908000Y-96110000D03*
X155908000Y-96110000D03*
X155908000Y-95110000D03*
X154908000Y-95110000D03*
X153908000Y-95110000D03*
X153908000Y-94110000D03*
X154908000Y-94110000D03*
X155908000Y-94110000D03*
X155908000Y-93110000D03*
X154908000Y-93110000D03*
X153908000Y-93110000D03*
X167908000Y-92110000D03*
X167908000Y-93110000D03*
X167908000Y-94110000D03*
X166908000Y-94110000D03*
X166908000Y-93110000D03*
X166908000Y-92110000D03*
X165908000Y-92110000D03*
X165908000Y-93110000D03*
X165908000Y-94110000D03*
X164908000Y-94110000D03*
X164908000Y-93110000D03*
X164908000Y-92110000D03*
X167908000Y-90110000D03*
X167908000Y-91110000D03*
X166908000Y-91110000D03*
X166908000Y-90110000D03*
X164908000Y-91110000D03*
X165908000Y-91110000D03*
X165908000Y-90110000D03*
X164908000Y-90110000D03*
X163908000Y-90110000D03*
X163908000Y-91110000D03*
X162908000Y-91110000D03*
X162908000Y-90110000D03*
X161908000Y-91110000D03*
X161908000Y-90110000D03*
X155908000Y-92110000D03*
X154908000Y-92110000D03*
X153908000Y-92110000D03*
X160908000Y-91110000D03*
X159908000Y-91110000D03*
X158908000Y-91110000D03*
X157908000Y-91110000D03*
X156908000Y-91110000D03*
X155908000Y-91110000D03*
X154908000Y-91110000D03*
X153908000Y-91110000D03*
X160908000Y-90110000D03*
X159908000Y-90110000D03*
X158908000Y-90110000D03*
X157908000Y-90110000D03*
X156908000Y-90110000D03*
X155908000Y-90110000D03*
X154908000Y-90110000D03*
X153908000Y-90110000D03*
X155908000Y-89110000D03*
X154908000Y-89110000D03*
X153908000Y-89110000D03*
X156908000Y-89110000D03*
X157908000Y-89110000D03*
X158908000Y-89110000D03*
X159908000Y-89110000D03*
X160908000Y-89110000D03*
X161908000Y-89110000D03*
X162908000Y-89110000D03*
X163908000Y-89110000D03*
X164908000Y-89110000D03*
X165908000Y-89110000D03*
X166908000Y-89110000D03*
X167908000Y-89110000D03*
X152908000Y-96110000D03*
X152908000Y-95110000D03*
X152908000Y-94110000D03*
X152908000Y-93110000D03*
X152908000Y-92110000D03*
X152908000Y-91110000D03*
X152908000Y-90110000D03*
X152908000Y-89110000D03*
X167908000Y-88110000D03*
X166908000Y-88110000D03*
X165908000Y-88110000D03*
X164908000Y-88110000D03*
X163908000Y-88110000D03*
X162908000Y-88110000D03*
X161908000Y-88110000D03*
X160908000Y-88110000D03*
X159908000Y-88110000D03*
X158908000Y-88110000D03*
X157908000Y-88110000D03*
X156908000Y-88110000D03*
X155908000Y-88110000D03*
X154908000Y-88110000D03*
X153908000Y-88110000D03*
X152908000Y-88110000D03*
D21*
X164965000Y-110617000D03*
X164965000Y-111887000D03*
X164965000Y-113157000D03*
X164965000Y-114427000D03*
X157615000Y-114427000D03*
X157615000Y-113157000D03*
X157615000Y-111887000D03*
X157615000Y-110617000D03*
D22*
X159347000Y-132806000D03*
X159347000Y-128306000D03*
X167297000Y-128306000D03*
X167297000Y-132806000D03*
X143285000Y-108820000D03*
X143285000Y-104320000D03*
X135335000Y-104320000D03*
X135335000Y-108820000D03*
D23*
X162255200Y-83464400D03*
X160005200Y-83464400D03*
X162255200Y-80924400D03*
X160005200Y-80924400D03*
D24*
X178739800Y-71399400D03*
X178739800Y-70764400D03*
X178739800Y-70104000D03*
X178739800Y-69469000D03*
X183159400Y-69469000D03*
X183159400Y-70104000D03*
X183159400Y-70764400D03*
X183159400Y-71399400D03*
D18*
X185674000Y-114071400D03*
X185674000Y-113411000D03*
X185674000Y-112776000D03*
X185674000Y-112115600D03*
X185674000Y-111455200D03*
X185674000Y-110820200D03*
X185674000Y-110159800D03*
X185674000Y-109524800D03*
X185674000Y-108864400D03*
X185674000Y-108204000D03*
X185674000Y-107569000D03*
X185674000Y-106908600D03*
X179832000Y-106908600D03*
X179832000Y-107569000D03*
X179832000Y-108204000D03*
X179832000Y-108864400D03*
X179832000Y-109524800D03*
X179832000Y-110159800D03*
X179832000Y-110820200D03*
X179832000Y-111455200D03*
X179832000Y-112115600D03*
X179832000Y-112776000D03*
X179832000Y-113411000D03*
X179832000Y-114071400D03*
G36*
G01*
X131539000Y-75031000D02*
X130589000Y-75031000D01*
G75*
G02*
X130339000Y-74781000I0J250000D01*
G01*
X130339000Y-74106000D01*
G75*
G02*
X130589000Y-73856000I250000J0D01*
G01*
X131539000Y-73856000D01*
G75*
G02*
X131789000Y-74106000I0J-250000D01*
G01*
X131789000Y-74781000D01*
G75*
G02*
X131539000Y-75031000I-250000J0D01*
G01*
G37*
G36*
G01*
X131539000Y-72956000D02*
X130589000Y-72956000D01*
G75*
G02*
X130339000Y-72706000I0J250000D01*
G01*
X130339000Y-72031000D01*
G75*
G02*
X130589000Y-71781000I250000J0D01*
G01*
X131539000Y-71781000D01*
G75*
G02*
X131789000Y-72031000I0J-250000D01*
G01*
X131789000Y-72706000D01*
G75*
G02*
X131539000Y-72956000I-250000J0D01*
G01*
G37*
G36*
G01*
X136335000Y-80110000D02*
X135385000Y-80110000D01*
G75*
G02*
X135135000Y-79860000I0J250000D01*
G01*
X135135000Y-79185000D01*
G75*
G02*
X135385000Y-78935000I250000J0D01*
G01*
X136335000Y-78935000D01*
G75*
G02*
X136585000Y-79185000I0J-250000D01*
G01*
X136585000Y-79860000D01*
G75*
G02*
X136335000Y-80110000I-250000J0D01*
G01*
G37*
G36*
G01*
X136335000Y-82185000D02*
X135385000Y-82185000D01*
G75*
G02*
X135135000Y-81935000I0J250000D01*
G01*
X135135000Y-81260000D01*
G75*
G02*
X135385000Y-81010000I250000J0D01*
G01*
X136335000Y-81010000D01*
G75*
G02*
X136585000Y-81260000I0J-250000D01*
G01*
X136585000Y-81935000D01*
G75*
G02*
X136335000Y-82185000I-250000J0D01*
G01*
G37*
G36*
G01*
X138118000Y-73119000D02*
X138118000Y-72169000D01*
G75*
G02*
X138368000Y-71919000I250000J0D01*
G01*
X139043000Y-71919000D01*
G75*
G02*
X139293000Y-72169000I0J-250000D01*
G01*
X139293000Y-73119000D01*
G75*
G02*
X139043000Y-73369000I-250000J0D01*
G01*
X138368000Y-73369000D01*
G75*
G02*
X138118000Y-73119000I0J250000D01*
G01*
G37*
G36*
G01*
X136043000Y-73119000D02*
X136043000Y-72169000D01*
G75*
G02*
X136293000Y-71919000I250000J0D01*
G01*
X136968000Y-71919000D01*
G75*
G02*
X137218000Y-72169000I0J-250000D01*
G01*
X137218000Y-73119000D01*
G75*
G02*
X136968000Y-73369000I-250000J0D01*
G01*
X136293000Y-73369000D01*
G75*
G02*
X136043000Y-73119000I0J250000D01*
G01*
G37*
G36*
G01*
X162915000Y-76233000D02*
X162915000Y-77183000D01*
G75*
G02*
X162665000Y-77433000I-250000J0D01*
G01*
X161990000Y-77433000D01*
G75*
G02*
X161740000Y-77183000I0J250000D01*
G01*
X161740000Y-76233000D01*
G75*
G02*
X161990000Y-75983000I250000J0D01*
G01*
X162665000Y-75983000D01*
G75*
G02*
X162915000Y-76233000I0J-250000D01*
G01*
G37*
G36*
G01*
X160840000Y-76233000D02*
X160840000Y-77183000D01*
G75*
G02*
X160590000Y-77433000I-250000J0D01*
G01*
X159915000Y-77433000D01*
G75*
G02*
X159665000Y-77183000I0J250000D01*
G01*
X159665000Y-76233000D01*
G75*
G02*
X159915000Y-75983000I250000J0D01*
G01*
X160590000Y-75983000D01*
G75*
G02*
X160840000Y-76233000I0J-250000D01*
G01*
G37*
G36*
G01*
X155178100Y-127439400D02*
X155178100Y-128389400D01*
G75*
G02*
X154928100Y-128639400I-250000J0D01*
G01*
X154253100Y-128639400D01*
G75*
G02*
X154003100Y-128389400I0J250000D01*
G01*
X154003100Y-127439400D01*
G75*
G02*
X154253100Y-127189400I250000J0D01*
G01*
X154928100Y-127189400D01*
G75*
G02*
X155178100Y-127439400I0J-250000D01*
G01*
G37*
G36*
G01*
X157253100Y-127439400D02*
X157253100Y-128389400D01*
G75*
G02*
X157003100Y-128639400I-250000J0D01*
G01*
X156328100Y-128639400D01*
G75*
G02*
X156078100Y-128389400I0J250000D01*
G01*
X156078100Y-127439400D01*
G75*
G02*
X156328100Y-127189400I250000J0D01*
G01*
X157003100Y-127189400D01*
G75*
G02*
X157253100Y-127439400I0J-250000D01*
G01*
G37*
G36*
G01*
X154100003Y-107382500D02*
X151899997Y-107382500D01*
G75*
G02*
X151650000Y-107132503I0J249997D01*
G01*
X151650000Y-106307497D01*
G75*
G02*
X151899997Y-106057500I249997J0D01*
G01*
X154100003Y-106057500D01*
G75*
G02*
X154350000Y-106307497I0J-249997D01*
G01*
X154350000Y-107132503D01*
G75*
G02*
X154100003Y-107382500I-249997J0D01*
G01*
G37*
G36*
G01*
X154100003Y-110507500D02*
X151899997Y-110507500D01*
G75*
G02*
X151650000Y-110257503I0J249997D01*
G01*
X151650000Y-109432497D01*
G75*
G02*
X151899997Y-109182500I249997J0D01*
G01*
X154100003Y-109182500D01*
G75*
G02*
X154350000Y-109432497I0J-249997D01*
G01*
X154350000Y-110257503D01*
G75*
G02*
X154100003Y-110507500I-249997J0D01*
G01*
G37*
G36*
G01*
X149975000Y-109345000D02*
X149025000Y-109345000D01*
G75*
G02*
X148775000Y-109095000I0J250000D01*
G01*
X148775000Y-108420000D01*
G75*
G02*
X149025000Y-108170000I250000J0D01*
G01*
X149975000Y-108170000D01*
G75*
G02*
X150225000Y-108420000I0J-250000D01*
G01*
X150225000Y-109095000D01*
G75*
G02*
X149975000Y-109345000I-250000J0D01*
G01*
G37*
G36*
G01*
X149975000Y-107270000D02*
X149025000Y-107270000D01*
G75*
G02*
X148775000Y-107020000I0J250000D01*
G01*
X148775000Y-106345000D01*
G75*
G02*
X149025000Y-106095000I250000J0D01*
G01*
X149975000Y-106095000D01*
G75*
G02*
X150225000Y-106345000I0J-250000D01*
G01*
X150225000Y-107020000D01*
G75*
G02*
X149975000Y-107270000I-250000J0D01*
G01*
G37*
G36*
G01*
X148900000Y-104875000D02*
X148900000Y-104565000D01*
G75*
G02*
X149055000Y-104410000I155000J0D01*
G01*
X149480000Y-104410000D01*
G75*
G02*
X149635000Y-104565000I0J-155000D01*
G01*
X149635000Y-104875000D01*
G75*
G02*
X149480000Y-105030000I-155000J0D01*
G01*
X149055000Y-105030000D01*
G75*
G02*
X148900000Y-104875000I0J155000D01*
G01*
G37*
G36*
G01*
X147765000Y-104875000D02*
X147765000Y-104565000D01*
G75*
G02*
X147920000Y-104410000I155000J0D01*
G01*
X148345000Y-104410000D01*
G75*
G02*
X148500000Y-104565000I0J-155000D01*
G01*
X148500000Y-104875000D01*
G75*
G02*
X148345000Y-105030000I-155000J0D01*
G01*
X147920000Y-105030000D01*
G75*
G02*
X147765000Y-104875000I0J155000D01*
G01*
G37*
G36*
G01*
X147765000Y-103075000D02*
X147765000Y-102765000D01*
G75*
G02*
X147920000Y-102610000I155000J0D01*
G01*
X148345000Y-102610000D01*
G75*
G02*
X148500000Y-102765000I0J-155000D01*
G01*
X148500000Y-103075000D01*
G75*
G02*
X148345000Y-103230000I-155000J0D01*
G01*
X147920000Y-103230000D01*
G75*
G02*
X147765000Y-103075000I0J155000D01*
G01*
G37*
G36*
G01*
X148900000Y-103075000D02*
X148900000Y-102765000D01*
G75*
G02*
X149055000Y-102610000I155000J0D01*
G01*
X149480000Y-102610000D01*
G75*
G02*
X149635000Y-102765000I0J-155000D01*
G01*
X149635000Y-103075000D01*
G75*
G02*
X149480000Y-103230000I-155000J0D01*
G01*
X149055000Y-103230000D01*
G75*
G02*
X148900000Y-103075000I0J155000D01*
G01*
G37*
G36*
G01*
X125377000Y-91105000D02*
X125067000Y-91105000D01*
G75*
G02*
X124912000Y-90950000I0J155000D01*
G01*
X124912000Y-90525000D01*
G75*
G02*
X125067000Y-90370000I155000J0D01*
G01*
X125377000Y-90370000D01*
G75*
G02*
X125532000Y-90525000I0J-155000D01*
G01*
X125532000Y-90950000D01*
G75*
G02*
X125377000Y-91105000I-155000J0D01*
G01*
G37*
G36*
G01*
X125377000Y-89970000D02*
X125067000Y-89970000D01*
G75*
G02*
X124912000Y-89815000I0J155000D01*
G01*
X124912000Y-89390000D01*
G75*
G02*
X125067000Y-89235000I155000J0D01*
G01*
X125377000Y-89235000D01*
G75*
G02*
X125532000Y-89390000I0J-155000D01*
G01*
X125532000Y-89815000D01*
G75*
G02*
X125377000Y-89970000I-155000J0D01*
G01*
G37*
G36*
G01*
X141640000Y-83385000D02*
X141640000Y-84335000D01*
G75*
G02*
X141390000Y-84585000I-250000J0D01*
G01*
X140715000Y-84585000D01*
G75*
G02*
X140465000Y-84335000I0J250000D01*
G01*
X140465000Y-83385000D01*
G75*
G02*
X140715000Y-83135000I250000J0D01*
G01*
X141390000Y-83135000D01*
G75*
G02*
X141640000Y-83385000I0J-250000D01*
G01*
G37*
G36*
G01*
X143715000Y-83385000D02*
X143715000Y-84335000D01*
G75*
G02*
X143465000Y-84585000I-250000J0D01*
G01*
X142790000Y-84585000D01*
G75*
G02*
X142540000Y-84335000I0J250000D01*
G01*
X142540000Y-83385000D01*
G75*
G02*
X142790000Y-83135000I250000J0D01*
G01*
X143465000Y-83135000D01*
G75*
G02*
X143715000Y-83385000I0J-250000D01*
G01*
G37*
G36*
G01*
X139325000Y-84895000D02*
X139015000Y-84895000D01*
G75*
G02*
X138860000Y-84740000I0J155000D01*
G01*
X138860000Y-84315000D01*
G75*
G02*
X139015000Y-84160000I155000J0D01*
G01*
X139325000Y-84160000D01*
G75*
G02*
X139480000Y-84315000I0J-155000D01*
G01*
X139480000Y-84740000D01*
G75*
G02*
X139325000Y-84895000I-155000J0D01*
G01*
G37*
G36*
G01*
X139325000Y-83760000D02*
X139015000Y-83760000D01*
G75*
G02*
X138860000Y-83605000I0J155000D01*
G01*
X138860000Y-83180000D01*
G75*
G02*
X139015000Y-83025000I155000J0D01*
G01*
X139325000Y-83025000D01*
G75*
G02*
X139480000Y-83180000I0J-155000D01*
G01*
X139480000Y-83605000D01*
G75*
G02*
X139325000Y-83760000I-155000J0D01*
G01*
G37*
G36*
G01*
X138185000Y-100455000D02*
X138495000Y-100455000D01*
G75*
G02*
X138650000Y-100610000I0J-155000D01*
G01*
X138650000Y-101035000D01*
G75*
G02*
X138495000Y-101190000I-155000J0D01*
G01*
X138185000Y-101190000D01*
G75*
G02*
X138030000Y-101035000I0J155000D01*
G01*
X138030000Y-100610000D01*
G75*
G02*
X138185000Y-100455000I155000J0D01*
G01*
G37*
G36*
G01*
X138185000Y-101590000D02*
X138495000Y-101590000D01*
G75*
G02*
X138650000Y-101745000I0J-155000D01*
G01*
X138650000Y-102170000D01*
G75*
G02*
X138495000Y-102325000I-155000J0D01*
G01*
X138185000Y-102325000D01*
G75*
G02*
X138030000Y-102170000I0J155000D01*
G01*
X138030000Y-101745000D01*
G75*
G02*
X138185000Y-101590000I155000J0D01*
G01*
G37*
G36*
G01*
X134940000Y-100725000D02*
X134940000Y-101675000D01*
G75*
G02*
X134690000Y-101925000I-250000J0D01*
G01*
X134015000Y-101925000D01*
G75*
G02*
X133765000Y-101675000I0J250000D01*
G01*
X133765000Y-100725000D01*
G75*
G02*
X134015000Y-100475000I250000J0D01*
G01*
X134690000Y-100475000D01*
G75*
G02*
X134940000Y-100725000I0J-250000D01*
G01*
G37*
G36*
G01*
X137015000Y-100725000D02*
X137015000Y-101675000D01*
G75*
G02*
X136765000Y-101925000I-250000J0D01*
G01*
X136090000Y-101925000D01*
G75*
G02*
X135840000Y-101675000I0J250000D01*
G01*
X135840000Y-100725000D01*
G75*
G02*
X136090000Y-100475000I250000J0D01*
G01*
X136765000Y-100475000D01*
G75*
G02*
X137015000Y-100725000I0J-250000D01*
G01*
G37*
G36*
G01*
X188003200Y-69978700D02*
X187053200Y-69978700D01*
G75*
G02*
X186803200Y-69728700I0J250000D01*
G01*
X186803200Y-69053700D01*
G75*
G02*
X187053200Y-68803700I250000J0D01*
G01*
X188003200Y-68803700D01*
G75*
G02*
X188253200Y-69053700I0J-250000D01*
G01*
X188253200Y-69728700D01*
G75*
G02*
X188003200Y-69978700I-250000J0D01*
G01*
G37*
G36*
G01*
X188003200Y-67903700D02*
X187053200Y-67903700D01*
G75*
G02*
X186803200Y-67653700I0J250000D01*
G01*
X186803200Y-66978700D01*
G75*
G02*
X187053200Y-66728700I250000J0D01*
G01*
X188003200Y-66728700D01*
G75*
G02*
X188253200Y-66978700I0J-250000D01*
G01*
X188253200Y-67653700D01*
G75*
G02*
X188003200Y-67903700I-250000J0D01*
G01*
G37*
G36*
G01*
X190924200Y-67879900D02*
X189974200Y-67879900D01*
G75*
G02*
X189724200Y-67629900I0J250000D01*
G01*
X189724200Y-66954900D01*
G75*
G02*
X189974200Y-66704900I250000J0D01*
G01*
X190924200Y-66704900D01*
G75*
G02*
X191174200Y-66954900I0J-250000D01*
G01*
X191174200Y-67629900D01*
G75*
G02*
X190924200Y-67879900I-250000J0D01*
G01*
G37*
G36*
G01*
X190924200Y-69954900D02*
X189974200Y-69954900D01*
G75*
G02*
X189724200Y-69704900I0J250000D01*
G01*
X189724200Y-69029900D01*
G75*
G02*
X189974200Y-68779900I250000J0D01*
G01*
X190924200Y-68779900D01*
G75*
G02*
X191174200Y-69029900I0J-250000D01*
G01*
X191174200Y-69704900D01*
G75*
G02*
X190924200Y-69954900I-250000J0D01*
G01*
G37*
G36*
G01*
X175826000Y-80551000D02*
X175826000Y-81501000D01*
G75*
G02*
X175576000Y-81751000I-250000J0D01*
G01*
X174901000Y-81751000D01*
G75*
G02*
X174651000Y-81501000I0J250000D01*
G01*
X174651000Y-80551000D01*
G75*
G02*
X174901000Y-80301000I250000J0D01*
G01*
X175576000Y-80301000D01*
G75*
G02*
X175826000Y-80551000I0J-250000D01*
G01*
G37*
G36*
G01*
X177901000Y-80551000D02*
X177901000Y-81501000D01*
G75*
G02*
X177651000Y-81751000I-250000J0D01*
G01*
X176976000Y-81751000D01*
G75*
G02*
X176726000Y-81501000I0J250000D01*
G01*
X176726000Y-80551000D01*
G75*
G02*
X176976000Y-80301000I250000J0D01*
G01*
X177651000Y-80301000D01*
G75*
G02*
X177901000Y-80551000I0J-250000D01*
G01*
G37*
G36*
G01*
X175318000Y-111539000D02*
X175318000Y-112489000D01*
G75*
G02*
X175068000Y-112739000I-250000J0D01*
G01*
X174393000Y-112739000D01*
G75*
G02*
X174143000Y-112489000I0J250000D01*
G01*
X174143000Y-111539000D01*
G75*
G02*
X174393000Y-111289000I250000J0D01*
G01*
X175068000Y-111289000D01*
G75*
G02*
X175318000Y-111539000I0J-250000D01*
G01*
G37*
G36*
G01*
X177393000Y-111539000D02*
X177393000Y-112489000D01*
G75*
G02*
X177143000Y-112739000I-250000J0D01*
G01*
X176468000Y-112739000D01*
G75*
G02*
X176218000Y-112489000I0J250000D01*
G01*
X176218000Y-111539000D01*
G75*
G02*
X176468000Y-111289000I250000J0D01*
G01*
X177143000Y-111289000D01*
G75*
G02*
X177393000Y-111539000I0J-250000D01*
G01*
G37*
G36*
G01*
X177211000Y-83157000D02*
X177211000Y-83467000D01*
G75*
G02*
X177056000Y-83622000I-155000J0D01*
G01*
X176631000Y-83622000D01*
G75*
G02*
X176476000Y-83467000I0J155000D01*
G01*
X176476000Y-83157000D01*
G75*
G02*
X176631000Y-83002000I155000J0D01*
G01*
X177056000Y-83002000D01*
G75*
G02*
X177211000Y-83157000I0J-155000D01*
G01*
G37*
G36*
G01*
X176076000Y-83157000D02*
X176076000Y-83467000D01*
G75*
G02*
X175921000Y-83622000I-155000J0D01*
G01*
X175496000Y-83622000D01*
G75*
G02*
X175341000Y-83467000I0J155000D01*
G01*
X175341000Y-83157000D01*
G75*
G02*
X175496000Y-83002000I155000J0D01*
G01*
X175921000Y-83002000D01*
G75*
G02*
X176076000Y-83157000I0J-155000D01*
G01*
G37*
G36*
G01*
X175568000Y-114145000D02*
X175568000Y-114455000D01*
G75*
G02*
X175413000Y-114610000I-155000J0D01*
G01*
X174988000Y-114610000D01*
G75*
G02*
X174833000Y-114455000I0J155000D01*
G01*
X174833000Y-114145000D01*
G75*
G02*
X174988000Y-113990000I155000J0D01*
G01*
X175413000Y-113990000D01*
G75*
G02*
X175568000Y-114145000I0J-155000D01*
G01*
G37*
G36*
G01*
X176703000Y-114145000D02*
X176703000Y-114455000D01*
G75*
G02*
X176548000Y-114610000I-155000J0D01*
G01*
X176123000Y-114610000D01*
G75*
G02*
X175968000Y-114455000I0J155000D01*
G01*
X175968000Y-114145000D01*
G75*
G02*
X176123000Y-113990000I155000J0D01*
G01*
X176548000Y-113990000D01*
G75*
G02*
X176703000Y-114145000I0J-155000D01*
G01*
G37*
G36*
G01*
X185593000Y-115161000D02*
X185593000Y-115471000D01*
G75*
G02*
X185438000Y-115626000I-155000J0D01*
G01*
X185013000Y-115626000D01*
G75*
G02*
X184858000Y-115471000I0J155000D01*
G01*
X184858000Y-115161000D01*
G75*
G02*
X185013000Y-115006000I155000J0D01*
G01*
X185438000Y-115006000D01*
G75*
G02*
X185593000Y-115161000I0J-155000D01*
G01*
G37*
G36*
G01*
X184458000Y-115161000D02*
X184458000Y-115471000D01*
G75*
G02*
X184303000Y-115626000I-155000J0D01*
G01*
X183878000Y-115626000D01*
G75*
G02*
X183723000Y-115471000I0J155000D01*
G01*
X183723000Y-115161000D01*
G75*
G02*
X183878000Y-115006000I155000J0D01*
G01*
X184303000Y-115006000D01*
G75*
G02*
X184458000Y-115161000I0J-155000D01*
G01*
G37*
G36*
G01*
X179549500Y-117884000D02*
X179074500Y-117884000D01*
G75*
G02*
X178837000Y-117646500I0J237500D01*
G01*
X178837000Y-117071500D01*
G75*
G02*
X179074500Y-116834000I237500J0D01*
G01*
X179549500Y-116834000D01*
G75*
G02*
X179787000Y-117071500I0J-237500D01*
G01*
X179787000Y-117646500D01*
G75*
G02*
X179549500Y-117884000I-237500J0D01*
G01*
G37*
G36*
G01*
X179549500Y-119634000D02*
X179074500Y-119634000D01*
G75*
G02*
X178837000Y-119396500I0J237500D01*
G01*
X178837000Y-118821500D01*
G75*
G02*
X179074500Y-118584000I237500J0D01*
G01*
X179549500Y-118584000D01*
G75*
G02*
X179787000Y-118821500I0J-237500D01*
G01*
X179787000Y-119396500D01*
G75*
G02*
X179549500Y-119634000I-237500J0D01*
G01*
G37*
G36*
G01*
X133400000Y-129695500D02*
X133400000Y-129220500D01*
G75*
G02*
X133637500Y-128983000I237500J0D01*
G01*
X134212500Y-128983000D01*
G75*
G02*
X134450000Y-129220500I0J-237500D01*
G01*
X134450000Y-129695500D01*
G75*
G02*
X134212500Y-129933000I-237500J0D01*
G01*
X133637500Y-129933000D01*
G75*
G02*
X133400000Y-129695500I0J237500D01*
G01*
G37*
G36*
G01*
X135150000Y-129695500D02*
X135150000Y-129220500D01*
G75*
G02*
X135387500Y-128983000I237500J0D01*
G01*
X135962500Y-128983000D01*
G75*
G02*
X136200000Y-129220500I0J-237500D01*
G01*
X136200000Y-129695500D01*
G75*
G02*
X135962500Y-129933000I-237500J0D01*
G01*
X135387500Y-129933000D01*
G75*
G02*
X135150000Y-129695500I0J237500D01*
G01*
G37*
G36*
G01*
X133380000Y-127195500D02*
X133380000Y-126720500D01*
G75*
G02*
X133617500Y-126483000I237500J0D01*
G01*
X134192500Y-126483000D01*
G75*
G02*
X134430000Y-126720500I0J-237500D01*
G01*
X134430000Y-127195500D01*
G75*
G02*
X134192500Y-127433000I-237500J0D01*
G01*
X133617500Y-127433000D01*
G75*
G02*
X133380000Y-127195500I0J237500D01*
G01*
G37*
G36*
G01*
X135130000Y-127195500D02*
X135130000Y-126720500D01*
G75*
G02*
X135367500Y-126483000I237500J0D01*
G01*
X135942500Y-126483000D01*
G75*
G02*
X136180000Y-126720500I0J-237500D01*
G01*
X136180000Y-127195500D01*
G75*
G02*
X135942500Y-127433000I-237500J0D01*
G01*
X135367500Y-127433000D01*
G75*
G02*
X135130000Y-127195500I0J237500D01*
G01*
G37*
G36*
G01*
X135130000Y-124595500D02*
X135130000Y-124120500D01*
G75*
G02*
X135367500Y-123883000I237500J0D01*
G01*
X135942500Y-123883000D01*
G75*
G02*
X136180000Y-124120500I0J-237500D01*
G01*
X136180000Y-124595500D01*
G75*
G02*
X135942500Y-124833000I-237500J0D01*
G01*
X135367500Y-124833000D01*
G75*
G02*
X135130000Y-124595500I0J237500D01*
G01*
G37*
G36*
G01*
X133380000Y-124595500D02*
X133380000Y-124120500D01*
G75*
G02*
X133617500Y-123883000I237500J0D01*
G01*
X134192500Y-123883000D01*
G75*
G02*
X134430000Y-124120500I0J-237500D01*
G01*
X134430000Y-124595500D01*
G75*
G02*
X134192500Y-124833000I-237500J0D01*
G01*
X133617500Y-124833000D01*
G75*
G02*
X133380000Y-124595500I0J237500D01*
G01*
G37*
G36*
G01*
X135120000Y-122065500D02*
X135120000Y-121590500D01*
G75*
G02*
X135357500Y-121353000I237500J0D01*
G01*
X135932500Y-121353000D01*
G75*
G02*
X136170000Y-121590500I0J-237500D01*
G01*
X136170000Y-122065500D01*
G75*
G02*
X135932500Y-122303000I-237500J0D01*
G01*
X135357500Y-122303000D01*
G75*
G02*
X135120000Y-122065500I0J237500D01*
G01*
G37*
G36*
G01*
X133370000Y-122065500D02*
X133370000Y-121590500D01*
G75*
G02*
X133607500Y-121353000I237500J0D01*
G01*
X134182500Y-121353000D01*
G75*
G02*
X134420000Y-121590500I0J-237500D01*
G01*
X134420000Y-122065500D01*
G75*
G02*
X134182500Y-122303000I-237500J0D01*
G01*
X133607500Y-122303000D01*
G75*
G02*
X133370000Y-122065500I0J237500D01*
G01*
G37*
G36*
G01*
X133370000Y-119505500D02*
X133370000Y-119030500D01*
G75*
G02*
X133607500Y-118793000I237500J0D01*
G01*
X134182500Y-118793000D01*
G75*
G02*
X134420000Y-119030500I0J-237500D01*
G01*
X134420000Y-119505500D01*
G75*
G02*
X134182500Y-119743000I-237500J0D01*
G01*
X133607500Y-119743000D01*
G75*
G02*
X133370000Y-119505500I0J237500D01*
G01*
G37*
G36*
G01*
X135120000Y-119505500D02*
X135120000Y-119030500D01*
G75*
G02*
X135357500Y-118793000I237500J0D01*
G01*
X135932500Y-118793000D01*
G75*
G02*
X136170000Y-119030500I0J-237500D01*
G01*
X136170000Y-119505500D01*
G75*
G02*
X135932500Y-119743000I-237500J0D01*
G01*
X135357500Y-119743000D01*
G75*
G02*
X135120000Y-119505500I0J237500D01*
G01*
G37*
G36*
G01*
X133370000Y-117025500D02*
X133370000Y-116550500D01*
G75*
G02*
X133607500Y-116313000I237500J0D01*
G01*
X134182500Y-116313000D01*
G75*
G02*
X134420000Y-116550500I0J-237500D01*
G01*
X134420000Y-117025500D01*
G75*
G02*
X134182500Y-117263000I-237500J0D01*
G01*
X133607500Y-117263000D01*
G75*
G02*
X133370000Y-117025500I0J237500D01*
G01*
G37*
G36*
G01*
X135120000Y-117025500D02*
X135120000Y-116550500D01*
G75*
G02*
X135357500Y-116313000I237500J0D01*
G01*
X135932500Y-116313000D01*
G75*
G02*
X136170000Y-116550500I0J-237500D01*
G01*
X136170000Y-117025500D01*
G75*
G02*
X135932500Y-117263000I-237500J0D01*
G01*
X135357500Y-117263000D01*
G75*
G02*
X135120000Y-117025500I0J237500D01*
G01*
G37*
G36*
G01*
X133360000Y-114455500D02*
X133360000Y-113980500D01*
G75*
G02*
X133597500Y-113743000I237500J0D01*
G01*
X134172500Y-113743000D01*
G75*
G02*
X134410000Y-113980500I0J-237500D01*
G01*
X134410000Y-114455500D01*
G75*
G02*
X134172500Y-114693000I-237500J0D01*
G01*
X133597500Y-114693000D01*
G75*
G02*
X133360000Y-114455500I0J237500D01*
G01*
G37*
G36*
G01*
X135110000Y-114455500D02*
X135110000Y-113980500D01*
G75*
G02*
X135347500Y-113743000I237500J0D01*
G01*
X135922500Y-113743000D01*
G75*
G02*
X136160000Y-113980500I0J-237500D01*
G01*
X136160000Y-114455500D01*
G75*
G02*
X135922500Y-114693000I-237500J0D01*
G01*
X135347500Y-114693000D01*
G75*
G02*
X135110000Y-114455500I0J237500D01*
G01*
G37*
G36*
G01*
X135110000Y-111925500D02*
X135110000Y-111450500D01*
G75*
G02*
X135347500Y-111213000I237500J0D01*
G01*
X135922500Y-111213000D01*
G75*
G02*
X136160000Y-111450500I0J-237500D01*
G01*
X136160000Y-111925500D01*
G75*
G02*
X135922500Y-112163000I-237500J0D01*
G01*
X135347500Y-112163000D01*
G75*
G02*
X135110000Y-111925500I0J237500D01*
G01*
G37*
G36*
G01*
X133360000Y-111925500D02*
X133360000Y-111450500D01*
G75*
G02*
X133597500Y-111213000I237500J0D01*
G01*
X134172500Y-111213000D01*
G75*
G02*
X134410000Y-111450500I0J-237500D01*
G01*
X134410000Y-111925500D01*
G75*
G02*
X134172500Y-112163000I-237500J0D01*
G01*
X133597500Y-112163000D01*
G75*
G02*
X133360000Y-111925500I0J237500D01*
G01*
G37*
G36*
G01*
X153977300Y-133342801D02*
X153977300Y-132442799D01*
G75*
G02*
X154227299Y-132192800I249999J0D01*
G01*
X154927301Y-132192800D01*
G75*
G02*
X155177300Y-132442799I0J-249999D01*
G01*
X155177300Y-133342801D01*
G75*
G02*
X154927301Y-133592800I-249999J0D01*
G01*
X154227299Y-133592800D01*
G75*
G02*
X153977300Y-133342801I0J249999D01*
G01*
G37*
G36*
G01*
X155977300Y-133342801D02*
X155977300Y-132442799D01*
G75*
G02*
X156227299Y-132192800I249999J0D01*
G01*
X156927301Y-132192800D01*
G75*
G02*
X157177300Y-132442799I0J-249999D01*
G01*
X157177300Y-133342801D01*
G75*
G02*
X156927301Y-133592800I-249999J0D01*
G01*
X156227299Y-133592800D01*
G75*
G02*
X155977300Y-133342801I0J249999D01*
G01*
G37*
G36*
G01*
X155251200Y-129801199D02*
X155251200Y-130701201D01*
G75*
G02*
X155001201Y-130951200I-249999J0D01*
G01*
X154301199Y-130951200D01*
G75*
G02*
X154051200Y-130701201I0J249999D01*
G01*
X154051200Y-129801199D01*
G75*
G02*
X154301199Y-129551200I249999J0D01*
G01*
X155001201Y-129551200D01*
G75*
G02*
X155251200Y-129801199I0J-249999D01*
G01*
G37*
G36*
G01*
X157251200Y-129801199D02*
X157251200Y-130701201D01*
G75*
G02*
X157001201Y-130951200I-249999J0D01*
G01*
X156301199Y-130951200D01*
G75*
G02*
X156051200Y-130701201I0J249999D01*
G01*
X156051200Y-129801199D01*
G75*
G02*
X156301199Y-129551200I249999J0D01*
G01*
X157001201Y-129551200D01*
G75*
G02*
X157251200Y-129801199I0J-249999D01*
G01*
G37*
G36*
G01*
X128092000Y-104197999D02*
X128092000Y-105098001D01*
G75*
G02*
X127842001Y-105348000I-249999J0D01*
G01*
X127141999Y-105348000D01*
G75*
G02*
X126892000Y-105098001I0J249999D01*
G01*
X126892000Y-104197999D01*
G75*
G02*
X127141999Y-103948000I249999J0D01*
G01*
X127842001Y-103948000D01*
G75*
G02*
X128092000Y-104197999I0J-249999D01*
G01*
G37*
G36*
G01*
X126092000Y-104197999D02*
X126092000Y-105098001D01*
G75*
G02*
X125842001Y-105348000I-249999J0D01*
G01*
X125141999Y-105348000D01*
G75*
G02*
X124892000Y-105098001I0J249999D01*
G01*
X124892000Y-104197999D01*
G75*
G02*
X125141999Y-103948000I249999J0D01*
G01*
X125842001Y-103948000D01*
G75*
G02*
X126092000Y-104197999I0J-249999D01*
G01*
G37*
G36*
G01*
X125838000Y-98101999D02*
X125838000Y-99002001D01*
G75*
G02*
X125588001Y-99252000I-249999J0D01*
G01*
X124887999Y-99252000D01*
G75*
G02*
X124638000Y-99002001I0J249999D01*
G01*
X124638000Y-98101999D01*
G75*
G02*
X124887999Y-97852000I249999J0D01*
G01*
X125588001Y-97852000D01*
G75*
G02*
X125838000Y-98101999I0J-249999D01*
G01*
G37*
G36*
G01*
X127838000Y-98101999D02*
X127838000Y-99002001D01*
G75*
G02*
X127588001Y-99252000I-249999J0D01*
G01*
X126887999Y-99252000D01*
G75*
G02*
X126638000Y-99002001I0J249999D01*
G01*
X126638000Y-98101999D01*
G75*
G02*
X126887999Y-97852000I249999J0D01*
G01*
X127588001Y-97852000D01*
G75*
G02*
X127838000Y-98101999I0J-249999D01*
G01*
G37*
G36*
G01*
X127838000Y-93529999D02*
X127838000Y-94430001D01*
G75*
G02*
X127588001Y-94680000I-249999J0D01*
G01*
X126887999Y-94680000D01*
G75*
G02*
X126638000Y-94430001I0J249999D01*
G01*
X126638000Y-93529999D01*
G75*
G02*
X126887999Y-93280000I249999J0D01*
G01*
X127588001Y-93280000D01*
G75*
G02*
X127838000Y-93529999I0J-249999D01*
G01*
G37*
G36*
G01*
X125838000Y-93529999D02*
X125838000Y-94430001D01*
G75*
G02*
X125588001Y-94680000I-249999J0D01*
G01*
X124887999Y-94680000D01*
G75*
G02*
X124638000Y-94430001I0J249999D01*
G01*
X124638000Y-93529999D01*
G75*
G02*
X124887999Y-93280000I249999J0D01*
G01*
X125588001Y-93280000D01*
G75*
G02*
X125838000Y-93529999I0J-249999D01*
G01*
G37*
G36*
G01*
X148320000Y-101650001D02*
X148320000Y-100749999D01*
G75*
G02*
X148569999Y-100500000I249999J0D01*
G01*
X149270001Y-100500000D01*
G75*
G02*
X149520000Y-100749999I0J-249999D01*
G01*
X149520000Y-101650001D01*
G75*
G02*
X149270001Y-101900000I-249999J0D01*
G01*
X148569999Y-101900000D01*
G75*
G02*
X148320000Y-101650001I0J249999D01*
G01*
G37*
G36*
G01*
X146320000Y-101650001D02*
X146320000Y-100749999D01*
G75*
G02*
X146569999Y-100500000I249999J0D01*
G01*
X147270001Y-100500000D01*
G75*
G02*
X147520000Y-100749999I0J-249999D01*
G01*
X147520000Y-101650001D01*
G75*
G02*
X147270001Y-101900000I-249999J0D01*
G01*
X146569999Y-101900000D01*
G75*
G02*
X146320000Y-101650001I0J249999D01*
G01*
G37*
G36*
G01*
X177592000Y-119183999D02*
X177592000Y-120084001D01*
G75*
G02*
X177342001Y-120334000I-249999J0D01*
G01*
X176641999Y-120334000D01*
G75*
G02*
X176392000Y-120084001I0J249999D01*
G01*
X176392000Y-119183999D01*
G75*
G02*
X176641999Y-118934000I249999J0D01*
G01*
X177342001Y-118934000D01*
G75*
G02*
X177592000Y-119183999I0J-249999D01*
G01*
G37*
G36*
G01*
X175592000Y-119183999D02*
X175592000Y-120084001D01*
G75*
G02*
X175342001Y-120334000I-249999J0D01*
G01*
X174641999Y-120334000D01*
G75*
G02*
X174392000Y-120084001I0J249999D01*
G01*
X174392000Y-119183999D01*
G75*
G02*
X174641999Y-118934000I249999J0D01*
G01*
X175342001Y-118934000D01*
G75*
G02*
X175592000Y-119183999I0J-249999D01*
G01*
G37*
G36*
G01*
X175652000Y-116053999D02*
X175652000Y-116954001D01*
G75*
G02*
X175402001Y-117204000I-249999J0D01*
G01*
X174701999Y-117204000D01*
G75*
G02*
X174452000Y-116954001I0J249999D01*
G01*
X174452000Y-116053999D01*
G75*
G02*
X174701999Y-115804000I249999J0D01*
G01*
X175402001Y-115804000D01*
G75*
G02*
X175652000Y-116053999I0J-249999D01*
G01*
G37*
G36*
G01*
X177652000Y-116053999D02*
X177652000Y-116954001D01*
G75*
G02*
X177402001Y-117204000I-249999J0D01*
G01*
X176701999Y-117204000D01*
G75*
G02*
X176452000Y-116954001I0J249999D01*
G01*
X176452000Y-116053999D01*
G75*
G02*
X176701999Y-115804000I249999J0D01*
G01*
X177402001Y-115804000D01*
G75*
G02*
X177652000Y-116053999I0J-249999D01*
G01*
G37*
G36*
G01*
X177352000Y-72447999D02*
X177352000Y-73348001D01*
G75*
G02*
X177102001Y-73598000I-249999J0D01*
G01*
X176401999Y-73598000D01*
G75*
G02*
X176152000Y-73348001I0J249999D01*
G01*
X176152000Y-72447999D01*
G75*
G02*
X176401999Y-72198000I249999J0D01*
G01*
X177102001Y-72198000D01*
G75*
G02*
X177352000Y-72447999I0J-249999D01*
G01*
G37*
G36*
G01*
X175352000Y-72447999D02*
X175352000Y-73348001D01*
G75*
G02*
X175102001Y-73598000I-249999J0D01*
G01*
X174401999Y-73598000D01*
G75*
G02*
X174152000Y-73348001I0J249999D01*
G01*
X174152000Y-72447999D01*
G75*
G02*
X174401999Y-72198000I249999J0D01*
G01*
X175102001Y-72198000D01*
G75*
G02*
X175352000Y-72447999I0J-249999D01*
G01*
G37*
G36*
G01*
X174420000Y-135240001D02*
X174420000Y-134339999D01*
G75*
G02*
X174669999Y-134090000I249999J0D01*
G01*
X175370001Y-134090000D01*
G75*
G02*
X175620000Y-134339999I0J-249999D01*
G01*
X175620000Y-135240001D01*
G75*
G02*
X175370001Y-135490000I-249999J0D01*
G01*
X174669999Y-135490000D01*
G75*
G02*
X174420000Y-135240001I0J249999D01*
G01*
G37*
G36*
G01*
X176420000Y-135240001D02*
X176420000Y-134339999D01*
G75*
G02*
X176669999Y-134090000I249999J0D01*
G01*
X177370001Y-134090000D01*
G75*
G02*
X177620000Y-134339999I0J-249999D01*
G01*
X177620000Y-135240001D01*
G75*
G02*
X177370001Y-135490000I-249999J0D01*
G01*
X176669999Y-135490000D01*
G75*
G02*
X176420000Y-135240001I0J249999D01*
G01*
G37*
G36*
G01*
X176400000Y-132410001D02*
X176400000Y-131509999D01*
G75*
G02*
X176649999Y-131260000I249999J0D01*
G01*
X177350001Y-131260000D01*
G75*
G02*
X177600000Y-131509999I0J-249999D01*
G01*
X177600000Y-132410001D01*
G75*
G02*
X177350001Y-132660000I-249999J0D01*
G01*
X176649999Y-132660000D01*
G75*
G02*
X176400000Y-132410001I0J249999D01*
G01*
G37*
G36*
G01*
X174400000Y-132410001D02*
X174400000Y-131509999D01*
G75*
G02*
X174649999Y-131260000I249999J0D01*
G01*
X175350001Y-131260000D01*
G75*
G02*
X175600000Y-131509999I0J-249999D01*
G01*
X175600000Y-132410001D01*
G75*
G02*
X175350001Y-132660000I-249999J0D01*
G01*
X174649999Y-132660000D01*
G75*
G02*
X174400000Y-132410001I0J249999D01*
G01*
G37*
G36*
G01*
X138220200Y-129830601D02*
X138220200Y-128930599D01*
G75*
G02*
X138470199Y-128680600I249999J0D01*
G01*
X139170201Y-128680600D01*
G75*
G02*
X139420200Y-128930599I0J-249999D01*
G01*
X139420200Y-129830601D01*
G75*
G02*
X139170201Y-130080600I-249999J0D01*
G01*
X138470199Y-130080600D01*
G75*
G02*
X138220200Y-129830601I0J249999D01*
G01*
G37*
G36*
G01*
X140220200Y-129830601D02*
X140220200Y-128930599D01*
G75*
G02*
X140470199Y-128680600I249999J0D01*
G01*
X141170201Y-128680600D01*
G75*
G02*
X141420200Y-128930599I0J-249999D01*
G01*
X141420200Y-129830601D01*
G75*
G02*
X141170201Y-130080600I-249999J0D01*
G01*
X140470199Y-130080600D01*
G75*
G02*
X140220200Y-129830601I0J249999D01*
G01*
G37*
G36*
G01*
X140247900Y-127290601D02*
X140247900Y-126390599D01*
G75*
G02*
X140497899Y-126140600I249999J0D01*
G01*
X141197901Y-126140600D01*
G75*
G02*
X141447900Y-126390599I0J-249999D01*
G01*
X141447900Y-127290601D01*
G75*
G02*
X141197901Y-127540600I-249999J0D01*
G01*
X140497899Y-127540600D01*
G75*
G02*
X140247900Y-127290601I0J249999D01*
G01*
G37*
G36*
G01*
X138247900Y-127290601D02*
X138247900Y-126390599D01*
G75*
G02*
X138497899Y-126140600I249999J0D01*
G01*
X139197901Y-126140600D01*
G75*
G02*
X139447900Y-126390599I0J-249999D01*
G01*
X139447900Y-127290601D01*
G75*
G02*
X139197901Y-127540600I-249999J0D01*
G01*
X138497899Y-127540600D01*
G75*
G02*
X138247900Y-127290601I0J249999D01*
G01*
G37*
G36*
G01*
X138217900Y-124674401D02*
X138217900Y-123774399D01*
G75*
G02*
X138467899Y-123524400I249999J0D01*
G01*
X139167901Y-123524400D01*
G75*
G02*
X139417900Y-123774399I0J-249999D01*
G01*
X139417900Y-124674401D01*
G75*
G02*
X139167901Y-124924400I-249999J0D01*
G01*
X138467899Y-124924400D01*
G75*
G02*
X138217900Y-124674401I0J249999D01*
G01*
G37*
G36*
G01*
X140217900Y-124674401D02*
X140217900Y-123774399D01*
G75*
G02*
X140467899Y-123524400I249999J0D01*
G01*
X141167901Y-123524400D01*
G75*
G02*
X141417900Y-123774399I0J-249999D01*
G01*
X141417900Y-124674401D01*
G75*
G02*
X141167901Y-124924400I-249999J0D01*
G01*
X140467899Y-124924400D01*
G75*
G02*
X140217900Y-124674401I0J249999D01*
G01*
G37*
G36*
G01*
X140268700Y-122185201D02*
X140268700Y-121285199D01*
G75*
G02*
X140518699Y-121035200I249999J0D01*
G01*
X141218701Y-121035200D01*
G75*
G02*
X141468700Y-121285199I0J-249999D01*
G01*
X141468700Y-122185201D01*
G75*
G02*
X141218701Y-122435200I-249999J0D01*
G01*
X140518699Y-122435200D01*
G75*
G02*
X140268700Y-122185201I0J249999D01*
G01*
G37*
G36*
G01*
X138268700Y-122185201D02*
X138268700Y-121285199D01*
G75*
G02*
X138518699Y-121035200I249999J0D01*
G01*
X139218701Y-121035200D01*
G75*
G02*
X139468700Y-121285199I0J-249999D01*
G01*
X139468700Y-122185201D01*
G75*
G02*
X139218701Y-122435200I-249999J0D01*
G01*
X138518699Y-122435200D01*
G75*
G02*
X138268700Y-122185201I0J249999D01*
G01*
G37*
G36*
G01*
X138321800Y-119696001D02*
X138321800Y-118795999D01*
G75*
G02*
X138571799Y-118546000I249999J0D01*
G01*
X139271801Y-118546000D01*
G75*
G02*
X139521800Y-118795999I0J-249999D01*
G01*
X139521800Y-119696001D01*
G75*
G02*
X139271801Y-119946000I-249999J0D01*
G01*
X138571799Y-119946000D01*
G75*
G02*
X138321800Y-119696001I0J249999D01*
G01*
G37*
G36*
G01*
X140321800Y-119696001D02*
X140321800Y-118795999D01*
G75*
G02*
X140571799Y-118546000I249999J0D01*
G01*
X141271801Y-118546000D01*
G75*
G02*
X141521800Y-118795999I0J-249999D01*
G01*
X141521800Y-119696001D01*
G75*
G02*
X141271801Y-119946000I-249999J0D01*
G01*
X140571799Y-119946000D01*
G75*
G02*
X140321800Y-119696001I0J249999D01*
G01*
G37*
G36*
G01*
X140321800Y-117333801D02*
X140321800Y-116433799D01*
G75*
G02*
X140571799Y-116183800I249999J0D01*
G01*
X141271801Y-116183800D01*
G75*
G02*
X141521800Y-116433799I0J-249999D01*
G01*
X141521800Y-117333801D01*
G75*
G02*
X141271801Y-117583800I-249999J0D01*
G01*
X140571799Y-117583800D01*
G75*
G02*
X140321800Y-117333801I0J249999D01*
G01*
G37*
G36*
G01*
X138321800Y-117333801D02*
X138321800Y-116433799D01*
G75*
G02*
X138571799Y-116183800I249999J0D01*
G01*
X139271801Y-116183800D01*
G75*
G02*
X139521800Y-116433799I0J-249999D01*
G01*
X139521800Y-117333801D01*
G75*
G02*
X139271801Y-117583800I-249999J0D01*
G01*
X138571799Y-117583800D01*
G75*
G02*
X138321800Y-117333801I0J249999D01*
G01*
G37*
G36*
G01*
X138243300Y-114819201D02*
X138243300Y-113919199D01*
G75*
G02*
X138493299Y-113669200I249999J0D01*
G01*
X139193301Y-113669200D01*
G75*
G02*
X139443300Y-113919199I0J-249999D01*
G01*
X139443300Y-114819201D01*
G75*
G02*
X139193301Y-115069200I-249999J0D01*
G01*
X138493299Y-115069200D01*
G75*
G02*
X138243300Y-114819201I0J249999D01*
G01*
G37*
G36*
G01*
X140243300Y-114819201D02*
X140243300Y-113919199D01*
G75*
G02*
X140493299Y-113669200I249999J0D01*
G01*
X141193301Y-113669200D01*
G75*
G02*
X141443300Y-113919199I0J-249999D01*
G01*
X141443300Y-114819201D01*
G75*
G02*
X141193301Y-115069200I-249999J0D01*
G01*
X140493299Y-115069200D01*
G75*
G02*
X140243300Y-114819201I0J249999D01*
G01*
G37*
G36*
G01*
X140160000Y-112000001D02*
X140160000Y-111099999D01*
G75*
G02*
X140409999Y-110850000I249999J0D01*
G01*
X141110001Y-110850000D01*
G75*
G02*
X141360000Y-111099999I0J-249999D01*
G01*
X141360000Y-112000001D01*
G75*
G02*
X141110001Y-112250000I-249999J0D01*
G01*
X140409999Y-112250000D01*
G75*
G02*
X140160000Y-112000001I0J249999D01*
G01*
G37*
G36*
G01*
X138160000Y-112000001D02*
X138160000Y-111099999D01*
G75*
G02*
X138409999Y-110850000I249999J0D01*
G01*
X139110001Y-110850000D01*
G75*
G02*
X139360000Y-111099999I0J-249999D01*
G01*
X139360000Y-112000001D01*
G75*
G02*
X139110001Y-112250000I-249999J0D01*
G01*
X138409999Y-112250000D01*
G75*
G02*
X138160000Y-112000001I0J249999D01*
G01*
G37*
G36*
G01*
X154864000Y-117290001D02*
X154864000Y-116389999D01*
G75*
G02*
X155113999Y-116140000I249999J0D01*
G01*
X155814001Y-116140000D01*
G75*
G02*
X156064000Y-116389999I0J-249999D01*
G01*
X156064000Y-117290001D01*
G75*
G02*
X155814001Y-117540000I-249999J0D01*
G01*
X155113999Y-117540000D01*
G75*
G02*
X154864000Y-117290001I0J249999D01*
G01*
G37*
G36*
G01*
X156864000Y-117290001D02*
X156864000Y-116389999D01*
G75*
G02*
X157113999Y-116140000I249999J0D01*
G01*
X157814001Y-116140000D01*
G75*
G02*
X158064000Y-116389999I0J-249999D01*
G01*
X158064000Y-117290001D01*
G75*
G02*
X157814001Y-117540000I-249999J0D01*
G01*
X157113999Y-117540000D01*
G75*
G02*
X156864000Y-117290001I0J249999D01*
G01*
G37*
G36*
G01*
X152000000Y-114611999D02*
X152000000Y-115512001D01*
G75*
G02*
X151750001Y-115762000I-249999J0D01*
G01*
X151049999Y-115762000D01*
G75*
G02*
X150800000Y-115512001I0J249999D01*
G01*
X150800000Y-114611999D01*
G75*
G02*
X151049999Y-114362000I249999J0D01*
G01*
X151750001Y-114362000D01*
G75*
G02*
X152000000Y-114611999I0J-249999D01*
G01*
G37*
G36*
G01*
X154000000Y-114611999D02*
X154000000Y-115512001D01*
G75*
G02*
X153750001Y-115762000I-249999J0D01*
G01*
X153049999Y-115762000D01*
G75*
G02*
X152800000Y-115512001I0J249999D01*
G01*
X152800000Y-114611999D01*
G75*
G02*
X153049999Y-114362000I249999J0D01*
G01*
X153750001Y-114362000D01*
G75*
G02*
X154000000Y-114611999I0J-249999D01*
G01*
G37*
G36*
G01*
X151308000Y-112718001D02*
X151308000Y-111817999D01*
G75*
G02*
X151557999Y-111568000I249999J0D01*
G01*
X152258001Y-111568000D01*
G75*
G02*
X152508000Y-111817999I0J-249999D01*
G01*
X152508000Y-112718001D01*
G75*
G02*
X152258001Y-112968000I-249999J0D01*
G01*
X151557999Y-112968000D01*
G75*
G02*
X151308000Y-112718001I0J249999D01*
G01*
G37*
G36*
G01*
X153308000Y-112718001D02*
X153308000Y-111817999D01*
G75*
G02*
X153557999Y-111568000I249999J0D01*
G01*
X154258001Y-111568000D01*
G75*
G02*
X154508000Y-111817999I0J-249999D01*
G01*
X154508000Y-112718001D01*
G75*
G02*
X154258001Y-112968000I-249999J0D01*
G01*
X153557999Y-112968000D01*
G75*
G02*
X153308000Y-112718001I0J249999D01*
G01*
G37*
G36*
G01*
X168834000Y-115512001D02*
X168834000Y-114611999D01*
G75*
G02*
X169083999Y-114362000I249999J0D01*
G01*
X169784001Y-114362000D01*
G75*
G02*
X170034000Y-114611999I0J-249999D01*
G01*
X170034000Y-115512001D01*
G75*
G02*
X169784001Y-115762000I-249999J0D01*
G01*
X169083999Y-115762000D01*
G75*
G02*
X168834000Y-115512001I0J249999D01*
G01*
G37*
G36*
G01*
X170834000Y-115512001D02*
X170834000Y-114611999D01*
G75*
G02*
X171083999Y-114362000I249999J0D01*
G01*
X171784001Y-114362000D01*
G75*
G02*
X172034000Y-114611999I0J-249999D01*
G01*
X172034000Y-115512001D01*
G75*
G02*
X171784001Y-115762000I-249999J0D01*
G01*
X171083999Y-115762000D01*
G75*
G02*
X170834000Y-115512001I0J249999D01*
G01*
G37*
G36*
G01*
X184208000Y-117381000D02*
X184208000Y-118331000D01*
G75*
G02*
X183958000Y-118581000I-250000J0D01*
G01*
X183283000Y-118581000D01*
G75*
G02*
X183033000Y-118331000I0J250000D01*
G01*
X183033000Y-117381000D01*
G75*
G02*
X183283000Y-117131000I250000J0D01*
G01*
X183958000Y-117131000D01*
G75*
G02*
X184208000Y-117381000I0J-250000D01*
G01*
G37*
G36*
G01*
X186283000Y-117381000D02*
X186283000Y-118331000D01*
G75*
G02*
X186033000Y-118581000I-250000J0D01*
G01*
X185358000Y-118581000D01*
G75*
G02*
X185108000Y-118331000I0J250000D01*
G01*
X185108000Y-117381000D01*
G75*
G02*
X185358000Y-117131000I250000J0D01*
G01*
X186033000Y-117131000D01*
G75*
G02*
X186283000Y-117381000I0J-250000D01*
G01*
G37*
G36*
G01*
X166779000Y-109901000D02*
X166469000Y-109901000D01*
G75*
G02*
X166314000Y-109746000I0J155000D01*
G01*
X166314000Y-109321000D01*
G75*
G02*
X166469000Y-109166000I155000J0D01*
G01*
X166779000Y-109166000D01*
G75*
G02*
X166934000Y-109321000I0J-155000D01*
G01*
X166934000Y-109746000D01*
G75*
G02*
X166779000Y-109901000I-155000J0D01*
G01*
G37*
G36*
G01*
X166779000Y-108766000D02*
X166469000Y-108766000D01*
G75*
G02*
X166314000Y-108611000I0J155000D01*
G01*
X166314000Y-108186000D01*
G75*
G02*
X166469000Y-108031000I155000J0D01*
G01*
X166779000Y-108031000D01*
G75*
G02*
X166934000Y-108186000I0J-155000D01*
G01*
X166934000Y-108611000D01*
G75*
G02*
X166779000Y-108766000I-155000J0D01*
G01*
G37*
G36*
G01*
X169421000Y-108410000D02*
X168471000Y-108410000D01*
G75*
G02*
X168221000Y-108160000I0J250000D01*
G01*
X168221000Y-107485000D01*
G75*
G02*
X168471000Y-107235000I250000J0D01*
G01*
X169421000Y-107235000D01*
G75*
G02*
X169671000Y-107485000I0J-250000D01*
G01*
X169671000Y-108160000D01*
G75*
G02*
X169421000Y-108410000I-250000J0D01*
G01*
G37*
G36*
G01*
X169421000Y-110485000D02*
X168471000Y-110485000D01*
G75*
G02*
X168221000Y-110235000I0J250000D01*
G01*
X168221000Y-109560000D01*
G75*
G02*
X168471000Y-109310000I250000J0D01*
G01*
X169421000Y-109310000D01*
G75*
G02*
X169671000Y-109560000I0J-250000D01*
G01*
X169671000Y-110235000D01*
G75*
G02*
X169421000Y-110485000I-250000J0D01*
G01*
G37*
G36*
G01*
X164008000Y-117290001D02*
X164008000Y-116389999D01*
G75*
G02*
X164257999Y-116140000I249999J0D01*
G01*
X164958001Y-116140000D01*
G75*
G02*
X165208000Y-116389999I0J-249999D01*
G01*
X165208000Y-117290001D01*
G75*
G02*
X164958001Y-117540000I-249999J0D01*
G01*
X164257999Y-117540000D01*
G75*
G02*
X164008000Y-117290001I0J249999D01*
G01*
G37*
G36*
G01*
X166008000Y-117290001D02*
X166008000Y-116389999D01*
G75*
G02*
X166257999Y-116140000I249999J0D01*
G01*
X166958001Y-116140000D01*
G75*
G02*
X167208000Y-116389999I0J-249999D01*
G01*
X167208000Y-117290001D01*
G75*
G02*
X166958001Y-117540000I-249999J0D01*
G01*
X166257999Y-117540000D01*
G75*
G02*
X166008000Y-117290001I0J249999D01*
G01*
G37*
M02*
