M48
; DRILL file {KiCad 5.1.10-88a1d61d58~88~ubuntu20.04.1} date Wed Apr 28 19:55:54 2021
; FORMAT={-:-/ absolute / inch / decimal}
; #@! TF.CreationDate,2021-04-28T19:55:54-05:00
; #@! TF.GenerationSoftware,Kicad,Pcbnew,5.1.10-88a1d61d58~88~ubuntu20.04.1
FMAT,2
INCH
T1C0.0079
T2C0.0315
T3C0.0394
T4C0.0512
%
G90
G05
T1
X4.9034Y-4.4517
X4.9034Y-4.6485
X4.9034Y-4.8454
X4.9034Y-5.0481
X4.96Y-3.0
X4.96Y-3.06
X4.9644Y-2.9744
X5.04Y-3.06
X5.07Y-3.7
X5.07Y-3.88
X5.13Y-3.6
X5.14Y-3.99
X5.16Y-2.8
X5.16Y-3.2
X5.1642Y-3.6169
X5.1976Y-3.6445
X5.226Y-3.6728
X5.2598Y-3.6969
X5.26Y-3.22
X5.2711Y-4.445
X5.2715Y-4.6495
X5.2715Y-4.8528
X5.2718Y-5.0492
X5.2906Y-3.7217
X5.322Y-3.7469
X5.3287Y-3.9835
X5.3496Y-3.0886
X5.3547Y-3.7717
X5.3768Y-4.0476
X5.384Y-3.816
X5.4248Y-3.8016
X5.4652Y-2.9148
X5.4854Y-4.2843
X5.5102Y-3.48
X5.5169Y-3.2563
X5.535Y-3.047
X5.5354Y-3.0671
X5.5354Y-3.086
X5.5354Y-3.106
X5.5354Y-3.4772
X5.5358Y-3.0273
X5.5571Y-3.047
X5.5575Y-3.0671
X5.5575Y-3.086
X5.5575Y-3.106
X5.5579Y-3.0273
X5.5756Y-3.047
X5.576Y-3.0671
X5.576Y-3.086
X5.576Y-3.106
X5.5764Y-3.0273
X5.59Y-4.13
X5.59Y-4.17
X5.5937Y-3.047
X5.5941Y-3.0671
X5.5941Y-3.086
X5.5941Y-3.106
X5.5945Y-3.0273
X5.5983Y-4.6017
X5.6027Y-5.0937
X5.6031Y-4.9937
X5.6041Y-4.8907
X5.6069Y-4.6947
X5.6093Y-4.7927
X5.6134Y-3.047
X5.6138Y-3.0671
X5.6138Y-3.086
X5.6138Y-3.106
X5.6142Y-3.0273
X5.6331Y-3.047
X5.6335Y-3.0671
X5.6335Y-3.086
X5.6335Y-3.106
X5.6339Y-3.0273
X5.66Y-3.24
X5.6799Y-3.3024
X5.7823Y-4.4244
X5.79Y-3.29
X5.798Y-3.938
X5.8Y-3.83
X5.8276Y-4.3594
X5.8459Y-2.9141
X5.8622Y-3.4496
X5.913Y-3.3346
X5.9213Y-2.9911
X5.922Y-3.0135
X5.9224Y-3.0367
X5.9228Y-3.0789
X5.9228Y-3.0993
X5.9232Y-3.0576
X5.9331Y-4.052
X5.9421Y-2.9911
X5.9429Y-3.0135
X5.9433Y-3.0367
X5.9437Y-3.0789
X5.9437Y-3.0993
X5.9441Y-3.0576
X5.9646Y-2.9911
X5.9654Y-3.0135
X5.9657Y-3.0367
X5.9661Y-3.0789
X5.9661Y-3.0993
X5.9665Y-3.0576
X5.98Y-4.47
X5.9874Y-2.9911
X5.9882Y-3.0135
X5.9886Y-3.0367
X5.989Y-3.0789
X5.989Y-3.0993
X5.9894Y-3.0576
X5.9902Y-4.0602
X5.9953Y-3.452
X5.9961Y-3.4769
X6.0087Y-2.9911
X6.0094Y-3.0135
X6.0098Y-3.0367
X6.0102Y-3.0789
X6.0102Y-3.0993
X6.0106Y-3.0576
X6.0236Y-4.1504
X6.0301Y-5.0358
X6.0409Y-3.7618
X6.0412Y-3.687
X6.0412Y-3.881
X6.0412Y-3.961
X6.0425Y-4.2516
X6.0575Y-3.3157
X6.07Y-3.44
X6.0724Y-3.2941
X6.0792Y-3.607
X6.0792Y-3.686
X6.0792Y-3.724
X6.0792Y-3.762
X6.0792Y-3.8413
X6.0792Y-3.883
X6.08Y-3.41
X6.0811Y-3.5307
X6.0812Y-3.921
X6.0878Y-4.0382
X6.0886Y-3.646
X6.1083Y-3.9606
X6.1166Y-3.9966
X6.1172Y-3.921
X6.1182Y-3.5655
X6.1192Y-3.607
X6.1192Y-3.647
X6.1192Y-3.725
X6.1192Y-3.881
X6.1197Y-3.6855
X6.1212Y-3.763
X6.1212Y-4.039
X6.1217Y-3.8433
X6.14Y-4.5307
X6.1567Y-3.5275
X6.1572Y-3.567
X6.1579Y-3.7173
X6.1592Y-3.607
X6.1592Y-3.647
X6.1592Y-3.803
X6.1592Y-3.999
X6.16Y-3.92
X6.1628Y-3.8828
X6.1649Y-5.2875
X6.1965Y-3.6465
X6.1965Y-3.6878
X6.1972Y-3.527
X6.1972Y-3.567
X6.1972Y-3.725
X6.1972Y-3.883
X6.1988Y-3.6106
X6.1992Y-3.999
X6.1992Y-4.039
X6.2Y-3.92
X6.2Y-3.96
X6.2367Y-3.568
X6.2367Y-3.9615
X6.2372Y-3.489
X6.2372Y-3.527
X6.2392Y-3.843
X6.2392Y-3.999
X6.24Y-3.92
X6.2729Y-3.8027
X6.2742Y-3.725
X6.2762Y-3.7645
X6.2772Y-3.567
X6.2772Y-3.645
X6.2772Y-3.88
X6.2772Y-4.041
X6.2791Y-3.5224
X6.28Y-3.92
X6.3Y-3.11
X6.31Y-3.92
X6.31Y-3.96
X6.3152Y-3.724
X6.3172Y-3.567
X6.3189Y-3.8398
X6.32Y-3.49
X6.34Y-3.19
X6.34Y-4.24
X6.35Y-3.92
X6.35Y-3.96
X6.3532Y-3.881
X6.3535Y-3.837
X6.3542Y-3.804
X6.3547Y-3.7245
X6.3547Y-4.002
X6.3552Y-3.607
X6.39Y-3.92
X6.3927Y-3.5295
X6.3927Y-3.5655
X6.3927Y-3.9625
X6.3932Y-3.999
X6.3961Y-3.6008
X6.398Y-3.6831
X6.4039Y-3.8028
X6.4071Y-4.0937
X6.4286Y-5.0514
X6.43Y-3.92
X6.4312Y-3.8035
X6.4323Y-3.5654
X6.4366Y-4.0
X6.4386Y-3.9598
X6.4688Y-3.92
X6.4732Y-3.605
X6.4732Y-3.7255
X6.4732Y-3.999
X6.4732Y-4.041
X6.4732Y-3.7634
X6.4736Y-3.5287
X6.4748Y-3.6445
X6.51Y-3.92
X6.51Y-4.21
X6.5112Y-3.8435
X6.5117Y-3.4875
X6.5117Y-3.568
X6.5126Y-3.5248
X6.5132Y-3.687
X6.5132Y-3.9595
X6.5169Y-3.648
X6.54Y-3.18
X6.54Y-3.28
X6.5499Y-3.9608
X6.55Y-4.47
X6.5508Y-3.6839
X6.5512Y-3.921
X6.5525Y-4.0002
X6.5527Y-3.765
X6.5532Y-3.567
X6.5606Y-4.04
X6.57Y-4.11
X6.571Y-3.402
X6.5912Y-3.569
X6.5912Y-3.881
X6.5949Y-3.961
X6.611Y-4.4902
X6.6252Y-4.0795
X6.6337Y-3.4465
X6.64Y-4.4
X6.6694Y-4.6794
X6.672Y-3.468
X6.688Y-3.484
X6.71Y-3.94
X6.72Y-4.23
X6.7441Y-3.6425
X6.7795Y-3.4378
X6.7874Y-3.6504
X6.7972Y-4.5272
X6.83Y-4.58
X6.84Y-5.22
X6.89Y-4.46
X6.89Y-5.37
X6.8953Y-3.7402
X6.8955Y-4.095
X6.9Y-3.2347
X6.92Y-4.41
X6.967Y-4.7588
X6.97Y-3.14
X6.97Y-4.3
X6.9913Y-3.9921
X7.0071Y-3.8441
X7.0146Y-5.2043
X7.0166Y-4.6903
X7.02Y-4.39
X7.02Y-4.42
X7.04Y-3.08
X7.04Y-3.255
X7.05Y-2.69
X7.0551Y-3.4378
X7.06Y-5.3043
X7.08Y-4.187
X7.1035Y-3.9169
X7.131Y-4.491
X7.1417Y-3.3551
X7.1598Y-3.7756
X7.1614Y-3.3748
X7.1771Y-3.3984
X7.19Y-4.44
X7.2Y-5.36
X7.22Y-2.69
X7.2344Y-4.5856
X7.28Y-2.74
X7.3Y-3.33
X7.31Y-3.5
X7.3126Y-4.7012
X7.365Y-4.21
X7.37Y-5.18
X7.38Y-3.49
X7.389Y-3.024
X7.3929Y-5.36
X7.42Y-5.06
X7.439Y-2.732
X7.441Y-2.65
T2
X4.8Y-4.4
X4.8Y-4.5
X4.8Y-4.6
X4.8Y-4.7
X4.8Y-4.8
X4.8Y-4.9
X4.8Y-5.0
X4.8Y-5.1
X5.1Y-4.4
X5.1Y-4.5
X5.1Y-4.6
X5.1Y-4.7
X5.1Y-4.8
X5.1Y-4.9
X5.1Y-5.0
X5.1Y-5.1
T3
X4.8Y-3.5
X4.8Y-3.6
X4.8Y-3.7
X4.8Y-3.8
X4.8Y-3.9
X4.8Y-4.0
X5.0Y-2.5
X5.0Y-2.6
X5.0Y-5.4
X5.0Y-5.5
X5.1Y-2.5
X5.1Y-2.6
X5.1Y-5.4
X5.1Y-5.5
X5.2Y-2.5
X5.2Y-2.6
X5.2Y-5.4
X5.2Y-5.5
X5.3Y-2.5
X5.3Y-2.6
X5.3Y-5.4
X5.3Y-5.5
X5.4Y-2.5
X5.4Y-2.6
X5.4Y-5.4
X5.4Y-5.5
X5.5Y-2.5
X5.5Y-2.6
X5.5Y-5.4
X5.5Y-5.5
X5.6Y-2.5
X5.6Y-2.6
X5.6Y-5.4
X5.6Y-5.5
X5.7Y-2.5
X5.7Y-2.6
X5.7Y-5.4
X5.7Y-5.5
X5.8Y-2.5
X5.8Y-2.6
X5.8Y-5.4
X5.8Y-5.5
X5.9Y-2.5
X5.9Y-2.6
X5.9Y-5.4
X5.9Y-5.5
X6.0Y-2.5
X6.0Y-2.6
X6.0Y-5.4
X6.0Y-5.5
X6.1Y-2.5
X6.1Y-2.6
X6.2Y-2.5
X6.2Y-2.6
X6.3Y-2.5
X6.3Y-2.6
X6.4Y-2.5
X6.4Y-2.6
X6.5Y-2.5
X6.5Y-2.6
X6.6Y-2.5
X6.6Y-2.6
X6.985Y-2.485
X7.0Y-5.5
X7.085Y-2.485
X7.1Y-5.5
X7.185Y-2.485
X7.2Y-5.5
X7.285Y-2.485
X7.3Y-5.5
X7.5Y-2.9
X7.5Y-3.0
X7.5Y-3.1
X7.5Y-3.2
X7.5Y-3.3
X7.5Y-3.4
X7.5Y-3.5
X7.5Y-3.6
X7.5Y-3.7
X7.5Y-3.8
X7.5Y-4.1
X7.5Y-4.2
X7.5Y-4.3
X7.5Y-4.4
X7.5Y-4.5
X7.5Y-4.6
X7.5Y-4.7
X7.5Y-4.8
X7.5Y-4.9
X7.5Y-5.0
T4
X4.767Y-2.8701
X4.767Y-3.1299
T0
M30
