G04 #@! TF.GenerationSoftware,KiCad,Pcbnew,5.1.10-88a1d61d58~88~ubuntu20.04.1*
G04 #@! TF.CreationDate,2021-04-28T19:55:47-05:00*
G04 #@! TF.ProjectId,obi1,6f626931-2e6b-4696-9361-645f70636258,rev?*
G04 #@! TF.SameCoordinates,Original*
G04 #@! TF.FileFunction,Copper,L4,Bot*
G04 #@! TF.FilePolarity,Positive*
%FSLAX46Y46*%
G04 Gerber Fmt 4.6, Leading zero omitted, Abs format (unit mm)*
G04 Created by KiCad (PCBNEW 5.1.10-88a1d61d58~88~ubuntu20.04.1) date 2021-04-28 19:55:47*
%MOMM*%
%LPD*%
G01*
G04 APERTURE LIST*
G04 #@! TA.AperFunction,ComponentPad*
%ADD10C,1.950000*%
G04 #@! TD*
G04 #@! TA.AperFunction,ComponentPad*
%ADD11O,1.700000X1.700000*%
G04 #@! TD*
G04 #@! TA.AperFunction,ComponentPad*
%ADD12R,1.700000X1.700000*%
G04 #@! TD*
G04 #@! TA.AperFunction,ComponentPad*
%ADD13R,1.600000X1.600000*%
G04 #@! TD*
G04 #@! TA.AperFunction,ComponentPad*
%ADD14O,1.600000X1.600000*%
G04 #@! TD*
G04 #@! TA.AperFunction,ViaPad*
%ADD15C,0.400000*%
G04 #@! TD*
G04 #@! TA.AperFunction,Conductor*
%ADD16C,0.381000*%
G04 #@! TD*
G04 #@! TA.AperFunction,Conductor*
%ADD17C,0.132121*%
G04 #@! TD*
G04 #@! TA.AperFunction,Conductor*
%ADD18C,0.152400*%
G04 #@! TD*
G04 #@! TA.AperFunction,Conductor*
%ADD19C,0.400000*%
G04 #@! TD*
G04 #@! TA.AperFunction,Conductor*
%ADD20C,0.254000*%
G04 #@! TD*
G04 #@! TA.AperFunction,Conductor*
%ADD21C,0.100000*%
G04 #@! TD*
G04 APERTURE END LIST*
D10*
X121083000Y-72900000D03*
X121083000Y-79500000D03*
G04 #@! TA.AperFunction,SMDPad,CuDef*
G36*
G01*
X149944003Y-112715000D02*
X147743997Y-112715000D01*
G75*
G02*
X147494000Y-112465003I0J249997D01*
G01*
X147494000Y-111639997D01*
G75*
G02*
X147743997Y-111390000I249997J0D01*
G01*
X149944003Y-111390000D01*
G75*
G02*
X150194000Y-111639997I0J-249997D01*
G01*
X150194000Y-112465003D01*
G75*
G02*
X149944003Y-112715000I-249997J0D01*
G01*
G37*
G04 #@! TD.AperFunction*
G04 #@! TA.AperFunction,SMDPad,CuDef*
G36*
G01*
X149944003Y-109590000D02*
X147743997Y-109590000D01*
G75*
G02*
X147494000Y-109340003I0J249997D01*
G01*
X147494000Y-108514997D01*
G75*
G02*
X147743997Y-108265000I249997J0D01*
G01*
X149944003Y-108265000D01*
G75*
G02*
X150194000Y-108514997I0J-249997D01*
G01*
X150194000Y-109340003D01*
G75*
G02*
X149944003Y-109590000I-249997J0D01*
G01*
G37*
G04 #@! TD.AperFunction*
G04 #@! TA.AperFunction,SMDPad,CuDef*
G36*
G01*
X136800000Y-126569999D02*
X136800000Y-127470001D01*
G75*
G02*
X136550001Y-127720000I-249999J0D01*
G01*
X135849999Y-127720000D01*
G75*
G02*
X135600000Y-127470001I0J249999D01*
G01*
X135600000Y-126569999D01*
G75*
G02*
X135849999Y-126320000I249999J0D01*
G01*
X136550001Y-126320000D01*
G75*
G02*
X136800000Y-126569999I0J-249999D01*
G01*
G37*
G04 #@! TD.AperFunction*
G04 #@! TA.AperFunction,SMDPad,CuDef*
G36*
G01*
X138800000Y-126569999D02*
X138800000Y-127470001D01*
G75*
G02*
X138550001Y-127720000I-249999J0D01*
G01*
X137849999Y-127720000D01*
G75*
G02*
X137600000Y-127470001I0J249999D01*
G01*
X137600000Y-126569999D01*
G75*
G02*
X137849999Y-126320000I249999J0D01*
G01*
X138550001Y-126320000D01*
G75*
G02*
X138800000Y-126569999I0J-249999D01*
G01*
G37*
G04 #@! TD.AperFunction*
G04 #@! TA.AperFunction,SMDPad,CuDef*
G36*
G01*
X152375000Y-109582500D02*
X151425000Y-109582500D01*
G75*
G02*
X151175000Y-109332500I0J250000D01*
G01*
X151175000Y-108657500D01*
G75*
G02*
X151425000Y-108407500I250000J0D01*
G01*
X152375000Y-108407500D01*
G75*
G02*
X152625000Y-108657500I0J-250000D01*
G01*
X152625000Y-109332500D01*
G75*
G02*
X152375000Y-109582500I-250000J0D01*
G01*
G37*
G04 #@! TD.AperFunction*
G04 #@! TA.AperFunction,SMDPad,CuDef*
G36*
G01*
X152375000Y-107507500D02*
X151425000Y-107507500D01*
G75*
G02*
X151175000Y-107257500I0J250000D01*
G01*
X151175000Y-106582500D01*
G75*
G02*
X151425000Y-106332500I250000J0D01*
G01*
X152375000Y-106332500D01*
G75*
G02*
X152625000Y-106582500I0J-250000D01*
G01*
X152625000Y-107257500D01*
G75*
G02*
X152375000Y-107507500I-250000J0D01*
G01*
G37*
G04 #@! TD.AperFunction*
D11*
X127000000Y-137160000D03*
X127000000Y-139700000D03*
X129540000Y-137160000D03*
X129540000Y-139700000D03*
X132080000Y-137160000D03*
X132080000Y-139700000D03*
X134620000Y-137160000D03*
X134620000Y-139700000D03*
X137160000Y-137160000D03*
X137160000Y-139700000D03*
X139700000Y-137160000D03*
X139700000Y-139700000D03*
X142240000Y-137160000D03*
X142240000Y-139700000D03*
X144780000Y-137160000D03*
X144780000Y-139700000D03*
X147320000Y-137160000D03*
X147320000Y-139700000D03*
X149860000Y-137160000D03*
X149860000Y-139700000D03*
X152400000Y-137160000D03*
D12*
X152400000Y-139700000D03*
X121920000Y-101600000D03*
D11*
X121920000Y-99060000D03*
X121920000Y-96520000D03*
X121920000Y-93980000D03*
X121920000Y-91440000D03*
X121920000Y-88900000D03*
D12*
X177800000Y-139700000D03*
D11*
X180340000Y-139700000D03*
X182880000Y-139700000D03*
X185420000Y-139700000D03*
X185039000Y-63119000D03*
X182499000Y-63119000D03*
X179959000Y-63119000D03*
D12*
X177419000Y-63119000D03*
D11*
X190500000Y-73660000D03*
X190500000Y-76200000D03*
X190500000Y-78740000D03*
X190500000Y-81280000D03*
X190500000Y-83820000D03*
X190500000Y-86360000D03*
X190500000Y-88900000D03*
X190500000Y-91440000D03*
X190500000Y-93980000D03*
D12*
X190500000Y-96520000D03*
X190500000Y-127000000D03*
D11*
X190500000Y-124460000D03*
X190500000Y-121920000D03*
X190500000Y-119380000D03*
X190500000Y-116840000D03*
X190500000Y-114300000D03*
X190500000Y-111760000D03*
X190500000Y-109220000D03*
X190500000Y-106680000D03*
X190500000Y-104140000D03*
X127000000Y-63500000D03*
X127000000Y-66040000D03*
X129540000Y-63500000D03*
X129540000Y-66040000D03*
X132080000Y-63500000D03*
X132080000Y-66040000D03*
X134620000Y-63500000D03*
X134620000Y-66040000D03*
X137160000Y-63500000D03*
X137160000Y-66040000D03*
X139700000Y-63500000D03*
X139700000Y-66040000D03*
X142240000Y-63500000D03*
X142240000Y-66040000D03*
X144780000Y-63500000D03*
X144780000Y-66040000D03*
X147320000Y-63500000D03*
X147320000Y-66040000D03*
X149860000Y-63500000D03*
X149860000Y-66040000D03*
X152400000Y-63500000D03*
X152400000Y-66040000D03*
X154940000Y-63500000D03*
X154940000Y-66040000D03*
X157480000Y-63500000D03*
X157480000Y-66040000D03*
X160020000Y-63500000D03*
X160020000Y-66040000D03*
X162560000Y-63500000D03*
X162560000Y-66040000D03*
X165100000Y-63500000D03*
X165100000Y-66040000D03*
X167640000Y-63500000D03*
D12*
X167640000Y-66040000D03*
D13*
X129540000Y-129540000D03*
D14*
X121920000Y-111760000D03*
X129540000Y-127000000D03*
X121920000Y-114300000D03*
X129540000Y-124460000D03*
X121920000Y-116840000D03*
X129540000Y-121920000D03*
X121920000Y-119380000D03*
X129540000Y-119380000D03*
X121920000Y-121920000D03*
X129540000Y-116840000D03*
X121920000Y-124460000D03*
X129540000Y-114300000D03*
X121920000Y-127000000D03*
X129540000Y-111760000D03*
X121920000Y-129540000D03*
G04 #@! TA.AperFunction,SMDPad,CuDef*
G36*
G01*
X147300003Y-87720000D02*
X145099997Y-87720000D01*
G75*
G02*
X144850000Y-87470003I0J249997D01*
G01*
X144850000Y-86644997D01*
G75*
G02*
X145099997Y-86395000I249997J0D01*
G01*
X147300003Y-86395000D01*
G75*
G02*
X147550000Y-86644997I0J-249997D01*
G01*
X147550000Y-87470003D01*
G75*
G02*
X147300003Y-87720000I-249997J0D01*
G01*
G37*
G04 #@! TD.AperFunction*
G04 #@! TA.AperFunction,SMDPad,CuDef*
G36*
G01*
X147300003Y-90845000D02*
X145099997Y-90845000D01*
G75*
G02*
X144850000Y-90595003I0J249997D01*
G01*
X144850000Y-89769997D01*
G75*
G02*
X145099997Y-89520000I249997J0D01*
G01*
X147300003Y-89520000D01*
G75*
G02*
X147550000Y-89769997I0J-249997D01*
G01*
X147550000Y-90595003D01*
G75*
G02*
X147300003Y-90845000I-249997J0D01*
G01*
G37*
G04 #@! TD.AperFunction*
G04 #@! TA.AperFunction,SMDPad,CuDef*
G36*
G01*
X149975000Y-91482500D02*
X149025000Y-91482500D01*
G75*
G02*
X148775000Y-91232500I0J250000D01*
G01*
X148775000Y-90557500D01*
G75*
G02*
X149025000Y-90307500I250000J0D01*
G01*
X149975000Y-90307500D01*
G75*
G02*
X150225000Y-90557500I0J-250000D01*
G01*
X150225000Y-91232500D01*
G75*
G02*
X149975000Y-91482500I-250000J0D01*
G01*
G37*
G04 #@! TD.AperFunction*
G04 #@! TA.AperFunction,SMDPad,CuDef*
G36*
G01*
X149975000Y-89407500D02*
X149025000Y-89407500D01*
G75*
G02*
X148775000Y-89157500I0J250000D01*
G01*
X148775000Y-88482500D01*
G75*
G02*
X149025000Y-88232500I250000J0D01*
G01*
X149975000Y-88232500D01*
G75*
G02*
X150225000Y-88482500I0J-250000D01*
G01*
X150225000Y-89157500D01*
G75*
G02*
X149975000Y-89407500I-250000J0D01*
G01*
G37*
G04 #@! TD.AperFunction*
G04 #@! TA.AperFunction,SMDPad,CuDef*
G36*
G01*
X151555000Y-90122500D02*
X151245000Y-90122500D01*
G75*
G02*
X151090000Y-89967500I0J155000D01*
G01*
X151090000Y-89542500D01*
G75*
G02*
X151245000Y-89387500I155000J0D01*
G01*
X151555000Y-89387500D01*
G75*
G02*
X151710000Y-89542500I0J-155000D01*
G01*
X151710000Y-89967500D01*
G75*
G02*
X151555000Y-90122500I-155000J0D01*
G01*
G37*
G04 #@! TD.AperFunction*
G04 #@! TA.AperFunction,SMDPad,CuDef*
G36*
G01*
X151555000Y-88987500D02*
X151245000Y-88987500D01*
G75*
G02*
X151090000Y-88832500I0J155000D01*
G01*
X151090000Y-88407500D01*
G75*
G02*
X151245000Y-88252500I155000J0D01*
G01*
X151555000Y-88252500D01*
G75*
G02*
X151710000Y-88407500I0J-155000D01*
G01*
X151710000Y-88832500D01*
G75*
G02*
X151555000Y-88987500I-155000J0D01*
G01*
G37*
G04 #@! TD.AperFunction*
G04 #@! TA.AperFunction,SMDPad,CuDef*
G36*
G01*
X174600000Y-86219997D02*
X174600000Y-88420003D01*
G75*
G02*
X174350003Y-88670000I-249997J0D01*
G01*
X173524997Y-88670000D01*
G75*
G02*
X173275000Y-88420003I0J249997D01*
G01*
X173275000Y-86219997D01*
G75*
G02*
X173524997Y-85970000I249997J0D01*
G01*
X174350003Y-85970000D01*
G75*
G02*
X174600000Y-86219997I0J-249997D01*
G01*
G37*
G04 #@! TD.AperFunction*
G04 #@! TA.AperFunction,SMDPad,CuDef*
G36*
G01*
X177725000Y-86219997D02*
X177725000Y-88420003D01*
G75*
G02*
X177475003Y-88670000I-249997J0D01*
G01*
X176649997Y-88670000D01*
G75*
G02*
X176400000Y-88420003I0J249997D01*
G01*
X176400000Y-86219997D01*
G75*
G02*
X176649997Y-85970000I249997J0D01*
G01*
X177475003Y-85970000D01*
G75*
G02*
X177725000Y-86219997I0J-249997D01*
G01*
G37*
G04 #@! TD.AperFunction*
G04 #@! TA.AperFunction,SMDPad,CuDef*
G36*
G01*
X177087500Y-90145000D02*
X177087500Y-91095000D01*
G75*
G02*
X176837500Y-91345000I-250000J0D01*
G01*
X176162500Y-91345000D01*
G75*
G02*
X175912500Y-91095000I0J250000D01*
G01*
X175912500Y-90145000D01*
G75*
G02*
X176162500Y-89895000I250000J0D01*
G01*
X176837500Y-89895000D01*
G75*
G02*
X177087500Y-90145000I0J-250000D01*
G01*
G37*
G04 #@! TD.AperFunction*
G04 #@! TA.AperFunction,SMDPad,CuDef*
G36*
G01*
X175012500Y-90145000D02*
X175012500Y-91095000D01*
G75*
G02*
X174762500Y-91345000I-250000J0D01*
G01*
X174087500Y-91345000D01*
G75*
G02*
X173837500Y-91095000I0J250000D01*
G01*
X173837500Y-90145000D01*
G75*
G02*
X174087500Y-89895000I250000J0D01*
G01*
X174762500Y-89895000D01*
G75*
G02*
X175012500Y-90145000I0J-250000D01*
G01*
G37*
G04 #@! TD.AperFunction*
G04 #@! TA.AperFunction,SMDPad,CuDef*
G36*
G01*
X172555000Y-90420000D02*
X172245000Y-90420000D01*
G75*
G02*
X172090000Y-90265000I0J155000D01*
G01*
X172090000Y-89840000D01*
G75*
G02*
X172245000Y-89685000I155000J0D01*
G01*
X172555000Y-89685000D01*
G75*
G02*
X172710000Y-89840000I0J-155000D01*
G01*
X172710000Y-90265000D01*
G75*
G02*
X172555000Y-90420000I-155000J0D01*
G01*
G37*
G04 #@! TD.AperFunction*
G04 #@! TA.AperFunction,SMDPad,CuDef*
G36*
G01*
X172555000Y-91555000D02*
X172245000Y-91555000D01*
G75*
G02*
X172090000Y-91400000I0J155000D01*
G01*
X172090000Y-90975000D01*
G75*
G02*
X172245000Y-90820000I155000J0D01*
G01*
X172555000Y-90820000D01*
G75*
G02*
X172710000Y-90975000I0J-155000D01*
G01*
X172710000Y-91400000D01*
G75*
G02*
X172555000Y-91555000I-155000J0D01*
G01*
G37*
G04 #@! TD.AperFunction*
G04 #@! TA.AperFunction,SMDPad,CuDef*
G36*
G01*
X171055000Y-91555000D02*
X170745000Y-91555000D01*
G75*
G02*
X170590000Y-91400000I0J155000D01*
G01*
X170590000Y-90975000D01*
G75*
G02*
X170745000Y-90820000I155000J0D01*
G01*
X171055000Y-90820000D01*
G75*
G02*
X171210000Y-90975000I0J-155000D01*
G01*
X171210000Y-91400000D01*
G75*
G02*
X171055000Y-91555000I-155000J0D01*
G01*
G37*
G04 #@! TD.AperFunction*
G04 #@! TA.AperFunction,SMDPad,CuDef*
G36*
G01*
X171055000Y-90420000D02*
X170745000Y-90420000D01*
G75*
G02*
X170590000Y-90265000I0J155000D01*
G01*
X170590000Y-89840000D01*
G75*
G02*
X170745000Y-89685000I155000J0D01*
G01*
X171055000Y-89685000D01*
G75*
G02*
X171210000Y-89840000I0J-155000D01*
G01*
X171210000Y-90265000D01*
G75*
G02*
X171055000Y-90420000I-155000J0D01*
G01*
G37*
G04 #@! TD.AperFunction*
G04 #@! TA.AperFunction,SMDPad,CuDef*
G36*
G01*
X154555000Y-108122500D02*
X154245000Y-108122500D01*
G75*
G02*
X154090000Y-107967500I0J155000D01*
G01*
X154090000Y-107542500D01*
G75*
G02*
X154245000Y-107387500I155000J0D01*
G01*
X154555000Y-107387500D01*
G75*
G02*
X154710000Y-107542500I0J-155000D01*
G01*
X154710000Y-107967500D01*
G75*
G02*
X154555000Y-108122500I-155000J0D01*
G01*
G37*
G04 #@! TD.AperFunction*
G04 #@! TA.AperFunction,SMDPad,CuDef*
G36*
G01*
X154555000Y-106987500D02*
X154245000Y-106987500D01*
G75*
G02*
X154090000Y-106832500I0J155000D01*
G01*
X154090000Y-106407500D01*
G75*
G02*
X154245000Y-106252500I155000J0D01*
G01*
X154555000Y-106252500D01*
G75*
G02*
X154710000Y-106407500I0J-155000D01*
G01*
X154710000Y-106832500D01*
G75*
G02*
X154555000Y-106987500I-155000J0D01*
G01*
G37*
G04 #@! TD.AperFunction*
G04 #@! TA.AperFunction,SMDPad,CuDef*
G36*
G01*
X162729997Y-79563000D02*
X164930003Y-79563000D01*
G75*
G02*
X165180000Y-79812997I0J-249997D01*
G01*
X165180000Y-80638003D01*
G75*
G02*
X164930003Y-80888000I-249997J0D01*
G01*
X162729997Y-80888000D01*
G75*
G02*
X162480000Y-80638003I0J249997D01*
G01*
X162480000Y-79812997D01*
G75*
G02*
X162729997Y-79563000I249997J0D01*
G01*
G37*
G04 #@! TD.AperFunction*
G04 #@! TA.AperFunction,SMDPad,CuDef*
G36*
G01*
X162729997Y-82688000D02*
X164930003Y-82688000D01*
G75*
G02*
X165180000Y-82937997I0J-249997D01*
G01*
X165180000Y-83763003D01*
G75*
G02*
X164930003Y-84013000I-249997J0D01*
G01*
X162729997Y-84013000D01*
G75*
G02*
X162480000Y-83763003I0J249997D01*
G01*
X162480000Y-82937997D01*
G75*
G02*
X162729997Y-82688000I249997J0D01*
G01*
G37*
G04 #@! TD.AperFunction*
G04 #@! TA.AperFunction,SMDPad,CuDef*
G36*
G01*
X159799000Y-83465000D02*
X160749000Y-83465000D01*
G75*
G02*
X160999000Y-83715000I0J-250000D01*
G01*
X160999000Y-84390000D01*
G75*
G02*
X160749000Y-84640000I-250000J0D01*
G01*
X159799000Y-84640000D01*
G75*
G02*
X159549000Y-84390000I0J250000D01*
G01*
X159549000Y-83715000D01*
G75*
G02*
X159799000Y-83465000I250000J0D01*
G01*
G37*
G04 #@! TD.AperFunction*
G04 #@! TA.AperFunction,SMDPad,CuDef*
G36*
G01*
X159799000Y-85540000D02*
X160749000Y-85540000D01*
G75*
G02*
X160999000Y-85790000I0J-250000D01*
G01*
X160999000Y-86465000D01*
G75*
G02*
X160749000Y-86715000I-250000J0D01*
G01*
X159799000Y-86715000D01*
G75*
G02*
X159549000Y-86465000I0J250000D01*
G01*
X159549000Y-85790000D01*
G75*
G02*
X159799000Y-85540000I250000J0D01*
G01*
G37*
G04 #@! TD.AperFunction*
G04 #@! TA.AperFunction,SMDPad,CuDef*
G36*
G01*
X162645000Y-86620000D02*
X162955000Y-86620000D01*
G75*
G02*
X163110000Y-86775000I0J-155000D01*
G01*
X163110000Y-87200000D01*
G75*
G02*
X162955000Y-87355000I-155000J0D01*
G01*
X162645000Y-87355000D01*
G75*
G02*
X162490000Y-87200000I0J155000D01*
G01*
X162490000Y-86775000D01*
G75*
G02*
X162645000Y-86620000I155000J0D01*
G01*
G37*
G04 #@! TD.AperFunction*
G04 #@! TA.AperFunction,SMDPad,CuDef*
G36*
G01*
X162645000Y-85485000D02*
X162955000Y-85485000D01*
G75*
G02*
X163110000Y-85640000I0J-155000D01*
G01*
X163110000Y-86065000D01*
G75*
G02*
X162955000Y-86220000I-155000J0D01*
G01*
X162645000Y-86220000D01*
G75*
G02*
X162490000Y-86065000I0J155000D01*
G01*
X162490000Y-85640000D01*
G75*
G02*
X162645000Y-85485000I155000J0D01*
G01*
G37*
G04 #@! TD.AperFunction*
G04 #@! TA.AperFunction,SMDPad,CuDef*
G36*
G01*
X164045000Y-85485000D02*
X164355000Y-85485000D01*
G75*
G02*
X164510000Y-85640000I0J-155000D01*
G01*
X164510000Y-86065000D01*
G75*
G02*
X164355000Y-86220000I-155000J0D01*
G01*
X164045000Y-86220000D01*
G75*
G02*
X163890000Y-86065000I0J155000D01*
G01*
X163890000Y-85640000D01*
G75*
G02*
X164045000Y-85485000I155000J0D01*
G01*
G37*
G04 #@! TD.AperFunction*
G04 #@! TA.AperFunction,SMDPad,CuDef*
G36*
G01*
X164045000Y-86620000D02*
X164355000Y-86620000D01*
G75*
G02*
X164510000Y-86775000I0J-155000D01*
G01*
X164510000Y-87200000D01*
G75*
G02*
X164355000Y-87355000I-155000J0D01*
G01*
X164045000Y-87355000D01*
G75*
G02*
X163890000Y-87200000I0J155000D01*
G01*
X163890000Y-86775000D01*
G75*
G02*
X164045000Y-86620000I155000J0D01*
G01*
G37*
G04 #@! TD.AperFunction*
G04 #@! TA.AperFunction,SMDPad,CuDef*
G36*
G01*
X166271000Y-106480000D02*
X165961000Y-106480000D01*
G75*
G02*
X165806000Y-106325000I0J155000D01*
G01*
X165806000Y-105900000D01*
G75*
G02*
X165961000Y-105745000I155000J0D01*
G01*
X166271000Y-105745000D01*
G75*
G02*
X166426000Y-105900000I0J-155000D01*
G01*
X166426000Y-106325000D01*
G75*
G02*
X166271000Y-106480000I-155000J0D01*
G01*
G37*
G04 #@! TD.AperFunction*
G04 #@! TA.AperFunction,SMDPad,CuDef*
G36*
G01*
X166271000Y-107615000D02*
X165961000Y-107615000D01*
G75*
G02*
X165806000Y-107460000I0J155000D01*
G01*
X165806000Y-107035000D01*
G75*
G02*
X165961000Y-106880000I155000J0D01*
G01*
X166271000Y-106880000D01*
G75*
G02*
X166426000Y-107035000I0J-155000D01*
G01*
X166426000Y-107460000D01*
G75*
G02*
X166271000Y-107615000I-155000J0D01*
G01*
G37*
G04 #@! TD.AperFunction*
G04 #@! TA.AperFunction,SMDPad,CuDef*
G36*
G01*
X169131000Y-106992000D02*
X168181000Y-106992000D01*
G75*
G02*
X167931000Y-106742000I0J250000D01*
G01*
X167931000Y-106067000D01*
G75*
G02*
X168181000Y-105817000I250000J0D01*
G01*
X169131000Y-105817000D01*
G75*
G02*
X169381000Y-106067000I0J-250000D01*
G01*
X169381000Y-106742000D01*
G75*
G02*
X169131000Y-106992000I-250000J0D01*
G01*
G37*
G04 #@! TD.AperFunction*
G04 #@! TA.AperFunction,SMDPad,CuDef*
G36*
G01*
X169131000Y-109067000D02*
X168181000Y-109067000D01*
G75*
G02*
X167931000Y-108817000I0J250000D01*
G01*
X167931000Y-108142000D01*
G75*
G02*
X168181000Y-107892000I250000J0D01*
G01*
X169131000Y-107892000D01*
G75*
G02*
X169381000Y-108142000I0J-250000D01*
G01*
X169381000Y-108817000D01*
G75*
G02*
X169131000Y-109067000I-250000J0D01*
G01*
G37*
G04 #@! TD.AperFunction*
G04 #@! TA.AperFunction,SMDPad,CuDef*
G36*
G01*
X171671000Y-109067000D02*
X170721000Y-109067000D01*
G75*
G02*
X170471000Y-108817000I0J250000D01*
G01*
X170471000Y-108142000D01*
G75*
G02*
X170721000Y-107892000I250000J0D01*
G01*
X171671000Y-107892000D01*
G75*
G02*
X171921000Y-108142000I0J-250000D01*
G01*
X171921000Y-108817000D01*
G75*
G02*
X171671000Y-109067000I-250000J0D01*
G01*
G37*
G04 #@! TD.AperFunction*
G04 #@! TA.AperFunction,SMDPad,CuDef*
G36*
G01*
X171671000Y-106992000D02*
X170721000Y-106992000D01*
G75*
G02*
X170471000Y-106742000I0J250000D01*
G01*
X170471000Y-106067000D01*
G75*
G02*
X170721000Y-105817000I250000J0D01*
G01*
X171671000Y-105817000D01*
G75*
G02*
X171921000Y-106067000I0J-250000D01*
G01*
X171921000Y-106742000D01*
G75*
G02*
X171671000Y-106992000I-250000J0D01*
G01*
G37*
G04 #@! TD.AperFunction*
G04 #@! TA.AperFunction,SMDPad,CuDef*
G36*
G01*
X174211000Y-108516000D02*
X173261000Y-108516000D01*
G75*
G02*
X173011000Y-108266000I0J250000D01*
G01*
X173011000Y-107591000D01*
G75*
G02*
X173261000Y-107341000I250000J0D01*
G01*
X174211000Y-107341000D01*
G75*
G02*
X174461000Y-107591000I0J-250000D01*
G01*
X174461000Y-108266000D01*
G75*
G02*
X174211000Y-108516000I-250000J0D01*
G01*
G37*
G04 #@! TD.AperFunction*
G04 #@! TA.AperFunction,SMDPad,CuDef*
G36*
G01*
X174211000Y-110591000D02*
X173261000Y-110591000D01*
G75*
G02*
X173011000Y-110341000I0J250000D01*
G01*
X173011000Y-109666000D01*
G75*
G02*
X173261000Y-109416000I250000J0D01*
G01*
X174211000Y-109416000D01*
G75*
G02*
X174461000Y-109666000I0J-250000D01*
G01*
X174461000Y-110341000D01*
G75*
G02*
X174211000Y-110591000I-250000J0D01*
G01*
G37*
G04 #@! TD.AperFunction*
G04 #@! TA.AperFunction,SMDPad,CuDef*
G36*
G01*
X170975000Y-110135000D02*
X171925000Y-110135000D01*
G75*
G02*
X172175000Y-110385000I0J-250000D01*
G01*
X172175000Y-111060000D01*
G75*
G02*
X171925000Y-111310000I-250000J0D01*
G01*
X170975000Y-111310000D01*
G75*
G02*
X170725000Y-111060000I0J250000D01*
G01*
X170725000Y-110385000D01*
G75*
G02*
X170975000Y-110135000I250000J0D01*
G01*
G37*
G04 #@! TD.AperFunction*
G04 #@! TA.AperFunction,SMDPad,CuDef*
G36*
G01*
X170975000Y-112210000D02*
X171925000Y-112210000D01*
G75*
G02*
X172175000Y-112460000I0J-250000D01*
G01*
X172175000Y-113135000D01*
G75*
G02*
X171925000Y-113385000I-250000J0D01*
G01*
X170975000Y-113385000D01*
G75*
G02*
X170725000Y-113135000I0J250000D01*
G01*
X170725000Y-112460000D01*
G75*
G02*
X170975000Y-112210000I250000J0D01*
G01*
G37*
G04 #@! TD.AperFunction*
G04 #@! TA.AperFunction,SMDPad,CuDef*
G36*
G01*
X168181000Y-112210000D02*
X169131000Y-112210000D01*
G75*
G02*
X169381000Y-112460000I0J-250000D01*
G01*
X169381000Y-113135000D01*
G75*
G02*
X169131000Y-113385000I-250000J0D01*
G01*
X168181000Y-113385000D01*
G75*
G02*
X167931000Y-113135000I0J250000D01*
G01*
X167931000Y-112460000D01*
G75*
G02*
X168181000Y-112210000I250000J0D01*
G01*
G37*
G04 #@! TD.AperFunction*
G04 #@! TA.AperFunction,SMDPad,CuDef*
G36*
G01*
X168181000Y-110135000D02*
X169131000Y-110135000D01*
G75*
G02*
X169381000Y-110385000I0J-250000D01*
G01*
X169381000Y-111060000D01*
G75*
G02*
X169131000Y-111310000I-250000J0D01*
G01*
X168181000Y-111310000D01*
G75*
G02*
X167931000Y-111060000I0J250000D01*
G01*
X167931000Y-110385000D01*
G75*
G02*
X168181000Y-110135000I250000J0D01*
G01*
G37*
G04 #@! TD.AperFunction*
G04 #@! TA.AperFunction,SMDPad,CuDef*
G36*
G01*
X181965000Y-135669000D02*
X181965000Y-136619000D01*
G75*
G02*
X181715000Y-136869000I-250000J0D01*
G01*
X181040000Y-136869000D01*
G75*
G02*
X180790000Y-136619000I0J250000D01*
G01*
X180790000Y-135669000D01*
G75*
G02*
X181040000Y-135419000I250000J0D01*
G01*
X181715000Y-135419000D01*
G75*
G02*
X181965000Y-135669000I0J-250000D01*
G01*
G37*
G04 #@! TD.AperFunction*
G04 #@! TA.AperFunction,SMDPad,CuDef*
G36*
G01*
X179890000Y-135669000D02*
X179890000Y-136619000D01*
G75*
G02*
X179640000Y-136869000I-250000J0D01*
G01*
X178965000Y-136869000D01*
G75*
G02*
X178715000Y-136619000I0J250000D01*
G01*
X178715000Y-135669000D01*
G75*
G02*
X178965000Y-135419000I250000J0D01*
G01*
X179640000Y-135419000D01*
G75*
G02*
X179890000Y-135669000I0J-250000D01*
G01*
G37*
G04 #@! TD.AperFunction*
G04 #@! TA.AperFunction,SMDPad,CuDef*
G36*
G01*
X185870000Y-136619000D02*
X185870000Y-135669000D01*
G75*
G02*
X186120000Y-135419000I250000J0D01*
G01*
X186795000Y-135419000D01*
G75*
G02*
X187045000Y-135669000I0J-250000D01*
G01*
X187045000Y-136619000D01*
G75*
G02*
X186795000Y-136869000I-250000J0D01*
G01*
X186120000Y-136869000D01*
G75*
G02*
X185870000Y-136619000I0J250000D01*
G01*
G37*
G04 #@! TD.AperFunction*
G04 #@! TA.AperFunction,SMDPad,CuDef*
G36*
G01*
X183795000Y-136619000D02*
X183795000Y-135669000D01*
G75*
G02*
X184045000Y-135419000I250000J0D01*
G01*
X184720000Y-135419000D01*
G75*
G02*
X184970000Y-135669000I0J-250000D01*
G01*
X184970000Y-136619000D01*
G75*
G02*
X184720000Y-136869000I-250000J0D01*
G01*
X184045000Y-136869000D01*
G75*
G02*
X183795000Y-136619000I0J250000D01*
G01*
G37*
G04 #@! TD.AperFunction*
G04 #@! TA.AperFunction,SMDPad,CuDef*
G36*
G01*
X186378000Y-87851000D02*
X186378000Y-86901000D01*
G75*
G02*
X186628000Y-86651000I250000J0D01*
G01*
X187303000Y-86651000D01*
G75*
G02*
X187553000Y-86901000I0J-250000D01*
G01*
X187553000Y-87851000D01*
G75*
G02*
X187303000Y-88101000I-250000J0D01*
G01*
X186628000Y-88101000D01*
G75*
G02*
X186378000Y-87851000I0J250000D01*
G01*
G37*
G04 #@! TD.AperFunction*
G04 #@! TA.AperFunction,SMDPad,CuDef*
G36*
G01*
X184303000Y-87851000D02*
X184303000Y-86901000D01*
G75*
G02*
X184553000Y-86651000I250000J0D01*
G01*
X185228000Y-86651000D01*
G75*
G02*
X185478000Y-86901000I0J-250000D01*
G01*
X185478000Y-87851000D01*
G75*
G02*
X185228000Y-88101000I-250000J0D01*
G01*
X184553000Y-88101000D01*
G75*
G02*
X184303000Y-87851000I0J250000D01*
G01*
G37*
G04 #@! TD.AperFunction*
G04 #@! TA.AperFunction,SMDPad,CuDef*
G36*
G01*
X184993000Y-85499000D02*
X184993000Y-85189000D01*
G75*
G02*
X185148000Y-85034000I155000J0D01*
G01*
X185573000Y-85034000D01*
G75*
G02*
X185728000Y-85189000I0J-155000D01*
G01*
X185728000Y-85499000D01*
G75*
G02*
X185573000Y-85654000I-155000J0D01*
G01*
X185148000Y-85654000D01*
G75*
G02*
X184993000Y-85499000I0J155000D01*
G01*
G37*
G04 #@! TD.AperFunction*
G04 #@! TA.AperFunction,SMDPad,CuDef*
G36*
G01*
X186128000Y-85499000D02*
X186128000Y-85189000D01*
G75*
G02*
X186283000Y-85034000I155000J0D01*
G01*
X186708000Y-85034000D01*
G75*
G02*
X186863000Y-85189000I0J-155000D01*
G01*
X186863000Y-85499000D01*
G75*
G02*
X186708000Y-85654000I-155000J0D01*
G01*
X186283000Y-85654000D01*
G75*
G02*
X186128000Y-85499000I0J155000D01*
G01*
G37*
G04 #@! TD.AperFunction*
G04 #@! TA.AperFunction,SMDPad,CuDef*
G36*
G01*
X168779500Y-115442001D02*
X168779500Y-114541999D01*
G75*
G02*
X169029499Y-114292000I249999J0D01*
G01*
X169729501Y-114292000D01*
G75*
G02*
X169979500Y-114541999I0J-249999D01*
G01*
X169979500Y-115442001D01*
G75*
G02*
X169729501Y-115692000I-249999J0D01*
G01*
X169029499Y-115692000D01*
G75*
G02*
X168779500Y-115442001I0J249999D01*
G01*
G37*
G04 #@! TD.AperFunction*
G04 #@! TA.AperFunction,SMDPad,CuDef*
G36*
G01*
X170779500Y-115442001D02*
X170779500Y-114541999D01*
G75*
G02*
X171029499Y-114292000I249999J0D01*
G01*
X171729501Y-114292000D01*
G75*
G02*
X171979500Y-114541999I0J-249999D01*
G01*
X171979500Y-115442001D01*
G75*
G02*
X171729501Y-115692000I-249999J0D01*
G01*
X171029499Y-115692000D01*
G75*
G02*
X170779500Y-115442001I0J249999D01*
G01*
G37*
G04 #@! TD.AperFunction*
G04 #@! TA.AperFunction,SMDPad,CuDef*
G36*
G01*
X168802000Y-118052001D02*
X168802000Y-117151999D01*
G75*
G02*
X169051999Y-116902000I249999J0D01*
G01*
X169752001Y-116902000D01*
G75*
G02*
X170002000Y-117151999I0J-249999D01*
G01*
X170002000Y-118052001D01*
G75*
G02*
X169752001Y-118302000I-249999J0D01*
G01*
X169051999Y-118302000D01*
G75*
G02*
X168802000Y-118052001I0J249999D01*
G01*
G37*
G04 #@! TD.AperFunction*
G04 #@! TA.AperFunction,SMDPad,CuDef*
G36*
G01*
X170802000Y-118052001D02*
X170802000Y-117151999D01*
G75*
G02*
X171051999Y-116902000I249999J0D01*
G01*
X171752001Y-116902000D01*
G75*
G02*
X172002000Y-117151999I0J-249999D01*
G01*
X172002000Y-118052001D01*
G75*
G02*
X171752001Y-118302000I-249999J0D01*
G01*
X171051999Y-118302000D01*
G75*
G02*
X170802000Y-118052001I0J249999D01*
G01*
G37*
G04 #@! TD.AperFunction*
G04 #@! TA.AperFunction,SMDPad,CuDef*
G36*
G01*
X172000000Y-103529999D02*
X172000000Y-104430001D01*
G75*
G02*
X171750001Y-104680000I-249999J0D01*
G01*
X171049999Y-104680000D01*
G75*
G02*
X170800000Y-104430001I0J249999D01*
G01*
X170800000Y-103529999D01*
G75*
G02*
X171049999Y-103280000I249999J0D01*
G01*
X171750001Y-103280000D01*
G75*
G02*
X172000000Y-103529999I0J-249999D01*
G01*
G37*
G04 #@! TD.AperFunction*
G04 #@! TA.AperFunction,SMDPad,CuDef*
G36*
G01*
X174000000Y-103529999D02*
X174000000Y-104430001D01*
G75*
G02*
X173750001Y-104680000I-249999J0D01*
G01*
X173049999Y-104680000D01*
G75*
G02*
X172800000Y-104430001I0J249999D01*
G01*
X172800000Y-103529999D01*
G75*
G02*
X173049999Y-103280000I249999J0D01*
G01*
X173750001Y-103280000D01*
G75*
G02*
X174000000Y-103529999I0J-249999D01*
G01*
G37*
G04 #@! TD.AperFunction*
G04 #@! TA.AperFunction,SMDPad,CuDef*
G36*
G01*
X188918001Y-132156000D02*
X188017999Y-132156000D01*
G75*
G02*
X187768000Y-131906001I0J249999D01*
G01*
X187768000Y-131205999D01*
G75*
G02*
X188017999Y-130956000I249999J0D01*
G01*
X188918001Y-130956000D01*
G75*
G02*
X189168000Y-131205999I0J-249999D01*
G01*
X189168000Y-131906001D01*
G75*
G02*
X188918001Y-132156000I-249999J0D01*
G01*
G37*
G04 #@! TD.AperFunction*
G04 #@! TA.AperFunction,SMDPad,CuDef*
G36*
G01*
X188918001Y-130156000D02*
X188017999Y-130156000D01*
G75*
G02*
X187768000Y-129906001I0J249999D01*
G01*
X187768000Y-129205999D01*
G75*
G02*
X188017999Y-128956000I249999J0D01*
G01*
X188918001Y-128956000D01*
G75*
G02*
X189168000Y-129205999I0J-249999D01*
G01*
X189168000Y-129906001D01*
G75*
G02*
X188918001Y-130156000I-249999J0D01*
G01*
G37*
G04 #@! TD.AperFunction*
G04 #@! TA.AperFunction,SMDPad,CuDef*
G36*
G01*
X177095999Y-67456000D02*
X177996001Y-67456000D01*
G75*
G02*
X178246000Y-67705999I0J-249999D01*
G01*
X178246000Y-68406001D01*
G75*
G02*
X177996001Y-68656000I-249999J0D01*
G01*
X177095999Y-68656000D01*
G75*
G02*
X176846000Y-68406001I0J249999D01*
G01*
X176846000Y-67705999D01*
G75*
G02*
X177095999Y-67456000I249999J0D01*
G01*
G37*
G04 #@! TD.AperFunction*
G04 #@! TA.AperFunction,SMDPad,CuDef*
G36*
G01*
X177095999Y-65456000D02*
X177996001Y-65456000D01*
G75*
G02*
X178246000Y-65705999I0J-249999D01*
G01*
X178246000Y-66406001D01*
G75*
G02*
X177996001Y-66656000I-249999J0D01*
G01*
X177095999Y-66656000D01*
G75*
G02*
X176846000Y-66406001I0J249999D01*
G01*
X176846000Y-65705999D01*
G75*
G02*
X177095999Y-65456000I249999J0D01*
G01*
G37*
G04 #@! TD.AperFunction*
G04 #@! TA.AperFunction,SMDPad,CuDef*
G36*
G01*
X184461999Y-67456000D02*
X185362001Y-67456000D01*
G75*
G02*
X185612000Y-67705999I0J-249999D01*
G01*
X185612000Y-68406001D01*
G75*
G02*
X185362001Y-68656000I-249999J0D01*
G01*
X184461999Y-68656000D01*
G75*
G02*
X184212000Y-68406001I0J249999D01*
G01*
X184212000Y-67705999D01*
G75*
G02*
X184461999Y-67456000I249999J0D01*
G01*
G37*
G04 #@! TD.AperFunction*
G04 #@! TA.AperFunction,SMDPad,CuDef*
G36*
G01*
X184461999Y-65456000D02*
X185362001Y-65456000D01*
G75*
G02*
X185612000Y-65705999I0J-249999D01*
G01*
X185612000Y-66406001D01*
G75*
G02*
X185362001Y-66656000I-249999J0D01*
G01*
X184461999Y-66656000D01*
G75*
G02*
X184212000Y-66406001I0J249999D01*
G01*
X184212000Y-65705999D01*
G75*
G02*
X184461999Y-65456000I249999J0D01*
G01*
G37*
G04 #@! TD.AperFunction*
G04 #@! TA.AperFunction,SMDPad,CuDef*
G36*
G01*
X125147580Y-128982599D02*
X125147580Y-129882601D01*
G75*
G02*
X124897581Y-130132600I-249999J0D01*
G01*
X124197579Y-130132600D01*
G75*
G02*
X123947580Y-129882601I0J249999D01*
G01*
X123947580Y-128982599D01*
G75*
G02*
X124197579Y-128732600I249999J0D01*
G01*
X124897581Y-128732600D01*
G75*
G02*
X125147580Y-128982599I0J-249999D01*
G01*
G37*
G04 #@! TD.AperFunction*
G04 #@! TA.AperFunction,SMDPad,CuDef*
G36*
G01*
X127147580Y-128982599D02*
X127147580Y-129882601D01*
G75*
G02*
X126897581Y-130132600I-249999J0D01*
G01*
X126197579Y-130132600D01*
G75*
G02*
X125947580Y-129882601I0J249999D01*
G01*
X125947580Y-128982599D01*
G75*
G02*
X126197579Y-128732600I249999J0D01*
G01*
X126897581Y-128732600D01*
G75*
G02*
X127147580Y-128982599I0J-249999D01*
G01*
G37*
G04 #@! TD.AperFunction*
G04 #@! TA.AperFunction,SMDPad,CuDef*
G36*
G01*
X127147580Y-126582599D02*
X127147580Y-127482601D01*
G75*
G02*
X126897581Y-127732600I-249999J0D01*
G01*
X126197579Y-127732600D01*
G75*
G02*
X125947580Y-127482601I0J249999D01*
G01*
X125947580Y-126582599D01*
G75*
G02*
X126197579Y-126332600I249999J0D01*
G01*
X126897581Y-126332600D01*
G75*
G02*
X127147580Y-126582599I0J-249999D01*
G01*
G37*
G04 #@! TD.AperFunction*
G04 #@! TA.AperFunction,SMDPad,CuDef*
G36*
G01*
X125147580Y-126582599D02*
X125147580Y-127482601D01*
G75*
G02*
X124897581Y-127732600I-249999J0D01*
G01*
X124197579Y-127732600D01*
G75*
G02*
X123947580Y-127482601I0J249999D01*
G01*
X123947580Y-126582599D01*
G75*
G02*
X124197579Y-126332600I249999J0D01*
G01*
X124897581Y-126332600D01*
G75*
G02*
X125147580Y-126582599I0J-249999D01*
G01*
G37*
G04 #@! TD.AperFunction*
G04 #@! TA.AperFunction,SMDPad,CuDef*
G36*
G01*
X125147580Y-123982599D02*
X125147580Y-124882601D01*
G75*
G02*
X124897581Y-125132600I-249999J0D01*
G01*
X124197579Y-125132600D01*
G75*
G02*
X123947580Y-124882601I0J249999D01*
G01*
X123947580Y-123982599D01*
G75*
G02*
X124197579Y-123732600I249999J0D01*
G01*
X124897581Y-123732600D01*
G75*
G02*
X125147580Y-123982599I0J-249999D01*
G01*
G37*
G04 #@! TD.AperFunction*
G04 #@! TA.AperFunction,SMDPad,CuDef*
G36*
G01*
X127147580Y-123982599D02*
X127147580Y-124882601D01*
G75*
G02*
X126897581Y-125132600I-249999J0D01*
G01*
X126197579Y-125132600D01*
G75*
G02*
X125947580Y-124882601I0J249999D01*
G01*
X125947580Y-123982599D01*
G75*
G02*
X126197579Y-123732600I249999J0D01*
G01*
X126897581Y-123732600D01*
G75*
G02*
X127147580Y-123982599I0J-249999D01*
G01*
G37*
G04 #@! TD.AperFunction*
G04 #@! TA.AperFunction,SMDPad,CuDef*
G36*
G01*
X127147580Y-121282599D02*
X127147580Y-122182601D01*
G75*
G02*
X126897581Y-122432600I-249999J0D01*
G01*
X126197579Y-122432600D01*
G75*
G02*
X125947580Y-122182601I0J249999D01*
G01*
X125947580Y-121282599D01*
G75*
G02*
X126197579Y-121032600I249999J0D01*
G01*
X126897581Y-121032600D01*
G75*
G02*
X127147580Y-121282599I0J-249999D01*
G01*
G37*
G04 #@! TD.AperFunction*
G04 #@! TA.AperFunction,SMDPad,CuDef*
G36*
G01*
X125147580Y-121282599D02*
X125147580Y-122182601D01*
G75*
G02*
X124897581Y-122432600I-249999J0D01*
G01*
X124197579Y-122432600D01*
G75*
G02*
X123947580Y-122182601I0J249999D01*
G01*
X123947580Y-121282599D01*
G75*
G02*
X124197579Y-121032600I249999J0D01*
G01*
X124897581Y-121032600D01*
G75*
G02*
X125147580Y-121282599I0J-249999D01*
G01*
G37*
G04 #@! TD.AperFunction*
G04 #@! TA.AperFunction,SMDPad,CuDef*
G36*
G01*
X125147580Y-118782599D02*
X125147580Y-119682601D01*
G75*
G02*
X124897581Y-119932600I-249999J0D01*
G01*
X124197579Y-119932600D01*
G75*
G02*
X123947580Y-119682601I0J249999D01*
G01*
X123947580Y-118782599D01*
G75*
G02*
X124197579Y-118532600I249999J0D01*
G01*
X124897581Y-118532600D01*
G75*
G02*
X125147580Y-118782599I0J-249999D01*
G01*
G37*
G04 #@! TD.AperFunction*
G04 #@! TA.AperFunction,SMDPad,CuDef*
G36*
G01*
X127147580Y-118782599D02*
X127147580Y-119682601D01*
G75*
G02*
X126897581Y-119932600I-249999J0D01*
G01*
X126197579Y-119932600D01*
G75*
G02*
X125947580Y-119682601I0J249999D01*
G01*
X125947580Y-118782599D01*
G75*
G02*
X126197579Y-118532600I249999J0D01*
G01*
X126897581Y-118532600D01*
G75*
G02*
X127147580Y-118782599I0J-249999D01*
G01*
G37*
G04 #@! TD.AperFunction*
G04 #@! TA.AperFunction,SMDPad,CuDef*
G36*
G01*
X127147580Y-116482599D02*
X127147580Y-117382601D01*
G75*
G02*
X126897581Y-117632600I-249999J0D01*
G01*
X126197579Y-117632600D01*
G75*
G02*
X125947580Y-117382601I0J249999D01*
G01*
X125947580Y-116482599D01*
G75*
G02*
X126197579Y-116232600I249999J0D01*
G01*
X126897581Y-116232600D01*
G75*
G02*
X127147580Y-116482599I0J-249999D01*
G01*
G37*
G04 #@! TD.AperFunction*
G04 #@! TA.AperFunction,SMDPad,CuDef*
G36*
G01*
X125147580Y-116482599D02*
X125147580Y-117382601D01*
G75*
G02*
X124897581Y-117632600I-249999J0D01*
G01*
X124197579Y-117632600D01*
G75*
G02*
X123947580Y-117382601I0J249999D01*
G01*
X123947580Y-116482599D01*
G75*
G02*
X124197579Y-116232600I249999J0D01*
G01*
X124897581Y-116232600D01*
G75*
G02*
X125147580Y-116482599I0J-249999D01*
G01*
G37*
G04 #@! TD.AperFunction*
G04 #@! TA.AperFunction,SMDPad,CuDef*
G36*
G01*
X125147580Y-113832599D02*
X125147580Y-114732601D01*
G75*
G02*
X124897581Y-114982600I-249999J0D01*
G01*
X124197579Y-114982600D01*
G75*
G02*
X123947580Y-114732601I0J249999D01*
G01*
X123947580Y-113832599D01*
G75*
G02*
X124197579Y-113582600I249999J0D01*
G01*
X124897581Y-113582600D01*
G75*
G02*
X125147580Y-113832599I0J-249999D01*
G01*
G37*
G04 #@! TD.AperFunction*
G04 #@! TA.AperFunction,SMDPad,CuDef*
G36*
G01*
X127147580Y-113832599D02*
X127147580Y-114732601D01*
G75*
G02*
X126897581Y-114982600I-249999J0D01*
G01*
X126197579Y-114982600D01*
G75*
G02*
X125947580Y-114732601I0J249999D01*
G01*
X125947580Y-113832599D01*
G75*
G02*
X126197579Y-113582600I249999J0D01*
G01*
X126897581Y-113582600D01*
G75*
G02*
X127147580Y-113832599I0J-249999D01*
G01*
G37*
G04 #@! TD.AperFunction*
G04 #@! TA.AperFunction,SMDPad,CuDef*
G36*
G01*
X125150000Y-111369999D02*
X125150000Y-112270001D01*
G75*
G02*
X124900001Y-112520000I-249999J0D01*
G01*
X124199999Y-112520000D01*
G75*
G02*
X123950000Y-112270001I0J249999D01*
G01*
X123950000Y-111369999D01*
G75*
G02*
X124199999Y-111120000I249999J0D01*
G01*
X124900001Y-111120000D01*
G75*
G02*
X125150000Y-111369999I0J-249999D01*
G01*
G37*
G04 #@! TD.AperFunction*
G04 #@! TA.AperFunction,SMDPad,CuDef*
G36*
G01*
X127150000Y-111369999D02*
X127150000Y-112270001D01*
G75*
G02*
X126900001Y-112520000I-249999J0D01*
G01*
X126199999Y-112520000D01*
G75*
G02*
X125950000Y-112270001I0J249999D01*
G01*
X125950000Y-111369999D01*
G75*
G02*
X126199999Y-111120000I249999J0D01*
G01*
X126900001Y-111120000D01*
G75*
G02*
X127150000Y-111369999I0J-249999D01*
G01*
G37*
G04 #@! TD.AperFunction*
G04 #@! TA.AperFunction,SMDPad,CuDef*
G36*
G01*
X138800000Y-128969999D02*
X138800000Y-129870001D01*
G75*
G02*
X138550001Y-130120000I-249999J0D01*
G01*
X137849999Y-130120000D01*
G75*
G02*
X137600000Y-129870001I0J249999D01*
G01*
X137600000Y-128969999D01*
G75*
G02*
X137849999Y-128720000I249999J0D01*
G01*
X138550001Y-128720000D01*
G75*
G02*
X138800000Y-128969999I0J-249999D01*
G01*
G37*
G04 #@! TD.AperFunction*
G04 #@! TA.AperFunction,SMDPad,CuDef*
G36*
G01*
X136800000Y-128969999D02*
X136800000Y-129870001D01*
G75*
G02*
X136550001Y-130120000I-249999J0D01*
G01*
X135849999Y-130120000D01*
G75*
G02*
X135600000Y-129870001I0J249999D01*
G01*
X135600000Y-128969999D01*
G75*
G02*
X135849999Y-128720000I249999J0D01*
G01*
X136550001Y-128720000D01*
G75*
G02*
X136800000Y-128969999I0J-249999D01*
G01*
G37*
G04 #@! TD.AperFunction*
G04 #@! TA.AperFunction,SMDPad,CuDef*
G36*
G01*
X138800000Y-123969999D02*
X138800000Y-124870001D01*
G75*
G02*
X138550001Y-125120000I-249999J0D01*
G01*
X137849999Y-125120000D01*
G75*
G02*
X137600000Y-124870001I0J249999D01*
G01*
X137600000Y-123969999D01*
G75*
G02*
X137849999Y-123720000I249999J0D01*
G01*
X138550001Y-123720000D01*
G75*
G02*
X138800000Y-123969999I0J-249999D01*
G01*
G37*
G04 #@! TD.AperFunction*
G04 #@! TA.AperFunction,SMDPad,CuDef*
G36*
G01*
X136800000Y-123969999D02*
X136800000Y-124870001D01*
G75*
G02*
X136550001Y-125120000I-249999J0D01*
G01*
X135849999Y-125120000D01*
G75*
G02*
X135600000Y-124870001I0J249999D01*
G01*
X135600000Y-123969999D01*
G75*
G02*
X135849999Y-123720000I249999J0D01*
G01*
X136550001Y-123720000D01*
G75*
G02*
X136800000Y-123969999I0J-249999D01*
G01*
G37*
G04 #@! TD.AperFunction*
G04 #@! TA.AperFunction,SMDPad,CuDef*
G36*
G01*
X136800000Y-121269999D02*
X136800000Y-122170001D01*
G75*
G02*
X136550001Y-122420000I-249999J0D01*
G01*
X135849999Y-122420000D01*
G75*
G02*
X135600000Y-122170001I0J249999D01*
G01*
X135600000Y-121269999D01*
G75*
G02*
X135849999Y-121020000I249999J0D01*
G01*
X136550001Y-121020000D01*
G75*
G02*
X136800000Y-121269999I0J-249999D01*
G01*
G37*
G04 #@! TD.AperFunction*
G04 #@! TA.AperFunction,SMDPad,CuDef*
G36*
G01*
X138800000Y-121269999D02*
X138800000Y-122170001D01*
G75*
G02*
X138550001Y-122420000I-249999J0D01*
G01*
X137849999Y-122420000D01*
G75*
G02*
X137600000Y-122170001I0J249999D01*
G01*
X137600000Y-121269999D01*
G75*
G02*
X137849999Y-121020000I249999J0D01*
G01*
X138550001Y-121020000D01*
G75*
G02*
X138800000Y-121269999I0J-249999D01*
G01*
G37*
G04 #@! TD.AperFunction*
G04 #@! TA.AperFunction,SMDPad,CuDef*
G36*
G01*
X138686640Y-118700119D02*
X138686640Y-119600121D01*
G75*
G02*
X138436641Y-119850120I-249999J0D01*
G01*
X137736639Y-119850120D01*
G75*
G02*
X137486640Y-119600121I0J249999D01*
G01*
X137486640Y-118700119D01*
G75*
G02*
X137736639Y-118450120I249999J0D01*
G01*
X138436641Y-118450120D01*
G75*
G02*
X138686640Y-118700119I0J-249999D01*
G01*
G37*
G04 #@! TD.AperFunction*
G04 #@! TA.AperFunction,SMDPad,CuDef*
G36*
G01*
X136686640Y-118700119D02*
X136686640Y-119600121D01*
G75*
G02*
X136436641Y-119850120I-249999J0D01*
G01*
X135736639Y-119850120D01*
G75*
G02*
X135486640Y-119600121I0J249999D01*
G01*
X135486640Y-118700119D01*
G75*
G02*
X135736639Y-118450120I249999J0D01*
G01*
X136436641Y-118450120D01*
G75*
G02*
X136686640Y-118700119I0J-249999D01*
G01*
G37*
G04 #@! TD.AperFunction*
G04 #@! TA.AperFunction,SMDPad,CuDef*
G36*
G01*
X136676640Y-116430119D02*
X136676640Y-117330121D01*
G75*
G02*
X136426641Y-117580120I-249999J0D01*
G01*
X135726639Y-117580120D01*
G75*
G02*
X135476640Y-117330121I0J249999D01*
G01*
X135476640Y-116430119D01*
G75*
G02*
X135726639Y-116180120I249999J0D01*
G01*
X136426641Y-116180120D01*
G75*
G02*
X136676640Y-116430119I0J-249999D01*
G01*
G37*
G04 #@! TD.AperFunction*
G04 #@! TA.AperFunction,SMDPad,CuDef*
G36*
G01*
X138676640Y-116430119D02*
X138676640Y-117330121D01*
G75*
G02*
X138426641Y-117580120I-249999J0D01*
G01*
X137726639Y-117580120D01*
G75*
G02*
X137476640Y-117330121I0J249999D01*
G01*
X137476640Y-116430119D01*
G75*
G02*
X137726639Y-116180120I249999J0D01*
G01*
X138426641Y-116180120D01*
G75*
G02*
X138676640Y-116430119I0J-249999D01*
G01*
G37*
G04 #@! TD.AperFunction*
G04 #@! TA.AperFunction,SMDPad,CuDef*
G36*
G01*
X138666640Y-114020119D02*
X138666640Y-114920121D01*
G75*
G02*
X138416641Y-115170120I-249999J0D01*
G01*
X137716639Y-115170120D01*
G75*
G02*
X137466640Y-114920121I0J249999D01*
G01*
X137466640Y-114020119D01*
G75*
G02*
X137716639Y-113770120I249999J0D01*
G01*
X138416641Y-113770120D01*
G75*
G02*
X138666640Y-114020119I0J-249999D01*
G01*
G37*
G04 #@! TD.AperFunction*
G04 #@! TA.AperFunction,SMDPad,CuDef*
G36*
G01*
X136666640Y-114020119D02*
X136666640Y-114920121D01*
G75*
G02*
X136416641Y-115170120I-249999J0D01*
G01*
X135716639Y-115170120D01*
G75*
G02*
X135466640Y-114920121I0J249999D01*
G01*
X135466640Y-114020119D01*
G75*
G02*
X135716639Y-113770120I249999J0D01*
G01*
X136416641Y-113770120D01*
G75*
G02*
X136666640Y-114020119I0J-249999D01*
G01*
G37*
G04 #@! TD.AperFunction*
G04 #@! TA.AperFunction,SMDPad,CuDef*
G36*
G01*
X138650000Y-111369999D02*
X138650000Y-112270001D01*
G75*
G02*
X138400001Y-112520000I-249999J0D01*
G01*
X137699999Y-112520000D01*
G75*
G02*
X137450000Y-112270001I0J249999D01*
G01*
X137450000Y-111369999D01*
G75*
G02*
X137699999Y-111120000I249999J0D01*
G01*
X138400001Y-111120000D01*
G75*
G02*
X138650000Y-111369999I0J-249999D01*
G01*
G37*
G04 #@! TD.AperFunction*
G04 #@! TA.AperFunction,SMDPad,CuDef*
G36*
G01*
X136650000Y-111369999D02*
X136650000Y-112270001D01*
G75*
G02*
X136400001Y-112520000I-249999J0D01*
G01*
X135699999Y-112520000D01*
G75*
G02*
X135450000Y-112270001I0J249999D01*
G01*
X135450000Y-111369999D01*
G75*
G02*
X135699999Y-111120000I249999J0D01*
G01*
X136400001Y-111120000D01*
G75*
G02*
X136650000Y-111369999I0J-249999D01*
G01*
G37*
G04 #@! TD.AperFunction*
D15*
X133604000Y-81788000D03*
X143764000Y-82296000D03*
X185420000Y-84582000D03*
X185674000Y-88900000D03*
X185740000Y-119410000D03*
X128016000Y-77724000D03*
X140590000Y-77393200D03*
X142080000Y-77393200D03*
X141150000Y-77393200D03*
X141620000Y-77393200D03*
X142580000Y-77393200D03*
X143080000Y-77393200D03*
X142100000Y-76893200D03*
X141170000Y-76893200D03*
X141640000Y-76893200D03*
X142600000Y-76893200D03*
X143100000Y-76893200D03*
X159363800Y-94615200D03*
X161408500Y-94602500D03*
X161395800Y-96621800D03*
X140600000Y-77903200D03*
X141160000Y-77903200D03*
X141630000Y-77903200D03*
X142090000Y-77903200D03*
X142590000Y-77903200D03*
X141630000Y-78893200D03*
X142090000Y-78383200D03*
X143090000Y-78383200D03*
X142090000Y-78893200D03*
X141630000Y-78383200D03*
X142590000Y-78383200D03*
X140600000Y-78893200D03*
X140600000Y-78383200D03*
X141160000Y-78383200D03*
X142590000Y-78893200D03*
X143090000Y-78893200D03*
X141160000Y-78893200D03*
X140610000Y-76893200D03*
X159331000Y-96589000D03*
X143090000Y-77903200D03*
X167920000Y-114050000D03*
X166370000Y-113538000D03*
X147320000Y-97282000D03*
X155477600Y-95580400D03*
X154460000Y-89680000D03*
X139960000Y-88392000D03*
X147269200Y-100025200D03*
X154410800Y-97570000D03*
X154410800Y-95554800D03*
X137790000Y-96560000D03*
X155426800Y-94615200D03*
X136753600Y-96926400D03*
X154410800Y-94589600D03*
X136010000Y-95800000D03*
X156410000Y-94420000D03*
X135180000Y-95170000D03*
X154410800Y-93624400D03*
X134380000Y-94530000D03*
X156442800Y-92634000D03*
X130302000Y-91440000D03*
X155426800Y-91618000D03*
X131170000Y-91870000D03*
X155426800Y-92634000D03*
X132020000Y-92570000D03*
X154650000Y-92608400D03*
X132740000Y-93290000D03*
X157390000Y-93670000D03*
X133600000Y-93900000D03*
X154432000Y-86614000D03*
X125984000Y-76200000D03*
X154178000Y-87376000D03*
X126096000Y-75550000D03*
X164460000Y-92570000D03*
X165420000Y-89530000D03*
X128778000Y-93980000D03*
X163380000Y-90560000D03*
X128778000Y-98552000D03*
X166903400Y-86410800D03*
X130556000Y-101346000D03*
X188468000Y-128524000D03*
X179070000Y-68326000D03*
X183388000Y-68326000D03*
X169875200Y-88493600D03*
X164418400Y-91567200D03*
X166450400Y-90602000D03*
X169468800Y-88087200D03*
X156464000Y-99568000D03*
X155150000Y-100600000D03*
X156534389Y-98622389D03*
X155376000Y-99593600D03*
X182298181Y-86320000D03*
X171300000Y-92518321D03*
X181900000Y-85720000D03*
X172400000Y-92720000D03*
X181400000Y-85220000D03*
X165530000Y-92660000D03*
X178308000Y-111506000D03*
X166399600Y-99593600D03*
X166878000Y-104394000D03*
X166638621Y-102616000D03*
X170434000Y-100076000D03*
X177038000Y-109220000D03*
X163351600Y-96609100D03*
X178308000Y-112268000D03*
X166434258Y-101605742D03*
X173482000Y-116332000D03*
X165354000Y-106934000D03*
X142309400Y-129380600D03*
X160274000Y-100584000D03*
X142319400Y-126840600D03*
X159512000Y-99568000D03*
X142344400Y-124224400D03*
X158474800Y-101574800D03*
X142475200Y-121735200D03*
X157458800Y-101574800D03*
X142416000Y-119246000D03*
X156442800Y-101574800D03*
X157480000Y-99568000D03*
X142196200Y-116883800D03*
X154410800Y-98628400D03*
X141986000Y-105918000D03*
X155426800Y-98577600D03*
X141986000Y-104902000D03*
X157408000Y-90602000D03*
X150190000Y-84700000D03*
X158424000Y-89586000D03*
X157450000Y-91710000D03*
X153860000Y-84220000D03*
X160274000Y-99568000D03*
X166366750Y-100604844D03*
X164420000Y-95590000D03*
X161290000Y-100584000D03*
X162386400Y-101574800D03*
X159440000Y-90602000D03*
X165354000Y-99568000D03*
X162306000Y-99568000D03*
X163322000Y-99568000D03*
X152080000Y-75973200D03*
X150400000Y-75973200D03*
X150930000Y-75973200D03*
X151500000Y-75973200D03*
X152120000Y-78203200D03*
X150440000Y-78203200D03*
X152660000Y-78203200D03*
X150970000Y-78203200D03*
X151540000Y-78203200D03*
X152120000Y-78723200D03*
X150440000Y-78723200D03*
X152660000Y-78723200D03*
X151540000Y-78723200D03*
X152110000Y-77133200D03*
X150430000Y-77133200D03*
X152650000Y-77133200D03*
X150960000Y-77133200D03*
X151530000Y-77133200D03*
X152100000Y-76543200D03*
X150420000Y-76543200D03*
X152640000Y-76543200D03*
X150950000Y-76543200D03*
X151520000Y-76543200D03*
X150980000Y-77663200D03*
X151550000Y-77663200D03*
X152130000Y-77663200D03*
X167415600Y-90652800D03*
X158411300Y-90627400D03*
X156379300Y-89598700D03*
X165396300Y-88582700D03*
X162373700Y-90563900D03*
X153445600Y-100609600D03*
X155477600Y-102590800D03*
X158411300Y-100622300D03*
X165383600Y-97625100D03*
X166437700Y-95631200D03*
X165434400Y-93650000D03*
X162373700Y-100647700D03*
X155490000Y-97620000D03*
X164418400Y-102641600D03*
X154410800Y-91618000D03*
X157408000Y-98628400D03*
X161370400Y-98577600D03*
X162510000Y-93550000D03*
X162660000Y-96590000D03*
X157408000Y-94615200D03*
X159440000Y-92583200D03*
X150450000Y-77663200D03*
X152670000Y-77663200D03*
X160528000Y-88646000D03*
X181127400Y-114071400D03*
X188950600Y-69392800D03*
X148900000Y-87620000D03*
X152300000Y-88313657D03*
X172200000Y-87320000D03*
X155439500Y-93611900D03*
X153440000Y-95550000D03*
X150700000Y-102920000D03*
X159440000Y-102641600D03*
X166116000Y-83312000D03*
X150970000Y-78723200D03*
X152620000Y-75973200D03*
X161036000Y-81026000D03*
X163286000Y-128306000D03*
X176962000Y-120874000D03*
X135350000Y-101180000D03*
X144270000Y-83880000D03*
X182880000Y-136144000D03*
X151892000Y-113538000D03*
X172650000Y-114992000D03*
X170688000Y-107442000D03*
X177038000Y-79756000D03*
X175768000Y-112014000D03*
X153000000Y-105420000D03*
X148020000Y-110730000D03*
X157390000Y-92620000D03*
X156442800Y-91618000D03*
X167510000Y-100609599D03*
X162740000Y-103980000D03*
X177580000Y-101400000D03*
X181860000Y-95900000D03*
X167415600Y-98577600D03*
X158424000Y-88620800D03*
X168495100Y-87541300D03*
X152280000Y-87680000D03*
X155401400Y-90563900D03*
X162373700Y-89649500D03*
X165396300Y-90627400D03*
X166390000Y-93570000D03*
X165434400Y-100571500D03*
X161408500Y-101651000D03*
X157458800Y-102590800D03*
X153445600Y-98577600D03*
X153445600Y-93650000D03*
X158474800Y-97612400D03*
X161421200Y-91618000D03*
X160405200Y-94589800D03*
X159414600Y-95618500D03*
X159440000Y-98552000D03*
X156442800Y-96596400D03*
X164418400Y-94627900D03*
X160020000Y-78994000D03*
X160500000Y-97530000D03*
X187680600Y-76809600D03*
X187071000Y-106934000D03*
X178816000Y-82677000D03*
X179832000Y-106349800D03*
X187779660Y-136144000D03*
X156588460Y-134302500D03*
X153164540Y-127909320D03*
X133895000Y-123262220D03*
X133895000Y-118098400D03*
X133885000Y-112903940D03*
X133903720Y-128249680D03*
X124547580Y-113072420D03*
X124547580Y-118072420D03*
X124547580Y-123072420D03*
X124547580Y-128222420D03*
X189001400Y-67310000D03*
X178170000Y-132190000D03*
X140600000Y-88320000D03*
X179200000Y-87320000D03*
X166116000Y-80772000D03*
X168656000Y-111760000D03*
X147066000Y-83566000D03*
X148485000Y-74019000D03*
X131064000Y-81280000D03*
X131064000Y-71120000D03*
X138815000Y-74037000D03*
X178222000Y-119134000D03*
X175146243Y-104013757D03*
X152150000Y-103130000D03*
X139330000Y-108820000D03*
X135880000Y-78450000D03*
X140130000Y-82710000D03*
X136570000Y-102810000D03*
X184912000Y-69596000D03*
X155956000Y-115080228D03*
X169402000Y-118856000D03*
X155362788Y-101514788D03*
X187452000Y-88646000D03*
X178816000Y-78232000D03*
X175260000Y-82161000D03*
X175006000Y-113284000D03*
X182626000Y-112776000D03*
X153480000Y-107990000D03*
X146870000Y-112380000D03*
X168280000Y-103620000D03*
X179324000Y-134729819D03*
X125984000Y-77724000D03*
X183754000Y-116474000D03*
X163540000Y-100580000D03*
X180430000Y-99490000D03*
X177980000Y-97640000D03*
X175140000Y-95000000D03*
X158496000Y-99568000D03*
X157480000Y-100584000D03*
X159490000Y-89470000D03*
X175006000Y-136398000D03*
X173736000Y-132588000D03*
X187198000Y-131572000D03*
X154630000Y-102570000D03*
X154461600Y-99593600D03*
X164430000Y-89630000D03*
X161036000Y-107696000D03*
X161290000Y-99568000D03*
X161380000Y-97460000D03*
X163490000Y-101600000D03*
X164418400Y-101574800D03*
X164308757Y-99568000D03*
X156392000Y-90602000D03*
X154240000Y-83670000D03*
X157408000Y-89586000D03*
X160456000Y-90602000D03*
X162460000Y-91460000D03*
D16*
X184890500Y-87376000D02*
X184890500Y-86127500D01*
X185360500Y-85657500D02*
X185360500Y-85344000D01*
X184890500Y-86127500D02*
X185360500Y-85657500D01*
X185360500Y-84641500D02*
X185420000Y-84582000D01*
X185360500Y-85344000D02*
X185360500Y-84641500D01*
D17*
X184890500Y-88116500D02*
X185674000Y-88900000D01*
X184890500Y-87376000D02*
X184890500Y-88116500D01*
D16*
X168656000Y-112797500D02*
X171450000Y-112797500D01*
X173736000Y-107928500D02*
X174222500Y-107928500D01*
X174222500Y-107928500D02*
X175006000Y-108712000D01*
X175006000Y-108712000D02*
X175006000Y-111760000D01*
X173968500Y-112797500D02*
X171450000Y-112797500D01*
X175006000Y-111760000D02*
X173968500Y-112797500D01*
X171196000Y-106404500D02*
X168656000Y-106404500D01*
X166116000Y-106112500D02*
X166818500Y-106112500D01*
X167110500Y-106404500D02*
X168656000Y-106404500D01*
X166818500Y-106112500D02*
X167110500Y-106404500D01*
X173206500Y-106404500D02*
X173736000Y-106934000D01*
X171196000Y-106404500D02*
X173206500Y-106404500D01*
X173736000Y-107928500D02*
X173736000Y-106934000D01*
X166116000Y-102026582D02*
X166116000Y-106112500D01*
X164831378Y-100741960D02*
X166116000Y-102026582D01*
X164831378Y-98791378D02*
X164831378Y-100741960D01*
X163152622Y-97112622D02*
X164831378Y-98791378D01*
X162390622Y-97112622D02*
X163152622Y-97112622D01*
X161899800Y-96621800D02*
X162390622Y-97112622D01*
X161395800Y-96621800D02*
X161899800Y-96621800D01*
X168656000Y-113314000D02*
X167920000Y-114050000D01*
X168656000Y-112797500D02*
X168656000Y-113314000D01*
D17*
X167824000Y-114992000D02*
X166370000Y-113538000D01*
X169379500Y-114992000D02*
X167824000Y-114992000D01*
X171402000Y-116538000D02*
X171402000Y-117602000D01*
X169672000Y-116332000D02*
X171196000Y-116332000D01*
X171196000Y-116332000D02*
X171402000Y-116538000D01*
X169379500Y-116039500D02*
X169672000Y-116332000D01*
X169379500Y-114992000D02*
X169379500Y-116039500D01*
X155477600Y-95580400D02*
X154751688Y-96306312D01*
X154751688Y-96306312D02*
X148295688Y-96306312D01*
X148295688Y-96306312D02*
X147320000Y-97282000D01*
X153402588Y-89680000D02*
X149683037Y-93399551D01*
X154460000Y-89680000D02*
X153402588Y-89680000D01*
X139960000Y-88392000D02*
X139000000Y-89352000D01*
X139000000Y-92179102D02*
X140220449Y-93399551D01*
X139000000Y-89352000D02*
X139000000Y-92179102D01*
X149683037Y-93399551D02*
X140220449Y-93399551D01*
X154410800Y-97561600D02*
X154057233Y-97915167D01*
X154057233Y-97915167D02*
X149818327Y-97915167D01*
X147708294Y-100025200D02*
X147269200Y-100025200D01*
X149818327Y-97915167D02*
X147708294Y-100025200D01*
X153923539Y-96042061D02*
X153964200Y-96001400D01*
X154410800Y-95554800D02*
X153964200Y-96001400D01*
X153964200Y-96001400D02*
X153953600Y-96012000D01*
X154410800Y-95554800D02*
X154017418Y-95948182D01*
X137790000Y-96560000D02*
X138307939Y-96042061D01*
X138777939Y-96042061D02*
X153923539Y-96042061D01*
X138307939Y-96042061D02*
X138777939Y-96042061D01*
X152632218Y-94987782D02*
X155054218Y-94987782D01*
X151842190Y-95777810D02*
X152632218Y-94987782D01*
X137222190Y-95777810D02*
X151842190Y-95777810D01*
X155054218Y-94987782D02*
X155426800Y-94615200D01*
X136753600Y-96246400D02*
X137222190Y-95777810D01*
X136753600Y-96926400D02*
X136753600Y-96246400D01*
X154410800Y-94589600D02*
X152053959Y-94589600D01*
X152053959Y-94589600D02*
X151130000Y-95513559D01*
X136296441Y-95513559D02*
X137103559Y-95513559D01*
X136010000Y-95800000D02*
X136296441Y-95513559D01*
X151130000Y-95513559D02*
X137103559Y-95513559D01*
X156181418Y-94191418D02*
X156410000Y-94420000D01*
X150865750Y-95249308D02*
X151923640Y-94191418D01*
X138641896Y-95249308D02*
X150865750Y-95249308D01*
X138302588Y-94910000D02*
X138641896Y-95249308D01*
X135440000Y-94910000D02*
X138302588Y-94910000D01*
X151923640Y-94191418D02*
X156181418Y-94191418D01*
X135180000Y-95170000D02*
X135440000Y-94910000D01*
X154038218Y-93251818D02*
X152334739Y-93251818D01*
X154410800Y-93624400D02*
X154038218Y-93251818D01*
X152334739Y-93251818D02*
X150601500Y-94985057D01*
X134380000Y-94530000D02*
X138296294Y-94530000D01*
X138751351Y-94985057D02*
X138795057Y-94985057D01*
X138296294Y-94530000D02*
X138751351Y-94985057D01*
X150601500Y-94985057D02*
X138795057Y-94985057D01*
X156044618Y-92235818D02*
X156442800Y-92634000D01*
X156044618Y-91624618D02*
X156044618Y-92235818D01*
X155144589Y-90962082D02*
X155138074Y-90955567D01*
X155360192Y-90962082D02*
X155144589Y-90962082D01*
X156022728Y-91624618D02*
X155360192Y-90962082D01*
X156044618Y-91624618D02*
X156022728Y-91624618D01*
X152500726Y-90955567D02*
X152345931Y-91110363D01*
X155138074Y-90955567D02*
X152500726Y-90955567D01*
X152345931Y-91110363D02*
X149792492Y-93663802D01*
X130302000Y-91440000D02*
X130556000Y-91186000D01*
X130556000Y-91186000D02*
X137538396Y-91186000D01*
X137538396Y-91186000D02*
X140016198Y-93663802D01*
X149792492Y-93663802D02*
X140016198Y-93663802D01*
X152610182Y-91219818D02*
X149901947Y-93928053D01*
X155028618Y-91219818D02*
X152610182Y-91219818D01*
X155426800Y-91618000D02*
X155028618Y-91219818D01*
X131170000Y-91870000D02*
X137848690Y-91870000D01*
X139906743Y-93928053D02*
X140048053Y-93928053D01*
X137848690Y-91870000D02*
X139906743Y-93928053D01*
X149901947Y-93928053D02*
X140048053Y-93928053D01*
X139612304Y-94192304D02*
X137990000Y-92570000D01*
X150195116Y-94192304D02*
X139612304Y-94192304D01*
X152177202Y-92210218D02*
X150195116Y-94192304D01*
X155003018Y-92210218D02*
X152177202Y-92210218D01*
X155426800Y-92634000D02*
X155003018Y-92210218D01*
X132020000Y-92570000D02*
X137990000Y-92570000D01*
X154650000Y-92608400D02*
X152152727Y-92608400D01*
X152152727Y-92608400D02*
X150304572Y-94456555D01*
X139502849Y-94456555D02*
X139606555Y-94456555D01*
X138336294Y-93290000D02*
X139502849Y-94456555D01*
X132740000Y-93290000D02*
X138336294Y-93290000D01*
X150304572Y-94456555D02*
X139606555Y-94456555D01*
X152225283Y-92987567D02*
X150492044Y-94720806D01*
X154373825Y-93213718D02*
X154147674Y-92987567D01*
X154147674Y-92987567D02*
X152225283Y-92987567D01*
X156933718Y-93213718D02*
X154373825Y-93213718D01*
X157390000Y-93670000D02*
X156933718Y-93213718D01*
X133600000Y-93900000D02*
X138040000Y-93900000D01*
X138860806Y-94720806D02*
X139320806Y-94720806D01*
X138040000Y-93900000D02*
X138860806Y-94720806D01*
X150492044Y-94720806D02*
X139320806Y-94720806D01*
X125984000Y-76200000D02*
X124978251Y-77205749D01*
X124978251Y-77205749D02*
X124978251Y-81678545D01*
X124978251Y-81678545D02*
X128633455Y-85333749D01*
X128633455Y-85333749D02*
X143266251Y-85333749D01*
X143266251Y-85333749D02*
X149098000Y-85333749D01*
X154432000Y-86614000D02*
X153151749Y-85333749D01*
X149849749Y-85333749D02*
X149860000Y-85333749D01*
X153151749Y-85333749D02*
X149849749Y-85333749D01*
X149098000Y-85333749D02*
X149849749Y-85333749D01*
X154178000Y-87376000D02*
X152400000Y-85598000D01*
X128524000Y-85598000D02*
X124714000Y-81788000D01*
X152400000Y-85598000D02*
X128524000Y-85598000D01*
X124714000Y-81788000D02*
X124714000Y-76454000D01*
X125618000Y-75550000D02*
X125549000Y-75619000D01*
X126096000Y-75550000D02*
X125618000Y-75550000D01*
X125549000Y-75619000D02*
X124714000Y-76454000D01*
X125603000Y-75565000D02*
X125549000Y-75619000D01*
X153082942Y-99324210D02*
X153151790Y-99324210D01*
X121920000Y-96520000D02*
X123698000Y-96520000D01*
X151000084Y-99324210D02*
X143644294Y-106680000D01*
X154141726Y-99324210D02*
X151000084Y-99324210D01*
X143644294Y-106680000D02*
X128524000Y-106680000D01*
X124206000Y-102362000D02*
X124206000Y-97028000D01*
X128524000Y-106680000D02*
X124206000Y-102362000D01*
X123698000Y-96520000D02*
X124206000Y-97028000D01*
X158550000Y-94839690D02*
X158550000Y-96043664D01*
X159746039Y-93643651D02*
X158550000Y-94839690D01*
X161828885Y-93643651D02*
X159746039Y-93643651D01*
X162902536Y-92570000D02*
X161828885Y-93643651D01*
X164460000Y-92570000D02*
X162902536Y-92570000D01*
X154439308Y-99026582D02*
X155567082Y-99026582D01*
X154141680Y-99324210D02*
X154439308Y-99026582D01*
X153295790Y-99324210D02*
X154141680Y-99324210D01*
X158550000Y-96043664D02*
X156036832Y-98556832D01*
X153151790Y-99324210D02*
X153295790Y-99324210D01*
X155567082Y-99026582D02*
X156036832Y-98556832D01*
X153295790Y-99324210D02*
X154141726Y-99324210D01*
X128379818Y-94378182D02*
X128778000Y-93980000D01*
X131455166Y-103208182D02*
X128379818Y-100132834D01*
X142411818Y-103208182D02*
X131455166Y-103208182D01*
X128379818Y-100132834D02*
X128379818Y-94378182D01*
X165420000Y-89530000D02*
X165119264Y-89530000D01*
X163804056Y-91214056D02*
X161721752Y-93296361D01*
X159689751Y-93296361D02*
X157327600Y-95658512D01*
X153456551Y-97163449D02*
X153094210Y-97525790D01*
X165119264Y-89530000D02*
X163804056Y-90845208D01*
X157327600Y-95658512D02*
X157327600Y-96300864D01*
X163804056Y-90845208D02*
X163804056Y-91214056D01*
X146697226Y-98922774D02*
X142411818Y-103208182D01*
X157327600Y-96300864D02*
X156465015Y-97163449D01*
X161721752Y-93296361D02*
X159689751Y-93296361D01*
X156465015Y-97163449D02*
X153456551Y-97163449D01*
X147997976Y-98922774D02*
X146697226Y-98922774D01*
X153094210Y-97525790D02*
X149394961Y-97525790D01*
X149394961Y-97525790D02*
X147997976Y-98922774D01*
X128778000Y-100157310D02*
X130919190Y-102298500D01*
X128778000Y-98552000D02*
X128778000Y-100157310D01*
X130919190Y-102298500D02*
X142684500Y-102298500D01*
X142684500Y-102298500D02*
X145606500Y-99376500D01*
X145606500Y-99376500D02*
X145656917Y-99326083D01*
X146961477Y-98658523D02*
X146324477Y-98658523D01*
X146324477Y-98658523D02*
X145606500Y-99376500D01*
X148720802Y-96899198D02*
X146961477Y-98658523D01*
X155470802Y-96899198D02*
X148720802Y-96899198D01*
X156171782Y-96198218D02*
X155470802Y-96899198D01*
X159580295Y-93032110D02*
X156414187Y-96198218D01*
X156414187Y-96198218D02*
X156171782Y-96198218D01*
X161477200Y-93032110D02*
X159580295Y-93032110D01*
X163380000Y-91129310D02*
X161477200Y-93032110D01*
X163380000Y-90560000D02*
X163380000Y-91129310D01*
X134112000Y-97790000D02*
X130556000Y-101346000D01*
X147401310Y-97790000D02*
X134112000Y-97790000D01*
X155143437Y-96570563D02*
X148620747Y-96570563D01*
X166903400Y-86410800D02*
X166201710Y-86410800D01*
X158512982Y-92920908D02*
X158512982Y-93136328D01*
X158512982Y-93136328D02*
X157581128Y-94068182D01*
X157198872Y-94068182D02*
X156991818Y-94275236D01*
X166201710Y-86410800D02*
X162564828Y-90047682D01*
X162564828Y-90047682D02*
X162182572Y-90047682D01*
X162182572Y-90047682D02*
X161819382Y-90410872D01*
X161819382Y-90410872D02*
X161819382Y-91870618D01*
X156991818Y-94722182D02*
X155143437Y-96570563D01*
X161819382Y-91870618D02*
X161528055Y-92161945D01*
X161528055Y-92161945D02*
X159271945Y-92161945D01*
X159271945Y-92161945D02*
X158512982Y-92920908D01*
X148620747Y-96570563D02*
X147401310Y-97790000D01*
X156991818Y-94275236D02*
X156991818Y-94722182D01*
X157581128Y-94068182D02*
X157198872Y-94068182D01*
X188468000Y-129556000D02*
X188468000Y-128778000D01*
X188468000Y-129556000D02*
X188468000Y-128524000D01*
X178800000Y-68056000D02*
X179070000Y-68326000D01*
X177546000Y-68056000D02*
X178800000Y-68056000D01*
X183658000Y-68056000D02*
X183388000Y-68326000D01*
X184912000Y-68056000D02*
X183658000Y-68056000D01*
X164765782Y-91219818D02*
X164418400Y-91567200D01*
X166421892Y-91219818D02*
X164765782Y-91219818D01*
X166848582Y-90793128D02*
X166421892Y-91219818D01*
X166848582Y-90577524D02*
X166848582Y-90793128D01*
X168932506Y-88493600D02*
X166848582Y-90577524D01*
X169875200Y-88493600D02*
X168932506Y-88493600D01*
X166450400Y-90602000D02*
X168965200Y-88087200D01*
X168965200Y-88087200D02*
X169468800Y-88087200D01*
X129432600Y-129432600D02*
X129540000Y-129540000D01*
X126547580Y-129432600D02*
X129432600Y-129432600D01*
X136080000Y-129540000D02*
X136200000Y-129420000D01*
X129540000Y-129540000D02*
X136080000Y-129540000D01*
D18*
X126948800Y-127083820D02*
X126797580Y-126932600D01*
D17*
X129507400Y-127032600D02*
X129540000Y-127000000D01*
X126547580Y-127032600D02*
X129507400Y-127032600D01*
X136180000Y-127000000D02*
X136200000Y-127020000D01*
X129540000Y-127000000D02*
X136180000Y-127000000D01*
X151842984Y-104394000D02*
X147798824Y-104394000D01*
X152918251Y-103318733D02*
X151842984Y-104394000D01*
X147798824Y-104394000D02*
X143794753Y-108398071D01*
X152918251Y-103113749D02*
X152918251Y-103318733D01*
X154915394Y-101116606D02*
X152918251Y-103113749D01*
X155222704Y-101116606D02*
X154915394Y-101116606D01*
X156464000Y-99875310D02*
X155222704Y-101116606D01*
X156464000Y-99568000D02*
X156464000Y-99875310D01*
X138200000Y-121720000D02*
X139510000Y-121720000D01*
X139510000Y-121720000D02*
X140888502Y-120341498D01*
X140888502Y-111304322D02*
X147798824Y-104394000D01*
X140888502Y-120341498D02*
X140888502Y-111304322D01*
X151733528Y-104129749D02*
X147689369Y-104129749D01*
X152654000Y-103209276D02*
X151733528Y-104129749D01*
X152654000Y-102751123D02*
X152654000Y-103209276D01*
X154805123Y-100600000D02*
X152654000Y-102751123D01*
X155150000Y-100600000D02*
X154805123Y-100600000D01*
X138086640Y-119150120D02*
X139769880Y-119150120D01*
X139769880Y-119150120D02*
X140624251Y-118295749D01*
X140624251Y-118295749D02*
X140624251Y-111194867D01*
X140624251Y-111194867D02*
X143684559Y-108134559D01*
X143684559Y-108134559D02*
X143530502Y-108288616D01*
X147689369Y-104129749D02*
X143684559Y-108134559D01*
X155357092Y-100201818D02*
X154829599Y-100201818D01*
X154829599Y-100201818D02*
X152299599Y-102731818D01*
X156065818Y-99493092D02*
X155357092Y-100201818D01*
X156065818Y-99090960D02*
X156065818Y-99493092D01*
X156534389Y-98622389D02*
X156065818Y-99090960D01*
X151477492Y-102731818D02*
X150577310Y-103632000D01*
X152299599Y-102731818D02*
X151477492Y-102731818D01*
X150577310Y-103632000D02*
X147813412Y-103632000D01*
X144018000Y-107427412D02*
X143266251Y-108179161D01*
X138076640Y-116880120D02*
X139679880Y-116880120D01*
X139679880Y-116880120D02*
X140360000Y-116200000D01*
X140360000Y-111085412D02*
X144562706Y-106882706D01*
X140360000Y-116200000D02*
X140360000Y-111085412D01*
X144562706Y-106882706D02*
X144018000Y-107427412D01*
X147813412Y-103632000D02*
X144562706Y-106882706D01*
X153594701Y-100000701D02*
X153451851Y-99857851D01*
X154657009Y-100000701D02*
X153594701Y-100000701D01*
X153451851Y-99857851D02*
X151213855Y-99857851D01*
X155064110Y-99593600D02*
X154657009Y-100000701D01*
X155376000Y-99593600D02*
X155064110Y-99593600D01*
X143002000Y-108069706D02*
X142603456Y-108468250D01*
X138066640Y-114470120D02*
X139259880Y-114470120D01*
X139259880Y-114470120D02*
X140070000Y-113660000D01*
X140070000Y-111001706D02*
X144020853Y-107050853D01*
X140070000Y-113660000D02*
X140070000Y-111001706D01*
X144020853Y-107050853D02*
X143002000Y-108069706D01*
X151213855Y-99857851D02*
X144020853Y-107050853D01*
X182298181Y-86794181D02*
X182298181Y-86320000D01*
X178407818Y-93118182D02*
X182298181Y-89227819D01*
X171899861Y-93118182D02*
X178407818Y-93118182D01*
X182298181Y-89227819D02*
X182298181Y-86794181D01*
X171300000Y-92518321D02*
X171899861Y-93118182D01*
X172400000Y-92720000D02*
X176266000Y-92720000D01*
X176266000Y-92720000D02*
X178298000Y-92720000D01*
X181900000Y-89118000D02*
X181900000Y-86904000D01*
X178298000Y-92720000D02*
X181900000Y-89118000D01*
X181900000Y-85720000D02*
X181900000Y-86904000D01*
X164020218Y-91758328D02*
X164020218Y-91376072D01*
X164227272Y-91965382D02*
X164020218Y-91758328D01*
X171458708Y-85220000D02*
X181400000Y-85220000D01*
X164835382Y-91965382D02*
X164227272Y-91965382D01*
X165530000Y-92660000D02*
X164835382Y-91965382D01*
X165167072Y-90229218D02*
X166056782Y-90229218D01*
X164020218Y-91376072D02*
X165167072Y-90229218D01*
X168890736Y-86556354D02*
X170122354Y-86556354D01*
X167951646Y-87495444D02*
X168890736Y-86556354D01*
X167951646Y-88334354D02*
X167951646Y-87495444D01*
X166056782Y-90229218D02*
X167951646Y-88334354D01*
X170122354Y-86556354D02*
X171458708Y-85220000D01*
X176639818Y-109837818D02*
X176639818Y-101963818D01*
X178308000Y-111506000D02*
X176639818Y-109837818D01*
X176639818Y-101963818D02*
X176530000Y-101854000D01*
X166399600Y-99593600D02*
X167459906Y-99593600D01*
X169362290Y-99593600D02*
X170352690Y-100584000D01*
X166399600Y-99593600D02*
X169189600Y-99593600D01*
X169189600Y-99593600D02*
X169362290Y-99593600D01*
X175260000Y-100584000D02*
X176639818Y-101963818D01*
X170352690Y-100584000D02*
X175260000Y-100584000D01*
X166638621Y-104154621D02*
X166878000Y-104394000D01*
X166638621Y-102616000D02*
X166638621Y-104154621D01*
X175514000Y-100076000D02*
X177038000Y-101600000D01*
X177038000Y-101600000D02*
X177038000Y-109220000D01*
X170434000Y-100076000D02*
X175514000Y-100076000D01*
X166428108Y-100211418D02*
X167568628Y-100211418D01*
X166001418Y-99784728D02*
X166428108Y-100211418D01*
X166001418Y-99258918D02*
X166001418Y-99784728D01*
X163351600Y-96609100D02*
X166001418Y-99258918D01*
X167568628Y-100211418D02*
X167691373Y-100211418D01*
X176276000Y-110236000D02*
X178308000Y-112268000D01*
X176276000Y-101973706D02*
X176276000Y-110236000D01*
X175150545Y-100848251D02*
X176276000Y-101973706D01*
X170243234Y-100848251D02*
X175150545Y-100848251D01*
X169606402Y-100211418D02*
X170243234Y-100848251D01*
X167691373Y-100211418D02*
X169606402Y-100211418D01*
X169267110Y-103980000D02*
X171400000Y-103980000D01*
X166892852Y-101605742D02*
X169267110Y-103980000D01*
X166434258Y-101605742D02*
X166892852Y-101605742D01*
X173482000Y-116332000D02*
X173482000Y-118110000D01*
X173482000Y-118110000D02*
X171958000Y-119634000D01*
X171958000Y-119634000D02*
X166624000Y-119634000D01*
X165354000Y-106934000D02*
X165354000Y-118364000D01*
X165354000Y-118364000D02*
X166624000Y-119634000D01*
X143400813Y-129380600D02*
X142309400Y-129380600D01*
X158825707Y-113955707D02*
X158825707Y-113994293D01*
X158825707Y-113994293D02*
X158790000Y-114030000D01*
X160274000Y-103243706D02*
X160274000Y-100584000D01*
X159401483Y-104116223D02*
X160274000Y-103243706D01*
X159401483Y-113379930D02*
X159401483Y-104116223D01*
X158645707Y-114135707D02*
X159401483Y-113379930D01*
X158825707Y-113955707D02*
X158645707Y-114135707D01*
X158645707Y-114135707D02*
X143400813Y-129380600D01*
X144339400Y-126840600D02*
X142319400Y-126840600D01*
X159137233Y-113270474D02*
X145567107Y-126840600D01*
X145567107Y-126840600D02*
X144339400Y-126840600D01*
X159137233Y-104006767D02*
X159137233Y-113270474D01*
X159838182Y-103305818D02*
X159137233Y-104006767D01*
X159838182Y-102434182D02*
X159838182Y-103305818D01*
X159258000Y-101854000D02*
X159838182Y-102434182D01*
X159258000Y-99822000D02*
X159258000Y-101854000D01*
X159512000Y-99568000D02*
X159258000Y-99822000D01*
X158474800Y-101574800D02*
X158474800Y-105432908D01*
X158474800Y-105432908D02*
X158474800Y-113150738D01*
X147401138Y-124224400D02*
X147762769Y-123862769D01*
X142344400Y-124224400D02*
X147401138Y-124224400D01*
X158474800Y-113150738D02*
X147762769Y-123862769D01*
X157916000Y-102458736D02*
X157916000Y-105486000D01*
X157458800Y-102001536D02*
X157916000Y-102458736D01*
X157458800Y-101574800D02*
X157458800Y-102001536D01*
X157916000Y-105486000D02*
X157916000Y-111832000D01*
X148012800Y-121735200D02*
X148179000Y-121569000D01*
X142475200Y-121735200D02*
X148012800Y-121735200D01*
X157916000Y-111832000D02*
X148179000Y-121569000D01*
X143002000Y-118660000D02*
X142416000Y-119246000D01*
X156442800Y-101574800D02*
X156723775Y-101855775D01*
X156723775Y-101855775D02*
X156723775Y-105912225D01*
X156723775Y-105912225D02*
X156723775Y-107119623D01*
X142416000Y-119246000D02*
X144902000Y-116760000D01*
X147482903Y-114179097D02*
X142416000Y-119246000D01*
X149664301Y-114179097D02*
X147482903Y-114179097D01*
X156723775Y-107119623D02*
X149664301Y-114179097D01*
X156044618Y-101003382D02*
X156044618Y-106260618D01*
X157480000Y-99568000D02*
X156044618Y-101003382D01*
X156044618Y-106260618D02*
X156044618Y-107425074D01*
X156044618Y-107425074D02*
X150657846Y-112811846D01*
X150657846Y-112811846D02*
X150622000Y-112847692D01*
X142494000Y-116586000D02*
X142196200Y-116883800D01*
X149554846Y-113914846D02*
X150657846Y-112811846D01*
X145165154Y-113914846D02*
X149554846Y-113914846D01*
X142196200Y-116883800D02*
X145165154Y-113914846D01*
X153979241Y-99059959D02*
X150876041Y-99059959D01*
X154410800Y-98628400D02*
X153979241Y-99059959D01*
X144018000Y-105918000D02*
X141986000Y-105918000D01*
X150876041Y-99059959D02*
X144018000Y-105918000D01*
X155426800Y-98577600D02*
X154949264Y-98577600D01*
X154949264Y-98577600D02*
X154551113Y-98179449D01*
X154550520Y-98179418D02*
X151248582Y-98179418D01*
X154550551Y-98179449D02*
X154550520Y-98179418D01*
X154551113Y-98179449D02*
X154550551Y-98179449D01*
X151248582Y-98179418D02*
X144526000Y-104902000D01*
X144526000Y-104902000D02*
X142240000Y-104902000D01*
X142240000Y-104902000D02*
X141986000Y-104902000D01*
X132080000Y-68040000D02*
X132080000Y-66040000D01*
X134331255Y-70291255D02*
X132080000Y-68040000D01*
X155023843Y-70291255D02*
X134331255Y-70291255D01*
X156242996Y-71510408D02*
X155023843Y-70291255D01*
X156245369Y-88745369D02*
X156245369Y-74005451D01*
X156777482Y-89277482D02*
X156245369Y-88745369D01*
X156777482Y-89971482D02*
X156777482Y-89277482D01*
X156242996Y-74003078D02*
X156242996Y-71510408D01*
X156245369Y-74005451D02*
X156242996Y-74003078D01*
X157408000Y-90602000D02*
X156777482Y-89971482D01*
X128470000Y-82990000D02*
X128470000Y-73900000D01*
X130549498Y-85069498D02*
X128470000Y-82990000D01*
X149820502Y-85069498D02*
X130549498Y-85069498D01*
X150190000Y-84700000D02*
X149820502Y-85069498D01*
X127000000Y-72430000D02*
X128470000Y-73900000D01*
X127000000Y-66040000D02*
X127000000Y-72430000D01*
X157038122Y-88134416D02*
X157038122Y-74421878D01*
X157922688Y-89018982D02*
X157038122Y-88134416D01*
X158280000Y-89018982D02*
X157922688Y-89018982D01*
X158424000Y-89162982D02*
X158280000Y-89018982D01*
X158424000Y-89586000D02*
X158424000Y-89162982D01*
X135930000Y-66910000D02*
X135930000Y-63950000D01*
X138518502Y-69498502D02*
X135930000Y-66910000D01*
X135480000Y-63500000D02*
X134620000Y-63500000D01*
X135930000Y-63950000D02*
X135480000Y-63500000D01*
X157038122Y-73677083D02*
X157035749Y-73674710D01*
X157038122Y-74421878D02*
X157038122Y-73677083D01*
X157035749Y-73674710D02*
X157035749Y-71179455D01*
X155354796Y-69498502D02*
X154728502Y-69498502D01*
X157035749Y-71179455D02*
X155354796Y-69498502D01*
X154728502Y-69498502D02*
X138518502Y-69498502D01*
X157806182Y-89276182D02*
X156773871Y-88243871D01*
X157806182Y-91353818D02*
X157806182Y-89276182D01*
X157450000Y-91710000D02*
X157806182Y-91353818D01*
X156773871Y-75263871D02*
X156773871Y-75106129D01*
X156773871Y-88243871D02*
X156773871Y-75263871D01*
X138342753Y-69762753D02*
X134620000Y-66040000D01*
X156771498Y-73784166D02*
X156771498Y-71291498D01*
X156773871Y-73786539D02*
X156771498Y-73784166D01*
X155242753Y-69762753D02*
X138342753Y-69762753D01*
X156771498Y-71291498D02*
X155242753Y-69762753D01*
X156773871Y-75263871D02*
X156773871Y-73786539D01*
X153860000Y-84220000D02*
X153677567Y-84037567D01*
X149295297Y-84540996D02*
X130768408Y-84540996D01*
X149798726Y-84037567D02*
X149295297Y-84540996D01*
X153677567Y-84037567D02*
X149798726Y-84037567D01*
X130768408Y-84538408D02*
X128998502Y-82768502D01*
X130768408Y-84540996D02*
X130768408Y-84538408D01*
X128998502Y-82768502D02*
X128998502Y-72218502D01*
X127000000Y-63500000D02*
X128250000Y-64750000D01*
X128250000Y-71470000D02*
X128665000Y-71885000D01*
X128250000Y-64750000D02*
X128250000Y-71470000D01*
X128998502Y-72218502D02*
X128665000Y-71885000D01*
X160672182Y-99966182D02*
X160274000Y-99568000D01*
X160538251Y-101081749D02*
X160672182Y-100947818D01*
X160538251Y-104371749D02*
X160538251Y-101081749D01*
X159680000Y-105230000D02*
X160538251Y-104371749D01*
X159680000Y-113513706D02*
X159680000Y-105230000D01*
X160672182Y-100947818D02*
X160672182Y-99966182D01*
X140413708Y-132780000D02*
X159680000Y-113513706D01*
X130180000Y-132780000D02*
X140413708Y-132780000D01*
X128290000Y-134670000D02*
X130180000Y-132780000D01*
X128290000Y-138410000D02*
X128290000Y-134670000D01*
X127000000Y-139700000D02*
X128290000Y-138410000D01*
X166366750Y-100604844D02*
X166783434Y-100604844D01*
X167186372Y-101007782D02*
X167978218Y-101007782D01*
X166783434Y-100604844D02*
X167186372Y-101007782D01*
X167978218Y-101007782D02*
X168082938Y-101112502D01*
X168082938Y-101112502D02*
X170133778Y-101112502D01*
X170133778Y-101112502D02*
X174518502Y-101112502D01*
X174518502Y-101112502D02*
X174772502Y-101112502D01*
X174772502Y-101112502D02*
X176011749Y-102351749D01*
X164564024Y-127775389D02*
X153910611Y-127775389D01*
X176430433Y-115908980D02*
X164564024Y-127775389D01*
X176430433Y-110764140D02*
X176430433Y-115908980D01*
X176011749Y-110345456D02*
X176430433Y-110764140D01*
X176011749Y-102351749D02*
X176011749Y-110345456D01*
X149860000Y-139700000D02*
X151130000Y-138430000D01*
X151130000Y-130556000D02*
X151198000Y-130488000D01*
X151130000Y-138430000D02*
X151130000Y-130556000D01*
X153910611Y-127775389D02*
X151198000Y-130488000D01*
X141914251Y-125572043D02*
X141914251Y-123315749D01*
X137190000Y-128740000D02*
X137690000Y-128240000D01*
X161638291Y-95789999D02*
X164220001Y-95789999D01*
X141914251Y-123315749D02*
X142840000Y-122390000D01*
X148056918Y-122390000D02*
X158210549Y-112236369D01*
X142840000Y-122390000D02*
X148056918Y-122390000D01*
X164220001Y-95789999D02*
X164420000Y-95590000D01*
X137690000Y-128240000D02*
X139246294Y-128240000D01*
X158210549Y-112236369D02*
X158210549Y-101899859D01*
X158210549Y-101899859D02*
X158013118Y-101702428D01*
X139246294Y-128240000D02*
X141914251Y-125572043D01*
X158013118Y-101702428D02*
X158013118Y-99415172D01*
X158013118Y-99415172D02*
X161638291Y-95789999D01*
X127000000Y-137160000D02*
X127000000Y-135240000D01*
X127000000Y-137160000D02*
X127000000Y-135010000D01*
X127000000Y-135010000D02*
X129860000Y-132150000D01*
X129860000Y-132150000D02*
X136100000Y-132150000D01*
X137190000Y-131060000D02*
X137190000Y-128740000D01*
X136100000Y-132150000D02*
X137190000Y-131060000D01*
X161290000Y-100584000D02*
X161290000Y-100866842D01*
X161290000Y-100866842D02*
X160802502Y-101354340D01*
X160802502Y-101354340D02*
X160802502Y-106659498D01*
X160802502Y-106659498D02*
X161434182Y-107291178D01*
X161434182Y-108545818D02*
X160476251Y-109503749D01*
X161434182Y-107291178D02*
X161434182Y-108545818D01*
X160476251Y-109503749D02*
X160476251Y-113464869D01*
X129540000Y-139700000D02*
X130840000Y-138400000D01*
X130840000Y-138400000D02*
X130840000Y-134420000D01*
X140561120Y-133380000D02*
X141110560Y-132830560D01*
X131880000Y-133380000D02*
X140561120Y-133380000D01*
X130840000Y-134420000D02*
X131880000Y-133380000D01*
X141110560Y-132830560D02*
X141051120Y-132890000D01*
X160476251Y-113464869D02*
X141110560Y-132830560D01*
X162070862Y-108656551D02*
X162070862Y-101890338D01*
X161004753Y-109722660D02*
X162070862Y-108656551D01*
X161004753Y-113683781D02*
X161004753Y-109722660D01*
X162070862Y-101890338D02*
X162386400Y-101574800D01*
X143199269Y-131489265D02*
X161004753Y-113683781D01*
X143199267Y-131489265D02*
X143199269Y-131489265D01*
X132080000Y-139700000D02*
X133490000Y-138290000D01*
X133490000Y-138290000D02*
X133490000Y-135080000D01*
X133490000Y-135080000D02*
X134654251Y-133915749D01*
X140772785Y-133915749D02*
X143199269Y-131489265D01*
X134654251Y-133915749D02*
X140772785Y-133915749D01*
X158822182Y-88429672D02*
X158422510Y-88030000D01*
X158822182Y-89394872D02*
X158822182Y-88429672D01*
X159440000Y-90012690D02*
X158822182Y-89394872D01*
X159440000Y-90602000D02*
X159440000Y-90012690D01*
X158422510Y-88030000D02*
X157810000Y-88030000D01*
X157810000Y-88030000D02*
X157302373Y-87522373D01*
X157302373Y-74822373D02*
X157302373Y-74650000D01*
X157302373Y-87522373D02*
X157302373Y-74822373D01*
X139152170Y-69234251D02*
X137160000Y-67242081D01*
X155464251Y-69234251D02*
X139152170Y-69234251D01*
X157300000Y-73565254D02*
X157300000Y-71070000D01*
X157302373Y-73567627D02*
X157300000Y-73565254D01*
X137160000Y-67242081D02*
X137160000Y-66040000D01*
X157300000Y-71070000D02*
X155464251Y-69234251D01*
X157302373Y-74822373D02*
X157302373Y-73567627D01*
X167012443Y-101207560D02*
X167658883Y-101854000D01*
X166380156Y-101207560D02*
X167012443Y-101207560D01*
X165968568Y-100795972D02*
X166380156Y-101207560D01*
X165968568Y-100182568D02*
X165968568Y-100795972D01*
X165354000Y-99568000D02*
X165968568Y-100182568D01*
X167658883Y-101854000D02*
X170942000Y-101854000D01*
X170942000Y-101854000D02*
X171196000Y-101854000D01*
X164454568Y-127511138D02*
X152904862Y-127511138D01*
X176166182Y-111335332D02*
X176166182Y-115799524D01*
X175544425Y-110713575D02*
X176166182Y-111335332D01*
X175544425Y-103822629D02*
X175544425Y-110713575D01*
X173575796Y-101854000D02*
X175544425Y-103822629D01*
X176166182Y-115799524D02*
X164454568Y-127511138D01*
X171196000Y-101854000D02*
X173575796Y-101854000D01*
X149860000Y-130556000D02*
X150668000Y-129748000D01*
X149860000Y-137160000D02*
X149860000Y-130556000D01*
X152904862Y-127511138D02*
X150668000Y-129748000D01*
X143896120Y-131166120D02*
X143731120Y-131331120D01*
X140882240Y-134180000D02*
X143896120Y-131166120D01*
X135520000Y-134180000D02*
X140882240Y-134180000D01*
X134620000Y-135080000D02*
X135520000Y-134180000D01*
X134620000Y-137160000D02*
X134620000Y-135080000D01*
X161114208Y-113948032D02*
X143896120Y-131166120D01*
X161269004Y-113793237D02*
X161114208Y-113948032D01*
X162335112Y-108774888D02*
X161269004Y-109840996D01*
X161269004Y-109840996D02*
X161269004Y-113793237D01*
X162784582Y-102695418D02*
X162335112Y-103144888D01*
X162784582Y-100046582D02*
X162784582Y-102695418D01*
X162335112Y-103144888D02*
X162335112Y-108774888D01*
X162306000Y-99568000D02*
X162784582Y-100046582D01*
X163322000Y-99568000D02*
X164020218Y-100266218D01*
X164020218Y-102699782D02*
X164016038Y-102703962D01*
X164020218Y-100266218D02*
X164020218Y-102699782D01*
X164016038Y-102703962D02*
X164016038Y-108437668D01*
X164016038Y-108437668D02*
X163565751Y-108887955D01*
X163565751Y-108887955D02*
X162061756Y-110391950D01*
X162061756Y-114185657D02*
X150730000Y-125517413D01*
X162061756Y-110391950D02*
X162061756Y-114185657D01*
X144780000Y-139700000D02*
X146100000Y-138380000D01*
X146100000Y-130147414D02*
X146663707Y-129583707D01*
X146100000Y-138380000D02*
X146100000Y-130147414D01*
X150730000Y-125517413D02*
X146663707Y-129583707D01*
D19*
X121927400Y-129532600D02*
X121920000Y-129540000D01*
D16*
X148337500Y-87057500D02*
X148900000Y-87620000D01*
X146200000Y-87057500D02*
X148337500Y-87057500D01*
X149700000Y-88620000D02*
X149500000Y-88820000D01*
X151400000Y-88620000D02*
X149700000Y-88620000D01*
X149500000Y-88220000D02*
X148900000Y-87620000D01*
X149500000Y-88820000D02*
X149500000Y-88220000D01*
X151993657Y-88620000D02*
X152300000Y-88313657D01*
X151400000Y-88620000D02*
X151993657Y-88620000D01*
X174425000Y-90620000D02*
X175100000Y-89945000D01*
X175100000Y-89945000D02*
X175100000Y-87720000D01*
X174700000Y-87320000D02*
X173937500Y-87320000D01*
X175100000Y-87720000D02*
X174700000Y-87320000D01*
X172500000Y-90052500D02*
X173032500Y-90052500D01*
X173600000Y-90620000D02*
X174425000Y-90620000D01*
X173032500Y-90052500D02*
X173600000Y-90620000D01*
X173937500Y-87320000D02*
X172200000Y-87320000D01*
X172400000Y-90052500D02*
X170900000Y-90052500D01*
X168015900Y-90052500D02*
X167415600Y-90652800D01*
X170900000Y-90052500D02*
X168015900Y-90052500D01*
X154400000Y-106620000D02*
X154400000Y-105520000D01*
X155477600Y-104442400D02*
X155477600Y-102590800D01*
X154400000Y-105520000D02*
X155477600Y-104442400D01*
X154400000Y-106620000D02*
X153800000Y-106620000D01*
X153500000Y-106920000D02*
X151900000Y-106920000D01*
X153800000Y-106620000D02*
X153500000Y-106920000D01*
X162800000Y-86987500D02*
X164200000Y-86987500D01*
X160274000Y-86127500D02*
X161057500Y-86127500D01*
X161326500Y-86127500D02*
X162186500Y-86987500D01*
X160274000Y-86127500D02*
X161326500Y-86127500D01*
X162186500Y-86987500D02*
X162800000Y-86987500D01*
X160274000Y-86127500D02*
X159279500Y-86127500D01*
X159279500Y-86127500D02*
X158750000Y-85598000D01*
X158750000Y-85598000D02*
X158750000Y-83566000D01*
X158750000Y-83566000D02*
X159512000Y-82804000D01*
X159512000Y-82804000D02*
X161290000Y-82804000D01*
X161836500Y-83350500D02*
X163830000Y-83350500D01*
X161290000Y-82804000D02*
X161836500Y-83350500D01*
X166077500Y-83350500D02*
X166116000Y-83312000D01*
X163830000Y-83350500D02*
X166077500Y-83350500D01*
X182372000Y-136144000D02*
X182626000Y-136144000D01*
X181377500Y-136144000D02*
X182372000Y-136144000D01*
X182372000Y-136144000D02*
X182880000Y-136144000D01*
X183388000Y-136144000D02*
X183134000Y-136144000D01*
X182880000Y-136144000D02*
X183388000Y-136144000D01*
X183388000Y-136144000D02*
X184382500Y-136144000D01*
X171379500Y-114992000D02*
X172650000Y-114992000D01*
X150700000Y-102920000D02*
X150700000Y-101014000D01*
X151104400Y-100609600D02*
X153445600Y-100609600D01*
X150700000Y-101014000D02*
X151104400Y-100609600D01*
X160978622Y-91044578D02*
X160978622Y-90227378D01*
X162653036Y-88596682D02*
X161022340Y-90227378D01*
X161022340Y-90227378D02*
X160978622Y-90227378D01*
X163371318Y-88596682D02*
X164200000Y-87768000D01*
X162653036Y-88596682D02*
X163371318Y-88596682D01*
X164200000Y-86987500D02*
X164200000Y-87768000D01*
X160978622Y-91044578D02*
X160405200Y-91618000D01*
X151900000Y-106920000D02*
X149874000Y-106920000D01*
X148844000Y-107950000D02*
X148844000Y-108927500D01*
X149874000Y-106920000D02*
X148844000Y-107950000D01*
X148844000Y-109906000D02*
X148020000Y-110730000D01*
X148844000Y-108927500D02*
X148844000Y-109906000D01*
X158392000Y-91618000D02*
X157390000Y-92620000D01*
X160405200Y-91618000D02*
X158392000Y-91618000D01*
D19*
X186457500Y-136144000D02*
X187779660Y-136144000D01*
X124797580Y-126932600D02*
X124606140Y-126932600D01*
D16*
X124547580Y-129432600D02*
X124547580Y-128222420D01*
X124547580Y-124432600D02*
X124547580Y-123072420D01*
X124547580Y-119232600D02*
X124547580Y-118072420D01*
X124547580Y-111822420D02*
X124550000Y-111820000D01*
X124547580Y-114282600D02*
X124547580Y-113072420D01*
X124547580Y-113072420D02*
X124547580Y-111822420D01*
X124547580Y-118072420D02*
X124547580Y-116932600D01*
X124547580Y-123072420D02*
X124547580Y-121732600D01*
X124547580Y-128222420D02*
X124547580Y-127032600D01*
X151400000Y-89755000D02*
X151400000Y-90620000D01*
X151125000Y-90895000D02*
X149500000Y-90895000D01*
X151400000Y-90620000D02*
X151125000Y-90895000D01*
X149500000Y-90895000D02*
X148475000Y-90895000D01*
X147762500Y-90182500D02*
X146200000Y-90182500D01*
X148475000Y-90895000D02*
X147762500Y-90182500D01*
X146200000Y-90182500D02*
X143337500Y-90182500D01*
X142462500Y-90182500D02*
X140600000Y-88320000D01*
X146200000Y-90182500D02*
X142462500Y-90182500D01*
X177062500Y-87320000D02*
X177062500Y-88857500D01*
X176500000Y-89420000D02*
X176500000Y-90620000D01*
X177062500Y-88857500D02*
X176500000Y-89420000D01*
X172500000Y-91187500D02*
X171632500Y-91187500D01*
X171632500Y-91187500D02*
X170800000Y-91187500D01*
X177062500Y-87320000D02*
X179200000Y-87320000D01*
X154400000Y-107755000D02*
X154400000Y-108520000D01*
X153925000Y-108995000D02*
X152975000Y-108995000D01*
X154400000Y-108520000D02*
X153925000Y-108995000D01*
X152975000Y-108995000D02*
X151900000Y-108995000D01*
X162800000Y-85852500D02*
X164200000Y-85852500D01*
X160274000Y-84052500D02*
X161776500Y-84052500D01*
X162800000Y-85076000D02*
X162800000Y-85852500D01*
X161776500Y-84052500D02*
X162800000Y-85076000D01*
X163830000Y-80225500D02*
X165569500Y-80225500D01*
X165569500Y-80225500D02*
X166116000Y-80772000D01*
X164200000Y-85852500D02*
X165607500Y-85852500D01*
X166638622Y-84821378D02*
X165862000Y-85598000D01*
X166638622Y-81294622D02*
X166638622Y-84821378D01*
X165862000Y-85598000D02*
X166116000Y-85344000D01*
X166116000Y-80772000D02*
X166638622Y-81294622D01*
X165607500Y-85852500D02*
X165862000Y-85598000D01*
X168656000Y-110722500D02*
X171450000Y-110722500D01*
X168656000Y-110722500D02*
X168656000Y-111760000D01*
X173736000Y-110003500D02*
X173736000Y-111252000D01*
X173736000Y-111252000D02*
X173100631Y-111887369D01*
X171450000Y-111506000D02*
X171831369Y-111887369D01*
X171450000Y-110722500D02*
X171450000Y-111506000D01*
X171831369Y-111887369D02*
X173100631Y-111887369D01*
X168656000Y-108479500D02*
X171196000Y-108479500D01*
X173736000Y-109220000D02*
X173736000Y-110003500D01*
X173482000Y-108966000D02*
X173736000Y-109220000D01*
X172931000Y-108966000D02*
X173482000Y-108966000D01*
X172444500Y-108479500D02*
X172931000Y-108966000D01*
X171196000Y-108479500D02*
X172444500Y-108479500D01*
X166116000Y-107247500D02*
X166937500Y-107247500D01*
X166937500Y-107247500D02*
X167386000Y-107696000D01*
X167386000Y-107696000D02*
X167386000Y-108204000D01*
X167661500Y-108479500D02*
X168656000Y-108479500D01*
X167386000Y-108204000D02*
X167661500Y-108479500D01*
D17*
X175112486Y-103980000D02*
X175146243Y-104013757D01*
X173400000Y-103980000D02*
X175112486Y-103980000D01*
D16*
X176500000Y-90720000D02*
X176500000Y-90620000D01*
X169402000Y-117602000D02*
X169402000Y-118856000D01*
X186965500Y-87376000D02*
X186965500Y-86127500D01*
X186495500Y-85657500D02*
X186495500Y-85344000D01*
X186965500Y-86127500D02*
X186495500Y-85657500D01*
X186965500Y-88159500D02*
X187452000Y-88646000D01*
X186965500Y-87376000D02*
X186965500Y-88159500D01*
X148844000Y-112052500D02*
X148844000Y-110998000D01*
X148844000Y-110998000D02*
X149860000Y-109982000D01*
X150913000Y-109982000D02*
X151900000Y-108995000D01*
X149860000Y-109982000D02*
X150913000Y-109982000D01*
X147197500Y-112052500D02*
X146870000Y-112380000D01*
X148844000Y-112052500D02*
X147197500Y-112052500D01*
X172400000Y-91555000D02*
X172400000Y-91187500D01*
X176000000Y-92120000D02*
X172965000Y-92120000D01*
X176500000Y-91620000D02*
X176000000Y-92120000D01*
X172965000Y-92120000D02*
X172400000Y-91555000D01*
X176500000Y-90620000D02*
X176500000Y-91620000D01*
X179302500Y-134751319D02*
X179324000Y-134729819D01*
X179302500Y-136144000D02*
X179302500Y-134751319D01*
D17*
X158496000Y-99568000D02*
X158872982Y-99944982D01*
X158872982Y-105278982D02*
X158872982Y-113161018D01*
X158872982Y-99944982D02*
X158872982Y-105278982D01*
X158872982Y-105278982D02*
X158872982Y-105541018D01*
X140540000Y-127320000D02*
X143133000Y-124727000D01*
X143133000Y-124727000D02*
X147307000Y-124727000D01*
X140540000Y-128390000D02*
X140540000Y-127320000D01*
X139510000Y-129420000D02*
X140540000Y-128390000D01*
X138200000Y-129420000D02*
X139510000Y-129420000D01*
X158872982Y-113161018D02*
X147307000Y-124727000D01*
X139740000Y-127020000D02*
X138200000Y-127020000D01*
X141650000Y-120650000D02*
X141650000Y-125110000D01*
X143428000Y-118872000D02*
X141650000Y-120650000D01*
X145345104Y-118872000D02*
X143428000Y-118872000D01*
X141650000Y-125110000D02*
X139740000Y-127020000D01*
X157060618Y-107156486D02*
X145345104Y-118872000D01*
X157060618Y-101003382D02*
X157060618Y-107156486D01*
X157480000Y-100584000D02*
X157060618Y-101003382D01*
X129512600Y-124432600D02*
X129540000Y-124460000D01*
X126547580Y-124432600D02*
X129512600Y-124432600D01*
X136049958Y-124460000D02*
X136144979Y-124364979D01*
X129540000Y-124460000D02*
X136049958Y-124460000D01*
X129352600Y-121732600D02*
X129540000Y-121920000D01*
X126547580Y-121732600D02*
X129352600Y-121732600D01*
X136000000Y-121920000D02*
X136200000Y-121720000D01*
X129540000Y-121920000D02*
X136000000Y-121920000D01*
X129392600Y-119232600D02*
X129540000Y-119380000D01*
X126547580Y-119232600D02*
X129392600Y-119232600D01*
X135856760Y-119380000D02*
X136086640Y-119150120D01*
X129540000Y-119380000D02*
X135856760Y-119380000D01*
X129447400Y-116932600D02*
X129540000Y-116840000D01*
X126547580Y-116932600D02*
X129447400Y-116932600D01*
X136036520Y-116840000D02*
X136076640Y-116880120D01*
X129540000Y-116840000D02*
X136036520Y-116840000D01*
X129522600Y-114282600D02*
X129540000Y-114300000D01*
X126547580Y-114282600D02*
X129522600Y-114282600D01*
X135896520Y-114300000D02*
X136066640Y-114470120D01*
X129540000Y-114300000D02*
X135896520Y-114300000D01*
X129587500Y-112450000D02*
X129537500Y-112500000D01*
X129480000Y-111820000D02*
X129540000Y-111760000D01*
X126550000Y-111820000D02*
X129480000Y-111820000D01*
X135990000Y-111760000D02*
X136050000Y-111820000D01*
X129540000Y-111760000D02*
X135990000Y-111760000D01*
X159490000Y-89470000D02*
X159490000Y-88743706D01*
X159490000Y-88743706D02*
X159488147Y-88741853D01*
X138080000Y-63500000D02*
X138410000Y-63830000D01*
X138410000Y-63830000D02*
X138410000Y-67970000D01*
X155616294Y-68970000D02*
X157630000Y-70983706D01*
X137160000Y-63500000D02*
X138080000Y-63500000D01*
X138410000Y-67970000D02*
X139410000Y-68970000D01*
X139410000Y-68970000D02*
X155616294Y-68970000D01*
X159490000Y-88723784D02*
X159490000Y-89470000D01*
X157630000Y-86863784D02*
X158568108Y-87801892D01*
X158568108Y-87801892D02*
X159490000Y-88723784D01*
X157630000Y-70983706D02*
X157630000Y-86863784D01*
X175006000Y-136906000D02*
X177800000Y-139700000D01*
X175006000Y-136398000D02*
X175006000Y-136906000D01*
X176276000Y-135128000D02*
X173736000Y-132588000D01*
X185420000Y-139700000D02*
X183896000Y-138176000D01*
X179324000Y-138176000D02*
X176276000Y-135128000D01*
X183896000Y-138176000D02*
X179324000Y-138176000D01*
X185039000Y-65929000D02*
X184912000Y-66056000D01*
X185039000Y-63119000D02*
X185039000Y-65929000D01*
X177419000Y-65929000D02*
X177546000Y-66056000D01*
X177419000Y-63119000D02*
X177419000Y-65929000D01*
X187214000Y-131556000D02*
X187198000Y-131572000D01*
X188468000Y-131556000D02*
X187214000Y-131556000D01*
X154630000Y-102570000D02*
X154224000Y-102570000D01*
X154224000Y-102570000D02*
X153162000Y-103632000D01*
X152978689Y-103632000D02*
X151952440Y-104658251D01*
X153162000Y-103632000D02*
X152978689Y-103632000D01*
X151952440Y-104658251D02*
X147908279Y-104658251D01*
X147908279Y-104658251D02*
X145968265Y-106598265D01*
X138200000Y-124420000D02*
X139520000Y-124420000D01*
X139520000Y-124420000D02*
X141152753Y-122787247D01*
X141152753Y-122787247D02*
X141152753Y-111413777D01*
X141152753Y-111413777D02*
X144188265Y-108378265D01*
X144188265Y-108378265D02*
X144063265Y-108503265D01*
X145968265Y-106598265D02*
X144188265Y-108378265D01*
X138867749Y-111820000D02*
X138050000Y-111820000D01*
X142483749Y-108204000D02*
X138867749Y-111820000D01*
X142494000Y-108204000D02*
X142483749Y-108204000D01*
X151104400Y-99593600D02*
X142494000Y-108204000D01*
X154461600Y-99593600D02*
X151104400Y-99593600D01*
X165079118Y-88980882D02*
X165587428Y-88980882D01*
X164430000Y-89630000D02*
X165079118Y-88980882D01*
X167640000Y-63500000D02*
X169370000Y-65230000D01*
X169370000Y-65230000D02*
X169370000Y-68110000D01*
X169370000Y-85198310D02*
X167524155Y-87044155D01*
X169370000Y-68110000D02*
X169370000Y-85198310D01*
X165587428Y-88980882D02*
X167524155Y-87044155D01*
X160212000Y-113355413D02*
X160212000Y-108520000D01*
X140451665Y-133115749D02*
X160212000Y-113355413D01*
X130854251Y-133115749D02*
X140451665Y-133115749D01*
X129540000Y-134430000D02*
X130854251Y-133115749D01*
X160212000Y-108520000D02*
X161036000Y-107696000D01*
X129540000Y-137160000D02*
X129540000Y-134430000D01*
X161806682Y-101842128D02*
X161290000Y-102358810D01*
X161806682Y-100084682D02*
X161806682Y-101842128D01*
X161290000Y-99568000D02*
X161806682Y-100084682D01*
X161290000Y-102358810D02*
X161290000Y-106426000D01*
X161290000Y-106773290D02*
X161698433Y-107181722D01*
X161290000Y-106426000D02*
X161290000Y-106773290D01*
X161698433Y-108655274D02*
X161698433Y-107181722D01*
X160740502Y-109613204D02*
X161698433Y-108655274D01*
X160740502Y-113574325D02*
X160740502Y-109613204D01*
X143142414Y-131172414D02*
X160740502Y-113574325D01*
X142985749Y-131329077D02*
X143142414Y-131172414D01*
X140663330Y-133651498D02*
X143142414Y-131172414D01*
X133338502Y-133651498D02*
X140663330Y-133651498D01*
X132080000Y-134910000D02*
X133338502Y-133651498D01*
X132080000Y-137160000D02*
X132080000Y-134910000D01*
X134620000Y-139700000D02*
X135410000Y-139700000D01*
X161380000Y-97850000D02*
X161380000Y-97460000D01*
X134620000Y-139700000D02*
X135900000Y-138420000D01*
X135900000Y-138420000D02*
X135900000Y-135260000D01*
X163487536Y-103197536D02*
X163091818Y-102801818D01*
X135900000Y-135260000D02*
X136680000Y-134480000D01*
X136680000Y-134480000D02*
X140955947Y-134480000D01*
X140955947Y-134480000D02*
X161533255Y-113902692D01*
X161533255Y-110146745D02*
X163487536Y-108192464D01*
X163091818Y-99927128D02*
X162704182Y-99539492D01*
X162704182Y-99174182D02*
X161380000Y-97850000D01*
X163487536Y-108192464D02*
X163487536Y-103197536D01*
X161533255Y-113902692D02*
X161533255Y-110146745D01*
X163091818Y-102801818D02*
X163091818Y-99927128D01*
X162704182Y-99539492D02*
X162704182Y-99174182D01*
X163490000Y-101600000D02*
X163751787Y-101861787D01*
X163751787Y-101861787D02*
X163751787Y-108328213D01*
X163751787Y-108328213D02*
X161797505Y-110282494D01*
X161797505Y-110282494D02*
X161797505Y-114076202D01*
X144780000Y-131093708D02*
X145436854Y-130436854D01*
X144780000Y-137160000D02*
X144780000Y-131093708D01*
X161797505Y-114076202D02*
X145436854Y-130436854D01*
X164351853Y-103488147D02*
X164351853Y-105621853D01*
X164816582Y-103023418D02*
X164351853Y-103488147D01*
X164816582Y-101972982D02*
X164816582Y-103023418D01*
X164351853Y-105621853D02*
X164280288Y-105693418D01*
X164418400Y-101574800D02*
X164816582Y-101972982D01*
X164351853Y-108552957D02*
X164351853Y-105621853D01*
X162326007Y-110578803D02*
X164351853Y-108552957D01*
X162326007Y-114295113D02*
X162326007Y-110578803D01*
X147320000Y-129301120D02*
X148550560Y-128070560D01*
X147320000Y-137160000D02*
X147320000Y-129301120D01*
X148550560Y-128070560D02*
X162326007Y-114295113D01*
X164308757Y-100875847D02*
X165161050Y-101728140D01*
X165161050Y-101728140D02*
X165161050Y-105094950D01*
X164308757Y-99568000D02*
X164308757Y-100875847D01*
X165161050Y-105094950D02*
X165161050Y-105186362D01*
X164616104Y-106433896D02*
X164616104Y-108753896D01*
X165161050Y-105888950D02*
X164616104Y-106433896D01*
X165161050Y-105094950D02*
X165161050Y-105888950D01*
X162590258Y-110779742D02*
X162590258Y-114479742D01*
X164616104Y-108753896D02*
X162590258Y-110779742D01*
X148368183Y-128701817D02*
X149160000Y-127910000D01*
X148368183Y-138651817D02*
X148368183Y-128701817D01*
X147320000Y-139700000D02*
X148368183Y-138651817D01*
X162590258Y-114479742D02*
X149160000Y-127910000D01*
X130705000Y-64665000D02*
X129540000Y-63500000D01*
X130705000Y-68475000D02*
X130705000Y-64665000D01*
X155978745Y-71619863D02*
X154914388Y-70555506D01*
X155978745Y-74112534D02*
X155978745Y-71619863D01*
X155981118Y-74114907D02*
X155978745Y-74112534D01*
X154914388Y-70555506D02*
X132785506Y-70555506D01*
X155981118Y-90191118D02*
X155981118Y-74114907D01*
X132785506Y-70555506D02*
X130705000Y-68475000D01*
X156392000Y-90602000D02*
X155981118Y-90191118D01*
X153737818Y-83167818D02*
X146882182Y-83167818D01*
X154240000Y-83670000D02*
X153737818Y-83167818D01*
X143912182Y-83167818D02*
X142803255Y-84276745D01*
X146882182Y-83167818D02*
X143912182Y-83167818D01*
X129540000Y-66040000D02*
X129540000Y-68810000D01*
X129540000Y-66040000D02*
X129540000Y-69110000D01*
X129540000Y-66040000D02*
X129540000Y-82060000D01*
X131756745Y-84276745D02*
X132006745Y-84276745D01*
X129540000Y-82060000D02*
X131756745Y-84276745D01*
X142803255Y-84276745D02*
X132006745Y-84276745D01*
X133350000Y-64770000D02*
X132080000Y-63500000D01*
X136007004Y-70027004D02*
X133350000Y-67370000D01*
X156507247Y-71400953D02*
X155133298Y-70027004D01*
X156507247Y-73893622D02*
X156507247Y-71400953D01*
X155133298Y-70027004D02*
X136007004Y-70027004D01*
X156509620Y-88404778D02*
X156509620Y-73895995D01*
X156509620Y-73895995D02*
X156507247Y-73893622D01*
X157408000Y-89303158D02*
X156509620Y-88404778D01*
X133350000Y-67370000D02*
X133350000Y-64770000D01*
X157408000Y-89586000D02*
X157408000Y-89303158D01*
X160129818Y-90275818D02*
X160129818Y-88739818D01*
X160456000Y-90602000D02*
X160129818Y-90275818D01*
X139700000Y-66040000D02*
X142330000Y-68670000D01*
X142330000Y-68670000D02*
X155690000Y-68670000D01*
X158004251Y-70984251D02*
X158004251Y-73825749D01*
X155690000Y-68670000D02*
X158004251Y-70984251D01*
X158004251Y-70984251D02*
X158004251Y-86614251D01*
X160129818Y-88739818D02*
X158004251Y-86614251D01*
X162981818Y-90368872D02*
X166541708Y-86808982D01*
X162981818Y-90938182D02*
X162981818Y-90368872D01*
X162460000Y-91460000D02*
X162981818Y-90938182D01*
X166541708Y-86808982D02*
X167311018Y-86808982D01*
X167800000Y-66200000D02*
X167640000Y-66040000D01*
X167800000Y-86320000D02*
X167800000Y-66200000D01*
X167311018Y-86808982D02*
X167800000Y-86320000D01*
D20*
X146302603Y-81033283D02*
X137507000Y-81052719D01*
X137507000Y-74926719D01*
X146283399Y-74907280D01*
X146302603Y-81033283D01*
G04 #@! TA.AperFunction,Conductor*
D21*
G36*
X146302603Y-81033283D02*
G01*
X137507000Y-81052719D01*
X137507000Y-74926719D01*
X146283399Y-74907280D01*
X146302603Y-81033283D01*
G37*
G04 #@! TD.AperFunction*
D20*
X155038076Y-74831910D02*
X155042900Y-80933023D01*
X147236304Y-80942841D01*
X147202723Y-74822091D01*
X155038076Y-74831910D01*
G04 #@! TA.AperFunction,Conductor*
D21*
G36*
X155038076Y-74831910D02*
G01*
X155042900Y-80933023D01*
X147236304Y-80942841D01*
X147202723Y-74822091D01*
X155038076Y-74831910D01*
G37*
G04 #@! TD.AperFunction*
M02*
